<?xml version="1.0" standalone="no"?>
<!DOCTYPE svg PUBLIC "-//W3C//DTD SVG 20010904//EN"
 "http://www.w3.org/TR/2001/REC-SVG-20010904/DTD/svg10.dtd">
<svg version="1.0" xmlns="http://www.w3.org/2000/svg"
 width="800.000000pt" height="800.000000pt" viewBox="0 0 800.000000 800.000000"
 preserveAspectRatio="xMidYMid meet">
<metadata>
Created by potrace 1.11, written by Peter Selinger 2001-2013
</metadata>
<g transform="translate(0.000000,800.000000) scale(0.100000,-0.100000)"
fill="#000000" stroke="none">
<path d="M3798 7935 c-2 -2 -48 -6 -103 -9 -55 -3 -111 -8 -125 -10 -14 -3
-47 -7 -75 -10 -27 -3 -77 -10 -110 -16 -33 -6 -80 -13 -105 -16 -24 -3 -47
-7 -51 -9 -3 -2 -20 -7 -37 -10 -155 -27 -447 -114 -652 -194 -68 -27 -341
-151 -356 -163 -6 -4 -31 -19 -55 -32 -84 -45 -208 -116 -224 -128 -5 -5 -48
-33 -95 -64 -77 -51 -268 -190 -280 -204 -3 -3 -21 -18 -40 -34 -119 -97 -304
-275 -408 -391 -30 -33 -66 -73 -81 -90 -45 -49 -194 -244 -252 -330 -250
-367 -417 -728 -549 -1184 -12 -41 -23 -82 -25 -91 -2 -10 -13 -61 -24 -114
-12 -53 -24 -113 -27 -133 -3 -19 -7 -43 -9 -52 -16 -82 -33 -225 -43 -361
-13 -180 -6 -618 12 -720 3 -14 7 -51 11 -82 7 -64 26 -179 50 -303 9 -44 45
-195 56 -230 170 -576 396 -1012 748 -1445 236 -291 542 -572 831 -764 47 -31
90 -59 95 -64 83 -62 414 -236 591 -311 172 -72 466 -171 584 -195 14 -3 54
-12 90 -21 89 -20 294 -56 355 -61 28 -3 61 -7 75 -9 107 -20 552 -27 730 -12
52 5 115 10 140 12 25 2 59 6 75 9 53 9 169 28 205 32 19 3 43 7 52 10 10 3
30 7 44 10 252 46 616 171 904 311 730 355 1326 919 1723 1627 133 239 252
518 329 776 44 148 95 367 113 485 3 22 10 67 15 100 39 251 48 805 16 985 -3
14 -7 51 -11 82 -5 53 -11 88 -34 221 -13 70 -49 229 -67 297 -57 205 -202
593 -250 667 -8 12 -14 26 -14 31 0 24 -180 337 -269 467 -333 488 -739 875
-1235 1178 -130 80 -521 275 -566 283 -3 0 -18 6 -35 13 -88 37 -403 138 -485
155 -14 3 -77 17 -140 30 -63 14 -137 28 -165 31 -27 3 -57 8 -65 10 -18 5
-71 12 -155 21 -33 3 -73 8 -90 11 -34 5 -532 13 -537 8z"/>
</g>
</svg>
