<?xml version="1.0" encoding="utf-8"?>
<!-- Generator: Adobe Illustrator 21.1.0, SVG Export Plug-In . SVG Version: 6.00 Build 0)  -->
<svg version="1.1" id="Calque_1" xmlns="http://www.w3.org/2000/svg" xmlns:xlink="http://www.w3.org/1999/xlink" x="0px" y="0px"
	 viewBox="0 0 452 91" style="enable-background:new 0 0 452 91;" xml:space="preserve">
<style type="text/css">
	.st0{fill:#FFFFFF;}
</style>
<g>
	<g>
		<path class="st0" d="M7.7,45.1c0-17.7,10.4-32.8,25.5-39.7H0v79.4h33.3C18.2,77.9,7.7,62.8,7.7,45.1 M82.2,14.2L66.9,29.4
			c-4-3.9-9.5-6.4-15.5-6.4c-12.2,0-22.1,9.9-22.1,22.1c0,12.2,9.9,22.1,22.1,22.1c6,0,11.5-2.4,15.5-6.3l15.2,15.2
			c-3.6,3.6-7.9,6.5-12.6,8.7h21.2V5.4H69.6C74.3,7.6,78.6,10.6,82.2,14.2z M147.4,5.4h-36.2l36.2,43.3V5.4z M113.3,84.8h36
			l-36-43.1C113.3,41.7,113.3,84.8,113.3,84.8z M177.8,45.1c0-17.7,10.4-32.8,25.5-39.7h-33.2v79.4h33.3
			C188.3,77.9,177.8,62.8,177.8,45.1z M239.6,5.4c4.7,2.2,9,5.1,12.7,8.8L237,29.4c-4-3.9-9.5-6.4-15.5-6.4
			c-12.2,0-22.1,9.9-22.1,22.1c0,12.2,9.9,22.1,22.1,22.1c6,0,11.5-2.4,15.5-6.3l15.2,15.2c-3.6,3.6-7.9,6.5-12.6,8.7h21.2V5.4
			H239.6z"/>
	</g>
</g>
<g>
	<g>
		<path class="st0" d="M282.7,16.9c-0.9,1.1-2.5,2.1-4.5,2.1c-2,0-3.7-1-4.6-2.1c-1-1.2-1.4-2.9-1.4-4.8c0-1.9,0.5-3.6,1.4-4.8
			c0.9-1.1,2.6-2.1,4.6-2.1c2,0,3.6,0.9,4.5,2.1c0.6,0.8,1,1.8,1,2.9h-3.1c0-0.5-0.2-0.9-0.4-1.2c-0.4-0.6-1.1-1-2-1
			c-0.9,0-1.5,0.4-1.9,0.8c-0.8,0.8-0.9,2.1-0.9,3.4c0,1.2,0.1,2.5,0.9,3.3c0.4,0.5,1.1,0.8,1.9,0.8c1,0,1.7-0.4,2-1
			c0.2-0.3,0.4-0.7,0.4-1.2h3.1C283.6,15,283.3,16.1,282.7,16.9"/>
	</g>
	<g>
		<path class="st0" d="M297.7,13h-8.9c0,1,0.3,2,1,2.6c0.5,0.4,1.1,0.8,2,0.8c0.9,0,1.5-0.2,1.9-0.6c0.3-0.3,0.5-0.6,0.6-1.1h3.1
			c-0.1,0.8-0.6,1.8-1.1,2.4c-1.1,1.3-2.8,1.9-4.5,1.9c-1.8,0-3.1-0.6-4.2-1.6c-1.3-1.3-2-3.1-2-5.3c0-2.1,0.6-4,1.9-5.3
			c1-1,2.4-1.7,4.2-1.7c2,0,3.7,0.8,4.8,2.4c1,1.5,1.2,3,1.1,4.6C297.7,12.2,297.7,12.8,297.7,13 M293.7,8.4c-0.4-0.5-1.1-0.8-2-0.8
			c-1,0-1.8,0.4-2.2,1c-0.5,0.6-0.7,1.2-0.7,2.1h5.7C294.5,9.7,294.2,9,293.7,8.4z"/>
	</g>
	<g>
		<path class="st0" d="M308.8,18.7v-8.1c0-1.6-0.5-2.5-2.2-2.5c-1.1,0-1.9,0.7-2.3,1.7c-0.5,1-0.4,2.4-0.4,3.5v5.4h-3.2V5.4h2.7
			l0.2,1.7c0.8-1.4,2.4-2,3.9-2c2.8,0,4.5,2,4.5,4.7v8.8L308.8,18.7"/>
	</g>
	<g>
		<path class="st0" d="M320.5,18.9c-2.7,0-4-1.5-4-4.1V8.1h-2.4V5.4h2.4V2.1l3.2-0.8v4.2h3.3v2.6h-3.3v6.4c0,1,0.5,1.5,1.5,1.5
			c0.7,0,1.2,0,2.1-0.1v2.7C322.3,18.7,321.4,18.9,320.5,18.9"/>
	</g>
	<g>
		<path class="st0" d="M332.5,8.3c-2.2,0-3.4,1.6-3.4,3.7v6.7h-3.2V5.4h2.7l0.3,2c0.6-1.5,2.2-2.2,3.7-2.2c0.3,0,0.7,0,1,0.1v3.1
			C333.3,8.3,332.9,8.3,332.5,8.3"/>
	</g>
	<g>
		<path class="st0" d="M346.9,13H338c0,1,0.3,2,1,2.6c0.5,0.4,1.1,0.8,2,0.8c0.9,0,1.5-0.2,1.9-0.6c0.3-0.3,0.5-0.6,0.6-1.1h3.1
			c-0.1,0.8-0.6,1.8-1.1,2.4c-1.1,1.3-2.8,1.9-4.5,1.9c-1.8,0-3.1-0.6-4.2-1.6c-1.3-1.3-2-3.1-2-5.3c0-2.1,0.6-4,1.9-5.3
			c1-1,2.4-1.7,4.2-1.7c2,0,3.7,0.8,4.8,2.4c1,1.5,1.2,3,1.1,4.6C346.9,12.2,346.9,12.8,346.9,13 M342.9,8.4c-0.4-0.5-1.1-0.8-2-0.8
			c-1,0-1.8,0.4-2.2,1c-0.5,0.6-0.7,1.2-0.7,2.1h5.7C343.7,9.7,343.4,9,342.9,8.4z"/>
	</g>
	<g>
		<path class="st0" d="M363.1,18.7v-8.1c0-1.6-0.5-2.5-2.2-2.5c-1.1,0-1.9,0.7-2.3,1.7c-0.5,1-0.4,2.4-0.4,3.5v5.4H355V5.4h2.7
			l0.2,1.7c0.8-1.4,2.4-2,3.9-2c2.8,0,4.5,2,4.5,4.7v8.8L363.1,18.7"/>
	</g>
	<g>
		<path class="st0" d="M380,18.9c-1.4,0-2.1-0.9-2.2-1.9c-0.6,1.1-2.1,2-4,2c-3.2,0-4.8-2-4.8-4.2c0-2.5,2-4,4.5-4.2l3.9-0.3V9.6
			c0-1.2-0.4-2.1-2.2-2.1c-1.5,0-2.3,0.7-2.4,1.9h-3.1c0.2-3,2.5-4.3,5.5-4.3c2.3,0,4.2,0.7,5,2.7c0.3,0.8,0.4,1.8,0.4,2.7v4.9
			c0,0.6,0.2,0.8,0.7,0.8c0.2,0,0.4,0,0.4,0v2.3C381,18.8,380.8,18.9,380,18.9 M377.3,12.8L374,13c-1,0.1-1.9,0.7-1.9,1.7
			c0,1,0.9,1.7,1.9,1.7c2,0,3.4-1.1,3.4-3L377.3,12.8L377.3,12.8z"/>
	</g>
	<g>
		<path class="st0" d="M389,18.9c-2.7,0-4-1.5-4-4.1V8.1h-2.4V5.4h2.4V2.1l3.2-0.8v4.2h3.3v2.6h-3.3v6.4c0,1,0.5,1.5,1.5,1.5
			c0.7,0,1.2,0,2.1-0.1v2.7C390.8,18.7,389.9,18.9,389,18.9"/>
	</g>
	<g>
		<path class="st0" d="M394.3,0.3h3.4v3.3h-3.4V0.3z M394.4,5.4h3.2v13.2h-3.2V5.4z"/>
	</g>
	<g>
		<path class="st0" d="M411.6,16.9c-0.9,1.1-2.6,2.1-4.6,2.1c-2,0-3.7-0.9-4.6-2.1c-1-1.2-1.6-2.6-1.6-4.9c0-2.2,0.6-3.6,1.6-4.9
			c0.9-1.1,2.6-2.1,4.6-2.1c2,0,3.7,0.9,4.6,2.1c1,1.2,1.6,2.6,1.6,4.9C413.1,14.3,412.6,15.7,411.6,16.9 M409,8.7
			c-0.4-0.5-1.1-0.8-2-0.8s-1.6,0.4-2,0.8c-0.8,0.8-0.9,2.1-0.9,3.3c0,1.2,0.2,2.5,0.9,3.3c0.4,0.5,1.1,0.8,2,0.8
			c0.9,0,1.6-0.4,2-0.8c0.8-0.8,0.9-2.1,0.9-3.3C409.9,10.8,409.7,9.6,409,8.7z"/>
	</g>
	<g>
		<path class="st0" d="M424.3,18.7v-8.1c0-1.6-0.5-2.5-2.2-2.5c-1.1,0-1.9,0.7-2.3,1.7c-0.5,1-0.4,2.4-0.4,3.5v5.4h-3.2V5.4h2.7
			l0.2,1.7c0.8-1.4,2.4-2,3.9-2c2.8,0,4.5,2,4.5,4.7v8.8L424.3,18.7"/>
	</g>
	<g>
		<path class="st0" d="M441.2,18.9c-1.4,0-2.1-0.9-2.2-1.9c-0.6,1.1-2.1,2-4,2c-3.2,0-4.8-2-4.8-4.2c0-2.5,2-4,4.5-4.2l3.9-0.3V9.6
			c0-1.2-0.4-2.1-2.2-2.1c-1.5,0-2.3,0.7-2.4,1.9h-3.1c0.2-3,2.5-4.3,5.5-4.3c2.3,0,4.2,0.7,5,2.7c0.3,0.8,0.4,1.8,0.4,2.7v4.9
			c0,0.6,0.2,0.8,0.7,0.8c0.2,0,0.4,0,0.4,0v2.3C442.3,18.8,442,18.9,441.2,18.9 M438.5,12.8l-3.4,0.3c-1,0.1-1.9,0.7-1.9,1.7
			c0,1,0.9,1.7,1.9,1.7c2,0,3.4-1.1,3.4-3L438.5,12.8L438.5,12.8z"/>
	</g>
	<g>
		<path class="st0" d="M449.1,18.8c-2.2,0-3.6-1-3.6-3.6v-15h3.2v14.5c0,0.8,0.2,1.3,1.3,1.3c0.3,0,0.4,0,0.5,0v2.7
			C449.9,18.8,449.7,18.8,449.1,18.8"/>
	</g>
	<g>
		<path class="st0" d="M281.6,51.7l-0.2-1.5c-0.8,1.2-2.3,1.8-3.7,1.8c-1.3,0-2.4-0.5-3.2-1.1c-1.6-1.3-2.3-3.3-2.3-5.8
			c0-2.6,0.8-4.6,2.4-5.9c0.8-0.7,1.9-1.1,3.2-1.1c1.7,0,2.9,0.6,3.5,1.2v-6.1h3.2v18.4H281.6 M278.3,40.8c-1,0-1.7,0.5-2.1,1
			c-0.7,0.9-0.8,2.1-0.8,3.2c0,1.1,0.2,2.4,0.8,3.2c0.5,0.6,1.1,1,2.1,1c2.5,0,3-2.4,3-4.3C281.3,43.2,280.8,40.8,278.3,40.8z"/>
	</g>
	<g>
		<path class="st0" d="M296.1,51.7l-0.2-1.7c-0.6,1.3-2.1,2.1-3.8,2.1c-2.8,0-4.6-1.9-4.6-4.7v-8.8h3.2v8.1c0,1.6,0.6,2.5,2.3,2.5
			c0.7,0,1.2-0.3,1.6-0.7c0.8-0.7,1-1.9,1-3v-7h3.2v13.2H296.1"/>
	</g>
	<g>
		<path class="st0" d="M316.3,49.9c-0.9,1.1-2.5,2.1-4.5,2.1c-2,0-3.7-1-4.6-2.1c-1-1.2-1.5-2.9-1.5-4.8c0-1.9,0.5-3.6,1.5-4.8
			c0.9-1.1,2.6-2.1,4.6-2.1c2,0,3.6,0.9,4.5,2.1c0.6,0.8,1,1.8,1,2.9h-3.1c0-0.5-0.2-0.9-0.4-1.2c-0.4-0.6-1.1-1-2-1
			c-0.9,0-1.5,0.4-1.9,0.8c-0.8,0.8-0.9,2.1-0.9,3.4c0,1.2,0.1,2.5,0.9,3.3c0.4,0.5,1.1,0.8,1.9,0.8c1,0,1.7-0.4,2-1
			c0.2-0.3,0.4-0.7,0.4-1.2h3.1C317.3,48.1,316.9,49.1,316.3,49.9"/>
	</g>
	<g>
		<path class="st0" d="M320.1,33.4h3.4v3.3h-3.4V33.4z M320.2,38.5h3.2v13.2h-3.2V38.5z"/>
	</g>
	<g>
		<path class="st0" d="M335.6,51.7v-8.1c0-1.6-0.5-2.5-2.2-2.5c-1.1,0-1.9,0.7-2.3,1.7c-0.5,1-0.4,2.4-0.4,3.5v5.4h-3.2V38.5h2.7
			l0.2,1.7c0.8-1.4,2.4-2,3.9-2c2.8,0,4.5,2,4.5,4.7v8.8L335.6,51.7"/>
	</g>
	<g>
		<path class="st0" d="M353.7,46.1h-8.9c0,1,0.3,2,1,2.6c0.5,0.4,1.1,0.8,2,0.8c0.9,0,1.5-0.2,1.9-0.6c0.3-0.3,0.5-0.6,0.6-1.1h3.1
			c-0.1,0.8-0.6,1.8-1.1,2.4c-1.1,1.3-2.8,1.9-4.5,1.9c-1.8,0-3.1-0.6-4.2-1.6c-1.3-1.3-2-3.1-2-5.3c0-2.1,0.6-4,1.9-5.3
			c1-1,2.4-1.7,4.2-1.7c2,0,3.7,0.8,4.8,2.4c1,1.5,1.2,3,1.1,4.6C353.7,45.2,353.7,45.8,353.7,46.1 M349.7,41.5
			c-0.4-0.5-1.1-0.8-2-0.8c-1,0-1.8,0.4-2.2,1c-0.5,0.6-0.7,1.2-0.7,2.1h5.7C350.5,42.8,350.2,42,349.7,41.5z M345.8,37.3l-1-1.7
			l4.7-3.5l1.4,2.3L345.8,37.3z"/>
	</g>
	<g>
		<path class="st0" d="M372.3,51.7v-8.2c0-1.6-0.4-2.6-2-2.6c-1.8,0-2.6,1.9-2.6,3.6v7.2h-3.2v-8.2c0-1.6-0.4-2.6-2-2.6
			c-1.8,0-2.6,1.9-2.6,3.6v7.2h-3.2V38.5h2.6l0.3,1.8c0.7-1.2,2-2.1,3.8-2.1c1.9,0,3.1,0.8,3.8,2.2c0.8-1.4,2.2-2.2,4-2.2
			c2.8,0,4.3,1.9,4.3,4.6v8.9H372.3"/>
	</g>
	<g>
		<path class="st0" d="M389.2,51.9c-1.4,0-2.1-0.9-2.2-1.9c-0.6,1.1-2.1,2-4,2c-3.2,0-4.8-2-4.8-4.2c0-2.5,2-4,4.5-4.2l3.9-0.3v-0.8
			c0-1.2-0.4-2.1-2.2-2.1c-1.5,0-2.3,0.7-2.4,1.9h-3.1c0.2-3,2.5-4.3,5.5-4.3c2.3,0,4.2,0.7,5,2.7c0.3,0.8,0.4,1.8,0.4,2.7v4.9
			c0,0.6,0.2,0.8,0.7,0.8c0.2,0,0.4-0.1,0.4-0.1v2.3C390.2,51.8,389.9,51.9,389.2,51.9 M386.5,45.9l-3.4,0.3c-1,0.1-1.9,0.7-1.9,1.7
			c0,1,0.9,1.7,1.9,1.7c2,0,3.4-1.1,3.4-3L386.5,45.9L386.5,45.9z"/>
	</g>
	<g>
		<path class="st0" d="M409.3,46.1h-8.9c0,1,0.3,2,1,2.6c0.5,0.4,1.1,0.8,2,0.8c0.9,0,1.5-0.2,1.9-0.6c0.3-0.3,0.5-0.6,0.6-1.1h3.1
			c-0.1,0.8-0.6,1.8-1.1,2.4c-1.1,1.3-2.8,1.9-4.5,1.9c-1.8,0-3.1-0.6-4.2-1.6c-1.3-1.3-2-3.1-2-5.3c0-2.1,0.6-4,1.9-5.3
			c1-1,2.4-1.7,4.2-1.7c2,0,3.7,0.8,4.8,2.4c1,1.5,1.2,3,1.1,4.6C409.4,45.2,409.3,45.8,409.3,46.1 M405.4,41.5
			c-0.4-0.5-1.1-0.8-2-0.8c-1,0-1.8,0.4-2.2,1c-0.5,0.6-0.7,1.2-0.7,2.1h5.7C406.1,42.8,405.9,42,405.4,41.5z"/>
	</g>
	<g>
		<path class="st0" d="M416.3,51.9c-2.7,0-4-1.5-4-4.1v-6.7h-2.4v-2.6h2.4v-3.4l3.2-0.8v4.2h3.3v2.6h-3.3v6.4c0,1,0.5,1.5,1.5,1.5
			c0.7,0,1.2,0,2.1-0.1v2.7C418.2,51.8,417.3,51.9,416.3,51.9"/>
	</g>
	<g>
		<path class="st0" d="M434.3,51.7l-0.2-1.5c-0.8,1.2-2.3,1.8-3.7,1.8c-1.3,0-2.4-0.5-3.2-1.1c-1.6-1.3-2.3-3.3-2.3-5.8
			c0-2.6,0.8-4.6,2.4-5.9c0.8-0.7,1.9-1.1,3.2-1.1c1.7,0,2.9,0.6,3.5,1.2v-6.1h3.2v18.4H434.3 M431,40.8c-1,0-1.7,0.5-2.1,1
			c-0.7,0.9-0.8,2.1-0.8,3.2c0,1.1,0.2,2.4,0.8,3.2c0.5,0.6,1.1,1,2.1,1c2.5,0,3-2.4,3-4.3C434,43.2,433.5,40.8,431,40.8z"/>
	</g>
	<g>
		<path class="st0" d="M451.6,46.1h-8.9c0,1,0.3,2,1,2.6c0.5,0.4,1.1,0.8,2,0.8c0.9,0,1.5-0.2,1.9-0.6c0.3-0.3,0.5-0.6,0.6-1.1h3.1
			c-0.1,0.8-0.6,1.8-1.1,2.4c-1.1,1.3-2.8,1.9-4.5,1.9c-1.8,0-3.1-0.6-4.2-1.6c-1.3-1.3-2-3.1-2-5.3c0-2.1,0.6-4,1.9-5.3
			c1-1,2.4-1.7,4.2-1.7c2,0,3.7,0.8,4.8,2.4c1,1.5,1.2,3,1.1,4.6C451.6,45.2,451.6,45.8,451.6,46.1 M447.6,41.5
			c-0.4-0.5-1.1-0.8-2-0.8c-1,0-1.8,0.4-2.2,1c-0.5,0.6-0.7,1.2-0.7,2.1h5.7C448.4,42.8,448.1,42,447.6,41.5z"/>
	</g>
	<g>
		<path class="st0" d="M277.2,85c-2.2,0-3.6-1-3.6-3.6v-15h3.2v14.5c0,0.8,0.2,1.3,1.3,1.3c0.3,0,0.4,0,0.5,0v2.7
			C278,84.9,277.8,85,277.2,85"/>
	</g>
	<g>
		<path class="st0" d="M281.7,74.6l-0.8-1.5c1.3-0.6,1.7-1.3,1.7-2.6h-1.8v-3.7h3.7v3.5C284.3,72.3,283.8,73.7,281.7,74.6"/>
	</g>
	<g>
		<path class="st0" d="M288.5,66.4h3.4v3.3h-3.4V66.4z M288.6,71.6h3.2v13.2h-3.2V71.6z"/>
	</g>
	<g>
		<path class="st0" d="M311.4,84.8v-8.2c0-1.6-0.4-2.6-2-2.6c-1.8,0-2.6,1.9-2.6,3.6v7.2h-3.2v-8.2c0-1.6-0.4-2.6-2-2.6
			c-1.8,0-2.6,1.9-2.6,3.6v7.2h-3.2V71.6h2.6l0.3,1.8c0.7-1.2,2-2.1,3.8-2.1c1.9,0,3.1,0.8,3.8,2.2c0.8-1.4,2.2-2.2,4-2.2
			c2.8,0,4.3,1.9,4.3,4.6v8.9L311.4,84.8"/>
	</g>
</g>
<g>
	<g>
		<path class="st0" d="M328.3,85c-1.4,0-2.1-0.9-2.2-1.9c-0.6,1.1-2.1,2-4,2c-3.2,0-4.8-2-4.8-4.2c0-2.5,2-4,4.5-4.2l3.9-0.3v-0.8
			c0-1.2-0.4-2.1-2.2-2.1c-1.5,0-2.3,0.7-2.4,1.9h-3.1c0.2-3,2.5-4.3,5.5-4.3c2.3,0,4.2,0.7,5,2.7c0.3,0.8,0.4,1.8,0.4,2.7v4.9
			c0,0.6,0.2,0.8,0.7,0.8c0.2,0,0.4-0.1,0.4-0.1v2.3C329.3,84.9,329.1,85,328.3,85 M325.6,78.9l-3.4,0.3c-1,0.1-1.9,0.7-1.9,1.7
			c0,1,0.9,1.7,1.9,1.7c2,0,3.4-1.1,3.4-3L325.6,78.9L325.6,78.9z"/>
	</g>
	<g>
		<path class="st0" d="M337.9,91c-1.6,0-3.3-0.1-4.7-1.1c-1-0.7-1.6-1.7-1.6-2.9c0-1.1,0.6-2.2,1.6-2.7c-0.8-0.5-1.3-1.4-1.3-2.3
			c0-1.1,0.5-2,1.6-2.7c-0.8-0.8-1.3-1.9-1.3-3.3c0-3.2,2.4-4.9,5.4-4.9c1.1,0,2.1,0.3,3,0.8c0.6-1.1,1.6-1.7,2.7-1.7
			c0.2,0,0.7,0,0.9,0.1v2.5c-0.1,0-0.2,0-0.3,0c-0.7,0-1.4,0.2-1.6,0.8c0.4,0.7,0.7,1.5,0.7,2.4c0,3-2.5,4.8-5.4,4.8
			c-0.7,0-1.5-0.1-2.1-0.4c-0.3,0.2-0.7,0.5-0.7,0.9c0,0.8,0.8,1,1.4,1h2.2c1.3,0,3.1,0,4.3,0.9c1.1,0.8,1.6,1.9,1.6,3.2
			C344.3,90.1,340.9,91,337.9,91 M338.1,85h-2.5c-0.7,0.2-1.2,0.8-1.2,1.6c0,1.7,2.1,1.8,3.3,1.8c1.3,0,3.5-0.1,3.5-1.8
			C341.3,85,339.3,85,338.1,85z M337.6,73.6c-1.5,0-2.3,1-2.3,2.5c0,1.4,0.9,2.4,2.3,2.4c1.5,0,2.3-1,2.3-2.4
			C339.9,74.7,339,73.6,337.6,73.6z"/>
	</g>
</g>
<g>
	<g>
		<path class="st0" d="M357.6,79.2h-8.9c0,1,0.3,2,1,2.6c0.5,0.4,1.1,0.8,2,0.8c0.9,0,1.5-0.2,1.9-0.6c0.3-0.3,0.5-0.6,0.6-1.1h3.1
			c-0.1,0.8-0.6,1.8-1.1,2.4c-1.1,1.3-2.8,1.9-4.5,1.9c-1.8,0-3.1-0.6-4.2-1.6c-1.3-1.3-2-3.1-2-5.3c0-2.1,0.6-4,1.9-5.3
			c1-1,2.4-1.7,4.2-1.7c2,0,3.7,0.8,4.8,2.4c1,1.5,1.2,3,1.1,4.6C357.6,78.3,357.6,78.9,357.6,79.2 M353.6,74.5
			c-0.4-0.5-1.1-0.8-2-0.8c-1,0-1.8,0.4-2.2,1c-0.5,0.6-0.7,1.2-0.7,2.1h5.7C354.4,75.9,354.1,75.1,353.6,74.5z"/>
	</g>
	<g>
		<path class="st0" d="M377,85c-1.4,0-2.1-0.9-2.2-1.9c-0.6,1.1-2.1,2-4,2c-3.2,0-4.8-2-4.8-4.2c0-2.5,2-4,4.5-4.2l3.9-0.3v-0.8
			c0-1.2-0.4-2.1-2.2-2.1c-1.5,0-2.3,0.7-2.4,1.9h-3.1c0.2-3,2.5-4.3,5.5-4.3c2.3,0,4.2,0.7,5,2.7c0.3,0.8,0.4,1.8,0.4,2.7v4.9
			c0,0.6,0.2,0.8,0.7,0.8c0.2,0,0.4-0.1,0.4-0.1v2.3C378.1,84.9,377.8,85,377,85 M374.4,78.9l-3.4,0.3c-1,0.1-1.9,0.7-1.9,1.7
			c0,1,0.9,1.7,1.9,1.7c2,0,3.4-1.1,3.4-3L374.4,78.9L374.4,78.9z"/>
	</g>
	<g>
		<path class="st0" d="M389.5,84.8v-8.1c0-1.6-0.5-2.5-2.2-2.5c-1.1,0-1.9,0.7-2.3,1.7c-0.5,1-0.4,2.4-0.4,3.5v5.4h-3.2V71.6h2.7
			l0.2,1.7c0.8-1.4,2.4-2,3.9-2c2.8,0,4.5,2,4.5,4.7v8.8H389.5"/>
	</g>
	<g>
		<path class="st0" d="M396.4,66.4h3.4v3.3h-3.4V66.4z M396.5,71.6h3.2v13.2h-3.2V71.6z"/>
	</g>
	<g>
		<path class="st0" d="M419.3,84.8v-8.2c0-1.6-0.4-2.6-2-2.6c-1.8,0-2.6,1.9-2.6,3.6v7.2h-3.2v-8.2c0-1.6-0.4-2.6-2-2.6
			c-1.8,0-2.6,1.9-2.6,3.6v7.2h-3.2V71.6h2.6l0.3,1.8c0.7-1.2,2-2.1,3.8-2.1c1.9,0,3.1,0.8,3.8,2.2c0.8-1.4,2.2-2.2,4-2.2
			c2.8,0,4.3,1.9,4.3,4.6v8.9L419.3,84.8"/>
	</g>
</g>
<g>
	<g>
		<path class="st0" d="M437.4,79.2h-8.9c0,1,0.3,2,1,2.6c0.5,0.4,1.1,0.8,2,0.8c0.9,0,1.5-0.2,1.9-0.6c0.3-0.3,0.5-0.6,0.6-1.1h3.1
			c-0.1,0.8-0.6,1.8-1.1,2.4c-1.1,1.3-2.8,1.9-4.5,1.9c-1.8,0-3.1-0.6-4.2-1.6c-1.3-1.3-2-3.1-2-5.3c0-2.1,0.6-4,1.9-5.3
			c1-1,2.4-1.7,4.2-1.7c2,0,3.7,0.8,4.8,2.4c1,1.5,1.2,3,1.1,4.6C437.5,78.3,437.4,78.9,437.4,79.2 M433.5,74.5
			c-0.4-0.5-1.1-0.8-2-0.8c-1,0-1.8,0.4-2.2,1c-0.5,0.6-0.7,1.2-0.7,2.1h5.7C434.3,75.9,434,75.1,433.5,74.5z M429.6,70.4l-1-1.7
			l4.7-3.5l1.4,2.3L429.6,70.4z"/>
	</g>
	<g>
		<path class="st0" d="M451.6,79.2h-8.9c0,1,0.3,2,1,2.6c0.5,0.4,1.1,0.8,2,0.8c0.9,0,1.5-0.2,1.9-0.6c0.3-0.3,0.5-0.6,0.6-1.1h3.1
			c-0.1,0.8-0.6,1.8-1.1,2.4c-1.1,1.3-2.8,1.9-4.5,1.9c-1.8,0-3.1-0.6-4.2-1.6c-1.3-1.3-2-3.1-2-5.3c0-2.1,0.6-4,1.9-5.3
			c1-1,2.4-1.7,4.2-1.7c2,0,3.7,0.8,4.8,2.4c1,1.5,1.2,3,1.1,4.6C451.7,78.3,451.6,78.9,451.6,79.2 M447.7,74.5
			c-0.4-0.5-1.1-0.8-2-0.8c-1,0-1.8,0.4-2.2,1c-0.5,0.6-0.7,1.2-0.7,2.1h5.7C448.4,75.9,448.2,75.1,447.7,74.5z"/>
	</g>
</g>
</svg>
