<?xml version="1.0" encoding="utf-8"?>
<!-- Generator: Adobe Illustrator 21.1.0, SVG Export Plug-In . SVG Version: 6.00 Build 0)  -->
<svg version="1.1" id="Layer_1" xmlns="http://www.w3.org/2000/svg" xmlns:xlink="http://www.w3.org/1999/xlink" x="0px" y="0px"
	 viewBox="0 0 1050 1050" style="enable-background:new 0 0 1050 1050;" xml:space="preserve">
<style type="text/css">
	.st0{fill:none;stroke:#000000;stroke-width:4;stroke-miterlimit:10;}
</style>
<g id="mask">
	<g>
		<g>
			<g>
				<path d="M525.5,1037.7c-33.7,0-67.4-3.2-100.5-9.7c-33.1-6.5-65.5-16.3-96.6-29.1c-62.4-25.6-119.5-63.8-167.3-111.4
					c-47.8-47.6-86.1-104.7-112-167.1C23.2,658,10,590.5,10.1,523c0-33.7,3.4-67.5,9.9-100.6c6.6-33.1,16.4-65.5,29.4-96.7
					c25.9-62.3,64.2-119.4,111.9-167C209,111.1,266,72.9,328.3,47c31.1-12.9,63.6-22.8,96.6-29.3c33.1-6.6,66.8-9.8,100.5-9.9
					c33.7,0,67.5,3.2,100.6,9.7c33.1,6.5,65.6,16.3,96.7,29.1C754,59.6,783.9,75.5,812,94.3c28.1,18.7,54.3,40.2,78.2,64.1
					c47.8,47.7,86.1,104.8,111.9,167.2c25.9,62.4,39.1,129.9,39.1,197.4c0,67.5-13.2,135-39.2,197.4
					c-25.9,62.4-64.2,119.5-112,167.1c-47.8,47.6-105,85.8-167.3,111.4c-31.2,12.8-63.6,22.6-96.7,29.1
					C592.9,1034.5,559.2,1037.7,525.5,1037.7z M525.5,1037.5c67.4,0,134.7-13.2,196.9-39.2c62.2-25.8,119.1-64.1,166.6-111.8
					c47.5-47.7,85.6-104.7,111.2-166.9c12.8-31.1,22.6-63.4,29.1-96.4c6.5-33,9.8-66.6,9.8-100.2c0-33.6-3.3-67.2-9.8-100.2
					c-6.5-33-16.3-65.3-29.1-96.4c-25.7-62.2-63.8-119.1-111.3-166.7c-47.5-47.6-104.4-85.8-166.6-111.6
					c-31.1-12.9-63.4-22.7-96.4-29.3c-33-6.6-66.6-9.8-100.3-9.9c-33.7,0-67.3,3.2-100.3,9.7c-33,6.5-65.4,16.3-96.5,29.1
					c-31.1,12.9-61,28.8-89,47.5c-28,18.7-54.1,40.2-77.9,64c-23.8,23.8-45.2,50-63.9,78c-18.7,28-34.6,57.9-47.4,89
					c-12.8,31.1-22.6,63.5-29,96.5c-6.5,33-9.7,66.7-9.7,100.3c0,33.6,3.3,67.3,9.8,100.3c6.5,33,16.3,65.3,29.1,96.4
					c25.6,62.2,63.8,119.2,111.3,166.9c47.5,47.7,104.4,86,166.6,111.8C390.8,1024.3,458.1,1037.5,525.5,1037.5z"/>
			</g>
			<g>
				<path d="M1032.7,523c0-66.4-13-132.8-38.6-194.1c-25.5-61.3-63.2-117.4-110.2-164.2c-47-46.8-103.2-84.4-164.5-109.7
					c-30.6-12.6-62.5-22.3-95-28.7c-32.5-6.4-65.7-9.7-98.8-9.7c-33.2,0-66.3,3.1-98.9,9.5c-32.5,6.4-64.5,16-95.1,28.6
					c-30.7,12.6-60.1,28.3-87.7,46.7c-27.6,18.4-53.4,39.6-76.9,63c-23.5,23.5-44.7,49.2-63.1,76.8c-18.4,27.6-34.1,57-46.8,87.7
					c-12.7,30.7-22.3,62.6-28.7,95.1c-6.4,32.6-9.6,65.7-9.6,98.9c0.1,33.2,3.3,66.3,9.8,98.9c6.5,32.5,16.1,64.4,28.9,95
					c25.4,61.3,63.1,117.4,110,164.2c46.9,46.9,103.1,84.4,164.3,109.7c30.6,12.7,62.5,22.3,95,28.7c32.5,6.4,65.7,9.6,98.8,9.7
					c33.1,0,66.3-3.2,98.8-9.6c32.5-6.4,64.4-16.1,95-28.7c61.3-25.3,117.5-62.8,164.5-109.6c47-46.8,84.8-102.9,110.2-164.2
					C1019.6,655.8,1032.7,589.4,1032.7,523z M1032.9,523c0,33.2-3.2,66.4-9.6,99c-6.4,32.6-16.1,64.6-28.7,95.3
					c-25.3,61.5-62.9,117.8-109.8,165c-46.9,47.2-103.2,84.9-164.7,110.4c-61.4,25.6-128,38.6-194.6,38.6
					c-66.5,0-133.1-13-194.6-38.5c-61.5-25.5-117.8-63.2-164.9-110.3c-23.5-23.5-44.7-49.4-63.2-77.1
					c-18.5-27.7-34.2-57.2-46.9-87.9c-12.7-30.7-22.3-62.7-28.7-95.4c-6.4-32.6-9.6-65.9-9.6-99.1c0-33.2,3.3-66.5,9.8-99.1
					c6.5-32.6,16.2-64.6,28.9-95.3C81.8,267.2,119.5,211,166.5,164c47-47,103.2-84.8,164.6-110.3c30.7-12.8,62.7-22.5,95.3-29
					c32.6-6.5,65.9-9.8,99.1-9.8c66.5,0,133.1,12.9,194.5,38.5c61.5,25.5,117.8,63.2,164.7,110.4c46.9,47.1,84.5,103.5,109.8,164.9
					c12.6,30.7,22.3,62.7,28.7,95.3C1029.7,456.6,1032.9,489.8,1032.9,523z"/>
			</g>
			<g>
				<path d="M525.5,1023c-32.7,0-65.5-3.1-97.6-9.5c-32.1-6.3-63.6-15.8-93.9-28.3c-60.6-24.9-116.1-62-162.5-108.2
					C125,830.8,87.8,775.3,62.7,714.7c-25.2-60.5-38-126.2-37.9-191.7c0-32.8,3.3-65.6,9.7-97.7c6.4-32.1,16-63.6,28.6-93.9
					c25.1-60.5,62.4-115.9,108.7-162.2C218,122.9,273.5,85.7,334,60.6c30.2-12.6,61.7-22.1,93.9-28.5c32.1-6.4,64.9-9.6,97.6-9.6
					c32.8,0,65.5,3.1,97.7,9.4c32.2,6.3,63.7,15.8,94,28.3c30.3,12.5,59.4,28,86.6,46.2c27.3,18.2,52.7,39.1,75.9,62.3
					c46.4,46.3,83.6,101.9,108.7,162.5c25.2,60.6,38,126.2,38,191.8c0,65.6-12.8,131.2-38.1,191.7C963.2,775.3,926,830.8,879.5,877
					c-46.4,46.3-102,83.3-162.5,108.2c-30.3,12.5-61.8,22-93.9,28.3C591,1019.9,558.2,1023,525.5,1023z M525.5,1022.8
					c65.4,0,130.9-12.9,191.3-38.1c60.4-25.1,115.7-62.3,161.8-108.6c46.1-46.3,83.1-101.7,108-162.1c12.5-30.2,21.9-61.6,28.3-93.6
					c6.3-32,9.5-64.7,9.5-97.4c0-32.7-3.2-65.3-9.5-97.4c-6.3-32-15.8-63.4-28.3-93.6c-24.9-60.4-61.9-115.7-108.1-161.9
					c-46.2-46.2-101.4-83.3-161.8-108.4c-30.2-12.5-61.6-22.1-93.6-28.4c-32.1-6.4-64.7-9.6-97.4-9.6c-32.7,0-65.4,3.1-97.5,9.4
					c-32.1,6.3-63.5,15.8-93.8,28.3c-30.2,12.5-59.2,28-86.4,46.1c-27.2,18.2-52.6,39.1-75.7,62.2c-23.1,23.1-43.9,48.5-62.1,75.7
					c-18.1,27.2-33.6,56.2-46.1,86.4c-12.5,30.2-21.9,61.7-28.2,93.7c-6.3,32.1-9.4,64.8-9.4,97.4c0,32.7,3.2,65.3,9.6,97.4
					c6.3,32,15.9,63.5,28.3,93.7c24.9,60.4,62,115.8,108.1,162.1c46.1,46.3,101.4,83.5,161.8,108.6
					C394.6,1009.9,460.1,1022.8,525.5,1022.8z"/>
			</g>
			<g>
				<path d="M1018,523c0-64.5-12.7-129-37.5-188.5c-24.7-59.5-61.4-114-107-159.5c-45.6-45.4-100.2-81.9-159.7-106.5
					C684,56.3,653,46.9,621.5,40.6c-31.6-6.3-63.8-9.4-96-9.4c-32.2,0-64.4,3-96,9.2c-31.6,6.2-62.6,15.5-92.4,27.8
					c-29.8,12.3-58.3,27.5-85.2,45.4c-26.8,17.9-51.8,38.4-74.6,61.2c-22.8,22.8-43.4,47.8-61.3,74.6
					c-17.9,26.8-33.2,55.4-45.5,85.1C58.3,364.3,49,395.3,42.7,427c-6.2,31.6-9.3,63.8-9.3,96c0.1,32.2,3.2,64.4,9.5,96
					c6.3,31.6,15.7,62.5,28,92.3c24.7,59.5,61.3,114,106.8,159.5c45.5,45.5,100.1,82,159.6,106.5c29.7,12.3,60.7,21.7,92.3,27.9
					c31.6,6.2,63.7,9.4,95.9,9.4c32.2,0,64.4-3.1,95.9-9.3c31.6-6.2,62.5-15.6,92.3-27.8c59.5-24.5,114.1-61,159.7-106.4
					c45.7-45.4,82.3-99.9,107.1-159.5C1005.3,652,1018,587.5,1018,523z M1018.2,523c0,32.3-3.1,64.5-9.3,96.2
					c-6.2,31.7-15.6,62.7-27.9,92.5c-24.5,59.7-61.1,114.4-106.6,160.2c-45.6,45.8-100.2,82.5-159.9,107.3
					c-59.7,24.9-124.3,37.5-188.9,37.5c-64.6,0-129.3-12.6-189-37.4c-59.7-24.7-114.4-61.4-160.1-107.1
					c-22.8-22.9-43.4-48-61.4-74.8c-17.9-26.9-33.2-55.5-45.5-85.4C57.2,682,47.9,651,41.6,619.3c-6.2-31.7-9.3-64-9.3-96.3
					c0-32.3,3.2-64.6,9.5-96.2c6.3-31.7,15.7-62.7,28.1-92.5c24.7-59.6,61.4-114.2,107-159.9C222.5,128.7,277.1,92,336.7,67.2
					c29.8-12.4,60.9-21.8,92.5-28.1c31.7-6.3,64-9.5,96.3-9.5c64.6,0,129.3,12.5,188.9,37.4c59.7,24.7,114.4,61.4,159.9,107.2
					c45.6,45.7,82.1,100.5,106.6,160.2c12.3,29.8,21.7,60.9,27.9,92.5C1015.1,458.5,1018.2,490.7,1018.2,523z"/>
			</g>
			<g>
				<path d="M525.5,1008.5c-63.6,0-127.1-12.3-186-36.4c-58.9-24-113-59.9-158.3-104.7c-45.3-44.8-81.7-98.7-106.2-157.7
					c-24.6-58.9-37-122.8-36.8-186.6c0.2-63.8,12.9-127.5,37.6-186.3c24.6-58.8,60.9-112.5,106-157.5
					c45.1-44.9,98.9-81.1,157.7-105.5c14.7-6.1,29.7-11.5,44.9-16.1C399.5,53,415,49.1,430.6,46c31.2-6.3,63-9.4,94.9-9.6
					c63.7-0.2,127.5,12,186.5,36.3c29.5,12.1,57.8,27.2,84.4,44.9c26.6,17.7,51.4,38,74,60.5c45.2,45.1,81.5,99.1,106,158.1
					c24.6,59,37.1,122.9,37,186.7c-0.1,63.9-12.6,127.8-37.2,186.7c-24.5,59-61,112.8-106.3,157.7c-45.3,44.8-99.4,80.7-158.3,104.7
					C652.6,996.2,589.1,1008.5,525.5,1008.5z M525.5,1008c31.7-0.1,63.5-3.1,94.6-9.4c31.1-6.2,61.6-15.5,90.9-27.8
					C769.5,946.3,823,910,867.5,865c22.3-22.5,42.3-47.2,59.8-73.5c8.7-13.2,16.8-26.8,24.2-40.7c7.4-14,14.2-28.3,20.2-42.9
					c12-29.2,21.2-59.6,27.3-90.6c6.1-31,9.1-62.6,9.1-94.2c0-31.6-3.1-63.2-9.2-94.2c-6.1-31-15.3-61.4-27.3-90.6
					c-24.1-58.4-59.8-112-104.5-156.8c-44.7-44.8-98.1-80.7-156.5-105.1c-29.2-12.2-59.6-21.4-90.6-27.7c-31-6.2-62.7-9.4-94.4-9.5
					C462.2,39,398.7,51.1,340.1,75.4c-29.3,12.1-57.4,27.1-83.8,44.7c-26.4,17.6-51,37.9-73.4,60.3c-22.4,22.5-42.5,47.1-60.1,73.5
					c-17.5,26.4-32.4,54.5-44.4,83.9c-12,29.3-21.1,59.8-27.1,90.9c-6,31.1-8.9,62.7-8.9,94.4c0.1,31.6,3.2,63.2,9.3,94.3
					c6.1,31,15.4,61.4,27.4,90.6c6,14.6,12.8,28.9,20.2,42.9c7.4,14,15.5,27.6,24.3,40.7c17.5,26.3,37.5,51,59.8,73.5
					c44.5,45,98,81.2,156.6,105.7c29.2,12.3,59.8,21.6,90.9,27.8C462,1004.8,493.8,1007.9,525.5,1008z"/>
			</g>
			<g>
				<path d="M1003.3,523c0-62.6-12.3-125.1-36.4-182.9c-24-57.8-59.6-110.6-103.9-154.7c-44.3-44.1-97.2-79.5-154.9-103.3
					c-28.9-11.9-58.9-21-89.5-27.1C588,49,556.7,46,525.5,45.9c-31.2,0-62.5,2.9-93.1,9c-30.7,6-60.7,15-89.6,27
					c-28.9,11.9-56.6,26.7-82.6,44c-26,17.3-50.3,37.3-72.4,59.4c-22.1,22.1-42.1,46.3-59.4,72.4c-17.4,26-32.2,53.7-44.1,82.6
					c-11.9,28.9-21,59-27,89.6c-6,30.7-9,61.9-9,93.2c0.1,31.3,3.1,62.5,9.2,93.1c6.1,30.6,15.2,60.7,27.2,89.5
					c23.9,57.7,59.4,110.5,103.6,154.7c44.2,44.1,97.1,79.5,154.8,103.4c28.8,11.9,58.9,21,89.5,27.1c30.6,6.1,61.8,9.1,93.1,9.1
					c31.2,0,62.4-3,93.1-9.1c30.6-6,60.7-15.1,89.5-27c57.7-23.8,110.7-59.2,155-103.2c44.3-44.1,79.9-96.9,103.9-154.7
					C991,648.1,1003.3,585.6,1003.3,523z M1003.5,523c0,31.3-3,62.6-9,93.3c-6,30.7-15.1,60.8-27,89.8
					c-23.8,57.9-59.2,111-103.4,155.4c-44.2,44.4-97.2,80-155.2,104.1c-57.9,24.1-120.6,36.4-183.3,36.4
					c-62.7,0-125.4-12.2-183.4-36.3c-57.9-24-111-59.6-155.3-104c-22.1-22.2-42.1-46.5-59.5-72.6c-17.4-26.1-32.2-53.9-44.2-82.8
					c-12-29-21-59.1-27.1-89.9c-6-30.7-9-62.1-9-93.4c0-31.3,3.1-62.6,9.2-93.4c6.1-30.7,15.2-60.8,27.2-89.7
					c24-57.9,59.5-110.8,103.8-155.1c44.3-44.3,97.2-79.9,155.1-103.9c28.9-12,59-21.2,89.8-27.3c30.7-6.1,62.1-9.2,93.4-9.2
					c62.7,0,125.4,12.2,183.3,36.3c57.9,24,111,59.6,155.2,104c44.2,44.4,79.6,97.5,103.5,155.4c11.9,28.9,21,59,27.1,89.8
					C1000.5,460.4,1003.5,491.7,1003.5,523z"/>
			</g>
			<g>
				<path d="M87.6,350.4c11.3-28.7,25.3-56.2,42-82.2c16.6-26,35.8-50.2,57.2-72.4c42.7-44.4,94.3-80.3,150.9-105
					c56.5-24.7,118-38.2,179.7-39.3c61.7-1.2,123.6,10.3,181,33c28.7,11.4,56.3,25.5,82.2,42.2c25.9,16.7,50.2,36,72.4,57.4
					c44.3,42.9,80,94.6,104.5,151.2c24.5,56.6,38,117.9,39.1,179.6c0.6,30.8-1.9,61.7-7.5,92c-5.5,30.3-14,60.1-25.3,88.8
					c-11.3,28.7-25.3,56.3-42,82.3c-16.6,26-35.8,50.3-57.2,72.5c-21.4,22.2-45,42.3-70.4,59.9c-25.3,17.6-52.4,32.7-80.7,45
					c-56.6,24.7-118.1,38.1-179.8,39.2c-61.7,1.2-123.6-10.3-181.1-32.9c-57.4-22.7-110.5-56.5-154.8-99.5
					c-44.4-42.9-80.1-94.7-104.5-151.4c-24.5-56.6-37.7-118.1-38.6-179.7c-0.5-30.8,2.1-61.7,7.6-92C67.8,408.8,76.3,379,87.6,350.4
					z M87.8,350.4c-22.5,57.3-33.9,119.1-32.6,180.6c1.2,61.6,14.6,122.8,39.3,179.2c24.7,56.4,60.3,107.9,104.7,150.5
					c22.1,21.3,46.4,40.5,72.2,57.1c25.9,16.6,53.4,30.6,82,41.9c28.6,11.3,58.3,19.8,88.5,25.3c30.2,5.5,61,8,91.7,7.5
					c61.5-1,122.7-14.3,179.1-38.8c56.4-24.5,108-60.1,150.7-104.3c21.4-22.1,40.6-46.3,57.2-72.2c16.6-25.9,30.7-53.4,42.1-82
					c11.3-28.6,19.8-58.3,25.4-88.6c5.5-30.3,8.1-61.1,7.6-91.9c-0.5-30.8-4.1-61.5-10.6-91.6c-6.5-30.1-16.1-59.5-28.3-87.7
					c-12.3-28.2-27.3-55.2-44.9-80.5c-17.6-25.3-37.6-48.8-59.8-70.1c-22.2-21.3-46.4-40.5-72.3-57c-25.9-16.6-53.5-30.6-82.1-41.8
					c-28.6-11.3-58.3-19.8-88.6-25.3c-30.2-5.5-61-8-91.8-7.5c-61.5,1-122.7,14.3-179.2,38.7c-56.5,24.4-108.1,60-151,104.2
					C144.2,240.3,110.4,293.2,87.8,350.4z"/>
			</g>
			<g>
				<path d="M988.6,523c0-60.6-11.9-121.3-35.3-177.2c-23.3-56-57.7-107.2-100.7-149.9c-42.9-42.7-94.2-77-150.2-100.1
					c-28-11.5-57.1-20.4-86.8-26.2c-29.7-5.9-60-8.8-90.2-8.9c-30.3,0-60.5,2.9-90.3,8.7c-29.7,5.8-58.9,14.6-86.8,26.1
					c-28,11.5-54.9,25.9-80.1,42.7c-25.2,16.8-48.7,36.1-70.2,57.5c-21.4,21.4-40.8,44.9-57.6,70.1c-16.8,25.2-31.2,52.1-42.7,80.1
					c-11.6,28-20.4,57.1-26.2,86.9c-5.8,29.7-8.7,60-8.7,90.3c0.1,30.3,3,60.6,8.9,90.3c5.9,29.7,14.7,58.8,26.4,86.8
					c23.2,55.9,57.6,107.1,100.4,149.9c42.8,42.8,94.1,77.1,150,100.2c28,11.6,57.1,20.4,86.7,26.2c29.7,5.9,59.9,8.8,90.2,8.8
					c30.3,0,60.5-2.9,90.2-8.8c29.7-5.9,58.8-14.7,86.8-26.2c56-23.1,107.3-57.3,150.2-100.1c42.9-42.7,77.4-94,100.7-149.9
					C976.7,644.3,988.6,583.6,988.6,523z M988.8,523c0,30.3-2.9,60.7-8.8,90.4c-5.8,29.8-14.7,58.9-26.2,87
					c-23.1,56.1-57.4,107.6-100.3,150.6c-42.8,43.1-94.3,77.6-150.4,100.9c-56.1,23.4-116.9,35.3-177.7,35.3
					c-60.8,0-121.6-11.8-177.7-35.2c-56.2-23.3-107.6-57.8-150.5-100.8c-21.5-21.5-40.8-45.1-57.7-70.4
					c-16.9-25.3-31.2-52.2-42.8-80.3c-11.6-28.1-20.4-57.3-26.2-87.1c-5.9-29.8-8.7-60.2-8.7-90.5c0-30.4,3-60.7,8.9-90.5
					c5.9-29.8,14.8-59,26.4-87c23.3-56.1,57.7-107.4,100.6-150.4c42.9-42.9,94.2-77.4,150.3-100.7c28-11.7,57.2-20.5,87-26.5
					c29.8-5.9,60.2-8.9,90.5-9c60.7,0,121.5,11.8,177.7,35.2c56.1,23.3,107.6,57.8,150.4,100.8c42.9,43,77.2,94.5,100.3,150.6
					c11.5,28.1,20.4,57.2,26.2,87C985.9,462.3,988.8,492.7,988.8,523z"/>
			</g>
			<g>
				<path d="M525.5,979c-59.7,0-119.4-11.6-174.7-34.2c-55.4-22.5-106.2-56.2-148.8-98.3c-42.6-42.1-76.8-92.8-99.7-148.2
					C79.2,643,67.5,582.9,67.6,523c0.2-59.9,12.2-119.8,35.4-175c23.1-55.2,57.2-105.7,99.5-148c42.3-42.2,92.9-76.1,148.1-99.1
					l10.4-4.1c3.5-1.3,6.9-2.8,10.5-4l10.6-3.6c3.5-1.2,7-2.5,10.7-3.4l10.8-3.1l5.4-1.5c0.9-0.2,1.8-0.5,2.7-0.7l2.7-0.6l10.9-2.6
					l5.5-1.3c0.9-0.2,1.8-0.4,2.7-0.6l2.8-0.5c29.3-5.9,59.2-8.9,89.2-9c59.8-0.2,119.8,11.2,175.2,34.1
					c27.7,11.4,54.3,25.5,79.3,42.1c25,16.6,48.3,35.7,69.5,56.9c42.5,42.4,76.6,93.1,99.6,148.6C972.2,402.9,983.9,463,984,523
					c-0.1,60-11.9,120-35,175.4c-23,55.4-57.3,106-99.9,148.2c-42.6,42.1-93.4,75.7-148.8,98.3C644.9,967.5,585.2,979.1,525.5,979z
					 M525.5,978.5c29.8-0.1,59.6-3,88.9-8.8c29.2-5.9,57.9-14.6,85.3-26.1c55-23,105.2-57,147-99.3c20.9-21.2,39.7-44.4,56.1-69.1
					l6-9.4l3-4.7l1.5-2.4c0.5-0.8,0.9-1.6,1.4-2.4l5.5-9.7l2.8-4.8l1.4-2.4l1.3-2.5l5-9.9l2.5-5c0.4-0.8,0.9-1.6,1.3-2.5l1.1-2.5
					l4.6-10.2l2.3-5.1c0.4-0.9,0.8-1.7,1.1-2.5l1-2.6c11.3-27.5,19.9-56,25.6-85.1c5.7-29.1,8.6-58.8,8.6-88.5
					c-0.1-29.7-2.9-59.3-8.7-88.4c-5.7-29.1-14.4-57.6-25.7-85.1c-22.6-54.9-56.1-105.2-98.1-147.2c-41.9-42-92.1-75.8-147-98.6
					c-27.4-11.4-56-20.1-85.1-26c-29.1-5.9-58.9-8.9-88.6-9c-59.5-0.1-119.1,11.2-174.2,34c-27.5,11.4-53.9,25.4-78.7,42
					c-24.8,16.5-47.9,35.6-69,56.6c-21,21.1-39.9,44.3-56.4,69.1c-16.4,24.8-30.4,51.2-41.7,78.8c-11.3,27.5-19.8,56.2-25.4,85.3
					c-5.7,29.2-8.4,58.9-8.4,88.6c0.1,29.7,3.1,59.4,8.8,88.5c5.8,29.1,14.4,57.7,25.7,85.1l1,2.6c0.3,0.9,0.7,1.7,1.1,2.5l2.3,5.1
					l4.6,10.2l1.1,2.5c0.4,0.8,0.8,1.7,1.3,2.5l2.5,5l5.1,9.9l1.3,2.5l1.4,2.4l2.8,4.8l5.5,9.7c0.5,0.8,0.9,1.6,1.4,2.4l1.5,2.3
					l3,4.7l6,9.4c16.4,24.7,35.2,47.9,56.1,69.1c41.8,42.3,92.1,76.3,147.1,99.3c27.5,11.6,56.1,20.3,85.4,26.1
					C465.9,975.6,495.7,978.5,525.5,978.5z"/>
			</g>
			<g>
				<path d="M973.9,523c-0.1-58.7-11.6-117.4-34.2-171.6c-22.5-54.2-55.9-103.8-97.4-145.2c-41.6-41.4-91.2-74.6-145.4-96.9
					c-27.1-11.2-55.3-19.7-84-25.4c-28.7-5.7-58-8.6-87.4-8.6c-29.3,0-58.6,2.8-87.4,8.4c-28.8,5.6-57,14.1-84.1,25.3
					c-27.1,11.2-53.1,25-77.5,41.3c-24.4,16.3-47.2,35-68,55.7c-20.7,20.7-39.5,43.5-55.8,67.9c-16.3,24.4-30.2,50.4-41.4,77.5
					c-11.2,27.1-19.7,55.3-25.4,84.1c-5.7,28.8-8.5,58.1-8.5,87.4c0.1,29.3,3,58.6,8.7,87.4c5.7,28.8,14.3,56.9,25.5,84
					c22.5,54.1,55.8,103.7,97.2,145.2c41.5,41.4,91.1,74.6,145.3,96.9c27.1,11.2,55.2,19.7,84,25.4c28.7,5.7,58,8.5,87.3,8.6
					c29.3,0,58.6-2.9,87.3-8.5c28.7-5.7,56.9-14.2,84-25.3c54.2-22.3,103.9-55.5,145.4-96.8c41.6-41.4,74.9-91,97.5-145.2
					C962.3,640.4,973.8,581.7,973.9,523z M974.1,523c0,29.4-2.8,58.7-8.5,87.6c-5.7,28.8-14.2,57.1-25.4,84.2
					c-22.3,54.3-55.6,104.2-97,145.9c-41.5,41.7-91.3,75.1-145.6,97.7c-54.3,22.6-113.2,34.1-172,34.2
					c-58.9,0-117.7-11.5-172.1-34.1c-54.4-22.5-104.2-55.9-145.8-97.5c-20.8-20.8-39.5-43.7-55.8-68.2
					c-16.3-24.5-30.2-50.6-41.4-77.7c-11.2-27.2-19.7-55.5-25.4-84.3c-5.7-28.9-8.5-58.3-8.5-87.6c0.1-29.4,2.9-58.8,8.7-87.6
					c5.7-28.8,14.3-57.1,25.6-84.2c22.5-54.3,55.9-104,97.4-145.6c41.5-41.6,91.3-74.9,145.6-97.5c54.3-22.6,113.1-34.3,171.9-34.4
					c58.8,0,117.7,11.4,172,34.1c54.3,22.5,104.2,55.9,145.6,97.6c41.5,41.7,74.7,91.5,97,145.9c11.2,27.2,19.7,55.4,25.4,84.2
					C971.3,464.3,974.1,493.6,974.1,523z"/>
			</g>
			<g>
				<path d="M525.5,964.2c-28.9,0-57.8-2.8-86.1-8.4c-28.3-5.6-56.1-14-82.8-25c-53.5-22-102.5-54.6-143.5-95.4
					c-41-40.8-73.8-89.8-96-143.2C94.8,638.7,83.6,580.9,83.6,523c0.1-57.9,11.5-115.7,33.8-169.1c22.2-53.4,55-102.3,95.9-143.2
					c40.9-40.8,89.8-73.6,143.2-95.8c26.7-11.1,54.5-19.5,82.8-25.1c28.4-5.6,57.3-8.5,86.2-8.5c28.9,0,57.8,2.8,86.2,8.3
					c28.4,5.6,56.2,13.9,82.9,25c26.7,11,52.4,24.7,76.5,40.8c24.1,16,46.6,34.5,67,54.9c40.9,40.9,73.8,89.9,95.9,143.4
					c22.2,53.5,33.5,111.4,33.6,169.2c-0.1,57.9-11.4,115.8-33.6,169.2c-22.2,53.5-55,102.4-96.1,143.2c-41,40.8-90,73.5-143.5,95.4
					c-26.7,11-54.5,19.4-82.8,25C583.3,961.4,554.4,964.2,525.5,964.2z M525.5,964c57.7-0.1,115.5-11.4,168.7-33.6
					c53.3-22.2,102.1-55,142.8-95.8c40.7-40.9,73.3-89.7,95.2-143c11-26.6,19.3-54.3,24.9-82.6c5.6-28.3,8.4-57.1,8.4-85.9
					c0-28.8-2.8-57.6-8.4-85.9c-5.6-28.3-14-56-25-82.6c-22-53.3-54.6-102.1-95.3-142.9c-40.7-40.8-89.5-73.5-142.8-95.6
					C667.4,105,639.7,96.6,611.4,91c-28.3-5.6-57.1-8.5-85.9-8.5c-28.8,0-57.7,2.8-86,8.4c-28.3,5.6-56.1,13.9-82.7,24.9
					c-26.7,11-52.2,24.7-76.2,40.7c-24,16-46.4,34.4-66.8,54.8c-20.4,20.4-38.8,42.8-54.8,66.8c-16,24-29.6,49.6-40.6,76.2
					c-11,26.7-19.3,54.4-24.9,82.7c-5.6,28.3-8.3,57.1-8.3,85.9c0.1,28.8,2.9,57.6,8.5,85.9c5.6,28.3,14,56,25,82.6
					c22,53.3,54.6,102.1,95.3,143c40.7,40.9,89.5,73.7,142.8,95.8C410,952.6,467.8,963.9,525.5,964z"/>
			</g>
			<g>
				<path d="M959.2,523c-0.1-56.8-11.2-113.6-33.1-166c-21.8-52.4-54.1-100.4-94.3-140.4c-40.2-40-88.2-72.1-140.7-93.7
					c-26.2-10.8-53.4-19.1-81.2-24.6c-27.8-5.5-56.1-8.3-84.5-8.3c-28.3,0-56.7,2.7-84.5,8.2c-27.8,5.4-55.1,13.6-81.3,24.5
					c-26.2,10.8-51.4,24.2-75,39.9c-23.6,15.7-45.7,33.8-65.7,53.9c-20.1,20.1-38.2,42.1-53.9,65.7c-15.7,23.6-29.2,48.8-40,75
					c-10.8,26.2-19.1,53.5-24.5,81.3c-5.5,27.8-8.2,56.2-8.2,84.6c0.1,28.4,2.9,56.7,8.4,84.5c5.5,27.8,13.8,55.1,24.7,81.2
					c21.7,52.4,53.9,100.3,94,140.4c40.1,40.1,88.1,72.1,140.5,93.8c26.2,10.8,53.4,19.1,81.2,24.6c27.8,5.5,56.1,8.3,84.5,8.3
					c28.3,0,56.7-2.8,84.5-8.3c27.8-5.5,55-13.7,81.2-24.5c52.4-21.6,100.4-53.7,140.7-93.6c40.2-40,72.5-88,94.3-140.4
					C948,636.6,959.1,579.8,959.2,523z M959.4,523c0,28.4-2.7,56.8-8.2,84.7c-5.5,27.9-13.7,55.2-24.5,81.5
					C905,741.7,872.9,790,832.8,830.3c-40.1,40.3-88.3,72.6-140.9,94.5c-52.6,21.9-109.5,33-166.4,33.1c-56.9,0-113.9-11.1-166.5-33
					c-52.6-21.8-100.8-54.1-141-94.4c-40.2-40.3-72.4-88.5-94.1-141.1c-10.8-26.3-19.1-53.7-24.6-81.6c-5.5-27.9-8.2-56.3-8.2-84.8
					c0.1-28.4,2.8-56.9,8.4-84.7c5.5-27.9,13.8-55.2,24.7-81.5c21.8-52.5,54-100.6,94.2-140.9c40.2-40.2,88.3-72.5,140.8-94.3
					c52.5-21.9,109.4-33.1,166.3-33.2c56.9,0,113.8,11.1,166.4,33c52.6,21.8,100.8,54.1,140.9,94.4c40.1,40.3,72.3,88.5,93.8,141.1
					c10.8,26.3,19.1,53.6,24.5,81.5C956.7,466.2,959.4,494.6,959.4,523z"/>
			</g>
			<g>
				<path d="M525.5,949.5c-27.9,0-55.8-2.7-83.2-8.1c-27.4-5.4-54.3-13.5-80.1-24.1c-51.7-21.2-99.1-52.8-138.7-92.2
					c-39.6-39.4-71.4-86.8-92.8-138.5C109.1,634.9,98.3,578.9,98.3,523c0.1-55.9,11.2-111.8,32.7-163.4
					c21.5-51.6,53.2-98.9,92.7-138.4c39.6-39.5,86.8-71.2,138.5-92.6c25.8-10.7,52.7-18.9,80.1-24.3c27.4-5.4,55.4-8.2,83.3-8.2
					c28,0,55.9,2.7,83.3,8.1c27.4,5.4,54.3,13.5,80.2,24.1c51.7,21.3,99.1,52.9,138.7,92.5c39.6,39.5,71.3,86.9,92.7,138.6
					C942,411.1,952.9,467,952.9,523c-0.1,56-11,111.9-32.5,163.6c-21.5,51.7-53.2,99-92.9,138.5c-39.6,39.4-87,71-138.7,92.2
					c-25.8,10.6-52.7,18.7-80.1,24.1C581.3,946.8,553.4,949.5,525.5,949.5z M525.5,949.3c55.8-0.1,111.6-11,163.1-32.5
					c51.5-21.4,98.7-53.1,138-92.7c39.3-39.5,70.8-86.7,92-138.3c10.6-25.7,18.7-52.5,24.1-79.8c5.4-27.3,8.1-55.2,8.1-83
					c0-27.8-2.7-55.7-8.2-83c-5.4-27.3-13.5-54.1-24.1-79.8c-21.2-51.5-52.8-98.7-92.2-138.1c-39.4-39.4-86.5-71-138-92.4
					c-25.7-10.7-52.5-18.8-79.9-24.3c-27.3-5.4-55.2-8.2-83.1-8.3c-27.9,0-55.8,2.7-83.1,8.1c-27.4,5.4-54.2,13.5-80,24.1
					c-25.8,10.6-50.5,23.8-73.7,39.3c-23.2,15.5-44.8,33.3-64.6,53c-19.7,19.7-37.5,41.4-52.9,64.6c-15.5,23.2-28.6,47.9-39.2,73.7
					c-10.6,25.8-18.7,52.6-24,79.9c-5.4,27.3-8,55.2-8,83.1c0.1,27.9,2.8,55.7,8.2,83c5.4,27.3,13.5,54.1,24.1,79.9
					c21.2,51.5,52.8,98.7,92.1,138.2c39.3,39.5,86.5,71.2,138,92.7C413.9,938.3,469.7,949.2,525.5,949.3z"/>
			</g>
			<g>
				<path d="M944.5,523c-0.1-54.9-10.8-109.7-32-160.3c-21.1-50.6-52.2-97-91.1-135.6c-38.9-38.6-85.2-69.6-135.9-90.5
					c-25.3-10.4-51.6-18.4-78.5-23.7c-26.9-5.3-54.2-8-81.6-8c-27.4,0-54.8,2.6-81.6,7.9c-26.9,5.3-53.2,13.2-78.6,23.6
					c-25.3,10.4-49.6,23.4-72.4,38.6c-22.8,15.2-44.1,32.7-63.5,52c-19.4,19.4-36.9,40.6-52.1,63.5c-15.2,22.8-28.2,47.1-38.6,72.4
					c-10.5,25.3-18.4,51.7-23.7,78.6c-5.3,26.9-7.9,54.3-7.9,81.7c0.1,27.4,2.8,54.8,8.1,81.7c5.3,26.9,13.3,53.2,23.9,78.5
					c21,50.6,52.1,96.9,90.8,135.6c38.7,38.7,85.1,69.7,135.7,90.6c25.3,10.4,51.6,18.4,78.5,23.7c26.8,5.3,54.2,8,81.6,8
					c27.4,0,54.7-2.7,81.6-8c26.8-5.3,53.2-13.3,78.5-23.7c50.6-20.8,97-51.8,135.9-90.5c38.8-38.6,70-85,91.1-135.6
					C933.7,632.7,944.4,577.9,944.5,523z M944.7,523c0,27.4-2.6,54.9-7.9,81.8c-5.3,26.9-13.3,53.3-23.7,78.7
					c-20.9,50.8-51.9,97.4-90.7,136.3c-38.8,39-85.3,70.2-136.1,91.3c-50.8,21.2-105.8,31.9-160.8,32c-55,0-110-10.7-160.8-31.9
					c-50.8-21-97.4-52.3-136.3-91.2c-38.9-38.9-70-85.5-90.9-136.4c-10.5-25.4-18.4-51.8-23.7-78.8c-5.3-27-7.9-54.4-7.9-81.9
					c0.1-27.5,2.7-54.9,8.1-81.9c5.3-26.9,13.4-53.3,23.9-78.7c21-50.7,52.2-97.2,91-136.1c38.8-38.8,85.3-70,136-91.1
					c50.7-21.2,105.7-32,160.6-32.1c55,0,110,10.7,160.8,31.8c50.8,21.1,97.3,52.3,136.1,91.2c38.8,39,69.8,85.5,90.7,136.3
					c10.4,25.4,18.4,51.8,23.7,78.7C942,468.1,944.7,495.6,944.7,523z"/>
			</g>
			<g>
				<path d="M525.5,935c-53.9,0-107.9-10.5-157.9-30.9c-50-20.3-96-50.7-134.5-88.8c-38.5-38-69.4-83.8-90.2-133.9
					c-20.9-50-31.4-104.3-31.3-158.4c0.2-54.2,11.1-108.3,32-158.1c10.5-24.9,23.4-48.8,38.5-71.2c15.1-22.4,32.4-43.3,51.5-62.4
					c38.3-38.1,83.9-68.8,133.8-89.5l9.4-3.7c3.2-1.2,6.2-2.6,9.5-3.6l9.6-3.3c3.2-1.1,6.4-2.3,9.6-3.1l9.7-2.8
					c3.3-0.9,6.5-2,9.8-2.7l9.9-2.3l4.9-1.2c0.8-0.2,1.6-0.4,2.5-0.6l2.5-0.5c26.5-5.3,53.5-8.1,80.6-8.2
					c54.1-0.2,108.3,10.1,158.4,30.8c25.1,10.3,49.1,23.1,71.7,38.1c22.6,15,43.6,32.3,62.8,51.4c38.4,38.3,69.2,84.2,90,134.3
					c20.9,50.1,31.5,104.4,31.5,158.6c-0.1,54.2-10.7,108.5-31.7,158.5c-20.8,50.1-51.8,95.8-90.3,133.8
					c-38.5,38-84.5,68.4-134.5,88.7C633.4,924.5,579.4,935,525.5,935z M525.5,934.5c26.9-0.1,53.9-2.7,80.3-8
					c26.4-5.3,52.3-13.2,77.1-23.6c49.6-20.8,95-51.6,132.7-89.8c18.9-19.1,35.8-40.1,50.6-62.4l5.4-8.5l2.7-4.2l1.3-2.1
					c0.4-0.7,0.8-1.5,1.3-2.2l5-8.7l2.5-4.4l1.2-2.2l1.1-2.2l4.6-9l2.3-4.5c0.4-0.7,0.8-1.5,1.1-2.2l1-2.3l4.1-9.2l2.1-4.6
					c0.3-0.8,0.7-1.5,1-2.3l0.9-2.3c10.2-24.8,17.9-50.6,23.1-76.8c5.2-26.3,7.7-53.1,7.7-79.8c-0.1-26.8-2.6-53.6-7.8-79.8
					c-5.2-26.3-13-52-23.2-76.8c-20.4-49.5-50.7-95-88.5-132.9c-37.9-37.9-83.2-68.5-132.7-89.1c-24.8-10.3-50.5-18.2-76.8-23.5
					c-26.3-5.3-53.1-8-80-8.2c-53.7-0.1-107.6,10.1-157.3,30.7c-24.9,10.2-48.7,23-71.1,37.9c-22.4,14.9-43.2,32.1-62.3,51.1
					c-19,19.1-36.1,40-50.9,62.4c-14.8,22.4-27.5,46.3-37.6,71.1c-10.2,24.9-17.9,50.7-22.9,77.1c-5.1,26.3-7.6,53.2-7.5,80
					c0.1,26.8,2.8,53.6,8,79.9c5.2,26.3,13,52.1,23.2,76.9l0.9,2.3c0.3,0.8,0.7,1.5,1,2.3l2.1,4.6l4.1,9.2l1,2.3
					c0.4,0.8,0.8,1.5,1.1,2.2l2.3,4.5l4.6,9l1.1,2.2l1.2,2.2l2.5,4.4l5,8.7c0.4,0.7,0.8,1.5,1.3,2.2l1.3,2.1l2.7,4.2l5.4,8.5
					c14.8,22.3,31.8,43.3,50.7,62.4c37.8,38.2,83.1,68.9,132.7,89.8c24.8,10.5,50.7,18.3,77.1,23.6
					C471.6,931.8,498.6,934.4,525.5,934.5z"/>
			</g>
			<g>
				<path d="M929.8,523c-0.1-52.9-10.5-105.9-30.8-154.7c-20.3-48.9-50.4-93.6-87.9-130.9c-37.5-37.3-82.2-67.2-131.1-87.3
					c-24.4-10.1-49.8-17.8-75.7-22.9c-25.9-5.1-52.3-7.7-78.7-7.8c-26.4,0-52.8,2.5-78.8,7.6c-25.9,5.1-51.4,12.7-75.8,22.8
					C346.5,159.9,323,172.4,301,187c-22,14.7-42.6,31.5-61.3,50.2c-18.7,18.7-35.6,39.2-50.3,61.2c-14.7,22-27.2,45.4-37.3,69.9
					c-10.1,24.4-17.8,49.9-22.9,75.8c-5.1,25.9-7.6,52.4-7.7,78.8c0.1,26.4,2.7,52.9,7.8,78.8c5.2,25.9,12.9,51.3,23,75.7
					c20.3,48.8,50.3,93.5,87.6,130.8c37.4,37.3,82.1,67.2,130.9,87.4c24.4,10.1,49.8,17.8,75.7,22.9c25.9,5.1,52.3,7.7,78.7,7.7
					c26.4,0,52.8-2.6,78.7-7.7c25.9-5.1,51.3-12.8,75.7-22.8c48.9-20.1,93.6-50,131.1-87.3c37.5-37.3,67.6-82,87.9-130.9
					C919.3,628.9,929.7,575.9,929.8,523z M930,523c0,26.5-2.6,53-7.7,78.9c-5.1,26-12.8,51.5-22.9,76c-20.1,49-50.1,94-87.5,131.6
					c-37.4,37.6-82.3,67.7-131.3,88.1c-49,20.4-102.1,30.8-155.2,30.9c-53.1,0-106.2-10.4-155.2-30.8c-49-20.3-94-50.4-131.5-88
					c-37.5-37.5-67.5-82.5-87.7-131.6c-10.1-24.5-17.8-50-22.9-76.1c-5.1-26-7.6-52.5-7.6-79c0.1-26.5,2.7-53,7.8-79
					c5.2-26,12.9-51.5,23.1-75.9c20.3-49,50.4-93.8,87.8-131.3c37.5-37.5,82.3-67.6,131.2-88c48.9-20.4,102-30.9,155-31
					c53,0,106.1,10.3,155.1,30.7c49,20.3,93.9,50.4,131.3,88c37.4,37.6,67.3,82.5,87.5,131.6c10.1,24.5,17.8,50,22.9,76
					C927.4,470,930,496.5,930,523z"/>
			</g>
			<g>
				<path d="M525.5,920.1c-26,0-52-2.5-77.5-7.5c-25.5-5-50.5-12.6-74.6-22.5c-48.1-19.8-92.2-49.2-129.2-85.9
					c-36.9-36.7-66.5-80.8-86.4-128.9c-20-48.1-30.2-100.2-30.2-152.3c0.1-52.1,10.4-104.1,30.5-152.2c20-48.1,49.6-92.1,86.4-128.8
					c36.8-36.7,80.8-66.3,128.9-86.2c24-10,49-17.6,74.6-22.6c25.5-5.1,51.5-7.6,77.6-7.7c26,0,52.1,2.5,77.6,7.5
					c25.5,5,50.6,12.6,74.7,22.5c48.2,19.8,92.3,49.3,129.2,86.1c36.9,36.8,66.4,80.9,86.4,129.1c20,48.1,30.2,100.3,30.2,152.4
					c0,52.1-10.2,104.2-30.3,152.3c-20,48.1-49.6,92.2-86.5,128.9c-36.9,36.7-81.1,66.1-129.2,85.9c-24.1,9.9-49.1,17.4-74.6,22.5
					C577.5,917.6,551.5,920.1,525.5,920.1z M525.5,919.9c52-0.1,103.9-10.3,151.9-30.3c48-20,91.9-49.5,128.5-86.3
					c36.6-36.8,65.9-80.8,85.7-128.7c9.9-24,17.4-48.9,22.4-74.3c5-25.4,7.5-51.3,7.6-77.3c0-25.9-2.6-51.8-7.6-77.3
					c-5-25.4-12.6-50.3-22.5-74.3c-19.8-47.9-49.1-91.8-85.8-128.5c-36.7-36.7-80.5-66.1-128.4-86c-23.9-10-48.9-17.5-74.3-22.6
					c-25.4-5.1-51.4-7.6-77.3-7.7c-26,0-51.9,2.5-77.4,7.5c-25.5,5-50.4,12.5-74.4,22.4c-24,9.9-47,22.2-68.6,36.6
					c-21.6,14.4-41.7,31-60.1,49.4c-18.3,18.4-34.9,38.6-49.3,60.2c-14.4,21.6-26.7,44.6-36.5,68.6c-9.9,24-17.4,49-22.4,74.4
					c-5,25.5-7.4,51.4-7.5,77.3c0,25.9,2.6,51.9,7.6,77.3c5,25.4,12.6,50.4,22.5,74.3c19.8,48,49.1,91.9,85.7,128.7
					c36.6,36.8,80.5,66.3,128.5,86.3C421.6,909.6,473.5,919.8,525.5,919.9z"/>
			</g>
			<g>
				<path d="M915.1,523c-0.1-51-10.1-102-29.7-149.1c-19.6-47.1-48.6-90.2-84.7-126.1c-36.1-35.9-79.3-64.7-126.3-84.1
					c-23.5-9.7-48-17.1-73-22.1c-25-5-50.4-7.4-75.9-7.5c-25.5,0-50.9,2.4-75.9,7.3c-25,4.9-49.5,12.3-73.1,22
					c-23.6,9.7-46.2,21.7-67.4,35.9c-21.2,14.1-41,30.4-59.1,48.4c-18,18-34.3,37.8-48.5,59c-14.1,21.2-26.2,43.8-35.9,67.4
					c-9.7,23.6-17.1,48.1-22,73.1c-4.9,25-7.4,50.5-7.4,76c0.1,25.5,2.6,50.9,7.6,75.9c5,25,12.4,49.5,22.2,73
					c19.5,47,48.4,90.1,84.4,126.1c36,36,79.1,64.8,126.2,84.2c23.5,9.7,48,17.1,72.9,22.1c25,4.9,50.4,7.4,75.8,7.5
					c25.4,0,50.9-2.5,75.9-7.4c25-4.9,49.4-12.3,73-22c47.1-19.4,90.2-48.2,126.3-84.1c36.1-35.9,65.1-79,84.7-126.1
					C905,625,915,574,915.1,523z M915.3,523c0,25.5-2.5,51-7.4,76.1c-4.9,25-12.3,49.6-22,73.2c-19.4,47.2-48.2,90.6-84.3,126.8
					c-36,36.3-79.3,65.3-126.6,84.9c-47.2,19.7-98.4,29.7-149.5,29.7c-51.2,0-102.3-10-149.6-29.6c-47.3-19.6-90.6-48.6-126.7-84.8
					c-36.2-36.2-65.1-79.5-84.5-126.8c-9.7-23.6-17.1-48.2-22.1-73.3c-4.9-25.1-7.4-50.6-7.4-76.2c0.1-25.5,2.6-51.1,7.5-76.1
					c5-25.1,12.4-49.6,22.2-73.2c19.6-47.2,48.6-90.4,84.6-126.5c36.1-36.1,79.3-65.1,126.5-84.8c47.2-19.7,98.3-29.8,149.4-29.9
					c51.1,0,102.3,9.9,149.5,29.6c47.2,19.6,90.5,48.6,126.6,84.9c36,36.2,64.9,79.6,84.3,126.8c9.7,23.6,17.1,48.2,22,73.2
					C912.8,472,915.3,497.5,915.3,523z"/>
			</g>
			<g>
				<path d="M525.5,905.4c-25,0-50.1-2.4-74.6-7.3c-24.6-4.8-48.6-12.1-71.8-21.6c-46.3-19-88.8-47.3-124.4-82.7
					c-35.6-35.3-64-77.8-83.2-124.2c-19.3-46.3-29-96.5-29-146.7c0.1-50.2,10-100.3,29.3-146.6c19.3-46.3,47.7-88.7,83.2-124.1
					c35.5-35.4,77.9-63.8,124.1-83c23.1-9.6,47.2-16.9,71.8-21.8c24.6-4.9,49.6-7.3,74.7-7.4c25.1,0,50.1,2.4,74.7,7.2
					c24.6,4.8,48.7,12.1,71.9,21.6c46.4,19.1,88.9,47.5,124.4,82.9c35.5,35.5,64,77.9,83.2,124.3c19.3,46.4,29.1,96.6,29.1,146.7
					c0,50.2-9.8,100.4-29.2,146.7c-19.2,46.3-47.7,88.8-83.3,124.1c-35.6,35.4-78.1,63.7-124.4,82.7c-23.2,9.5-47.2,16.8-71.8,21.6
					C575.6,903,550.5,905.4,525.5,905.4z M525.5,905.2c50-0.1,100.1-9.9,146.2-29.2c46.2-19.2,88.4-47.7,123.7-83.1
					c35.2-35.4,63.5-77.8,82.5-123.9c9.5-23.1,16.8-47.1,21.6-71.6c4.8-24.5,7.3-49.4,7.3-74.4c0-25-2.5-49.9-7.3-74.4
					c-4.8-24.5-12.1-48.5-21.6-71.5c-19-46.1-47.3-88.4-82.6-123.8c-35.3-35.3-77.5-63.7-123.7-82.8c-23.1-9.6-47.1-16.9-71.6-21.8
					c-24.5-4.9-49.5-7.3-74.5-7.4c-25,0-50,2.4-74.5,7.2c-24.5,4.8-48.6,12.1-71.7,21.6c-23.1,9.5-45.3,21.4-66.1,35.2
					c-20.8,13.9-40.2,29.9-57.9,47.5c-17.7,17.7-33.6,37.1-47.5,57.9c-13.9,20.8-25.7,43-35.2,66.1c-9.5,23.1-16.7,47.1-21.5,71.7
					C146.4,473,144,498,144,523c0,25,2.5,49.9,7.3,74.4c4.9,24.5,12.1,48.5,21.6,71.6c19,46.2,47.3,88.5,82.5,123.9
					c35.3,35.4,77.5,63.9,123.7,83.1C425.4,895.3,475.5,905.1,525.5,905.2z"/>
			</g>
			<g>
				<path d="M900.4,523c-0.1-49.1-9.7-98.2-28.6-143.5c-18.9-45.3-46.8-86.8-81.5-121.3c-34.8-34.5-76.3-62.3-121.6-80.9
					c-22.6-9.3-46.2-16.5-70.2-21.2c-24-4.8-48.5-7.2-73-7.2c-24.5,0-49,2.3-73,7c-24,4.7-47.6,11.8-70.3,21.1
					c-22.7,9.3-44.4,20.9-64.8,34.5c-20.4,13.6-39.5,29.2-56.8,46.5c-17.3,17.3-33,36.4-46.6,56.8c-13.6,20.4-25.2,42.1-34.6,64.8
					c-9.4,22.7-16.5,46.3-21.2,70.3c-4.7,24.1-7.1,48.6-7.1,73.1c0.1,24.5,2.5,49,7.3,73.1c4.8,24,11.9,47.6,21.3,70.2
					c18.8,45.3,46.6,86.7,81.3,121.3c34.7,34.6,76.2,62.3,121.4,81c22.6,9.3,46.2,16.5,70.2,21.2c24,4.8,48.5,7.1,73,7.2
					c24.5,0,49-2.4,73-7.1c24-4.7,47.6-11.9,70.2-21.2c45.3-18.6,86.8-46.3,121.6-80.9c34.8-34.6,62.7-76,81.5-121.3
					C890.7,621.2,900.3,572.1,900.4,523z M900.6,523c0,24.6-2.4,49.1-7.1,73.2c-4.7,24.1-11.9,47.7-21.2,70.4
					c-18.7,45.5-46.4,87.2-81.1,122c-34.7,34.9-76.3,62.8-121.8,81.7c-45.4,19-94.7,28.6-143.9,28.6c-49.2,0-98.5-9.6-144-28.5
					c-45.5-18.8-87.2-46.8-122-81.6c-34.8-34.8-62.6-76.6-81.3-122.1c-9.4-22.7-16.5-46.4-21.2-70.5c-4.7-24.1-7.1-48.7-7.1-73.3
					c0.1-24.6,2.5-49.2,7.3-73.3c4.8-24.1,12-47.7,21.4-70.4c18.8-45.4,46.7-87,81.4-121.8c34.7-34.8,76.3-62.7,121.7-81.6
					c45.4-18.9,94.6-28.7,143.8-28.8c49.2,0,98.4,9.6,143.9,28.5c45.5,18.9,87.1,46.8,121.8,81.7c34.7,34.9,62.4,76.6,81.1,122
					c9.3,22.7,16.5,46.3,21.2,70.4C898.2,473.9,900.6,498.4,900.6,523z"/>
			</g>
			<g>
				<path d="M525.5,890.8c-48.2,0-96.3-9.3-141-27.5c-44.7-18.1-85.7-45.2-120.1-79.2c-34.4-33.9-62.1-74.8-80.6-119.5
					c-18.7-44.7-28.1-93.2-27.9-141.6c0.2-48.4,10-96.7,28.7-141.3c9.3-22.3,20.9-43.6,34.4-63.6c13.5-20,28.9-38.7,46-55.7
					c34.2-34,75-61.4,119.5-79.9l8.4-3.3c2.8-1.1,5.6-2.3,8.5-3.2l8.6-2.9c2.9-0.9,5.7-2,8.6-2.8l8.7-2.5c2.9-0.8,5.8-1.8,8.7-2.4
					l8.8-2.1l4.4-1c0.7-0.2,1.5-0.4,2.2-0.5l2.2-0.4c23.7-4.8,47.8-7.2,71.9-7.3c48.3-0.2,96.7,9,141.5,27.4
					c22.4,9.2,43.9,20.6,64,34c20.2,13.4,39,28.8,56.2,45.9c34.3,34.2,61.8,75.2,80.4,119.9c18.7,44.7,28.1,93.2,28.2,141.7
					c-0.1,48.5-9.6,96.9-28.3,141.6c-18.6,44.7-46.3,85.6-80.8,119.5c-34.4,33.9-75.5,61-120.2,79.2
					C621.8,881.5,573.7,890.9,525.5,890.8z M525.5,890.3c24-0.1,48.1-2.4,71.7-7.1c23.6-4.8,46.7-11.8,68.8-21.1
					c44.3-18.6,84.7-46.1,118.4-80.2c16.8-17.1,31.9-35.8,45.1-55.7l4.8-7.6l2.4-3.8c0.8-1.3,1.6-2.5,2.3-3.8l4.4-7.8l2.2-3.9
					l1.1-1.9l1-2l4.1-8l2-4c0.3-0.7,0.7-1.3,1-2l0.9-2l3.7-8.2c1.2-2.7,2.5-5.4,3.5-8.2c9.1-22.1,16-45.1,20.6-68.6
					c4.6-23.4,6.9-47.3,6.9-71.2c-0.1-23.9-2.3-47.8-7-71.2c-4.6-23.4-11.6-46.4-20.7-68.5c-18.2-44.2-45.2-84.7-79-118.6
					c-33.8-33.9-74.2-61.1-118.4-79.5c-22.1-9.2-45.1-16.3-68.6-21c-23.5-4.8-47.4-7.2-71.4-7.3c-47.9-0.1-96,8.9-140.4,27.3
					c-22.2,9.1-43.5,20.5-63.5,33.8c-20,13.3-38.6,28.7-55.6,45.7c-16.9,17-32.2,35.7-45.4,55.7c-13.2,20-24.5,41.3-33.5,63.5
					c-9.1,22.2-15.9,45.3-20.4,68.8c-4.5,23.5-6.7,47.5-6.7,71.4c0.1,23.9,2.5,47.8,7.1,71.3c4.7,23.5,11.6,46.5,20.7,68.6
					c1,2.8,2.4,5.5,3.6,8.2l3.7,8.2l0.9,2c0.3,0.7,0.7,1.3,1,2l2,4l4.1,8l1,2l1.1,1.9l2.2,3.9l4.4,7.8c0.7,1.3,1.5,2.6,2.3,3.8
					l2.4,3.8l4.8,7.6c13.2,19.9,28.3,38.7,45.2,55.7c33.7,34.1,74.1,61.6,118.4,80.2c22.1,9.4,45.2,16.4,68.8,21.1
					C477.4,888,501.5,890.3,525.5,890.3z"/>
			</g>
			<g>
				<path d="M885.7,523c-0.1-47.2-9.3-94.3-27.5-137.8c-18.1-43.5-44.9-83.4-78.3-116.6c-33.4-33.2-73.3-59.8-116.8-77.8
					c-21.8-9-44.4-15.8-67.4-20.4c-23.1-4.6-46.6-6.9-70.1-6.9c-23.5,0-47.1,2.2-70.2,6.8c-23.1,4.5-45.8,11.3-67.5,20.3
					c-21.8,9-42.7,20.1-62.3,33.1c-19.6,13.1-37.9,28.1-54.6,44.7c-16.7,16.7-31.7,34.9-44.8,54.5c-13.1,19.6-24.2,40.5-33.2,62.3
					c-18,43.5-27.2,90.7-27.2,137.8c0.1,47.1,9.4,94.2,27.5,137.6c18.1,43.5,44.8,83.3,78.1,116.5c33.3,33.2,73.2,59.9,116.6,77.8
					c21.7,9,44.3,15.8,67.4,20.4c23.1,4.6,46.6,6.9,70.1,6.9c23.5,0,47-2.3,70.1-6.9c23.1-4.6,45.7-11.4,67.4-20.3
					c43.5-17.9,83.4-44.5,116.8-77.7c33.4-33.2,60.2-73,78.3-116.6C876.4,617.3,885.6,570.2,885.7,523z M885.9,523
					c0,23.6-2.3,47.2-6.8,70.3c-4.5,23.2-11.4,45.8-20.4,67.7c-17.9,43.7-44.6,83.8-77.9,117.3c-33.3,33.5-73.3,60.4-117,78.5
					c-43.7,18.2-91,27.5-138.3,27.5c-47.3,0-94.6-9.2-138.3-27.4c-43.7-18.1-83.8-45-117.2-78.4c-33.4-33.5-60.2-73.6-78.2-117.3
					c-18.1-43.7-27.2-91-27.2-138.2c0.1-47.2,9.4-94.5,27.5-138.1c18.1-43.6,44.9-83.6,78.2-117c33.4-33.4,73.3-60.2,116.9-78.4
					c43.6-18.2,90.9-27.6,138.1-27.7c47.3,0,94.6,9.2,138.3,27.4c43.7,18.1,83.7,44.9,117,78.5c33.3,33.5,60,73.6,77.9,117.3
					c9,21.8,15.8,44.5,20.4,67.7C883.6,475.8,885.9,499.4,885.9,523z"/>
			</g>
			<g>
				<path d="M525.5,876c-23.1,0-46.2-2.2-68.9-6.7c-22.7-4.4-44.9-11.2-66.3-19.9c-42.8-17.5-82-43.7-114.9-76.3
					c-32.8-32.6-59.1-71.8-76.9-114.6c-17.8-42.8-26.8-89.1-26.8-135.4c0.1-46.3,9.3-92.6,27.1-135.3
					c17.8-42.7,44.1-81.9,76.8-114.5c32.8-32.6,71.9-58.9,114.6-76.6c42.7-17.8,89-26.9,135.2-27c46.3-0.1,92.6,8.9,135.4,26.6
					c42.8,17.6,82.1,43.8,114.9,76.6c32.8,32.7,59.1,72,76.8,114.8c17.8,42.8,26.8,89.2,26.8,135.5c0,46.3-9.1,92.7-26.9,135.5
					c-17.8,42.8-44.1,82-76.9,114.6c-32.8,32.6-72.1,58.8-114.9,76.3c-21.4,8.8-43.6,15.5-66.3,19.9
					C571.7,873.8,548.6,876,525.5,876z M525.5,875.8c46.2-0.1,92.4-9.1,135-26.9c42.6-17.7,81.6-44,114.2-76.7
					c32.5-32.7,58.6-71.8,76.1-114.4c8.8-21.3,15.5-43.5,19.9-66.1c4.5-22.6,6.7-45.6,6.7-68.7c0-23-2.3-46.1-6.7-68.7
					c-4.5-22.6-11.2-44.7-20-66c-17.6-42.6-43.6-81.6-76.2-114.3c-32.6-32.6-71.6-58.8-114.1-76.5c-42.6-17.7-88.7-26.8-134.8-26.9
					c-46.1,0-92.3,9-134.9,26.6c-21.3,8.8-41.8,19.7-61,32.5c-19.2,12.8-37.1,27.6-53.4,43.9c-16.3,16.3-31,34.3-43.8,53.5
					c-12.8,19.2-23.7,39.7-32.4,61c-8.8,21.3-15.4,43.5-19.9,66.1c-4.4,22.6-6.6,45.7-6.6,68.7c0,23.1,2.3,46.1,6.8,68.7
					c4.5,22.6,11.2,44.8,20,66.1c17.5,42.6,43.7,81.7,76.2,114.4c32.5,32.7,71.5,59,114.2,76.7C433.1,866.7,479.3,875.7,525.5,875.8
					z"/>
			</g>
			<g>
				<path d="M870.9,523c-0.1-45.2-8.9-90.4-26.4-132.2c-17.4-41.7-43.1-79.9-75.1-111.8c-32-31.8-70.3-57.4-112-74.6
					c-20.9-8.6-42.5-15.2-64.7-19.6c-22.1-4.4-44.7-6.6-67.3-6.6c-22.6,0-45.1,2.1-67.3,6.5c-22.2,4.3-43.9,10.9-64.8,19.4
					c-20.9,8.6-40.9,19.3-59.7,31.8c-18.8,12.5-36.4,26.9-52.4,42.9c-16,16-30.4,33.5-43,52.3c-12.5,18.8-23.2,38.8-31.8,59.7
					c-17.3,41.8-26.1,86.9-26,132.1c0.1,45.2,9,90.3,26.4,132c17.3,41.7,43,79.8,74.9,111.7c31.9,31.9,70.1,57.4,111.8,74.6
					c20.8,8.6,42.5,15.2,64.6,19.6c22.1,4.4,44.7,6.6,67.2,6.6c22.6,0,45.1-2.2,67.2-6.6c22.1-4.4,43.8-10.9,64.7-19.5
					c41.7-17.2,80-42.7,112-74.5c32-31.8,57.7-70,75.1-111.7C861.9,613.4,870.8,568.2,870.9,523z M871.1,523
					c0,22.6-2.2,45.3-6.5,67.5c-4.4,22.2-10.9,44-19.5,64.9c-17.2,41.9-42.8,80.3-74.7,112.5c-31.9,32.2-70.3,57.9-112.2,75.3
					c-41.9,17.5-87.3,26.3-132.6,26.4c-45.4,0-90.8-8.9-132.7-26.3c-41.9-17.4-80.3-43.1-112.4-75.2c-32.1-32.1-57.7-70.5-75-112.5
					c-17.3-41.9-26.1-87.2-26.1-132.5c0.1-45.3,9-90.6,26.4-132.4c17.4-41.8,43.1-80.1,75-112.2c32-32,70.3-57.8,112.1-75.2
					c41.8-17.5,87.1-26.5,132.5-26.5c45.3,0,90.7,8.8,132.6,26.3c41.9,17.4,80.3,43.1,112.2,75.3c32,32.1,57.5,70.6,74.7,112.4
					c8.6,20.9,15.2,42.7,19.5,64.9C868.9,477.7,871.1,500.4,871.1,523z"/>
			</g>
			<g>
				<path d="M525.5,861.3c-22.1,0-44.3-2.1-66-6.4c-21.7-4.3-43-10.7-63.5-19.1c-41-16.8-78.6-41.9-110.1-73.1
					c-31.5-31.3-56.7-68.8-73.7-109.8c-17.1-41-25.7-85.4-25.7-129.8c0.1-44.4,8.9-88.7,26-129.7c17.1-40.9,42.3-78.4,73.6-109.8
					c31.4-31.3,68.9-56.5,109.8-73.5c40.9-17,85.3-25.8,129.6-25.9c44.4-0.1,88.7,8.6,129.7,25.5c41,16.9,78.7,42,110.1,73.4
					c31.4,31.4,56.6,69,73.6,110c17.1,41,25.7,85.4,25.7,129.9c0,44.4-8.7,88.8-25.8,129.8c-17,41-42.3,78.6-73.7,109.8
					c-31.5,31.3-69.1,56.3-110.1,73.1c-20.5,8.4-41.8,14.9-63.5,19.1C569.8,859.2,547.6,861.3,525.5,861.3z M525.5,861.1
					c44.3-0.1,88.5-8.8,129.3-25.8c40.8-17,78.2-42.2,109.4-73.5c31.1-31.4,56.1-68.8,72.9-109.6c8.4-20.4,14.8-41.6,19.1-63.3
					c4.3-21.7,6.4-43.7,6.4-65.8c0-22.1-2.2-44.1-6.5-65.8c-4.3-21.6-10.7-42.9-19.1-63.3c-16.8-40.8-41.8-78.2-73-109.5
					c-31.2-31.2-68.6-56.3-109.4-73.3c-40.8-17-85-25.8-129.2-25.8c-44.2,0-88.4,8.6-129.3,25.5c-20.4,8.4-40,18.9-58.4,31.2
					c-18.4,12.3-35.6,26.4-51.2,42c-15.6,15.7-29.7,32.8-42,51.2c-12.3,18.4-22.7,38-31.1,58.5c-8.4,20.4-14.8,41.7-19,63.4
					c-4.2,21.7-6.3,43.8-6.3,65.9c0,22.1,2.2,44.2,6.5,65.8c4.3,21.7,10.7,42.9,19.1,63.3c16.8,40.8,41.8,78.3,73,109.6
					c31.2,31.3,68.5,56.5,109.4,73.5C437,852.3,481.2,861,525.5,861.1z"/>
			</g>
			<g>
				<path d="M856.2,523c-0.1-43.3-8.6-86.6-25.2-126.5c-16.6-40-41.3-76.5-71.9-107c-30.7-30.5-67.3-54.9-107.2-71.4
					c-20-8.2-40.7-14.5-61.9-18.7c-21.2-4.2-42.8-6.3-64.4-6.4c-21.6,0-43.2,2-64.4,6.2c-21.2,4.1-42,10.4-62,18.6
					c-20,8.2-39.2,18.4-57.2,30.4c-18,12-34.8,25.8-50.1,41c-15.3,15.3-29.1,32.1-41.1,50.1c-12,18-22.2,37.2-30.5,57.2
					c-16.5,40-25,83.2-24.9,126.5c0.1,43.2,8.6,86.4,25.3,126.3c16.6,39.9,41.1,76.4,71.7,107c30.6,30.5,67.2,55,107.1,71.4
					c20,8.2,40.7,14.5,61.9,18.7c21.2,4.2,42.8,6.3,64.4,6.3c21.6,0,43.2-2.1,64.4-6.3c21.2-4.2,41.9-10.5,61.9-18.7
					c39.9-16.4,76.6-40.9,107.2-71.3c30.7-30.5,55.3-67,71.9-107C847.6,609.6,856.1,566.3,856.2,523z M856.4,523
					c0,21.7-2.1,43.3-6.3,64.6c-4.2,21.3-10.5,42.1-18.7,62.1c-16.4,40.1-40.9,76.9-71.5,107.7c-30.6,30.8-67.3,55.5-107.4,72.1
					c-40.1,16.7-83.6,25.2-127,25.3c-43.4,0-86.9-8.5-127-25.2c-40.1-16.6-76.9-41.3-107.6-72c-30.7-30.7-55.3-67.6-71.8-107.7
					c-16.6-40.1-25-83.5-24.9-126.9c0.1-43.4,8.6-86.7,25.3-126.8c16.6-40.1,41.2-76.7,71.8-107.4c30.6-30.7,67.3-55.3,107.4-72
					c40-16.7,83.4-25.3,126.8-25.4c43.4,0,86.9,8.4,127,25.1c40.1,16.6,76.9,41.3,107.5,72.1c30.6,30.8,55.1,67.6,71.5,107.7
					c8.2,20.1,14.5,40.9,18.7,62.1C854.3,479.7,856.4,501.3,856.4,523z"/>
			</g>
			<g>
				<path d="M525.5,846.6c-21.2,0-42.4-2-63.2-6.1c-20.8-4.1-41.2-10.3-60.8-18.3c-39.2-16.1-75.2-40-105.3-69.9
					c-30.1-29.9-54.2-65.9-70.5-105.1c-16.4-39.2-24.6-81.7-24.6-124.2c0.1-42.5,8.5-84.9,24.9-124c16.3-39.2,40.4-75,70.4-105
					c30-29.9,65.9-54,105.1-70.3c39.2-16.3,81.6-24.7,124-24.7c42.4-0.1,84.9,8.2,124.1,24.4c39.3,16.1,75.3,40.2,105.3,70.2
					c30.1,30,54.2,66,70.4,105.2C841.7,438,850,480.5,850,523c0,42.5-8.3,85-24.7,124.2c-16.3,39.2-40.4,75.2-70.6,105.1
					c-30.1,29.9-66.1,53.8-105.3,69.9c-19.6,8-40,14.2-60.8,18.3C567.9,844.6,546.7,846.6,525.5,846.6z M525.5,846.4
					c42.3-0.1,84.7-8.4,123.7-24.7c39.1-16.3,74.8-40.4,104.6-70.4c29.8-30,53.7-65.8,69.7-104.9c8-19.5,14.2-39.8,18.3-60.5
					c4.1-20.7,6.1-41.8,6.2-62.9c0-21.1-2.1-42.2-6.2-62.9c-4.1-20.7-10.2-41-18.3-60.5c-16.1-39-40-74.8-69.8-104.7
					C723.8,265,688.1,241,649,224.8c-39-16.3-81.3-24.6-123.5-24.7c-42.3,0-84.6,8.2-123.7,24.4c-19.6,8.1-38.3,18.1-55.9,29.8
					c-17.6,11.7-34,25.3-49,40.2c-14.9,15-28.4,31.4-40.1,49c-11.7,17.6-21.7,36.4-29.7,55.9c-8,19.5-14.1,39.9-18.2,60.6
					c-4.1,20.7-6,41.9-6,63c0,21.1,2.1,42.2,6.2,63c4.1,20.7,10.3,41,18.3,60.5c16.1,39.1,40,74.9,69.8,104.9
					c29.8,30,65.6,54.1,104.6,70.3C440.8,838,483.2,846.3,525.5,846.4z"/>
			</g>
			<g>
				<path d="M841.3,523c-0.1-20.7-2.1-41.4-6.1-61.6c-4.1-20.3-10.1-40.1-18.2-59.1c-16.1-38.1-39.7-72.8-69-101.7
					c-14.7-14.4-30.8-27.4-47.9-38.8l-6.5-4.1l-3.3-2.1c-1.1-0.7-2.2-1.4-3.3-2l-6.7-3.8l-3.4-1.9l-1.7-1l-1.7-0.9l-6.9-3.5
					l-3.4-1.7l-1.7-0.9l-1.8-0.8l-7-3.2c-2.4-1-4.7-2.2-7.1-3.1c-19-7.8-38.8-13.8-58.9-17.8c-20.2-4-40.7-6.1-61.3-6.2
					c-20.6-0.1-41.1,1.8-61.3,5.7c-20.2,3.9-40,9.8-59.1,17.5c-19.1,7.8-37.4,17.4-54.6,28.8c-17.2,11.4-33.3,24.5-47.9,39
					c-14.6,14.6-27.8,30.6-39.2,47.8c-11.4,17.2-21.2,35.5-29.1,54.6c-15.8,38.1-23.6,79.5-23.4,120.7c0.1,20.6,2.2,41.2,6.4,61.4
					c4.1,20.2,10.2,39.9,18.1,58.9c15.9,37.9,39.3,72.7,68.4,101.7c29.1,29,63.9,52.2,101.9,67.8c19,7.8,38.7,13.8,58.8,17.7
					c20.1,4,40.6,5.9,61.2,6c20.5,0,41-1.9,61.2-5.9c20.1-3.9,39.9-9.9,58.9-17.7c2.4-0.9,4.7-2,7.1-3l7-3.1l1.8-0.8l1.7-0.9
					l3.4-1.7l6.9-3.5l1.7-0.9l1.7-0.9l3.4-1.9l6.7-3.8c1.1-0.6,2.2-1.3,3.3-2l3.3-2.1l6.5-4.1c17.1-11.3,33.2-24.3,47.9-38.7
					c29.4-28.9,53-63.6,69.1-101.7c8.1-19,14.1-38.9,18.2-59.1C839.3,564.3,841.3,543.7,841.3,523z M841.8,523
					c0,41.4-8,82.8-23.6,121.3c-15.6,38.4-38.8,73.8-68,103.5c-29.2,29.7-64.3,53.6-102.8,69.6c-38.5,16.2-80.2,24.3-121.9,24.4
					c-41.7,0-83.5-8.2-122-24.3c-38.5-16-73.8-39.7-103.2-69.3c-14.7-14.8-28-31-39.5-48.3c-11.5-17.4-21.3-35.9-29.2-55.1
					c-15.9-38.5-23.7-80.2-23.5-121.8c0.1-20.8,2.2-41.5,6.4-61.9l0.4-1.9l0.4-1.9l0.9-3.8l1.8-7.6c0.5-2.5,1.4-5,2-7.5l2.2-7.5
					c0.7-2.5,1.6-4.9,2.4-7.4l2.5-7.4c0.8-2.5,1.8-4.9,2.8-7.3l2.9-7.2c15.9-38.3,39.5-73.4,68.8-102.8c14.6-14.7,30.7-28,47.9-39.6
					c17.2-11.6,35.5-21.6,54.7-29.7c38.3-16.2,79.9-24.6,121.5-24.8c41.6-0.1,83.4,8,121.8,24c38.5,16,73.7,39.8,102.8,69.5
					c29.2,29.6,52.5,65,68,103.4C833.8,440.2,841.9,481.6,841.8,523z"/>
			</g>
			<g>
				<path d="M525.5,831.9c-20.2,0-40.4-1.9-60.3-5.8c-19.8-3.9-39.3-9.8-58-17.4c-37.4-15.3-71.8-38.2-100.5-66.7
					c-28.8-28.5-51.8-62.9-67.3-100.3c-15.6-37.4-23.5-78-23.5-118.5c0.1-40.5,8.1-81,23.8-118.4c15.6-37.4,38.6-71.6,67.2-100.2
					c28.7-28.6,62.9-51.5,100.3-67.1c37.4-15.6,77.9-23.6,118.4-23.6c40.5-0.1,81,7.8,118.5,23.3c37.5,15.4,71.9,38.3,100.6,67
					c28.7,28.7,51.7,63,67.2,100.5c15.6,37.5,23.5,78,23.5,118.6c0,40.6-8,81.1-23.6,118.6c-15.6,37.4-38.6,71.8-67.4,100.3
					c-28.8,28.6-63.1,51.4-100.6,66.7c-18.7,7.7-38.2,13.6-58,17.4C565.9,830,545.7,831.9,525.5,831.9z M525.5,831.7
					c40.4-0.1,80.8-8,118.1-23.6c37.3-15.5,71.4-38.5,99.8-67.2c28.4-28.6,51.2-62.8,66.5-100.1c7.7-18.6,13.5-38,17.4-57.8
					c3.9-19.8,5.8-39.9,5.9-60.1c0-20.2-2-40.3-5.9-60.1c-3.9-19.8-9.8-39.1-17.5-57.8c-15.4-37.3-38.2-71.4-66.7-99.9
					c-28.5-28.5-62.6-51.4-99.8-66.9c-37.2-15.5-77.6-23.5-117.9-23.6c-40.4,0-80.7,7.8-118.1,23.3c-18.7,7.7-36.6,17.2-53.4,28.4
					c-16.8,11.2-32.5,24.1-46.7,38.4c-14.3,14.3-27.1,30-38.3,46.8c-11.2,16.8-20.7,34.7-28.4,53.4c-7.7,18.7-13.5,38.1-17.4,57.9
					c-3.9,19.8-5.8,40-5.8,60.1c0,20.2,2,40.3,5.9,60.1c3.9,19.8,9.8,39.1,17.5,57.8c15.3,37.3,38.2,71.4,66.6,100.1
					c28.4,28.6,62.6,51.6,99.9,67.2C444.7,823.7,485.1,831.6,525.5,831.7z"/>
			</g>
			<g>
				<path d="M826.8,523c-0.1-39.4-7.8-78.9-23-115.3c-15.2-36.4-37.6-69.7-65.6-97.5c-28-27.7-61.3-50-97.7-65
					c-18.2-7.5-37.1-13.2-56.4-17.1c-19.3-3.8-39-5.8-58.6-5.8c-19.7,0-39.4,1.8-58.7,5.6c-19.3,3.8-38.3,9.5-56.5,16.9
					c-18.2,7.5-35.7,16.8-52.1,27.7c-16.4,10.9-31.7,23.5-45.7,37.4c-13.9,13.9-26.5,29.2-37.5,45.6c-10.9,16.4-20.3,33.9-27.8,52.1
					c-15.1,36.4-22.7,75.8-22.7,115.2c0.1,39.4,7.9,78.7,23,115.1c15.1,36.3,37.5,69.6,65.3,97.4c27.8,27.8,61.2,50.1,97.5,65.1
					c18.2,7.5,37.1,13.2,56.4,17c19.3,3.8,38.9,5.7,58.6,5.8c19.7,0,39.3-1.9,58.6-5.7c19.3-3.8,38.2-9.5,56.4-17
					c36.4-15,69.7-37.2,97.7-64.9c27.9-27.7,50.4-61.1,65.6-97.4C819,601.9,826.7,562.4,826.8,523z M827,523
					c0,19.7-1.9,39.5-5.7,58.9c-3.8,19.4-9.5,38.4-17,56.6c-15,36.6-37.3,70.1-65.1,98.2c-27.9,28.1-61.3,50.6-97.9,65.8
					c-36.5,15.3-76.2,23-115.7,23c-39.6,0-79.2-7.7-115.8-22.9c-36.6-15.2-70.1-37.6-98.1-65.6c-28-28-50.3-61.6-65.4-98.2
					c-15.1-36.6-22.8-76.1-22.7-115.7c0.1-39.5,7.9-79,23.1-115.5c15.2-36.5,37.6-69.9,65.5-97.9c27.9-27.9,61.3-50.4,97.8-65.6
					c36.5-15.2,76-23.1,115.6-23.2c39.6,0,79.2,7.7,115.7,22.9c36.5,15.2,70.1,37.6,97.9,65.7c27.9,28.1,50.2,61.6,65.1,98.1
					c7.5,18.3,13.2,37.3,17,56.6C825.1,483.5,827,503.3,827,523z"/>
			</g>
			<g>
				<path d="M525.5,817.2c-19.3,0-38.5-1.8-57.4-5.6c-18.9-3.7-37.4-9.3-55.3-16.6c-35.7-14.6-68.4-36.4-95.8-63.6
					c-27.4-27.2-49.3-59.9-64.1-95.6c-14.9-35.7-22.3-74.3-22.3-112.9c0.1-38.6,7.8-77.2,22.6-112.8c14.8-35.6,36.8-68.2,64-95.5
					c27.3-27.2,59.9-49.1,95.5-63.9c35.6-14.8,74.2-22.4,112.7-22.5c38.6-0.1,77.2,7.4,112.9,22.2c35.7,14.7,68.5,36.5,95.8,63.8
					c27.3,27.3,49.3,60,64.1,95.7c14.9,35.7,22.4,74.4,22.4,113c0,38.6-7.6,77.3-22.5,113c-14.8,35.7-36.8,68.4-64.2,95.5
					c-27.4,27.2-60.1,48.9-95.8,63.6c-17.8,7.3-36.4,12.9-55.3,16.6C564,815.4,544.8,817.2,525.5,817.2z M525.5,817
					c38.5-0.1,77-7.6,112.5-22.5c35.5-14.8,68-36.7,95.1-64c27.1-27.3,48.8-59.8,63.3-95.3c7.3-17.7,12.9-36.2,16.6-55
					c3.7-18.8,5.6-38,5.6-57.2c0-19.2-1.9-38.4-5.6-57.2c-3.7-18.8-9.3-37.3-16.6-55c-14.6-35.5-36.3-68-63.5-95.2
					c-27.1-27.2-59.6-49-95.1-63.7c-35.5-14.8-73.9-22.4-112.3-22.5c-38.4,0-76.9,7.4-112.4,22.1c-17.8,7.3-34.8,16.4-50.8,27.1
					c-16,10.7-30.9,23-44.5,36.6c-13.6,13.6-25.8,28.6-36.5,44.6c-10.6,16-19.7,33.1-27,50.8c-7.3,17.8-12.8,36.3-16.5,55.1
					c-3.7,18.9-5.5,38.1-5.5,57.3c0,19.2,1.9,38.4,5.7,57.2c3.7,18.8,9.3,37.3,16.6,55c14.6,35.5,36.3,68,63.4,95.3
					c27.1,27.3,59.6,49.2,95.1,64C448.5,809.4,487,816.9,525.5,817z"/>
			</g>
			<g>
				<path d="M812.1,523c-0.1-37.5-7.4-75-21.9-109.7c-14.4-34.6-35.8-66.3-62.4-92.7c-26.6-26.4-58.3-47.6-92.9-61.8
					c-17.3-7.1-35.3-12.6-53.6-16.2c-18.4-3.6-37.1-5.5-55.8-5.5c-37.4-0.1-74.9,7.2-109.5,21.4c-17.3,7.1-34,16-49.6,26.3
					c-15.6,10.4-30.2,22.3-43.4,35.6c-13.3,13.3-25.3,27.8-35.6,43.4c-10.4,15.6-19.3,32.2-26.4,49.5
					c-14.3,34.7-21.6,72.1-21.6,109.6c0.1,37.5,7.5,74.9,21.9,109.5c14.4,34.6,35.6,66.2,62.1,92.7c26.5,26.4,58.2,47.6,92.8,61.9
					c17.3,7.1,35.3,12.6,53.6,16.2c18.3,3.6,37,5.5,55.7,5.5c18.7,0,37.4-1.8,55.8-5.4c18.3-3.6,36.3-9.1,53.6-16.2
					c34.6-14.2,66.3-35.4,92.9-61.7c26.6-26.4,47.9-58.1,62.4-92.7C804.7,598,812,560.5,812.1,523z M812.3,523
					c0,18.8-1.8,37.6-5.4,56c-3.6,18.4-9.1,36.5-16.2,53.9c-14.2,34.8-35.4,66.7-61.9,93.4c-26.5,26.7-58.4,48.1-93.1,62.6
					c-34.8,14.5-72.5,21.9-110.1,21.9c-37.7,0-75.4-7.3-110.2-21.8c-34.8-14.4-66.7-35.8-93.3-62.5c-26.6-26.6-47.9-58.6-62.2-93.4
					c-14.4-34.8-21.7-72.4-21.6-110c0.1-37.6,7.5-75.2,21.9-109.9c14.4-34.7,35.8-66.5,62.3-93.1c26.6-26.6,58.3-48,93.1-62.4
					c34.7-14.5,72.3-22,110-22.1c37.6,0,75.3,7.3,110.1,21.8c34.8,14.4,66.6,35.8,93.1,62.5c26.5,26.7,47.7,58.6,62,93.4
					c7.1,17.4,12.6,35.4,16.2,53.9C810.5,485.4,812.3,504.2,812.3,523z"/>
			</g>
			<g>
				<path d="M525.5,802.5c-18.3,0-36.6-1.8-54.6-5.3c-18-3.5-35.6-8.9-52.5-15.8c-33.9-13.9-65-34.5-91-60.4
					c-26-25.8-46.9-56.9-60.9-90.8c-14.1-33.9-21.2-70.6-21.2-107.3c0.1-36.7,7.4-73.3,21.5-107.2c14.1-33.8,34.9-64.8,60.9-90.7
					c26-25.8,56.9-46.6,90.7-60.7c33.8-14.1,70.4-21.3,107.1-21.4c36.7-0.1,73.3,7.1,107.2,21.1c33.9,13.9,65.1,34.7,91,60.6
					c26,25.9,46.8,57,60.9,90.9c14.1,33.9,21.3,70.6,21.3,107.3c0,36.7-7.2,73.4-21.4,107.3c-14.1,33.9-35,64.9-61,90.8
					c-26,25.8-57.1,46.5-91,60.4c-16.9,6.9-34.5,12.3-52.5,15.8C562.1,800.8,543.8,802.5,525.5,802.5z M525.5,802.3
					c36.6-0.1,73.1-7.3,106.8-21.4c33.7-14.1,64.6-34.9,90.3-60.8c25.7-25.9,46.3-56.8,60.2-90.6c6.9-16.9,12.2-34.4,15.8-52.3
					c3.5-17.9,5.3-36.1,5.3-54.3c0-18.2-1.8-36.4-5.3-54.3c-3.5-17.9-8.9-35.4-15.8-52.2c-13.9-33.7-34.5-64.6-60.3-90.4
					c-25.8-25.8-56.6-46.5-90.3-60.5c-33.7-14.1-70.1-21.3-106.7-21.4c-36.5,0-73,7.1-106.8,21c-16.9,7-33.1,15.6-48.3,25.7
					c-15.2,10.1-29.4,21.8-42.3,34.7c-12.9,12.9-24.5,27.1-34.7,42.3c-10.1,15.2-18.7,31.4-25.7,48.3c-13.9,33.8-21,70.3-20.9,106.7
					c0,18.2,1.8,36.5,5.4,54.4c3.6,17.9,8.9,35.4,15.8,52.3c13.9,33.7,34.5,64.6,60.2,90.5c25.7,25.9,56.6,46.7,90.3,60.8
					C452.4,795.1,488.9,802.2,525.5,802.3z"/>
			</g>
			<path class="st0" d="M525.5,787.7c-146.3,0-264.7-118.4-264.7-264.7s118.4-264.7,264.7-264.7S790.2,376.7,790.2,523
				S671.8,787.7,525.5,787.7z"/>
			<path class="st0" d="M525.5,773c-138.2,0-250-111.8-250-250s111.8-250,250-250s250,111.8,250,250S663.7,773,525.5,773z"/>
		</g>
	</g>
</g>
</svg>
