<?xml version="1.0" encoding="utf-8"?>
<!-- Generator: Adobe Illustrator 22.1.0, SVG Export Plug-In . SVG Version: 6.00 Build 0)  -->
<svg version="1.1" id="Layer_1" xmlns="http://www.w3.org/2000/svg" xmlns:xlink="http://www.w3.org/1999/xlink" x="0px" y="0px"
	 viewBox="0 0 1050 1050" style="enable-background:new 0 0 1050 1050;" xml:space="preserve">
<style type="text/css">
	.st0{fill:#070808;}
</style>
<g>
	<g>
		<path class="st0" d="M828.3,221.8c19.9,19.9,38,41.7,53.7,65c15.7,23.3,29.1,48.2,39.9,74.1c10.8,25.9,19.1,52.8,24.6,80.3
			c5.6,27.5,8.4,55.5,8.5,83.5c0.1,28-2.4,56.1-7.6,83.6c-5.3,27.5-13.2,54.6-23.8,80.6c-10.6,26-23.7,51-39.2,74.5
			c-15.5,23.5-33.4,45.4-53.2,65.5c-19.8,20-41.6,38.2-65,54.1c-23.4,15.9-48.4,29.4-74.6,40.3c-26.1,10.9-53.4,19.3-81.2,24.8
			c-27.8,5.6-56.2,8.3-84.5,8.4c-28.4,0-56.7-2.7-84.5-8.2c-27.8-5.5-55-13.8-81.2-24.6c-26.1-10.9-51.2-24.3-74.6-40.1
			c-23.4-15.8-45.3-33.8-65.2-53.8c20,19.9,41.8,37.9,65.3,53.6c23.5,15.7,48.5,29,74.7,39.8c26.1,10.8,53.3,19.1,81.1,24.5
			c27.8,5.5,56.1,8.2,84.4,8.1c28.3,0,56.6-2.9,84.4-8.4c27.7-5.6,54.9-13.9,81-24.9c26.1-10.9,51-24.4,74.4-40.3
			c23.3-15.8,45-34,64.8-54c19.8-20,37.6-41.9,53.1-65.3c15.5-23.4,28.6-48.3,39.2-74.3c10.6-26,18.6-52.9,23.8-80.4
			c5.3-27.5,7.8-55.5,7.7-83.5c-0.1-28-2.9-55.9-8.4-83.4c-5.5-27.4-13.7-54.4-24.5-80.2c-10.7-25.9-24-50.8-39.6-74.1
			C866.2,263.6,848.2,241.7,828.3,221.8z"/>
	</g>
	<g>
		<path class="st0" d="M761.9,288.2c15.6,15.6,29.8,32.6,42.1,50.9c12.3,18.2,22.9,37.7,31.4,58c8.5,20.3,15,41.4,19.4,62.9
			c4.4,21.5,6.7,43.4,6.9,65.4c0.2,21.9-1.7,43.9-5.8,65.5c-4,21.6-10.2,42.8-18.5,63.2c-8.2,20.4-18.5,40-30.6,58.4
			c-12.1,18.4-26.1,35.6-41.6,51.3c-15.5,15.7-32.6,29.9-51,42.3c-18.3,12.4-38,23-58.5,31.5c-20.5,8.5-41.8,15-63.6,19.3
			c-21.8,4.3-44,6.4-66.3,6.3c-22.2-0.1-44.4-2.3-66.2-6.6c-21.8-4.4-43.1-10.9-63.6-19.5c-20.5-8.6-40-19.1-58.4-31.5
			c-18.3-12.4-35.4-26.6-51-42.2c15.6,15.6,32.8,29.7,51.1,42c18.4,12.3,38,22.8,58.4,31.3c20.4,8.5,41.7,15,63.5,19.3
			c21.7,4.3,43.9,6.5,66.1,6.5c22.2,0,44.4-2.1,66.1-6.4c21.7-4.3,43-10.8,63.5-19.3c20.4-8.5,40-19.1,58.3-31.4
			c18.3-12.4,35.3-26.6,50.8-42.3c15.5-15.7,29.5-32.8,41.6-51.1c12.1-18.3,22.4-37.9,30.6-58.2c8.2-20.3,14.4-41.5,18.5-63
			c4.1-21.5,6-43.5,5.8-65.4c-0.2-21.9-2.4-43.8-6.8-65.3c-4.4-21.5-10.9-42.5-19.3-62.8c-8.4-20.3-18.9-39.7-31.1-58
			C791.6,320.9,777.5,303.8,761.9,288.2z"/>
	</g>
	<g>
		<path class="st0" d="M850.4,199.7c21.4,21.3,40.7,44.7,57.5,69.7c16.8,25,31.1,51.7,42.7,79.4c11.6,27.8,20.4,56.7,26.3,86.1
			c5.9,29.5,8.9,59.5,9.1,89.5c0.1,30-2.6,60.1-8.3,89.6c-5.7,29.5-14.2,58.5-25.6,86.4c-11.3,27.9-25.4,54.7-42,79.9
			c-16.6,25.2-35.8,48.7-57,70.2c-21.3,21.5-44.6,41-69.7,58c-25.1,17-51.9,31.5-79.9,43.2c-28,11.7-57.2,20.7-87,26.7
			c-29.8,6-60.2,9-90.6,9c-30.4,0.1-60.8-2.8-90.7-8.7c-29.8-5.9-59-14.8-87.1-26.4c-28-11.6-54.9-26-80-42.9
			c-25.1-16.9-48.5-36.3-69.9-57.7c21.4,21.3,44.8,40.6,70,57.5c25.2,16.8,52,31.1,80.1,42.7c28,11.6,57.2,20.4,87,26.3
			c29.8,5.9,60.2,8.7,90.5,8.6c30.4-0.1,60.7-3.1,90.5-9.1c29.8-6,58.9-15,86.8-26.7c27.9-11.7,54.7-26.2,79.7-43.2
			c25-17,48.3-36.5,69.5-57.9c21.2-21.4,40.4-44.9,57-70c16.6-25.1,30.7-51.8,42-79.7c11.3-27.8,19.9-56.7,25.6-86.2
			c5.7-29.5,8.4-59.5,8.3-89.5c-0.1-30-3.1-60-9-89.4c-5.9-29.4-14.7-58.3-26.2-86.1c-11.5-27.8-25.7-54.5-42.5-79.5
			C891,244.5,871.8,221.1,850.4,199.7z"/>
	</g>
	<g>
		<path class="st0" d="M784.1,266c17.1,17,32.5,35.6,46,55.6c13.5,19.9,24.9,41.2,34.2,63.3c9.3,22.1,16.4,45.2,21.2,68.7
			c4.8,23.5,7.3,47.5,7.4,71.4c0.2,24-1.9,48-6.4,71.5c-4.4,23.6-11.2,46.7-20.2,69c-9,22.3-20.2,43.7-33.5,63.8
			c-13.2,20.1-28.5,38.9-45.5,56.1c-17,17.2-35.6,32.7-55.6,46.3c-20,13.6-41.5,25.1-63.8,34.4c-22.4,9.3-45.7,16.4-69.5,21.1
			c-23.8,4.7-48.1,7-72.3,7c-24.3,0-48.5-2.4-72.3-7.2c-23.8-4.8-47.1-11.9-69.4-21.2c-22.4-9.3-43.8-20.9-63.8-34.4
			c-20-13.5-38.7-29-55.7-46.1c17.1,17,35.8,32.4,55.8,45.9c20.1,13.4,41.5,24.9,63.8,34.1c22.3,9.3,45.6,16.4,69.4,21.1
			c23.8,4.7,48,7.1,72.2,7.1c24.2,0,48.5-2.3,72.2-7.1c23.7-4.7,47-11.8,69.3-21.2c22.3-9.3,43.7-20.8,63.6-34.4
			c20-13.5,38.5-29.1,55.4-46.2c16.9-17.1,32.2-35.8,45.4-55.9c13.2-20,24.4-41.4,33.4-63.6c9-22.2,15.8-45.3,20.3-68.8
			c4.5-23.5,6.6-47.5,6.5-71.4c-0.1-23.9-2.6-47.9-7.3-71.3c-4.7-23.5-11.8-46.5-21-68.6c-9.2-22.1-20.6-43.4-34-63.4
			C816.5,301.8,801.1,283.1,784.1,266z"/>
	</g>
	<g>
		<path class="st0" d="M717.7,332.4c12.7,12.7,24.3,26.6,34.4,41.4c10.1,14.9,18.7,30.7,25.7,47.2c14,33,21.4,68.8,21.7,104.6
			c0.5,35.8-6.1,71.7-19.4,105c-6.7,16.7-15,32.7-24.9,47.7c-9.9,15-21.3,29.1-33.9,41.9c-12.7,12.8-26.6,24.4-41.6,34.5
			c-15,10.1-31,18.7-47.7,25.6c-16.7,6.9-34.2,12.1-52,15.6c-17.8,3.4-35.9,5.1-54.1,4.9c-36.3-0.2-72.5-7.5-105.8-21.6
			c-16.7-7-32.6-15.7-47.5-25.8c-14.9-10.1-28.8-21.7-41.5-34.5c12.8,12.7,26.7,24.2,41.7,34.3c15,10.1,30.9,18.6,47.6,25.6
			c16.7,7,34,12.3,51.7,15.9c17.7,3.6,35.8,5.4,53.9,5.5c18.1,0.1,36.2-1.6,53.9-5c17.7-3.4,35.1-8.7,51.8-15.6
			c16.7-6.9,32.6-15.5,47.5-25.6c14.9-10.1,28.8-21.7,41.4-34.5c12.6-12.8,24-26.7,33.9-41.7c9.9-15,18.2-30.9,24.9-47.5
			c13.4-33.2,19.9-69,19.5-104.7c-0.3-35.7-7.6-71.4-21.5-104.4c-6.9-16.5-15.4-32.4-25.5-47.3C741.9,359.1,730.4,345.2,717.7,332.4
			z"/>
	</g>
	<g>
		<path class="st0" d="M872.6,177.5c22.8,22.8,43.4,47.7,61.4,74.4c18,26.7,33.2,55.2,45.6,84.8c12.3,29.7,21.8,60.5,28.1,91.9
			c6.3,31.5,9.5,63.5,9.6,95.6c0.1,32.1-2.8,64.1-8.9,95.7c-6.1,31.5-15.3,62.4-27.4,92.2c-12.1,29.8-27.1,58.4-44.9,85.2
			c-17.7,26.9-38.2,52-60.9,74.9c-22.7,22.9-47.6,43.7-74.4,61.9c-26.8,18.2-55.4,33.6-85.3,46.1c-29.9,12.5-61,22.1-92.8,28.5
			c-31.8,6.4-64.3,9.7-96.7,9.7c-32.5,0.1-64.9-3-96.8-9.3c-31.8-6.3-63-15.7-92.9-28.1c-29.9-12.4-58.6-27.7-85.4-45.8
			c-26.8-18-51.8-38.7-74.6-61.5c22.8,22.8,47.9,43.4,74.7,61.3c26.9,17.9,55.6,33.2,85.5,45.5c29.9,12.3,61.1,21.8,92.9,28
			c31.8,6.2,64.2,9.3,96.6,9.2c32.4-0.1,64.8-3.4,96.6-9.8c31.8-6.4,62.8-16,92.7-28.6c29.8-12.5,58.4-28,85.1-46.1
			c26.7-18.1,51.6-38.9,74.2-61.8c22.7-22.9,43.1-47.9,60.8-74.7c17.7-26.8,32.8-55.3,44.9-85c12.1-29.7,21.3-60.6,27.4-92
			c6.1-31.5,9.1-63.5,9-95.5c-0.1-32-3.2-64-9.5-95.5c-6.3-31.4-15.7-62.2-28-91.9c-12.3-29.7-27.4-58.1-45.3-84.9
			C915.9,225.4,895.3,200.4,872.6,177.5z"/>
	</g>
	<g>
		<path class="st0" d="M806.2,243.9c18.5,18.5,35.2,38.7,49.8,60.3c14.6,21.6,27,44.7,37,68.7c10,24,17.7,49,22.9,74.5
			c5.2,25.5,7.8,51.5,8,77.5c0.2,26-2.2,52-7,77.6c-4.9,25.6-12.2,50.6-22,74.8c-9.8,24.1-21.9,47.3-36.3,69.1
			c-14.4,21.8-30.9,42.2-49.3,60.8c-18.4,18.6-38.6,35.5-60.3,50.2c-21.7,14.7-44.9,27.2-69.2,37.3c-24.2,10.1-49.5,17.8-75.3,23
			c-25.8,5.1-52.1,7.7-78.4,7.7c-26.3,0-52.6-2.6-78.4-7.7c-25.8-5.1-51.1-12.8-75.3-22.9c-24.2-10.1-47.5-22.6-69.2-37.2
			c-21.7-14.6-42-31.4-60.4-49.9c18.5,18.4,38.8,35.2,60.6,49.7c21.8,14.6,45,27,69.3,37c24.2,10,49.5,17.7,75.2,22.8
			c25.8,5.1,52,7.6,78.3,7.6c26.3,0,52.5-2.6,78.3-7.8c25.7-5.2,51-12.9,75.1-23c24.2-10.1,47.3-22.6,69-37.3
			c21.7-14.7,41.8-31.5,60.1-50.1c18.4-18.5,34.9-38.8,49.3-60.6c14.4-21.7,26.5-44.9,36.3-68.9c9.8-24.1,17.2-49.1,22.1-74.6
			c4.9-25.5,7.2-51.5,7.1-77.4c-0.1-26-2.7-51.9-7.9-77.4c-5.1-25.5-12.8-50.4-22.8-74.4c-10-24-22.3-47.1-36.8-68.7
			C841.3,282.7,824.6,262.4,806.2,243.9z"/>
	</g>
	<g>
		<path class="st0" d="M739.8,310.3c14.2,14.1,27,29.6,38.3,46.1c11.2,16.5,20.8,34.2,28.5,52.6c15.5,36.8,23.7,76.6,24,116.4
			c0.2,19.9-1.5,39.9-5.1,59.5c-3.6,19.6-9.2,38.9-16.7,57.4c-7.4,18.5-16.7,36.3-27.7,53.1c-11,16.7-23.7,32.3-37.8,46.6
			c-14.1,14.3-29.6,27.2-46.3,38.4c-16.7,11.3-34.5,20.8-53.1,28.5c-18.6,7.7-38,13.6-57.8,17.4c-19.8,3.9-40,5.7-60.2,5.6
			c-20.2-0.1-40.3-2.1-60.1-6.1c-19.8-4-39.1-10-57.7-17.7c-18.6-7.8-36.3-17.4-53-28.7c-16.6-11.3-32.1-24.1-46.3-38.3
			c14.2,14.1,29.7,26.9,46.4,38.1c16.7,11.2,34.4,20.7,53,28.4c18.6,7.7,37.9,13.7,57.6,17.6c19.7,4,39.9,6,60,6
			c20.1,0.1,40.3-1.8,60-5.7c19.7-3.9,39.1-9.7,57.6-17.4c18.6-7.7,36.3-17.3,52.9-28.5c16.6-11.2,32-24.1,46.1-38.4
			c14.1-14.2,26.8-29.8,37.7-46.4c11-16.7,20.3-34.4,27.7-52.9c7.4-18.5,13-37.7,16.7-57.2c3.7-19.6,5.4-39.5,5.2-59.3
			c-0.2-19.9-2.2-39.8-6.2-59.3c-4-19.5-9.9-38.6-17.6-57c-7.7-18.4-17.2-36.1-28.3-52.6C766.7,340,753.9,324.5,739.8,310.3z"/>
	</g>
	<g>
		<path class="st0" d="M859.3,190.8c22,21.9,41.8,45.9,59.1,71.6c17.3,25.7,32,53.1,43.9,81.6c11.9,28.5,21,58.2,27,88.5
			c6.1,30.3,9.2,61.1,9.3,92c0.1,30.8-2.7,61.7-8.5,92c-5.8,30.3-14.6,60.1-26.3,88.7c-11.6,28.6-26.1,56.2-43.2,82
			c-17.1,25.8-36.7,50-58.6,72.1c-21.8,22.1-45.8,42.1-71.6,59.5c-25.8,17.5-53.3,32.3-82.1,44.4c-28.8,12-58.7,21.3-89.3,27.4
			c-30.6,6.2-61.8,9.3-93.1,9.3c-31.2,0.1-62.5-2.9-93.1-8.9c-30.6-6-60.6-15.1-89.4-27.1c-28.8-11.9-56.4-26.7-82.2-44.1
			c-25.8-17.3-49.9-37.2-71.8-59.2c22,21.9,46.1,41.7,71.9,59c25.8,17.3,53.4,32,82.2,43.8c28.8,11.9,58.8,20.9,89.3,26.9
			c30.6,6,61.8,9,93,8.9c31.2-0.1,62.4-3.2,92.9-9.4c30.6-6.2,60.5-15.4,89.2-27.5c28.7-12,56.2-26.9,81.9-44.4
			c25.7-17.4,49.6-37.4,71.4-59.5c21.8-22,41.5-46.1,58.5-71.9c17.1-25.8,31.5-53.2,43.2-81.8c11.7-28.6,20.5-58.3,26.3-88.5
			c5.8-30.3,8.7-61.1,8.6-91.9c-0.1-30.8-3.1-61.6-9.2-91.8c-6-30.2-15.1-59.9-26.9-88.4c-11.8-28.5-26.4-55.9-43.6-81.6
			C901,236.8,881.2,212.8,859.3,190.8z"/>
	</g>
	<g>
		<path class="st0" d="M792.9,257.2c17.6,17.6,33.6,36.8,47.5,57.5c13.9,20.6,25.8,42.6,35.3,65.5c9.6,22.9,16.9,46.7,21.9,71
			c4.9,24.3,7.5,49.1,7.6,73.8c0.2,24.8-2,49.6-6.6,74c-4.6,24.4-11.6,48.3-20.9,71.3c-9.3,23-20.9,45.1-34.6,65.9
			c-13.7,20.8-29.5,40.2-47,57.9c-17.5,17.7-36.8,33.8-57.5,47.8c-20.7,14-42.8,25.9-66,35.6c-23.1,9.6-47.2,17-71.8,21.9
			c-24.6,4.9-49.7,7.3-74.8,7.3c-25.1,0-50.2-2.5-74.8-7.4c-24.6-4.9-48.7-12.3-71.8-21.9c-23.1-9.6-45.2-21.5-66-35.5
			c-20.7-14-40-30-57.6-47.6c17.7,17.6,37,33.5,57.7,47.4c20.7,13.9,42.9,25.7,66,35.3c23.1,9.6,47.2,16.9,71.7,21.8
			c24.6,4.9,49.6,7.3,74.7,7.3c25,0,50.1-2.4,74.6-7.3c24.5-4.9,48.6-12.3,71.6-21.9c23.1-9.6,45.1-21.6,65.8-35.6
			c20.6-14,39.8-30.1,57.3-47.8c17.5-17.7,33.3-37,47-57.7c13.7-20.7,25.3-42.8,34.6-65.7c9.3-23,16.4-46.8,21-71.1
			c4.6-24.3,6.9-49.1,6.7-73.8c-0.1-24.7-2.6-49.5-7.5-73.7c-4.9-24.3-12.2-48.1-21.7-70.9c-9.5-22.9-21.3-44.9-35.1-65.5
			C826.4,294.1,810.5,274.8,792.9,257.2z"/>
	</g>
	<g>
		<path class="st0" d="M726.5,323.6c13.3,13.3,25.4,27.8,35.9,43.3c10.5,15.5,19.5,32.1,26.8,49.4c14.6,34.5,22.3,71.9,22.7,109.3
			c0.2,18.7-1.4,37.5-4.8,55.9c-3.4,18.4-8.6,36.5-15.6,53.9c-7,17.4-15.7,34.1-26,49.8c-10.3,15.7-22.2,30.4-35.5,43.8
			c-13.2,13.4-27.8,25.5-43.5,36.1c-15.7,10.6-32.4,19.5-49.9,26.8c-17.5,7.2-35.7,12.7-54.3,16.3c-18.6,3.6-37.6,5.3-56.5,5.2
			c-18.9-0.1-37.9-2-56.4-5.8c-18.6-3.8-36.7-9.4-54.2-16.7c-17.4-7.3-34.1-16.4-49.7-27c-15.6-10.6-30.1-22.7-43.4-36
			c13.3,13.3,27.9,25.3,43.6,35.8c15.6,10.5,32.3,19.5,49.8,26.7c17.4,7.3,35.6,12.8,54.1,16.6c18.5,3.7,37.4,5.6,56.3,5.7
			c18.9,0.1,37.8-1.7,56.4-5.3c18.5-3.6,36.7-9.1,54.1-16.3c17.4-7.2,34.1-16.2,49.7-26.7c15.6-10.5,30.1-22.7,43.3-36
			c13.2-13.3,25.1-27.9,35.4-43.6c10.3-15.6,19-32.3,26-49.7c7-17.4,12.2-35.4,15.6-53.7c3.4-18.4,5-37.1,4.8-55.7
			c-0.2-18.7-2.1-37.3-5.9-55.6c-3.8-18.3-9.3-36.2-16.6-53.5c-7.2-17.3-16.1-33.8-26.6-49.4C751.8,351.5,739.8,336.9,726.5,323.6z"
			/>
	</g>
	<g>
		<path class="st0" d="M881.4,168.7c23.4,23.3,44.5,48.9,62.9,76.3c18.4,27.4,34,56.6,46.7,87c12.6,30.4,22.3,62,28.8,94.3
			c6.5,32.2,9.7,65.1,9.8,98c0.1,32.9-2.9,65.8-9.1,98.1c-6.2,32.3-15.7,64-28.1,94.5c-12.4,30.5-27.8,59.8-46,87.4
			c-18.2,27.5-39.2,53.3-62.4,76.8c-23.3,23.5-48.8,44.9-76.3,63.5c-27.4,18.6-56.8,34.5-87.4,47.3c-30.6,12.9-62.6,22.7-95.2,29.3
			c-32.6,6.6-65.9,9.9-99.2,10c-33.3,0.1-66.6-3-99.2-9.5c-32.6-6.4-64.6-16.1-95.3-28.8c-30.7-12.7-60.1-28.4-87.6-46.9
			c-27.5-18.5-53.1-39.7-76.5-63.1c23.4,23.3,49.1,44.5,76.6,62.9c27.5,18.4,57,34,87.7,46.7c30.7,12.6,62.6,22.3,95.2,28.7
			c32.6,6.4,65.9,9.5,99.1,9.4c33.2-0.1,66.5-3.5,99-10.1c32.6-6.6,64.4-16.5,95-29.3c30.6-12.8,59.9-28.7,87.2-47.3
			c27.4-18.6,52.9-39.9,76.1-63.4c23.2-23.5,44.2-49.1,62.4-76.6c18.2-27.5,33.6-56.7,46-87.2c12.4-30.4,21.9-62.1,28.1-94.3
			c6.3-32.2,9.3-65.1,9.2-97.9c-0.1-32.8-3.3-65.7-9.7-97.9c-6.4-32.2-16.1-63.8-28.6-94.2c-12.6-30.4-28.1-59.6-46.4-87
			C925.8,217.7,904.8,192.1,881.4,168.7z"/>
	</g>
	<g>
		<path class="st0" d="M815,235.1c19.1,19,36.3,39.9,51.4,62.2c15,22.3,27.8,46.1,38.2,70.8c10.3,24.8,18.3,50.5,23.6,76.8
			c5.3,26.3,8,53.1,8.2,79.9c0.2,26.8-2.2,53.6-7.3,80c-5,26.3-12.6,52.2-22.7,77.1c-10.1,24.9-22.6,48.8-37.5,71.3
			c-14.8,22.5-31.9,43.5-50.9,62.7c-19,19.2-39.8,36.6-62.2,51.7c-22.4,15.2-46.3,28.1-71.3,38.5c-25,10.4-51.1,18.4-77.7,23.7
			c-26.6,5.3-53.7,8-80.9,8c-27.1,0-54.3-2.6-80.9-7.9c-26.6-5.3-52.7-13.2-77.7-23.6c-25-10.4-49-23.3-71.4-38.4
			c-22.4-15.1-43.3-32.4-62.3-51.5c19.1,19,40,36.3,62.5,51.3c22.4,15,46.4,27.8,71.4,38.1c25,10.3,51,18.2,77.6,23.5
			c26.6,5.3,53.7,7.8,80.8,7.8c27.1,0,54.2-2.7,80.7-8c26.5-5.3,52.5-13.3,77.5-23.8c24.9-10.4,48.8-23.3,71.1-38.5
			c22.3-15.1,43.1-32.5,62-51.7c18.9-19.1,36-40.1,50.8-62.5c14.8-22.4,27.4-46.3,37.5-71.1c10.1-24.8,17.7-50.6,22.8-76.9
			c5-26.3,7.5-53.1,7.3-79.8c-0.1-26.8-2.8-53.5-8.1-79.8c-5.3-26.3-13.2-52-23.5-76.8c-10.3-24.8-23-48.6-37.9-70.9
			C851.3,275,834.1,254.2,815,235.1z"/>
	</g>
	<g>
		<path class="st0" d="M748.7,301.4c14.8,14.7,28.1,30.8,39.8,48c11.7,17.2,21.6,35.6,29.7,54.7c8.1,19.1,14.2,39.1,18.4,59.4
			c4.2,20.3,6.3,41,6.5,61.8c0.2,20.7-1.6,41.5-5.4,61.9c-3.8,20.4-9.6,40.4-17.4,59.7c-7.7,19.3-17.4,37.8-28.9,55.2
			c-11.4,17.4-24.7,33.7-39.3,48.5c-14.7,14.8-30.8,28.3-48.1,40c-17.3,11.7-35.9,21.7-55.2,29.7c-19.4,8-39.5,14.1-60.1,18.2
			c-20.6,4-41.6,6-62.6,5.9c-21-0.1-42-2.2-62.5-6.3c-20.6-4.1-40.7-10.3-60-18.4c-19.3-8.1-37.8-18.1-55.1-29.8
			c-17.3-11.7-33.4-25.1-48.1-39.9c14.8,14.7,30.9,28,48.3,39.7c17.3,11.6,35.9,21.6,55.2,29.6c19.3,8,39.4,14.2,60,18.3
			c20.5,4.1,41.5,6.2,62.4,6.2c20.9,0,41.9-1.9,62.5-6c20.5-4,40.7-10.2,60-18.2c19.3-8,37.8-18,55.1-29.7
			c17.3-11.7,33.3-25.1,47.9-39.9c14.6-14.8,27.8-31,39.3-48.3c11.4-17.3,21.1-35.8,28.9-55c7.8-19.2,13.6-39.2,17.4-59.5
			c3.8-20.3,5.6-41.1,5.5-61.8c-0.2-20.7-2.3-41.4-6.4-61.7c-4.1-20.3-10.3-40.2-18.3-59.3c-8-19.1-17.8-37.5-29.4-54.8
			C776.7,332.4,763.4,316.2,748.7,301.4z"/>
	</g>
	<g>
		<path class="st0" d="M837.2,212.9c20.5,20.5,39.1,42.9,55.2,66.9c16.2,24,29.9,49.6,41,76.2c11.1,26.7,19.6,54.4,25.3,82.6
			c5.7,28.3,8.6,57.1,8.7,85.9c0.1,28.8-2.5,57.7-7.9,86c-5.4,28.3-13.6,56.1-24.5,82.9c-10.9,26.8-24.4,52.5-40.3,76.6
			c-15.9,24.2-34.3,46.7-54.7,67.4c-20.4,20.6-42.8,39.3-66.9,55.6c-24.1,16.3-49.8,30.2-76.7,41.4c-26.9,11.2-54.9,19.8-83.5,25.6
			c-28.6,5.7-57.8,8.6-87,8.6c-29.2,0-58.4-2.8-87-8.4c-28.6-5.7-56.6-14.2-83.5-25.3c-26.9-11.2-52.7-25-76.8-41.2
			c-24.1-16.2-46.6-34.8-67-55.3c20.5,20.5,43,39,67.2,55.1c24.1,16.1,49.9,29.9,76.8,41c26.9,11.1,54.9,19.6,83.5,25.2
			c28.6,5.6,57.7,8.4,86.9,8.3c29.1-0.1,58.3-2.9,86.8-8.7c28.5-5.7,56.5-14.4,83.3-25.6c26.8-11.2,52.5-25.1,76.5-41.4
			c24-16.3,46.3-35,66.7-55.6c20.4-20.6,38.7-43.1,54.7-67.2c15.9-24.1,29.5-49.7,40.3-76.5c10.9-26.7,19.1-54.5,24.5-82.7
			c5.4-28.3,8.1-57.1,8-85.9c-0.1-28.8-3-57.6-8.6-85.8c-5.7-28.2-14.1-55.9-25.2-82.6c-11-26.7-24.7-52.2-40.8-76.3
			C876.1,255.9,857.6,233.5,837.2,212.9z"/>
	</g>
	<g>
		<path class="st0" d="M770.8,279.3c16.2,16.2,30.9,33.8,43.7,52.7c12.8,18.9,23.7,39.1,32.5,60.1c8.8,21,15.6,42.9,20.1,65.2
			c4.6,22.3,6.9,45.1,7.1,67.8c0.2,22.8-1.8,45.5-6,67.9c-4.2,22.4-10.6,44.4-19.2,65.5c-8.5,21.2-19.2,41.5-31.7,60.6
			c-12.6,19.1-27.1,36.9-43.2,53.2c-16.1,16.3-33.8,31-52.8,43.9c-19,12.9-39.4,23.8-60.6,32.6c-21.2,8.8-43.4,15.6-66,20
			c-22.6,4.5-45.7,6.6-68.7,6.6c-23,0-46.1-2.3-68.7-6.8c-22.6-4.5-44.7-11.3-65.9-20.2c-21.2-8.9-41.5-19.8-60.5-32.7
			c-19-12.8-36.7-27.5-52.9-43.7c16.2,16.1,34,30.8,53,43.5c19,12.8,39.4,23.6,60.6,32.4c21.2,8.8,43.3,15.5,65.8,20
			c22.5,4.5,45.5,6.7,68.5,6.8c23,0,46-2.2,68.5-6.7c22.5-4.5,44.6-11.2,65.8-20c21.2-8.8,41.5-19.8,60.4-32.6
			c19-12.8,36.6-27.6,52.6-43.8c16.1-16.2,30.6-34,43.1-53c12.6-19,23.2-39.3,31.7-60.4c8.5-21.1,15-43,19.2-65.3
			c4.2-22.3,6.2-45.1,6.1-67.8c-0.1-22.7-2.5-45.4-7-67.7c-4.5-22.3-11.2-44.1-20-65.1c-8.7-21-19.6-41.2-32.3-60.2
			C801.5,313.2,786.9,295.5,770.8,279.3z"/>
	</g>
	<g>
		<path class="st0" d="M890.3,159.8c24,23.9,45.6,50.1,64.5,78.2c18.9,28.1,34.9,58,47.8,89.1c12.9,31.2,22.8,63.5,29.5,96.6
			c6.6,33,10,66.7,10.1,100.4c0.1,33.7-3,67.4-9.4,100.5c-6.4,33.1-16.1,65.6-28.8,96.8c-12.7,31.3-28.5,61.3-47.2,89.5
			c-18.6,28.2-40.1,54.6-64,78.7c-23.8,24.1-50,46-78.1,65c-28.1,19.1-58.2,35.3-89.6,48.5c-31.4,13.2-64.1,23.3-97.5,30
			c-33.4,6.8-67.5,10.2-101.6,10.3c-34.1,0.1-68.2-3.1-101.7-9.7c-33.4-6.6-66.2-16.5-97.6-29.5c-31.4-13-61.6-29.1-89.8-48
			c-28.2-18.9-54.5-40.6-78.4-64.6c24,23.9,50.3,45.6,78.5,64.4c28.2,18.8,58.4,34.9,89.8,47.8c31.4,13,64.2,22.8,97.6,29.4
			c33.4,6.6,67.5,9.7,101.5,9.6c34.1-0.1,68.1-3.6,101.4-10.3c33.4-6.8,66-16.9,97.3-30.1c31.3-13.2,61.3-29.4,89.4-48.5
			c28.1-19,54.2-40.9,77.9-65c23.8-24,45.3-50.4,63.9-78.5c18.6-28.1,34.5-58.1,47.2-89.3c12.7-31.2,22.4-63.6,28.8-96.6
			c6.4-33,9.5-66.7,9.5-100.3c-0.1-33.6-3.4-67.3-10-100.3c-6.6-33-16.4-65.4-29.3-96.5c-12.9-31.2-28.8-61.1-47.6-89.2
			C935.8,210.1,914.2,183.8,890.3,159.8z"/>
	</g>
	<g>
		<path class="st0" d="M823.9,226.2c19.7,19.6,37.4,41.1,52.9,64.1c15.5,23,28.7,47.5,39.3,73c10.7,25.5,18.8,52.1,24.3,79.2
			c5.5,27.1,8.3,54.7,8.4,82.3c0.2,27.6-2.3,55.2-7.5,82.4c-5.2,27.1-13,53.8-23.4,79.4c-10.4,25.6-23.3,50.3-38.6,73.4
			c-15.3,23.1-32.9,44.8-52.4,64.5c-19.5,19.8-41,37.7-64.1,53.3c-23.1,15.6-47.7,28.9-73.5,39.7c-25.8,10.8-52.6,19-80,24.5
			c-27.4,5.5-55.4,8.2-83.3,8.2c-28,0-55.9-2.7-83.3-8.1c-27.4-5.4-54.3-13.6-80-24.3c-25.8-10.7-50.4-24-73.5-39.5
			c-23.1-15.5-44.6-33.4-64.2-53c19.7,19.6,41.2,37.4,64.3,52.8c23.1,15.5,47.8,28.6,73.6,39.3c25.8,10.6,52.6,18.8,79.9,24.2
			c27.4,5.4,55.3,8.1,83.2,8c27.9,0,55.8-2.8,83.2-8.3c27.3-5.5,54.1-13.7,79.8-24.5c25.7-10.8,50.3-24.1,73.3-39.7
			c23-15.6,44.4-33.5,63.9-53.2c19.5-19.7,37.1-41.3,52.4-64.3c15.3-23.1,28.2-47.7,38.6-73.2c10.4-25.6,18.3-52.2,23.5-79.3
			c5.2-27.1,7.7-54.7,7.6-82.2c-0.1-27.6-2.9-55.1-8.3-82.2c-5.4-27-13.6-53.6-24.2-79.1c-10.6-25.5-23.7-50-39.1-73
			C861.2,267.4,843.5,245.9,823.9,226.2z"/>
	</g>
	<g>
		<path class="st0" d="M757.5,292.6c15.3,15.3,29.2,32,41.3,49.9c12.1,17.9,22.4,37,30.8,56.9c8.4,19.9,14.8,40.6,19.1,61.7
			c4.3,21.1,6.6,42.6,6.8,64.2c0.2,21.5-1.7,43.1-5.6,64.3c-4,21.2-10,42-18.1,62c-8.1,20-18.1,39.3-30,57.3
			c-11.9,18.1-25.6,35-40.9,50.4c-15.3,15.4-32,29.4-50,41.6c-18,12.2-37.3,22.5-57.4,30.9c-20.1,8.3-41.1,14.7-62.5,18.9
			c-21.4,4.2-43.2,6.2-65,6.2c-21.8-0.1-43.6-2.2-65-6.5c-21.4-4.3-42.3-10.7-62.4-19.1c-20.1-8.4-39.3-18.8-57.3-31
			c-18-12.2-34.7-26.1-50-41.4c15.3,15.3,32.1,29.1,50.2,41.2c18,12.1,37.3,22.4,57.3,30.7c20.1,8.3,41,14.7,62.3,19
			c21.3,4.3,43.1,6.4,64.9,6.4c21.8,0,43.5-2,64.9-6.2c21.3-4.2,42.2-10.6,62.3-18.9c20.1-8.3,39.3-18.7,57.2-30.9
			c17.9-12.2,34.6-26.1,49.8-41.5c15.2-15.4,28.9-32.2,40.8-50.2c11.9-18,21.9-37.2,30-57.2c8.1-20,14.2-40.7,18.1-61.9
			c4-21.1,5.9-42.7,5.7-64.2c-0.2-21.5-2.4-43-6.7-64.1c-4.3-21.1-10.7-41.8-19-61.6c-8.3-19.9-18.5-39-30.6-56.9
			C786.6,324.7,772.8,307.9,757.5,292.6z"/>
	</g>
	<g>
		<path class="st0" d="M691.1,359c22.1,21.9,40,48,52.1,76.5c12.2,28.5,18.6,59.4,19,90.4c0.5,31-5,62-16.5,90.9
			c-5.7,14.4-12.9,28.3-21.4,41.3c-8.5,13-18.4,25.1-29.3,36.2c-11,11.1-23,21.1-36,29.8c-13,8.7-26.8,16.1-41.3,22.1
			c-29,11.9-60.4,17.8-91.7,17.5c-31.3-0.2-62.6-6.7-91.4-18.9c-28.8-12.2-55-30.2-76.9-52.2c22,22,48.3,39.8,77.1,51.8
			c28.8,12.1,60,18.5,91.2,18.7c31.2,0.3,62.6-5.6,91.4-17.6c14.4-5.9,28.2-13.3,41.1-22c12.9-8.7,24.9-18.7,35.8-29.8
			c10.9-11,20.8-23.1,29.3-36c8.5-12.9,15.7-26.7,21.4-41.1c11.5-28.7,17.1-59.7,16.6-90.5c-0.3-30.9-6.7-61.7-18.8-90.2
			C730.8,407.2,713.1,381,691.1,359z"/>
	</g>
	<g>
		<path class="st0" d="M846,204.1c21.1,21,40.2,44.1,56.8,68.8c16.6,24.7,30.7,51,42.2,78.4c11.4,27.4,20.1,55.9,26,85
			c5.9,29.1,8.8,58.7,9,88.3c0.1,29.6-2.6,59.3-8.1,88.4c-5.6,29.1-14,57.7-25.2,85.2c-11.2,27.5-25.1,54-41.5,78.8
			c-16.4,24.8-35.3,48-56.3,69.3c-21,21.2-44,40.4-68.8,57.2c-24.7,16.8-51.2,31.1-78.8,42.6c-27.6,11.6-56.4,20.4-85.8,26.3
			c-29.4,5.9-59.4,8.9-89.4,8.9c-30,0.1-60-2.8-89.4-8.6c-29.4-5.8-58.2-14.6-85.9-26c-27.7-11.5-54.1-25.7-78.9-42.3
			c-24.8-16.7-47.9-35.8-68.9-56.9c21.1,21,44.2,40.1,69.1,56.7c24.8,16.6,51.3,30.7,79,42.1c27.6,11.4,56.4,20.1,85.8,25.9
			c29.4,5.8,59.4,8.6,89.3,8.5c30-0.1,59.9-3.1,89.3-9c29.4-5.9,58.1-14.8,85.7-26.3c27.6-11.6,54-25.8,78.7-42.6
			c24.7-16.8,47.7-36,68.6-57.1c20.9-21.2,39.8-44.3,56.2-69.1c16.4-24.8,30.3-51.1,41.5-78.6c11.2-27.5,19.7-56,25.3-85.1
			c5.6-29.1,8.3-58.7,8.2-88.3c-0.1-29.6-3-59.2-8.9-88.2c-5.8-29-14.5-57.5-25.9-84.9c-11.3-27.4-25.4-53.7-41.9-78.4
			C886.1,248.3,867.1,225.2,846,204.1z"/>
	</g>
	<g>
		<path class="st0" d="M779.6,270.5c16.8,16.7,32,35,45.2,54.6c13.2,19.6,24.5,40.5,33.6,62.3c9.1,21.8,16.1,44.4,20.8,67.5
			c4.7,23.1,7.1,46.7,7.3,70.2c0.2,23.6-1.9,47.2-6.3,70.3c-4.4,23.2-11,45.9-19.9,67.8c-8.8,21.9-19.8,42.9-32.9,62.7
			c-13,19.8-28,38.2-44.7,55.1c-16.7,16.9-35,32.2-54.7,45.5c-19.7,13.3-40.8,24.7-62.8,33.8c-22,9.1-44.9,16.1-68.3,20.8
			c-23.4,4.6-47.3,6.9-71.1,6.9c-23.9,0-47.7-2.4-71.1-7.1c-23.4-4.7-46.3-11.7-68.3-20.8c-22-9.2-43-20.5-62.7-33.8
			c-19.7-13.3-38-28.5-54.8-45.3c16.8,16.7,35.2,31.9,54.9,45.1c19.7,13.2,40.8,24.5,62.8,33.6c22,9.1,44.8,16.1,68.2,20.7
			c23.4,4.6,47.2,7,71,7c23.8,0,47.6-2.3,71-6.9c23.3-4.6,46.2-11.6,68.1-20.8c21.9-9.1,42.9-20.5,62.6-33.8
			c19.6-13.3,37.9-28.6,54.5-45.4c16.6-16.8,31.7-35.2,44.7-54.9c13-19.7,24-40.7,32.9-62.5c8.8-21.8,15.5-44.5,19.9-67.7
			c4.4-23.1,6.5-46.7,6.3-70.2c-0.1-23.5-2.5-47-7.2-70.1c-4.7-23.1-11.6-45.7-20.7-67.5c-9-21.8-20.2-42.7-33.4-62.3
			C811.5,305.6,796.4,287.3,779.6,270.5z"/>
	</g>
	<g>
		<path class="st0" d="M713.3,336.8c12.5,12.4,23.8,26,33.6,40.5c9.9,14.5,18.3,30,25.1,46.1c13.7,32.3,20.9,67.2,21.3,102.2
			c0.5,35-5.9,70.1-18.9,102.7c-6.5,16.3-14.6,31.9-24.3,46.6c-9.6,14.7-20.8,28.4-33.2,41c-12.4,12.5-26,23.9-40.6,33.7
			c-14.6,9.9-30.3,18.3-46.7,25c-16.4,6.7-33.4,11.8-50.8,15.2c-17.4,3.3-35.1,4.9-52.8,4.8c-35.4-0.2-70.8-7.4-103.4-21.1
			c-16.3-6.9-31.9-15.3-46.5-25.3c-14.6-9.9-28.2-21.2-40.6-33.7c12.5,12.4,26.1,23.7,40.7,33.5c14.6,9.8,30.2,18.2,46.5,25
			c16.3,6.8,33.2,12,50.6,15.5c17.3,3.5,35,5.3,52.7,5.4c17.7,0.1,35.4-1.5,52.7-4.9c17.3-3.4,34.3-8.5,50.6-15.2
			c16.3-6.7,31.9-15.1,46.5-25c14.6-9.9,28.1-21.2,40.5-33.7c12.4-12.5,23.5-26.1,33.1-40.8c9.6-14.6,17.8-30.2,24.3-46.4
			c13-32.5,19.4-67.5,19-102.4c-0.3-34.9-7.5-69.8-21.1-102c-6.8-16.1-15.1-31.6-24.9-46.2C736.9,362.9,725.7,349.3,713.3,336.8z"/>
	</g>
	<g>
		<path class="st0" d="M868.1,182c22.5,22.5,42.9,47.1,60.6,73.5c17.7,26.4,32.8,54.5,45,83.7c12.2,29.3,21.5,59.7,27.7,90.8
			c6.2,31.1,9.4,62.7,9.5,94.4c0.1,31.7-2.8,63.3-8.8,94.4c-6,31.1-15.1,61.6-27,91c-11.9,29.4-26.8,57.6-44.3,84.1
			c-17.5,26.5-37.7,51.3-60.1,74c-22.4,22.7-47,43.2-73.4,61.1c-26.4,17.9-54.7,33.2-84.2,45.6c-29.5,12.4-60.3,21.8-91.7,28.2
			c-31.4,6.3-63.5,9.5-95.5,9.6c-32,0.1-64.1-2.9-95.5-9.2c-31.4-6.2-62.2-15.5-91.8-27.8c-29.6-12.2-57.9-27.4-84.4-45.2
			c-26.5-17.8-51.2-38.2-73.7-60.7c22.5,22.5,47.3,42.8,73.8,60.5c26.5,17.7,54.9,32.8,84.4,44.9c29.5,12.2,60.3,21.5,91.7,27.6
			c31.4,6.2,63.4,9.2,95.4,9.1c32-0.1,64-3.3,95.4-9.7c31.4-6.3,62-15.8,91.5-28.2c29.5-12.4,57.6-27.6,84-45.5
			c26.4-17.9,50.9-38.4,73.2-61c22.4-22.6,42.5-47.3,60.1-73.8c17.5-26.5,32.4-54.6,44.3-84c12-29.3,21.1-59.8,27.1-90.8
			c6-31.1,8.9-62.7,8.8-94.3c-0.1-31.6-3.2-63.2-9.4-94.3c-6.2-31-15.5-61.4-27.6-90.7c-12.1-29.3-27.1-57.4-44.7-83.8
			C910.9,229.2,890.6,204.5,868.1,182z"/>
	</g>
	<g>
		<path class="st0" d="M801.8,248.3c18.2,18.2,34.7,38,49.1,59.3c14.4,21.3,26.6,44,36.5,67.6c9.9,23.6,17.5,48.2,22.5,73.3
			c5.1,25.1,7.7,50.7,7.9,76.3c0.2,25.6-2.1,51.2-6.9,76.4c-4.8,25.2-12,49.9-21.7,73.6c-9.6,23.8-21.6,46.6-35.7,68.1
			c-14.1,21.5-30.5,41.5-48.6,59.8c-18.1,18.3-38,34.9-59.4,49.4c-21.4,14.5-44.2,26.8-68.1,36.7c-23.9,10-48.8,17.6-74.2,22.6
			c-25.4,5.1-51.3,7.6-77.2,7.6c-25.9,0-51.8-2.5-77.2-7.6c-25.4-5.1-50.3-12.6-74.1-22.6c-23.9-9.9-46.7-22.2-68.1-36.7
			c-21.4-14.4-41.3-30.9-59.5-49.1c18.2,18.2,38.2,34.6,59.6,48.9c21.4,14.3,44.3,26.6,68.2,36.4c23.9,9.9,48.7,17.4,74.1,22.5
			c25.4,5,51.2,7.5,77.1,7.5c25.9,0,51.7-2.5,77.1-7.6c25.3-5.1,50.2-12.7,74-22.6c23.8-9.9,46.6-22.3,67.9-36.7
			c21.3-14.5,41.1-31,59.2-49.3c18.1-18.3,34.4-38.2,48.5-59.6c14.1-21.4,26.1-44.2,35.7-67.9c9.6-23.7,16.9-48.3,21.7-73.5
			c4.8-25.1,7.1-50.7,7-76.2c-0.1-25.5-2.7-51.1-7.8-76.2c-5.1-25.1-12.6-49.6-22.4-73.3c-9.8-23.6-22-46.4-36.2-67.7
			C836.3,286.5,819.9,266.6,801.8,248.3z"/>
	</g>
	<g>
		<path class="st0" d="M735.4,314.7c13.9,13.8,26.6,28.9,37.6,45.1c11,16.2,20.5,33.5,28.1,51.5c15.3,36,23.4,75,23.8,114.1
			c0.5,39.1-6.7,78.3-21.3,114.7c-7.3,18.2-16.4,35.7-27.2,52.1c-10.8,16.4-23.2,31.7-37.1,45.8c-13.8,14-29.1,26.7-45.4,37.7
			c-16.4,11-33.8,20.4-52.1,28c-18.3,7.6-37.3,13.3-56.7,17.1c-19.4,3.8-39.2,5.6-59,5.5c-19.8-0.1-39.6-2.1-58.9-6.1
			c-19.4-4-38.3-9.8-56.5-17.5c-18.2-7.7-35.6-17.2-51.9-28.2c-16.3-11.1-31.4-23.7-45.2-37.7c13.9,13.8,29.2,26.3,45.5,37.3
			c16.3,10.9,33.8,20.2,52,27.7c18.2,7.5,37.1,13.3,56.4,17.2c19.3,3.9,39,5.8,58.7,5.8c19.7,0,39.4-1.8,58.7-5.6
			c19.3-3.8,38.2-9.5,56.4-17.1c18.1-7.5,35.5-16.9,51.7-27.9c16.2-11,31.3-23.6,45.1-37.5c13.8-13.9,26.2-29.1,36.9-45.4
			c10.7-16.3,19.8-33.6,27.1-51.7c7.3-18.1,12.8-36.8,16.3-56c3.6-19.1,5.3-38.6,5.1-58c-0.1-19.5-2.1-38.9-6-58
			c-3.9-19.1-9.6-37.8-17.1-55.8c-7.5-18-16.7-35.3-27.6-51.6C761.7,343.9,749.2,328.7,735.4,314.7z"/>
	</g>
	<g>
		<path class="st0" d="M854.9,195.2c21.7,21.6,41.3,45.3,58.3,70.6c17.1,25.3,31.6,52.4,43.3,80.5c11.7,28.2,20.7,57.4,26.7,87.3
			c6,29.9,9.1,60.3,9.2,90.7c0.1,30.4-2.6,60.9-8.4,90.8c-5.7,29.9-14.4,59.3-25.9,87.5c-11.5,28.3-25.8,55.4-42.6,80.9
			c-16.8,25.5-36.3,49.4-57.8,71.1c-21.5,21.8-45.2,41.5-70.6,58.8c-25.4,17.2-52.6,31.9-81,43.8c-28.4,11.9-58,21-88.2,27.1
			c-30.2,6.1-61,9.1-91.8,9.2c-30.8,0.1-61.7-2.9-91.9-8.8c-30.2-6-59.8-14.9-88.2-26.7c-28.4-11.8-55.6-26.4-81.1-43.5
			c-25.5-17.1-49.2-36.8-70.8-58.4c21.7,21.6,45.4,41.2,71,58.2c25.5,17,52.7,31.5,81.2,43.2c28.4,11.7,58,20.7,88.2,26.6
			c30.2,5.9,61,8.8,91.8,8.7c30.8-0.1,61.5-3.2,91.7-9.3c30.2-6.1,59.7-15.2,88-27.1c28.3-11.9,55.4-26.6,80.8-43.8
			c25.4-17.2,49-36.9,70.4-58.7c21.5-21.7,40.9-45.5,57.7-71c16.8-25.4,31.1-52.5,42.6-80.7c11.5-28.2,20.2-57.5,26-87.4
			c5.8-29.9,8.6-60.3,8.5-90.7c-0.1-30.4-3.1-60.8-9.1-90.6c-6-29.8-14.9-59.1-26.6-87.2c-11.6-28.2-26.1-55.2-43-80.6
			C896,240.6,876.5,216.9,854.9,195.2z"/>
	</g>
	<g>
		<path class="st0" d="M788.5,261.6c17.4,17.3,33.1,36.2,46.7,56.5c13.7,20.3,25.3,41.9,34.8,64.4c9.4,22.5,16.6,46,21.5,69.8
			c4.9,23.9,7.4,48.3,7.5,72.6c0.2,24.4-2,48.8-6.5,72.7c-4.5,24-11.4,47.5-20.6,70.1c-9.1,22.6-20.5,44.4-34,64.9
			c-13.5,20.4-29,39.5-46.3,57c-17.3,17.4-36.2,33.3-56.6,47c-20.4,13.8-42.2,25.5-64.9,35c-22.7,9.5-46.5,16.7-70.7,21.5
			c-24.2,4.8-48.9,7.2-73.6,7.1c-24.7,0-49.4-2.4-73.5-7.3c-24.2-4.8-47.9-12.1-70.6-21.5c-22.7-9.5-44.5-21.2-64.9-34.9
			c-20.4-13.7-39.3-29.5-56.6-46.8c17.4,17.3,36.4,33,56.8,46.6c20.4,13.7,42.2,25.3,64.9,34.7c22.7,9.4,46.4,16.6,70.5,21.4
			c24.2,4.8,48.8,7.2,73.4,7.2c24.6,0,49.3-2.4,73.4-7.2c24.1-4.8,47.8-12.1,70.5-21.5c22.7-9.5,44.4-21.2,64.7-35
			c20.3-13.8,39.2-29.6,56.4-47c17.2-17.4,32.7-36.4,46.2-56.8c13.5-20.4,24.9-42.1,34-64.7c9.2-22.6,16.1-46.1,20.6-70
			c4.6-23.9,6.7-48.3,6.6-72.6c-0.1-24.3-2.6-48.7-7.4-72.5c-4.8-23.9-12-47.3-21.4-69.8c-9.4-22.5-20.9-44.1-34.5-64.5
			C821.4,298,805.8,279,788.5,261.6z"/>
	</g>
	<g>
		<path class="st0" d="M722.1,328c13,13,24.9,27.2,35.2,42.4c10.3,15.2,19.1,31.4,26.3,48.3c14.3,33.8,21.8,70.3,22.2,106.9
			c0.2,18.3-1.3,36.6-4.6,54.7c-3.3,18-8.4,35.7-15.2,52.8c-6.8,17-15.3,33.4-25.4,48.8c-10.1,15.4-21.8,29.7-34.7,42.8
			c-13,13.1-27.2,25-42.5,35.3c-15.3,10.3-31.7,19.1-48.8,26.2c-17.1,7.1-34.9,12.4-53.1,15.9c-18.2,3.5-36.8,5.2-55.3,5.1
			c-18.5-0.1-37.1-2-55.2-5.7c-18.2-3.7-35.9-9.2-53-16.4c-17-7.2-33.4-16-48.6-26.4c-15.3-10.4-29.5-22.2-42.5-35.2
			c13,13,27.3,24.8,42.6,35c15.3,10.3,31.6,19.1,48.7,26.2c17,7.1,34.8,12.6,52.9,16.2c18.1,3.7,36.6,5.5,55.1,5.6
			c18.5,0.1,37-1.6,55.1-5.2c18.1-3.5,35.9-8.9,53-16c17.1-7.1,33.4-15.8,48.6-26.2c15.3-10.3,29.4-22.2,42.3-35.2
			c12.9-13.1,24.6-27.3,34.7-42.6c10.1-15.3,18.6-31.6,25.4-48.6c13.7-33.9,20.4-70.6,20-107.1c-0.2-18.3-2.1-36.5-5.8-54.4
			c-3.7-17.9-9.1-35.5-16.2-52.3c-7.1-16.9-15.8-33.1-26-48.3C746.8,355.3,735.1,341,722.1,328z"/>
	</g>
	<g>
		<path class="st0" d="M877,173.1c23.1,23.1,44,48.3,62.2,75.4c18.2,27,33.6,55.9,46.1,85.9c12.5,30,22,61.3,28.4,93.1
			c6.4,31.8,9.6,64.3,9.7,96.8c0.1,32.5-2.9,65-9,96.9c-6.1,31.9-15.5,63.2-27.7,93.3c-12.2,30.1-27.5,59.1-45.5,86.3
			c-18,27.2-38.7,52.6-61.6,75.9c-23,23.2-48.2,44.3-75.3,62.7c-27.1,18.4-56.1,34.1-86.4,46.7c-30.3,12.7-61.8,22.4-94,28.9
			c-32.2,6.5-65.1,9.8-97.9,9.9c-32.9,0.1-65.8-3-98-9.4c-32.2-6.3-63.8-15.9-94.1-28.5c-30.3-12.5-59.3-28.1-86.5-46.3
			c-27.2-18.2-52.5-39.2-75.5-62.3c23.1,23.1,48.5,43.9,75.7,62.1c27.2,18.2,56.3,33.6,86.6,46.1c30.3,12.5,61.8,22,94,28.3
			c32.2,6.3,65,9.4,97.9,9.3c32.8-0.1,65.6-3.4,97.8-9.9c32.2-6.5,63.6-16.3,93.8-28.9c30.2-12.7,59.1-28.3,86.2-46.7
			c27-18.4,52.2-39.4,75.1-62.6c22.9-23.2,43.6-48.5,61.6-75.7c18-27.1,33.2-56,45.5-86.1c12.3-30.1,21.6-61.3,27.8-93.2
			c6.2-31.8,9.2-64.3,9.1-96.7c-0.1-32.4-3.3-64.9-9.6-96.7c-6.3-31.8-15.9-63-28.3-93c-12.4-30-27.8-58.9-45.9-85.9
			C920.9,221.5,900,196.2,877,173.1z"/>
	</g>
	<g>
		<path class="st0" d="M810.6,239.5c18.8,18.7,35.8,39.3,50.6,61.2c14.8,22,27.4,45.4,37.6,69.8c10.2,24.4,18,49.8,23.2,75.7
			c5.2,25.9,7.9,52.3,8.1,78.7c0.2,26.4-2.2,52.8-7.1,78.8c-4.9,26-12.4,51.4-22.4,75.9c-9.9,24.5-22.3,48.1-36.9,70.2
			c-14.6,22.1-31.4,42.8-50.1,61.7c-18.7,18.9-39.2,36-61.3,50.9c-22.1,14.9-45.6,27.7-70.3,37.9c-24.6,10.3-50.3,18.1-76.5,23.3
			c-26.2,5.2-52.9,7.8-79.7,7.8c-26.7,0-53.5-2.6-79.7-7.8c-26.2-5.2-51.9-13-76.5-23.3c-24.6-10.2-48.2-22.9-70.3-37.8
			c-22.1-14.9-42.6-31.9-61.4-50.7c18.8,18.7,39.4,35.7,61.5,50.5c22.1,14.8,45.7,27.4,70.3,37.5c24.6,10.2,50.2,18,76.4,23.1
			c26.2,5.2,52.9,7.7,79.5,7.7c26.7,0,53.4-2.6,79.5-7.9c26.1-5.2,51.8-13.1,76.3-23.4c24.6-10.3,48.1-23,70.1-37.9
			c22-14.9,42.4-32,61.1-50.9c18.6-18.8,35.5-39.5,50-61.5c14.6-22.1,26.9-45.6,36.9-70c9.9-24.5,17.5-49.9,22.4-75.8
			c5-25.9,7.3-52.3,7.2-78.6c-0.1-26.4-2.8-52.7-8-78.6c-5.2-25.9-13-51.2-23.1-75.6c-10.1-24.4-22.6-47.8-37.4-69.8
			C846.3,278.9,829.4,258.3,810.6,239.5z"/>
	</g>
	<g>
		<path class="st0" d="M744.2,305.9c14.5,14.4,27.6,30.2,39,47.1c11.4,16.9,21.2,34.9,29.1,53.7c15.8,37.5,24.1,78.1,24.5,118.8
			c0.2,20.3-1.5,40.7-5.3,60.7c-3.7,20-9.4,39.6-17,58.6c-7.6,18.9-17.1,37.1-28.3,54.1c-11.2,17.1-24.2,33-38.6,47.6
			c-14.4,14.6-30.2,27.7-47.2,39.2c-17,11.5-35.2,21.3-54.2,29.1c-19,7.9-38.8,13.8-59,17.8c-20.2,4-40.8,5.8-61.4,5.8
			c-20.6-0.1-41.2-2.1-61.3-6.2c-20.2-4.1-39.9-10.1-58.9-18.1c-18.9-7.9-37.1-17.8-54-29.2c-17-11.5-32.8-24.6-47.2-39.1
			c14.5,14.4,30.3,27.5,47.3,38.9c17,11.4,35.2,21.1,54.1,29c18.9,7.9,38.7,13.9,58.8,18c20.1,4,40.7,6.1,61.2,6.1
			c20.5,0,41.1-1.9,61.2-5.8c20.1-4,39.9-10,58.8-17.8c18.9-7.9,37-17.6,54-29.1c16.9-11.5,32.7-24.6,47-39.2
			c14.4-14.5,27.3-30.4,38.5-47.4c11.2-17,20.7-35.1,28.3-53.9c7.6-18.8,13.3-38.4,17.1-58.4c3.7-19.9,5.5-40.3,5.3-60.5
			c-0.2-20.3-2.3-40.6-6.3-60.5c-4.1-19.9-10.1-39.4-17.9-58.2c-7.8-18.8-17.5-36.8-28.9-53.7C771.7,336.2,758.7,320.4,744.2,305.9z
			"/>
	</g>
	<g>
		<path class="st0" d="M832.7,217.4c20.3,20.2,38.6,42.2,54.6,65.9c16,23.6,29.6,48.8,40.6,75.1c11,26.3,19.4,53.6,25.1,81.5
			c5.7,27.9,8.6,56.3,8.7,84.8c0.2,28.4-2.4,56.9-7.7,84.9c-5.3,28-13.5,55.4-24.2,81.8c-10.7,26.4-24,51.8-39.8,75.7
			c-15.7,23.8-33.9,46.1-54,66.5c-20.1,20.4-42.3,38.8-66,54.9c-23.8,16.1-49.2,29.8-75.7,40.9c-26.5,11.1-54.2,19.6-82.4,25.2
			c-28.2,5.7-57,8.5-85.9,8.5c-28.8,0-57.6-2.8-85.8-8.4c-28.2-5.6-55.9-14.1-82.4-25.1c-26.5-11.1-51.9-24.7-75.7-40.8
			c-23.8-16-45.9-34.4-66-54.7c20.3,20.1,42.5,38.4,66.3,54.3c23.8,15.9,49.2,29.4,75.8,40.3c26.5,10.9,54.1,19.3,82.3,24.8
			c28.2,5.5,56.9,8.2,85.6,8.1c28.7-0.1,57.4-3,85.5-8.6c28.1-5.7,55.6-14.1,82.1-25.2c26.4-11.1,51.7-24.7,75.3-40.8
			c23.6-16,45.6-34.4,65.7-54.7c20.1-20.3,38.1-42.4,53.8-66.2c15.7-23.7,29-49,39.7-75.3c10.7-26.3,18.8-53.6,24.2-81.5
			c5.3-27.9,8-56.2,7.9-84.6c-0.1-28.4-2.9-56.7-8.4-84.5c-5.5-27.8-13.9-55.1-24.7-81.4c-10.8-26.3-24.3-51.5-40.1-75.2
			C871.1,259.8,852.9,237.6,832.7,217.4z"/>
	</g>
	<g>
		<path class="st0" d="M766.4,283.7c15.9,15.8,30.4,33.2,43,51.7c12.6,18.6,23.4,38.4,32.1,59c8.7,20.6,15.4,42.1,19.9,64.1
			c4.5,21.9,6.9,44.3,7.1,66.7c0.5,44.8-7.9,89.6-24.7,131.2c-8.4,20.8-18.8,40.8-31.2,59.6c-12.4,18.8-26.6,36.3-42.5,52.4
			c-15.8,16-33.3,30.5-52,43.2c-18.7,12.7-38.7,23.4-59.6,32.1c-41.8,17.4-87.2,26.4-132.5,26.1c-22.7-0.1-45.3-2.4-67.5-6.8
			c-22.2-4.5-43.9-11.2-64.8-19.9c-20.8-8.8-40.8-19.6-59.4-32.2c-18.7-12.6-36-27.1-51.9-43.1c16,15.8,33.4,30.2,52.1,42.7
			c18.7,12.5,38.7,23.1,59.5,31.7c20.8,8.6,42.5,15.2,64.6,19.6c22.1,4.4,44.7,6.6,67.3,6.5c22.6,0,45.1-2.2,67.2-6.6
			c22.1-4.4,43.8-11,64.5-19.6c20.8-8.6,40.7-19.4,59.3-32c18.6-12.6,35.9-27.1,51.6-43c15.8-15.9,30-33.3,42.3-52
			c12.3-18.7,22.7-38.5,31.1-59.2c8.4-20.7,14.7-42.2,18.8-64.1c4.1-21.9,6.1-44.2,6-66.5c-0.1-22.3-2.4-44.6-6.8-66.4
			c-4.4-21.9-11-43.3-19.6-63.9c-8.5-20.6-19.1-40.5-31.6-59.1C796.5,317.1,782.2,299.7,766.4,283.7z"/>
	</g>
	<g>
		<path class="st0" d="M700,350.1c23.2,23.1,42,50.5,54.8,80.6c12.8,30,19.5,62.5,19.9,95.1c0.5,32.6-5.4,65.3-17.5,95.6
			c-6,15.2-13.6,29.7-22.6,43.4c-9,13.7-19.3,26.5-30.9,38.1c-11.5,11.7-24.2,22.2-37.8,31.4c-13.6,9.2-28.2,17-43.5,23.2
			C592,770.1,558.9,776.3,526,776c-33-0.2-65.9-7-96.2-19.8c-15.2-6.4-29.7-14.3-43.2-23.5c-13.6-9.2-26.2-19.8-37.8-31.4
			c11.6,11.5,24.3,22,37.9,31.2c13.6,9.2,28.1,17,43.3,23.3c15.1,6.3,30.9,11.2,47,14.5c16.1,3.3,32.5,5,49,5.1
			c32.9,0.2,65.8-6,96.2-18.6c15.2-6.2,29.7-14,43.3-23.2c13.6-9.2,26.2-19.7,37.6-31.3c11.5-11.6,21.9-24.3,30.8-37.9
			c9-13.6,16.5-28.1,22.6-43.2c12.1-30.2,18-62.8,17.6-95.3c-0.3-32.5-7-64.9-19.7-94.9C741.7,400.8,723.1,373.3,700,350.1z"/>
	</g>
	<g>
		<path class="st0" d="M885.8,164.3c23.7,23.6,45.1,49.5,63.7,77.2c18.6,27.7,34.5,57.3,47.3,88c12.8,30.8,22.6,62.8,29.1,95.4
			c6.5,32.6,9.8,65.9,10,99.2c0.1,33.3-3,66.6-9.3,99.3c-6.3,32.7-15.9,64.8-28.4,95.7c-12.6,30.9-28.2,60.6-46.6,88.4
			c-18.4,27.9-39.6,53.9-63.2,77.8c-23.5,23.8-49.4,45.4-77.2,64.2c-27.8,18.8-57.5,34.9-88.5,47.9c-31,13-63.3,23-96.3,29.7
			c-33,6.7-66.7,10-100.4,10.1c-33.7,0.1-67.4-3.1-100.4-9.6c-33-6.5-65.4-16.3-96.5-29.1c-31.1-12.9-60.8-28.8-88.7-47.5
			c-27.9-18.7-53.8-40.2-77.4-63.8c23.7,23.6,49.7,45,77.6,63.6c27.9,18.6,57.7,34.5,88.7,47.2c31.1,12.8,63.4,22.6,96.4,29
			c33,6.5,66.7,9.6,100.3,9.5c33.6-0.1,67.3-3.5,100.2-10.2c33-6.7,65.2-16.7,96.2-29.7c31-13,60.6-29.1,88.3-47.9
			c27.7-18.8,53.5-40.4,77-64.2c23.5-23.8,44.7-49.7,63.1-77.6c18.4-27.8,34-57.4,46.6-88.2c12.6-30.8,22.2-62.8,28.5-95.5
			c6.3-32.6,9.4-65.9,9.3-99.1c-0.1-33.2-3.3-66.5-9.9-99.1c-6.5-32.6-16.2-64.6-29-95.4c-12.7-30.8-28.5-60.3-47-88.1
			C930.8,213.9,909.5,188,885.8,164.3z"/>
	</g>
	<g>
		<path class="st0" d="M819.5,230.6c19.4,19.3,36.9,40.5,52.1,63.1c15.3,22.6,28.2,46.8,38.7,71.9c10.5,25.1,18.5,51.3,23.9,78
			c5.4,26.7,8.2,53.9,8.3,81.1c0.2,27.2-2.3,54.4-7.4,81.2c-5.1,26.7-12.8,53-23.1,78.3c-10.2,25.3-23,49.6-38,72.4
			c-15,22.8-32.4,44.1-51.6,63.6c-19.3,19.5-40.4,37.1-63.1,52.5c-22.7,15.4-47,28.5-72.4,39.1c-25.4,10.6-51.8,18.7-78.8,24.1
			c-27,5.4-54.6,8.1-82.1,8.1c-27.5,0-55.1-2.6-82.1-8c-27-5.4-53.5-13.4-78.8-24c-25.4-10.6-49.7-23.6-72.4-38.9
			c-22.8-15.3-43.9-32.9-63.3-52.2c19.4,19.3,40.6,36.8,63.4,52c22.8,15.2,47.1,28.2,72.5,38.7C390.6,922,417,930,444,935.4
			c27,5.3,54.5,8,82,7.9c27.5,0,55-2.7,81.9-8.2c26.9-5.4,53.3-13.5,78.6-24.1c25.3-10.6,49.6-23.7,72.2-39.1
			c22.7-15.4,43.7-33,62.9-52.4c19.2-19.4,36.6-40.7,51.6-63.4c15-22.7,27.8-47,38-72.2c10.2-25.2,18-51.4,23.1-78.1
			c5.1-26.7,7.6-53.9,7.5-81c-0.1-27.2-2.8-54.3-8.2-81c-5.4-26.7-13.4-52.8-23.8-77.9c-10.4-25.1-23.3-49.3-38.5-72
			C856.2,271.2,838.8,250,819.5,230.6z"/>
	</g>
	<g>
		<path class="st0" d="M753.1,297c15,15,28.7,31.4,40.6,49c11.9,17.6,22,36.3,30.2,55.8c8.2,19.5,14.5,39.8,18.7,60.5
			c4.3,20.7,6.5,41.8,6.6,63c0.2,21.1-1.6,42.3-5.5,63.1c-3.9,20.8-9.8,41.2-17.7,60.9c-7.9,19.7-17.8,38.5-29.4,56.3
			c-11.7,17.7-25.1,34.3-40.1,49.4c-15,15.1-31.4,28.8-49.1,40.8c-17.7,11.9-36.6,22.1-56.3,30.3c-19.7,8.2-40.3,14.4-61.3,18.5
			c-21,4.1-42.4,6.1-63.8,6c-21.4-0.1-42.8-2.2-63.8-6.4c-21-4.2-41.5-10.5-61.2-18.8c-19.7-8.3-38.6-18.4-56.2-30.4
			c-17.7-11.9-34.1-25.6-49.1-40.6c15.1,15,31.5,28.6,49.2,40.4c17.7,11.9,36.6,22,56.3,30.1c19.7,8.2,40.2,14.5,61.1,18.7
			c20.9,4.2,42.3,6.3,63.7,6.3c21.4,0,42.7-2,63.7-6.1c20.9-4.1,41.5-10.4,61.1-18.6c19.7-8.2,38.5-18.3,56.1-30.3
			c17.6-11.9,34-25.6,48.9-40.7c14.9-15.1,28.4-31.6,40-49.3c11.7-17.7,21.5-36.5,29.4-56.1c7.9-19.6,13.9-40,17.8-60.7
			c3.9-20.7,5.8-41.9,5.6-63c-0.2-21.1-2.3-42.2-6.6-62.9c-4.2-20.7-10.5-41-18.6-60.5c-8.1-19.5-18.2-38.3-30-55.9
			C781.6,328.5,768.1,312.1,753.1,297z"/>
	</g>
	<g>
		<path class="st0" d="M841.6,208.5c20.8,20.8,39.6,43.5,56,67.8c16.4,24.3,30.3,50.3,41.6,77.3c11.3,27,19.9,55.1,25.7,83.8
			c5.8,28.7,8.7,57.9,8.9,87.1c0.1,29.2-2.5,58.5-8,87.2c-5.5,28.7-13.8,56.9-24.9,84.1c-11,27.1-24.7,53.2-40.9,77.7
			c-16.2,24.5-34.8,47.4-55.5,68.3c-20.7,20.9-43.4,39.9-67.8,56.4c-24.4,16.5-50.5,30.6-77.8,42c-27.3,11.4-55.7,20.1-84.7,25.9
			c-29,5.8-58.6,8.7-88.2,8.8c-29.6,0.1-59.2-2.8-88.2-8.5c-29-5.7-57.4-14.4-84.7-25.7c-27.3-11.3-53.4-25.3-77.9-41.8
			c-24.5-16.4-47.2-35.3-68-56.1c20.8,20.7,43.6,39.5,68.1,55.9c24.5,16.4,50.6,30.3,77.9,41.5c27.3,11.3,55.7,19.9,84.6,25.6
			c29,5.7,58.5,8.5,88.1,8.4c29.5-0.1,59.1-3,88-8.8c29-5.8,57.3-14.6,84.5-26c27.2-11.4,53.2-25.5,77.6-42
			c24.4-16.5,47-35.5,67.6-56.4c20.7-20.9,39.3-43.7,55.4-68.1c16.2-24.4,29.9-50.4,40.9-77.5c11-27.1,19.4-55.2,24.9-83.9
			c5.5-28.7,8.2-57.9,8.1-87.1c-0.1-29.2-3-58.4-8.8-87c-5.7-28.6-14.3-56.7-25.5-83.7c-11.2-27-25-53-41.3-77.3
			C881.1,252.1,862.3,229.3,841.6,208.5z"/>
	</g>
	<g>
		<path class="st0" d="M775.2,274.9c16.5,16.4,31.4,34.4,44.4,53.7c13,19.3,24.1,39.8,33.1,61.2c9,21.4,15.8,43.7,20.5,66.4
			c4.6,22.7,7,45.9,7.2,69c0.2,23.2-1.9,46.3-6.1,69.1c-4.3,22.8-10.8,45.1-19.5,66.7c-8.7,21.5-19.5,42.2-32.3,61.6
			c-12.8,19.4-27.6,37.6-43.9,54.2c-16.4,16.6-34.4,31.6-53.8,44.7c-19.4,13.1-40.1,24.2-61.7,33.2c-21.6,9-44.1,15.8-67.1,20.4
			c-23,4.6-46.5,6.8-69.9,6.7c-23.5,0-46.9-2.3-69.9-7c-23-4.6-45.5-11.5-67.1-20.5c-21.6-9-42.3-20.2-61.6-33.2
			C308,808,290,793,273.6,776.6c16.5,16.4,34.6,31.3,54,44.3c19.4,13,40.1,24.1,61.7,33c21.6,9,44.1,15.8,67,20.4
			c22.9,4.6,46.4,6.8,69.8,6.9c23.4,0,46.8-2.2,69.8-6.8c22.9-4.6,45.4-11.4,67-20.4c21.6-9,42.2-20.1,61.5-33.2
			c19.3-13.1,37.2-28.1,53.6-44.6c16.4-16.5,31.1-34.6,43.9-54c12.8-19.4,23.6-40,32.3-61.4c8.7-21.5,15.3-43.8,19.6-66.5
			c4.3-22.7,6.4-45.9,6.2-69c-0.1-23.1-2.5-46.2-7.1-68.9c-4.6-22.7-11.4-44.9-20.4-66.3c-8.9-21.4-19.9-41.9-32.8-61.2
			C806.5,309.4,791.7,291.4,775.2,274.9z"/>
	</g>
	<g>
		<path class="st0" d="M708.8,341.3c12.2,12.1,23.2,25.4,32.9,39.6c9.6,14.2,17.9,29.3,24.6,45.1c13.4,31.5,20.5,65.6,20.8,99.8
			c0.5,34.2-5.7,68.5-18.4,100.3c-6.3,15.9-14.3,31.2-23.7,45.6c-9.4,14.4-20.3,27.8-32.4,40c-12.1,12.2-25.4,23.3-39.7,33
			c-14.3,9.6-29.6,17.8-45.6,24.4c-16,6.6-32.6,11.6-49.6,14.8c-17,3.3-34.3,4.8-51.6,4.7c-34.6-0.2-69.2-7.2-101-20.7
			c-15.9-6.7-31.1-15-45.4-24.7c-14.3-9.7-27.5-20.7-39.6-32.9c12.2,12.1,25.5,23.1,39.8,32.7c14.3,9.6,29.5,17.8,45.4,24.4
			c15.9,6.7,32.5,11.8,49.4,15.2c16.9,3.4,34.2,5.2,51.4,5.3c17.3,0.1,34.5-1.5,51.5-4.8c16.9-3.3,33.5-8.3,49.5-14.8
			c15.9-6.6,31.2-14.8,45.4-24.4c14.2-9.6,27.5-20.7,39.5-32.9c12.1-12.2,22.9-25.5,32.4-39.8c9.4-14.3,17.4-29.5,23.7-45.4
			c12.7-31.7,19-65.9,18.6-100c-0.3-34.1-7.3-68.2-20.6-99.7c-6.6-15.8-14.8-30.9-24.3-45.1C731.9,366.7,721,353.5,708.8,341.3z"/>
	</g>
	<g>
		<path class="st0" d="M863.7,186.4c22.3,22.2,42.4,46.4,60,72.5c17.5,26,32.5,53.7,44.5,82.6c12.1,28.9,21.3,59,27.5,89.6
			c6.2,30.7,9.4,61.9,9.5,93.2c0.2,31.3-2.7,62.6-8.6,93.3c-5.9,30.7-14.9,60.9-26.7,89.9c-11.8,29-26.5,57-43.8,83.2
			c-17.3,26.2-37.3,50.7-59.4,73.1c-22.1,22.4-46.5,42.7-72.6,60.4c-26.1,17.7-54.1,32.8-83.2,45c-29.2,12.2-59.6,21.6-90.6,27.8
			c-31,6.3-62.7,9.4-94.4,9.4c-31.7,0-63.3-3-94.4-9.2c-31-6.2-61.5-15.4-90.6-27.5c-29.2-12.1-57.1-27.1-83.2-44.8
			c-26.1-17.6-50.5-37.8-72.6-60.1c22.3,22.2,46.7,42.2,72.9,59.7c26.2,17.5,54.2,32.3,83.3,44.3c29.2,12,59.5,21.1,90.5,27.2
			c31,6.1,62.6,9,94.1,8.9c31.6-0.1,63.1-3.3,94-9.6c30.9-6.3,61.2-15.6,90.2-27.8c29-12.2,56.9-27.3,82.9-44.9
			c26-17.7,50.2-37.9,72.2-60.2c22.1-22.3,42-46.7,59.2-72.8c17.3-26.1,31.9-53.9,43.7-82.8c11.8-28.9,20.8-59,26.7-89.6
			c5.9-30.6,8.8-61.8,8.8-93c-0.1-31.2-3.1-62.4-9.2-93c-6.1-30.6-15.2-60.6-27.1-89.5c-11.9-28.9-26.7-56.7-44-82.7
			C905.9,233,885.9,208.7,863.7,186.4z"/>
	</g>
	<g>
		<path class="st0" d="M797.3,252.8c18,17.9,34.2,37.4,48.4,58.3c14.2,20.9,26.3,43.3,36,66.5c9.8,23.3,17.3,47.5,22.3,72.2
			c5.1,24.7,7.7,49.9,7.9,75.1c0.5,50.4-9.1,101-28.1,147.8c-9.5,23.4-21.3,45.9-35.2,67.1c-13.9,21.1-30,40.9-47.9,59
			c-17.8,18-37.5,34.4-58.5,48.7c-21.1,14.3-43.6,26.4-67.1,36.2c-47,19.6-98.1,29.8-149.2,29.6c-25.5,0-51-2.6-76.1-7.6
			c-25-5-49.5-12.5-73-22.3c-23.5-9.8-46-22-67-36.2c-21-14.2-40.6-30.5-58.5-48.5c18,17.8,37.6,34,58.7,48.1
			c21.1,14.1,43.6,26.1,67.1,35.7c23.5,9.7,47.9,17.1,72.9,22c24.9,4.9,50.4,7.3,75.8,7.3c25.4,0,50.8-2.6,75.8-7.5
			c24.9-5,49.3-12.5,72.7-22.2c23.4-9.8,45.8-21.9,66.8-36.1c21-14.2,40.4-30.5,58.2-48.5c17.8-17.9,33.8-37.6,47.7-58.6
			c13.9-21,25.7-43.4,35.1-66.7c9.5-23.3,16.6-47.5,21.3-72.2c4.7-24.7,7-49.8,6.9-74.9c-0.1-25.1-2.6-50.2-7.6-74.9
			c-4.9-24.6-12.3-48.8-22-72.1c-9.6-23.3-21.5-45.6-35.5-66.6C831.3,290.4,815.2,270.7,797.3,252.8z"/>
	</g>
	<g>
		<path class="st0" d="M731,319.2c13.6,13.6,25.9,28.4,36.7,44.3c10.8,15.9,20,32.8,27.4,50.4c14.9,35.3,22.8,73.4,23.1,111.7
			c0.2,19.1-1.4,38.3-4.9,57.1c-3.5,18.8-8.8,37.3-16,55.1c-7.1,17.8-16,34.9-26.6,50.9c-10.5,16-22.7,31-36.3,44.7
			c-13.5,13.7-28.4,26.1-44.4,36.9c-16,10.8-33.1,20-51,27.3c-17.9,7.4-36.5,13-55.5,16.7c-19,3.7-38.4,5.5-57.7,5.4
			c-19.4-0.1-38.7-2-57.7-5.9c-19-3.8-37.5-9.6-55.3-17c-17.8-7.5-34.8-16.7-50.8-27.5c-16-10.8-30.8-23.2-44.4-36.8
			c13.6,13.6,28.5,25.9,44.5,36.6c16,10.7,33,19.9,50.8,27.3c17.8,7.4,36.3,13.1,55.3,16.9c18.9,3.8,38.2,5.7,57.5,5.8
			c19.3,0.1,38.6-1.7,57.6-5.4c18.9-3.7,37.5-9.3,55.3-16.7c17.8-7.4,34.8-16.5,50.8-27.3c15.9-10.8,30.7-23.2,44.2-36.8
			c13.5-13.6,25.7-28.6,36.2-44.5c10.5-16,19.4-33,26.6-50.7c7.1-17.7,12.5-36.1,16-54.9c3.5-18.8,5.1-37.9,5-56.9
			c-0.2-19.1-2.2-38.1-6-56.8c-3.8-18.7-9.5-37-16.9-54.7c-7.4-17.6-16.5-34.6-27.2-50.5C756.8,347.6,744.5,332.8,731,319.2z"/>
	</g>
	<g>
		<path class="st0" d="M829.1,222.5c-20-19.9-41.8-37.9-65.3-53.6c-23.5-15.7-48.5-29-74.7-39.8c-26.1-10.8-53.3-19.1-81.1-24.5
			c-27.8-5.5-56.1-8.2-84.4-8.1c-28.3,0-56.6,2.8-84.4,8.4c-27.7,5.6-54.9,13.9-81,24.9c-26.1,10.9-51,24.4-74.4,40.3
			c-23.3,15.8-45,34-64.8,54c-19.8,20-37.6,41.9-53.1,65.3c-15.5,23.4-28.6,48.3-39.2,74.3c-10.6,26-18.6,52.9-23.8,80.4
			c-5.3,27.5-7.8,55.5-7.7,83.5c0.1,28,2.9,55.9,8.4,83.4c5.5,27.4,13.7,54.4,24.5,80.2c10.7,25.9,24,50.8,39.6,74.1
			c15.6,23.4,33.6,45.2,53.5,65.1c-19.9-19.9-38-41.7-53.7-65c-15.7-23.3-29.1-48.2-39.9-74.1c-10.8-25.9-19.1-52.8-24.6-80.3
			c-5.6-27.5-8.4-55.5-8.5-83.5c-0.1-28,2.4-56.1,7.6-83.6c5.3-27.5,13.2-54.6,23.8-80.6c10.6-26,23.7-51,39.2-74.5
			c15.5-23.5,33.4-45.4,53.2-65.5c19.8-20,41.6-38.2,65-54.1c23.4-15.9,48.4-29.4,74.6-40.3c26.1-10.9,53.4-19.3,81.2-24.8
			c27.8-5.6,56.2-8.3,84.5-8.4c28.4,0,56.7,2.7,84.5,8.2c27.8,5.5,55,13.8,81.2,24.7c26.1,10.9,51.2,24.3,74.6,40.1
			C787.3,184.5,809.2,202.6,829.1,222.5z"/>
	</g>
	<g>
		<path class="st0" d="M762.7,288.9c-15.6-15.6-32.8-29.7-51.1-42c-18.4-12.3-38-22.8-58.4-31.3c-20.4-8.5-41.7-15-63.5-19.3
			c-21.7-4.3-43.9-6.5-66.1-6.5c-22.2,0-44.4,2.1-66.1,6.4c-21.7,4.3-43,10.8-63.5,19.3c-20.4,8.5-40,19.1-58.3,31.4
			c-18.3,12.4-35.3,26.6-50.8,42.3c-15.5,15.7-29.5,32.8-41.6,51.1c-12.1,18.3-22.4,37.9-30.6,58.2c-8.2,20.3-14.4,41.5-18.5,63
			c-4.1,21.5-6,43.5-5.8,65.4c0.2,21.9,2.4,43.8,6.8,65.3c4.4,21.5,10.9,42.5,19.3,62.8c8.4,20.3,18.9,39.7,31.1,58
			c12.3,18.3,26.3,35.4,41.9,51c-15.6-15.6-29.8-32.6-42.1-50.9c-12.3-18.2-22.9-37.7-31.4-58c-8.5-20.3-15-41.4-19.4-62.9
			c-4.4-21.5-6.7-43.4-6.9-65.4c-0.2-21.9,1.7-43.9,5.8-65.5c4-21.6,10.2-42.8,18.4-63.2c8.2-20.4,18.5-40,30.6-58.4
			c12.1-18.4,26.1-35.6,41.6-51.3c15.5-15.7,32.6-29.9,51-42.3c18.3-12.4,38-23,58.5-31.5c20.5-8.5,41.8-15,63.6-19.3
			c21.8-4.3,44-6.4,66.3-6.3c22.2,0.1,44.4,2.3,66.2,6.6c21.8,4.4,43.1,10.9,63.6,19.5c20.5,8.6,40,19.1,58.4,31.5
			C730,259.1,747.1,273.3,762.7,288.9z"/>
	</g>
	<g>
		<path class="st0" d="M851.2,200.4c-21.4-21.3-44.8-40.6-70-57.5c-25.2-16.8-52-31.1-80.1-42.7c-28-11.6-57.2-20.4-87-26.3
			c-29.8-5.9-60.2-8.7-90.5-8.6c-30.4,0.1-60.7,3.1-90.5,9.1c-29.8,6-58.9,15-86.8,26.7c-28,11.7-54.7,26.2-79.7,43.2
			c-25,17-48.3,36.5-69.5,57.9c-21.2,21.4-40.4,44.9-57,70c-16.6,25.1-30.7,51.8-42,79.7c-11.3,27.8-19.9,56.7-25.6,86.2
			c-5.7,29.5-8.4,59.5-8.3,89.5c0.1,30,3.1,60,9,89.4c5.9,29.4,14.7,58.3,26.2,86.1c11.5,27.8,25.7,54.5,42.5,79.5
			c16.7,25,36,48.4,57.3,69.8c-21.4-21.3-40.7-44.7-57.5-69.7c-16.8-25-31.1-51.7-42.7-79.4c-11.6-27.8-20.4-56.7-26.3-86.1
			c-5.9-29.5-8.9-59.5-9.1-89.5c-0.1-30,2.6-60.1,8.3-89.6c5.7-29.5,14.2-58.5,25.6-86.4c11.3-27.9,25.4-54.7,42-79.9
			c16.6-25.2,35.8-48.7,57-70.2c21.3-21.5,44.6-41,69.7-58c25.1-17,51.9-31.5,79.9-43.2c28-11.7,57.2-20.7,87-26.7
			c29.8-6,60.2-9,90.6-9c30.4-0.1,60.8,2.8,90.7,8.7c29.8,5.9,59,14.8,87.1,26.4c28,11.6,54.9,26,80,42.9
			C806.5,159.7,829.9,179,851.2,200.4z"/>
	</g>
	<g>
		<path class="st0" d="M784.8,266.8c-17.1-17-35.8-32.4-55.8-45.9c-20.1-13.4-41.5-24.9-63.8-34.1c-22.3-9.3-45.6-16.4-69.4-21.1
			c-23.8-4.7-48-7.1-72.2-7.1c-24.2,0-48.5,2.3-72.2,7.1c-23.7,4.7-47,11.8-69.3,21.2c-22.3,9.3-43.7,20.8-63.6,34.4
			c-20,13.5-38.5,29.1-55.4,46.2c-16.9,17.1-32.2,35.8-45.4,55.9c-13.2,20-24.4,41.4-33.4,63.6c-9,22.2-15.8,45.3-20.3,68.8
			c-4.5,23.5-6.6,47.5-6.5,71.4c0.1,23.9,2.6,47.9,7.3,71.3c4.7,23.5,11.8,46.5,21,68.6c9.2,22.1,20.6,43.4,34,63.4
			c13.4,20,28.8,38.6,45.8,55.7c-17.1-17-32.5-35.6-46-55.6c-13.5-19.9-24.9-41.2-34.2-63.3c-9.3-22.1-16.4-45.2-21.2-68.7
			c-4.8-23.5-7.3-47.5-7.4-71.4c-0.2-24,1.9-48,6.4-71.5c4.4-23.6,11.2-46.7,20.2-69c9-22.3,20.2-43.7,33.5-63.8
			c13.2-20.1,28.5-38.9,45.5-56.1c17-17.2,35.6-32.7,55.6-46.3c20-13.6,41.5-25.1,63.8-34.4c22.4-9.3,45.7-16.4,69.5-21.1
			c23.8-4.7,48.1-7,72.3-7c24.3,0,48.5,2.4,72.3,7.2c23.8,4.8,47.1,11.9,69.4,21.2c22.4,9.3,43.8,20.9,63.8,34.4
			C749.1,234.2,767.8,249.7,784.8,266.8z"/>
	</g>
	<g>
		<path class="st0" d="M718.4,333.2c-12.8-12.7-26.7-24.2-41.7-34.3c-15-10.1-30.9-18.6-47.6-25.6c-16.7-7-34-12.3-51.7-15.9
			c-17.7-3.6-35.8-5.4-53.9-5.5c-18.1-0.1-36.2,1.6-53.9,5c-17.7,3.4-35.1,8.7-51.8,15.6c-16.7,6.9-32.6,15.5-47.5,25.6
			c-14.9,10.1-28.8,21.7-41.4,34.5c-12.6,12.8-24,26.7-33.9,41.7c-9.9,15-18.2,30.9-24.9,47.5c-13.4,33.2-19.9,69-19.5,104.7
			c0.3,35.7,7.6,71.4,21.5,104.4c6.9,16.5,15.4,32.4,25.5,47.3c10,14.9,21.5,28.8,34.2,41.6c-12.7-12.7-24.3-26.6-34.4-41.4
			c-10.1-14.9-18.7-30.7-25.7-47.2c-14-33-21.4-68.8-21.7-104.6c-0.5-35.8,6.1-71.7,19.4-105.1c6.7-16.7,15-32.7,24.9-47.7
			c9.9-15,21.3-29.1,33.9-41.9c12.7-12.8,26.6-24.4,41.6-34.5c15-10.1,31-18.7,47.7-25.6c16.7-6.9,34.2-12.1,52-15.6
			c17.8-3.4,35.9-5.1,54.1-5c36.3,0.2,72.5,7.5,105.8,21.6c16.7,7,32.6,15.7,47.5,25.8C691.8,308.8,705.7,320.4,718.4,333.2z"/>
	</g>
	<g>
		<path class="st0" d="M873.3,178.3c-22.8-22.8-47.9-43.4-74.7-61.3C771.7,99,743,83.8,713.1,71.5c-29.9-12.3-61.1-21.8-92.9-28
			c-31.8-6.2-64.2-9.3-96.6-9.2c-32.4,0.1-64.8,3.4-96.6,9.8c-31.8,6.4-62.8,16-92.7,28.6c-29.8,12.5-58.4,28-85.1,46.1
			c-26.7,18.1-51.6,38.9-74.2,61.8c-22.7,22.9-43.1,47.9-60.8,74.7c-17.7,26.8-32.8,55.3-44.9,85c-12.1,29.7-21.3,60.6-27.4,92
			c-6.1,31.5-9.1,63.5-9,95.5c0.1,32,3.2,64,9.5,95.5c6.3,31.4,15.7,62.2,28,91.9c12.2,29.7,27.4,58.1,45.3,84.9
			c17.9,26.7,38.4,51.7,61.2,74.5c-22.8-22.8-43.4-47.7-61.4-74.4c-18-26.7-33.2-55.2-45.6-84.8c-12.3-29.7-21.8-60.5-28.1-91.9
			c-6.3-31.5-9.5-63.5-9.6-95.6c-0.1-32.1,2.8-64.1,8.9-95.7c6.1-31.5,15.3-62.4,27.4-92.2c12.1-29.8,27.1-58.4,44.9-85.2
			c17.7-26.9,38.2-52,60.9-74.9c22.7-22.9,47.6-43.7,74.4-61.9c26.8-18.2,55.4-33.6,85.3-46.1c29.9-12.5,61-22.1,92.8-28.5
			c31.8-6.4,64.3-9.7,96.7-9.7c32.5-0.1,64.9,3,96.8,9.3c31.8,6.3,63,15.7,92.9,28.1c29.9,12.4,58.6,27.7,85.4,45.8
			C825.6,134.8,850.5,155.5,873.3,178.3z"/>
	</g>
	<g>
		<path class="st0" d="M806.9,244.7c-18.5-18.4-38.8-35.2-60.6-49.7c-21.8-14.6-45-27-69.3-37c-24.2-10-49.5-17.7-75.2-22.8
			c-25.8-5.1-52-7.6-78.3-7.6c-26.3,0-52.5,2.6-78.3,7.8c-25.7,5.2-51,12.9-75.1,23c-24.2,10.1-47.3,22.6-69,37.3
			c-21.7,14.7-41.8,31.5-60.1,50.1c-18.4,18.6-34.9,38.8-49.3,60.6c-14.4,21.7-26.5,44.9-36.3,68.9c-9.8,24.1-17.2,49.1-22.1,74.6
			c-4.9,25.5-7.2,51.5-7.1,77.4c0.1,26,2.7,51.9,7.9,77.4c5.1,25.5,12.8,50.4,22.8,74.4c10,24,22.3,47.1,36.8,68.7
			c14.5,21.7,31.2,41.9,49.6,60.4c-18.5-18.5-35.2-38.6-49.8-60.3c-14.6-21.6-27-44.7-37-68.7c-10-24-17.7-49-22.9-74.5
			c-5.2-25.5-7.8-51.5-8-77.5c-0.2-26,2.2-52,7-77.6c4.9-25.6,12.2-50.6,22-74.8c9.8-24.1,21.9-47.3,36.3-69.1
			c14.4-21.8,30.9-42.2,49.3-60.8c18.4-18.6,38.6-35.5,60.3-50.2c21.7-14.7,44.9-27.2,69.2-37.3c24.2-10.1,49.5-17.8,75.3-23
			c25.8-5.1,52.1-7.7,78.4-7.7c26.3,0,52.6,2.6,78.4,7.7c25.8,5.1,51.1,12.8,75.3,22.9c24.2,10.1,47.5,22.6,69.2,37.2
			C768.2,209.4,788.5,226.2,806.9,244.7z"/>
	</g>
	<g>
		<path class="st0" d="M740.6,311c-14.2-14.1-29.7-26.9-46.4-38.1c-16.7-11.2-34.4-20.7-53-28.4c-18.6-7.7-37.9-13.7-57.6-17.6
			c-19.7-4-39.9-6-60-6c-20.1-0.1-40.3,1.8-60,5.7c-19.7,3.9-39.1,9.7-57.6,17.4c-18.6,7.7-36.3,17.3-52.9,28.5
			c-16.6,11.2-32,24.1-46.1,38.4c-14.1,14.2-26.8,29.8-37.7,46.4c-11,16.7-20.3,34.4-27.7,52.9c-7.4,18.5-13,37.7-16.7,57.2
			c-3.7,19.6-5.4,39.5-5.2,59.3c0.2,19.9,2.2,39.8,6.2,59.3c4,19.5,9.9,38.6,17.6,57c7.7,18.4,17.2,36.1,28.3,52.6
			c11.1,16.6,23.9,32.1,38,46.3c-14.2-14.1-27-29.6-38.3-46.1c-11.2-16.5-20.8-34.2-28.5-52.6c-15.5-36.8-23.7-76.6-24-116.4
			c-0.2-19.9,1.5-39.9,5.1-59.5c3.6-19.6,9.2-38.9,16.7-57.4c7.4-18.5,16.7-36.3,27.7-53.1c11-16.7,23.7-32.3,37.8-46.6
			c14.1-14.3,29.6-27.2,46.3-38.4c16.7-11.3,34.5-20.8,53.1-28.5c18.6-7.7,38-13.6,57.8-17.4c19.8-3.9,40-5.7,60.2-5.6
			c20.2,0.1,40.3,2.1,60.1,6.1c19.8,4,39.1,10,57.7,17.7c18.6,7.8,36.3,17.4,53,28.7C710.9,284,726.4,296.9,740.6,311z"/>
	</g>
	<g>
		<path class="st0" d="M860,191.6c-22-21.9-46.1-41.7-71.9-59c-25.8-17.3-53.4-32-82.2-43.8c-28.8-11.9-58.8-20.9-89.3-26.9
			c-30.6-6-61.8-9-93-8.9c-31.2,0.1-62.4,3.2-92.9,9.4c-30.6,6.2-60.5,15.4-89.2,27.5c-28.7,12-56.2,26.9-81.9,44.4
			c-25.7,17.4-49.6,37.4-71.4,59.5c-21.8,22-41.5,46.1-58.5,71.9c-17.1,25.8-31.5,53.2-43.2,81.8c-11.7,28.6-20.5,58.3-26.3,88.5
			c-5.8,30.3-8.7,61.1-8.6,91.9c0.1,30.8,3.1,61.6,9.2,91.8c6,30.2,15.1,59.9,26.9,88.4c11.8,28.5,26.4,55.9,43.6,81.6
			c17.2,25.7,37,49.8,58.9,71.7c-22-21.9-41.8-45.9-59.1-71.6c-17.3-25.7-32-53.1-43.9-81.6c-11.9-28.5-21-58.2-27-88.5
			c-6.1-30.3-9.2-61.1-9.3-92c-0.1-30.9,2.7-61.7,8.5-92c5.8-30.3,14.6-60.1,26.3-88.7c11.6-28.6,26.1-56.2,43.2-82
			c17.1-25.8,36.7-50,58.6-72.1c21.8-22.1,45.8-42.1,71.6-59.5c25.8-17.5,53.3-32.3,82.1-44.4c28.8-12,58.7-21.3,89.3-27.4
			c30.6-6.2,61.8-9.3,93.1-9.3c31.2-0.1,62.5,2.9,93.1,8.9c30.6,6,60.6,15.1,89.4,27.1c28.8,11.9,56.4,26.7,82.2,44.1
			C814.1,149.7,838.1,169.6,860,191.6z"/>
	</g>
	<g>
		<path class="st0" d="M793.7,257.9c-17.7-17.6-37-33.5-57.7-47.4c-20.7-13.9-42.9-25.7-66-35.3c-23.1-9.6-47.2-16.9-71.7-21.8
			c-24.6-4.9-49.6-7.3-74.7-7.3c-25,0-50.1,2.4-74.6,7.3c-24.5,4.9-48.6,12.3-71.6,21.9c-23.1,9.6-45.1,21.6-65.8,35.6
			c-20.6,14-39.8,30.1-57.3,47.8c-17.5,17.7-33.3,37-47,57.7c-13.7,20.7-25.3,42.8-34.6,65.7c-9.3,23-16.4,46.8-21,71.1
			c-4.6,24.3-6.9,49.1-6.7,73.8c0.1,24.7,2.6,49.5,7.5,73.7c4.9,24.3,12.2,48.1,21.7,70.9c9.5,22.9,21.3,44.9,35.1,65.5
			c13.8,20.6,29.7,39.9,47.3,57.6c-17.6-17.6-33.6-36.8-47.5-57.5c-13.9-20.6-25.8-42.6-35.3-65.5c-9.6-22.9-16.9-46.7-21.9-71
			c-4.9-24.3-7.5-49.1-7.6-73.8c-0.2-24.8,2-49.6,6.6-74c4.6-24.4,11.6-48.3,20.9-71.3c9.3-23,20.9-45.1,34.6-65.9
			c13.7-20.8,29.5-40.2,47-57.9c17.5-17.7,36.8-33.8,57.5-47.8c20.7-14,42.8-25.9,66-35.6c23.1-9.6,47.2-17,71.8-21.9
			c24.6-4.9,49.7-7.3,74.8-7.3c25.1,0,50.2,2.5,74.8,7.4c24.6,4.9,48.7,12.3,71.8,21.9c23.1,9.6,45.2,21.5,66,35.5
			C756.8,224.3,776.1,240.3,793.7,257.9z"/>
	</g>
	<g>
		<path class="st0" d="M727.3,324.3c-13.3-13.3-27.9-25.3-43.6-35.8C668.1,278,651.4,269,634,261.8c-17.4-7.3-35.6-12.8-54.1-16.6
			c-18.5-3.7-37.4-5.6-56.3-5.7c-18.9-0.1-37.8,1.7-56.4,5.3c-18.5,3.6-36.7,9.1-54.1,16.3c-17.4,7.2-34.1,16.2-49.7,26.7
			c-15.6,10.5-30.1,22.7-43.3,36c-13.2,13.3-25.1,27.9-35.4,43.6c-10.3,15.6-19,32.3-26,49.7c-7,17.4-12.2,35.4-15.6,53.7
			c-3.4,18.4-5,37.1-4.8,55.7c0.2,18.7,2.1,37.3,5.9,55.6c3.8,18.3,9.3,36.2,16.6,53.5c7.2,17.3,16.1,33.8,26.6,49.4
			c10.5,15.6,22.5,30.1,35.7,43.5c-13.3-13.3-25.4-27.8-35.9-43.3c-10.5-15.5-19.5-32.1-26.8-49.4c-14.6-34.5-22.3-71.9-22.7-109.3
			c-0.2-18.7,1.4-37.5,4.8-55.9c3.4-18.4,8.6-36.5,15.6-53.9c7-17.4,15.7-34.1,26-49.8c10.3-15.7,22.2-30.4,35.5-43.8
			c13.3-13.4,27.8-25.5,43.5-36.1c15.7-10.6,32.4-19.5,49.9-26.8c17.5-7.2,35.7-12.7,54.3-16.3c18.6-3.6,37.6-5.3,56.5-5.2
			c18.9,0.1,37.9,2,56.4,5.8c18.6,3.8,36.7,9.4,54.2,16.7c17.4,7.3,34.1,16.4,49.7,27C699.5,298.9,714,311,727.3,324.3z"/>
	</g>
	<g>
		<path class="st0" d="M882.2,169.4c-23.4-23.3-49.1-44.5-76.6-62.9c-27.5-18.4-57-34-87.7-46.7c-30.7-12.6-62.6-22.3-95.2-28.7
			c-32.6-6.4-65.9-9.5-99.1-9.4c-33.2,0.1-66.5,3.5-99,10.1c-32.6,6.6-64.4,16.5-95,29.3C299,74.1,269.7,90,242.3,108.6
			c-27.4,18.6-52.9,39.9-76.1,63.4c-23.2,23.5-44.2,49.1-62.4,76.6c-18.2,27.5-33.6,56.7-46,87.2c-12.4,30.4-21.9,62.1-28.1,94.3
			c-6.3,32.2-9.3,65.1-9.2,97.9c0.1,32.8,3.3,65.7,9.7,97.9c6.4,32.2,16.1,63.8,28.6,94.2c12.6,30.4,28.1,59.6,46.4,87
			c18.3,27.4,39.4,53,62.7,76.4c-23.4-23.3-44.5-48.9-62.9-76.3c-18.4-27.4-34-56.6-46.7-87c-12.6-30.4-22.3-62-28.8-94.3
			c-6.5-32.2-9.7-65.1-9.8-98c-0.1-32.9,2.9-65.8,9.1-98.1c6.2-32.3,15.7-64,28.1-94.5c12.4-30.5,27.8-59.8,46-87.4
			c18.2-27.5,39.2-53.3,62.4-76.8c23.3-23.5,48.8-44.8,76.3-63.5c27.4-18.6,56.8-34.5,87.4-47.3c30.6-12.9,62.6-22.7,95.2-29.3
			c32.6-6.6,65.9-9.9,99.2-10c33.3-0.1,66.6,3,99.2,9.5c32.6,6.4,64.6,16.1,95.3,28.8c30.7,12.7,60.1,28.4,87.6,46.9
			C833.2,124.8,858.8,146,882.2,169.4z"/>
	</g>
	<g>
		<path class="st0" d="M815.8,235.8c-19.1-19-40-36.3-62.5-51.3c-22.4-15-46.4-27.8-71.4-38.1c-25-10.3-51-18.2-77.6-23.5
			c-26.6-5.3-53.7-7.8-80.8-7.8c-27.1,0-54.2,2.7-80.7,8c-26.5,5.3-52.5,13.3-77.5,23.8c-24.9,10.4-48.8,23.3-71.1,38.5
			c-22.3,15.1-43.1,32.5-62,51.7c-18.9,19.1-36,40.1-50.8,62.5c-14.8,22.4-27.4,46.3-37.5,71.1c-10.1,24.8-17.7,50.6-22.8,76.9
			c-5,26.3-7.5,53.1-7.3,79.8c0.1,26.8,2.8,53.5,8.1,79.8c5.3,26.3,13.2,52,23.5,76.8c10.3,24.8,23,48.6,37.9,70.9
			c15,22.3,32.1,43.2,51.2,62.3c-19.1-19-36.3-39.9-51.4-62.2c-15-22.3-27.8-46.1-38.2-70.8c-10.3-24.8-18.3-50.5-23.6-76.8
			c-5.3-26.3-8-53.1-8.2-79.9c-0.2-26.8,2.2-53.6,7.3-80c5-26.3,12.6-52.2,22.7-77.1c10.1-24.9,22.6-48.8,37.5-71.3
			c14.8-22.5,31.9-43.5,50.9-62.7c19-19.2,39.8-36.6,62.2-51.7c22.4-15.2,46.3-28.1,71.3-38.5c25-10.4,51.1-18.4,77.7-23.7
			c26.6-5.3,53.7-8,80.9-8c27.1,0,54.3,2.6,80.9,7.9c26.6,5.3,52.7,13.2,77.7,23.6c25,10.4,49,23.3,71.4,38.4
			C775.9,199.4,796.8,216.7,815.8,235.8z"/>
	</g>
	<g>
		<path class="st0" d="M749.4,302.2c-14.8-14.7-30.9-28-48.3-39.7c-17.3-11.6-35.9-21.6-55.2-29.6c-19.3-8-39.4-14.2-60-18.3
			c-20.5-4.1-41.5-6.2-62.4-6.2c-20.9,0-41.9,1.9-62.5,6c-20.5,4-40.7,10.2-60,18.2c-19.3,8-37.8,18-55.1,29.7
			c-17.3,11.7-33.3,25.1-47.9,39.9c-14.6,14.8-27.8,31-39.3,48.3c-11.4,17.3-21.1,35.8-28.9,55c-7.8,19.2-13.6,39.2-17.4,59.5
			c-3.8,20.3-5.6,41.1-5.5,61.8c0.2,20.7,2.3,41.4,6.4,61.7c4.1,20.3,10.3,40.2,18.3,59.3c8,19.1,17.8,37.5,29.4,54.8
			c11.6,17.3,24.9,33.4,39.6,48.2c-14.8-14.7-28.1-30.8-39.8-48c-11.7-17.2-21.6-35.6-29.7-54.7c-8.1-19.1-14.2-39.1-18.4-59.4
			c-4.2-20.3-6.3-41-6.5-61.8c-0.2-20.7,1.6-41.5,5.4-61.9c3.8-20.4,9.6-40.4,17.4-59.7c7.7-19.3,17.4-37.8,28.9-55.2
			c11.4-17.4,24.7-33.7,39.3-48.5c14.7-14.8,30.8-28.3,48.1-40c17.3-11.7,35.9-21.7,55.2-29.7c19.4-8,39.5-14.1,60.1-18.2
			c20.6-4,41.6-6,62.6-5.9c21,0.1,42,2.2,62.5,6.3c20.6,4.1,40.7,10.3,60,18.4c19.3,8.1,37.8,18.1,55.1,29.8
			C718.6,274,734.7,287.4,749.4,302.2z"/>
	</g>
	<g>
		<path class="st0" d="M837.9,213.7c-20.5-20.5-43-39-67.2-55.1c-24.1-16.1-49.9-29.9-76.8-41C667,106.5,639,98,610.4,92.4
			c-28.6-5.6-57.7-8.4-86.9-8.3c-29.1,0.1-58.3,3-86.8,8.7c-28.5,5.7-56.5,14.4-83.3,25.6c-26.8,11.2-52.5,25.1-76.5,41.4
			c-24,16.3-46.4,35-66.7,55.6c-20.4,20.6-38.7,43.1-54.7,67.2c-15.9,24.1-29.5,49.7-40.3,76.5c-10.9,26.7-19.1,54.5-24.6,82.7
			c-5.4,28.3-8.1,57.1-8,85.9c0.1,28.8,3,57.6,8.6,85.8c5.7,28.2,14.1,55.9,25.2,82.6c11,26.7,24.7,52.2,40.8,76.3
			c16.1,24,34.6,46.5,55,67c-20.5-20.5-39.1-42.9-55.2-66.9c-16.2-24-29.9-49.6-41-76.2c-11.1-26.7-19.6-54.4-25.3-82.6
			c-5.7-28.3-8.6-57.1-8.7-85.9c-0.1-28.8,2.5-57.7,7.9-86c5.4-28.3,13.6-56.1,24.5-82.9c10.9-26.8,24.4-52.5,40.3-76.6
			c15.9-24.2,34.3-46.7,54.7-67.4c20.4-20.6,42.8-39.3,66.9-55.6c24.1-16.3,49.8-30.2,76.7-41.4C380,106.4,408,97.8,436.6,92
			c28.6-5.7,57.8-8.6,87-8.6c29.2,0,58.4,2.8,87,8.4c28.6,5.7,56.6,14.2,83.5,25.3c26.9,11.2,52.7,25,76.8,41.2
			C795,174.6,817.4,193.2,837.9,213.7z"/>
	</g>
	<g>
		<path class="st0" d="M771.5,280.1c-16.2-16.1-34-30.8-53-43.5c-19-12.8-39.4-23.6-60.6-32.4c-21.2-8.8-43.3-15.5-65.8-20
			c-22.5-4.5-45.5-6.7-68.5-6.8c-23,0-46,2.2-68.5,6.7c-22.5,4.5-44.6,11.2-65.8,20c-21.2,8.8-41.5,19.8-60.4,32.6
			c-19,12.8-36.6,27.6-52.6,43.8c-16.1,16.2-30.6,34-43.1,53c-12.6,19-23.2,39.3-31.7,60.4c-8.5,21.1-15,43-19.2,65.3
			c-4.2,22.3-6.2,45.1-6.1,67.8c0.1,22.7,2.5,45.4,7,67.7c4.5,22.3,11.2,44.1,20,65.1c8.7,21,19.6,41.2,32.3,60.2
			c12.7,19,27.3,36.7,43.4,52.9c-16.2-16.2-30.9-33.8-43.7-52.7c-12.8-18.9-23.7-39.1-32.5-60.1c-8.8-21-15.6-42.9-20.1-65.2
			c-4.6-22.3-6.9-45.1-7.1-67.8c-0.2-22.8,1.8-45.5,6-67.9c4.2-22.4,10.6-44.4,19.2-65.5c8.5-21.2,19.2-41.5,31.7-60.6
			c12.6-19.1,27.1-36.9,43.2-53.2c16.1-16.3,33.8-31,52.8-43.9c19-12.9,39.4-23.8,60.6-32.6c21.2-8.8,43.4-15.6,66-20
			c22.6-4.5,45.7-6.6,68.7-6.6c23,0,46.1,2.3,68.7,6.8c22.6,4.5,44.7,11.3,65.9,20.2c21.2,8.9,41.5,19.8,60.5,32.7
			C737.7,249.2,755.4,263.9,771.5,280.1z"/>
	</g>
	<g>
		<path class="st0" d="M891,160.6c-24-23.9-50.3-45.6-78.5-64.4c-28.2-18.8-58.4-34.9-89.8-47.8c-31.4-13-64.2-22.8-97.6-29.4
			c-33.4-6.6-67.5-9.7-101.5-9.6c-34.1,0.1-68.1,3.6-101.4,10.3c-33.4,6.8-66,16.9-97.3,30.1c-31.3,13.2-61.3,29.4-89.4,48.5
			c-28.1,19-54.2,40.9-77.9,65c-23.8,24-45.3,50.4-63.9,78.5c-18.6,28.1-34.5,58.1-47.2,89.3c-12.7,31.2-22.4,63.6-28.8,96.6
			c-6.4,33-9.5,66.7-9.5,100.3c0.1,33.6,3.4,67.3,10,100.3c6.6,33,16.4,65.4,29.3,96.5C60.3,756,76.2,786,95,814
			c18.8,28.1,40.4,54.3,64.3,78.3c-24-23.9-45.6-50.1-64.5-78.2c-18.9-28.1-34.9-58-47.8-89.1c-12.9-31.2-22.8-63.6-29.5-96.6
			c-6.6-33-10-66.7-10.1-100.4c-0.1-33.7,3-67.4,9.4-100.5c6.4-33.1,16.1-65.6,28.8-96.8c12.7-31.3,28.5-61.3,47.2-89.5
			c18.6-28.2,40.1-54.6,64-78.7c23.8-24.1,50-46,78.1-65c28.1-19.1,58.2-35.3,89.6-48.5c31.4-13.2,64.1-23.3,97.5-30
			c33.4-6.8,67.5-10.2,101.6-10.3c34.1-0.1,68.2,3.1,101.7,9.7c33.4,6.6,66.2,16.5,97.6,29.5c31.4,13,61.6,29.1,89.8,48
			C840.8,114.9,867.1,136.6,891,160.6z"/>
	</g>
	<g>
		<path class="st0" d="M824.6,227c-19.7-19.6-41.2-37.4-64.3-52.8c-23.1-15.5-47.8-28.6-73.6-39.3c-25.8-10.6-52.6-18.8-79.9-24.2
			c-27.4-5.4-55.3-8.1-83.2-8c-27.9,0-55.8,2.8-83.2,8.3c-27.3,5.5-54.1,13.7-79.8,24.5c-25.7,10.8-50.3,24.1-73.3,39.7
			c-23,15.6-44.4,33.5-63.9,53.2c-19.5,19.7-37.1,41.3-52.4,64.3c-15.3,23.1-28.2,47.7-38.6,73.2c-10.4,25.6-18.3,52.2-23.5,79.3
			c-5.2,27.1-7.7,54.7-7.6,82.2c0.1,27.6,2.9,55.1,8.3,82.2c5.4,27,13.6,53.6,24.2,79.1c10.6,25.5,23.7,50,39.1,73
			c15.4,23,33.1,44.5,52.7,64.2c-19.7-19.6-37.4-41.1-52.9-64c-15.5-23-28.7-47.5-39.3-73c-10.7-25.5-18.8-52.1-24.3-79.2
			c-5.5-27.1-8.3-54.7-8.4-82.3c-0.1-27.6,2.3-55.2,7.5-82.4c5.2-27.1,13-53.8,23.4-79.4c10.4-25.6,23.3-50.3,38.6-73.4
			c15.3-23.1,32.9-44.8,52.4-64.5c19.5-19.8,41-37.7,64.1-53.3c23.1-15.6,47.7-28.9,73.5-39.7c25.8-10.8,52.6-19,80-24.5
			c27.4-5.5,55.4-8.2,83.3-8.2c28,0,55.9,2.7,83.3,8.1c27.4,5.4,54.3,13.6,80,24.3c25.8,10.7,50.4,24,73.5,39.5
			C783.5,189.5,805,207.3,824.6,227z"/>
	</g>
	<g>
		<path class="st0" d="M758.3,293.3c-15.3-15.3-32.2-29.1-50.2-41.2c-18-12.1-37.3-22.4-57.3-30.7c-20.1-8.3-41-14.7-62.3-19
			c-21.3-4.3-43.1-6.4-64.9-6.4c-21.8,0-43.5,2-64.9,6.2c-21.3,4.2-42.2,10.6-62.3,18.9c-20.1,8.3-39.3,18.7-57.2,30.9
			c-17.9,12.2-34.6,26.1-49.8,41.5c-15.2,15.4-28.9,32.2-40.8,50.2c-11.9,18-21.9,37.2-30,57.2c-8.1,20-14.2,40.7-18.1,61.9
			c-4,21.1-5.9,42.7-5.7,64.2c0.2,21.5,2.4,43,6.7,64.1c4.3,21.1,10.7,41.8,19,61.6c8.3,19.9,18.5,39,30.6,56.9
			c12,17.9,25.9,34.7,41.1,50.1c-15.3-15.3-29.2-32-41.3-49.9c-12.1-17.9-22.4-37-30.8-56.9c-8.4-19.9-14.8-40.6-19.1-61.7
			c-4.3-21.1-6.6-42.6-6.8-64.2c-0.2-21.5,1.7-43.1,5.6-64.3c4-21.2,10-42,18.1-62c8.1-20,18.1-39.3,30-57.3
			c11.9-18.1,25.6-35,40.9-50.4c15.3-15.4,32-29.4,50-41.6c18-12.2,37.3-22.5,57.4-30.9c20.1-8.3,41.1-14.7,62.5-18.9
			c21.4-4.2,43.2-6.2,65-6.2c21.8,0.1,43.6,2.2,65,6.5c21.4,4.3,42.3,10.7,62.4,19.1c20.1,8.4,39.3,18.8,57.3,31
			C726.2,264.1,743,278,758.3,293.3z"/>
	</g>
	<g>
		<path class="st0" d="M691.9,359.7c-22-22-48.3-39.8-77.1-51.8c-28.8-12.1-60-18.5-91.2-18.7c-31.2-0.2-62.6,5.6-91.4,17.6
			c-14.4,5.9-28.2,13.3-41.1,22c-12.9,8.7-24.9,18.7-35.8,29.8c-10.9,11-20.8,23.1-29.3,36c-8.5,12.9-15.7,26.7-21.4,41.1
			c-11.5,28.7-17.1,59.7-16.6,90.5c0.3,30.9,6.7,61.7,18.8,90.2c12,28.6,29.7,54.7,51.6,76.7c-22.1-21.9-40-48-52.1-76.5
			c-12.1-28.5-18.6-59.4-19-90.4c-0.5-31,5-62,16.5-90.9c11.4-28.9,28.8-55.4,50.8-77.5c11-11.1,23-21.1,36-29.8
			c13-8.7,26.8-16.1,41.3-22.1c29-11.9,60.4-17.8,91.7-17.5c31.3,0.2,62.6,6.7,91.4,18.9C643.8,319.7,670,337.7,691.9,359.7z"/>
	</g>
	<g>
		<path class="st0" d="M846.8,204.8c-21.1-21-44.2-40.1-69.1-56.7c-24.8-16.6-51.3-30.7-79-42.1c-27.6-11.4-56.4-20.1-85.8-25.9
			c-29.4-5.8-59.4-8.6-89.3-8.5c-30,0.1-59.9,3.1-89.3,9c-29.4,5.9-58.1,14.8-85.7,26.3c-27.6,11.6-54,25.8-78.7,42.6
			c-24.7,16.8-47.7,36-68.6,57.1c-20.9,21.2-39.8,44.3-56.2,69.1c-16.4,24.8-30.3,51.1-41.5,78.6c-11.2,27.5-19.7,56-25.3,85.1
			c-5.6,29.1-8.3,58.7-8.2,88.3c0.1,29.6,3,59.2,8.9,88.2c5.8,29,14.5,57.5,25.9,84.9c11.3,27.4,25.4,53.7,41.9,78.4
			c16.5,24.7,35.5,47.8,56.6,68.9c-21.1-21-40.2-44.1-56.8-68.8c-16.6-24.7-30.7-51-42.2-78.4c-11.4-27.4-20.1-55.9-26-85
			c-5.9-29.1-8.8-58.7-9-88.3c-0.1-29.6,2.6-59.3,8.1-88.4c5.6-29.1,14-57.7,25.2-85.2c11.2-27.5,25.1-54,41.5-78.8
			c16.4-24.8,35.3-48,56.3-69.3c21-21.2,44-40.4,68.8-57.2c24.7-16.8,51.2-31.1,78.8-42.6c27.6-11.6,56.4-20.4,85.8-26.3
			c29.4-5.9,59.4-8.9,89.4-8.9c30-0.1,60,2.8,89.4,8.6c29.4,5.8,58.2,14.6,85.9,26c27.7,11.5,54.2,25.7,78.9,42.3
			C802.6,164.6,825.7,183.8,846.8,204.8z"/>
	</g>
	<g>
		<path class="st0" d="M780.4,271.2c-16.8-16.7-35.2-31.9-54.9-45.1c-19.7-13.2-40.8-24.5-62.8-33.6c-22-9.1-44.8-16.1-68.2-20.7
			c-23.4-4.6-47.2-7-71-7c-23.8,0-47.6,2.3-71,6.9c-23.3,4.6-46.2,11.6-68.1,20.8c-21.9,9.1-42.9,20.5-62.6,33.8
			c-19.6,13.3-37.9,28.6-54.5,45.4c-16.6,16.8-31.7,35.2-44.7,54.9c-13,19.7-24,40.7-32.9,62.5c-8.8,21.8-15.5,44.5-19.9,67.7
			c-4.4,23.1-6.5,46.7-6.3,70.2c0.1,23.5,2.5,47,7.2,70.1c4.7,23.1,11.6,45.7,20.7,67.5c9,21.8,20.2,42.7,33.4,62.3
			c13.2,19.6,28.3,38,45,54.8c-16.8-16.7-32-35-45.2-54.6c-13.2-19.6-24.5-40.5-33.6-62.3c-9.1-21.8-16.1-44.4-20.8-67.5
			c-4.7-23.1-7.1-46.7-7.3-70.2c-0.2-23.6,1.9-47.2,6.3-70.3c4.4-23.2,11-45.9,19.9-67.8c8.8-21.9,19.8-42.9,32.9-62.7
			c13-19.8,28-38.2,44.7-55.1c16.7-16.9,35-32.2,54.7-45.5c19.7-13.3,40.8-24.7,62.8-33.8c22-9.1,44.9-16.1,68.3-20.8
			c23.4-4.6,47.3-6.9,71.1-6.9c23.9,0,47.7,2.4,71.1,7.1c23.4,4.7,46.3,11.7,68.3,20.8c22,9.2,43,20.5,62.7,33.8
			C745.3,239.2,763.7,254.4,780.4,271.2z"/>
	</g>
	<g>
		<path class="st0" d="M714,337.6c-12.5-12.4-26.1-23.7-40.7-33.5c-14.6-9.8-30.2-18.2-46.5-25c-16.3-6.8-33.2-12-50.6-15.5
			c-17.3-3.5-35-5.3-52.7-5.4c-17.7-0.1-35.4,1.5-52.7,4.9c-17.3,3.4-34.3,8.5-50.6,15.2c-16.3,6.7-31.9,15.1-46.5,25
			c-14.6,9.9-28.1,21.2-40.5,33.7c-12.3,12.5-23.5,26.1-33.1,40.8c-9.6,14.6-17.8,30.2-24.3,46.4c-13.1,32.5-19.4,67.5-19,102.4
			c0.3,34.9,7.5,69.8,21.1,102c6.8,16.1,15.1,31.6,24.9,46.2c9.8,14.6,21,28.2,33.4,40.6c-12.5-12.4-23.8-26-33.6-40.5
			c-9.9-14.5-18.3-30-25.1-46.1c-13.7-32.3-20.9-67.2-21.3-102.2c-0.5-35,5.9-70.1,18.9-102.7c6.5-16.3,14.6-31.9,24.3-46.6
			c9.6-14.7,20.8-28.4,33.2-41c12.4-12.5,26-23.9,40.7-33.7c14.6-9.9,30.3-18.3,46.7-25c16.4-6.7,33.4-11.8,50.8-15.2
			c17.4-3.3,35.1-4.9,52.8-4.8c35.4,0.2,70.8,7.4,103.4,21.1c16.3,6.9,31.9,15.3,46.5,25.3C688,313.8,701.6,325.1,714,337.6z"/>
	</g>
	<g>
		<path class="st0" d="M868.9,182.7c-22.5-22.5-47.3-42.8-73.8-60.5c-26.5-17.7-54.9-32.8-84.4-44.9C681.2,65,650.4,55.7,619,49.6
			c-31.4-6.2-63.4-9.2-95.4-9.1c-32,0.1-64,3.3-95.4,9.7c-31.4,6.3-62,15.8-91.5,28.2c-29.5,12.4-57.6,27.6-84,45.5
			c-26.4,17.9-50.9,38.4-73.2,61c-22.4,22.6-42.5,47.3-60.1,73.8c-17.5,26.5-32.4,54.6-44.3,84C63.1,372,54,402.5,48,433.6
			c-6,31.1-8.9,62.7-8.8,94.3c0.1,31.6,3.2,63.2,9.4,94.3c6.2,31,15.5,61.4,27.6,90.7c12.1,29.3,27.1,57.4,44.7,83.8
			c17.6,26.4,37.9,51.1,60.4,73.6c-22.5-22.5-42.9-47.1-60.6-73.5C103,770.4,88,742.3,75.8,713c-12.2-29.3-21.5-59.7-27.7-90.8
			c-6.2-31.1-9.4-62.7-9.5-94.4c-0.1-31.7,2.8-63.3,8.8-94.4c6-31.1,15.1-61.6,27-91c11.9-29.4,26.8-57.6,44.3-84.1
			c17.5-26.5,37.7-51.3,60.1-74c22.4-22.7,47-43.2,73.4-61.1c26.4-17.9,54.7-33.2,84.2-45.6c29.5-12.4,60.3-21.8,91.7-28.2
			c31.4-6.3,63.5-9.5,95.5-9.6c32-0.1,64.1,3,95.5,9.2c31.4,6.2,62.2,15.5,91.8,27.8c29.6,12.2,57.9,27.4,84.4,45.2
			C821.7,139.8,846.4,160.2,868.9,182.7z"/>
	</g>
	<g>
		<path class="st0" d="M802.5,249.1c-18.2-18.2-38.2-34.6-59.6-48.9c-21.4-14.3-44.3-26.6-68.2-36.4c-23.9-9.9-48.7-17.4-74.1-22.5
			c-25.4-5-51.2-7.5-77.1-7.5c-25.9,0-51.7,2.5-77.1,7.6c-25.3,5.1-50.2,12.7-74,22.6c-23.8,9.9-46.6,22.3-67.9,36.7
			c-21.3,14.5-41.1,31-59.2,49.3c-18.1,18.3-34.4,38.2-48.5,59.6c-14.1,21.4-26.1,44.2-35.7,67.9c-9.6,23.7-16.9,48.3-21.7,73.5
			c-4.8,25.1-7.1,50.7-7,76.2c0.1,25.5,2.7,51.1,7.8,76.2c5.1,25.1,12.6,49.6,22.4,73.3c9.8,23.6,21.9,46.4,36.2,67.7
			c14.3,21.3,30.7,41.2,48.8,59.5c-18.2-18.2-34.7-38-49.1-59.3c-14.4-21.3-26.6-44-36.5-67.6c-9.9-23.6-17.5-48.2-22.5-73.3
			c-5.1-25.1-7.7-50.7-7.9-76.3c-0.2-25.6,2.1-51.2,6.9-76.4c4.8-25.2,12-49.9,21.7-73.6c9.6-23.8,21.6-46.6,35.7-68.1
			c14.1-21.5,30.5-41.5,48.6-59.8c18.1-18.3,38-34.9,59.4-49.4c21.4-14.5,44.2-26.8,68.1-36.7c23.9-10,48.8-17.6,74.2-22.6
			c25.4-5.1,51.3-7.6,77.2-7.6c25.9,0,51.8,2.5,77.2,7.6c25.4,5.1,50.3,12.6,74.1,22.6c23.9,9.9,46.7,22.2,68.1,36.7
			C764.4,214.4,784.3,230.9,802.5,249.1z"/>
	</g>
	<g>
		<path class="st0" d="M736.1,315.5c-13.9-13.8-29.2-26.3-45.5-37.3c-16.3-10.9-33.8-20.2-52-27.7c-18.2-7.5-37.1-13.3-56.4-17.2
			c-19.3-3.9-39-5.8-58.7-5.8c-19.7,0-39.4,1.8-58.7,5.6c-19.3,3.8-38.2,9.5-56.4,17.1c-18.1,7.5-35.5,16.9-51.7,27.9
			c-16.2,11-31.3,23.6-45.1,37.5c-13.8,13.9-26.2,29.1-36.9,45.4c-10.7,16.3-19.8,33.6-27.1,51.7c-7.3,18.1-12.8,36.8-16.3,56
			c-3.6,19.1-5.3,38.6-5.1,58c0.1,19.5,2.1,38.9,6,58c3.9,19.1,9.6,37.8,17.1,55.8c7.5,18,16.7,35.3,27.6,51.6
			c10.9,16.3,23.4,31.5,37.2,45.4c-13.9-13.8-26.6-28.9-37.6-45.1c-11-16.2-20.5-33.5-28.1-51.5c-15.3-36-23.4-75-23.8-114.1
			c-0.5-39.1,6.7-78.3,21.3-114.7c7.3-18.2,16.4-35.7,27.2-52.1c10.8-16.4,23.2-31.7,37.1-45.7c13.8-14,29.1-26.7,45.4-37.7
			c16.4-11,33.8-20.4,52.1-28c18.3-7.6,37.3-13.3,56.7-17.1c19.4-3.8,39.2-5.6,59-5.5c19.8,0.1,39.6,2.1,58.9,6.1
			c19.4,4,38.3,9.8,56.5,17.5c18.2,7.7,35.6,17.2,51.9,28.2C707.2,288.9,722.3,301.5,736.1,315.5z"/>
	</g>
	<g>
		<path class="st0" d="M855.6,196c-21.7-21.6-45.4-41.2-71-58.2c-25.5-17-52.7-31.5-81.2-43.2c-28.4-11.7-58-20.7-88.2-26.6
			c-30.2-5.9-61-8.8-91.8-8.7c-30.8,0.1-61.5,3.2-91.7,9.3c-30.2,6.1-59.7,15.2-88,27.1c-28.3,11.9-55.4,26.6-80.8,43.8
			c-25.4,17.2-49,36.9-70.4,58.7c-21.5,21.7-40.9,45.5-57.7,71c-16.8,25.4-31.1,52.5-42.6,80.7c-11.5,28.2-20.2,57.5-26,87.4
			c-5.8,29.9-8.6,60.3-8.5,90.7c0.1,30.4,3.1,60.8,9.1,90.6c6,29.8,14.9,59.1,26.6,87.2c11.6,28.2,26.1,55.2,43,80.6
			c17,25.4,36.5,49.1,58.1,70.8c-21.7-21.6-41.3-45.3-58.3-70.6c-17.1-25.3-31.6-52.4-43.3-80.5c-11.7-28.2-20.7-57.4-26.7-87.3
			c-6-29.9-9.1-60.3-9.2-90.7c-0.1-30.4,2.6-60.9,8.4-90.8c5.7-29.9,14.4-59.3,25.9-87.5c11.5-28.3,25.8-55.4,42.6-80.9
			c16.8-25.5,36.3-49.4,57.8-71.1c21.5-21.8,45.2-41.5,70.6-58.8c25.4-17.2,52.6-31.9,81-43.8c28.4-11.9,58-21,88.2-27.1
			c30.2-6.1,61-9.1,91.8-9.2c30.8-0.1,61.7,2.9,91.9,8.8c30.2,6,59.8,14.9,88.2,26.7c28.4,11.8,55.6,26.4,81.1,43.5
			C810.3,154.7,834,174.3,855.6,196z"/>
	</g>
	<g>
		<path class="st0" d="M789.2,262.4c-17.4-17.3-36.4-33-56.8-46.6c-20.4-13.7-42.2-25.3-64.9-34.7c-22.7-9.4-46.4-16.6-70.5-21.4
			c-24.2-4.8-48.8-7.2-73.4-7.2c-24.6,0-49.3,2.4-73.4,7.2c-24.1,4.8-47.8,12.1-70.5,21.5c-22.7,9.5-44.4,21.2-64.7,35
			c-20.3,13.8-39.2,29.6-56.4,47c-17.2,17.4-32.7,36.4-46.2,56.8c-13.5,20.4-24.9,42.1-34,64.7c-9.2,22.6-16.1,46.1-20.6,70
			c-4.6,23.9-6.7,48.3-6.6,72.6c0.1,24.3,2.6,48.7,7.4,72.5c4.8,23.9,12,47.3,21.4,69.8c9.3,22.5,20.9,44.1,34.5,64.4
			c13.6,20.3,29.2,39.3,46.5,56.6c-17.4-17.3-33.1-36.2-46.7-56.5c-13.7-20.3-25.3-41.9-34.8-64.4c-9.4-22.5-16.6-46-21.5-69.9
			c-4.9-23.9-7.4-48.3-7.5-72.6c-0.2-24.4,2-48.8,6.5-72.7c4.5-24,11.4-47.5,20.6-70.1c9.1-22.6,20.5-44.4,34-64.9
			c13.5-20.4,29-39.5,46.3-57c17.3-17.4,36.2-33.3,56.6-47c20.4-13.8,42.2-25.5,64.9-35c22.7-9.5,46.5-16.7,70.7-21.5
			c24.2-4.8,48.9-7.2,73.6-7.1c24.7,0,49.4,2.4,73.5,7.3c24.2,4.8,47.9,12.1,70.6,21.5c22.7,9.5,44.5,21.2,64.9,34.9
			C753,229.3,771.9,245,789.2,262.4z"/>
	</g>
	<g>
		<path class="st0" d="M722.9,328.7c-13-13-27.3-24.8-42.6-35c-15.3-10.3-31.6-19.1-48.7-26.2c-17-7.1-34.8-12.6-52.9-16.2
			c-18.1-3.7-36.6-5.5-55.1-5.6c-18.5-0.1-37,1.6-55.1,5.2c-18.1,3.5-35.9,8.9-53,16c-17.1,7.1-33.4,15.8-48.6,26.2
			c-15.3,10.3-29.4,22.2-42.3,35.2c-12.9,13.1-24.6,27.3-34.7,42.6c-10.1,15.3-18.6,31.6-25.4,48.6c-6.8,17-11.9,34.6-15.3,52.6
			c-3.3,18-4.9,36.3-4.7,54.5c0.3,36.5,7.8,73,22,106.8c7.1,16.9,15.8,33.1,26,48.3c10.2,15.2,22,29.5,35,42.5
			c-13-13-24.9-27.2-35.2-42.4c-10.3-15.2-19.1-31.4-26.3-48.3c-14.3-33.8-21.8-70.3-22.2-106.9c-0.2-18.3,1.3-36.6,4.6-54.7
			c3.3-18,8.4-35.7,15.2-52.8c6.8-17,15.3-33.4,25.4-48.8c10.1-15.4,21.8-29.7,34.7-42.8c13-13.1,27.2-25,42.5-35.3
			c15.3-10.3,31.7-19.1,48.8-26.2c17.1-7.1,34.9-12.4,53.1-15.9c18.2-3.5,36.8-5.2,55.3-5.1c18.5,0.1,37.1,2,55.2,5.7
			c18.2,3.7,35.9,9.2,53,16.4c17,7.2,33.4,16,48.6,26.4C695.7,303.9,709.9,315.7,722.9,328.7z"/>
	</g>
	<g>
		<path class="st0" d="M877.7,173.9c-23.1-23.1-48.5-43.9-75.7-62.1c-27.2-18.2-56.3-33.6-86.6-46.1c-30.3-12.5-61.8-22-94-28.3
			c-32.2-6.3-65-9.4-97.9-9.3c-32.8,0.1-65.6,3.4-97.8,9.9C393.6,44.5,362.2,54.3,332,67c-30.2,12.7-59.1,28.3-86.2,46.7
			c-27,18.4-52.2,39.4-75.1,62.6c-22.9,23.2-43.6,48.5-61.6,75.7c-18,27.1-33.2,56-45.5,86.1c-12.3,30.1-21.6,61.3-27.8,93.2
			c-6.2,31.8-9.2,64.3-9.1,96.7c0.1,32.4,3.3,64.9,9.6,96.7c6.3,31.8,15.9,63,28.3,93c12.4,30,27.8,58.9,45.9,85.9
			c18.1,27.1,38.9,52.4,62,75.5c-23.1-23.1-44-48.3-62.2-75.4c-18.2-27-33.6-55.9-46.1-85.9c-12.5-30-22-61.3-28.4-93.1
			c-6.4-31.8-9.6-64.3-9.7-96.8c-0.1-32.5,2.9-65,9-96.9c6.1-31.9,15.5-63.2,27.7-93.3c12.2-30.1,27.5-59.1,45.5-86.3
			c18-27.2,38.7-52.6,61.6-75.9c23-23.2,48.2-44.3,75.3-62.7c27.1-18.4,56.1-34.1,86.4-46.7c30.3-12.7,61.8-22.4,94-28.9
			c32.2-6.5,65.1-9.8,97.9-9.9c32.9-0.1,65.8,3,98,9.4c32.2,6.3,63.8,15.9,94.1,28.5c30.3,12.5,59.3,28.1,86.5,46.3
			C829.4,129.8,854.7,150.8,877.7,173.9z"/>
	</g>
	<g>
		<path class="st0" d="M811.4,240.2c-18.8-18.7-39.4-35.7-61.5-50.5c-22.1-14.8-45.7-27.4-70.3-37.5c-24.6-10.2-50.2-18-76.4-23.1
			c-26.2-5.2-52.9-7.7-79.5-7.7c-26.7,0-53.4,2.7-79.5,7.9c-26.1,5.2-51.8,13.1-76.3,23.4c-24.6,10.3-48.1,23-70.1,37.9
			c-22,14.9-42.4,32-61.1,50.9c-18.6,18.8-35.5,39.5-50,61.5c-14.6,22.1-26.9,45.6-36.9,70c-9.9,24.5-17.5,49.9-22.4,75.8
			c-5,25.9-7.3,52.3-7.2,78.6c0.1,26.4,2.8,52.7,8,78.6c5.2,25.9,13,51.2,23.1,75.6c10.1,24.4,22.6,47.8,37.4,69.8
			c14.7,22,31.7,42.6,50.4,61.4c-18.8-18.7-35.8-39.3-50.6-61.2c-14.8-22-27.4-45.4-37.6-69.8c-10.2-24.4-18-49.8-23.2-75.7
			c-5.2-25.9-7.9-52.3-8.1-78.7c-0.2-26.4,2.2-52.8,7.1-78.8c4.9-26,12.4-51.4,22.4-75.9c9.9-24.5,22.3-48.1,36.9-70.2
			c14.6-22.1,31.4-42.8,50.1-61.7c18.7-18.9,39.2-36,61.3-50.9c22.1-14.9,45.6-27.7,70.3-37.9c24.6-10.3,50.3-18.1,76.5-23.3
			c26.2-5.2,52.9-7.8,79.7-7.8c26.7,0,53.5,2.6,79.7,7.8c26.2,5.2,51.9,13,76.5,23.3c24.6,10.2,48.2,22.9,70.3,37.8
			C772.1,204.4,792.6,221.5,811.4,240.2z"/>
	</g>
	<g>
		<path class="st0" d="M745,306.6c-14.5-14.4-30.3-27.5-47.3-38.9c-17-11.4-35.2-21.1-54.1-29c-18.9-7.9-38.6-13.9-58.8-18
			c-20.1-4-40.7-6.1-61.2-6.1c-20.5,0-41.1,1.9-61.2,5.8c-20.1,4-39.9,10-58.8,17.8c-18.9,7.9-37,17.6-54,29.1
			c-16.9,11.5-32.7,24.6-47,39.2c-14.4,14.5-27.3,30.4-38.5,47.4c-11.2,17-20.7,35.1-28.3,53.9c-7.6,18.8-13.3,38.4-17.1,58.4
			c-3.7,19.9-5.5,40.3-5.3,60.5c0.2,20.3,2.3,40.6,6.3,60.5c4.1,19.9,10.1,39.4,17.9,58.2c7.8,18.8,17.5,36.8,28.9,53.7
			c11.4,16.9,24.4,32.7,38.8,47.2c-14.5-14.4-27.6-30.2-39-47.1c-11.4-16.9-21.2-34.9-29.1-53.7c-15.8-37.5-24.1-78.1-24.5-118.8
			c-0.2-20.3,1.5-40.7,5.3-60.7c3.7-20,9.4-39.6,17-58.6c7.6-18.9,17.1-37.1,28.3-54.1c11.2-17.1,24.2-33,38.6-47.6
			c14.4-14.5,30.2-27.7,47.2-39.2c17-11.5,35.2-21.3,54.2-29.1c19-7.9,38.8-13.8,59-17.8c20.2-4,40.8-5.8,61.4-5.8
			c20.6,0.1,41.2,2.1,61.3,6.2c20.2,4.1,39.9,10.1,58.9,18.1c18.9,7.9,37.1,17.8,54,29.2C714.8,279,730.6,292.1,745,306.6z"/>
	</g>
	<g>
		<path class="st0" d="M833.5,218.1c-20.3-20.1-42.5-38.4-66.3-54.3c-23.8-15.9-49.2-29.4-75.8-40.3c-26.5-10.9-54.1-19.3-82.3-24.8
			c-28.2-5.5-56.9-8.2-85.6-8.1c-28.7,0.1-57.4,3-85.5,8.6c-28.1,5.7-55.6,14.1-82.1,25.2c-26.4,11.1-51.7,24.7-75.3,40.8
			c-23.6,16-45.6,34.4-65.7,54.7c-20.1,20.3-38.1,42.4-53.8,66.2c-15.7,23.7-29,49-39.7,75.3c-10.7,26.3-18.8,53.6-24.2,81.5
			c-5.3,27.9-8,56.2-7.9,84.6c0.1,28.4,2.9,56.7,8.4,84.5c5.6,27.8,13.9,55.1,24.7,81.4c10.8,26.3,24.3,51.5,40.1,75.2
			c15.8,23.7,34,45.9,54.1,66.1c-20.3-20.2-38.6-42.2-54.6-65.9c-16-23.6-29.6-48.8-40.6-75.1c-11-26.3-19.4-53.6-25.1-81.5
			c-5.7-27.9-8.6-56.3-8.7-84.8c-0.4-56.9,10.4-113.9,31.9-166.7c10.7-26.4,24-51.8,39.8-75.7c15.7-23.8,33.9-46.1,54-66.5
			c20.1-20.4,42.3-38.8,66-54.9c23.8-16.1,49.2-29.8,75.7-40.9c26.5-11.1,54.2-19.6,82.4-25.2c28.2-5.7,57-8.5,85.9-8.5
			c28.8,0,57.6,2.8,85.8,8.4c28.2,5.6,55.9,14.1,82.4,25.1c26.5,11.1,51.9,24.7,75.7,40.8C791.2,179.5,813.3,197.9,833.5,218.1z"/>
	</g>
	<g>
		<path class="st0" d="M767.1,284.5c-16-15.8-33.4-30.2-52.1-42.7c-18.7-12.5-38.7-23.1-59.5-31.7c-20.8-8.6-42.5-15.2-64.6-19.6
			c-22.1-4.4-44.7-6.6-67.3-6.5c-22.6,0-45.1,2.2-67.2,6.6c-22.1,4.4-43.8,11-64.5,19.6c-20.8,8.6-40.7,19.4-59.3,32
			c-18.6,12.6-35.9,27.1-51.6,43c-15.8,15.9-30,33.3-42.3,52c-12.3,18.7-22.7,38.5-31.1,59.2c-8.4,20.7-14.7,42.2-18.8,64.1
			c-4.1,21.9-6.1,44.2-6,66.5c0.1,22.3,2.4,44.6,6.8,66.4c4.4,21.9,11,43.3,19.6,63.9c8.5,20.6,19.1,40.5,31.6,59.1
			c12.4,18.6,26.7,36.1,42.6,52c-15.9-15.8-30.4-33.2-43-51.7c-12.6-18.6-23.4-38.4-32.1-59c-8.7-20.6-15.4-42.1-19.9-64.1
			c-4.5-21.9-6.9-44.3-7.1-66.7c-0.5-44.8,7.9-89.6,24.7-131.3c8.4-20.8,18.8-40.8,31.2-59.6c12.4-18.8,26.6-36.3,42.5-52.4
			c15.8-16,33.3-30.5,52-43.2c18.7-12.7,38.7-23.4,59.6-32.1c41.8-17.4,87.2-26.4,132.5-26.1c22.7,0.1,45.3,2.4,67.5,6.8
			c22.2,4.5,43.9,11.2,64.8,19.9c20.8,8.8,40.8,19.6,59.4,32.2C733.9,254.1,751.3,268.6,767.1,284.5z"/>
	</g>
	<g>
		<path class="st0" d="M700.7,350.9c-11.6-11.5-24.3-22-37.9-31.2c-13.6-9.2-28.1-17-43.3-23.3c-15.1-6.3-30.9-11.2-47-14.5
			c-16.1-3.3-32.5-5-49-5.1c-32.9-0.2-65.8,6-96.2,18.6c-15.2,6.2-29.7,14-43.3,23.2c-13.6,9.2-26.2,19.7-37.6,31.3
			c-11.5,11.6-21.9,24.3-30.8,37.9c-9,13.6-16.5,28.1-22.6,43.2c-12.1,30.2-18,62.8-17.6,95.3c0.3,32.5,7,64.9,19.7,94.9
			c12.6,30.1,31.2,57.6,54.3,80.8c-23.2-23.1-42-50.5-54.8-80.6c-12.8-30-19.5-62.5-19.9-95.1c-0.5-32.6,5.4-65.3,17.5-95.6
			c6-15.2,13.6-29.7,22.6-43.4c9-13.7,19.3-26.5,30.9-38.1c11.5-11.7,24.2-22.2,37.8-31.4c13.6-9.2,28.2-17,43.5-23.2
			c30.5-12.6,63.5-18.8,96.5-18.5c33,0.2,65.9,6.9,96.2,19.8c15.2,6.4,29.6,14.3,43.2,23.6C676.5,328.7,689.2,339.3,700.7,350.9z"/>
	</g>
	<g>
		<path class="st0" d="M886.6,165c-23.7-23.6-49.7-45-77.6-63.6c-27.9-18.6-57.7-34.5-88.7-47.2c-31.1-12.8-63.4-22.6-96.4-29
			c-33-6.5-66.7-9.6-100.3-9.5c-33.6,0.1-67.3,3.5-100.2,10.2c-33,6.7-65.2,16.7-96.2,29.7c-31,13-60.6,29.1-88.3,47.9
			c-27.7,18.8-53.5,40.4-77,64.2c-23.5,23.8-44.7,49.7-63.1,77.6c-18.4,27.8-34,57.4-46.6,88.2c-12.6,30.8-22.2,62.8-28.5,95.5
			c-6.3,32.6-9.4,65.9-9.3,99.1c0.1,33.2,3.3,66.5,9.9,99.1c6.5,32.6,16.2,64.6,29,95.4c12.7,30.8,28.5,60.3,47,88.1
			c18.5,27.8,39.9,53.7,63.5,77.4c-23.7-23.6-45.1-49.5-63.7-77.2c-18.6-27.7-34.5-57.3-47.3-88c-12.8-30.8-22.6-62.8-29.1-95.4
			c-6.5-32.6-9.8-65.9-10-99.2c-0.1-33.3,3-66.6,9.3-99.3c6.3-32.7,15.9-64.8,28.4-95.7c12.6-30.9,28.2-60.6,46.6-88.4
			c18.4-27.9,39.6-53.9,63.2-77.8c23.5-23.8,49.4-45.4,77.2-64.2c27.8-18.8,57.5-34.9,88.5-47.9c31-13,63.3-23,96.3-29.7
			c33-6.7,66.7-10,100.4-10.1c33.7-0.1,67.4,3.1,100.4,9.6c33,6.5,65.4,16.3,96.5,29.1c31.1,12.9,60.8,28.8,88.7,47.5
			C837,119.9,863,141.3,886.6,165z"/>
	</g>
	<g>
		<path class="st0" d="M820.2,231.4c-19.4-19.3-40.6-36.8-63.4-52c-22.8-15.2-47.1-28.2-72.5-38.7c-25.4-10.5-51.8-18.5-78.8-23.8
			c-27-5.3-54.5-8-82-7.9c-27.5,0-55,2.8-81.9,8.2c-26.9,5.4-53.3,13.5-78.6,24.1c-25.3,10.6-49.6,23.7-72.2,39.1
			c-22.7,15.4-43.7,33-62.9,52.4c-19.2,19.4-36.6,40.7-51.6,63.4c-15,22.7-27.8,47-38,72.2c-10.2,25.2-18,51.4-23.1,78.1
			c-5.1,26.7-7.6,53.9-7.5,81c0.1,27.2,2.8,54.3,8.2,81c5.4,26.7,13.4,52.8,23.8,77.9c10.4,25.1,23.3,49.3,38.5,72
			c15.2,22.7,32.6,43.9,51.9,63.2c-19.4-19.3-36.9-40.5-52.1-63.1c-15.3-22.6-28.2-46.8-38.8-71.9c-10.5-25.1-18.5-51.3-23.9-78
			c-5.4-26.7-8.2-53.9-8.3-81.1c-0.2-27.2,2.3-54.4,7.4-81.2c5.1-26.7,12.8-53,23.1-78.3c10.2-25.3,23-49.6,38-72.4
			c15-22.8,32.4-44.1,51.6-63.6c19.3-19.5,40.4-37.1,63.1-52.5c22.7-15.4,47-28.5,72.4-39.1c25.4-10.6,51.8-18.7,78.8-24.1
			c27-5.4,54.6-8.1,82.1-8.1c27.5,0,55.1,2.6,82.1,8c27,5.4,53.5,13.4,78.8,24c25.4,10.6,49.7,23.6,72.4,38.9
			C779.7,194.5,800.9,212,820.2,231.4z"/>
	</g>
	<g>
		<path class="st0" d="M753.8,297.8c-15.1-15-31.5-28.6-49.2-40.4c-17.7-11.9-36.6-22-56.3-30.1c-19.7-8.2-40.2-14.5-61.1-18.7
			c-20.9-4.2-42.3-6.3-63.7-6.3c-21.4,0-42.7,2-63.7,6.1c-20.9,4.1-41.5,10.4-61.1,18.6c-19.7,8.2-38.5,18.3-56.1,30.3
			c-17.6,11.9-34,25.6-48.9,40.7c-14.9,15.1-28.4,31.6-40,49.3c-11.7,17.7-21.5,36.5-29.4,56.1c-7.9,19.6-13.9,40-17.8,60.7
			c-3.9,20.7-5.8,41.9-5.6,63c0.2,21.1,2.3,42.2,6.5,62.9c4.2,20.7,10.5,41,18.6,60.5c8.1,19.5,18.2,38.3,30,55.9
			c11.8,17.6,25.4,34,40.4,49.1c-15-15-28.7-31.4-40.6-49c-11.9-17.6-22-36.3-30.2-55.8c-8.2-19.5-14.5-39.8-18.7-60.5
			c-4.3-20.7-6.5-41.8-6.6-63c-0.2-21.1,1.6-42.3,5.5-63.1c3.9-20.8,9.8-41.2,17.7-60.9c7.9-19.7,17.8-38.5,29.4-56.3
			c11.7-17.7,25.1-34.3,40.1-49.4c15-15.1,31.4-28.8,49.1-40.8c17.7-11.9,36.6-22.1,56.3-30.3c19.7-8.2,40.3-14.4,61.3-18.5
			c21-4.1,42.4-6.1,63.8-6c21.4,0.1,42.8,2.2,63.8,6.4c21,4.2,41.5,10.5,61.2,18.8c19.7,8.3,38.6,18.4,56.2,30.4
			C722.4,269.1,738.8,282.7,753.8,297.8z"/>
	</g>
	<g>
		<path class="st0" d="M842.3,209.3c-20.8-20.7-43.6-39.5-68.1-55.9c-24.5-16.4-50.6-30.3-77.9-41.5C669,100.6,640.6,92,611.7,86.3
			c-29-5.7-58.5-8.5-88.1-8.4c-29.5,0.1-59.1,3-88,8.8c-29,5.8-57.3,14.6-84.5,26c-27.2,11.4-53.2,25.5-77.6,42
			c-24.4,16.5-47,35.5-67.6,56.4c-20.6,20.9-39.3,43.7-55.4,68.1c-16.2,24.4-29.9,50.4-40.9,77.5c-11,27.1-19.4,55.2-24.9,83.9
			c-5.5,28.7-8.2,57.9-8.1,87.1c0.1,29.2,3,58.4,8.8,87c5.7,28.6,14.3,56.7,25.5,83.7c11.2,27,25,53,41.3,77.3
			c16.3,24.4,35,47.1,55.8,68c-20.8-20.8-39.6-43.5-56-67.8c-16.4-24.3-30.3-50.3-41.6-77.3c-11.3-27-19.9-55.1-25.7-83.8
			c-5.8-28.7-8.7-57.9-8.9-87.1c-0.1-29.2,2.5-58.5,8-87.2c5.5-28.7,13.8-56.9,24.9-84.1c11-27.1,24.7-53.2,40.9-77.7
			c16.2-24.5,34.8-47.4,55.5-68.3c20.7-20.9,43.4-39.9,67.8-56.4c24.4-16.5,50.5-30.6,77.8-42c27.3-11.4,55.7-20.1,84.7-25.9
			c29-5.8,58.6-8.7,88.2-8.8c29.6-0.1,59.2,2.8,88.2,8.5c29,5.7,57.4,14.4,84.7,25.7c27.3,11.3,53.4,25.3,77.9,41.8
			C798.8,169.6,821.6,188.5,842.3,209.3z"/>
	</g>
	<g>
		<path class="st0" d="M776,275.6c-16.5-16.4-34.6-31.3-54-44.3c-19.4-13-40.1-24.1-61.7-33c-21.6-9-44.1-15.8-67-20.4
			c-22.9-4.6-46.4-6.8-69.8-6.9c-23.4,0-46.8,2.2-69.8,6.8c-22.9,4.6-45.4,11.4-67,20.4c-21.6,9-42.2,20.1-61.5,33.2
			c-19.3,13.1-37.2,28.1-53.6,44.6c-16.4,16.5-31.1,34.6-43.9,54c-12.8,19.4-23.6,40-32.3,61.4c-8.7,21.5-15.3,43.8-19.6,66.5
			c-4.3,22.7-6.4,45.9-6.2,69c0.1,23.1,2.5,46.2,7.1,68.9c4.6,22.7,11.4,44.9,20.4,66.3c8.9,21.4,19.9,41.9,32.8,61.2
			c12.9,19.3,27.8,37.3,44.2,53.8c-16.5-16.4-31.4-34.4-44.4-53.7c-13-19.3-24.1-39.8-33.1-61.2c-9-21.4-15.8-43.7-20.5-66.4
			c-4.6-22.7-7-45.9-7.2-69c-0.2-23.2,1.8-46.4,6.1-69.1c4.3-22.8,10.8-45.1,19.5-66.7c8.7-21.5,19.5-42.2,32.3-61.6
			c12.8-19.4,27.6-37.6,43.9-54.2c16.4-16.6,34.4-31.6,53.8-44.7c19.4-13.1,40.1-24.2,61.7-33.2c21.6-9,44.1-15.8,67.1-20.4
			c23-4.6,46.5-6.8,69.9-6.7c23.5,0,46.9,2.3,69.9,7c23,4.6,45.5,11.5,67.1,20.5c21.6,9,42.3,20.2,61.6,33.2
			C741.5,244.2,759.5,259.2,776,275.6z"/>
	</g>
	<g>
		<path class="st0" d="M709.6,342c-12.2-12.1-25.5-23.1-39.8-32.7c-14.3-9.6-29.5-17.8-45.4-24.4c-15.9-6.7-32.5-11.8-49.4-15.2
			c-16.9-3.4-34.2-5.2-51.4-5.3c-17.3-0.1-34.5,1.5-51.5,4.8c-16.9,3.3-33.5,8.3-49.5,14.8c-15.9,6.6-31.2,14.8-45.4,24.4
			c-14.2,9.6-27.5,20.7-39.5,32.9c-12.1,12.2-22.9,25.5-32.4,39.8c-9.4,14.3-17.4,29.5-23.7,45.4c-12.7,31.7-19,65.9-18.6,100
			c0.3,34.1,7.3,68.2,20.6,99.7c6.6,15.8,14.8,30.9,24.3,45.1c9.6,14.2,20.5,27.5,32.7,39.7c-12.2-12.1-23.2-25.4-32.9-39.6
			c-9.6-14.2-17.9-29.3-24.6-45.1c-13.4-31.5-20.5-65.6-20.8-99.8c-0.5-34.2,5.7-68.5,18.4-100.3c6.3-15.9,14.3-31.2,23.7-45.6
			c9.4-14.4,20.3-27.8,32.4-40c12.1-12.2,25.4-23.3,39.7-33c14.3-9.6,29.6-17.8,45.6-24.4c16-6.6,32.6-11.6,49.6-14.8
			c17-3.3,34.3-4.8,51.6-4.7c34.6,0.2,69.2,7.2,101,20.7c15.9,6.7,31.1,15,45.4,24.7C684.2,318.8,697.5,329.8,709.6,342z"/>
	</g>
	<g>
		<path class="st0" d="M864.5,187.1c-22.3-22.2-46.7-42.2-72.9-59.7c-26.2-17.5-54.2-32.3-83.3-44.3c-29.2-12-59.5-21.1-90.5-27.2
			c-31-6.1-62.6-9-94.1-8.9c-31.6,0.1-63.1,3.3-94,9.6c-30.9,6.3-61.2,15.6-90.2,27.8c-29,12.2-56.9,27.2-82.9,44.9
			c-26,17.7-50.2,37.9-72.2,60.2c-22.1,22.3-42,46.7-59.2,72.8c-17.3,26.1-31.9,53.9-43.7,82.8c-11.8,28.9-20.8,59-26.7,89.6
			c-5.9,30.6-8.8,61.8-8.8,93c0.1,31.2,3.1,62.4,9.2,93c6.1,30.6,15.2,60.6,27.2,89.5c11.9,28.9,26.7,56.7,44,82.7
			c17.4,26.1,37.4,50.4,59.5,72.7c-22.3-22.2-42.4-46.4-60-72.5c-17.5-26-32.5-53.7-44.5-82.6c-12.1-28.9-21.3-59-27.5-89.6
			c-6.2-30.7-9.4-61.9-9.5-93.2c-0.2-31.3,2.7-62.6,8.6-93.3c5.9-30.7,14.9-60.9,26.7-89.9c11.8-29,26.5-56.9,43.8-83.2
			c17.3-26.2,37.3-50.7,59.4-73.1c22.1-22.4,46.5-42.7,72.6-60.4c26.1-17.7,54.1-32.8,83.2-45c29.2-12.2,59.6-21.6,90.6-27.8
			c31-6.3,62.7-9.4,94.4-9.4c31.7,0,63.3,3,94.4,9.2c31,6.2,61.5,15.4,90.6,27.5c29.2,12.1,57.1,27.1,83.2,44.7
			C818,144.7,842.3,164.9,864.5,187.1z"/>
	</g>
	<g>
		<path class="st0" d="M798.1,253.5c-18-17.8-37.6-34-58.7-48.1c-21.1-14.1-43.6-26.1-67.1-35.7c-23.5-9.7-47.9-17.1-72.9-22
			c-24.9-4.9-50.4-7.3-75.8-7.3c-25.4,0-50.8,2.6-75.8,7.5c-24.9,5-49.3,12.5-72.7,22.2c-23.4,9.8-45.8,21.9-66.8,36.1
			c-21,14.2-40.4,30.5-58.2,48.5c-17.8,17.9-33.8,37.6-47.7,58.6c-13.9,21-25.7,43.4-35.1,66.7c-9.5,23.3-16.6,47.5-21.3,72.2
			c-4.7,24.7-7,49.8-6.9,74.9c0.1,25.1,2.6,50.2,7.5,74.9c4.9,24.6,12.3,48.8,22,72.1c9.6,23.3,21.5,45.6,35.5,66.6
			c14,21,30.1,40.6,48,58.6c-18-17.9-34.2-37.4-48.4-58.3c-14.2-20.9-26.3-43.3-36-66.5c-9.8-23.3-17.3-47.5-22.3-72.2
			c-5.1-24.7-7.7-49.9-7.9-75.1c-0.5-50.4,9.1-101,28-147.8c9.5-23.4,21.3-45.9,35.2-67.1c13.9-21.1,30-40.9,47.9-59
			c17.9-18,37.5-34.4,58.5-48.7c21.1-14.3,43.6-26.4,67.1-36.2c23.5-9.8,48-17.3,73.1-22.3c25-5,50.6-7.4,76.1-7.4
			c25.5,0,51,2.6,76.1,7.6c25,5,49.5,12.5,73,22.3c23.5,9.8,46,22,67,36.2C760.7,219.3,780.2,235.6,798.1,253.5z"/>
	</g>
	<g>
		<path class="st0" d="M731.7,319.9c-13.6-13.6-28.5-25.9-44.5-36.6c-16-10.7-33-19.9-50.8-27.3c-17.8-7.4-36.3-13.1-55.3-16.9
			c-18.9-3.8-38.2-5.7-57.5-5.8c-19.3-0.1-38.6,1.7-57.6,5.4c-18.9,3.7-37.5,9.3-55.3,16.7c-17.8,7.4-34.8,16.5-50.8,27.3
			c-15.9,10.8-30.7,23.2-44.2,36.8c-13.5,13.6-25.7,28.6-36.2,44.5c-10.5,16-19.4,33-26.6,50.7c-7.1,17.7-12.5,36.1-16,54.9
			c-3.5,18.8-5.1,37.9-5,56.9c0.2,19.1,2.2,38.1,6,56.8c3.8,18.7,9.5,37,16.9,54.7c7.4,17.6,16.5,34.6,27.2,50.5
			c10.7,15.9,23,30.8,36.5,44.4c-13.6-13.6-25.9-28.4-36.7-44.3c-10.8-15.9-20-32.8-27.4-50.4c-14.9-35.3-22.8-73.4-23.1-111.7
			c-0.2-19.1,1.4-38.3,4.9-57.1c3.5-18.8,8.8-37.3,16-55.1c7.1-17.8,16-34.9,26.6-50.9c10.5-16,22.7-31,36.3-44.7
			c13.5-13.7,28.4-26.1,44.4-36.9c16-10.8,33.1-20,51-27.3c17.9-7.4,36.5-13,55.5-16.7c19-3.7,38.4-5.5,57.7-5.4
			c19.4,0.1,38.7,2,57.7,5.9c19,3.8,37.5,9.6,55.3,17c17.8,7.5,34.8,16.7,50.8,27.5C703.3,293.9,718.1,306.3,731.7,319.9z"/>
	</g>
	<g>
		<g>
			<path class="st0" d="M528.6,750.5c-29.7,0-58.7-5.6-86.1-16.7c-28.2-11.4-53.7-28.3-75.8-50.2l0,0c-0.1-0.1-0.3-0.3-0.4-0.4
				c-0.1-0.1-0.3-0.3-0.4-0.4l0,0c-21.9-22.1-38.8-47.6-50.2-75.8c-11.1-27.5-16.8-56.5-16.7-86.3c0-29.4,5.5-57.8,16.4-84.5
				c11-27.2,27.4-51.7,48.5-72.9c21.2-21.1,45.7-37.5,72.8-48.5c26.7-10.9,55.2-16.4,84.5-16.4c0.1,0,0.1,0,0.2,0
				c29.8,0,58.7,5.6,86.1,16.7c28.2,11.4,53.7,28.3,75.9,50.3l0,0l0.8,0.8l0,0c21.9,22.1,38.8,47.6,50.3,75.8
				c11.1,27.5,16.7,56.5,16.7,86.3c0,29.4-5.5,57.8-16.4,84.5c-11,27.2-27.4,51.7-48.5,72.8c-21.2,21.2-45.7,37.5-72.9,48.5
				c-26.7,10.8-55.2,16.4-84.5,16.4C528.8,750.5,528.7,750.5,528.6,750.5z M367,682.4c22.1,22,47.7,39,75.9,50.4
				c27.3,11.1,56.2,16.7,85.8,16.7c0.1,0,0.1,0,0.2,0c29.3,0,57.6-5.5,84.2-16.3c27.1-11,51.5-27.2,72.5-48.3
				c21.1-21.1,37.3-45.5,48.3-72.5c10.8-26.6,16.3-54.9,16.3-84.2c0-29.7-5.6-58.6-16.6-85.9c-11.4-28.3-28.4-53.8-50.4-75.9
				c-22.1-22-47.7-39-75.9-50.4c-27.3-11-56.1-16.6-85.8-16.6c-0.1,0-0.1,0-0.2,0c-29.2,0-57.6,5.5-84.2,16.3
				c-27.1,11-51.5,27.2-72.5,48.3c-21.1,21.1-37.3,45.5-48.3,72.5c-10.8,26.6-16.3,54.9-16.3,84.2c0,29.7,5.6,58.6,16.7,85.9
				C328,634.8,345,660.3,367,682.4z"/>
		</g>
	</g>
</g>
</svg>
