<?xml version="1.0" encoding="utf-8"?>
<!-- Generator: Adobe Illustrator 21.1.0, SVG Export Plug-In . SVG Version: 6.00 Build 0)  -->
<svg version="1.1" id="Layer_1" xmlns="http://www.w3.org/2000/svg" xmlns:xlink="http://www.w3.org/1999/xlink" x="0px" y="0px"
	 viewBox="0 0 360 220" style="enable-background:new 0 0 360 220;" xml:space="preserve" role="img" aria-label="[titleh1 + description]">
<g>
	<titleh1>We Speak Hip Hop</titleh1>
    <description>45 years after the birth of Hip Hop, discover the heirs of the Bronx. 1 disc, 28 journeys.</description>
    <path d="M62.9,114.3c-0.1-0.6-0.4-1.7-1.2-2.4c0,0-1.2-1.2-3-1.3c-0.1-0.6-0.4-1.7-1.2-2.4c0,0-1.3-1.2-3-1.3
		c-0.1-0.6-0.4-1.6-1.2-2.4v-0.1c0,0-1.3-1.2-3-1.3c-0.1-0.7-0.6-2.5-2.2-2.5H23.5v-5h37.6l0.3-2.4H7.8c0,0-0.1,0-0.2,0
		c0.1-0.5,0.6-1.7,2.9-1.9h50.7V89h-49h-0.8c0.1-0.5,0.6-1.7,2.9-2h47v-2.3H15.5h-0.3c0.1-0.6,0.8-1.8,3.4-1.9h42.8v-2.3H19.8h-1
		c0.1-0.5,0.7-1.9,3.4-1.9h39v-2.3H23.6h-1c0,0-1.8,0-3,1.3c0,0-1.2,1.2-1.3,3c-0.6,0.1-1.7,0.4-2.5,1.2c0,0-1.2,1.2-1.3,3
		c-0.6,0.1-1.7,0.4-2.4,1.2c0,0-1.3,1.3-1.3,3.1c-0.6,0.1-1.7,0.4-2.4,1.2H8.3c0,0-1.3,1.3-1.3,3.1c-0.9,0.2-2.7,0.6-2.7,2.2h0.1
		v5.8v1c0,0,0,1.8,1.3,3c0,0,1.2,1.2,3,1.3c0.1,0.6,0.4,1.7,1.2,2.4c0,0,1.2,1.2,3,1.3c0.1,0.6,0.4,1.7,1.2,2.4c0,0,1.3,1.2,3,1.3
		c0.1,0.6,0.4,1.6,1.2,2.4v0.1c0,0,1.3,1.2,3,1.3c0.1,0.7,0.6,2.5,2.2,2.5l24.6-0.1v4.5h-39L9,127.2h54.7c0,0,0.1,0,0.2,0
		c-0.1,0.5-0.6,1.7-2.9,1.9H9.1v2.3h50.2h0.8c-0.1,0.5-0.6,1.7-2.9,2H9.1v2.3H56h0.3c-0.1,0.6-0.8,1.8-3.4,1.9H9.1v2.3h42.5h1
		c-0.1,0.5-0.7,1.9-3.4,1.9H9.1v2.3h38.8h1c0,0,1.8,0,3-1.3c0,0,1.2-1.2,1.3-3c0.6-0.1,1.7-0.4,2.5-1.2c0,0,1.2-1.2,1.3-3
		c0.6-0.1,1.7-0.4,2.4-1.2c0,0,1.3-1.3,1.3-3.1c0.6-0.1,1.7-0.4,2.4-1.2h0.1c0,0,1.3-1.3,1.3-3.1c0.9-0.2,2.5-0.6,2.7-2h0v-5.4v-1
		c0,0,0-1.8-1.3-3C65.9,115.6,64.7,114.4,62.9,114.3z M8.6,105.1v1c-0.5-0.1-1.8-0.7-1.9-3.4v-2.4l1.9-0.6V105.1z M12.8,109.5v0.3
		c-0.6-0.1-1.8-0.7-1.9-3.4v-7.3l1.9-0.6V109.5z M17,112.7v0.8c-0.5-0.1-1.7-0.6-1.9-2.9V97.8l1.9-0.6V112.7z M21.2,117
		c0,0,0,0.1,0,0.2c-0.5-0.1-1.7-0.6-1.9-2.9V96.6l1.9-0.6V117z M46.1,118H23.5v-2h22.8L46.1,118z M46.5,113.7h-23v-2h23.2
		L46.5,113.7z M46.9,109.3H23.5v-2h23.6L46.9,109.3z M47.3,105H23.5v-2h24L47.3,105z M52.3,124.8h-1.9v-20.9c0,0,0-0.1,0-0.2
		c0.5,0.1,1.7,0.6,1.9,2.9V124.8z M56.5,124.8h-1.9v-16.5v-0.8c0.5,0.1,1.7,0.6,1.9,2.9V124.8z M60.7,124.8h-1.9v-13.3v-0.3
		c0.6,0.1,1.8,0.7,1.9,3.4V124.8z M63,124.8v-8.9v-1c0.5,0.1,1.8,0.7,1.9,3.4v6.5H63z"/>
	<path d="M82.5,67.9l14.8-66h-1.8L80.4,68.3c-0.2,0.3-0.3,0.4-0.5,0.4c-0.5-0.1-1.1-0.4-1.6-1.2L93,1.9h-1.9L77.2,64.2l-1-4.6
		L88.6,1.9h-2L75.3,55.1l-0.9-4.5l9.8-48.6h-1.9l-8.9,43.9l-1-4.6l7.3-39.3h-1.9l-6.3,34.6L65.2,7.1h-0.1L65,6.7
		c-0.6-2.5-1.7-4.2-2.7-4.7c0,0-1-0.4-2.3-0.5c-0.3,0-0.7,0-1.1,0h-2h-1.3c-0.2,0-0.5,0-0.7,0c-0.1,0-0.3,0-0.4,0h-2H51
		c-0.2,0-0.5,0-0.7,0c-0.1,0-0.3,0-0.4,0h-2h-0.1h-1.2c-0.2,0-0.5,0-0.7,0c-0.1,0-0.3,0-0.4,0h-2h-0.1h-1.2c-0.2,0-0.5,0-0.7,0
		s-0.3,0-0.5,0l-0.5,0.2C39.4,2.1,39.1,3,39.1,3l-6.9,30L25.7,2h-2.5l12.7,61.6v0.1c0.6,2.6,1.8,4.4,2.8,4.9h-1h-0.1
		c-0.6,0-1.9-0.3-2.5-2.3l-0.7-2.1L21.2,2h-2.5l12.7,61.6v0.1c0.6,2.6,1.8,4.4,2.8,4.9h-0.1H33h-0.1c-0.6,0-1.9-0.3-2.5-2.3
		l-0.7-2.1L16.8,2h-2.5l12.8,61.7c0.6,2.6,1.8,4.4,2.8,4.9h-1.1h-0.1c-0.6,0-1.9-0.3-2.5-2.3l-0.7-2.1L12.3,2H9.8l12.8,61.7
		c0.6,2.6,1.8,4.4,2.8,4.9h-1.1c-0.5,0-1.9-0.2-2.7-2.3l-0.7-2.1L7.9,2H5.3l12.9,62c0.6,2.5,1.7,4.2,2.7,4.7c0,0,1,0.4,2.3,0.5
		c0.3,0,0.7,0,1.1,0h2h1.3c0.2,0,0.5,0,0.7,0c0.1,0,0.3,0,0.4,0h2H32c0.2,0,0.5,0,0.7,0c0.1,0,0.3,0,0.4,0h2h0.1h1.2
		c0.2,0,0.5,0,0.7,0c0.1,0,0.3,0,0.4,0h2h0.1H41c0.2,0,0.5,0,0.7,0s0.3,0,0.5,0l1-0.5h-0.1h-0.2c0.6-0.4,0.8-0.9,0.8-0.9l6.8-32.2
		l5.9,28h0.1l0.1,0.4c0.6,2.5,1.7,4.2,2.7,4.7c0,0,1,0.4,2.3,0.5c0.3,0,0.7,0,1.1,0h2H66c0.2,0,0.5,0,0.7,0c0.1,0,0.3,0,0.4,0h2h1.3
		c0.2,0,0.5,0,0.7,0c0.1,0,0.3,0,0.4,0h2h0.1h1.2c0.2,0,0.5,0,0.7,0c0.1,0,0.3,0,0.4,0h2H78h1.2c0.2,0,0.5,0,0.7,0
		c0.2,0,0.3,0,0.5,0l0,0C82,69.1,82.5,67.9,82.5,67.9z M40.6,4.8l1,0l0.6,3.4l-7.9,34.6l-1.1-5.4L40.6,4.8z M43,12.7l1,5.5
		l-7.6,34.7L35.2,47L43,12.7z M44.8,23.1l0.9,5.2l-7.2,34.9l-1.2-5.6L44.8,23.1z M41.6,68.3c-0.1,0.1-0.2,0.2-0.3,0.3
		c-0.5-0.2-1.2-0.6-1.6-1.7h0.1l6.8-33.4l1.1,6.2L41.6,68.3z M62.7,68.7c-0.5,0-1.9-0.2-2.7-2.3l-0.7-2.1l-12-57.2V7V6.9
		c-0.6-2.6-1.8-4.4-2.8-4.9h1h0.1c0.6,0,1.9,0.3,2.5,2.3L49,6.4l12,57.2v0.2c0.6,2.6,1.8,4.4,2.8,4.9H62.7z M67.2,68.7L67.2,68.7
		c-0.7,0-2-0.3-2.6-2.3l-0.7-2.1l-12-57.2V7V6.9c-0.7-2.5-1.9-4.3-3-4.9H49h1h0.1c0.6,0,1.9,0.3,2.5,2.3l0.7,2.1l12,57.2h0.1v0.2
		c0.7,2.6,1.9,4.4,2.9,4.9H67.2z M71.6,68.7L71.6,68.7c-0.7,0-2-0.3-2.6-2.3l-0.7-2.1l-12-57.2h-0.1V6.9c-0.6-2.6-1.8-4.4-2.8-4.9
		h1.1h0.1c0.6,0,1.9,0.3,2.5,2.3l0.7,2.1l12,57.2v0.1v0.1c0.7,2.6,1.9,4.4,2.9,4.9H71.6z M77.2,68.7h-1.1H76c-0.6,0-1.9-0.3-2.5-2.3
		l-0.7-2.1l-12-57.2h-0.1V6.9C60,4.4,58.8,2.6,57.8,2H59c0.5,0,1.9,0.2,2.7,2.3l0.7,2.1l12,57.2v0.1v0.1
		C74.9,66.4,76.1,68.2,77.2,68.7L77.2,68.7z"/>
	<polygon points="152.2,28.9 152.2,26.7 120.2,26.7 120.2,21.6 156.9,21.6 156.9,19.4 120.2,19.4 120.2,17.5 156.9,17.5 156.9,15.3 
		120.2,15.3 120.2,13.3 156.9,13.3 156.9,11.1 120.2,11.1 120.2,9.2 156.9,9.2 156.9,7 120.2,7 120.2,5.1 156.9,5.1 156.9,2.9 
		120.2,2.9 120.2,2.8 118,2.8 118,26.7 116,26.7 116,2.8 113.8,2.8 113.8,26.7 111.9,26.7 111.9,2.8 109.7,2.8 109.7,26.7 
		107.8,26.7 107.8,2.8 105.6,2.8 105.6,26.7 103.6,26.7 103.6,2.8 101.4,2.8 101.4,26.7 101.4,27 101.4,28.9 101.4,29 152.2,29 	"/>
	<polygon points="103.6,50.6 105.6,50.1 105.6,69.7 107.8,69.7 107.8,49.6 109.7,49.2 109.7,69.7 111.9,69.7 111.9,48.7 113.8,48.2 
		113.8,69.7 116,69.7 116,47.7 118,47.3 118,69.7 120.2,69.7 120.2,69.4 156.9,69.4 156.9,67.2 120.2,67.2 120.2,65.2 156.9,65.2 
		156.9,63 120.2,63 120.2,61.1 156.9,61.1 156.9,58.9 120.2,58.9 120.2,57 156.9,57 156.9,54.8 120.2,54.8 120.2,52.8 156.9,52.8 
		156.9,50.6 120.2,50.6 120.2,45.5 152.2,45.5 152.2,43.3 101.4,43.3 101.4,45.5 101.4,69.7 103.6,69.7 	"/>
	<rect x="101.4" y="39.2" width="50.8" height="2.2"/>
	<rect x="101.4" y="35" width="50.8" height="2.3"/>
	<rect x="101.4" y="30.9" width="50.8" height="2.2"/>
	<rect x="135.6" y="113.7" width="50.8" height="2.2"/>
	<rect x="135.6" y="109.5" width="50.8" height="2.3"/>
	<rect x="135.6" y="105.4" width="50.8" height="2.2"/>
	<polygon points="191.1,127.3 191.1,125.1 154.3,125.1 154.3,120.2 154.4,120 186.4,120 186.4,117.8 135.6,117.8 135.6,120 
		135.6,144.2 137.8,144.2 137.8,124.5 139.7,124.1 139.7,144.2 141.9,144.2 141.9,123.7 143.8,123.3 143.8,144.2 146,144.2 
		146,122.9 148,122.5 148,144.2 150.2,144.2 150.2,122.1 152.1,121.7 152.1,144.2 154.3,144.2 154.3,143.9 191.1,143.9 191.1,141.7 
		154.3,141.7 154.3,139.7 191.1,139.7 191.1,137.5 154.3,137.5 154.3,135.6 191.1,135.6 191.1,133.4 154.3,133.4 154.3,131.5 
		191.1,131.5 191.1,129.3 154.3,129.3 154.3,127.3 	"/>
	<polygon points="191.1,78.8 191.1,76.6 154.3,76.6 154.3,76.5 152.1,76.5 152.1,101.2 150.2,101.2 150.2,76.5 148,76.5 148,101.2 
		146,101.2 146,76.5 143.8,76.5 143.8,101.2 141.9,101.2 141.9,76.5 139.7,76.5 139.7,101.2 137.8,101.2 137.8,76.5 135.6,76.5 
		135.6,101.2 135.6,101.5 135.6,103.4 135.6,103.5 186.4,103.5 186.4,103.4 186.4,101.2 154.3,101.2 154.3,95.3 191.1,95.3 
		191.1,93.1 154.3,93.1 154.3,91.2 191.1,91.2 191.1,89 154.3,89 154.3,87.1 191.1,87.1 191.1,84.9 154.3,84.9 154.3,82.9 
		191.1,82.9 191.1,80.7 154.3,80.7 154.3,78.8 	"/>
	<rect x="84.7" y="76.3" width="2.3" height="68.4"/>
	<rect x="80.5" y="76.3" width="2.3" height="68.4"/>
	<rect x="76.3" y="76.3" width="2.3" height="68.4"/>
	<rect x="72.1" y="76.3" width="2.3" height="68.4"/>
	<rect x="88.9" y="150.4" width="2.3" height="68.4"/>
	<rect x="84.7" y="150.4" width="2.3" height="68.4"/>
	<rect x="80.5" y="150.4" width="2.3" height="68.4"/>
	<rect x="76.3" y="150.4" width="2.3" height="68.4"/>
	<rect x="72.1" y="150.4" width="2.3" height="68.4"/>
	<rect x="284.9" y="76.3" width="2.3" height="68.4"/>
	<rect x="280.7" y="76.3" width="2.3" height="68.4"/>
	<rect x="276.5" y="76.3" width="2.3" height="68.4"/>
	<rect x="272.3" y="76.3" width="2.3" height="68.4"/>
	<rect x="268.1" y="76.3" width="2.3" height="68.4"/>
	<path d="M118.3,117.6c7.3-3.5,12.4-11,12.4-19.7c0-12-9.8-21.8-21.8-21.8H90.3v0.2h-1.4v68.4h2.3v-25h8.8h2.5h1.9h2.5h1.8h0.2
		c0.7,0,1.5,0,2.2-0.1l-0.3,0c2.3-0.2,4.5-0.8,6.5-1.6l-0.4,0.2C117.4,118,117.8,117.8,118.3,117.6z M91.2,107.5h17.7
		c5.3,0,9.6-4.3,9.6-9.6c0-5.3-4.3-9.6-9.6-9.6H91.2v-1.7h17.7c8.7,0,11.2,4.6,11.2,11.2c0,6.2-5,11.2-11.2,11.2H91.2V107.5z
		 M108.9,90.8c5,0,7.7,1.9,7.7,7.1c0,3.9-3.7,7.1-7.7,7.1H91.2v-1.6h17.7c3,0,5.5-2.5,5.5-5.5s-2.5-5.5-5.5-5.5H91.2v-1.6H108.9z
		 M108.9,94.9c2.9,0,4.1,1.4,4.1,3c0,1.7-1.2,3-4.1,3H91.2v-6H108.9z M91.2,111.5h17.7c7.5,0,13.7-6.1,13.7-13.7
		c0-7.5-6.1-13.7-13.7-13.7H91.2v-1.4h17.7c9.5,0,15.3,4,15.3,15.3c0,8.4-6.9,15.3-15.3,15.3H91.2V111.5z M91.2,117.2v-1.6h17.7
		c9.8,0,17.7-8,17.7-17.7c0-9.8-8-17.7-17.7-17.7H91.2v-1.6h17.7c10.7,0,19.3,5.6,19.3,19.3c0,10.7-8.7,19.3-19.3,19.3H91.2z"/>
	<rect x="113" y="150.6" width="2.3" height="68.4"/>
	<rect x="108.8" y="150.6" width="2.3" height="68.4"/>
	<rect x="104.6" y="150.6" width="2.3" height="68.4"/>
	<rect x="100.4" y="150.6" width="2.3" height="68.4"/>
	<path d="M137.2,150.4h-18.6v0.2h-1.4V219h2.3v-25h8.9h2.5h1.8h2.5h1.8h0.2h0.1c0.7,0,1.5,0,2.2-0.1l-0.5,0c2.3-0.2,4.6-0.7,6.6-1.6
		l-0.4,0.2c0.5-0.2,0.9-0.4,1.4-0.6c7.3-3.5,12.4-11,12.4-19.7C159,160.2,149.2,150.4,137.2,150.4z M119.5,181.8h17.7
		c5.3,0,9.6-4.3,9.6-9.6c0-5.3-4.3-9.6-9.6-9.6h-17.7V161h17.7c8.7,0,11.2,4.6,11.2,11.2c0,6.2-5,11.2-11.2,11.2h-17.7V181.8z
		 M137.2,165.1c5,0,7.7,1.9,7.7,7.1c0,3.9-3.7,7.1-7.7,7.1h-17.7v-1.6h17.7c3,0,5.5-2.5,5.5-5.5s-2.5-5.5-5.5-5.5h-17.7v-1.6H137.2z
		 M137.2,169.2c2.9,0,4.1,1.4,4.1,3c0,1.6-1.2,3-4.1,3h-17.7v-6H137.2z M119.5,185.9h17.7c7.5,0,13.7-6.1,13.7-13.7
		c0-7.5-6.1-13.7-13.7-13.7h-17.7V157h17.7c9.5,0,15.3,4,15.3,15.3c0,8.4-6.9,15.3-15.3,15.3h-17.7V185.9z M137.2,191.5h-17.7v-1.6
		h17.7c9.8,0,17.7-8,17.7-17.7c0-9.8-8-17.7-17.7-17.7h-17.7v-1.6h17.7c10.7,0,19.3,5.6,19.3,19.3
		C156.5,182.9,147.8,191.5,137.2,191.5z"/>
	<polygon points="249.7,144.3 226.4,76.6 224.1,76.6 247.4,144.3 	"/>
	<polygon points="253.9,144.3 230.6,76.6 228.3,76.6 251.6,144.3 	"/>
	<polygon points="258.1,144.3 234.8,76.6 232.5,76.6 255.8,144.3 	"/>
	<polygon points="262.3,144.3 239,76.6 236.7,76.6 260,144.3 	"/>
	<path d="M218.5,87.2l1.2,2.1l-19,55h2.3l18.1-52.5l1.2,2.2l-17.4,50.3h2.3l16.5-47.9l1.2,2.2l-15.9,45.7h2.3l15-43.2l1.2,2.2
		l-14.3,41.1h2.3l3.4-9.9h20.8l3.4,9.9h2.3l-23.3-67.7h-2.1h-0.2h-0.1l-23.3,67.7h2.3L218.5,87.2z M222.7,123.9l0.7-1.9h12.2
		l0.7,1.9H222.7z M236.9,126.1l0.7,1.9h-16.3l0.7-1.9H236.9z M224.1,119.7l0.7-1.9h9.3l0.7,1.9H224.1z M225.6,115.6l3.9-11.2
		l3.9,11.2H225.6z M239,132.1h-19.2l0.7-1.9h17.8l0.8,2.2L239,132.1z"/>
	<path d="M290.6,121.6L290.6,121.6l21,22.8h3.1L296,123.9l1-1.8l20.3,22.5h3.1l-22.3-24.4l1-1.8l23.9,26.2h3.1l-25.8-28.3l1-1.8
		l27.4,30.1h3.1l-29.4-32.2l1-1.8l31,33.9v-0.1h3.3l-33.8-36.9l28.4-30.8h-3l-37.4,41c0,0,0,0-0.1,0.1c-0.3-0.5-0.7-1.7,0.9-3.4
		l34.1-37.7h-3l-31.4,34.9l-0.6,0.6c-0.2-0.4-0.7-1.7,0.9-3.4l28.6-32.1h-3L292,106.3l-0.3,0.2c-0.3-0.5-0.6-1.9,1.3-3.7l22.9-26.1
		H313l-20.5,23.8l-0.7,0.6c-0.3-0.5-0.7-1.9,1.3-3.7l17.6-20.5h-2.8l-15.3,17.9l-0.7,0.6c0,0-1.4,1.2-1.4,2.9c0,0-0.1,1.7,1,3.1
		c-0.5,0.4-1.1,1.4-1.1,2.5c0,0-0.1,1.7,1,3.1c-0.4,0.5-1,1.4-1,2.5c0,0-0.2,1.7,1,3.1c-0.5,0.5-1.1,1.4-1.1,2.5h-0.1
		c0,0-0.2,1.7,1,3.1C290.6,118.9,289.6,120.4,290.6,121.6z"/>
	<path d="M59.8,151.7c0,0-0.1,0-0.2,0v-0.1h-1h-2.9c0,0-0.2,0-0.4,0h-1h-2.9c0,0-0.2,0-0.4,0h-1h-2.9c0,0-0.2,0-0.4,0h-1h-2.9
		c0,0-1.8,0-3.1,1.1c-0.9,0.8-1.1,1.9-1.2,2.6V176H25.1v-24.3h-2.2V176H21v-24.3h-2.2V176h-1.9v-24.3h-2.2V176h-1.9v-24.3h-2.2V176
		H8.7v-24.3H6.5V176l-0.1,2.2h48l-1.3,1.7c-0.3,0.1-0.6,0.2-1.1,0.2H6.5v2.2h43.9h0.8c0,0.1-0.1,0.3-0.1,0.4l-0.5,0.6
		c-0.4,0.4-1.1,0.7-2.3,0.8H6.5v2.2h40.7h0.3c-0.1,0.5-0.7,1.8-3.3,1.9H6.5v2.2h36.4h1c-0.1,0.5-0.7,1.8-3.3,1.9H6.5v2.2h0.6l0,0.2
		H6.5v24h2.2v-19l1.9-0.4v19.5h2.2v-20l1.9-0.4v20.4h2.2v-20.9l1.9-0.4v21.4H21v-21.9l1.9-0.4v22.3h2.2v-24l-2.4-0.2h16.6h1
		c0,0,1.8,0,2.9-1.2c0,0,0.4-0.4,0.8-1.2v26.5h2.2v-23.4l1.9-3.1v26.5h2.2v-30.1l1.9-3.1v33.2h2.2v-36.8l1.9-3.1v40h2.2v-40.1
		l-0.7-1.8c0.1-0.2,0.2-0.5,0.2-0.9h-0.4c0.2-0.5,0.4-1.4,0.4-3l0,0v-0.1c0-0.4,0-0.8,0-1.3V156l2.4-0.8v63.6h2.2v-64.3h0
		C62.4,151.6,59.8,151.7,59.8,151.7z M55.8,152.3h1.7l0,0.1c-0.2,0.1-0.3,0.3-0.5,0.4c-0.9,0.9-1.2,2.2-1.2,2.9v0.1
		c0,0.2,0,0.4,0,0.4v16.7l-0.1,0.5c0,0,0.1,0.2,0.1,0.5v0.9c-0.1,0.6-0.4,1.1-1.2,1.1l0,0.1h-0.9v-20.3
		C53.7,154.8,54,152.3,55.8,152.3z M51.5,152.2h1.8c-0.2,0.1-0.5,0.3-0.7,0.5c-0.9,0.8-1.1,1.9-1.2,2.6v0.1c0,0.4,0,0.6,0,0.6v20h-2
		v-20C49.4,156,49.2,152.2,51.5,152.2z M47.2,152.3H49c-0.2,0.1-0.5,0.3-0.7,0.5c-1.4,1.3-1.2,3.3-1.2,3.3V176h-2v-20.3
		C45.1,154.8,45.4,152.3,47.2,152.3z M42.9,152.2h1.8c-0.2,0.1-0.5,0.3-0.7,0.5c-0.9,0.8-1.1,1.9-1.2,2.6v0.1c0,0.4,0,0.6,0,0.6v20
		h-2v-20C40.8,156,40.6,152.2,42.9,152.2z"/>
	<rect x="310.4" y="150.6" width="2.3" height="68.4"/>
	<rect x="306.2" y="150.6" width="2.3" height="68.4"/>
	<rect x="302" y="150.6" width="2.3" height="68.4"/>
	<rect x="297.8" y="150.6" width="2.3" height="68.4"/>
	<path d="M356.4,172.2c0-12-9.8-21.8-21.8-21.8H316v0.2h-1.4V219h2.3v-25h8.8h2.5h1.8h2.5h1.9h0.2h0h0c0.7,0,1.5,0,2.2-0.1l-0.3,0
		c2.3-0.2,4.5-0.8,6.5-1.6l-0.4,0.2c0.5-0.2,0.9-0.4,1.4-0.6C351.3,188.3,356.4,180.8,356.4,172.2z M316.9,181.8h17.7
		c5.3,0,9.6-4.3,9.6-9.6c0-5.3-4.3-9.6-9.6-9.6h-17.7V161h17.7c8.7,0,11.2,4.6,11.2,11.2c0,6.2-5,11.2-11.2,11.2h-17.7V181.8z
		 M334.6,165.1c5,0,7.7,1.9,7.7,7.1c0,3.9-3.7,7.1-7.7,7.1h-17.7v-1.6h17.7c3,0,5.5-2.5,5.5-5.5s-2.5-5.5-5.5-5.5h-17.7v-1.6H334.6z
		 M334.6,169.2c2.9,0,4.1,1.4,4.1,3c0,1.6-1.2,3-4.1,3h-17.7v-6H334.6z M316.9,185.9h17.7c7.5,0,13.7-6.1,13.7-13.7
		c0-7.5-6.1-13.7-13.7-13.7h-17.7V157h17.7c9.5,0,15.3,4,15.3,15.3c0,8.4-6.9,15.3-15.3,15.3h-17.7V185.9z M334.6,191.5h-17.7v-1.6
		h17.7c9.8,0,17.7-8,17.7-17.7c0-9.8-8-17.7-17.7-17.7h-17.7v-1.6h17.7c10.7,0,19.3,5.6,19.3,19.3
		C353.9,182.9,345.2,191.5,334.6,191.5z"/>
	<path d="M221.1,155v-0.5h0c-0.3-2.9-2.8-2.8-2.8-2.8s-0.1,0-0.2,0v-0.1h-1h-2.9c0,0-0.2,0-0.4,0h-1h-2.9c0,0-0.2,0-0.4,0h-1h-2.9
		c0,0-0.2,0-0.4,0h-1h-2.9c0,0-1.8,0-3.1,1.1c-0.9,0.8-1.1,1.9-1.2,2.6V176h-13.4v-24.3h-2.2V176h-1.9v-24.3h-2.2V176h-1.9v-24.3
		h-2.2V176h-1.9v-24.3h-2.2V176h-1.9v-24.3H165V176l-0.1,2.2h48l-1.3,1.7c-0.3,0.1-0.6,0.2-1.1,0.2H165v2.2h43.9h0.8
		c0,0.1-0.1,0.3-0.1,0.4l-0.5,0.6c-0.4,0.4-1.1,0.7-2.3,0.8H165v2.2h40.7h0.3c-0.1,0.5-0.7,1.8-3.3,1.9H165v2.2h36.4h1
		c-0.1,0.5-0.7,1.8-3.3,1.9H165v2.2h0.7l0,0.2H165v24h2.2v-19l1.9-0.4v19.4h2.2v-20l1.9-0.4v20.4h2.2v-20.9l1.9-0.4v21.3h2.2v-21.9
		l1.9-0.4v22.3h2.2v-24l0,0l-2.4-0.2h16.6h1c0,0,1.8,0,2.9-1.2c0,0,0.4-0.4,0.8-1.2l0.1-0.1v26.6h2.2v-23.4l1.9-3.1v26.5h2.2v-30.1
		l1.8-2.9v33.1h2.2V182l1.9-3.1v39.9h2.3v-40.1l-0.8-1.8c0.2-0.2,0.3-0.5,0.3-0.9h-0.4c0.2-0.6,0.5-1.9,0.4-4.4l-0.1,0V156l2.4-0.8
		v63.6h2.2V155L221.1,155C221.1,155,221.1,155,221.1,155z M214.3,152.3h1.8l0,0c-0.2,0.1-0.4,0.3-0.6,0.5c-0.9,0.9-1.2,2.2-1.3,2.9
		v0.1c0,0.2,0,0.4,0,0.4v19.2c-0.2,0.3-0.5,0.5-1,0.5l0,0.1h-1v-20.3C212.2,154.8,212.5,152.3,214.3,152.3z M210,152.2h1.8
		c-0.2,0.1-0.5,0.3-0.7,0.5c-0.9,0.8-1.1,1.9-1.2,2.6v0.1c0,0.4,0,0.6,0,0.6v20h-2v-20C207.9,156,207.7,152.2,210,152.2z
		 M205.7,152.3h1.8c-0.2,0.1-0.5,0.3-0.7,0.5c-1.4,1.3-1.2,3.3-1.2,3.3V176h-2v-20.3C203.6,154.8,203.9,152.3,205.7,152.3z
		 M201.4,152.2h1.8c-0.2,0.1-0.5,0.3-0.7,0.5c-0.9,0.8-1.1,1.9-1.2,2.6v0.1c0,0.4,0,0.6,0,0.6v20h-2v-20
		C199.3,156,199.1,152.2,201.4,152.2z M206.7,186.6L206.7,186.6c0,0,0-0.1,0-0.2V186.6z M202.6,192.1
		C202.6,192.1,202.6,192.1,202.6,192.1L202.6,192.1L202.6,192.1z"/>
	<path d="M258.9,151c-18.7,0-33.9,15.2-33.9,33.9c0,18.7,15.2,33.9,33.9,33.9s34-15.3,33.9-33.9C292.8,166.2,277.6,151,258.9,151z
		 M258.9,216.6c-17.5,0-31.8-14.3-31.8-31.8s14.3-31.8,31.8-31.8c17.6,0,31.8,14.3,31.8,31.8S276.4,216.6,258.9,216.6z"/>
	<path d="M258.9,154.8c-16.5,0-30,13.4-30,30c0,16.5,13.4,30,30,30c16.6,0,30.1-13.4,30-30C288.9,168.3,275.5,154.8,258.9,154.8z
		 M258.9,212.7c-15.4,0-27.9-12.5-27.9-27.9c0-15.4,12.5-27.9,27.9-27.9c15.4,0,27.9,12.5,27.9,27.9
		C286.8,200.2,274.3,212.7,258.9,212.7z"/>
	<path d="M258.9,158.7c-14.4,0-26.1,11.7-26.1,26.1s11.7,26.1,26.1,26.1c14.4,0,26.1-11.7,26.1-26.1S273.3,158.7,258.9,158.7z
		 M258.9,208.8c-13.2,0-24-10.8-24-24s10.8-24,24-24c13.3,0,24,10.8,24,24S272.1,208.8,258.9,208.8z"/>
	<path d="M258.9,162.6c-12.2,0-22.2,10-22.2,22.2s10,22.2,22.2,22.2c12.3,0,22.2-9.9,22.2-22.2C281.1,172.6,271.1,162.6,258.9,162.6
		z M258.9,204.9c-11.1,0-20.1-9-20.1-20.1c0-11.1,9-20.1,20.1-20.1c11.1,0,20.1,9,20.1,20.1C279,195.9,270,204.9,258.9,204.9z"/>
	<path d="M258.9,166.5c-10.1,0-18.3,8.2-18.3,18.3c0,10.1,8.2,18.3,18.3,18.3c10.1,0,18.3-8.2,18.3-18.3S269,166.5,258.9,166.5z
		 M258.9,201c-8.9,0-16.2-7.3-16.2-16.2c0-8.9,7.3-16.2,16.2-16.2c8.9,0,16.2,7.3,16.2,16.2S267.8,201,258.9,201z"/>
</g>
</svg>
