<?xml version="1.0" encoding="utf-8"?>
<!-- Generator: Adobe Illustrator 21.1.0, SVG Export Plug-In . SVG Version: 6.00 Build 0)  -->
<svg version="1.1" id="Layer_1" xmlns="http://www.w3.org/2000/svg" xmlns:xlink="http://www.w3.org/1999/xlink" x="0px" y="0px"
	 viewBox="0 0 1796 438" style="enable-background:new 0 0 1796 438;" xml:space="preserve">
<style type="text/css">
	.st0{fill:#FFFFFF;}
</style>
<g>
	<path class="st0" d="M450.7,361.8c-7.3-8.9-13.9-17-20.8-24.9c-1.1-1.3-3.8-1.8-5.7-1.8c-33.3-0.1-66.7-0.1-100-0.1
		c-3,0-6-0.1-8.9-0.7c-15.5-3.1-23.8-12.8-23.8-27.5c0-14.9,8.6-25.1,23.9-28.2c2.9-0.6,5.9-0.9,8.9-0.9c23.2-0.1,46.3,0,69.5,0
		c1.8,0,3.6,0,5.3,0c-1.9-8.6-3.6-16.7-5.7-24.7c-0.3-1.2-2.1-2.4-3.5-3c-1.1-0.5-2.6-0.1-4-0.1c-47.3,0-94.6,0.1-142-0.1
		c-4.4,0-9-0.7-13.2-2c-13.1-4.1-19.8-14-19.4-28c0.4-12.8,7.7-22.1,20.6-25.5c3.8-1,7.9-1.4,11.8-1.4c47.7-0.1,95.3-0.1,143,0
		c4.4,0,5.9-1.2,6.6-5.6c1.3-8.5,3.4-16.9,5.3-25.7c-2,0-3.8,0-5.6,0c-23.8,0-47.7,0.1-71.5,0c-14-0.1-25.3-7.9-28.9-19.7
		c-6.2-20.1,7.4-37.3,29.7-37.4c33.3-0.1,66.7-0.1,100,0.1c4.1,0,6.6-1.4,9.1-4.6c6.1-7.8,12.7-15.3,19.4-23.3
		c-1.8-0.1-3.4-0.2-5-0.2c-16,0-32,0.4-48-0.2c-11.2-0.4-20.8-4.9-26.2-15.5c-5-10-4.6-20.1,1.7-29.4c6.3-9.3,16-12.1,26.6-12.1
		c56.7-0.1,113.3-0.1,170-0.1c9.5,0,19-0.1,28.5,0.3c34,1.4,65.6,11.1,94.3,29.2c49,30.8,81.8,74.2,92.8,131.2
		c15.3,79.5-11.3,145-73.2,196.2c-29.5,24.4-63.9,37.9-101.9,42.2c-6.4,0.7-13,1.1-19.4,1.1c-63.7,0.1-127.3,0-191,0
		c-15.3,0-26.9-7.8-30.5-20.4c-5.4-19.2,8.7-36.9,29.8-37.1c15.2-0.2,30.3,0,45.5,0C446.6,361.8,448.3,361.8,450.7,361.8z
		 M736.3,219.4c0.2-79-66.6-146.3-145.6-146.6c-78.1-0.3-145.6,66.6-146.5,143.7c-0.9,80,64.6,147.3,143.1,149
		C667.4,367.3,735.9,300.2,736.3,219.4z"/>
	<path class="st0" d="M1134.3,134.3c-12.5,16.6-25,33.2-37.5,49.9c-21.4,28.5-42.7,57.1-64.3,85.5c-12.7,16.7-34,16.9-46.7,0.3
		c-22.1-29-43.7-58.4-65.6-87.6c-11.9-15.9-23.7-31.7-36.9-47.5c0,1.8,0,3.6,0,5.4c0,83.3,0,166.6,0,250c0,13.3-9.2,25.1-21.9,28.2
		c-12.6,3.1-26.2-2.7-32.1-14.5c-2.1-4.2-3.5-9.2-3.5-13.8c-0.2-114-0.2-228-0.1-341.9c0-13.4,7.9-24.1,20.1-27.9
		c12.5-3.9,24.1,0.1,32.1,10.9c42.9,57.2,85.7,114.3,128.6,171.5c0.7,0.9,1.5,1.8,2.5,2.9c11-14.6,21.7-28.9,32.6-43.3
		c33.1-43.9,66.1-87.8,99.2-131.7c7.8-10.4,19.7-14.3,31.9-10.3c11.8,3.8,19.4,14.5,19.5,27.4c0,48.8,0,97.7,0,146.5
		c0,65.5,0,131,0,196.5c0,12.3-7.4,22.8-18.7,27c-11.3,4.2-23.7,0.9-31.7-8.5c-4.9-5.7-6.5-12.5-6.5-19.9c0.1-49.7,0.1-99.3,0.1-149
		c0-33.5,0-67,0-100.5c0-1.6,0-3.2,0-4.8C1135,134.5,1134.6,134.4,1134.3,134.3z"/>
	<path class="st0" d="M1291.3,76.3c0,38.5,0,76.2,0,114.6c2.3,0,4.2,0,6.2,0c39.3,0,78.7-0.1,118,0c19.9,0.1,33.2,17.2,28.2,35.7
		c-3.3,12.1-14.5,20.3-28.2,20.3c-39.3,0.1-78.7,0-118,0c-2,0-3.9,0-6.2,0c0,38.5,0,76.4,0,114.8c2.4,0,4.6,0,6.7,0
		c51,0,102-0.1,153,0c19.2,0,33.4,19.7,27.4,37.6c-4,11.9-15.2,19.7-28.9,19.8c-22.8,0.1-45.7,0-68.5,0c-38.8,0-77.7,0-116.5,0
		c-15.6,0-26.8-8.1-30.2-21.8c-0.6-2.4-0.7-4.9-0.7-7.4c0-114,0-228,0-342c0-17,12.3-29.3,29.3-29.3c62.3-0.1,124.7,0,187,0
		c16.5,0,29.6,12.5,29.7,28.1c0.1,16.2-12.9,29.5-29.5,29.5c-50.8,0.1-101.7,0-152.5,0C1295.6,76.3,1293.6,76.3,1291.3,76.3z"/>
	<path class="st0" d="M79.9,239c0,3.3,0,5.1,0,6.8c0,48,0,96,0,144c0,15.4-9.2,26.4-24.2,29.1c-15.9,2.9-32.3-10-33.1-26.2
		c-0.1-1,0-2,0-3c0-113.8,0-227.7,0-341.5c0-13.4,7.9-24.2,20.5-28.1c12-3.8,24.8,1,32.4,11.9c3.7,5.3,4.5,11.3,4.5,17.6
		c0,47.5,0,95,0,142.5c0,1.9,0,3.8,0,7.2c6.9-7.6,12.9-14,18.8-20.5c45.3-49.8,90.6-99.6,136-149.3c14.5-15.9,38.2-13.4,48.1,4.9
		c5.6,10.4,3.7,23.2-5.4,33.2c-17.8,19.6-35.8,39.1-53.6,58.6c-27.6,30.1-55.1,60.3-82.6,90.4c-0.7,0.7-1.2,1.5-2.1,2.5
		c8.4,9.2,16.6,18.3,24.9,27.4c37.6,41.1,75.2,82,112.6,123.2c7.6,8.4,11.9,18.4,7.8,29.9c-3.8,10.8-11.8,17.3-23,19.2
		c-10.8,1.7-19.8-2.8-26.8-10.4C184.1,353.4,133.9,298.2,83.6,243C82.8,242,81.8,241.1,79.9,239z"/>
	<path class="st0" d="M1670.2,76.3c0,2.7,0,4.8,0,6.9c0,102,0,204,0,306c0,16.4-10.2,27.9-26.3,29.8c-15,1.8-29.7-10.8-30.4-25.9
		c-0.1-2.5-0.1-5-0.1-7.5c0-100.8,0-201.6,0-302.5c0-2.1,0-4.2,0-6.9c-2.5,0-4.4,0-6.4,0c-22.7,0-45.3,0.2-68-0.1
		c-19.3-0.2-33.4-18.6-28.3-36.7c3.4-12.1,15.2-20.9,28.6-20.9c41,0,82,0,123,0c27.3,0,54.7-0.1,82,0c19.8,0.1,33.2,17.6,28.2,36.4
		c-3.2,12.2-15.2,21.1-28.9,21.2c-22.5,0.1-45,0-67.5,0C1674.3,76.3,1672.5,76.3,1670.2,76.3z"/>
</g>
</svg>
