<?xml version="1.0" encoding="utf-8"?>
<!-- Generator: Adobe Illustrator 21.1.0, SVG Export Plug-In . SVG Version: 6.00 Build 0)  -->
<svg version="1.1" id="Layer_1" xmlns="http://www.w3.org/2000/svg" xmlns:xlink="http://www.w3.org/1999/xlink" x="0px" y="0px"
	 viewBox="0 0 50 50" style="enable-background:new 0 0 50 50;" xml:space="preserve">
<style type="text/css">
	.st0{fill:#020203;}
	.st1{fill:#FFFFFF;}
</style>
<ellipse transform="matrix(0.9994 -3.520343e-02 3.520343e-02 0.9994 -0.8646 0.8956)" class="st0" cx="25" cy="25" rx="23.5" ry="23.5"/>
<path class="st1" d="M15.9,14.8h18.2c0.9,0,1.7,0.3,2.4,1c0.7,0.7,1,1.5,1,2.4v13.6c0,0.9-0.3,1.7-1,2.4c-0.7,0.7-1.5,1-2.4,1H15.9
	c-0.9,0-1.7-0.3-2.4-1c-0.7-0.7-1-1.5-1-2.4V18.2c0-0.9,0.3-1.7,1-2.4C14.2,15.1,15,14.8,15.9,14.8L15.9,14.8z M35.2,31.8V19.4
	L25.7,27c-0.2,0.2-0.4,0.2-0.7,0.2c-0.3,0-0.5-0.1-0.7-0.2l-9.5-7.6v12.4c0,0.3,0.1,0.6,0.3,0.8c0.2,0.2,0.5,0.3,0.8,0.3h18.2
	c0.3,0,0.6-0.1,0.8-0.3C35.1,32.4,35.2,32.1,35.2,31.8L35.2,31.8z M34.1,17H15.9c-0.1,0-0.2,0-0.4,0.1l9.5,7.6l9.5-7.6
	C34.3,17.1,34.2,17,34.1,17L34.1,17z"/>
</svg>
