<?xml version="1.0" encoding="utf-8"?>
<!-- Generator: Adobe Illustrator 21.1.0, SVG Export Plug-In . SVG Version: 6.00 Build 0)  -->
<svg version="1.1" id="Calque_1" xmlns="http://www.w3.org/2000/svg" xmlns:xlink="http://www.w3.org/1999/xlink" x="0px" y="0px"
	 viewBox="0 0 200 94.4" style="enable-background:new 0 0 200 94.4;" xml:space="preserve">
<style type="text/css">
	.st0{fill:#FFFFFF;}
</style>
<g>
	<path class="st0" d="M38.5,62.9c-0.1,0.1,0,0.2,0,0.2c0,0.1,0.1,0.2,0.1,0.3c0.1,0.2,0.2,0.4,0.3,0.7c0,0.1,0.1,0.1,0.1,0.1h0.1
		c0-0.2,0-0.4-0.1-0.5C38.8,63.4,38.7,63.1,38.5,62.9z"/>
	<path class="st0" d="M39.1,64.2L39.1,64.2L39.1,64.2L39.1,64.2z"/>
	<path class="st0" d="M36.9,59.2L36.9,59.2L36.9,59.2L36.9,59.2L36.9,59.2L36.9,59.2L36.9,59.2L36.9,59.2z"/>
	<path class="st0" d="M36.4,58.1c0-0.1-0.1-0.1-0.2-0.1c0,0.4,0.1,0.7,0.3,1c0.1,0.1,0.2,0.2,0.3,0.3c-0.1-0.3-0.2-0.6-0.3-0.9
		C36.5,58.2,36.5,58.1,36.4,58.1z"/>
	<path class="st0" d="M39.1,64.2c0,0.1,0,0.1,0,0.2c0.1,0.4,0.3,0.7,0.5,1c0,0,0,0,0.1,0c0,0,0.1-0.1,0-0.1
		C39.5,65,39.4,64.6,39.1,64.2C39.1,64.3,39.1,64.3,39.1,64.2z"/>
	<path class="st0" d="M39.1,64.2L39.1,64.2L39.1,64.2L39.1,64.2z"/>
	<path class="st0" d="M48.7,78.3C48.7,78.3,48.8,78.3,48.7,78.3C48.8,78.3,48.8,78.3,48.7,78.3C48.7,78.2,48.7,78.3,48.7,78.3z"/>
	<path class="st0" d="M48.9,78.9C48.9,79,49,79,48.9,78.9L48.9,78.9c0-0.3-0.1-0.4-0.3-0.6C48.8,78.5,48.9,78.7,48.9,78.9z"/>
	<path class="st0" d="M43.6,72.9L43.6,72.9c0,0.1,0,0.2,0.1,0.3c0,0,0,0,0.1,0l0,0C43.8,73,43.7,72.9,43.6,72.9L43.6,72.9z"/>
	<path class="st0" d="M48.6,78.1L48.6,78.1L48.6,78.1L48.6,78.1z"/>
	<path class="st0" d="M48.4,77.8L48.4,77.8C48.4,77.8,48.3,77.9,48.4,77.8c0,0.2,0,0.3,0.2,0.3C48.6,78,48.5,77.9,48.4,77.8z"/>
	<path class="st0" d="M56.6,85.7c0-0.1,0-0.2-0.1-0.3l0,0l0,0l0,0l0,0C56.5,85.5,56.5,85.6,56.6,85.7z"/>
	<path class="st0" d="M36.9,59.2L36.9,59.2c0,0.1,0,0.2,0.1,0.2C37,59.4,37,59.4,36.9,59.2C36.9,59.3,36.9,59.3,36.9,59.2z"/>
	<path class="st0" d="M45.3,74.9C45.3,74.9,45.2,74.9,45.3,74.9C45.2,74.9,45.2,74.9,45.3,74.9C45.3,75,45.3,75,45.3,74.9L45.3,74.9
		L45.3,74.9z"/>
	<path class="st0" d="M45.8,76L45.8,76L45.8,76C45.8,76.1,45.8,76.1,45.8,76L45.8,76L45.8,76L45.8,76L45.8,76z"/>
	<path class="st0" d="M45.8,75.9C45.7,75.9,45.8,75.9,45.8,75.9C45.8,76,45.8,76,45.8,75.9C45.8,76,45.8,76,45.8,75.9L45.8,75.9z"/>
	<path class="st0" d="M36.5,56.7L36.5,56.7L36.5,56.7L36.5,56.7L36.5,56.7L36.5,56.7L36.5,56.7L36.5,56.7z"/>
	<path class="st0" d="M36.4,56.7L36.4,56.7L36.4,56.7L36.4,56.7z"/>
	<path class="st0" d="M36.5,56.8L36.5,56.8L36.5,56.8z"/>
	<path class="st0" d="M40.5,66L40.5,66L40.5,66z"/>
	<path class="st0" d="M51.9,82.1L51.9,82.1C51.9,82.1,51.8,82.1,51.9,82.1C51.8,82.1,51.9,82.1,51.9,82.1L51.9,82.1L51.9,82.1
		L51.9,82.1L51.9,82.1L51.9,82.1z"/>
	<path class="st0" d="M51.7,82L51.7,82L51.7,82L51.7,82L51.7,82L51.7,82L51.7,82L51.7,82z"/>
	<path class="st0" d="M48.6,78.1c0.1,0,0.1,0.1,0.2,0.1l0,0C48.7,78.2,48.6,78.2,48.6,78.1L48.6,78.1z"/>
	<path class="st0" d="M45.2,74.9L45.2,74.9L45.2,74.9L45.2,74.9L45.2,74.9L45.2,74.9L45.2,74.9L45.2,74.9L45.2,74.9z"/>
	<path class="st0" d="M149.7,66.8c0,2.5-1.3,4-3.7,4c-2.3,0-3.5-1.4-3.5-4V17.2h-8v49.2c0,7.1,5,11.9,11.5,11.9s11.3-4.8,11.3-11.9
		V17.2h-7.6V66.8z"/>
	<polygon class="st0" points="174.2,59.9 169.7,17.2 161.6,17.2 170.1,77.4 178,77.4 186.7,17.2 179.1,17.2 	"/>
	<polygon class="st0" points="115.9,22.4 115.9,22.4 115.9,22.4 115.9,22.4 115.9,22.4 115.9,22.4 	"/>
	<path class="st0" d="M109.8,11.1L109.8,11.1L109.8,11.1L109.8,11.1z"/>
	<path class="st0" d="M130.5,46.7C130.5,46.7,130.5,46.6,130.5,46.7c0-0.4-0.1-0.7-0.1-1.1c0-0.2,0-0.4-0.1-0.6
		c-0.1-0.8-0.2-1.7-0.5-2.5c-0.1-0.5-0.2-0.9-0.3-1.4c0-0.1-0.1-0.2-0.1-0.4c0-0.1-0.1-0.3-0.1-0.4c-0.2-0.6-0.4-1.3-0.8-1.8
		c-0.2-0.2-0.3-0.5-0.5-0.7c-0.4-0.6-0.7-1.2-1-1.9c-0.1-0.3-0.2-0.5-0.3-0.8c-0.2-0.3-0.3-0.7-0.5-1c-0.2-0.4-0.4-0.7-0.6-1
		c0-0.1-0.1-0.2-0.2-0.3c-0.1-0.2-0.3-0.3-0.4-0.5s-0.3-0.2-0.4-0.2s-0.1,0-0.2,0c-0.2,0-0.3,0-0.4-0.1c-0.3-0.2-0.5-0.4-0.8-0.6
		c-0.3-0.3-0.7-0.5-1-0.7c-0.2-0.1-0.3-0.2-0.5-0.2c-0.1,0-0.2,0-0.4-0.1c-0.1-0.1-0.3-0.1-0.4-0.2c-0.4-0.2-0.8-0.3-1.2-0.6h-0.1
		c-0.1,0-0.1,0-0.2,0.1c-0.1,0-0.1,0.2,0,0.2c0.1,0.1,0.1,0.2,0.2,0.2c0.1,0.1,0.2,0.3,0.2,0.4c0,0.4,0.1,0.8,0.1,1.2
		c0,0.9,0,1.7-0.1,2.6c0,0.6-0.1,1.3-0.1,1.9c0,0.2,0,0.3,0,0.5c0.1,0.3,0,0.6,0,0.9c0,0.5-0.1,1-0.1,1.6c0,0.1,0,0.1,0,0.2
		c0,0.3-0.1,0.7-0.1,1s0,0.6-0.1,0.9c-0.1,0.6-0.2,1.1-0.2,1.7c-0.1,0.6-0.2,1.2-0.2,1.9c0,0.4-0.1,0.9-0.2,1.3
		c-0.1,0.3-0.1,0.5-0.1,0.8c-0.1,0.5-0.1,1-0.2,1.4c0,0,0,0,0,0.1c0,0.4-0.1,0.8,0,1.2v0.1c-0.1,0.9-0.3,1.9-0.5,2.8
		c-0.1,0.8-0.3,1.6-0.5,2.3c-0.2,0.9-0.3,1.7-0.6,2.6c-0.1,0.3-0.2,0.6-0.2,0.9c0,0.1,0,0.2-0.1,0.4c-0.2,0.5-0.4,1.1-0.5,1.7
		c-0.2,0.7-0.4,1.4-0.7,2.1c-0.1,0.3-0.2,0.5-0.3,0.8c-0.2,0.6-0.4,1.1-0.6,1.7c-0.4,1.1-0.9,2.2-1.5,3.3c-0.2,0.3-0.3,0.6-0.5,1
		v0.1c0,0,0,0,0.1,0c0.1-0.1,0.2-0.1,0.2-0.2c0.1-0.4,0.4-0.7,0.6-1c0.1-0.1,0.1-0.3,0.2-0.4c0,0,0,0,0.1,0c0,0,0,0,0,0.1
		c0,0.2-0.1,0.4-0.2,0.6c-0.3,0.4-0.5,0.8-0.7,1.3c-0.1,0.2-0.2,0.3-0.3,0.4c0,0-0.1,0-0.2,0c0-0.1-0.1-0.2-0.1-0.3
		c0,0,0-0.1-0.1-0.1c0,0,0,0-0.1,0c-0.2,0.3-0.4,0.7-0.6,1c-0.3,0.5-0.6,1-0.9,1.5c-0.3,0.4-0.6,0.9-0.9,1.4
		c-0.1,0.3-0.3,0.6-0.5,0.8c-0.4,0.4-0.8,0.9-1.1,1.4c-0.2,0.3-0.5,0.6-0.8,0.9c-0.1,0.1-0.2,0.1-0.2,0.2c-0.2,0.3-0.5,0.5-0.8,0.8
		c-0.3,0.2-0.5,0.5-0.7,0.8c-0.1,0.2-0.3,0.4-0.5,0.5c-0.3,0.3-0.7,0.6-1.1,0.9s-0.7,0.6-1.1,0.8c-0.8,0.5-1.5,1.1-2.4,1.5
		c-0.1,0-0.1,0.1-0.2,0.1c-0.7,0.4-1.4,0.8-2.1,1.1c-0.3,0.1-0.6,0.2-0.9,0.4c-0.4,0.2-0.8,0.4-1.2,0.5c-0.1,0-0.3,0.1-0.4,0.2
		c-0.2,0.2-0.4,0.4-0.7,0.5c-0.4,0.2-0.8,0.4-1.2,0.5c-0.2,0.1-0.4,0.1-0.4,0.4c0,0.1-0.1,0.2-0.2,0.2c-0.1,0.1-0.3,0.1-0.4,0.1
		c-0.3,0.1-0.7,0.1-1,0.3c-0.1,0.1-0.3,0.1-0.4,0.1c-0.4,0-0.7,0.2-1.1,0.2c-0.4,0.2-0.8,0.2-1.1,0.5c-0.2,0.1-0.4,0.2-0.6,0.3
		c-0.4,0-0.8,0.2-1.2,0.2c-0.2,0-0.4,0.1-0.6,0.1c-0.5,0-1,0-1.5,0c-0.6,0-1.3,0-1.9-0.1c-0.1,0-0.2,0-0.2,0c-0.2,0-0.3,0-0.5,0.1
		c-0.1,0-0.3,0-0.4,0.1c-0.2,0.1-0.4,0.1-0.6,0.1c-0.3,0-0.6,0-0.9-0.1c-0.6-0.1-1.1-0.2-1.7-0.1c-0.1,0-0.3,0-0.4,0
		c-0.4-0.1-0.8-0.1-1.2-0.2c-0.1,0-0.2,0-0.3,0c-0.2,0-0.4,0-0.6-0.1c-0.5-0.1-1-0.2-1.5-0.3c-0.1,0-0.1,0-0.2-0.1
		c-0.1,0-0.2-0.1-0.2-0.2c-0.1-0.1-0.1-0.1-0.2-0.1c0.5-0.1,0.4-0.1,0.2-0.1c-0.1,0-0.2,0-0.3-0.1c-0.3-0.1-0.9-0.2-1.2-0.4
		c-0.3-0.1-0.6-0.2-0.9-0.3c-0.1-0.1-0.3-0.1-0.4-0.1c0,0-0.1,0-0.2,0c-0.4-0.1-0.7-0.3-1.1-0.5c-0.1-0.1-0.2-0.1-0.4-0.1
		c-0.1,0-0.3,0-0.4-0.1c-0.5-0.2-0.9-0.4-1.4-0.6c-0.3-0.1-0.5-0.3-0.8-0.3c-0.2,0-0.3-0.1-0.5-0.2c-0.2,0-0.4,0-0.5-0.1
		c-0.4-0.2-0.8-0.3-1.1-0.5c-0.6-0.3-1.2-0.6-1.8-1c-0.3-0.2-0.6-0.3-0.9-0.5c-0.6-0.4-1.1-0.8-1.7-1.2c-0.2-0.1-0.4-0.3-0.6-0.4
		c-0.8-0.6-1.6-1.3-2.3-2s-1.5-1.5-2.2-2.2c-0.3-0.3-0.6-0.7-1-1c-0.1-0.1-0.2-0.2-0.3-0.3c-0.2-0.3-0.5-0.6-0.7-0.8
		c-0.2-0.2-0.3-0.4-0.5-0.6c-0.7-0.8-1.3-1.6-1.9-2.5c-0.1-0.1-0.1-0.2-0.2-0.3c-0.3-0.3-0.4-0.6-0.6-1c-0.1-0.2-0.2-0.3-0.3-0.5
		S50.1,69,50,68.8c-0.1-0.1-0.1-0.3-0.3-0.3c-0.2-0.1-0.3-0.3-0.3-0.5c0-0.1-0.1-0.3-0.1-0.4c-0.1-0.4-0.2-0.8-0.5-1.2
		c-0.1-0.2-0.3-0.5-0.4-0.8c-0.2-0.6-0.4-1.2-0.7-1.7c-0.1-0.2-0.1-0.3-0.2-0.5c-0.1-0.5-0.2-0.9-0.4-1.4c-0.2-0.6-0.3-1.1-0.5-1.7
		c0-0.2-0.1-0.3-0.2-0.5c-0.1-0.2-0.2-0.3-0.3-0.5c-0.2-0.4-0.4-0.8-0.5-1.2c-0.1-0.8-0.3-1.6-0.4-2.4c0-0.1,0-0.2,0-0.2
		c0-0.5-0.1-1-0.2-1.4c-0.1-0.4-0.1-0.7-0.1-1.1c0-0.1,0-0.3,0-0.4c-0.1-0.4-0.1-0.7-0.1-1.1c0-0.5,0-0.9,0-1.4c0-0.3,0-0.5,0-0.8
		c0-0.1,0-0.2,0-0.3c0-0.6,0-1.1,0.1-1.7c0.1-0.5,0.2-0.9,0.5-1.3c0.3-0.3,0.4-0.7,0.5-1.1c0.1-0.5,0.2-0.9,0.3-1.4
		c0.1-0.4,0.1-0.8,0.2-1.2c0-0.2,0-0.4,0-0.6c-0.1-0.2-0.1-0.5-0.1-0.7c0-0.1,0-0.2,0-0.3c-0.1-0.3-0.1-0.7-0.1-1.1
		c0-0.5,0-1,0.1-1.5s0.3-1,0.4-1.6c0.1-0.6,0.3-1.3,0.4-1.9c0-0.2,0.1-0.4,0.2-0.5c0.1-0.3,0.2-0.5,0.2-0.8s0.1-0.6,0.3-0.9
		c0.1-0.3,0.2-0.6,0.3-0.9c0.2-0.5,0.4-1,0.6-1.5c0-0.1,0.1-0.2,0.2-0.3c0.3-0.4,0.5-0.9,0.7-1.4c0.1-0.2,0.2-0.4,0.2-0.6
		c0.1-0.3,0.2-0.6,0.4-0.9c0.3-0.4,0.4-0.9,0.7-1.3v-0.1c0-0.3,0.2-0.5,0.4-0.7s0.3-0.5,0.5-0.7c0.3-0.3,0.5-0.7,0.7-1
		c0.1-0.3,0.3-0.6,0.6-0.8c0.2-0.2,0.3-0.4,0.4-0.6c0-0.1,0.1-0.2,0.2-0.2c0.2-0.1,0.3-0.3,0.3-0.4c0.1-0.2,0.1-0.3,0.3-0.4
		c0.3-0.2,0.5-0.4,0.6-0.7c0.1-0.1,0.1-0.2,0.2-0.3c0.2-0.2,0.5-0.5,0.6-0.8c0-0.1,0.1-0.1,0.1-0.2c0.2-0.2,0.4-0.5,0.6-0.7
		c0.2-0.3,0.5-0.6,0.7-0.9c0.1-0.1,0.2-0.2,0.4-0.1c0.1,0,0.1,0,0.2-0.1c0.1-0.1,0.2-0.3,0.2-0.4c0-0.2,0.2-0.4,0.3-0.5
		s0.2-0.1,0.2-0.3c0-0.1,0.1-0.1,0.1-0.2c0.7-0.5,1.3-1.1,2-1.6c0.3-0.2,0.6-0.5,1-0.7c0.2-0.1,0.4-0.2,0.5-0.3
		c0.6-0.4,1.1-0.8,1.7-1.1c1-0.6,2.1-1.1,3.1-1.8c0,0,0,0,0.1,0c0.3-0.2,0.7-0.4,1.1-0.5c0.3-0.1,0.6-0.2,0.9-0.4
		c0.7-0.3,1.5-0.6,2.2-0.8c1.2-0.4,2.4-0.7,3.5-1c0.6-0.2,1.3-0.3,2-0.4s1.4-0.2,2-0.3c0.8-0.1,1.7-0.2,2.6-0.2
		C81.4,6,81.6,6,81.8,6c0.8,0,1.6,0,2.4,0c1,0,2.1,0.1,3.1,0.2c0.8,0.1,1.7,0.2,2.5,0.5c0.1,0,0.1,0,0.2,0c0.7,0.2,1.4,0.3,2.1,0.5
		c0.8,0.2,1.7,0.5,2.5,0.8c0.7,0.2,1.3,0.5,2,0.8C96.8,8.9,97,9,97.3,9.1c0.7,0.3,1.5,0.7,2.2,1.1c0.2,0.1,0.4,0.3,0.6,0.2
		c0.1,0,0.2,0.1,0.2,0.1c0.2,0.1,0.3,0.2,0.5,0.3h0.1c0.3-0.2,0.5-0.1,0.8,0c0.3,0.2,0.6,0.4,0.9,0.6c0.1,0.1,0.2,0.2,0.3,0.3
		c0,0.1,0.1,0.2,0.2,0.2s0.2,0.1,0.4,0.1c0.4,0.2,0.8,0.5,1.1,0.8c0.1,0.3,0.3,0.4,0.5,0.6c0.1,0.1,0.3,0.2,0.4,0.2s0.2,0.1,0.2,0.1
		c0.2,0.2,0.4,0.4,0.6,0.5c0.1,0.1,0.2,0.2,0.4,0.2c0.2,0,0.3,0.2,0.5,0.3c0.1,0.1,0.1,0.2,0.1,0.3s0,0.2,0.1,0.2
		c0,0.1,0.1,0.1,0.2,0.1l0,0c0.1-0.1,0.2-0.1,0.3,0c0.2,0.2,0.4,0.3,0.6,0.6c0.1,0.1,0.2,0.1,0.2,0.2s0,0.2,0,0.2s0,0.1,0.1,0.1
		c0.2,0.2,0.4,0.5,0.5,0.8c0.1,0.2,0.3,0.5,0.5,0.7c0.1,0,0.1,0,0.2,0l0.1-0.1c0.1-0.1,0.2-0.1,0.2,0s0,0.2,0.1,0.3
		c0.2,0.2,0.3,0.4,0.5,0.6c0.1,0.1,0.1,0.1,0.2,0.1s0.1,0,0.2,0c0.2,0.4,0.5,0.7,0.8,1c0.1,0.1,0.3,0.2,0.4,0.4
		c0.3,0,0.4,0.3,0.6,0.4c0.3,0.2,0.5,0.5,0.8,0.7c0.1,0,0.1,0.1,0.1,0.1c0.5,0.5,1.1,1,1.6,1.5c0.1,0.1,0.1,0.1,0.2,0.2
		c0.3,0.1,0.5,0.4,0.7,0.6c0-0.1,0-0.2,0-0.2c-0.1-0.2-0.3-0.4-0.5-0.5c-0.1,0-0.2-0.1-0.2-0.2c-0.1-0.1-0.2-0.3-0.3-0.4
		c-0.1-0.1-0.2-0.1-0.2-0.2c-0.2-0.4-0.6-0.6-0.9-0.9s-0.6-0.6-0.9-0.9c0,0,0-0.1-0.1-0.1v-0.1l0,0l0,0l0,0l0,0
		c0.1,0,0.2,0.1,0.3,0.2c0.1,0.1,0.1,0.2,0.2,0.2c0.4,0.1,0.6,0.4,0.9,0.6c0.1,0.2,0.2,0.2,0.3,0.2c0.1,0,0.1,0.1,0.1,0.2
		c0,0.2,0.1,0.3,0.4,0.3c0.1,0,0.1,0,0.2,0.1s0.2,0.2,0.4,0.3c0-0.1,0-0.2,0-0.2c0-0.1,0-0.2,0-0.2l0,0h0.1c0.1,0,0.1,0.1,0.1,0.1
		c0.1,0.2,0.2,0.3,0.3,0.5c0.1,0.1,0.1,0.2,0.3,0.2c0.1,0,0.2,0.1,0.3,0.2c0.1,0.1,0.2,0.3,0.3,0.4c0.1,0.1,0.2,0.2,0.3,0.3
		c0.2,0.1,0.4,0.3,0.5,0.5s0.2,0.3,0.3,0.5c0.1,0.2,0.2,0.3,0.2,0.5c0,0.1,0.1,0.2,0.2,0.3c0.1,0.1,0.3,0.3,0.4,0.4s0.2,0.2,0.3,0.3
		c0.1,0,0.1,0.1,0.1,0.1c0.2,0.3,0.4,0.6,0.6,0.9c0.3,0.5,0.7,0.9,1,1.3c0,0,0,0,0.1,0c0,0,0,0,0-0.1c-0.1-0.5-0.3-0.9-0.5-1.3
		c-0.1-0.2-0.2-0.3-0.2-0.4c-0.1-0.4-0.3-0.7-0.5-1c-0.1-0.3-0.3-0.5-0.4-0.8s-0.2-0.5-0.3-0.7c-0.1-0.1-0.1-0.3-0.2-0.5
		c0-0.3-0.2-0.6-0.5-0.8h-0.1c-0.2-0.1-0.2-0.1-0.2-0.3c0-0.2,0-0.4-0.1-0.5s-0.1-0.1-0.1-0.2c-0.1-0.1-0.2-0.3-0.4-0.3
		c-0.1,0-0.1-0.1-0.2-0.2c0-0.2-0.1-0.3-0.1-0.5c-0.1-0.1-0.2-0.1-0.3-0.2c-0.1-0.1-0.2-0.2-0.2-0.3c-0.5-0.5-0.6-0.6-1-1.2
		c0-0.1-0.1-0.1-0.2-0.2c-0.2-0.2-0.3-0.4-0.5-0.5c-0.1,0-0.1-0.1-0.1-0.2c-0.1-0.1-0.1-0.2-0.1-0.3c-0.1-0.2-0.2-0.3-0.4-0.4
		c-0.2-0.1-0.3-0.2-0.5-0.4c-0.2-0.3-0.4-0.5-0.6-0.8s-0.5-0.6-0.8-0.9c0-0.1-0.1-0.1-0.2-0.2c-0.2-0.1-0.3-0.3-0.5-0.5
		c-0.1-0.1-0.2-0.2-0.3-0.3c-0.4-0.5-0.9-1-1.4-1.5c-0.4-0.4-0.8-0.9-1.1-1.3c-0.1-0.1-0.1-0.2-0.2-0.3v-0.1l0,0l0,0h-0.1l0,0
		c0,0,0,0,0,0.1l0,0l0,0c0.1,0,0.1,0,0.2,0s0.1,0,0.2,0c0-0.2-0.1-0.4-0.2-0.5s-0.2-0.1-0.3-0.2c-0.2-0.1-0.3-0.2-0.3-0.3
		s-0.1-0.3-0.3-0.3c-0.1-0.1-0.2-0.2-0.2-0.4c0-0.1,0-0.1,0.1-0.2c0.1,0,0.1-0.1,0.1-0.2c0-0.1-0.1-0.1-0.1-0.2
		c-0.2-0.1-0.3-0.3-0.4-0.5c-0.1-0.1-0.2-0.2-0.3-0.3c-0.2-0.2-0.3-0.3-0.5-0.5c-0.2,0-0.3,0-0.4-0.2c0,0,0,0-0.1,0h-0.2
		c-0.2-0.2-0.4-0.4-0.5-0.7l0,0c0-0.1-0.1,0-0.2,0c-0.2,0.2-0.2,0.2-0.3-0.1c0-0.1-0.1-0.1-0.1-0.2c-0.1-0.1-0.2-0.1-0.3,0
		c-0.2,0.1-0.2,0.1-0.3-0.1c-0.1-0.2-0.2-0.4-0.3-0.7c0-0.1-0.1-0.1-0.2-0.2c-0.2-0.1-0.3-0.3-0.4-0.5c0-0.1-0.1-0.1-0.2-0.2
		s-0.2-0.1-0.3-0.3c-0.1-0.1-0.2-0.2-0.3-0.3c-0.1,0-0.2-0.1-0.3-0.2c-0.1-0.1-0.2-0.2-0.4-0.3c-0.1-0.1-0.1-0.1-0.2,0
		c-0.1,0-0.2,0-0.2,0c-0.1,0-0.1-0.1-0.2,0s-0.2,0.1-0.2,0c-0.3-0.2-0.7-0.3-1.1-0.5c0,0-0.1,0-0.2,0h-0.1v0.1
		c0,0.1-0.1,0.2-0.2,0.1c-0.2-0.1-0.4-0.2-0.6-0.3c0,0-0.1-0.1-0.2-0.1c-0.2,0-0.4-0.1-0.4-0.3c0-0.1-0.1-0.2-0.1-0.3
		c-0.1-0.1-0.1-0.2-0.3-0.3C98.3,2,98.2,1.9,98,1.9h-0.1c0,0,0,0.1,0,0.2l0,0c0.2,0.1,0.3,0.3,0.5,0.4v0.1l-0.1,0.1
		c-0.1,0-0.1,0-0.2-0.1c-0.3-0.3-0.6-0.4-0.9-0.5C97,2,96.8,2.1,96.7,2c-0.2-0.1-0.3-0.2-0.5-0.3c-0.1-0.1-0.2-0.1-0.4-0.1
		c-0.1,0-0.2,0-0.3-0.1c-0.1-0.1-0.2-0.1-0.3,0c-0.2,0.1-0.3,0-0.4-0.2c-0.1-0.1-0.1-0.2-0.2-0.2S94.4,1,94.3,0.9
		c-0.1,0.2-0.2,0.1-0.3,0s-0.1-0.1-0.2-0.1c-0.3,0-0.6-0.2-1-0.1c0,0-0.1,0-0.1,0.1v0.1C92.9,1,93.1,1,93.2,1.1v0.1l0,0
		c-0.1,0.1-0.2,0-0.3,0c-0.2-0.1-0.5-0.3-0.7-0.4s-0.5-0.2-0.8-0.3c-0.1,0-0.2-0.1-0.3-0.2H91c0,0-0.1,0-0.1,0.1c0,0,0,0,0,0.1
		c0,0.2-0.1,0.2-0.2,0.1c-0.2-0.2-0.5-0.3-0.8-0.4c-0.4-0.1-0.8-0.1-1.2-0.1c-0.3,0-0.6-0.1-0.9,0c-0.7,0-1.3,0-2,0
		c-0.2,0-0.4,0-0.6,0c-0.5,0-1,0-1.5,0.1c-0.2,0.1-0.4,0.1-0.7,0c-0.3,0-0.6,0-0.9,0c-0.4,0.1-0.8,0.1-1.2,0.2c-0.1,0-0.1,0-0.2,0.1
		c-0.2,0.2-0.5,0.2-0.8,0.2c-0.2,0-0.5,0-0.7,0c-0.3,0-0.6,0.1-0.9,0.2c-0.1,0-0.2,0.1-0.4,0.1c-0.4,0-0.7,0.1-1.1,0.2
		c-0.1,0-0.3,0.1-0.4,0.1c-0.6,0-1.1,0.2-1.7,0.3c-0.6,0.2-1.2,0.2-1.8,0.4c0,0-0.3,0-0.5,0c-0.4,0.1-0.8,0.2-1.2,0.3
		c-0.1,0-0.3,0.1-0.4,0.1s-0.2,0-0.3,0.1c-0.2,0.2-0.5,0.2-0.7,0.3c-0.1,0.1-0.1,0.2-0.2,0.3c-0.1,0-0.2,0.1-0.3,0.1
		c-0.3,0.1-0.5,0.1-0.8,0.2c-0.3,0.1-0.6,0.2-0.9,0.3S67,4,66.7,4.1s-0.6,0.3-0.9,0.4s-0.6,0.2-0.9,0.4c-0.2,0.1-0.4,0.2-0.7,0.3
		c-0.4,0.1-0.8,0.3-1.2,0.5c-0.6,0.3-1.1,0.5-1.7,0.8C61,6.7,60.7,6.9,60.4,7c-0.3,0.1-0.5,0.2-0.7,0.4c-0.2,0.2-0.4,0.3-0.6,0.4
		c-0.2,0-0.3,0.1-0.5,0.3c0,0.1-0.1,0.1-0.2,0.2c-0.3,0.2-0.7,0.5-1,0.7c0,0-0.1,0-0.1,0.1c-0.1,0-0.1,0-0.2-0.1
		C57,8.9,57,8.8,56.9,8.9c-0.4,0.2-0.4,0.2-0.8,0.6L56,9.6c0,0,0,0,0,0.1l0.1,0.1c0,0.2-0.2,0.2-0.3,0.3c-0.4,0.3-0.8,0.5-1.3,0.8
		c-0.1,0-0.2,0.1-0.2,0c-0.1-0.1-0.2,0-0.3,0c-0.2,0.2-0.4,0.3-0.6,0.5c-0.1,0.1-0.3,0.2-0.4,0.4c-0.3,0.3-0.5,0.6-1,0.7
		c-0.2,0.1-0.4,0.2-0.5,0.3s-0.2,0.2-0.3,0.3c-0.3,0.3-0.7,0.6-1,0.9c-0.1,0.1-0.2,0.2-0.4,0.2c-0.2,0.2-0.5,0.3-0.7,0.5
		c-0.5,0.4-0.9,0.9-1.4,1.4c-0.4,0.5-0.9,1-1.3,1.4c-0.5,0.5-1,1-1.4,1.5c-0.1,0.1-0.3,0.3-0.4,0.4c-0.1,0.2-0.3,0.4-0.5,0.5
		s-0.4,0.3-0.5,0.5c-0.1,0.1-0.2,0.2-0.3,0.3c-0.1,0-0.1,0.1-0.2,0.1c-0.1,0.1-0.2,0.2-0.2,0.3c0,0.1,0,0.1,0,0.2s0,0.2-0.1,0.4
		c0,0.1-0.1,0.1-0.1,0.2c-0.1,0.2-0.3,0.3-0.6,0.3l0,0l0,0c0,0.1,0,0.1,0,0.1H42v-0.1c0,0,0.1-0.1,0.1,0l0,0l0,0v-0.1
		c0-0.1,0-0.1-0.1-0.1h-0.1c-0.1,0.1-0.2,0.3-0.3,0.4s-0.2,0.2-0.3,0.4c0,0.2,0,0.3,0,0.5c0,0.1,0,0.2,0.2,0.3
		c0.2,0.1,0.2,0.3,0.1,0.4c-0.1,0.2-0.3,0.5-0.4,0.7c-0.3,0.5-0.7,0.9-1,1.5c0,0.1-0.1,0.1-0.1,0.1c-0.1,0.1-0.2,0.2-0.2,0.4
		c-0.2,0.5-0.6,0.9-0.9,1.3c-0.1,0.1-0.2,0.2-0.4,0.2c-0.1,0-0.2,0-0.2,0.1c-0.1,0.4-0.1,0.8-0.3,1.2c0,0.1,0,0.2,0,0.2
		c0,0.1,0,0.2-0.1,0.3c-0.2,0.3-0.3,0.6-0.5,0.9c-0.1,0.1-0.1,0.3-0.1,0.4c0.1,0.2,0,0.3-0.1,0.5c-0.2,0.2-0.2,0.4-0.2,0.6
		c0,0.1,0.1,0.2,0.1,0.4c0,0.1,0,0.1,0,0.2c-0.1,0.2-0.2,0.3-0.4,0.4c-0.1,0-0.2,0.2-0.1,0.3c0.1,0.2,0.2,0.3,0.2,0.4
		c0.1,0.2,0.1,0.4,0.2,0.5c-0.3,0.4-0.4,0.8-0.6,1.2c-0.1,0.2-0.1,0.5-0.1,0.7c0,0.1,0,0.2,0,0.3c-0.1,0.1-0.1,0.3-0.2,0.4
		c-0.1,0.3-0.3,0.6-0.2,0.9c0,0.1,0,0.3-0.1,0.4c0,0.1,0,0.1,0,0.2C36,38.8,36,38.9,36,39s0,0.3,0,0.4c0,0.3,0,0.6-0.1,0.9
		c0,0.1-0.1,0.3-0.1,0.4c0,0.4,0,0.7-0.1,1.1c-0.1,0-0.1,0-0.1-0.1s-0.1-0.1-0.1-0.2h-0.1c0,0-0.1,0-0.1,0.1s0,0.1,0,0.2
		c0,0.2,0,0.5,0,0.7c0,0.1,0,0.1,0,0.2c0,0,0.1,0,0.1,0.1c0,0,0,0,0.1,0c0-0.1,0.1-0.1,0.1-0.2h0.1c0,0,0.1,0,0.1,0.1
		c0.1,0.6,0,1.2,0.1,1.7v0.1c0,0.2,0,0.3,0,0.5c0.1,0.5,0.1,1,0.1,1.5c0,0.4,0,0.9-0.1,1.3c0,0.1,0,0.3,0.1,0.4
		c0.1,0.3,0.1,0.6,0.1,0.9c0,0.6,0.1,1.2,0.2,1.8c0,0.3,0.1,0.7,0,1c0,0.2,0,0.5,0.1,0.7c0.1,0.3,0.1,0.6,0.2,0.9
		c0,0.2,0.1,0.3,0.2,0.5c0.1,0.2,0.2,0.4,0.2,0.6c0,0.6,0.2,1.2,0.3,1.8c0,0.5,0.1,0.9,0.3,1.3c0.1,0.2,0.1,0.3,0.2,0.5
		c0,0.2,0.1,0.5,0.2,0.7c0,0.1,0,0.1,0,0.2c-0.1,0.2,0,0.5,0.1,0.7c0,0.1,0.1,0.3,0.1,0.4c0.3,0.3,0.4,0.7,0.5,1.1
		c0.1,0.1,0.1,0.3,0.2,0.4c0.1,0.1,0.1,0.1,0.1,0.2c0,0.2,0,0.4,0.2,0.5c0.2,0.2,0.4,0.5,0.5,0.8c0.1,0.4,0.3,0.7,0.4,1
		c0.2,0.4,0.4,0.9,0.7,1.2c0.1,0.1,0.2,0.2,0.2,0.4c0.1,0.3,0.3,0.5,0.4,0.7c0.2,0.3,0.4,0.6,0.5,0.9c0.1,0.2,0.1,0.4,0.2,0.5
		c0.3,0.4,0.5,0.8,0.6,1.2c0.1,0.2,0.2,0.4,0.3,0.5c0.2,0.2,0.4,0.5,0.6,0.7c0.1,0.1,0.1,0.1,0.1,0.2c0.1,0.2,0.2,0.5,0.2,0.7
		c0,0,0,0.1-0.1,0.2c0,0-0.1,0-0.2,0c-0.1,0-0.1-0.1-0.2-0.2c-0.1-0.1-0.1-0.1-0.2-0.2h-0.1l0,0c0,0.2,0,0.4,0.1,0.5
		s0.2,0.2,0.3,0.3c0.1,0.2,0.3,0.4,0.5,0.5s0.3,0.2,0.3,0.4c0.1,0.3,0.4,0.5,0.5,0.8c0.1,0.2,0.3,0.4,0.4,0.5
		c0.1,0.1,0.2,0.2,0.3,0.3c0.3,0.2,0.6,0.4,0.7,0.7c0.1,0.2,0.3,0.5,0.5,0.6c0.3,0.2,0.5,0.5,0.6,0.8c0,0,0.1,0,0.1,0.1l0,0l0,0l0,0
		l0,0l0,0c0,0,0-0.1,0.1-0.1c0,0,0.1,0,0.1,0.1c0.1,0.2,0.3,0.4,0.4,0.5c0.3,0.3,0.6,0.6,0.9,0.9C49,78,49,78,49,78.1
		c0,0.2,0.1,0.3,0.1,0.5c0,0.1,0,0.2-0.1,0.2c-0.2,0.2-0.2,0.2,0,0.3c0.1,0.1,0.2,0.2,0.3,0.3c0.2,0.3,0.3,0.5,0.6,0.6
		c0.2,0.3,0.5,0.4,0.7,0.7c0.2,0.3,0.3,0.5,0.6,0.7c0-0.1,0-0.1,0.1-0.2c0-0.1,0.1-0.1,0.2,0l0.1,0.1c0.2,0.4,0.4,0.7,0.6,1
		c0.1,0.2,0.2,0.4,0.5,0.5c0.1,0,0.2,0.2,0.3,0.3c0.1,0.1,0.1,0.2,0.3,0.3c0.2,0.1,0.3,0.2,0.5,0.3c0,0,0,0,0.1,0c0,0,0.1-0.1,0-0.1
		c-0.1-0.1-0.1-0.2-0.2-0.3c0,0,0-0.1,0-0.2s0.2-0.1,0.2-0.1l0.1,0.1c0,0.1,0.1,0.1,0.2,0.1c0.1,0,0.2,0,0.3,0.1s0.1,0.2,0.2,0.3
		c0.4,0.4,0.6,0.8,0.9,1.3c0.1,0,0.3,0.1,0.4,0.1c0.1,0,0.1,0,0.2,0c-0.2-0.1-0.3-0.2-0.3-0.4v-0.1H56c0.2,0.1,0.3,0.3,0.4,0.5
		c0.1,0.2,0.2,0.4,0.4,0.5c0,0,0.1,0,0.1,0.1c0.1,0.2,0.3,0.2,0.5,0.2c0.3,0,0.5,0.4,0.8,0.4c0.1,0,0.1,0.1,0.2,0.1l0.1,0.1
		c0.3,0.2,0.6,0.4,0.9,0.5c0.4,0.1,0.9,0.3,1.3,0.5c0.3,0.1,0.5,0.2,0.7,0.4c0.1,0.1,0.2,0.1,0.3,0.1c0.6,0.2,1.2,0.3,1.7,0.7
		c0,0,0.1,0,0.2,0.1c0.4,0.1,0.7,0.2,1.1,0.4c0.7,0.3,1.5,0.6,2.2,0.9c0.1,0,0.2,0.1,0.2,0.2c0.1,0.1,0.2,0.1,0.3,0.1
		c0.2-0.1,0.3,0,0.4,0.1c0,0.1,0.1,0.2,0.2,0.2s0.2,0,0.2,0c0.2,0,0.5,0,0.7,0.1c0.5,0.2,0.9,0.4,1.4,0.6c0.2,0.1,0.4,0.1,0.5,0.3
		c0.1,0.1,0.2,0.1,0.3,0.1c0.3,0,0.5,0,0.7-0.1c0.1,0,0.1,0,0.2,0s0.2,0,0.2,0.1s0,0.2,0.1,0.2c0,0.1,0.1,0.1,0.1,0.1
		c0.4,0.2,0.7,0.3,1.1,0.2c0.2-0.1,0.3-0.1,0.5,0.1c0.1,0.1,0.7,0.1,0.8,0.1c0.2-0.1,0.5,0,0.7,0s0.3,0,0.5-0.1
		c0.1-0.1,0.1-0.1,0.2-0.2s0.3-0.1,0.4,0s0.2,0.2,0.3,0.4c0,0.1,0,0.1,0.1,0.2c0,0.1,0.1,0.1,0.2,0.1c0.2,0,0.4,0,0.6-0.1
		c0.2,0,0.3,0,0.5,0.1c0.1,0,0.2,0,0.2,0c0.1,0,0.3-0.1,0.4-0.1c0.4,0,0.8,0,1.2,0.2c0.3,0.1,0.6,0.2,0.9,0.2c0.2,0,0.3,0.1,0.5,0.1
		c0.4,0.2,0.8,0.4,1.3,0.3c0.1,0,0.2,0,0.3,0c0.6,0.1,1.1,0.2,1.7,0.1c0.1,0,0.3,0,0.4,0c0.2,0,0.3,0,0.5,0.1c0.2,0,0.5,0,0.7-0.1
		c0.4-0.2,0.9-0.2,1.3-0.2c0.1,0,0.2,0,0.3,0.1c0.1,0.1,0.1,0.2,0.3,0.3c0.2,0,0.4,0,0.6,0c0.9,0,1.9-0.1,2.8-0.2
		c0.4,0,0.7-0.1,1.1-0.2c0.4,0,0.8-0.1,1.2-0.2c0.1,0,0.2,0,0.2,0c0.3,0,0.6-0.1,0.9-0.2c0.1,0,0.2-0.1,0.4-0.1
		c0.2,0,0.4-0.1,0.6-0.1c0.3-0.1,0.6-0.1,0.8-0.2c0.2,0,0.4-0.1,0.5-0.1s0.2-0.1,0.3-0.1c0.4-0.1,0.8-0.2,1.2-0.2
		c0.1,0,0.2-0.1,0.3-0.1c0.6-0.3,1.2-0.4,1.8-0.7c0.9-0.3,1.6-0.7,2.4-1.1c0.1,0,0.1-0.1,0.2-0.1c0.2-0.2,0.5-0.3,0.7-0.5
		c0.3-0.2,0.6-0.4,0.9-0.5c0.1,0,0.1-0.1,0.2-0.1c0.3-0.3,0.6-0.5,1-0.7c0.2-0.1,0.4-0.3,0.5-0.5c0.3-0.4,0.7-0.7,1.1-1.1
		c0.3-0.3,0.7-0.5,1.1-0.7c0.1-0.1,0.3-0.2,0.3-0.3c0.1-0.2,0.2-0.3,0.4-0.5c0.1-0.1,0.3-0.2,0.4-0.4c0.2-0.2,0.4-0.4,0.6-0.6
		c0.1-0.1,0.2-0.1,0.3,0c0.2,0.1,0.3,0.1,0.5,0l0.1-0.1c0.2,0,0.3-0.2,0.4-0.3c0.2-0.3,0.5-0.5,0.8-0.7c0.2-0.1,0.4-0.3,0.6-0.5
		c0.3-0.3,0.5-0.6,0.8-0.8c0.2-0.2,0.3-0.4,0.6-0.5c0.1,0,0.1-0.1,0.1-0.1c0.2-0.1,0.3-0.3,0.4-0.5c0.1-0.1,0.1-0.2,0.2-0.3
		c0.4-0.3,0.7-0.7,0.9-1.1c0.3-0.5,0.6-0.9,1.2-1.2c0.1-0.1,0.2-0.1,0.3-0.2c0.2-0.2,0.4-0.3,0.5-0.5s0.4-0.3,0.5-0.5
		c0.1-0.1,0.2-0.3,0.3-0.4c0.2-0.4,0.5-0.7,0.8-1c0.1,0,0.2,0.1,0.2,0.1c0.1,0.1,0.2,0.1,0.2,0l0.1-0.1c0.5-0.8,1.1-1.7,1.6-2.5
		c0.1-0.1,0.2-0.3,0.3-0.4c0.2-0.3,0.5-0.5,0.6-0.8c0-0.1,0.1-0.1,0.1-0.2c0.2-0.2,0.3-0.4,0.4-0.6c0.2-0.5,0.5-0.9,0.7-1.4
		c0.1-0.2,0.3-0.5,0.4-0.7c0.2-0.5,0.5-1,0.7-1.5c0.3-0.6,0.5-1.1,0.9-1.6c0.2-0.4,0.4-0.8,0.5-1.2c0-0.2,0.1-0.3,0.2-0.4
		c0.2-0.2,0.2-0.4,0.3-0.6c0-0.2,0.1-0.4,0.1-0.5c0.1-0.2,0.1-0.4,0.1-0.5c0.1-0.5,0.1-0.9,0.3-1.3c0-0.1,0-0.2,0.1-0.2
		c0.1-0.5,0.2-1.1,0.4-1.6c0.1-0.3,0.2-0.6,0.3-1c0.2-0.7,0.4-1.4,0.6-2.2c0.1-0.6,0.2-1.1,0.4-1.7c0-0.1,0-0.2,0.1-0.2
		c0.1-0.7,0.3-1.3,0.3-2c0.1-0.9,0.2-1.8,0.2-2.7v-0.1c0.1-0.6,0.1-1.2,0.1-1.9C130.7,47.6,130.7,47.1,130.5,46.7z M118.9,23.5
		L118.9,23.5L118.9,23.5C119,23.5,119,23.5,118.9,23.5C119,23.5,119,23.5,118.9,23.5C119,23.5,119,23.6,118.9,23.5
		C119,23.5,119,23.5,118.9,23.5C119,23.5,118.9,23.5,118.9,23.5L118.9,23.5L118.9,23.5L118.9,23.5z M118.6,23L118.6,23L118.6,23
		C118.5,23,118.5,23,118.6,23z M118,22c0.1,0,0.2,0.2,0.2,0.3l0,0h-0.1C117.9,22.3,117.9,22.2,118,22C117.9,22,118,22,118,22z
		 M117.5,22c0.1,0,0.1,0.1,0.2,0.1l0,0l0,0C117.6,22.1,117.5,22.1,117.5,22C117.4,22,117.4,22,117.5,22C117.4,22,117.4,22,117.5,22z
		 M117.3,21.9L117.3,21.9L117.3,21.9L117.3,21.9C117.2,21.9,117.2,21.9,117.3,21.9z M116.5,20.2C116.6,20.2,116.6,20.3,116.5,20.2
		c0,0.1,0,0.1,0,0.1C116.5,20.3,116.5,20.3,116.5,20.2L116.5,20.2z M116.2,20.5l0.1,0.1v0.1h-0.1C116.1,20.6,116.1,20.6,116.2,20.5
		C116.1,20.5,116.2,20.5,116.2,20.5z M115.4,21.5c-0.1,0-0.1,0-0.2,0c-0.1-0.1-0.2-0.2-0.2-0.4l0,0c0,0,0,0,0.1,0
		C115.3,21.1,115.4,21.2,115.4,21.5C115.5,21.4,115.4,21.5,115.4,21.5z M115.8,20.2C115.8,20.2,115.8,20.1,115.8,20.2
		c-0.1-0.1-0.1-0.2-0.2-0.2v-0.1l0,0C115.8,19.9,115.8,20,115.8,20.2C115.8,20.1,115.8,20.1,115.8,20.2
		C115.9,20.2,115.9,20.2,115.8,20.2C115.8,20.1,115.8,20.2,115.8,20.2z M114.9,17.9C114.9,17.9,114.9,18,114.9,17.9
		C114.9,18,114.9,18,114.9,17.9C114.9,18,114.9,18,114.9,17.9c0,0.1,0,0.1,0.1,0.1c0.5,0.4,0.8,0.9,1.1,1.4c0,0,0,0,0,0.1H116
		c-0.3-0.4-0.7-0.8-1-1.2C114.9,18.2,114.9,18.1,114.9,17.9C114.9,18,114.9,18,114.9,17.9C114.9,18,114.9,18,114.9,17.9
		C114.9,18,114.9,18,114.9,17.9z M114.9,19C114.9,19,114.9,19.1,114.9,19C115,19.1,115,19.1,114.9,19c0.1,0.1,0.1,0.2,0.2,0.3
		c0.1,0,0.1,0.1,0.2,0.1l0,0l0.1,0.1v0.1h-0.1c0,0,0-0.1,0-0.2l0,0c-0.1,0-0.1-0.1-0.2-0.1C115,19.2,115,19.2,114.9,19
		C115,19.1,115,19.1,114.9,19C114.9,19.1,114.9,19.1,114.9,19C114.8,19.1,114.8,19.1,114.9,19C114.8,19,114.9,19,114.9,19z
		 M111.9,19c0,0,0.1-0.1,0.2-0.1c0,0,0.1,0,0.1,0.1c0.1,0.1,0.1,0.3,0.1,0.4c0,0,0,0.1-0.1,0.1h-0.1c-0.1-0.1-0.1-0.2-0.2-0.3
		C111.8,19.1,111.8,19,111.9,19z M111.2,18.4C111.3,18.4,111.3,18.4,111.2,18.4c0.1,0.1,0,0.1,0,0.1
		C111.2,18.4,111.2,18.4,111.2,18.4L111.2,18.4z M107.9,9.4L107.9,9.4L107.9,9.4L107.9,9.4c0.1,0.1,0.2,0.2,0.3,0.3
		c0.2,0.1,0.3,0.3,0.4,0.4c0,0,0,0.1,0,0.2c0,0-0.1,0-0.2,0l-0.1-0.1c-0.2-0.2-0.3-0.4-0.5-0.5C107.8,9.6,107.9,9.5,107.9,9.4
		C107.9,9.5,107.9,9.4,107.9,9.4C107.9,9.5,107.9,9.5,107.9,9.4C107.9,9.5,107.9,9.5,107.9,9.4z M107.7,8.3L107.7,8.3L107.7,8.3
		C107.6,8.3,107.7,8.3,107.7,8.3L107.7,8.3L107.7,8.3c0,0.1,0.1,0.2,0.1,0.3l0,0c0,0,0,0-0.1,0c0,0-0.1,0-0.1-0.1
		C107.6,8.5,107.6,8.4,107.7,8.3L107.7,8.3z M107,7.9L107,7.9L107,7.9c0.1,0.1,0.1,0.2,0,0.2l0,0C107,8,106.9,8,107,7.9
		C106.9,8,106.9,7.9,107,7.9z M102.6,4.6c0.2,0,0.3,0.1,0.4,0.2c0,0,0,0,0,0.1l0,0C102.8,4.9,102.6,4.9,102.6,4.6
		C102.5,4.7,102.5,4.7,102.6,4.6C102.5,4.7,102.5,4.6,102.6,4.6z M102.4,5.1L102.4,5.1L102.4,5.1L102.4,5.1z M101.9,4.8
		C102,4.8,102,4.8,101.9,4.8C102,4.8,102,4.9,101.9,4.8C102,4.9,101.9,4.9,101.9,4.8C101.9,4.9,101.9,4.8,101.9,4.8L101.9,4.8z
		 M100.8,3.7C100.9,3.7,100.9,3.7,100.8,3.7c0.2,0,0.4,0.1,0.5,0.3c0,0,0,0,0,0.1l0,0c-0.1,0-0.1,0-0.2,0C101,4,100.9,3.9,100.8,3.7
		C100.8,3.8,100.8,3.8,100.8,3.7z M93.6,1.3c0.1,0,0.2,0,0.3,0.1c0,0,0.1,0.1,0,0.1c0,0-0.1,0-0.1,0.1c0,0,0,0-0.1,0s-0.2,0-0.2-0.1
		C93.5,1.3,93.6,1.3,93.6,1.3z M53.2,82.8L53.2,82.8c-0.1,0-0.2-0.1-0.2-0.2c0,0,0,0,0.1-0.1C53.2,82.6,53.3,82.7,53.2,82.8
		C53.3,82.8,53.3,82.8,53.2,82.8z M54,83L54,83L54,83C54,82.9,54,82.9,54,83C54.1,83,54.1,83,54,83C54.1,83,54,83,54,83z M75.3,92.4
		c-0.3,0-0.6-0.1-0.8-0.3C74.4,92,74.3,92,74.1,92c-0.2,0-0.4,0-0.6-0.1c-0.1,0-0.1,0-0.2,0s-0.1-0.1-0.1-0.1s0.1-0.1,0.2-0.2
		c0.1,0,0.2,0,0.2,0c0.5,0,0.9,0.1,1.3,0.3c0.1,0.1,0.3,0.2,0.5,0.2c0.1,0,0.1,0.1,0.1,0.1C75.4,92.3,75.3,92.4,75.3,92.4z
		 M75.9,92.3L75.9,92.3C75.8,92.2,75.8,92.2,75.9,92.3C76,92.2,76,92.2,75.9,92.3C76,92.2,76,92.2,75.9,92.3z M115.4,65.5
		c-0.1,0.1-0.1,0.2-0.1,0.3c-0.1,0.3-0.2,0.6-0.4,0.8c-0.2,0.2-0.4,0.5-0.5,0.7l-0.1,0.1l0,0l0,0l0,0l0,0c0-0.1,0-0.1,0-0.2
		c0-0.2,0.1-0.3,0.2-0.5c0-0.1,0.1-0.2,0.1-0.2c0-0.4,0.2-0.8,0.4-1.2c0.1-0.3,0.2-0.6,0.3-0.9c0.1-0.3,0.2-0.6,0.4-0.9h0.1l0,0
		c0,0.1,0,0.2,0.1,0.2c0.1,0.1,0.1,0.2,0.1,0.3C115.8,64.5,115.7,65,115.4,65.5z"/>
	<path class="st0" d="M118.3,25.8c0.1,0.1,0.1,0.1,0.4,0.1h-0.1c-0.3-0.3-0.6-0.6-0.7-1.1l-0.1-0.1l0,0c-0.1,0-0.1,0-0.2,0
		c-0.2-0.1-0.3-0.2-0.5-0.3c-0.1-0.1-0.2-0.1-0.2-0.2c-0.1-0.2-0.2-0.2-0.4-0.3c0.1,0.3,0.3,0.5,0.5,0.7
		C117.4,25,117.8,25.4,118.3,25.8z"/>
	<path class="st0" d="M116.5,19c0,0,0.1-0.1,0-0.2c-0.2-0.3-0.4-0.6-0.6-0.9s-0.5-0.6-0.8-0.9H115v0.1c0.5,0.6,0.9,1.2,1.3,1.8
		C116.4,18.9,116.5,18.9,116.5,19z"/>
	<path class="st0" d="M114.6,16.5v-0.1c-0.1-0.3-0.3-0.6-0.7-0.7c0,0,0,0-0.1,0c0.1,0.3,0.4,0.5,0.6,0.8
		C114.5,16.5,114.6,16.5,114.6,16.5z"/>
	<path class="st0" d="M111.1,12.3L111.1,12.3L111.1,12.3L111.1,12.3C111.1,12.2,111.1,12.2,111.1,12.3
		C111.1,12.2,111.1,12.2,111.1,12.3L111.1,12.3z"/>
	<path class="st0" d="M111.1,12.2c-0.1-0.2-0.2-0.3-0.3-0.4c-0.1-0.1-0.2-0.1-0.3-0.1l0,0c0,0,0,0,0,0.1
		C110.6,12,110.8,12.1,111.1,12.2C111,12.2,111.1,12.2,111.1,12.2z"/>
	<path class="st0" d="M109.2,9.5L109.2,9.5l-0.1,0.1c0.1,0.1,0.2,0.2,0.3,0.3C109.3,9.7,109.3,9.6,109.2,9.5z"/>
	<path class="st0" d="M118.6,26.1c0,0.1,0.1,0.3,0.2,0.3c0,0,0,0,0.1,0l0,0c0-0.1-0.1-0.1-0.1-0.2c-0.1-0.1-0.2-0.1-0.1-0.2l0,0l0,0
		l0,0l0,0l0,0C118.6,26,118.6,26,118.6,26.1z"/>
	<path class="st0" d="M111.4,12.7c0-0.1-0.1-0.2-0.1-0.3s-0.1-0.1-0.2-0.2C111.1,12.5,111.3,12.6,111.4,12.7z"/>
	<path class="st0" d="M109.5,10.1L109.5,10.1c0-0.2,0-0.2-0.1-0.2C109.4,10,109.4,10,109.5,10.1C109.4,10.1,109.4,10.1,109.5,10.1z"
		/>
	<path class="st0" d="M109.3,9.9L109.3,9.9C109.3,9.9,109.3,9.8,109.3,9.9L109.3,9.9L109.3,9.9z"/>
	<path class="st0" d="M34.9,44.7L34.9,44.7L34.9,44.7C35,44.6,35,44.6,34.9,44.7L34.9,44.7z"/>
	<path class="st0" d="M111.5,12.8C111.5,12.7,111.5,12.7,111.5,12.8L111.5,12.8C111.5,12.7,111.4,12.7,111.5,12.8
		C111.4,12.7,111.5,12.7,111.5,12.8C111.5,12.7,111.5,12.7,111.5,12.8z"/>
	<path class="st0" d="M111.6,12.9C111.6,12.8,111.5,12.8,111.6,12.9c0-0.1-0.1-0.1-0.1-0.1C111.5,12.8,111.5,12.8,111.6,12.9
		C111.5,12.9,111.5,12.9,111.6,12.9z"/>
	<path class="st0" d="M110,11.4c0-0.1-0.1-0.2-0.2-0.3C109.9,11.3,109.9,11.3,110,11.4z"/>
	<path class="st0" d="M109.9,11.1C109.9,11.1,109.8,11.1,109.9,11.1C109.8,11.1,109.8,11.1,109.9,11.1
		C109.8,11.1,109.8,11.1,109.9,11.1z"/>
	<path class="st0" d="M110.1,11.4L110.1,11.4L110.1,11.4L110.1,11.4L110.1,11.4L110.1,11.4C110,11.4,110.1,11.4,110.1,11.4
		L110.1,11.4z"/>
	<path class="st0" d="M54.9,10.4C54.8,10.4,54.8,10.4,54.9,10.4C54.8,10.4,54.8,10.4,54.9,10.4C54.8,10.5,54.8,10.5,54.9,10.4
		C54.8,10.5,54.8,10.5,54.9,10.4z"/>
	<path class="st0" d="M117.7,24.6C117.7,24.6,117.7,24.7,117.7,24.6L117.7,24.6C117.7,24.7,117.7,24.6,117.7,24.6z"/>
	<polygon class="st0" points="57.7,8.6 57.7,8.5 57.7,8.5 57.7,8.5 57.7,8.5 57.7,8.5 57.7,8.5 	"/>
	<path class="st0" d="M116.3,23.8L116.3,23.8L116.3,23.8L116.3,23.8c0.1,0,0.1,0,0.2,0.1l0,0l0,0l0,0l0,0l0,0
		C116.4,23.8,116.4,23.8,116.3,23.8L116.3,23.8L116.3,23.8L116.3,23.8L116.3,23.8z"/>
	<path class="st0" d="M107.9,15.7L107.9,15.7L107.9,15.7z"/>
	<path class="st0" d="M88.2,52.5c2.1,0,1.7,0,3.3,0c1.3-0.2,2.8-1.8,2.6-4.2c-0.2-3.1-2.6-3.8-5.1-3.8h-4v-7.1l-4.8,0.4l0.1,9.5
		c0,0,5.7,0.3,7.1,0.4c1.3,0.1,2.8,0.1,3.2,1.7C91,51.2,88.9,52.5,88.2,52.5z"/>
	<path class="st0" d="M73.6,46.4c-0.9,1-1.7,2.6-1.2,4.4c1.5,5,9.4,7.2,12.8,7.4l-0.4-5.9c0,0-5.4,0.7-8.2-2.2
		c-1.2-1.2-0.9-2.5-0.1-3.6C75.5,46.5,74.3,46.4,73.6,46.4z"/>
	<path class="st0" d="M200,18.7c-0.1-0.2-0.1-0.3-0.1-0.5c0-0.3,0-0.7,0-1c0-0.1,0-0.1,0-0.2c0-0.2,0-0.3-0.1-0.5c0,0,0-0.1-0.1-0.1
		c-0.1-0.4-0.3-0.7-0.5-1c-0.1-0.2-0.2-0.3-0.2-0.5c0-0.1,0-0.2-0.1-0.3c-0.1-0.2-0.2-0.4-0.3-0.5c-0.3-0.5-0.7-0.9-1.1-1.3
		c-0.4-0.4-0.8-0.7-1.2-1c-0.3-0.2-0.7-0.3-1.1-0.4c-0.1,0-0.2-0.1-0.3-0.1s-0.1-0.1-0.2-0.1c-0.1,0-0.1,0-0.2,0
		c-0.2,0.1-0.3,0.2-0.4,0.3c-0.1,0-0.1,0.1,0,0.2c0,0.1,0.1,0.2,0.1,0.3c0,0.2-0.1,0.4-0.2,0.6c-0.1,0.2-0.2,0.5-0.3,0.7
		c0,0.1,0,0.1,0,0.2c0,0.1,0,0.2-0.1,0.3c-0.1,0.2-0.2,0.4-0.2,0.6c0,0.1-0.1,0.2,0,0.3c0,0.2,0,0.3-0.1,0.5
		c-0.1,0.1-0.2,0.3-0.2,0.4c-0.1,0.4-0.2,0.7-0.4,1.1c-0.1,0.3-0.2,0.7-0.3,1c-0.1,0.2-0.1,0.4-0.2,0.6c0,0.2-0.1,0.3-0.1,0.5v0.1
		c0,0.1,0,0.2,0,0.3c0,0.1,0,0.1,0,0.2c0,0,0,0,0.1,0c0,0,0,0,0.1,0c0.2-0.1,0.2-0.1,0.2,0.1v0.1c0,0.2,0,0.4-0.1,0.6
		c-0.1,0.3-0.2,0.7-0.2,1s-0.1,0.6-0.2,0.9c0,0.1-0.1,0.1-0.1,0.1h-0.1c-0.1,0.1,0,0.2,0.1,0.3c0.2,0.1,0.1,0.2,0.1,0.4
		c-0.1,0.2-0.1,0.4-0.2,0.6c0,0.1,0,0.3-0.1,0.4c-0.1,0.2-0.1,0.5-0.2,0.7c0,0.2-0.1,0.3-0.1,0.4s-0.1,0.2-0.1,0.3v0.1
		c0,0,0.1,0,0.1-0.1s0.1-0.1,0.1-0.2s0.1-0.1,0.2-0.1c0,0.1,0,0.1,0,0.1c0,0.1-0.1,0.2-0.1,0.3v0.1c0.1,0.2,0,0.3-0.1,0.5
		c0,0.1-0.1,0.2-0.2,0.2c-0.1,0-0.1,0.1-0.1,0.2s0.1,0.1,0.1,0.1l0,0c0.1,0,0.1,0.1,0.1,0.2l-0.1,0.1l-0.1,0.1
		c0.2,0,0.2,0.2,0.2,0.3c0,0.1,0,0.1-0.1,0.1s-0.2,0-0.2,0.2c0,0.1,0,0.2,0,0.2c-0.1,0.2-0.1,0.4-0.1,0.6c0,0.1,0,0.3-0.1,0.4v0.1
		c0,0.1,0,0.1,0.1,0.2l0.1,0.1c0,0.1,0.1,0.3,0,0.4s-0.1,0.2,0,0.2c0.1,0.1,0.1,0.3,0,0.4s-0.1,0.2,0,0.3c0.1,0.1,0,0.2,0,0.3
		c-0.1,0-0.1,0.1,0,0.2s0.1,0.1,0,0.2c0,0.3-0.1,0.5-0.1,0.8c0,0.1,0,0.1,0,0.2c0,0.4,0,0.8-0.1,1.1c0,0,0,0.1,0,0.2
		c0,0.1,0,0.2-0.1,0.3s-0.1,0.2,0,0.2V34c0,0.2-0.1,0.4-0.1,0.6c0,0.2-0.1,0.3-0.1,0.5v0.1c0,0.2,0,0.3,0,0.5c0,0.1,0,0.2,0,0.3
		c0,0.2,0,0.3,0.1,0.5c0,0.3,0.1,0.5,0.1,0.8c0,0.1,0,0.3,0.1,0.4c0,0.2,0.1,0.3,0.1,0.5c0.1,0.3,0.2,0.5,0.3,0.7s0.1,0.4,0.2,0.5
		c0,0.1,0.1,0.3,0.1,0.4c0.2,0.4,0.4,0.8,0.7,1.2c0.1,0.1,0.2,0.3,0.3,0.4c0.1,0.1,0.1,0.1,0.2,0c0.1-0.1,0.1-0.2,0.2-0.3
		c0.1-0.2,0.2-0.3,0.3-0.4c0.1-0.1,0.2-0.2,0.2-0.2c0-0.1,0.1-0.1,0.1-0.2c0.1-0.2,0.1-0.3,0.1-0.5c0-0.1,0-0.3,0.1-0.4
		c0-0.2,0-0.4,0.1-0.6c0-0.1,0-0.2,0.1-0.3c0-0.1,0-0.2,0-0.3c0-0.2,0.1-0.5,0.2-0.7c0-0.1,0-0.2,0.1-0.2c0.1-0.3,0.2-0.6,0.2-0.9
		l0,0c0.1-0.1,0.1-0.3,0.2-0.4c0.1-0.1,0.2-0.3,0.2-0.4c0.1-0.2,0.1-0.3,0.2-0.5c0.2-0.3,0.3-0.6,0.5-0.9c0.1-0.3,0.2-0.6,0.4-0.9
		c0-0.1,0.1-0.1,0.1-0.2c0.1-0.3,0.2-0.5,0.3-0.7c0.1-0.1,0.1-0.2,0.1-0.3c0.1-0.1,0.1-0.3,0.2-0.4c0.1-0.1,0.1-0.2,0.2-0.3
		c0.1-0.3,0.2-0.5,0.2-0.8c0.1-0.3,0.2-0.6,0.3-0.9c0-0.1,0.1-0.1,0.1-0.2s0.1-0.1,0.2,0c0.1,0,0.1,0.1,0,0.2v0.1v0.1
		c0,0,0.1,0,0.1-0.1s0.1-0.1,0.1-0.2s0.1-0.2,0.1-0.2c0-0.1,0.1-0.2,0.1-0.3c0-0.1,0.1-0.2,0.1-0.3c0.1-0.4,0.2-0.8,0.2-1.2
		c0-0.1,0-0.1,0.1-0.2c0.1-0.3,0.2-0.5,0.2-0.8c0-0.1,0-0.1,0-0.2c0.1-0.3,0.2-0.7,0.3-1c0.1-0.2,0.1-0.4,0.2-0.7c0-0.3,0-0.7,0.2-1
		v-0.1c0.1-0.3,0.1-0.6,0.3-0.9v-0.1c0.1-0.3,0.2-0.6,0.2-0.8c0-0.1,0-0.2,0.1-0.3c0.1-0.2,0.2-0.4,0.2-0.7c0-0.1,0-0.1,0.1-0.2
		c0.1-0.2,0.1-0.5,0.2-0.7c0.1-0.2,0.1-0.5,0.1-0.7C200,19.1,200,18.9,200,18.7z M192.5,18.7c-0.1,0.1-0.1,0.2-0.1,0.3l0,0l-0.1,0.1
		l-0.1-0.1c0-0.1,0.1-0.3,0.2-0.4h0.1C192.5,18.6,192.5,18.6,192.5,18.7L192.5,18.7z"/>
	<polygon class="st0" points="15.9,55.8 10.7,17.1 0,17.2 0,77.4 7,77.4 7,36.1 13.1,77.4 18.8,77.4 24.9,36 24.9,77.4 31.9,77.4 
		31.9,17.2 21.2,17.1 	"/>
</g>
</svg>
