<?xml version="1.0" encoding="utf-8"?>
<!-- Generator: Adobe Illustrator 21.1.0, SVG Export Plug-In . SVG Version: 6.00 Build 0)  -->
<svg version="1.1" id="Layer_1" xmlns="http://www.w3.org/2000/svg" xmlns:xlink="http://www.w3.org/1999/xlink" x="0px" y="0px"
	 viewBox="0 0 1050 1050" style="enable-background:new 0 0 1050 1050;" xml:space="preserve">
<style type="text/css">
	.st0{fill:#13120D;}
</style>
<g>
	
		<rect x="505.1" y="13.7" transform="matrix(0.9988 -4.913011e-02 4.913011e-02 0.9988 -0.3622 24.8641)" class="st0" width="1" height="12.2"/>
	
		<rect x="482.4" y="15.1" transform="matrix(0.996 -8.980971e-02 8.980971e-02 0.996 4.766676e-02 43.4593)" class="st0" width="1" height="12.2"/>
	<rect x="459.9" y="17.4" transform="matrix(0.9914 -0.1311 0.1311 0.9914 0.8861 60.5604)" class="st0" width="1" height="12.2"/>
	<rect x="437.4" y="20.8" transform="matrix(0.9853 -0.171 0.171 0.9853 1.8423 75.2881)" class="st0" width="1" height="12.3"/>
	<rect x="393.1" y="30.6" transform="matrix(0.9631 -0.2693 0.2693 0.9631 4.66 107.3683)" class="st0" width="1" height="12.3"/>
	<rect x="371.4" y="37" transform="matrix(0.9503 -0.3113 0.3113 0.9503 5.0614 117.9106)" class="st0" width="1" height="12.2"/>
	<rect x="349.9" y="44.3" transform="matrix(0.9367 -0.3502 0.3502 0.9367 4.5196 125.8935)" class="st0" width="1" height="12.3"/>
	<rect x="328.8" y="52.6" transform="matrix(0.9204 -0.391 0.391 0.9204 3.2436 133.4313)" class="st0" width="1" height="12.3"/>
	
		<rect x="287.7" y="72.1" transform="matrix(0.8791 -0.4766 0.4766 0.8791 -2.4119 146.7895)" class="st0" width="1" height="12.2"/>
	
		<rect x="267.9" y="83.1" transform="matrix(0.8575 -0.5145 0.5145 0.8575 -7.6615 150.8408)" class="st0" width="1" height="12.2"/>
	<rect x="248.7" y="95" transform="matrix(0.8382 -0.5453 0.5453 0.8382 -14.8552 152.2211)" class="st0" width="1" height="12.3"/>
	
		<rect x="229.9" y="107.8" transform="matrix(0.8087 -0.5882 0.5882 0.8087 -22.9542 157.3137)" class="st0" width="1" height="12.2"/>
	
		<rect x="194.2" y="135.9" transform="matrix(0.7546 -0.6562 0.6562 0.7546 -45.3992 162.6016)" class="st0" width="1" height="12.2"/>
	
		<rect x="177.3" y="151" transform="matrix(0.7272 -0.6864 0.6864 0.7272 -59.3685 164.9033)" class="st0" width="1" height="12.2"/>
	
		<rect x="161.1" y="167" transform="matrix(0.6864 -0.7272 0.7272 0.6864 -75.1889 171.8454)" class="st0" width="1" height="12.2"/>
	
		<rect x="145.7" y="183.6" transform="matrix(0.6608 -0.7506 0.7506 0.6608 -92.8285 174.1011)" class="st0" width="1" height="12.3"/>
	
		<rect x="117.2" y="218.9" transform="matrix(0.5881 -0.8088 0.8088 0.5881 -133.5193 187.8454)" class="st0" width="1" height="12.2"/>
	
		<rect x="104.1" y="237.5" transform="matrix(0.5547 -0.8321 0.8321 0.5547 -156.1102 195.5134)" class="st0" width="1" height="12.3"/>
	
		<rect x="91.8" y="256.6" transform="matrix(0.5084 -0.8611 0.8611 0.5084 -180.8149 208.6568)" class="st0" width="1" height="12.2"/>
	
		<rect x="80.5" y="276.3" transform="matrix(0.4731 -0.881 0.881 0.4731 -206.1164 220.1514)" class="st0" width="1" height="12.3"/>
	
		<rect x="60.5" y="317" transform="matrix(0.3939 -0.9192 0.9192 0.3939 -260.0064 251.8993)" class="st0" width="1" height="12.2"/>
	
		<rect x="51.9" y="338.1" transform="matrix(0.3529 -0.9357 0.9357 0.3529 -288.0987 271.7244)" class="st0" width="1" height="12.2"/>
	
		<rect x="44.3" y="359.3" transform="matrix(0.3089 -0.9511 0.9511 0.3089 -316.6996 295.1649)" class="st0" width="1" height="12.3"/>
	
		<rect x="37.5" y="381.1" transform="matrix(0.2714 -0.9625 0.9625 0.2714 -344.8979 318.7123)" class="st0" width="1" height="12.2"/>
	
		<rect x="27.1" y="425.3" transform="matrix(0.1807 -0.9835 0.9835 0.1807 -401.6861 380.596)" class="st0" width="1" height="12.2"/>
	
		<rect x="23.3" y="447.6" transform="matrix(0.1391 -0.9903 0.9903 0.1391 -428.8047 414.2313)" class="st0" width="1" height="12.2"/>
	
		<rect x="20.7" y="470.2" transform="matrix(9.050313e-02 -0.9959 0.9959 9.050313e-02 -455.0596 454.2112)" class="st0" width="1" height="12.1"/>
	
		<rect x="19" y="492.8" transform="matrix(4.912815e-02 -0.9988 0.9988 4.912815e-02 -479.7557 493.8665)" class="st0" width="1" height="12.2"/>
	
		<rect x="13" y="543.8" transform="matrix(0.9988 -4.908827e-02 4.908827e-02 0.9988 -26.6957 1.5938)" class="st0" width="12.2" height="1"/>
	
		<rect x="14.4" y="566.5" transform="matrix(0.9959 -9.050313e-02 9.050313e-02 0.9959 -51.2268 4.1775)" class="st0" width="12.1" height="1"/>
	<rect x="16.6" y="589.1" transform="matrix(0.9905 -0.1377 0.1377 0.9905 -80.9804 8.7586)" class="st0" width="12.3" height="1"/>
	
		<rect x="20.1" y="611.5" transform="matrix(0.9836 -0.1803 0.1803 0.9836 -109.8935 14.7488)" class="st0" width="12.2" height="1"/>
	
		<rect x="29.8" y="655.9" transform="matrix(0.9631 -0.2693 0.2693 0.9631 -175.4395 33.9194)" class="st0" width="12.3" height="1"/>
	
		<rect x="36.2" y="677.6" transform="matrix(0.9527 -0.3039 0.3039 0.9527 -204.085 44.9272)" class="st0" width="12.2" height="1"/>
	
		<rect x="43.5" y="699.2" transform="matrix(0.9357 -0.3529 0.3529 0.9357 -243.7223 62.5218)" class="st0" width="12.2" height="1"/>
	
		<rect x="51.7" y="720.3" transform="matrix(0.9205 -0.3909 0.3909 0.9205 -277.1237 79.9476)" class="st0" width="12.3" height="1"/>
	<rect x="71.1" y="761.3" transform="matrix(0.881 -0.4731 0.4731 0.881 -351.2247 127.173)" class="st0" width="12.3" height="1"/>
	
		<rect x="82.1" y="781.1" transform="matrix(0.8574 -0.5146 0.5146 0.8574 -389.684 156.8749)" class="st0" width="12.2" height="1"/>
	
		<rect x="94.1" y="800.4" transform="matrix(0.8359 -0.5488 0.5488 0.8359 -423.1437 186.3995)" class="st0" width="12.2" height="1"/>
	
		<rect x="106.9" y="819.2" transform="matrix(0.8125 -0.583 0.583 0.8125 -456.7271 219.5701)" class="st0" width="12.2" height="1"/>
	
		<rect x="134.8" y="855" transform="matrix(0.7543 -0.6566 0.6566 0.7543 -527.0684 302.733)" class="st0" width="12.2" height="1"/>
	
		<rect x="150" y="871.8" transform="matrix(0.7192 -0.6948 0.6948 0.7192 -562.2662 353.3978)" class="st0" width="12.2" height="1"/>
	<rect x="165.9" y="888" transform="matrix(0.6908 -0.723 0.723 0.6908 -589.2484 399.1145)" class="st0" width="12.3" height="1"/>
	
		<rect x="182.5" y="903.5" transform="matrix(0.6602 -0.7511 0.7511 0.6602 -614.8628 448.8387)" class="st0" width="12.3" height="1"/>
	
		<rect x="217.8" y="932.1" transform="matrix(0.592 -0.8059 0.8059 0.592 -660.2672 560.9517)" class="st0" width="12.2" height="1"/>
	
		<rect x="236.3" y="945.2" transform="matrix(0.5488 -0.8359 0.8359 0.5488 -681.1575 629.3467)" class="st0" width="12.2" height="1"/>
	
		<rect x="255.4" y="957.5" transform="matrix(0.5139 -0.8578 0.8578 0.5139 -694.6317 690.007)" class="st0" width="12.2" height="1"/>
	
		<rect x="275.1" y="968.8" transform="matrix(0.4728 -0.8812 0.8812 0.4728 -705.8653 758.7802)" class="st0" width="12.3" height="1"/>
	
		<rect x="315.8" y="988.9" transform="matrix(0.3907 -0.9205 0.9205 0.3907 -714.5834 899.1536)" class="st0" width="12.3" height="1"/>
	
		<rect x="336.8" y="997.5" transform="matrix(0.3535 -0.9354 0.9354 0.3535 -711.9119 965.9473)" class="st0" width="12.2" height="1"/>
	
		<rect x="358" y="1005.1" transform="matrix(0.3086 -0.9512 0.9512 0.3086 -704.7582 1041.7301)" class="st0" width="12.3" height="1"/>
	
		<rect x="379.8" y="1011.9" transform="matrix(0.2696 -0.963 0.963 0.2696 -693.011 1111.1637)" class="st0" width="12.3" height="1"/>
	
		<rect x="424" y="1022.4" transform="matrix(0.1797 -0.9837 0.9837 0.1797 -653.3994 1262.093)" class="st0" width="12.3" height="1"/>
	
		<rect x="446.3" y="1026.1" transform="matrix(0.1387 -0.9903 0.9903 0.1387 -626.978 1332.3025)" class="st0" width="12.3" height="1"/>
	
		<rect x="468.9" y="1028.8" transform="matrix(8.983141e-02 -0.996 0.996 8.983141e-02 -592.9039 1409.9119)" class="st0" width="12.2" height="1"/>
	
		<rect x="491.5" y="1030.6" transform="matrix(4.881758e-02 -0.9988 0.9988 4.881758e-02 -556.5625 1477.7709)" class="st0" width="12.2" height="1"/>
	
		<rect x="542.5" y="1025.4" transform="matrix(0.9988 -4.909219e-02 4.909219e-02 0.9988 -49.9839 27.9008)" class="st0" width="1" height="12.2"/>
	
		<rect x="565.1" y="1024" transform="matrix(0.996 -8.984568e-02 8.984568e-02 0.996 -90.2624 54.9872)" class="st0" width="1" height="12.2"/>
	<rect x="587.7" y="1021.6" transform="matrix(0.9915 -0.13 0.13 0.9915 -128.6233 85.1885)" class="st0" width="1" height="12.3"/>
	
		<rect x="610.2" y="1018.3" transform="matrix(0.9853 -0.171 0.171 0.9853 -166.2319 119.549)" class="st0" width="1" height="12.3"/>
	
		<rect x="654.5" y="1008.6" transform="matrix(0.9652 -0.2617 0.2617 0.9652 -242.7008 206.7556)" class="st0" width="1" height="12.2"/>
	
		<rect x="676.3" y="1002.3" transform="matrix(0.9503 -0.3113 0.3113 0.9503 -280.2697 260.7729)" class="st0" width="1" height="12.2"/>
	<rect x="697.7" y="995" transform="matrix(0.9356 -0.353 0.353 0.9356 -308.4327 310.923)" class="st0" width="1" height="12.2"/>
	
		<rect x="718.9" y="986.7" transform="matrix(0.9204 -0.391 0.391 0.9204 -330.9062 360.2803)" class="st0" width="1" height="12.3"/>
	<rect x="760" y="967.4" transform="matrix(0.881 -0.4731 0.4731 0.881 -370.098 475.6941)" class="st0" width="1" height="12.3"/>
	
		<rect x="779.8" y="956.4" transform="matrix(0.8611 -0.5085 0.5085 0.8611 -380.9749 530.4562)" class="st0" width="1" height="12.2"/>
	
		<rect x="799.1" y="944.5" transform="matrix(0.8358 -0.549 0.549 0.8358 -390.6025 595.101)" class="st0" width="1" height="12.2"/>
	
		<rect x="817.9" y="931.7" transform="matrix(0.8087 -0.5882 0.5882 0.8087 -395.0979 660.7864)" class="st0" width="1" height="12.2"/>
	
		<rect x="853.7" y="903.7" transform="matrix(0.7541 -0.6568 0.6568 0.7541 -387.5266 784.7955)" class="st0" width="1" height="12.3"/>
	<polygon class="st0" points="866.4,890.6 874.8,899.4 875.6,898.8 867.2,890 	"/>
	
		<rect x="886.7" y="872.6" transform="matrix(0.6947 -0.7193 0.7193 0.6947 -361.2243 906.3608)" class="st0" width="1" height="12.2"/>
	
		<rect x="902.2" y="856" transform="matrix(0.6608 -0.7505 0.7505 0.6608 -340.9057 969.9223)" class="st0" width="1" height="12.3"/>
	
		<rect x="930.9" y="820.8" transform="matrix(0.5882 -0.8087 0.8087 0.5882 -285.1984 1093.7073)" class="st0" width="1" height="12.2"/>
	
		<rect x="943.9" y="802.3" transform="matrix(0.5547 -0.8321 0.8321 0.5547 -252.0808 1145.7949)" class="st0" width="1" height="12.3"/>
	
		<rect x="956.2" y="783.1" transform="matrix(0.5145 -0.8575 0.8575 0.5145 -212.3411 1203.4412)" class="st0" width="1" height="12.2"/>
	
		<rect x="967.6" y="763.5" transform="matrix(0.4828 -0.8757 0.8757 0.4828 -173.3399 1245.7915)" class="st0" width="1" height="12.2"/>
	
		<rect x="987.6" y="722.8" transform="matrix(0.4008 -0.9161 0.9161 0.4008 -75.7961 1342.004)" class="st0" width="1" height="12.2"/>
	
		<rect x="996.3" y="701.9" transform="matrix(0.3529 -0.9357 0.9357 0.3529 -17.3697 1390.7842)" class="st0" width="1" height="12.2"/>
	
		<rect x="1004" y="680.5" transform="matrix(0.3113 -0.9503 0.9503 0.3113 39.3126 1427.4464)" class="st0" width="1" height="12.2"/>
	
		<rect x="1010.7" y="658.8" transform="matrix(0.2696 -0.963 0.963 0.2696 98.2871 1459.4771)" class="st0" width="1" height="12.3"/>
	
		<rect x="1021.2" y="614.7" transform="matrix(0.1803 -0.9836 0.9836 0.1803 226.8219 1513.7911)" class="st0" width="1" height="12.2"/>
	
		<rect x="1025" y="592.2" transform="matrix(0.1391 -0.9903 0.9903 0.1391 290.2303 1530.564)" class="st0" width="1" height="12.2"/>
	
		<rect x="1027.7" y="569.8" transform="matrix(9.058648e-02 -0.9959 0.9959 9.058648e-02 361.6219 1547.7083)" class="st0" width="1" height="12.1"/>
	
		<rect x="1029.5" y="547.1" transform="matrix(4.909219e-02 -0.9988 0.9988 4.909219e-02 426.9019 1554.8004)" class="st0" width="1" height="12.2"/>
	
		<rect x="1024.3" y="507.4" transform="matrix(0.9992 -4.094858e-02 4.094858e-02 0.9992 -19.9315 42.6194)" class="st0" width="12.2" height="1"/>
	
		<rect x="1023" y="484.7" transform="matrix(0.996 -8.980614e-02 8.980614e-02 0.996 -39.4111 94.3799)" class="st0" width="12.2" height="1"/>
	<rect x="1020.6" y="462.1" transform="matrix(0.9915 -0.13 0.13 0.9915 -51.4376 137.4529)" class="st0" width="12.3" height="1"/>
	
		<rect x="1017.3" y="439.6" transform="matrix(0.9837 -0.1797 0.1797 0.9837 -62.4371 191.1279)" class="st0" width="12.3" height="1"/>
	
		<rect x="1007.7" y="395.3" transform="matrix(0.9651 -0.2617 0.2617 0.9651 -68.251 279.1219)" class="st0" width="12.2" height="1"/>
	
		<rect x="1001.4" y="373.4" transform="matrix(0.9527 -0.3039 0.3039 0.9527 -65.991 323.8307)" class="st0" width="12.2" height="1"/>
	
		<rect x="994.1" y="351.9" transform="matrix(0.9356 -0.3529 0.3529 0.9356 -60.027 375.6833)" class="st0" width="12.2" height="1"/>
	
		<rect x="985.8" y="330.8" transform="matrix(0.9205 -0.3909 0.3909 0.9205 -50.5833 414.0581)" class="st0" width="12.3" height="1"/>
	<rect x="966.6" y="289.7" transform="matrix(0.881 -0.4732 0.4732 0.881 -21.5388 494.774)" class="st0" width="12.3" height="1"/>
	
		<rect x="955.5" y="269.9" transform="matrix(0.8578 -0.5139 0.5139 0.8578 -2.228 532.6459)" class="st0" width="12.2" height="1"/>
	
		<rect x="943.7" y="250.6" transform="matrix(0.8359 -0.5488 0.5488 0.8359 18.0451 562.4644)" class="st0" width="12.2" height="1"/>
	
		<rect x="930.9" y="231.7" transform="matrix(0.8088 -0.5881 0.5881 0.8088 42.5982 595.4292)" class="st0" width="12.2" height="1"/>
	<rect x="903" y="196" transform="matrix(0.7511 -0.6602 0.6602 0.7511 96.607 649.1204)" class="st0" width="12.3" height="1"/>
	<rect x="887.9" y="179" transform="matrix(0.7192 -0.6948 0.6948 0.7192 126.2837 671.572)" class="st0" width="12.2" height="1"/>
	<rect x="872" y="162.8" transform="matrix(0.6908 -0.723 0.723 0.6908 153.4344 685.398)" class="st0" width="12.2" height="1"/>
	
		<rect x="855.4" y="147.3" transform="matrix(0.6562 -0.7546 0.7546 0.6562 184.6626 700.8988)" class="st0" width="12.2" height="1"/>
	
		<rect x="820.2" y="118.7" transform="matrix(0.5882 -0.8087 0.8087 0.5882 243.9223 717.318)" class="st0" width="12.2" height="1"/>
	
		<rect x="801.7" y="105.6" transform="matrix(0.5547 -0.8321 0.8321 0.5547 271.4327 719.3768)" class="st0" width="12.3" height="1"/>
	
		<rect x="782.6" y="93.2" transform="matrix(0.5146 -0.8574 0.8574 0.5146 302.4463 721.7821)" class="st0" width="12.2" height="1"/>
	<rect x="763" y="81.9" transform="matrix(0.4728 -0.8812 0.8812 0.4728 332.8484 721.1402)" class="st0" width="12.3" height="1"/>
	
		<rect x="722.3" y="61.8" transform="matrix(0.3933 -0.9194 0.9194 0.3933 384.6197 707.4844)" class="st0" width="12.2" height="1"/>
	
		<rect x="701.4" y="53.1" transform="matrix(0.3526 -0.9358 0.9358 0.3526 407.8307 696.7068)" class="st0" width="12.2" height="1"/>
	<rect x="680" y="45.4" transform="matrix(0.3112 -0.9503 0.9503 0.3112 428.933 683.6346)" class="st0" width="12.2" height="1"/>
	
		<rect x="658.3" y="38.6" transform="matrix(0.2693 -0.9631 0.9631 0.2693 447.847 668.4692)" class="st0" width="12.3" height="1"/>
	
		<rect x="288.1" y="979" transform="matrix(0.4666 -0.8845 0.8845 0.4666 -705.6073 789.0351)" class="st0" width="26.6" height="1"/>
	
		<rect x="395.7" y="1017.5" transform="matrix(0.2363 -0.9717 0.9717 0.2363 -676.9257 1174.6017)" class="st0" width="26.2" height="1"/>
	
		<rect x="836.7" y="910.8" transform="matrix(0.7883 -0.6153 0.6153 0.7883 -391.1957 710.6693)" class="st0" width="1" height="26"/>
	
		<rect x="614.2" y="28.1" transform="matrix(0.1803 -0.9836 0.9836 0.1803 480.3021 633.572)" class="st0" width="12.2" height="1"/>
	
		<rect x="591.8" y="24.2" transform="matrix(0.1308 -0.9914 0.9914 0.1308 495.1826 614.2803)" class="st0" width="12.2" height="1"/>
	
		<rect x="569.3" y="21.5" transform="matrix(9.757143e-02 -0.9952 0.9952 9.757143e-02 497.3623 592.5078)" class="st0" width="12.3" height="1"/>
	
		<rect x="546.7" y="19.7" transform="matrix(4.886523e-02 -0.9988 0.9988 4.886523e-02 505.6113 571.3523)" class="st0" width="12.2" height="1"/>
	<path class="st0" d="M1006.7,321.3c-26.3-62.3-64-118.3-112-166.3S790.8,69.3,728.5,42.9C664,15.6,595.6,1.8,525,1.8
		S386,15.6,321.5,42.9C259.2,69.3,203.3,107,155.3,155c-48,48-85.7,104-112,166.3C16,385.9,2.2,454.4,2.2,525S16,664.1,43.3,728.7
		c26.3,62.3,64,118.3,112,166.3c48,48,103.9,85.8,166.2,112.1c64.5,27.3,132.9,41.1,203.5,41.1s139-13.8,203.5-41.1
		C790.8,980.7,846.7,943,894.7,895s85.7-104,112-166.3c27.3-64.5,41.1-133,41.1-203.7S1034,385.9,1006.7,321.3z M1033,414.3
		l-27.1,6.6c-7.8-36-19.4-70.6-34.6-103.2l24.9-12.6c2.7,5.7,5.3,11.6,7.7,17.4C1016.5,352.3,1026.3,383,1033,414.3z M518.8,1015.1
		L518.8,1015.1C249.3,1011.7,32.7,789,36.1,518.7c0.8-66,14.6-130,40.9-190.1c25.4-58,61.3-110,106.8-154.5
		c12.1-11.8,24.8-23,37.9-33.4l0.6,0.8l0.8-0.6l-0.6-0.8C258.4,111.7,298,88.5,340.6,71c25.5-10.4,51.6-18.6,78.2-24.6l0,0.2l1-0.2
		l0-0.1c34.3-7.6,69.3-11.4,105-11.4c2.2,0,4.3,0,6.5,0c269.6,3.4,486.1,226.1,482.7,496.4c-0.8,66-14.6,130-40.9,190.1
		c-25.4,58-61.3,110-106.8,154.5C820.7,920.3,767.9,955,709.4,979C648.8,1003.8,584.7,1015.9,518.8,1015.1z M33.1,518.7
		c0,0.8,0,1.6,0,2.4H5.2c0.3-39.2,4.9-77.7,13.6-115.2l27.1,6.6C37.9,447.1,33.6,482.6,33.1,518.7z M83.5,307.5l-25.4-11.4
		c17-34.8,37.8-67.4,62.2-97.6l21.8,17.1C119.2,244,99.6,274.7,83.5,307.5z M531.2,31.9c-0.8,0-1.6,0-2.4,0V4.8
		c39.7,0.3,78.7,5,116.7,14l-6.7,26.4C604.2,36.9,568.2,32.4,531.2,31.9z M743.7,83.3l12.1-24.5c34.8,17.2,67.4,38.3,97.4,62.8
		l-17.7,21.3C807.4,119.7,776.6,99.7,743.7,83.3z M935.1,205.3l-21.5,17l0.6,0.8l21.5-16.9c23.6,30.4,43.7,63.2,60.1,98.2
		l-24.9,12.6c-31.5-67.4-77.7-126.6-134.5-173.3l17.7-21.3c13.4,11,26.2,22.6,38.6,35C907.8,172.4,922,188.5,935.1,205.3z
		 M754.9,58.3l-12.1,24.5c-32.5-16.1-66.9-28.8-103-37.4l6.7-26.4c27.5,6.6,54.5,15.5,80.8,26.6C736.7,49.6,745.9,53.8,754.9,58.3z
		 M322.7,45.7C386.8,18.6,454.8,4.8,525,4.8c0.9,0,1.9,0,2.8,0v27.1c-36.9-0.2-73.3,3.6-108.8,11.5l-6.2-25.2l-1,0.2l6.2,25.2
		c-26.7,6-53,14.2-78.6,24.7c-8.8,3.6-17.6,7.5-26.1,11.6l-12.6-24.3C308,52.1,315.3,48.8,322.7,45.7z M157.4,157.2
		c41.8-41.8,89.6-75.8,142.4-101.2l12.6,24.3c-32.7,15.7-63.4,35-91.8,57.5L203.8,117l-0.8,0.6l16.8,20.8
		c-13.2,10.5-25.9,21.7-38.1,33.6c-13.9,13.6-26.9,27.9-39,42.8l-21.8-17.1C132.3,183.7,144.5,170.1,157.4,157.2z M46,322.5
		c3.6-8.6,7.5-17.1,11.6-25.5L83,308.4c-3.1,6.3-6,12.6-8.8,19c-11.9,27.3-21.3,55.4-28.1,84.1l-27.1-6.6
		C25.7,376.8,34.7,349.3,46,322.5z M5.2,522.1h27.9c-0.2,37.2,3.7,73.5,11.3,108.4l-27.2,6.4c-8-36.5-12-73.9-12-111.9
		C5.2,524,5.2,523.1,5.2,522.1z M17.4,637.9l27.2-6.4c8,36.2,20,70.9,35.4,103.7L55,747.4c-3.1-6.6-6.1-13.2-8.9-19.9
		C33.7,698.4,24.2,668.5,17.4,637.9z M1004,727.5c-4,9.5-8.3,18.8-12.8,28l-24.8-12.1l-0.4,0.9l24.8,12.1
		c-17.1,34.5-38,66.9-62.3,96.8L908,835.5l-0.7,0.8l20.4,17.6c-11,13.5-22.8,26.5-35.2,38.9c-42.7,42.7-91.7,77.2-145.8,102.8
		l-12.1-24.5l-0.9,0.4l12.1,24.4c-6.1,2.9-12.3,5.6-18.5,8.3c-64.1,27.1-132.2,40.9-202.3,40.9c-1.4,0-2.7,0-4.1,0l0.5-26.2l-1,0
		l-0.5,26.2c-68.4-0.6-134.7-14.4-197.2-40.8c-61.9-26.2-117.5-63.7-165.2-111.5c-14.7-14.7-28.4-30.1-41.1-46.3l21.1-17l-0.6-0.8
		l-21.1,17c-23.7-30.2-43.9-62.8-60.3-97.5l25.1-12.2c31.6,66.6,77.7,125.1,134.1,171.2l-17.4,20.8l0.8,0.6l17.4-20.8
		c83,67.6,188.4,108.7,303.4,110.2c2.2,0,4.3,0,6.5,0c35.3,0,70.1-3.7,104.1-11.1l6.2,26.4l1-0.2l-6.1-26.4
		c27.3-6,54.1-14.4,80.2-25.1c58.9-24.1,111.9-59,157.7-103.8c45.8-44.7,81.9-97,107.5-155.4c26.5-60.5,40.3-124.8,41.1-191.2
		c0.5-37.5-3.3-74.1-10.8-109.4l27.1-6.6c7.7,35.8,11.5,72.5,11.5,109.7c0,1.7,0,3.3,0,5h-26.6v1h26.6c-0.4,39.1-5.2,77.5-14.1,115
		l-26.3-6.5l-0.2,1l26.3,6.5C1023.9,674.4,1015,701.3,1004,727.5z"/>
</g>
</svg>
