<?xml version="1.0" encoding="utf-8"?>
<!-- Generator: Adobe Illustrator 21.1.0, SVG Export Plug-In . SVG Version: 6.00 Build 0)  -->
<svg version="1.1" id="Layer_1" xmlns="http://www.w3.org/2000/svg" xmlns:xlink="http://www.w3.org/1999/xlink" x="0px" y="0px"
	 viewBox="0 0 50 50" style="enable-background:new 0 0 50 50;" xml:space="preserve">
<style type="text/css">
	.st0{fill:#020203;}
	.st1{fill:#FFFFFF;}
</style>
<g>
	
		<ellipse transform="matrix(0.9994 -3.520343e-02 3.520343e-02 0.9994 -0.8646 0.8956)" class="st0" cx="25" cy="25" rx="23.5" ry="23.5"/>
	<g>
		<g>
			<polygon class="st1" points="35,15.9 35,15.9 35,15.9 			"/>
			<path class="st1" d="M34.1,18.2c-0.5,0.1-0.9,0.1-0.9,0.1l0-0.1c0.5-0.4,1.6-1.5,1.8-2c0.1-0.2,0-0.3,0-0.3l-1.5,0.6l-1.2,0.6
				l0,0c-0.9-0.9-2.2-1.5-3.6-1.5c-2.6,0-4.7,1.8-4.7,4.1c0,0.4,0.1,1.2,0.2,1.5c0,0.1,0-0.1,0,0c-1.7,0-3.8-0.7-5.7-1.7
				c-3.7-1.9-4-3.2-4-3.2c-0.6,0.6-0.9,2.7-0.3,4.3c0.4,1,1.7,2,1.7,2l0,0c0,0-0.6,0-1.2-0.2c-0.6-0.2-0.8-0.4-0.8-0.4
				c-0.4,0.9,0.4,2.5,1.6,3.6c0.7,0.7,2.1,1.1,2.1,1.1l-2.1,0.1c-0.1,2,4.3,3.3,4.3,3.3l0,0c-1.3,1-2.8,1.6-4.4,1.6
				c-0.8,0-1.6-0.1-2.4-0.4c2.1,1.7,4.9,3,7.8,2.8c7.9-0.4,12.3-7.2,12.5-13.8l0,0c0,0,0.4-0.2,1.2-1c0.8-0.8,1.3-1.7,1.3-1.7
				S34.6,18.1,34.1,18.2z"/>
			<path class="st1" d="M35,15.9C35,16,35,15.9,35,15.9L35,15.9z"/>
		</g>
	</g>
</g>
</svg>
