<?xml version="1.0" encoding="utf-8"?>
<!-- Generator: Adobe Illustrator 21.1.0, SVG Export Plug-In . SVG Version: 6.00 Build 0)  -->
<svg version="1.1" id="Layer_1" xmlns="http://www.w3.org/2000/svg" xmlns:xlink="http://www.w3.org/1999/xlink" x="0px" y="0px"
	 viewBox="0 0 1050 1050" style="enable-background:new 0 0 1050 1050;" xml:space="preserve">
<style type="text/css">
	.lign-lign-st0{fill:none;stroke:#000000;stroke-miterlimit:10;}
</style>
<path d="M524.7,1047.8c-288.2,0-522.7-234.5-522.7-522.7C2.1,236.9,236.5,2.4,524.7,2.4c288.2,0,522.7,234.5,522.7,522.7
	C1047.4,813.3,813,1047.8,524.7,1047.8z M524.7,3.4C237.1,3.4,3.1,237.5,3.1,525.1c0,287.7,234,521.7,521.7,521.7
	c287.7,0,521.7-234,521.7-521.7C1046.4,237.5,812.4,3.4,524.7,3.4z"/>
<path d="M524.7,1037.4c-282.5,0-512.3-229.8-512.3-512.3c0-282.5,229.8-512.3,512.3-512.3c282.5,0,512.3,229.8,512.3,512.3
	C1037,807.6,807.2,1037.4,524.7,1037.4z M524.7,13.8c-281.9,0-511.3,229.4-511.3,511.3c0,281.9,229.4,511.3,511.3,511.3
	c281.9,0,511.3-229.4,511.3-511.3C1036,243.2,806.7,13.8,524.7,13.8z"/>
<path d="M524.7,1027C248,1027,22.9,801.8,22.9,525.1C22.9,248.4,248,23.2,524.7,23.2c276.7,0,501.9,225.1,501.9,501.9
	C1026.6,801.8,801.5,1027,524.7,1027z M524.7,24.2c-276.2,0-500.9,224.7-500.9,500.9c0,276.2,224.7,500.9,500.9,500.9
	c276.2,0,500.9-224.7,500.9-500.9C1025.6,248.9,800.9,24.2,524.7,24.2z"/>
<path d="M524.7,1016.6c-271,0-491.5-220.5-491.5-491.5c0-271,220.5-491.5,491.5-491.5c271,0,491.5,220.5,491.5,491.5
	C1016.2,796.1,795.7,1016.6,524.7,1016.6z M524.7,34.7c-270.4,0-490.5,220-490.5,490.5c0,270.4,220,490.5,490.5,490.5
	c270.4,0,490.5-220,490.5-490.5C1015.2,254.7,795.2,34.7,524.7,34.7z"/>
<path d="M524.7,1006.2c-265.2,0-481-215.8-481-481c0-265.2,215.8-481,481-481s481,215.8,481,481
	C1005.8,790.4,790,1006.2,524.7,1006.2z M524.7,45.1c-264.7,0-480,215.3-480,480c0,264.7,215.3,480,480,480
	c264.7,0,480-215.3,480-480C1004.8,260.4,789.4,45.1,524.7,45.1z"/>
<path d="M524.7,995.7c-259.5,0-470.6-211.1-470.6-470.6c0-259.5,211.1-470.6,470.6-470.6c259.5,0,470.6,211.1,470.6,470.6
	C995.4,784.6,784.2,995.7,524.7,995.7z M524.7,55.5c-259,0-469.6,210.7-469.6,469.6c0,259,210.7,469.6,469.6,469.6
	c259,0,469.6-210.7,469.6-469.6C994.4,266.2,783.7,55.5,524.7,55.5z"/>
<path d="M524.7,985.3C271,985.3,64.5,778.9,64.5,525.1C64.5,271.4,271,64.9,524.7,64.9C778.5,64.9,985,271.4,985,525.1
	C985,778.9,778.5,985.3,524.7,985.3z M524.7,65.9c-253.2,0-459.2,206-459.2,459.2c0,253.2,206,459.2,459.2,459.2
	c253.2,0,459.2-206,459.2-459.2C984,271.9,778,65.9,524.7,65.9z"/>
<path d="M524.7,974.9c-248,0-449.8-201.8-449.8-449.8c0-248,201.8-449.8,449.8-449.8c248,0,449.8,201.8,449.8,449.8
	C974.5,773.1,772.8,974.9,524.7,974.9z M524.7,76.3c-247.5,0-448.8,201.3-448.8,448.8c0,247.5,201.3,448.8,448.8,448.8
	c247.5,0,448.8-201.3,448.8-448.8C973.5,277.6,772.2,76.3,524.7,76.3z"/>
<path d="M524.7,964.5c-242.3,0-439.4-197.1-439.4-439.4c0-242.3,197.1-439.4,439.4-439.4s439.4,197.1,439.4,439.4
	C964.1,767.4,767,964.5,524.7,964.5z M524.7,86.7C283,86.7,86.4,283.4,86.4,525.1c0,241.7,196.7,438.4,438.4,438.4
	s438.4-196.7,438.4-438.4C963.1,283.4,766.5,86.7,524.7,86.7z"/>
<path d="M524.7,954.1c-236.5,0-429-192.4-429-429c0-236.5,192.4-429,429-429c236.5,0,429,192.4,429,429
	C953.7,761.7,761.3,954.1,524.7,954.1z M524.7,97.1c-236,0-428,192-428,428c0,236,192,428,428,428c236,0,428-192,428-428
	C952.7,289.1,760.7,97.1,524.7,97.1z"/>
<path d="M524.7,943.7c-230.8,0-418.6-187.8-418.6-418.6c0-230.8,187.8-418.6,418.6-418.6c230.8,0,418.6,187.8,418.6,418.6
	C943.3,755.9,755.5,943.7,524.7,943.7z M524.7,107.5c-230.2,0-417.6,187.3-417.6,417.6c0,230.2,187.3,417.6,417.6,417.6
	s417.6-187.3,417.6-417.6C942.3,294.9,755,107.5,524.7,107.5z"/>
<path d="M524.7,933.3c-225.1,0-408.2-183.1-408.2-408.2c0-225.1,183.1-408.2,408.2-408.2c225.1,0,408.2,183.1,408.2,408.2
	C932.9,750.2,749.8,933.3,524.7,933.3z M524.7,118c-224.5,0-407.2,182.6-407.2,407.2c0,224.5,182.6,407.2,407.2,407.2
	c224.5,0,407.2-182.6,407.2-407.2C931.9,300.6,749.2,118,524.7,118z"/>
<path d="M524.7,922.9C305.4,922.9,127,744.4,127,525.1c0-219.3,178.4-397.7,397.7-397.7s397.7,178.4,397.7,397.7
	C922.5,744.4,744.1,922.9,524.7,922.9z M524.7,128.4C306,128.4,128,306.4,128,525.1c0,218.8,178,396.7,396.7,396.7
	s396.7-178,396.7-396.7C921.5,306.4,743.5,128.4,524.7,128.4z"/>
<path d="M524.7,912.4c-213.6,0-387.3-173.8-387.3-387.3c0-213.6,173.8-387.3,387.3-387.3c213.6,0,387.3,173.8,387.3,387.3
	C912.1,738.7,738.3,912.4,524.7,912.4z M524.7,138.8c-213,0-386.3,173.3-386.3,386.3c0,213,173.3,386.3,386.3,386.3
	c213,0,386.3-173.3,386.3-386.3C911.1,312.1,737.8,138.8,524.7,138.8z"/>
<path d="M524.7,902c-207.8,0-376.9-169.1-376.9-376.9c0-207.8,169.1-376.9,376.9-376.9c207.8,0,376.9,169.1,376.9,376.9
	C901.7,732.9,732.6,902,524.7,902z M524.7,149.2c-207.3,0-375.9,168.6-375.9,375.9c0,207.3,168.6,375.9,375.9,375.9
	c207.3,0,375.9-168.6,375.9-375.9C900.7,317.8,732,149.2,524.7,149.2z"/>
<path d="M524.7,891.6c-202.1,0-366.5-164.4-366.5-366.5c0-202.1,164.4-366.5,366.5-366.5c202.1,0,366.5,164.4,366.5,366.5
	C891.2,727.2,726.8,891.6,524.7,891.6z M524.7,159.6c-201.5,0-365.5,164-365.5,365.5c0,201.5,164,365.5,365.5,365.5
	c201.5,0,365.5-164,365.5-365.5C890.2,323.6,726.3,159.6,524.7,159.6z"/>
<path d="M524.7,881.2c-196.4,0-356.1-159.7-356.1-356.1c0-196.3,159.7-356.1,356.1-356.1c196.3,0,356.1,159.7,356.1,356.1
	C880.8,721.5,721.1,881.2,524.7,881.2z M524.7,170c-195.8,0-355.1,159.3-355.1,355.1c0,195.8,159.3,355.1,355.1,355.1
	c195.8,0,355.1-159.3,355.1-355.1C879.8,329.3,720.5,170,524.7,170z"/>
<path d="M524.7,870.8c-190.6,0-345.7-155.1-345.7-345.7c0-190.6,155.1-345.7,345.7-345.7c190.6,0,345.7,155.1,345.7,345.7
	C870.4,715.7,715.4,870.8,524.7,870.8z M524.7,180.4c-190.1,0-344.7,154.6-344.7,344.7c0,190.1,154.6,344.7,344.7,344.7
	c190.1,0,344.7-154.6,344.7-344.7C869.4,335.1,714.8,180.4,524.7,180.4z"/>
<path d="M524.7,860.4c-184.9,0-335.3-150.4-335.3-335.3c0-184.9,150.4-335.3,335.3-335.3c184.9,0,335.3,150.4,335.3,335.3
	C860,710,709.6,860.4,524.7,860.4z M524.7,190.8c-184.3,0-334.3,150-334.3,334.3c0,184.3,150,334.3,334.3,334.3
	c184.3,0,334.3-149.9,334.3-334.3C859,340.8,709.1,190.8,524.7,190.8z"/>
<path d="M524.7,850c-179.1,0-324.9-145.7-324.9-324.8c0-179.1,145.7-324.9,324.9-324.9c179.1,0,324.9,145.7,324.9,324.9
	C849.6,704.2,703.9,850,524.7,850z M524.7,201.3c-178.6,0-323.9,145.3-323.9,323.9c0,178.6,145.3,323.8,323.9,323.8
	c178.6,0,323.9-145.3,323.9-323.8C848.6,346.5,703.3,201.3,524.7,201.3z"/>
<path d="M524.7,839.6c-173.4,0-314.4-141.1-314.4-314.4c0-173.4,141.1-314.4,314.4-314.4c173.4,0,314.4,141.1,314.4,314.4
	C839.2,698.5,698.1,839.6,524.7,839.6z M524.7,211.7c-172.8,0-313.4,140.6-313.4,313.4c0,172.8,140.6,313.4,313.4,313.4
	c172.8,0,313.4-140.6,313.4-313.4C838.2,352.3,697.6,211.7,524.7,211.7z"/>
<path d="M524.7,829.1c-167.6,0-304-136.4-304-304c0-167.6,136.4-304,304-304c167.6,0,304,136.4,304,304
	C828.8,692.8,692.4,829.1,524.7,829.1z M524.7,222.1c-167.1,0-303,135.9-303,303c0,167.1,135.9,303,303,303
	c167.1,0,303-135.9,303-303C827.8,358,691.8,222.1,524.7,222.1z"/>
<path d="M524.7,818.7c-161.9,0-293.6-131.7-293.6-293.6c0-161.9,131.7-293.6,293.6-293.6c161.9,0,293.6,131.7,293.6,293.6
	C818.4,687,686.6,818.7,524.7,818.7z M524.7,232.5c-161.3,0-292.6,131.3-292.6,292.6c0,161.3,131.3,292.6,292.6,292.6
	c161.3,0,292.6-131.3,292.6-292.6C817.4,363.8,686.1,232.5,524.7,232.5z"/>
<path d="M524.7,808.3c-156.2,0-283.2-127-283.2-283.2c0-156.2,127-283.2,283.2-283.2c156.2,0,283.2,127,283.2,283.2
	C807.9,681.3,680.9,808.3,524.7,808.3z M524.7,242.9c-155.6,0-282.2,126.6-282.2,282.2c0,155.6,126.6,282.2,282.2,282.2
	c155.6,0,282.2-126.6,282.2-282.2C806.9,369.5,680.4,242.9,524.7,242.9z"/>
<path d="M524.7,797.9C374.3,797.9,252,675.5,252,525.1c0-150.4,122.4-272.8,272.8-272.8c150.4,0,272.8,122.4,272.8,272.8
	C797.5,675.5,675.2,797.9,524.7,797.9z M524.7,253.3C374.9,253.3,253,375.3,253,525.1c0,149.9,121.9,271.8,271.8,271.8
	c149.9,0,271.8-121.9,271.8-271.8C796.5,375.3,674.6,253.3,524.7,253.3z"/>
<path d="M524.7,787.5c-144.7,0-262.4-117.7-262.4-262.4c0-144.7,117.7-262.4,262.4-262.4c144.7,0,262.4,117.7,262.4,262.4
	C787.1,669.8,669.4,787.5,524.7,787.5z M524.7,263.7c-144.1,0-261.4,117.3-261.4,261.4c0,144.1,117.3,261.4,261.4,261.4
	c144.1,0,261.4-117.3,261.4-261.4C786.1,381,668.9,263.7,524.7,263.7z"/>
<path d="M524.7,777.1c-138.9,0-252-113-252-252c0-138.9,113-252,252-252c138.9,0,252,113,252,252C776.7,664,663.7,777.1,524.7,777.1
	z M524.7,274.2c-138.4,0-251,112.6-251,251c0,138.4,112.6,251,251,251c138.4,0,251-112.6,251-251
	C775.7,386.7,663.1,274.2,524.7,274.2z"/>
<path d="M524.7,766.7c-133.2,0-241.6-108.4-241.6-241.5c0-133.2,108.4-241.6,241.6-241.6c133.2,0,241.6,108.4,241.6,241.6
	C766.3,658.3,657.9,766.7,524.7,766.7z M524.7,284.6c-132.6,0-240.6,107.9-240.6,240.6c0,132.6,107.9,240.5,240.6,240.5
	s240.6-107.9,240.6-240.5C765.3,392.5,657.4,284.6,524.7,284.6z"/>
<path class="lign-lign-st0" d="M524.7,755.8c-127.2,0-230.6-103.5-230.6-230.6c0-127.2,103.5-230.6,230.6-230.6s230.6,103.5,230.6,230.6
	C755.4,652.3,651.9,755.8,524.7,755.8z"/>
</svg>
