<?xml version="1.0" encoding="utf-8"?>
<!-- Generator: Adobe Illustrator 21.1.0, SVG Export Plug-In . SVG Version: 6.00 Build 0)  -->
<svg version="1.1" id="Layer_1" xmlns="http://www.w3.org/2000/svg" xmlns:xlink="http://www.w3.org/1999/xlink" x="0px" y="0px"
	 viewBox="0 0 600 600" style="enable-background:new 0 0 600 600;" xml:space="preserve">
<style type="text/css">
	.close-st0{fill:#FFFFFF;}
</style>
<polygon class="close-st0" points="496.6,481.8 314.9,300 496.6,118.2 481.8,103.4 300,285.1 118.2,103.4 103.4,118.2 285.1,300 
	103.4,481.8 118.2,496.6 300,314.9 481.8,496.6 "/>
<path class="close-st0" d="M300,599.1c-79.9,0-155-31.1-211.5-87.6C32,455,0.9,379.9,0.9,300S32,145,88.5,88.5C145,32,220.1,0.9,300,0.9
	S455,32,511.5,88.5C568,145,599.1,220.1,599.1,300S568,455,511.5,511.5C455,568,379.9,599.1,300,599.1z M300,17.9
	c-75.4,0-146.2,29.3-199.5,82.6C47.2,153.8,17.9,224.6,17.9,300s29.3,146.2,82.6,199.5c53.3,53.3,124.1,82.6,199.5,82.6
	s146.2-29.3,199.5-82.6c53.3-53.3,82.6-124.1,82.6-199.5s-29.3-146.2-82.6-199.5C446.2,47.2,375.4,17.9,300,17.9z"/>
</svg>
