<?xml version="1.0" encoding="utf-8"?>
<!-- Generator: Adobe Illustrator 15.0.2, SVG Export Plug-In . SVG Version: 6.00 Build 0)  -->
<!DOCTYPE svg PUBLIC "-//W3C//DTD SVG 1.1//EN" "http://www.w3.org/Graphics/SVG/1.1/DTD/svg11.dtd">
<svg version="1.1" id="Calque_1" xmlns="http://www.w3.org/2000/svg" xmlns:xlink="http://www.w3.org/1999/xlink" x="0px" y="0px"
	 width="370px" height="71px" viewBox="0 0 370 71" enable-background="new 0 0 370 71" xml:space="preserve">
<g id="CI_monochrome">
	<g id="international_2_">
		<path fill="#FFFFFF" d="M68.4,34.795c-0.7,0.7-1.1,1.7-1.1,2.8c0,2.101,1.7,3.8,3.8,3.8c1.1,0,2.1-0.399,2.8-1.1
			c0.7-0.7,1.1-1.7,1.1-2.7c0-1.1-0.4-2.1-1.1-2.8c-0.7-0.7-1.7-1.1-2.8-1.1S69.1,34.095,68.4,34.795z"/>
		<path fill="#FFFFFF" d="M102.9,58.095v-6.899c0-2.2-0.8-4-2.2-5.4c-1.4-1.2-3.2-1.9-5.3-1.9c-3.4,0-5.7,2.101-6.7,3.301v-2.7h-7.8
			v4H83l1.6,1.6v7.9l-1.6,1.6h-1.6h-0.5h-5.2l-1.6-1.6v-13.5h-13v4h7.1l1.6,1.6v7.9l-1.6,1.6h-7.1v4h19.7h0.5h10.9v-4h-2.1l-1.6-1.6
			v-5.9c1.5-2.899,3.6-4.2,6.5-4.2c1.5,0,2.6,0.5,3.1,1.601c0.5,0.899,0.6,2.2,0.6,3.3v5.2l-1.6,1.6H95v4h11.5v-4h-2.1L102.9,58.095
			z"/>
		<path fill="#FFFFFF" d="M125.4,56.295L125.4,56.295c-2.3,2.5-3.9,3.8-6.7,3.8c-1.6,0-2.7-0.5-3.5-1.399c-0.7-0.9-1-2.2-1-3.9v-4.7
			l1.6-1.6h8.3v-4h-9.9v-6.9h-4.3v6.9h-5.6v4h4l1.6,1.6v5.3c0,3,0.8,5.301,2.3,6.801c1.5,1.399,3.6,2.1,6.4,2.1
			c1.8,0,3.6-0.5,5.3-1.5c1.6-0.9,3-2.3,4.1-3.8l0,0L125.4,56.295L125.4,56.295z"/>
		<path fill="#FFFFFF" d="M139.5,43.895c-6.2,0-10.9,4.4-10.9,10.2c0,2.8,1.1,5.4,3.2,7.3c1,0.9,2.2,1.7,3.6,2.2s3,0.8,4.7,0.8
			c1.7,0,3.3-0.3,4.9-0.899c1.7-0.601,3.3-1.601,5-2.9l0,0l-2.3-2.899l0,0l0,0c-2.6,1.899-4.9,2.8-7.6,2.8c-3.6,0-6.2-1.7-6.9-4.601
			h17.5l0,0c0-3.1-1-5.899-2.7-8.1C145.9,45.195,143,43.895,139.5,43.895z M139.5,47.895c3.3,0,5.2,2.2,5.9,4.301v0.199h-12.3
			C133.9,49.595,136.4,47.895,139.5,47.895z"/>
		<path fill="#FFFFFF" d="M170.2,43.895c-3,0-6,1.801-8.8,5.301v-4.7h-8.6v4h2.9l1.6,1.6v7.9l-1.6,1.6h-2.9v4h17.3v-4H163l-1.6-1.6
			v-4.101c3.5-4.1,6-6.3,8.9-6.3c0.9,0,1.6,0.2,2,0.5c0.2,0.2,0.3,0.3,0.4,0.4c-0.1,0-0.4-0.101-0.5-0.101c-1.6,0-2.7,1-2.7,2.5
			c0,1,0.3,1.801,1,2.4c0.6,0.5,1.4,0.7,2.4,0.7c1.5,0,2.4-0.8,2.9-1.4c0.6-0.8,1-1.899,1-3c0-1.5-0.6-2.899-1.5-4
			C174,44.595,172.3,43.895,170.2,43.895z M175.5,46.195L175.5,46.195L175.5,46.195z M175.8,46.595
			C175.8,46.695,175.8,46.695,175.8,46.595C175.8,46.695,175.8,46.695,175.8,46.595z"/>
		<path fill="#FFFFFF" d="M200,58.095v-6.899c0-2.2-0.8-4-2.2-5.4c-1.399-1.2-3.2-1.9-5.3-1.9c-3.4,0-5.7,2.101-6.7,3.301v-2.7H178
			v4h2.1l1.6,1.6v7.9l-1.6,1.6H178v4h11.5v-4h-2.1l-1.601-1.6v-5.9c1.5-2.899,3.601-4.2,6.5-4.2c1.5,0,2.5,0.5,3.101,1.601
			c0.5,0.899,0.6,2.2,0.6,3.3v5.2l-1.6,1.6H192.3v4h11.5v-4h-2.1L200,58.095z"/>
		<path fill="#FFFFFF" d="M228.5,58.595l-0.3,0.2c-1.101,0.9-1.7,1.3-2.3,1.3c-0.9,0-1.101-0.6-1.101-1.399v-7.801
			c0-2-0.8-3.699-2.3-5c-1.6-1.3-3.9-2-6.7-2c-2.5,0-4.899,0.5-6.6,1.4c-2.101,1-3.2,2.6-3.2,4.5c0,1.8,1.3,3.1,3.2,3.1
			c1.8,0,3-1.1,3-2.6s-0.9-2.1-1.4-2.3c1.2-0.4,2-0.5,4.101-0.5c3.199,0,5.399,1.3,5.399,3.3v0.2l-9.899,3
			c-1.801,0.5-3,1.1-3.9,1.899c-1,0.9-1.5,2-1.5,3.4c0,1.6,0.6,3,1.8,3.9c1.101,0.899,2.7,1.3,4.7,1.3c3.7,0,7.1-2.3,8.9-3.601
			c0.199,1,0.699,1.801,1.399,2.4l0,0c0.101,0.1,0.2,0.2,0.3,0.3c0.801,0.601,1.801,0.9,2.801,0.9c1.899,0,3.199-0.601,5.5-2.7l0,0
			L228.5,58.595L228.5,58.595z M220.6,53.995v2.8c-2.1,1.7-5.3,3.7-8.199,3.7c-1.5,0-2.301-0.601-2.301-1.7c0-1,1-1.5,1.601-1.6
			L220.6,53.995z M224.3,47.995L224.3,47.995L224.3,47.995z M223.9,47.395L223.9,47.395L223.9,47.395z M223.5,46.895
			C223.5,46.795,223.5,46.795,223.5,46.895C223.5,46.795,223.5,46.795,223.5,46.895z M223,46.295L223,46.295L223,46.295z"/>
		<path fill="#FFFFFF" d="M249.2,56.295L249.2,56.295c-2.3,2.5-3.9,3.8-6.7,3.8c-1.6,0-2.7-0.5-3.5-1.399c-0.7-0.9-1-2.2-1-3.9v-4.7
			l1.6-1.6h8.301v-4H238v-6.9h-4.3v6.9H228.1v4h4l1.601,1.6v5.3c0,3,0.8,5.301,2.3,6.801c1.5,1.399,3.6,2.1,6.4,2.1
			c1.8,0,3.6-0.5,5.3-1.5c1.6-0.9,3-2.3,4.1-3.8l0,0L249.2,56.295L249.2,56.295z"/>
		<polygon fill="#FFFFFF" points="266.4,58.095 266.4,44.495 253.6,44.495 253.6,48.495 260.7,48.495 262.3,50.095 262.3,58.095 
			260.7,59.695 253.6,59.695 253.6,63.695 273.8,63.695 273.8,59.695 268,59.695 		"/>
		<path fill="#FFFFFF" d="M263.5,41.495c1.1,0,2.1-0.4,2.8-1.101c0.7-0.699,1.101-1.699,1.101-2.699c0-1.101-0.4-2.101-1.101-2.801
			c-0.7-0.699-1.7-1.1-2.8-1.1c-1,0-2,0.4-2.7,1.1c-0.7,0.7-1.1,1.7-1.1,2.801C259.7,39.795,261.4,41.495,263.5,41.495z"/>
		<path fill="#FFFFFF" d="M285.5,43.895c-3,0-5.8,1-7.9,2.9c-2,1.9-3.199,4.5-3.199,7.3s1.1,5.4,3.199,7.3c2,1.9,4.801,2.9,7.9,2.9
			c3,0,5.8-1,7.9-2.9c2-1.899,3.199-4.5,3.199-7.3s-1.1-5.399-3.199-7.3C291.3,44.895,288.5,43.895,285.5,43.895z M285.5,60.095
			c-3.7,0-6.2-2.5-6.2-6s2.601-6,6.2-6c3.7,0,6.2,2.5,6.2,6S289.1,60.095,285.5,60.095z"/>
		<path fill="#FFFFFF" d="M319.4,58.095v-6.899c0-2.2-0.801-4-2.2-5.4c-1.4-1.2-3.2-1.9-5.3-1.9c-3.4,0-5.7,2.101-6.7,3.301v-2.7
			h-7.8v4h2.1l1.6,1.6v7.9l-1.6,1.6h-2.1v4h11.5v-4H306.8l-1.6-1.6v-5.9c1.5-2.899,3.6-4.2,6.5-4.2c1.5,0,2.6,0.5,3.1,1.601
			c0.5,0.899,0.601,2.2,0.601,3.3v5.2l-1.601,1.6h-2.1v4h11.5v-4H321L319.4,58.095z"/>
		<path fill="#FFFFFF" d="M347,58.595l-0.3,0.2c-1.101,0.9-1.7,1.3-2.3,1.3c-0.9,0-1.101-0.6-1.101-1.399v-7.801
			c0-2-0.8-3.699-2.3-5c-1.6-1.3-3.9-2-6.7-2c-2.5,0-4.899,0.5-6.6,1.4c-2.101,1-3.2,2.6-3.2,4.5c0,1.8,1.3,3.1,3.2,3.1
			c1.8,0,3-1.1,3-2.6s-0.9-2.1-1.4-2.3c1.2-0.4,2-0.5,4.101-0.5c3.199,0,5.399,1.3,5.399,3.3v0.2l-9.899,3
			c-1.801,0.5-3,1.1-3.9,1.899c-1,0.9-1.5,2-1.5,3.4c0,1.6,0.6,3,1.8,3.9c1.101,0.899,2.7,1.3,4.7,1.3c3.7,0,7.1-2.3,8.9-3.601
			c0.199,1,0.699,1.801,1.399,2.4l0,0c0.101,0.1,0.2,0.2,0.3,0.3c0.801,0.601,1.801,0.9,2.801,0.9c1.899,0,3.199-0.601,5.5-2.7l0,0
			L347,58.595L347,58.595z M339.1,53.995v2.8c-2.1,1.7-5.3,3.7-8.199,3.7c-1.5,0-2.301-0.601-2.301-1.7c0-1,1-1.5,1.601-1.6
			L339.1,53.995z M342,46.795L342,46.795L342,46.795z M342.4,47.395L342.4,47.395L342.4,47.395z M342.7,47.995
			C342.7,47.995,342.8,47.995,342.7,47.995C342.8,47.995,342.7,47.995,342.7,47.995z"/>
		<polygon fill="#FFFFFF" points="364.2,59.695 362.6,58.095 362.6,35.995 349.8,35.995 349.8,39.995 356.9,39.995 358.5,41.595 
			358.5,58.095 356.9,59.695 349.8,59.695 349.8,63.695 370,63.695 370,59.695 		"/>
	</g>
	<g id="courrier_10_">
		<path fill="#FFFFFF" d="M68.2,29.795c1.5,0.7,3.3,1,5.1,1c3.9,0,7.8-2,10.7-5.4l0,0l-2.9-3.1l0,0l0,0c-2.2,2.6-5.1,4.1-7.8,4.1
			c-3.1,0-5.4-1.7-6.6-4.6l0,0c-0.5-1.3-0.8-2.8-0.8-4.6c0-5.7,2.7-9.1,7.2-9.1c3.7,0,6.2,3.6,7.1,6.1l0,0h3.2v-9.7h-4v1.2l-0.8,0.3
			c-1.1-1.2-3.4-2.1-5.4-2.1c-3.6,0-6.7,1.4-8.9,3.9c-2.1,2.4-3.2,5.8-3.2,9.6c0,3.7,1.2,7.1,3.3,9.6
			C65.5,28.195,66.8,29.195,68.2,29.795z M63.8,26.195L63.8,26.195L63.8,26.195z M63.2,25.295c0-0.1-0.1-0.1-0.1-0.2
			C63.1,25.195,63.2,25.195,63.2,25.295z M62.6,24.195c0-0.1-0.1-0.1-0.1-0.2C62.5,24.095,62.6,24.095,62.6,24.195z M62.1,22.895
			C62.1,22.895,62,22.895,62.1,22.895C62,22.895,62.1,22.895,62.1,22.895z"/>
		<path fill="#FFFFFF" d="M94.9,30.895c3,0,5.8-1,7.9-2.9c2-1.9,3.2-4.5,3.2-7.3c0-2.8-1.1-5.4-3.2-7.3c-2-1.9-4.8-2.9-7.9-2.9
			s-5.8,1-7.9,2.9c-2,1.9-3.2,4.5-3.2,7.3c0,2.8,1.1,5.4,3.2,7.3C89.1,29.795,91.9,30.895,94.9,30.895z M94.9,14.695
			c3.7,0,6.2,2.5,6.2,6s-2.6,6-6.2,6c-3.7,0-6.2-2.5-6.2-6S91.2,14.695,94.9,14.695z"/>
		<path fill="#FFFFFF" d="M109,16.695v6.9c0,2.2,0.8,4.1,2.2,5.4c1.3,1.2,3.3,1.9,5.4,1.9c1.4,0,2.8-0.4,4.1-1.1
			c0.9-0.6,1.8-1.3,2.6-2.2v2.7h7.8v-4H129l-1.6-1.6v-13.6h-7.8v4h2.1l1.6,1.6v5.9c-1.5,2.9-3.6,4.2-6.5,4.2c-3.1,0-3.7-2-3.7-4.9
			v-10.8h-7.8v4h2.1L109,16.695z"/>
		<path fill="#FFFFFF" d="M149.8,26.195h-7.1l-1.6-1.6v-4.1c3.5-4.1,6-6.3,8.9-6.3c0.9,0,1.6,0.2,2,0.5c0.2,0.2,0.3,0.3,0.4,0.5
			c-0.1,0-0.4-0.1-0.5-0.1c-1.6,0-2.7,1-2.7,2.5c0,1,0.3,1.8,1,2.4c0.6,0.5,1.4,0.7,2.4,0.7c1.5,0,2.4-0.8,2.9-1.4
			c0.6-0.8,1-1.9,1-3c0-1.5-0.6-2.9-1.5-4c-1.2-1.3-2.9-1.9-5-1.9c-3,0-6,1.8-8.8,5.3v-4.7h-8.6v4h2.9l1.6,1.6v7.9l-1.6,1.6h-2.9v4
			h17.3v-3.9H149.8z M155.1,12.795L155.1,12.795L155.1,12.795z M155.4,13.195C155.4,13.195,155.5,13.195,155.4,13.195
			C155.5,13.195,155.4,13.195,155.4,13.195z"/>
		<path fill="#FFFFFF" d="M174.8,26.195h-7.1l-1.6-1.6v-4.1c3.5-4.1,6-6.3,8.9-6.3c0.9,0,1.6,0.2,2,0.5c0.2,0.2,0.3,0.3,0.4,0.5
			c-0.1,0-0.4-0.1-0.5-0.1c-1.6,0-2.7,1-2.7,2.5c0,1,0.3,1.8,1,2.4c0.6,0.5,1.4,0.7,2.4,0.7c1.5,0,2.4-0.8,2.9-1.4
			c0.6-0.8,1-1.9,1-3c0-1.5-0.6-2.9-1.5-4c-1.2-1.3-2.9-1.9-5-1.9c-3,0-6,1.8-8.8,5.3v-4.7h-8.6v4h2.9l1.6,1.6v7.9l-1.6,1.6h-2.9v4
			h17.3v-3.9H174.8z M180.1,12.795L180.1,12.795L180.1,12.795z M180.4,13.195L180.4,13.195L180.4,13.195z"/>
		<polygon fill="#FFFFFF" points="202.6,26.195 196.8,26.195 195.2,24.595 195.2,11.095 182.4,11.095 182.4,15.095 189.5,15.095 
			191.1,16.695 191.1,24.595 189.5,26.195 182.4,26.195 182.4,30.195 202.6,30.195 		"/>
		<path fill="#FFFFFF" d="M192.3,7.995c1.101,0,2.101-0.4,2.8-1.1c0.7-0.7,1.101-1.7,1.101-2.7c0-1.1-0.4-2.1-1.101-2.8
			c-0.699-0.7-1.699-1.1-2.8-1.1c-1,0-2,0.4-2.7,1.1c-0.699,0.7-1.1,1.7-1.1,2.8C188.5,6.395,190.2,7.995,192.3,7.995z"/>
		<path fill="#FFFFFF" d="M208.5,30.095c1.4,0.5,3,0.8,4.7,0.8s3.3-0.3,4.899-0.9c1.7-0.6,3.301-1.6,5-2.9l0,0l-2.3-2.9l0,0l0,0
			c-2.6,1.9-4.899,2.8-7.6,2.8c-3.601,0-6.2-1.7-6.9-4.6h17.5l0,0c0-3.1-1-5.9-2.7-8.1c-2-2.4-4.899-3.7-8.399-3.7
			c-6.2,0-10.9,4.4-10.9,10.2c0,2.8,1.101,5.4,3.2,7.3C205.9,28.895,207.2,29.595,208.5,30.095z M206.3,18.895
			c0.7-2.7,3.2-4.4,6.3-4.4c3.301,0,5.2,2.2,5.9,4.3v0.2h-12.2V18.895z"/>
		<path fill="#FFFFFF" d="M242.4,26.195H235.3l-1.6-1.6v-4.1c3.5-4.1,6-6.3,8.899-6.3c0.9,0,1.601,0.2,2,0.5
			c0.2,0.2,0.301,0.3,0.4,0.5c-0.1,0-0.4-0.1-0.5-0.1c-1.6,0-2.7,1-2.7,2.5c0,1,0.3,1.8,1,2.4c0.601,0.5,1.4,0.7,2.4,0.7
			c1.5,0,2.399-0.8,2.899-1.4c0.601-0.8,1-1.9,1-3c0-1.5-0.6-2.9-1.5-4c-1.199-1.3-2.899-1.9-5-1.9c-3,0-6,1.8-8.8,5.3v-4.7h-8.6v4
			h2.899l1.601,1.6v7.9l-1.601,1.6H225.2v4h17.3v-3.9H242.4z M247.7,12.795C247.8,12.795,247.8,12.795,247.7,12.795
			C247.8,12.795,247.8,12.795,247.7,12.795z M248.1,13.195L248.1,13.195L248.1,13.195z"/>
	</g>
	<path id="globe_10_" fill="#FFFFFF" d="M50.4,32.895l-2.8,2.601c-0.2,0.2-0.4,0.3-0.7,0.3c-0.3,0-0.4-0.2-0.5-0.4l-2.7-3.7
		c-0.2-0.2-0.4-0.4-0.5-0.3c-0.4,0.3-0.3,0.5-0.2,0.7l3.2,4.3c0.2,0.2,0.3,0.301,0.6,0.301c0.2,0,0.3,0,0.4-0.101l1.4-0.7
		c0.1-0.1,0.3,0,0.4,0c0.2,0.101,0.3,0.301,0.2,0.5c-0.2,0.801-0.4,1.301-0.8,2c-0.4,0.601-0.6,0.9-1.2,1.4l-0.3,0.3
		c-0.3,0.2-0.5,0.4-0.6,0.8c-0.1,0.2-0.1,0.301-0.1,0.601l0.2,1.6c0,0.2,0,0.4-0.1,0.601c-0.1,0.199-0.2,0.199-0.4,0.3l-0.7,0.3
		c-0.2,0.1-0.3,0.2-0.4,0.5c-0.1,0.2-0.1,0.3-0.1,0.5l0.1,0.5c-2.6,4.8-1.9,6.6-5.3,6.6c-1.1,0-1.9-3.199-2.3-4.8l-0.4-2
		c-0.1-0.1-0.1-0.2,0-0.399c0-0.101,0.1-0.2,0.2-0.2c0.3-0.101,0.4-0.3,0.4-0.601c0-0.199,0-0.3-0.2-0.5l-1.4-1.6
		c-0.2-0.2-0.3-0.3-0.4-0.5s-0.1-0.2-0.1-0.4v-0.899c0-0.4-0.2-0.7-0.5-1c-0.3-0.3-0.6-0.4-1-0.4l-2.8,0.2c-0.4,0-0.6,0-1-0.2
		c-0.3-0.1-0.4-0.2-0.6-0.399l-1.8-2.301c-0.1-0.199-0.2-0.3-0.3-0.399c-0.1-0.2-0.1-0.3-0.1-0.5l-0.1-1.5c0-0.3,0-0.5,0.2-0.8
		c0.1-0.2,0.1-0.2,0.3-0.4l2.8-2.6c0.2-0.1,0.3-0.2,0.5-0.3c0.3-0.1,0.4-0.1,0.7-0.1h4.5c0.1,0,0.2,0.1,0.2,0.2c0,0.1,0,0.1,0,0.2
		l-0.1,0.4c0,0.1,0,0.2,0.1,0.3h0.1c0.3,0,0.4,0,0.7,0c0.1,0,0.2,0.1,0.3,0.1l1.1,0.7c0.1,0.1,0.2,0.1,0.3,0
		c0.1-0.1,0.1-0.1,0.1-0.2c0-0.1,0-0.1,0.1-0.2c0-0.1,0.1-0.1,0.1-0.2l0.4-0.3c0.1-0.1,0.1-0.1,0.3-0.1c0.1,0,0.1,0,0.2,0.1l0.7,0.4
		c0.2,0.1,0.4,0.2,0.7,0.2c0.1,0,0.2,0,0.3,0l1.1-0.2c0.2,0,0.3-0.1,0.4-0.3c0-0.1,0.1-0.1,0.1-0.2v-1.3c0-0.1-0.1-0.2-0.2-0.2
		s-0.2,0.1-0.3,0.2c0,0.2-0.3,0.1-0.4,0.1s-0.3,0-0.4,0h-0.3c-0.1,0-0.1,0-0.2,0s-0.1,0-0.2-0.1l-0.3-0.4c-0.1-0.1-0.1-0.1-0.1-0.2
		s0-0.2,0.1-0.2l1.3-0.9c0.1-0.1,0.2-0.1,0.3-0.2c0.1,0,0.2-0.1,0.3-0.1h0.9c0.2,0,0.4-0.2,0.3-0.4c0-0.1-0.1-0.1-0.2-0.2l-1-0.6
		c-0.1-0.1-0.1-0.1-0.2-0.1c-0.1,0-0.1,0-0.1,0.1l0.2,0.1c-0.1,0.1-0.1,0.1-0.2,0.2c-0.1,0-0.2,0-0.3,0c-0.2-0.1-0.3,0-0.5,0
		c-0.2,0.1-0.3,0.3-0.3,0.5v0.3c0,0.2,0,0.3-0.1,0.4s-0.1,0.2-0.3,0.2c-0.3,0.2-0.4,0.3-0.6,0.5c-0.1,0.1-0.2,0.1-0.2,0.2v0.6
		c0,0.2-0.1,0.2-0.3,0.2c-0.1,0-0.1-0.2-0.3-0.3l-0.4-0.4c-0.1-0.1-0.2-0.2-0.2-0.3c-0.1-0.2,0.1-0.4-0.1-0.6l-1-1
		c-0.2-0.2-0.4,0-0.5,0.1c0,0.1,0,0.1,0,0.2l0.9,1c0.1,0.1,0.1,0.1,0.1,0.2s-0.1,0.2-0.1,0.3c0,0.1,0.1,0.1,0.1,0.2s0,0.2-0.1,0.3
		l-0.5,0.4c-0.1,0.1-0.2,0.1-0.2,0c0-0.1,0-0.1,0-0.1c0.1-0.1,0.2-0.1,0.2-0.3c0,0,0-0.1-0.1-0.1l-1.2-1.7c-0.1-0.1-0.1-0.1-0.2-0.1
		s-0.2-0.1-0.3-0.1l-0.7,0.1c-0.2,0-0.3,0.1-0.4,0.2c0,0.1,0,0.1,0,0.2c0,0.1,0,0.2-0.1,0.4c-0.1,0.1-0.2,0.1-0.4,0.1
		c-0.1,0-0.3,0.1-0.3,0.2s0,0.1,0,0.2c0.1,0.2,0,0.3-0.2,0.4c-0.1,0.1-0.1,0.1-0.2,0.1l-1.2,0.4c-0.1,0-0.2,0-0.3,0
		c-0.1,0-0.1,0-0.2-0.1l-0.8-0.7l-0.1-0.1c0-0.1,0-0.1,0-0.2l0.5-1.5c0-0.1,0.1-0.1,0.2-0.1s0.2-0.1,0.3,0l1.5,0.2
		c0.1,0,0.1,0,0.2,0s0.1,0,0.1-0.1l0.1-0.4c0-0.1,0-0.2,0-0.3c0-0.1-0.1-0.1-0.1-0.1l-0.3-0.1c-0.1,0-0.1-0.2-0.1-0.3
		c0-0.1,0.1-0.1,0.2-0.1h0.4c0.1,0,0.1,0,0.2,0s0.1,0,0.2-0.1l1.9-1.2c0.1,0,0.2-0.1,0.2-0.2c0-0.1,0-0.1,0-0.2v-0.5
		c0-0.1,0.2-0.2,0.3-0.1c0.1,0,0.2,0.1,0.2,0.2v0.5c0,0.1,0,0.1,0,0.2c0,0,0.1,0,0.1,0.1l0.7,0.2h0.1c0.1,0,0.1,0,0.2-0.1
		c0.1-0.1,0.1-0.2,0.2-0.3c0.1-0.1,0.2-0.1,0.3-0.2c0.1,0,0.2-0.1,0.3-0.2c0.1-0.1,0.1-0.2,0-0.3c0-0.1,0-0.2,0.1-0.3
		c0.1-0.1,0.1-0.1,0.3-0.2c0.1,0,0.1,0,0.2-0.1c0-0.1,0-0.1,0-0.2v-0.2c0-0.1,0-0.1,0-0.2c0-0.1,0.1-0.1,0.2-0.1l0.8-0.3
		c0.1,0,0.1-0.1,0.1-0.2c0-0.1-0.1-0.1-0.2-0.1l-0.7,0.2c-0.1,0-0.1,0.1-0.2,0c-0.1-0.1-0.1-0.1-0.1-0.1l0.2-1.1
		c0-0.1-0.1-0.3-0.3-0.3c-0.1,0-0.2,0.1-0.2,0.2l-0.3,1c0,0.2,0,0.3-0.1,0.5c-0.1,0.1-0.2,0.1-0.3,0.3c-0.1,0.1-0.1,0.1-0.1,0.2v0.7
		c0,0.1,0,0.1,0,0.2s-0.1,0.1-0.1,0.2l-0.2,0.2c-0.1,0.1-0.1,0.1-0.2,0.1s-0.1-0.1-0.2-0.2l-0.3-0.8c0-0.1-0.1-0.1-0.1-0.1
		c-0.1,0-0.1,0-0.1,0l-0.3,0.3c-0.1,0.1-0.1,0.1-0.2,0c-0.1,0-0.2-0.1-0.2-0.2v-0.6c0-0.1,0-0.2,0-0.3s0-0.2,0.1-0.3l1.7-2.1
		c0.1-0.1,0.2-0.1,0.3-0.2c0.1,0,0.1,0,0.2,0h1.3c0.1,0,0.2,0,0.3,0s0.2,0,0.3,0.1l0.4,0.4c0.1,0.1,0.2,0.2,0.4,0.3
		c0.2,0,0.3,0,0.4-0.1l0.3-0.3c0.2-0.1,0.2-0.2,0.3-0.4c0-0.1,0-0.2-0.1-0.3l-1.5-1.7c-0.1-0.2-0.1-0.4,0.1-0.5
		c0.2-0.1,0.4-0.1,0.5,0l1,1.1l0.3,0.3c0.4,0.4,0.9,0.5,1.3,0.2c0.4-0.3,0.3-0.9-0.1-1.3l-1.3-1.2c-0.2-0.2-0.2-0.4-0.1-0.7
		c0.1-0.1,0.1-0.2,0.2-0.3l0.5-0.4c4.7,3.7,8,8.9,9.2,15h-5c-0.2,0-0.4,0.1-0.5,0.3c-0.1,0.2-0.2,0.4-0.1,0.6l0.4,0.8
		c0.1,0.1,0.2,0.2,0.3,0.3c0.2,0.1,0.4,0,0.5-0.1l0.8-0.6c0.1-0.1,0.2-0.1,0.4-0.1c0.2,0,0.3,0,0.4,0.1l0.6,0.6
		c0.3,0.3,0.4,0.5,0.4,0.9C50.7,32.395,50.7,32.595,50.4,32.895 M23.8,16.495c-0.1-0.2-0.1-0.4,0.1-0.6l1.2-1.3
		c0.2-0.1,0.4-0.2,0.6-0.2c0.2,0,0.3,0,0.5,0.1c0.2,0.1,0.3,0.1,0.6,0c0.3-0.1,0.4-0.2,0.6-0.4l0.8-1.6c0.1-0.3-0.1-0.4-0.2-0.6
		c-0.2-0.2-0.2-0.3-0.6-0.3h-1.3c-0.2,0-0.3,0-0.4,0.1c-0.2,0.1-0.2,0.2-0.3,0.3l-0.9,1.4c-0.1,0.2-0.3,0.3-0.5,0.4
		c-0.3,0.1-0.5,0.2-0.8,0.1h-0.7c-0.2,0-0.2,0-0.4,0.1c-0.2,0.1-0.3,0.2-0.4,0.5l-1.6,3.6c-0.1,0.2-0.2,0.3-0.4,0.4
		c-0.3,0.2-0.5,0.2-0.8,0.3h-0.7c-0.2,0-0.4,0-0.6-0.2c-0.1-0.1-0.2-0.2-0.3-0.4l-2.6-5.5c3.8-2.3,8.3-3.6,13-3.6c0.3,0,0.6,0,0.9,0
		l-0.2,0.9c-0.1,0.2,0,0.3,0,0.4s0,0.3,0.2,0.3l2.3,0.6c0.2,0.1,0.4,0.2,0.5,0.4c0.1,0.2,0.1,0.4,0,0.6l-1.7,2.6
		c-0.2,0.2-0.3,0.3-0.6,0.4c-0.2,0.1-0.3,0.1-0.4,0.1c-0.1,0-0.2,0-0.3,0c-0.2,0.1-0.4,0.2-0.5,0.5c-0.1,0.2-0.1,0.2-0.3,0.3
		c-0.1,0.1-0.2,0.1-0.3,0.1l-3.1,0.3C24.1,16.895,23.9,16.795,23.8,16.495 M23.5,40.395L23.5,40.395c0,0.301-0.1,0.9-0.3,1.2
		l-1.6,3.3c-0.1,0.301-0.5,0.7-0.7,1l-5.1,6.2c-0.2,0.2-0.2,0.4,0.2,0.4h0.6c0.3,0,0.6,0.2,0.6,0.5s-0.3,0.5-0.6,0.5h-2.5
		c-0.3,0-0.6-0.3-0.6-0.601v-7.899c0-0.3,0.3-0.601,0.6-0.601h0.7c0.3,0,0.6-0.3,0.6-0.6v-0.7c0-0.3-0.3-0.6-0.6-0.6h-0.7
		c-0.3,0-0.6-0.3-0.6-0.601v-3.8c0-0.3-0.3-0.6-0.6-0.6h-1c-0.3,0-0.8-0.2-1.1-0.4l-3.3-2.3c-0.3-0.2-0.6-0.6-0.8-0.9l-1.5-2.6
		c-0.2-0.3-0.6-0.5-0.9-0.5H3.5c-0.2,0-0.5-0.1-0.7-0.3c1.1-6.8,4.8-12.6,10.1-16.5v3.9c0,0.3,0.2,0.8,0.5,1l1.1,0.8
		c0.3,0.2,0.8,0.4,1.1,0.4h0.9c0.3,0,0.6,0.2,0.6,0.5c0,0.3-0.2,0.7-0.4,0.9l-1.3,1.4c-0.2,0.2-0.1,0.4,0.2,0.4h0.9
		c0.3,0,0.6,0.3,0.6,0.6v2.2c0,0.3,0.3,0.6,0.6,0.6h1c0.3,0,0.6,0.2,0.6,0.5c0,0.3-0.3,0.5-0.6,0.5h-3c-0.3,0-0.8,0.2-1.1,0.4
		l-1.2,0.9c-0.3,0.2-0.5,0.6-0.5,1v3.6c0,0.3-0.3,0.601-0.6,0.601h-0.2c-0.3,0-0.6-0.301-0.6-0.601v-2.3c0-0.3-0.3-0.6-0.6-0.6H9.2
		c-0.3,0-0.6,0.3-0.6,0.6v1.7c0,0.3,0.2,0.8,0.5,1l2.4,1.899c0.3,0.2,0.7,0.4,1.1,0.4h4c0.3,0,0.9,0.1,1.1,0.3l5.2,2.7
		c0.3,0.2,0.5,0.6,0.5,0.9v0.199H23.5z M32.8,19.495h0.8c0.3,0,0.2,0.4,0.1,0.5c-0.1,0.1-0.2,0.1-0.3,0.1l-0.4-0.1h-0.1h-0.1h-0.1
		c-0.2,0-0.2-0.1-0.2-0.2C32.5,19.595,32.6,19.495,32.8,19.495 M33.8,23.795c0,0,0,0.1-0.1,0.1l-0.6,0.5H33c-0.1,0-0.1-0.1-0.1-0.1
		l-0.1-0.3v-0.1c0-0.1,0-0.1,0.1-0.1l0.5-0.5c0.1,0,0.1-0.1,0.2,0c0,0,0.1,0,0.1,0.1l0.1,0.3C33.8,23.595,33.8,23.695,33.8,23.795
		 M34.3,23.895l-0.4-0.9c0-0.1-0.1-0.1-0.1-0.2s0-0.2,0.1-0.2l0.6-0.5c0.1-0.1,0.1-0.1,0.2,0c0,0,0,0,0.1,0.1l0.1,0.4v0.1
		c0,0,0,0.1-0.1,0.1c-0.1,0-0.1,0.1-0.1,0.1c0,0.1,0,0.2,0.1,0.2l0.4,0.7c0.1,0.1,0.1,0.1,0.1,0.2c0,0.1-0.1,0.2-0.2,0.2l-0.5,0.4
		c-0.1,0-0.1,0-0.2,0s-0.1,0-0.1-0.1l-0.2-0.3c0-0.1,0-0.1,0-0.2C34.1,23.895,34.2,23.895,34.3,23.895h0.2c0,0,0.1,0,0.1-0.1
		C34.3,23.995,34.3,23.995,34.3,23.895 M37.8,16.295c0-0.1,0-0.1,0.1-0.1l0.7-0.5c0.1,0,0.1,0,0.2,0v0.1l-0.2,0.2
		c-0.1,0.1-0.1,0.1,0,0.2c0,0.1,0.1,0.1,0.2,0.1c0.2-0.1,0.2,0.1,0.2,0.2c0,0.1,0,0.1-0.1,0.2l-0.4,0.3h-0.1c0,0-0.1,0-0.1-0.1
		l-0.4-0.5C37.8,16.395,37.8,16.395,37.8,16.295 M27.8,6.495c-15.4,0-27.8,12.5-27.8,27.8s12.4,27.8,27.8,27.8
		c15.3,0,27.8-12.399,27.8-27.8C55.6,18.995,43.1,6.495,27.8,6.495"/>
</g>
</svg>
