<?xml version="1.0" encoding="utf-8"?>
<!-- Generator: Adobe Illustrator 21.1.0, SVG Export Plug-In . SVG Version: 6.00 Build 0)  -->
<svg version="1.1" id="Layer_1" xmlns="http://www.w3.org/2000/svg" xmlns:xlink="http://www.w3.org/1999/xlink" x="0px" y="0px"
	 viewBox="0 0 1050 1050" style="enable-background:new 0 0 1050 1050;" xml:space="preserve">
<style type="text/css">
	.lign-st0{fill:#070808;}
</style>
<g id="mask">
	<g>
		<g>
			<g>
				<path class="lign-st0" d="M829.6,218.4c20.1,20,38.2,41.9,54,65.4c15.8,23.5,29.3,48.6,40.2,74.8c10.9,26.2,19.2,53.4,24.8,81.2
					c5.6,27.8,8.4,56.1,8.4,84.5c0.1,28.3-2.6,56.7-8,84.5c-5.4,27.8-13.7,55.1-24.5,81.3c-10.8,26.2-24.2,51.4-39.9,75
					c-15.8,23.6-33.9,45.6-53.9,65.6c-20.1,20-42.1,38.2-65.6,53.9c-23.6,15.8-48.7,29.2-75,39.9c-26.2,10.8-53.5,19-81.3,24.5
					c-27.8,5.5-56.2,8.1-84.5,8c-28.4-0.1-56.7-2.9-84.5-8.4c-27.8-5.6-55-13.9-81.2-24.8c-26.2-10.9-51.3-24.4-74.8-40.2
					c-23.5-15.8-45.4-34-65.4-54c20.1,20,42,38.1,65.6,53.8c23.5,15.8,48.6,29.1,74.8,40c26.2,10.8,53.4,19.1,81.1,24.7
					c27.8,5.5,56.1,8.3,84.4,8.3c28.3,0,56.6-2.6,84.4-8.1c27.8-5.5,55-13.7,81.2-24.5c26.2-10.8,51.3-24.2,74.8-39.9
					c23.5-15.7,45.4-33.9,65.4-53.9c20-20,38.1-41.9,53.9-65.4c15.8-23.5,29.1-48.6,39.9-74.8c10.8-26.2,19-53.4,24.5-81.2
					c5.5-27.8,8.1-56.1,8.1-84.4c0-28.3-2.8-56.6-8.3-84.4c-5.5-27.8-13.8-55-24.7-81.1c-10.8-26.2-24.2-51.3-40-74.8
					C867.7,260.5,849.6,238.5,829.6,218.4z"/>
			</g>
			<g>
				<path class="lign-st0" d="M762.8,285.2c15.7,15.7,30,32.8,42.4,51.2c12.4,18.4,23,38,31.6,58.5c8.6,20.5,15.1,41.8,19.6,63.6
					c4.4,21.8,6.7,44,6.8,66.2c0.1,22.2-1.9,44.4-6.1,66.3c-4.2,21.8-10.6,43.2-19,63.8c-8.4,20.6-18.9,40.3-31.2,58.8
					c-12.3,18.5-26.5,35.7-42.2,51.5c-15.7,15.7-33,29.9-51.4,42.2c-18.5,12.3-38.2,22.8-58.8,31.2c-20.6,8.4-42,14.8-63.8,19
					c-21.8,4.2-44,6.2-66.3,6.1c-22.2-0.1-44.4-2.4-66.2-6.8c-21.8-4.4-43.1-11-63.6-19.6c-20.5-8.6-40.1-19.2-58.5-31.6
					C317.8,793,300.7,778.7,285,763c15.7,15.7,32.9,29.8,51.3,42.2c18.4,12.4,38.1,22.9,58.5,31.4c20.5,8.5,41.8,15.1,63.5,19.4
					c21.7,4.4,43.9,6.6,66.1,6.7c22.2,0.1,44.3-1.9,66.1-6.1c21.8-4.2,43.1-10.6,63.6-19c20.5-8.4,40.2-18.9,58.6-31.2
					c18.4-12.3,35.6-26.5,51.3-42.2c15.7-15.7,29.9-32.8,42.2-51.3c12.3-18.4,22.8-38.1,31.2-58.6c8.4-20.5,14.8-41.8,19-63.6
					c4.2-21.8,6.2-43.9,6.1-66.1c-0.1-22.2-2.3-44.3-6.7-66.1c-4.4-21.7-10.9-43-19.4-63.5c-8.5-20.5-19-40.1-31.4-58.5
					C792.7,318.1,778.5,300.9,762.8,285.2z"/>
			</g>
			<g>
				<path class="lign-st0" d="M851.9,196.2c21.5,21.5,41,45,57.9,70.2c17,25.2,31.4,52.1,43.1,80.2c11.7,28.1,20.6,57.3,26.5,87.1
					c5.9,29.8,8.9,60.2,9,90.6c0.1,30.4-2.8,60.8-8.7,90.6c-5.9,29.8-14.7,59.1-26.3,87.2c-11.6,28.1-25.9,55.1-42.9,80.4
					c-16.9,25.3-36.3,48.9-57.8,70.4c-21.5,21.5-45.1,40.9-70.4,57.8c-25.3,16.9-52.2,31.3-80.4,42.9
					c-28.1,11.6-57.3,20.4-87.2,26.3c-29.8,5.9-60.2,8.7-90.6,8.7c-30.4,0-60.8-3-90.6-9c-29.8-5.9-59-14.8-87.1-26.5
					c-28.1-11.7-55-26.1-80.2-43.1C241,893,217.5,873.5,196,852c21.5,21.4,45.1,40.8,70.3,57.7c25.2,16.9,52.2,31.2,80.2,42.8
					c28.1,11.6,57.2,20.5,87,26.4c29.8,5.9,60.1,8.9,90.5,8.9c30.4,0,60.7-2.9,90.5-8.8c29.8-5.9,59-14.7,87-26.3
					c28.1-11.6,55-25.9,80.2-42.8c25.2-16.9,48.7-36.3,70.2-57.8c21.5-21.5,40.9-45,57.8-70.2c16.9-25.2,31.3-52.1,42.8-80.2
					c11.6-28,20.5-57.2,26.3-87c5.9-29.8,8.8-60.1,8.8-90.5c0-30.4-3-60.7-8.9-90.5c-5.9-29.8-14.8-59-26.4-87
					c-11.6-28.1-25.9-55-42.8-80.2C892.7,241.2,873.3,217.7,851.9,196.2z"/>
			</g>
			<g>
				<path class="lign-st0" d="M785.1,262.9c17.2,17.1,32.7,35.9,46.3,56c13.6,20.1,25.1,41.5,34.5,63.9c9.4,22.4,16.5,45.7,21.3,69.5
					c4.8,23.8,7.2,48,7.3,72.3c0.1,24.3-2.1,48.5-6.7,72.4c-4.6,23.8-11.6,47.2-20.8,69.6c-9.2,22.5-20.6,44-34.1,64.2
					c-13.5,20.2-29,39-46.1,56.2c-17.2,17.2-36,32.7-56.2,46.1c-20.2,13.5-41.7,24.9-64.2,34.1c-22.5,9.2-45.8,16.2-69.6,20.8
					c-23.8,4.6-48.1,6.8-72.4,6.7c-24.3-0.1-48.5-2.5-72.3-7.3c-23.8-4.8-47.1-11.9-69.5-21.3c-22.4-9.4-43.8-20.9-63.9-34.5
					c-20.1-13.6-38.8-29.1-56-46.3c17.2,17.1,36,32.6,56.1,46.1c20.1,13.5,41.6,25,64,34.2c22.4,9.3,45.6,16.4,69.4,21.2
					c23.7,4.8,48,7.2,72.2,7.2c24.2,0.1,48.4-2.2,72.2-6.8c23.8-4.6,47.1-11.6,69.5-20.8c22.4-9.2,43.9-20.6,64-34.1
					c20.1-13.5,38.9-29,56-46.1c17.1-17.1,32.6-35.9,46.1-56c13.5-20.1,24.9-41.6,34.1-64c9.2-22.4,16.2-45.7,20.8-69.5
					c4.6-23.8,6.9-48,6.8-72.2c-0.1-24.2-2.5-48.4-7.2-72.2c-4.8-23.7-11.9-47-21.2-69.4c-9.3-22.4-20.7-43.8-34.2-64
					C817.7,298.9,802.2,280.1,785.1,262.9z"/>
			</g>
			<g>
				<path class="lign-st0" d="M718.3,329.7c12.8,12.8,24.5,26.7,34.6,41.7c10.2,15,18.9,31,25.9,47.6c14.1,33.4,21.5,69.5,21.8,105.8
					c0.2,18.1-1.4,36.3-4.8,54.1c-3.3,17.8-8.5,35.3-15.3,52.1c-6.8,16.8-15.3,32.9-25.4,48c-10,15.1-21.6,29.2-34.4,42
					c-12.8,12.8-26.9,24.4-42,34.4c-15.1,10-31.2,18.6-48,25.4c-16.8,6.8-34.3,11.9-52.1,15.3c-17.8,3.4-35.9,4.9-54.1,4.8
					c-36.2-0.3-72.4-7.7-105.8-21.8c-16.7-7-32.7-15.7-47.6-25.9c-15-10.2-29-21.8-41.7-34.6c12.8,12.8,26.8,24.3,41.9,34.4
					c15,10.1,31,18.7,47.7,25.7c16.7,7,34,12.4,51.7,16c17.7,3.6,35.8,5.5,53.9,5.6c18.1,0.1,36.2-1.5,53.9-4.8
					c17.8-3.4,35.2-8.5,51.9-15.3c16.7-6.8,32.8-15.3,47.8-25.4c15-10,29-21.6,41.8-34.4c12.8-12.8,24.3-26.8,34.4-41.8
					c10-15,18.5-31.1,25.4-47.8c6.8-16.7,12-34.2,15.3-51.9c3.4-17.8,5-35.8,4.8-53.9c-0.1-18.1-2-36.1-5.6-53.9
					c-3.6-17.7-9-35.1-16-51.7c-7-16.7-15.6-32.7-25.7-47.7C742.7,356.5,731.1,342.5,718.3,329.7z"/>
			</g>
			<g>
				<path class="lign-st0" d="M651.6,396.4c17,16.8,30.9,36.9,40.3,58.9c9.5,22,14.5,45.9,14.9,69.8c0.5,23.9-3.7,48-12.6,70.3
					c-8.8,22.3-22.4,42.7-39.3,59.6c-16.9,17-37.3,30.5-59.6,39.3c-22.3,8.9-46.4,13.1-70.3,12.6c-24-0.4-47.8-5.5-69.8-14.9
					c-22-9.5-42-23.4-58.9-40.3c17,16.9,37,30.6,59.1,39.9c22,9.4,45.8,14.4,69.6,14.7c23.9,0.4,47.8-3.8,70-12.7
					c22.2-8.8,42.4-22.4,59.2-39.3c16.9-16.8,30.4-37.1,39.3-59.2c8.9-22.2,13.1-46.1,12.7-70c-0.3-23.9-5.4-47.7-14.7-69.6
					C682.2,433.5,668.4,413.4,651.6,396.4z"/>
			</g>
			<g>
				<path class="lign-st0" d="M874.1,173.9c23,22.9,43.7,48,61.8,74.9c18.1,26.9,33.5,55.6,45.9,85.6c12.4,30,21.9,61.1,28.2,93
					c6.3,31.8,9.5,64.3,9.5,96.7c0,32.4-3.1,64.9-9.4,96.7c-6.3,31.8-15.7,63-28.1,93c-12.4,30-27.7,58.8-45.8,85.7
					c-18,27-38.8,52.1-61.7,75.1c-23,22.9-48.1,43.7-75.1,61.7c-27,18.1-55.7,33.4-85.7,45.8c-30,12.4-61.2,21.8-93,28.1
					c-31.8,6.3-64.3,9.4-96.7,9.4c-32.4,0-64.9-3.2-96.7-9.5c-31.8-6.3-63-15.8-93-28.2c-30-12.4-58.7-27.8-85.6-45.9
					c-26.9-18.1-52-38.9-74.9-61.8c23,22.9,48.1,43.6,75.1,61.6c26.9,18,55.7,33.3,85.7,45.7c29.9,12.4,61.1,21.8,92.9,28.1
					c31.8,6.3,64.2,9.4,96.6,9.4c32.4,0,64.8-3.1,96.6-9.4c31.8-6.3,62.9-15.8,92.9-28.2c29.9-12.4,58.6-27.7,85.6-45.8
					c26.9-18,52-38.8,74.9-61.7c22.9-22.9,43.6-48,61.7-74.9c18-26.9,33.4-55.6,45.8-85.6c12.4-29.9,21.9-61.1,28.2-92.9
					c6.3-31.8,9.4-64.2,9.4-96.6c0-32.4-3.1-64.8-9.4-96.6c-6.3-31.8-15.7-62.9-28.1-92.9c-12.3-30-27.7-58.7-45.7-85.7
					C917.7,222,897,196.9,874.1,173.9z"/>
			</g>
			<g>
				<path class="lign-st0" d="M807.4,240.7c18.6,18.6,35.5,38.9,50.2,60.7c14.7,21.8,27.2,45.1,37.3,69.3c10.1,24.3,17.9,49.5,23,75.3
					c5.2,25.8,7.8,52.1,7.9,78.4c0.1,26.3-2.3,52.6-7.4,78.5c-5,25.8-12.6,51.1-22.6,75.5c-10,24.3-22.4,47.7-37,69.6
					c-14.6,21.9-31.4,42.3-50,60.9c-18.6,18.6-39,35.4-60.9,50c-21.9,14.6-45.2,27-69.6,37c-24.3,10-49.7,17.6-75.5,22.6
					c-25.8,5-52.1,7.5-78.5,7.4c-26.3-0.1-52.6-2.7-78.4-7.9c-25.8-5.2-51.1-12.9-75.3-23c-24.3-10.1-47.5-22.6-69.3-37.3
					c-21.8-14.7-42.1-31.5-60.7-50.2c18.6,18.6,39,35.3,60.8,50c21.8,14.6,45.1,27.1,69.4,37.1c24.3,10.1,49.5,17.8,75.3,22.9
					c25.8,5.1,52,7.7,78.3,7.8c26.3,0.1,52.5-2.4,78.3-7.4c25.8-5,51-12.7,75.3-22.7c24.3-10,47.6-22.4,69.4-37
					c21.8-14.6,42.2-31.4,60.7-50c18.6-18.6,35.4-38.9,50-60.7c14.6-21.8,27-45.1,37-69.4c10-24.3,17.6-49.5,22.7-75.3
					c5-25.8,7.5-52,7.4-78.3c-0.1-26.3-2.6-52.5-7.8-78.3c-5.1-25.8-12.8-51-22.9-75.3c-10-24.3-22.5-47.6-37.1-69.4
					C842.7,279.7,825.9,259.3,807.4,240.7z"/>
			</g>
			<g>
				<path class="lign-st0" d="M740.6,307.4c14.3,14.2,27.2,29.8,38.5,46.5c11.3,16.7,21,34.5,28.8,53.1c7.8,18.6,13.8,37.9,17.8,57.7
					c4,19.8,6.1,39.9,6.2,60.1c0.3,40.3-7.3,80.7-22.5,118.1c-7.6,18.7-17.1,36.6-28.3,53.4c-11.2,16.8-24.1,32.4-38.3,46.7
					c-14.3,14.3-29.9,27.1-46.7,38.3c-16.8,11.2-34.7,20.7-53.4,28.3c-37.4,15.3-77.8,22.9-118.1,22.5c-20.2-0.1-40.3-2.2-60.1-6.2
					c-19.8-4-39.1-10-57.7-17.8c-18.6-7.8-36.4-17.5-53.1-28.8c-16.7-11.3-32.2-24.2-46.5-38.5c14.3,14.2,29.9,27.1,46.6,38.3
					c16.7,11.2,34.5,20.8,53.1,28.5c18.6,7.8,37.9,13.7,57.6,17.7c19.7,4,39.8,6,60,6.2c40.2,0.3,80.5-7.4,117.8-22.6
					c18.6-7.6,36.5-17.1,53.2-28.3c16.7-11.2,32.3-24,46.5-38.3c14.2-14.2,27.1-29.8,38.3-46.5c11.2-16.7,20.7-34.6,28.3-53.2
					c15.3-37.2,22.9-77.5,22.7-117.8c-0.1-20.1-2.1-40.2-6.1-60c-4-19.7-10-39-17.7-57.6c-7.7-18.6-17.3-36.4-28.5-53.1
					C767.7,337.3,754.8,321.7,740.6,307.4z"/>
			</g>
			<g>
				<path class="lign-st0" d="M860.8,187.3c22.1,22,42.1,46.2,59.5,72.1c17.4,25.9,32.2,53.5,44.2,82.4c12,28.8,21.1,58.8,27.2,89.4
					c6.1,30.6,9.1,61.8,9.2,93c0,31.2-2.9,62.4-9,93.1c-6,30.6-15.1,60.7-27,89.5c-11.9,28.9-26.7,56.6-44,82.5
					c-17.4,26-37.3,50.2-59.4,72.3c-22.1,22.1-46.3,42-72.3,59.4c-26,17.4-53.6,32.1-82.5,44c-28.9,11.9-58.9,21-89.5,27
					c-30.6,6-61.9,9-93.1,9c-31.2,0-62.4-3.1-93-9.2c-30.6-6.1-60.6-15.2-89.4-27.2c-28.8-12-56.5-26.8-82.4-44.2
					c-25.9-17.4-50-37.4-72.1-59.5c22.1,22,46.3,41.9,72.2,59.3c25.9,17.3,53.6,32.1,82.4,44c28.8,11.9,58.8,21,89.4,27.1
					c30.6,6.1,61.8,9.1,92.9,9.1c31.2,0,62.4-3,92.9-9c30.6-6,60.5-15.1,89.3-27.1c28.8-11.9,56.4-26.7,82.3-44
					c25.9-17.3,50-37.3,72.1-59.3c22-22,42-46.2,59.3-72.1c17.4-25.9,32.1-53.5,44-82.3c11.9-28.8,21-58.8,27.1-89.3
					c6.1-30.6,9-61.8,9-92.9c0-31.2-3-62.4-9.1-92.9c-6.1-30.6-15.2-60.6-27.1-89.4c-11.9-28.8-26.6-56.5-44-82.4
					C902.7,233.6,882.8,209.4,860.8,187.3z"/>
			</g>
			<g>
				<path class="lign-st0" d="M794,254c17.7,17.7,33.8,37.1,47.8,57.9c14,20.8,26,43,35.6,66.1c9.7,23.1,17,47.2,22,71.8
					c5,24.6,7.5,49.7,7.6,74.7c0.1,25.1-2.2,50.2-7,74.8c-4.8,24.6-12,48.8-21.5,72c-9.5,23.2-21.3,45.5-35.3,66.3
					c-13.9,20.9-30,40.3-47.7,58.1c-17.7,17.7-37.2,33.8-58.1,47.7c-20.9,13.9-43.1,25.8-66.3,35.3c-23.2,9.5-47.3,16.8-72,21.5
					c-24.6,4.8-49.7,7.1-74.8,7c-25.1-0.1-50.1-2.6-74.7-7.5c-24.6-4.9-48.7-12.3-71.8-22c-23.1-9.7-45.3-21.6-66.1-35.6
					c-20.8-14-40.2-30.1-57.9-47.8c17.8,17.7,37.2,33.7,58,47.6c20.8,13.9,43,25.8,66.1,35.4c23.1,9.6,47.2,17,71.7,21.9
					c24.5,4.9,49.6,7.4,74.6,7.5c25,0.1,50.1-2.3,74.6-7.1c24.6-4.8,48.7-12,71.8-21.6c23.1-9.5,45.3-21.3,66.1-35.3
					c20.8-13.9,40.2-29.9,57.9-47.6c17.7-17.7,33.7-37.1,47.6-57.9c13.9-20.8,25.8-43,35.3-66.1c9.5-23.1,16.8-47.2,21.6-71.8
					c4.8-24.6,7.1-49.6,7.1-74.6c-0.1-25-2.5-50.1-7.5-74.6c-4.9-24.6-12.3-48.6-21.9-71.7c-9.6-23.1-21.4-45.3-35.4-66.1
					C827.7,291.2,811.7,271.8,794,254z"/>
			</g>
			<g>
				<path class="lign-st0" d="M727.2,320.8c13.4,13.4,25.6,28,36.2,43.6c10.6,15.7,19.7,32.4,27.1,49.8c14.7,34.9,22.4,72.7,22.7,110.6
					c0.2,18.9-1.5,37.9-5,56.5c-3.5,18.6-8.9,36.9-16,54.4c-7.1,17.6-16,34.4-26.5,50.2c-10.5,15.8-22.6,30.5-36,43.9
					c-13.4,13.4-28.1,25.5-43.9,36c-15.8,10.5-32.6,19.4-50.2,26.5c-17.5,7.1-35.8,12.5-54.4,16c-18.6,3.5-37.6,5.2-56.5,5
					c-37.9-0.3-75.7-8-110.6-22.7c-17.4-7.4-34.2-16.4-49.8-27.1c-15.7-10.6-30.3-22.8-43.6-36.2c13.4,13.3,28.1,25.4,43.8,36
					c15.7,10.5,32.4,19.5,49.9,26.8c17.4,7.3,35.6,12.9,54.1,16.7c18.5,3.8,37.4,5.7,56.3,5.8c18.9,0.1,37.8-1.6,56.4-5.1
					c18.6-3.5,36.8-8.9,54.3-16.1c17.5-7.1,34.3-16,50-26.5c15.7-10.5,30.3-22.6,43.7-35.9c13.4-13.3,25.4-28,35.9-43.7
					c10.5-15.7,19.4-32.5,26.5-50c7.1-17.5,12.5-35.7,16.1-54.2c3.5-18.6,5.2-37.5,5.1-56.4c-0.1-18.9-2.1-37.8-5.8-56.3
					c-3.8-18.5-9.4-36.7-16.7-54.1c-7.3-17.4-16.3-34.2-26.8-49.9C752.7,348.8,740.6,334.2,727.2,320.8z"/>
			</g>
			<g>
				<path class="lign-st0" d="M660.5,387.5c18.1,18,32.9,39.4,43,62.9c10.1,23.5,15.5,49,15.9,74.6c0.4,25.6-4.1,51.3-13.6,75.1
					c-9.4,23.8-23.9,45.6-42.1,63.7c-18.1,18.1-39.9,32.6-63.7,42.1c-23.8,9.5-49.5,14-75.1,13.6c-25.6-0.4-51.1-5.8-74.6-15.9
					c-23.5-10.1-44.9-24.9-62.9-43c18.1,18,39.6,32.7,63.1,42.6c23.5,10,48.9,15.3,74.4,15.6c25.5,0.4,51.1-4.2,74.8-13.7
					c23.7-9.4,45.3-23.9,63.3-42c18.1-18,32.5-39.6,42-63.3c9.5-23.7,14.1-49.3,13.7-74.8c-0.3-25.5-5.7-51-15.6-74.4
					C693.2,427.1,678.5,405.6,660.5,387.5z"/>
			</g>
			<g>
				<path class="lign-st0" d="M883,165c23.5,23.5,44.8,49.2,63.4,76.8c18.5,27.6,34.3,57.1,47.1,87.8c12.7,30.7,22.5,62.7,28.9,95.3
					c6.5,32.6,9.7,65.9,9.7,99.2c0,33.3-3.2,66.5-9.6,99.2c-6.4,32.6-16.1,64.6-28.9,95.4c-12.7,30.8-28.4,60.3-46.9,87.9
					c-18.5,27.7-39.8,53.5-63.3,77c-23.5,23.5-49.3,44.8-77,63.3c-27.7,18.5-57.2,34.2-87.9,46.9c-30.7,12.7-62.7,22.4-95.4,28.9
					c-32.6,6.5-65.9,9.7-99.2,9.6c-33.3,0-66.5-3.2-99.2-9.7c-32.6-6.5-64.6-16.2-95.3-28.9c-30.7-12.7-60.2-28.5-87.8-47.1
					c-27.6-18.5-53.3-39.8-76.8-63.4c23.5,23.5,49.3,44.7,77,63.2c27.6,18.5,57.1,34.2,87.8,46.8c30.7,12.7,62.7,22.4,95.2,28.8
					c32.6,6.5,65.8,9.6,99,9.6c33.2,0,66.4-3.2,99-9.7c32.6-6.5,64.5-16.2,95.2-28.9c30.7-12.7,60.1-28.4,87.7-46.9
					c27.6-18.5,53.3-39.7,76.8-63.2c23.5-23.5,44.7-49.2,63.2-76.8c18.5-27.6,34.2-57,46.9-87.7c12.7-30.7,22.4-62.6,28.9-95.2
					c6.5-32.6,9.7-65.8,9.7-99c0-33.2-3.2-66.4-9.6-99c-6.4-32.6-16.1-64.5-28.8-95.2c-12.7-30.7-28.3-60.2-46.8-87.8
					C927.7,214.3,906.5,188.6,883,165z"/>
			</g>
			<g>
				<path class="lign-st0" d="M816.2,231.8c19.2,19.1,36.6,40.1,51.7,62.6c15.2,22.5,28.1,46.5,38.5,71.5c10.4,25,18.4,51.1,23.7,77.7
					c5.3,26.6,8,53.7,8.1,80.8c0.1,27.1-2.4,54.3-7.6,80.9c-5.2,26.6-13.1,52.7-23.4,77.8c-10.3,25.1-23.1,49.2-38.2,71.7
					c-15.1,22.6-32.4,43.6-51.6,62.8c-19.2,19.2-40.2,36.5-62.8,51.6c-22.6,15.1-46.6,27.9-71.7,38.2
					c-25.1,10.3-51.2,18.2-77.8,23.4c-26.6,5.2-53.8,7.7-80.9,7.6c-27.1-0.1-54.2-2.8-80.8-8.1c-26.6-5.3-52.7-13.3-77.7-23.7
					c-25-10.4-49-23.3-71.5-38.5c-22.5-15.1-43.5-32.5-62.6-51.7c19.2,19.1,40.2,36.4,62.7,51.5c22.5,15.1,46.5,27.9,71.6,38.2
					c25,10.4,51,18.3,77.6,23.6c26.6,5.3,53.6,8,80.7,8c27.1,0,54.2-2.5,80.7-7.7c26.6-5.2,52.6-13.1,77.6-23.4
					c25-10.3,49-23.1,71.5-38.2c22.5-15.1,43.5-32.4,62.6-51.5c19.1-19.1,36.5-40.1,51.5-62.6c15.1-22.5,27.9-46.5,38.2-71.5
					c10.3-25,18.2-51.1,23.4-77.6c5.2-26.6,7.8-53.7,7.7-80.7c0-27.1-2.7-54.2-8-80.7c-5.3-26.6-13.2-52.6-23.6-77.6
					c-10.3-25-23.2-49-38.2-71.6C852.7,272,835.4,251,816.2,231.8z"/>
			</g>
			<g>
				<path class="lign-st0" d="M749.5,298.5c14.8,14.8,28.3,31,40.1,48.4c11.8,17.4,21.8,35.9,29.9,55.2c8.1,19.3,14.3,39.5,18.5,60
					c4.2,20.6,6.3,41.5,6.5,62.5c0.3,42-7.6,84-23.5,122.9c-7.9,19.4-17.8,38.1-29.4,55.6c-11.6,17.5-25.1,33.8-39.9,48.6
					c-14.9,14.8-31.1,28.2-48.6,39.9c-17.5,11.6-36.1,21.5-55.5,29.4c-38.9,15.9-80.9,23.8-122.9,23.5c-21-0.1-42-2.3-62.5-6.5
					c-20.6-4.2-40.7-10.4-60-18.5c-19.3-8.1-37.9-18.2-55.2-29.9c-17.4-11.8-33.6-25.2-48.4-40.1c14.9,14.8,31.1,28.2,48.5,39.9
					c17.4,11.7,36,21.6,55.3,29.7c19.3,8.1,39.4,14.3,60,18.4c20.5,4.2,41.5,6.3,62.4,6.4c41.9,0.3,83.8-7.7,122.6-23.6
					c19.4-7.9,38-17.8,55.4-29.4c17.4-11.6,33.6-25,48.4-39.8c14.8-14.8,28.2-31,39.8-48.4c11.6-17.4,21.5-36,29.4-55.4
					c15.9-38.7,23.9-80.7,23.6-122.6c-0.1-20.9-2.2-41.9-6.4-62.4c-4.1-20.5-10.3-40.6-18.4-60c-8-19.3-18-37.9-29.7-55.3
					C777.7,329.6,764.3,313.4,749.5,298.5z"/>
			</g>
			<g>
				<path class="lign-st0" d="M682.7,365.3c21,20.9,38.1,45.8,49.8,73.1c11.6,27.3,17.8,56.9,18.1,86.6c0.4,29.7-5,59.5-16.1,87
					c-5.5,13.8-12.5,27-20.7,39.4c-8.2,12.4-17.7,23.9-28.2,34.4c-10.5,10.5-22,20-34.4,28.2c-12.4,8.2-25.6,15.2-39.4,20.7
					c-27.6,11.1-57.4,16.5-87,16.1c-29.7-0.3-59.3-6.5-86.6-18.1c-27.3-11.6-52.2-28.7-73.1-49.8c21,20.9,46,37.9,73.3,49.3
					c27.3,11.5,56.8,17.7,86.4,17.9c29.6,0.4,59.3-5.1,86.7-16.2c13.7-5.5,26.9-12.5,39.2-20.7c12.3-8.2,23.8-17.7,34.2-28.1
					c10.5-10.4,19.9-21.9,28.1-34.2c8.2-12.3,15.1-25.5,20.7-39.2c11.1-27.4,16.5-57.1,16.2-86.7c-0.3-29.6-6.4-59.1-17.9-86.4
					C720.6,411.3,703.7,386.3,682.7,365.3z"/>
			</g>
			<g>
				<path class="lign-st0" d="M838.5,209.5c20.6,20.6,39.3,43.1,55.6,67.3c16.3,24.2,30.1,50,41.3,76.9c11.2,26.9,19.8,55,25.5,83.6
					c5.7,28.6,8.6,57.8,8.6,86.9c0.1,29.2-2.7,58.4-8.3,87c-5.6,28.6-14.1,56.7-25.2,83.7c-11.1,27-24.9,52.9-41.1,77.1
					c-16.2,24.3-34.9,46.9-55.5,67.5c-20.6,20.6-43.3,39.3-67.5,55.5c-24.3,16.2-50.1,30-77.1,41.1c-27,11.1-55,19.6-83.7,25.2
					c-28.6,5.6-57.8,8.4-87,8.3c-29.2-0.1-58.3-2.9-86.9-8.6c-28.6-5.7-56.6-14.3-83.6-25.5c-26.9-11.2-52.7-25.1-76.9-41.3
					c-24.2-16.3-46.8-35-67.3-55.6c20.6,20.6,43.2,39.2,67.5,55.4c24.2,16.2,50.1,30,77,41.1c26.9,11.1,54.9,19.7,83.5,25.3
					c28.6,5.7,57.7,8.5,86.8,8.5c29.1,0,58.3-2.7,86.8-8.4c28.6-5.6,56.6-14.1,83.5-25.2c26.9-11.1,52.7-24.9,76.9-41.1
					c24.2-16.2,46.8-34.8,67.3-55.4c20.6-20.6,39.2-43.1,55.4-67.3c16.2-24.2,30-50,41.1-76.9c11.1-26.9,19.6-54.9,25.2-83.5
					c5.6-28.6,8.4-57.7,8.4-86.8c0-29.1-2.9-58.3-8.5-86.8c-5.7-28.6-14.2-56.6-25.3-83.5c-11.1-26.9-24.9-52.8-41.1-77
					C877.7,252.8,859.1,230.2,838.5,209.5z"/>
			</g>
			<g>
				<path class="lign-st0" d="M771.7,276.3c16.3,16.2,31.1,34,43.9,53.1c12.9,19.1,23.9,39.4,32.8,60.7c8.9,21.2,15.7,43.4,20.3,65.9
					c4.6,22.6,6.9,45.6,7,68.6c0.1,23-2,46.1-6.3,68.7c-4.3,22.6-11,44.8-19.7,66.1c-8.7,21.3-19.6,41.8-32.4,60.9
					c-12.8,19.2-27.5,37-43.8,53.3c-16.3,16.3-34.2,31-53.3,43.8c-19.2,12.8-39.6,23.6-60.9,32.4c-21.3,8.7-43.5,15.4-66.1,19.7
					c-22.6,4.4-45.7,6.4-68.7,6.3c-23-0.1-46.1-2.4-68.6-7c-22.6-4.6-44.7-11.4-65.9-20.3c-21.2-8.9-41.6-19.9-60.7-32.8
					c-19.1-12.9-36.9-27.7-53.1-43.9c16.3,16.2,34.1,30.9,53.2,43.7c19.1,12.8,39.5,23.7,60.7,32.5c21.2,8.8,43.3,15.6,65.9,20.1
					c22.5,4.5,45.5,6.8,68.5,6.9c23,0.1,46-2,68.6-6.4c22.6-4.4,44.7-11,65.9-19.7c21.3-8.7,41.7-19.6,60.7-32.4
					c19.1-12.8,36.9-27.5,53.1-43.7c16.3-16.2,31-34,43.7-53.1c12.8-19.1,23.6-39.5,32.4-60.7c8.7-21.3,15.4-43.4,19.7-65.9
					c4.4-22.6,6.5-45.6,6.4-68.6c-0.1-23-2.4-46-6.9-68.5c-4.5-22.5-11.3-44.6-20.1-65.9c-8.8-21.2-19.7-41.6-32.5-60.7
					C802.7,310.4,788,292.6,771.7,276.3z"/>
			</g>
			<g>
				<path class="lign-st0" d="M891.9,156.1c24.1,24.1,45.9,50.4,64.9,78.7c19,28.3,35.2,58.5,48.2,89.9c13.1,31.5,23,64.2,29.6,97.7
					c6.6,33.4,9.9,67.5,9.9,101.6c0,34.1-3.3,68.2-9.9,101.6c-6.6,33.4-16.6,66.2-29.6,97.7c-13,31.5-29.1,61.7-48.1,90.1
					c-19,28.3-40.7,54.8-64.8,78.9c-24.1,24.1-50.5,45.9-78.9,64.8c-28.3,19-58.6,35.1-90.1,48.1c-31.5,13-64.3,23-97.7,29.6
					c-33.4,6.6-67.5,9.9-101.6,9.9c-34.1,0-68.2-3.3-101.6-9.9c-33.4-6.6-66.2-16.6-97.7-29.6C293.2,992.1,263,976,234.7,957
					c-28.3-19-54.7-40.8-78.7-64.9c24.1,24.1,50.5,45.8,78.9,64.7c28.3,18.9,58.5,35,90,48c31.5,13,64.2,22.9,97.6,29.5
					c33.4,6.6,67.4,9.9,101.5,9.8c34,0,68.1-3.3,101.5-10c33.4-6.6,66.1-16.6,97.5-29.6c31.4-13,61.6-29.1,89.9-48.1
					c28.3-18.9,54.6-40.7,78.7-64.8c24.1-24.1,45.8-50.4,64.8-78.7c19-28.3,35.1-58.4,48.1-89.9c13-31.4,23-64.2,29.6-97.5
					c6.6-33.4,10-67.4,10-101.5c0-34-3.2-68.1-9.8-101.5c-6.6-33.4-16.5-66.1-29.5-97.6c-13-31.5-29-61.7-48-90
					C937.7,206.7,916,180.2,891.9,156.1z"/>
			</g>
			<g>
				<path class="lign-st0" d="M825.2,222.9c19.8,19.7,37.7,41.3,53.3,64.5c15.6,23.2,28.9,47.9,39.6,73.7c10.7,25.8,18.9,52.6,24.4,80
					c5.5,27.4,8.2,55.3,8.3,83.3c0.1,27.9-2.5,55.9-7.9,83.3c-5.4,27.4-13.5,54.3-24.1,80.2c-10.6,25.8-23.8,50.6-39.4,73.9
					c-15.5,23.2-33.4,44.9-53.1,64.7c-19.8,19.8-41.5,37.6-64.7,53.1c-23.2,15.5-48,28.7-73.9,39.4c-25.8,10.6-52.7,18.7-80.2,24.1
					c-27.4,5.4-55.4,8-83.3,7.9c-27.9-0.1-55.9-2.8-83.3-8.3c-27.4-5.5-54.2-13.7-80-24.4c-25.8-10.7-50.5-24-73.7-39.6
					c-23.2-15.6-44.8-33.5-64.5-53.3c19.8,19.7,41.4,37.5,64.6,53.1c23.2,15.5,47.9,28.7,73.7,39.4c25.8,10.7,52.6,18.9,80,24.3
					c27.4,5.5,55.3,8.2,83.2,8.2c27.9,0,55.8-2.6,83.2-8c27.4-5.4,54.2-13.5,80-24.1c25.8-10.6,50.5-23.8,73.7-39.3
					c23.2-15.5,44.8-33.4,64.5-53.1c19.7-19.7,37.6-41.3,53.1-64.5c15.5-23.2,28.7-47.9,39.3-73.7c10.6-25.8,18.8-52.6,24.1-80
					c5.4-27.4,8-55.3,8-83.2c0-27.9-2.8-55.8-8.2-83.2c-5.4-27.4-13.6-54.2-24.3-80c-10.7-25.8-23.9-50.5-39.4-73.7
					C862.7,264.3,844.9,242.7,825.2,222.9z"/>
			</g>
			<g>
				<path class="lign-st0" d="M758.4,289.6c15.4,15.4,29.4,32.2,41.6,50.3c12.2,18,22.6,37.3,31.1,57.4c8.4,20.1,14.9,41,19.2,62.4
					c4.3,21.4,6.6,43.2,6.7,65c0.1,21.8-1.8,43.6-5.9,65c-4.1,21.4-10.3,42.4-18.6,62.6c-8.2,20.2-18.5,39.6-30.6,57.7
					c-12.1,18.2-26,35.1-41.4,50.5c-15.4,15.4-32.4,29.3-50.5,41.4c-18.1,12.1-37.5,22.4-57.7,30.6c-20.2,8.3-41.2,14.5-62.6,18.6
					c-21.4,4.1-43.2,6.1-65,5.9c-21.8-0.1-43.6-2.3-65-6.7c-21.4-4.3-42.3-10.8-62.4-19.2c-20.1-8.4-39.4-18.8-57.4-31.1
					c-18.1-12.2-34.9-26.2-50.3-41.6c15.4,15.4,32.3,29.3,50.4,41.4c18.1,12.1,37.4,22.5,57.5,30.8c20.1,8.4,41,14.8,62.3,19.1
					c21.3,4.3,43.1,6.5,64.8,6.6c21.8,0.1,43.5-1.9,64.9-6c21.4-4.1,42.3-10.4,62.4-18.6c20.1-8.2,39.4-18.5,57.5-30.6
					c18.1-12.1,34.9-26,50.3-41.4c15.4-15.4,29.3-32.2,41.4-50.3c12.1-18.1,22.4-37.4,30.6-57.5c8.3-20.1,14.5-41.1,18.6-62.4
					c4.1-21.4,6.1-43.1,6-64.9c-0.1-21.8-2.3-43.5-6.6-64.8c-4.3-21.3-10.7-42.2-19.1-62.3c-8.3-20.1-18.7-39.4-30.8-57.5
					C787.7,321.9,773.8,305.1,758.4,289.6z"/>
			</g>
			<g>
				<path class="lign-st0" d="M691.6,356.4c22.2,22,40.2,48.3,52.5,77.2c12.3,28.8,18.7,60.1,19.1,91.4c0.4,31.3-5.3,62.7-17.1,91.8
					c-5.9,14.5-13.2,28.5-21.9,41.5c-8.7,13.1-18.7,25.2-29.8,36.3c-11.1,11.1-23.3,21.1-36.3,29.8c-13.1,8.7-27,16-41.5,21.9
					c-29.1,11.7-60.5,17.5-91.8,17.1c-31.3-0.3-62.6-6.8-91.4-19.1c-28.8-12.2-55.1-30.3-77.2-52.5c22.2,22.1,48.5,40,77.4,52
					c28.8,12.2,60,18.6,91.2,18.8c31.2,0.3,62.5-5.4,91.5-17.2c14.5-5.9,28.4-13.2,41.3-21.8c13-8.7,25.1-18.7,36.1-29.7
					c11-11,21-23.1,29.7-36.1c8.7-13,16-26.9,21.8-41.3c11.8-28.9,17.5-60.3,17.2-91.5c-0.3-31.2-6.7-62.4-18.8-91.2
					C731.6,404.9,713.7,378.5,691.6,356.4z"/>
			</g>
			<g>
				<path class="lign-st0" d="M847.4,200.6c21.2,21.2,40.4,44.4,57.1,69.2c16.7,24.9,31,51.4,42.5,79.1c11.5,27.7,20.3,56.5,26.2,85.9
					c5.9,29.4,8.8,59.4,8.9,89.4c0.1,30-2.8,60-8.6,89.4c-5.8,29.4-14.5,58.3-25.9,86C936.1,727.4,922,754,905.3,779
					c-16.7,24.9-35.8,48.2-57,69.4c-21.2,21.2-44.5,40.4-69.4,57c-24.9,16.7-51.5,30.8-79.3,42.3c-27.7,11.4-56.6,20.2-86,25.9
					c-29.4,5.8-59.4,8.6-89.4,8.6c-30,0-60-3-89.4-8.9c-29.4-5.9-58.2-14.7-85.9-26.2c-27.7-11.5-54.2-25.8-79.1-42.5
					c-24.9-16.7-48.1-35.9-69.2-57.1c21.2,21.2,44.5,40.3,69.4,56.9c24.9,16.7,51.5,30.8,79.2,42.2c27.7,11.5,56.5,20.2,85.8,26
					c29.4,5.8,59.3,8.7,89.3,8.8c29.9,0,59.9-2.8,89.3-8.6c29.4-5.8,58.2-14.5,85.8-26c27.7-11.4,54.2-25.6,79.1-42.3
					c24.9-16.7,48.1-35.8,69.2-57c21.2-21.2,40.3-44.4,57-69.2c16.7-24.9,30.8-51.4,42.3-79.1c11.4-27.7,20.2-56.5,26-85.8
					c5.8-29.4,8.7-59.3,8.6-89.3c0-29.9-2.9-59.9-8.8-89.3c-5.8-29.4-14.6-58.2-26-85.8c-11.4-27.7-25.6-54.2-42.2-79.2
					C887.7,245.1,868.6,221.8,847.4,200.6z"/>
			</g>
			<g>
				<path class="lign-st0" d="M780.6,267.4c16.9,16.8,32.2,35.2,45.5,55c13.3,19.8,24.7,40.8,33.9,62.8c9.2,22,16.2,44.9,21,68.3
					c4.7,23.4,7.1,47.2,7.2,71.1c0.1,23.8-2.1,47.7-6.6,71.1c-4.5,23.4-11.4,46.4-20.4,68.5c-9,22.1-20.3,43.3-33.5,63.1
					c-13.2,19.8-28.5,38.4-45.3,55.2c-16.9,16.9-35.4,32.1-55.2,45.3c-19.8,13.2-41,24.5-63.1,33.5c-22.1,9-45,15.9-68.5,20.4
					c-23.4,4.5-47.3,6.7-71.1,6.6c-23.8-0.1-47.7-2.5-71.1-7.2c-23.4-4.7-46.3-11.8-68.3-21c-22-9.2-43.1-20.6-62.8-33.9
					c-19.8-13.3-38.2-28.6-55-45.5c16.9,16.8,35.4,32,55.1,45.3c19.8,13.3,40.9,24.6,62.9,33.7c22,9.1,44.9,16.2,68.2,20.8
					c23.3,4.7,47.1,7.1,71,7.1c23.8,0.1,47.6-2.1,71-6.7c23.4-4.5,46.3-11.4,68.3-20.5c22-9,43.1-20.3,62.9-33.5
					c19.8-13.2,38.2-28.5,55-45.3c16.8-16.8,32.1-35.3,45.3-55c13.2-19.8,24.5-40.9,33.5-62.9c9-22,15.9-44.9,20.5-68.3
					c4.5-23.4,6.7-47.2,6.7-71c-0.1-23.8-2.4-47.6-7.1-71c-4.7-23.3-11.7-46.2-20.8-68.2c-9.1-22-20.4-43.1-33.7-62.9
					C812.7,302.7,797.5,284.3,780.6,267.4z"/>
			</g>
			<g>
				<path class="lign-st0" d="M713.9,334.1c12.5,12.5,23.9,26.1,33.9,40.8c9.9,14.6,18.4,30.3,25.3,46.6c13.8,32.6,21.1,68,21.3,103.4
					c0.2,17.7-1.4,35.4-4.6,52.8c-3.3,17.4-8.3,34.5-14.9,50.9c-6.6,16.4-15,32.2-24.8,46.9c-9.8,14.8-21.1,28.5-33.7,41
					c-12.5,12.5-26.3,23.8-41,33.7c-14.7,9.8-30.5,18.1-46.9,24.8c-16.4,6.6-33.5,11.7-50.9,14.9c-17.4,3.3-35.1,4.8-52.8,4.6
					c-35.4-0.3-70.8-7.5-103.4-21.3c-16.3-6.9-31.9-15.4-46.6-25.3c-14.6-9.9-28.3-21.3-40.8-33.9c12.5,12.5,26.2,23.8,40.9,33.7
					c14.7,9.9,30.3,18.3,46.6,25.1c16.3,6.8,33.3,12.1,50.6,15.6c17.3,3.5,35,5.4,52.6,5.5c17.7,0.1,35.3-1.4,52.7-4.7
					c17.4-3.3,34.4-8.3,50.7-15c16.4-6.7,32-15,46.7-24.8c14.7-9.8,28.4-21.1,40.8-33.6c12.5-12.5,23.8-26.2,33.6-40.8
					c9.8-14.7,18.1-30.4,24.8-46.7c6.7-16.4,11.7-33.4,15-50.7c3.3-17.4,4.8-35,4.7-52.7c-0.1-17.7-2-35.3-5.5-52.6
					c-3.5-17.3-8.8-34.3-15.6-50.6c-6.8-16.3-15.2-31.9-25.1-46.6C737.7,360.4,726.4,346.7,713.9,334.1z"/>
			</g>
			<g>
				<path class="lign-st0" d="M647.1,400.9c16.4,16.3,29.8,35.6,39,56.8c9.2,21.2,14.1,44.3,14.5,67.4c0.5,23.1-3.6,46.4-12.1,67.9
					c-8.5,21.6-21.6,41.2-38,57.6c-16.4,16.4-36.1,29.5-57.6,38c-21.5,8.5-44.8,12.6-67.9,12.1c-23.1-0.4-46.2-5.3-67.4-14.5
					c-21.3-9.2-40.6-22.6-56.8-39c16.4,16.3,35.8,29.5,57,38.5c21.2,9.1,44.2,13.9,67.2,14.3c23,0.4,46.2-3.7,67.6-12.2
					c21.4-8.5,41-21.6,57.2-37.9c16.3-16.2,29.4-35.8,37.9-57.2c8.6-21.4,12.6-44.5,12.2-67.6c-0.3-23.1-5.2-46-14.3-67.2
					C676.7,436.7,663.4,417.3,647.1,400.9z"/>
			</g>
			<g>
				<path class="lign-st0" d="M869.7,178.4c22.7,22.6,43.2,47.4,61,74c17.9,26.6,33.1,54.9,45.3,84.5c12.3,29.6,21.6,60.4,27.9,91.8
					c6.3,31.4,9.4,63.5,9.4,95.5c0,32-3,64.1-9.2,95.5c-6.2,31.4-15.5,62.2-27.8,91.9c-12.2,29.6-27.4,58-45.2,84.7
					c-17.8,26.6-38.3,51.5-60.9,74.2c-22.7,22.6-47.5,43.1-74.2,60.9c-26.6,17.8-55,33-84.7,45.2c-29.6,12.2-60.4,21.6-91.9,27.8
					c-31.4,6.2-63.5,9.3-95.5,9.2c-32,0-64.1-3.1-95.5-9.4c-31.4-6.2-62.2-15.6-91.8-27.9c-29.6-12.3-57.9-27.5-84.5-45.3
					c-26.6-17.9-51.4-38.4-74-61c22.7,22.6,47.5,43,74.1,60.8c26.6,17.8,55,32.9,84.6,45.1c29.6,12.2,60.3,21.6,91.7,27.8
					c31.4,6.2,63.4,9.3,95.4,9.3c32,0,64-3.1,95.4-9.3c31.4-6.2,62.1-15.6,91.7-27.8c29.6-12.2,57.9-27.4,84.5-45.2
					c26.6-17.8,51.3-38.3,74-60.9c22.6-22.6,43.1-47.4,60.9-74c17.8-26.6,33-54.9,45.2-84.5c12.2-29.6,21.6-60.3,27.8-91.7
					c6.2-31.4,9.3-63.4,9.3-95.4c0-32-3.1-64-9.3-95.4c-6.2-31.4-15.6-62.2-27.8-91.7c-12.2-29.6-27.3-58-45.1-84.6
					C912.7,225.9,892.3,201,869.7,178.4z"/>
			</g>
			<g>
				<path class="lign-st0" d="M802.9,245.1c18.3,18.3,34.9,38.3,49.4,59.8c14.5,21.5,26.8,44.4,36.8,68.3c10,23.9,17.6,48.8,22.7,74.2
					c5.1,25.4,7.7,51.3,7.8,77.2c0.1,25.9-2.3,51.8-7.2,77.2c-4.9,25.4-12.4,50.4-22.3,74.3c-9.8,24-22,47-36.4,68.5
					c-14.4,21.5-30.9,41.6-49.2,60c-18.3,18.3-38.4,34.9-60,49.2c-21.5,14.4-44.5,26.6-68.5,36.4c-24,9.8-48.9,17.3-74.3,22.3
					c-25.4,4.9-51.3,7.3-77.2,7.2c-25.9-0.1-51.8-2.7-77.2-7.8c-25.4-5.1-50.3-12.7-74.2-22.7c-23.9-10-46.8-22.3-68.3-36.8
					C283.3,838,263.2,821.4,245,803c18.3,18.3,38.4,34.8,59.9,49.2c21.5,14.4,44.4,26.6,68.3,36.5c23.9,9.9,48.7,17.5,74.1,22.6
					c25.4,5.1,51.2,7.6,77.1,7.7c25.9,0.1,51.7-2.4,77.1-7.3c25.4-5,50.2-12.5,74.1-22.3c23.9-9.8,46.8-22,68.3-36.4
					c21.5-14.4,41.5-30.9,59.8-49.2c18.3-18.3,34.8-38.3,49.2-59.8c14.4-21.5,26.6-44.4,36.4-68.3c9.8-23.9,17.3-48.8,22.3-74.1
					c5-25.4,7.4-51.2,7.3-77.1c-0.1-25.9-2.6-51.7-7.7-77.1c-5.1-25.4-12.7-50.2-22.6-74.1c-9.9-23.9-22.1-46.8-36.5-68.3
					C837.7,283.5,821.2,263.5,802.9,245.1z"/>
			</g>
			<g>
				<path class="lign-st0" d="M736.1,311.9c14,13.9,26.7,29.1,37.8,45.5c11.1,16.3,20.6,33.8,28.3,52c15.4,36.4,23.5,75.9,23.8,115.5
					c0.4,39.6-7.1,79.2-22,115.9c-7.5,18.3-16.8,35.9-27.7,52.4c-11,16.5-23.6,31.8-37.6,45.9c-14,14-29.4,26.6-45.9,37.6
					c-16.5,11-34.1,20.3-52.4,27.7c-36.7,15-76.3,22.5-115.9,22c-19.8-0.2-39.5-2.2-58.9-6.2c-19.4-4-38.3-9.9-56.5-17.6
					c-18.2-7.7-35.6-17.2-52-28.3c-16.3-11.1-31.5-23.8-45.5-37.8c14,13.9,29.3,26.5,45.7,37.4c16.4,11,33.9,20.3,52.1,27.8
					c18.2,7.6,37.1,13.4,56.4,17.3c19.3,3.9,39,5.9,58.7,5.9c19.7,0.1,39.4-1.7,58.7-5.4c19.3-3.7,38.3-9.3,56.5-16.8
					c18.2-7.4,35.7-16.7,52-27.6c16.4-10.9,31.6-23.5,45.5-37.4c13.9-13.9,26.5-29.1,37.4-45.5c10.9-16.4,20.2-33.8,27.6-52
					c7.5-18.2,13.1-37.2,16.8-56.5c3.7-19.3,5.5-39,5.4-58.7c-0.1-19.7-2.1-39.4-5.9-58.7c-3.9-19.3-9.7-38.2-17.2-56.4
					c-7.5-18.2-16.9-35.7-27.8-52.1C762.6,341.2,750,325.9,736.1,311.9z"/>
			</g>
			<g>
				<path class="lign-st0" d="M669.4,378.6c19.3,19.2,35,42,45.7,67c10.7,25,16.4,52.2,16.8,79.4c0.4,27.2-4.5,54.6-14.6,79.9
					c-10.1,25.3-25.5,48.5-44.8,67.7c-19.3,19.3-42.4,34.7-67.7,44.8c-25.3,10.1-52.6,15-79.9,14.6c-27.2-0.4-54.4-6.1-79.4-16.8
					c-25.1-10.7-47.9-26.4-67-45.7c19.3,19.2,42.1,34.7,67.2,45.3c25,10.6,52.1,16.3,79.2,16.6c27.1,0.4,54.4-4.5,79.5-14.7
					c25.2-10.1,48.2-25.5,67.3-44.7c19.2-19.1,34.6-42.1,44.7-67.3c10.2-25.2,15.1-52.4,14.7-79.5c-0.3-27.1-5.9-54.2-16.6-79.2
					C704.1,420.8,688.6,397.9,669.4,378.6z"/>
			</g>
			<g>
				<path class="lign-st0" d="M856.3,191.7c21.8,21.7,41.5,45.6,58.7,71.1c17.2,25.6,31.8,52.8,43.6,81.3c11.8,28.4,20.8,58.1,26.9,88.3
					c6,30.2,9,61,9.1,91.8c0,30.8-2.9,61.6-8.8,91.9c-5.9,30.2-14.9,59.9-26.7,88.4c-11.7,28.5-26.3,55.8-43.4,81.4
					c-17.1,25.6-36.8,49.5-58.6,71.3c-21.8,21.8-45.7,41.5-71.3,58.6c-25.6,17.1-52.9,31.7-81.4,43.4
					c-28.5,11.8-58.1,20.7-88.4,26.7c-30.2,6-61.1,8.9-91.9,8.8c-30.8,0-61.6-3-91.8-9.1c-30.2-6-59.8-15-88.3-26.9
					c-28.4-11.8-55.7-26.4-81.3-43.6c-25.6-17.2-49.4-36.9-71.1-58.7c21.8,21.7,45.7,41.4,71.3,58.5c25.6,17.1,52.9,31.7,81.3,43.4
					c28.4,11.8,58,20.8,88.2,26.7c30.2,6,60.9,9,91.7,9c30.8,0,61.5-2.9,91.7-8.9c30.2-6,59.8-14.9,88.2-26.7
					c28.4-11.7,55.7-26.3,81.2-43.4c25.6-17.1,49.4-36.8,71.1-58.5c21.8-21.7,41.4-45.6,58.5-71.1c17.1-25.5,31.7-52.8,43.4-81.2
					c11.8-28.4,20.7-58,26.7-88.2c6-30.2,8.9-60.9,8.9-91.7c0-30.8-3-61.5-9-91.7c-6-30.2-15-59.8-26.7-88.2
					c-11.7-28.4-26.3-55.7-43.4-81.3C897.7,237.4,878,213.5,856.3,191.7z"/>
			</g>
			<g>
				<path class="lign-st0" d="M789.5,258.5c17.5,17.4,33.3,36.5,47,56.9c13.8,20.4,25.5,42.2,35.1,65c9.5,22.8,16.8,46.4,21.6,70.6
					c4.9,24.2,7.3,48.8,7.4,73.5c0.1,24.7-2.2,49.3-6.9,73.6c-4.7,24.2-11.8,48-21.2,70.8c-9.4,22.8-21,44.7-34.7,65.3
					c-13.7,20.5-29.5,39.7-46.9,57.1c-17.5,17.4-36.6,33.2-57.1,46.9c-20.5,13.7-42.4,25.3-65.3,34.7c-22.8,9.4-46.6,16.5-70.8,21.2
					c-24.2,4.7-48.9,7-73.6,6.8c-24.7-0.1-49.3-2.6-73.5-7.4c-24.2-4.9-47.9-12.1-70.6-21.6c-22.8-9.5-44.6-21.3-65-35.1
					c-20.4-13.8-39.5-29.6-56.9-47.1c17.5,17.4,36.6,33.1,57,46.8c20.5,13.7,42.3,25.4,65.1,34.8c22.7,9.5,46.4,16.7,70.6,21.5
					c24.1,4.8,48.8,7.3,73.4,7.3c24.6,0.1,49.3-2.2,73.4-6.9c24.2-4.7,47.9-11.8,70.6-21.2c22.8-9.4,44.6-21,65.1-34.7
					c20.5-13.7,39.5-29.4,56.9-46.9c17.4-17.4,33.2-36.5,46.9-56.9c13.7-20.5,25.3-42.3,34.7-65.1c9.4-22.8,16.5-46.5,21.2-70.6
					c4.7-24.2,7-48.8,6.9-73.4c-0.1-24.6-2.5-49.2-7.3-73.4c-4.8-24.1-12.1-47.8-21.5-70.6c-9.4-22.8-21.1-44.6-34.8-65.1
					C822.7,295,806.9,275.9,789.5,258.5z"/>
			</g>
			<g>
				<path class="lign-st0" d="M722.8,325.2c13.1,13.1,25,27.4,35.4,42.7c10.4,15.3,19.3,31.7,26.5,48.7c14.4,34.1,22,71.1,22.2,108.2
					c0.2,18.5-1.5,37.1-4.9,55.3c-3.4,18.2-8.7,36.1-15.7,53.3c-7,17.2-15.7,33.7-25.9,49.1c-10.3,15.4-22.1,29.8-35.2,42.9
					c-13.1,13.1-27.5,24.9-42.9,35.2c-15.4,10.3-31.9,19-49.1,25.9c-17.2,7-35,12.2-53.3,15.7c-18.2,3.4-36.8,5-55.3,4.9
					c-37.1-0.3-74-7.8-108.2-22.2c-17.1-7.2-33.4-16.1-48.7-26.5c-15.3-10.4-29.6-22.3-42.7-35.4c13.1,13.1,27.5,24.9,42.8,35.2
					c15.4,10.3,31.7,19.1,48.8,26.2c17.1,7.1,34.8,12.6,52.9,16.3c18.1,3.7,36.6,5.6,55.1,5.7c18.5,0.1,37-1.5,55.1-5
					c18.2-3.5,36-8.7,53.1-15.7c17.1-7,33.5-15.7,48.9-25.9c15.4-10.3,29.7-22.1,42.7-35.2c13.1-13.1,24.9-27.4,35.2-42.7
					c10.3-15.4,19-31.8,25.9-48.9c7-17.1,12.2-34.9,15.7-53.1c3.5-18.2,5.1-36.7,5-55.1c-0.1-18.5-2-37-5.7-55.1
					c-3.7-18.1-9.2-35.9-16.3-52.9c-7.1-17.1-15.9-33.4-26.2-48.8C747.7,352.7,735.8,338.4,722.8,325.2z"/>
			</g>
			<g>
				<path class="lign-st0" d="M656,392c17.6,17.4,31.9,38.1,41.7,60.9c9.8,22.8,15,47.4,15.4,72.2c0.5,24.8-3.9,49.7-13.1,72.7
					c-9.1,23.1-23.1,44.1-40.7,61.7c-17.5,17.5-38.6,31.6-61.7,40.7c-23,9.2-47.9,13.6-72.7,13.1c-24.8-0.4-49.5-5.6-72.2-15.4
					c-22.8-9.8-43.5-24.1-60.9-41.7c17.5,17.4,38.3,31.6,61.1,41.2c22.7,9.7,47.4,14.9,72,15.2c24.7,0.4,49.5-4,72.4-13.2
					c22.9-9.1,43.9-23.1,61.3-40.6c17.5-17.4,31.5-38.3,40.6-61.3c9.2-22.9,13.6-47.7,13.2-72.4c-0.3-24.7-5.5-49.3-15.2-72
					C687.7,430.3,673.5,409.5,656,392z"/>
			</g>
			<g>
				<path class="lign-st0" d="M878.6,169.5c23.2,23.2,44.3,48.6,62.6,75.9c18.3,27.3,33.9,56.4,46.5,86.7c12.6,30.3,22.2,61.9,28.6,94.1
					c6.4,32.2,9.6,65.1,9.6,97.9c0,32.9-3.1,65.7-9.5,98c-6.4,32.2-15.9,63.8-28.5,94.2c-12.5,30.4-28.1,59.5-46.3,86.8
					c-18.3,27.3-39.3,52.8-62.5,76c-23.2,23.2-48.7,44.2-76,62.5c-27.3,18.3-56.5,33.8-86.8,46.3c-30.4,12.6-62,22.1-94.2,28.5
					c-32.2,6.4-65.1,9.5-98,9.5c-32.9,0-65.7-3.2-97.9-9.6c-32.2-6.4-63.8-16-94.1-28.6c-30.3-12.6-59.4-28.2-86.7-46.5
					c-27.3-18.3-52.7-39.3-75.9-62.6c23.3,23.2,48.7,44.1,76,62.4c27.3,18.2,56.4,33.7,86.7,46.2c30.3,12.5,61.9,22.1,94.1,28.5
					c32.2,6.4,65,9.5,97.8,9.5c32.8,0,65.6-3.2,97.8-9.6c32.2-6.4,63.7-16,94-28.5c30.3-12.5,59.4-28.1,86.6-46.3
					c27.3-18.3,52.7-39.2,75.9-62.4c23.2-23.2,44.2-48.6,62.4-75.9c18.3-27.2,33.8-56.3,46.3-86.6c12.6-30.3,22.1-61.8,28.5-94
					c6.4-32.2,9.6-65,9.6-97.8c0-32.8-3.1-65.6-9.5-97.8c-6.4-32.2-15.9-63.7-28.5-94.1c-12.5-30.3-28-59.5-46.2-86.7
					C922.7,218.2,901.7,192.7,878.6,169.5z"/>
			</g>
			<g>
				<path class="lign-st0" d="M811.8,236.2c18.9,18.9,36,39.5,50.9,61.6c14.9,22.1,27.6,45.8,37.9,70.4c10.3,24.7,18.1,50.3,23.4,76.5
					c5.3,26.2,7.9,52.9,8,79.6c0.1,26.7-2.4,53.4-7.5,79.7c-5.1,26.2-12.8,51.9-23,76.6c-10.1,24.7-22.8,48.4-37.6,70.6
					c-14.8,22.2-31.9,42.9-50.8,61.9c-18.9,18.9-39.6,36-61.9,50.8c-22.2,14.9-45.9,27.5-70.6,37.6c-24.7,10.2-50.4,17.9-76.7,23
					c-26.2,5.1-53,7.6-79.7,7.5c-26.7-0.1-53.4-2.7-79.6-8c-26.2-5.3-51.9-13.1-76.5-23.4c-24.7-10.3-48.3-23-70.4-37.9
					c-22.1-14.9-42.8-32-61.6-50.9c18.9,18.8,39.6,35.9,61.8,50.7c22.2,14.8,45.8,27.5,70.5,37.7c24.6,10.2,50.3,18,76.4,23.3
					c26.2,5.2,52.8,7.8,79.5,7.9c26.7,0.1,53.4-2.4,79.5-7.6c26.2-5.1,51.8-12.9,76.5-23c24.7-10.2,48.3-22.8,70.5-37.6
					c22.2-14.8,42.8-31.9,61.7-50.7c18.9-18.8,35.9-39.5,50.8-61.7c14.8-22.2,27.4-45.8,37.6-70.5c10.2-24.7,17.9-50.3,23-76.5
					c5.1-26.2,7.6-52.9,7.6-79.5c0-26.7-2.7-53.3-7.9-79.5c-5.2-26.2-13-51.8-23.3-76.4c-10.2-24.7-22.8-48.3-37.7-70.5
					C847.7,275.8,830.6,255.1,811.8,236.2z"/>
			</g>
			<g>
				<path class="lign-st0" d="M745,303c14.6,14.5,27.8,30.4,39.3,47.4c11.5,17,21.4,35.2,29.3,54.2c8,19,14.1,38.7,18.2,58.9
					c4.1,20.2,6.2,40.7,6.4,61.3c0.3,41.1-7.4,82.4-23,120.5c-7.8,19.1-17.4,37.3-28.9,54.5c-11.4,17.1-24.6,33.1-39.1,47.7
					c-14.6,14.5-30.5,27.7-47.7,39.1c-17.1,11.4-35.4,21.1-54.5,28.9c-38.1,15.6-79.3,23.4-120.5,23c-20.6-0.1-41.1-2.2-61.3-6.4
					c-20.2-4.1-39.9-10.2-58.9-18.2c-19-8-37.1-17.8-54.2-29.3c-17-11.5-32.9-24.7-47.4-39.3c14.6,14.5,30.5,27.6,47.6,39.1
					c17.1,11.5,35.2,21.2,54.2,29.1c19,7.9,38.7,14,58.8,18.1c20.1,4.1,40.7,6.2,61.2,6.3c41.1,0.3,82.2-7.5,120.2-23.1
					c19-7.8,37.2-17.4,54.3-28.9c17.1-11.4,33-24.5,47.5-39.1c14.5-14.5,27.6-30.4,39.1-47.5c11.4-17.1,21.1-35.3,28.9-54.3
					c15.6-38,23.4-79.1,23.1-120.2c-0.1-20.5-2.2-41.1-6.3-61.2c-4.1-20.1-10.1-39.8-18.1-58.8c-7.9-19-17.6-37.2-29.1-54.2
					C772.7,333.5,759.5,317.5,745,303z"/>
			</g>
			<g>
				<path class="lign-st0" d="M834.1,214c20.4,20.3,38.8,42.5,54.9,66.3c16.1,23.8,29.8,49.3,40.9,75.8c11.1,26.6,19.6,54.2,25.2,82.4
					c5.7,28.2,8.5,57,8.6,85.8c0.1,28.8-2.6,57.6-8.1,85.9c-5.5,28.3-13.9,56-24.9,82.6c-11,26.6-24.6,52.2-40.6,76.1
					c-16,24-34.4,46.3-54.8,66.7c-20.4,20.4-42.7,38.8-66.7,54.8c-23.9,16-49.5,29.6-76.1,40.6c-26.6,11-54.3,19.3-82.6,24.9
					c-28.3,5.6-57.1,8.2-85.9,8.1c-28.8-0.1-57.6-3-85.8-8.6c-28.2-5.7-55.9-14.1-82.4-25.2c-26.5-11.1-52-24.8-75.8-40.9
					c-23.8-16.1-46.1-34.5-66.3-54.9c20.4,20.3,42.7,38.6,66.6,54.5c23.9,15.9,49.4,29.5,75.9,40.4c26.5,11,54.1,19.3,82.3,24.9
					c28.2,5.6,56.9,8.3,85.5,8.3c28.7,0,57.4-2.7,85.5-8.3c28.1-5.5,55.7-13.9,82.2-24.8c26.5-10.9,51.9-24.5,75.8-40.5
					c23.8-16,46-34.3,66.3-54.6c20.3-20.3,38.6-42.5,54.6-66.3c16-23.8,29.5-49.2,40.5-75.8c11-26.5,19.3-54.1,24.8-82.2
					c5.5-28.1,8.3-56.8,8.3-85.5c0-28.7-2.8-57.4-8.3-85.5c-5.6-28.2-13.9-55.8-24.9-82.3c-10.9-26.5-24.5-52-40.4-75.9
					C872.6,256.7,854.3,234.4,834.1,214z"/>
			</g>
			<g>
				<path class="lign-st0" d="M767.3,280.7c16,15.9,30.6,33.4,43.3,52.1c12.7,18.7,23.5,38.7,32.3,59.6c8.8,20.9,15.5,42.6,20,64.8
					c4.5,22.2,6.9,44.8,7,67.5c0.4,45.3-8.3,90.7-25.5,132.6c-8.6,21-19.2,41.1-31.8,60c-12.6,18.9-27.1,36.4-43.1,52.5
					c-16,16-33.6,30.5-52.5,43.1c-18.9,12.6-39,23.3-60,31.8c-41.9,17.2-87.3,25.9-132.6,25.5c-22.6-0.1-45.3-2.5-67.5-7
					c-22.2-4.5-43.9-11.2-64.8-20c-20.9-8.8-40.8-19.6-59.6-32.3c-18.7-12.7-36.2-27.2-52.1-43.3c16,15.9,33.6,30.3,52.4,42.9
					c18.8,12.5,38.8,23.2,59.7,31.8c20.8,8.6,42.5,15.3,64.7,19.7c22.1,4.4,44.7,6.6,67.2,6.7c22.6,0.1,45.1-2,67.2-6.3
					c22.1-4.3,43.8-10.8,64.7-19.3c20.9-8.5,40.9-19.2,59.6-31.7c18.7-12.5,36.2-27,52.1-42.9c15.9-15.9,30.4-33.4,42.9-52.1
					c12.5-18.7,23.2-38.7,31.7-59.6c8.6-20.9,15.1-42.5,19.3-64.7c4.3-22.1,6.4-44.7,6.3-67.2c-0.1-22.6-2.3-45.1-6.7-67.2
					c-4.4-22.1-11-43.8-19.7-64.7c-8.6-20.9-19.3-40.9-31.8-59.7C797.6,314.3,783.2,296.8,767.3,280.7z"/>
			</g>
			<g>
				<path class="lign-st0" d="M700.5,347.5c11.7,11.6,22.3,24.3,31.5,37.9c9.3,13.6,17.2,28.1,23.6,43.3c12.9,30.3,19.7,63.2,20,96.2
					c0.4,33-5.7,66-18.1,96.6c-6.2,15.3-13.9,30-23,43.7c-9.1,13.7-19.7,26.5-31.3,38.2c-11.7,11.7-24.5,22.2-38.2,31.3
					c-13.7,9.1-28.4,16.9-43.7,23c-30.6,12.4-63.6,18.5-96.6,18.1c-33-0.3-65.9-7.1-96.2-20c-15.2-6.4-29.7-14.4-43.3-23.6
					c-13.6-9.3-26.3-19.9-37.9-31.5c23.3,23.2,51.1,42,81.4,54.7c30.3,12.8,63.1,19.5,96,19.8c32.9,0.3,65.8-5.8,96.3-18.2
					c15.2-6.2,29.8-13.9,43.5-23c13.7-9.1,26.4-19.6,38-31.3c11.6-11.6,22.1-24.3,31.3-38c9.1-13.7,16.8-28.3,23-43.5
					c12.4-30.5,18.5-63.4,18.2-96.3c-0.2-32.9-7-65.7-19.7-96C742.6,398.5,723.8,370.8,700.5,347.5z"/>
			</g>
			<g>
				<path class="lign-st0" d="M887.5,160.6c23.8,23.8,45.4,49.8,64.1,77.8c18.8,27.9,34.7,57.8,47.6,88.9c12.9,31.1,22.7,63.5,29.3,96.5
					c6.6,33,9.8,66.7,9.8,100.4c0,33.7-3.2,67.4-9.8,100.4c-6.5,33-16.4,65.4-29.2,96.5c-12.9,31.1-28.8,61-47.5,89
					c-18.7,28-40.3,54.1-64.1,77.9c-23.8,23.8-49.9,45.3-77.9,64.1c-28,18.7-57.9,34.7-89,47.5c-31.1,12.9-63.5,22.7-96.5,29.2
					c-33,6.5-66.7,9.8-100.4,9.8c-33.7,0-67.3-3.3-100.4-9.8c-33-6.6-65.4-16.4-96.5-29.3c-31.1-12.9-60.9-28.9-88.9-47.6
					c-27.9-18.8-54-40.3-77.8-64.1c23.8,23.8,49.9,45.2,77.9,63.9c28,18.7,57.8,34.6,88.9,47.4c31.1,12.8,63.4,22.7,96.4,29.2
					c33,6.5,66.6,9.8,100.3,9.7c33.6,0,67.3-3.3,100.2-9.8c33-6.5,65.3-16.4,96.4-29.3c31.1-12.9,60.9-28.8,88.8-47.5
					c27.9-18.7,54-40.2,77.7-64c23.8-23.8,45.3-49.8,64-77.7c18.7-27.9,34.7-57.7,47.5-88.8c12.9-31.1,22.7-63.4,29.3-96.4
					c6.6-33,9.8-66.6,9.8-100.2c0-33.6-3.2-67.3-9.7-100.3c-6.5-33-16.3-65.3-29.2-96.4c-12.8-31.1-28.7-60.9-47.4-88.9
					C932.7,210.5,911.2,184.4,887.5,160.6z"/>
			</g>
			<g>
				<path class="lign-st0" d="M820.7,227.3c19.5,19.4,37.1,40.7,52.5,63.5c15.4,22.8,28.5,47.2,39.1,72.6c10.6,25.4,18.7,51.9,24.1,78.9
					c5.4,27,8.1,54.5,8.2,82.1c0.1,27.5-2.5,55.1-7.8,82.1c-5.3,27-13.3,53.5-23.7,79c-10.5,25.5-23.5,49.9-38.8,72.8
					c-15.3,22.9-32.9,44.3-52.4,63.7c-19.5,19.5-40.8,37.1-63.7,52.4c-22.9,15.3-47.3,28.3-72.8,38.8c-25.5,10.5-52,18.5-79,23.7
					c-27,5.3-54.6,7.8-82.1,7.8c-27.5-0.1-55.1-2.8-82.1-8.2c-27-5.4-53.4-13.5-78.9-24.1c-25.4-10.6-49.8-23.7-72.6-39.1
					c-22.8-15.4-44.1-33-63.5-52.5c19.5,19.4,40.8,37,63.7,52.3c22.9,15.3,47.2,28.3,72.6,38.8c25.4,10.5,51.8,18.6,78.8,24
					c27,5.4,54.5,8.1,81.9,8.1c27.5,0,55-2.5,82-7.8c27-5.3,53.4-13.3,78.8-23.8c25.4-10.5,49.8-23.5,72.6-38.8
					c22.8-15.3,44.1-32.9,63.6-52.3c19.4-19.4,37-40.7,52.3-63.6c15.3-22.8,28.3-47.2,38.8-72.6c10.5-25.4,18.5-51.8,23.8-78.8
					c5.3-27,7.9-54.5,7.8-82c0-27.5-2.7-55-8.1-81.9c-5.4-27-13.4-53.4-24-78.8c-10.5-25.4-23.5-49.8-38.8-72.6
					C857.7,268.1,840.1,246.8,820.7,227.3z"/>
			</g>
			<g>
				<path class="lign-st0" d="M753.9,294.1c15.1,15.1,28.9,31.6,40.8,49.3c12,17.7,22.2,36.6,30.5,56.3c8.3,19.7,14.6,40.3,18.9,61.2
					c4.3,21,6.4,42.3,6.6,63.7c0.3,42.8-7.8,85.7-24,125.3c-8.1,19.8-18.1,38.8-30,56.6c-11.9,17.8-25.5,34.4-40.7,49.6
					c-15.1,15.1-31.7,28.8-49.6,40.7c-17.8,11.9-36.8,21.9-56.6,30c-39.6,16.2-82.5,24.3-125.3,24c-21.4-0.1-42.8-2.3-63.7-6.6
					c-21-4.3-41.5-10.6-61.2-18.9c-19.7-8.3-38.6-18.5-56.3-30.5c-17.7-12-34.2-25.7-49.3-40.8c15.1,15.1,31.7,28.7,49.5,40.6
					c17.7,11.9,36.7,22,56.4,30.2c19.7,8.2,40.2,14.5,61.2,18.7c20.9,4.2,42.3,6.4,63.6,6.5c42.7,0.3,85.5-7.9,124.9-24.1
					c19.8-8.1,38.7-18.2,56.4-30c17.7-11.9,34.3-25.5,49.4-40.6c15.1-15.1,28.8-31.6,40.6-49.4c11.9-17.7,21.9-36.7,30-56.4
					c16.3-39.5,24.4-82.2,24.1-124.9c-0.1-21.4-2.2-42.7-6.5-63.6c-4.2-20.9-10.5-41.4-18.7-61.1c-8.2-19.7-18.3-38.6-30.2-56.4
					C782.7,325.8,769,309.2,753.9,294.1z"/>
			</g>
			<g>
				<path class="lign-st0" d="M842.9,205.1c20.9,20.9,39.9,43.8,56.4,68.3c16.5,24.5,30.6,50.7,41.9,78c11.4,27.3,20,55.7,25.8,84.7
					c5.8,29,8.7,58.6,8.7,88.2c0.1,29.6-2.7,59.2-8.4,88.2c-5.7,29-14.3,57.5-25.6,84.8c-11.3,27.4-25.2,53.6-41.7,78.2
					c-16.4,24.6-35.4,47.5-56.3,68.5c-20.9,20.9-43.9,39.8-68.5,56.3c-24.6,16.5-50.8,30.4-78.2,41.7
					c-27.4,11.3-55.8,19.9-84.8,25.6c-29,5.7-58.6,8.5-88.2,8.4c-29.6,0-59.2-3-88.2-8.7c-29-5.8-57.4-14.5-84.7-25.8
					c-27.3-11.4-53.5-25.4-78-41.9c-24.5-16.5-47.4-35.4-68.3-56.4c20.9,20.9,43.9,39.7,68.4,56.2c24.6,16.4,50.8,30.4,78.1,41.7
					c27.3,11.3,55.7,19.9,84.7,25.7c29,5.8,58.5,8.6,88,8.7c29.5,0,59.1-2.8,88.1-8.5c29-5.7,57.4-14.3,84.7-25.6
					c27.3-11.3,53.5-25.2,78-41.7c24.5-16.4,47.4-35.3,68.3-56.2c20.9-20.9,39.8-43.7,56.2-68.3c16.4-24.5,30.4-50.7,41.7-78
					c11.3-27.3,19.9-55.7,25.6-84.7c5.7-29,8.5-58.5,8.5-88.1c0-29.5-2.9-59.1-8.7-88c-5.8-29-14.4-57.4-25.7-84.7
					c-11.3-27.3-25.2-53.5-41.7-78.1C882.7,248.9,863.8,226,842.9,205.1z"/>
			</g>
			<g>
				<path class="lign-st0" d="M776.2,271.8c16.6,16.5,31.6,34.6,44.7,54.1c13.1,19.4,24.3,40.1,33.3,61.7c9,21.6,16,44.1,20.6,67.1
					c4.6,23,7,46.4,7.1,69.8c0.1,23.4-2,46.9-6.5,69.9c-4.4,23-11.2,45.6-20.1,67.3c-8.9,21.7-19.9,42.5-32.9,62
					c-13,19.5-28,37.7-44.6,54.3c-16.6,16.6-34.8,31.6-54.3,44.6c-19.5,13-40.3,24.1-62,32.9c-21.7,8.9-44.3,15.6-67.3,20.1
					c-23,4.4-46.5,6.6-69.9,6.5c-23.4-0.1-46.9-2.5-69.8-7.1c-23-4.6-45.5-11.6-67.1-20.6c-21.6-9-42.3-20.2-61.7-33.3
					c-19.4-13.1-37.5-28.1-54.1-44.7c16.6,16.5,34.7,31.5,54.2,44.5c19.4,13,40.2,24.1,61.8,33.1c21.6,9,44.1,15.9,67,20.5
					c22.9,4.6,46.3,6.9,69.7,7c23.4,0.1,46.8-2.1,69.8-6.5c23-4.4,45.5-11.2,67.1-20.1c21.6-8.9,42.4-19.9,61.8-32.9
					c19.4-13,37.6-28,54.1-44.5c16.5-16.5,31.5-34.6,44.5-54.1c13-19.4,24.1-40.2,32.9-61.8c8.9-21.6,15.7-44.1,20.1-67.1
					c4.5-23,6.6-46.4,6.5-69.8c-0.1-23.4-2.4-46.8-7-69.7c-4.6-22.9-11.5-45.4-20.5-67c-9-21.6-20.1-42.4-33.1-61.8
					C807.7,306.6,792.7,288.4,776.2,271.8z"/>
			</g>
			<g>
				<path class="lign-st0" d="M709.4,338.6c12.2,12.2,23.4,25.5,33.1,39.8c9.7,14.3,18,29.6,24.8,45.5c13.5,31.9,20.6,66.4,20.9,101
					c0.4,34.6-6,69.3-19.1,101.4c-6.5,16-14.6,31.4-24.2,45.8c-9.6,14.4-20.6,27.8-32.9,40.1c-12.2,12.2-25.7,23.3-40.1,32.9
					c-14.4,9.6-29.8,17.7-45.8,24.2c-16,6.5-32.7,11.4-49.7,14.6c-17,3.2-34.3,4.7-51.6,4.5c-34.6-0.3-69.1-7.4-101-20.9
					c-15.9-6.7-31.2-15.1-45.5-24.8c-14.3-9.7-27.6-20.8-39.8-33.1c12.3,12.2,25.6,23.2,40,32.9c14.3,9.6,29.6,17.9,45.5,24.5
					c31.8,13.4,66.3,20.4,100.8,20.7c34.5,0.3,69.1-6.1,101.1-19.2c16-6.5,31.3-14.6,45.6-24.2c14.3-9.6,27.7-20.6,39.9-32.8
					c12.2-12.2,23.2-25.6,32.8-39.9c9.6-14.3,17.7-29.7,24.2-45.7c13-32,19.5-66.5,19.2-101.1c-0.1-17.3-1.9-34.5-5.4-51.4
					c-3.5-16.9-8.6-33.5-15.3-49.4c-6.7-15.9-14.9-31.2-24.5-45.5C732.7,364.2,721.6,350.8,709.4,338.6z"/>
			</g>
			<g>
				<path class="lign-st0" d="M865.2,182.8c22.4,22.3,42.7,46.7,60.4,73c17.7,26.2,32.7,54.2,44.9,83.4c12.2,29.2,21.5,59.6,27.7,90.6
					c6.2,31,9.3,62.7,9.4,94.3c0.1,31.7-2.9,63.3-9.1,94.4c-6.1,31.1-15.3,61.5-27.4,90.8c-12.1,29.3-27,57.4-44.6,83.7
					c-17.6,26.3-37.8,50.9-60.2,73.3c-22.4,22.4-47,42.6-73.3,60.2c-26.3,17.6-54.4,32.6-83.7,44.6c-29.3,12.1-59.7,21.3-90.8,27.4
					c-15.5,3.1-31.2,5.4-47,6.9c-15.8,1.5-31.6,2.2-47.4,2.2c-31.7-0.1-63.3-3.2-94.3-9.4c-31-6.2-61.4-15.5-90.6-27.7
					c-29.2-12.2-57.2-27.2-83.4-44.9c-26.2-17.7-50.7-38-73-60.4c22.4,22.3,46.9,42.4,73.2,59.9c26.3,17.5,54.3,32.4,83.5,44.4
					c29.2,12,59.5,21.2,90.5,27.3c31,6.1,62.5,9.1,94.1,9.1c31.6,0,63.1-3.1,94.1-9.2c30.9-6.1,61.3-15.3,90.4-27.4
					c29.2-12,57.1-27,83.3-44.5c26.2-17.6,50.6-37.7,72.9-60c22.3-22.3,42.5-46.7,60-72.9c17.6-26.2,32.5-54.2,44.5-83.3
					c12.1-29.1,21.3-59.5,27.4-90.4c6.1-30.9,9.2-62.5,9.2-94.1c0-31.6-3-63.1-9.1-94.1c-6.1-31-15.3-61.3-27.3-90.5
					c-12-29.2-26.9-57.2-44.4-83.5C907.6,229.8,887.5,205.2,865.2,182.8z"/>
			</g>
			<g>
				<path class="lign-st0" d="M798.4,249.6c18.1,18,34.4,37.6,48.7,58.7c14.3,21.1,26.5,43.6,36.3,67.1c9.9,23.5,17.4,48,22.5,73
					c5.1,25,7.6,50.5,7.8,76c0.1,25.5-2.2,51.1-7.1,76.1c-4.9,25.1-12.2,49.6-21.9,73.2c-9.7,23.6-21.7,46.3-35.9,67.5
					c-14.2,21.2-30.5,41-48.5,59.1c-18.1,18-37.9,34.4-59.1,48.5c-21.2,14.2-43.9,26.2-67.5,35.9c-23.6,9.7-48.2,17.1-73.2,21.9
					c-25.1,4.9-50.6,7.2-76.1,7.1c-25.5-0.1-51-2.7-76-7.8c-25-5.1-49.5-12.6-73-22.4c-23.5-9.9-46-22-67.1-36.3
					c-21.1-14.3-40.8-30.6-58.7-48.7c18.1,17.9,37.8,34.2,59,48.3c21.2,14.1,43.7,26.1,67.2,35.8c23.5,9.7,47.9,17.2,72.9,22.1
					c24.9,5,50.4,7.4,75.8,7.5c25.4,0,50.8-2.4,75.8-7.2c24.9-4.9,49.4-12.2,72.9-21.9c23.5-9.7,46-21.7,67.1-35.8
					c21.1-14.1,40.8-30.4,58.7-48.4c18-18,34.2-37.6,48.4-58.7c14.1-21.1,26.1-43.6,35.8-67.1c9.7-23.5,17-47.9,21.9-72.9
					c4.9-24.9,7.3-50.4,7.2-75.8c0-25.4-2.5-50.8-7.5-75.8c-5-24.9-12.4-49.4-22.1-72.9c-9.7-23.5-21.7-46.1-35.8-67.2
					C832.6,287.4,816.4,267.6,798.4,249.6z"/>
			</g>
			<g>
				<path class="lign-st0" d="M731.7,316.3c13.7,13.6,26.1,28.6,37,44.6c10.9,16,20.1,33.1,27.6,50.9c15,35.6,22.9,74.3,23.2,113
					c0.1,19.3-1.6,38.7-5.2,57.7c-3.6,19-9.1,37.7-16.4,55.6c-7.3,17.9-16.4,35.1-27.1,51.2c-10.7,16.1-23.1,31.1-36.8,44.8
					c-13.7,13.7-28.7,26-44.8,36.8c-16.1,10.7-33.3,19.8-51.2,27.1c-17.9,7.3-36.6,12.8-55.6,16.4c-19,3.6-38.4,5.3-57.7,5.2
					c-38.7-0.2-77.3-8.1-113-23.2c-17.8-7.5-34.9-16.8-50.9-27.6c-16-10.8-30.9-23.3-44.6-37c13.7,13.6,28.7,26,44.7,36.8
					c16,10.8,33.1,20,51,27.4c17.8,7.4,36.4,13.2,55.3,17c18.9,3.8,38.2,5.8,57.5,5.9c38.6,0.3,77.3-7,113-21.7
					c17.9-7.3,35-16.4,51-27.1c16-10.7,31-23.1,44.6-36.7c13.7-13.6,26-28.6,36.7-44.6c10.7-16,19.8-33.2,27.1-51
					c14.6-35.7,21.9-74.4,21.7-113c-0.1-19.3-2.1-38.6-5.9-57.5c-3.8-18.9-9.6-37.5-17-55.3c-7.4-17.8-16.6-34.9-27.4-51
					C757.7,345,745.3,330,731.7,316.3z"/>
			</g>
			<g>
				<path class="lign-st0" d="M664.9,383.1c18.7,18.6,34,40.7,44.4,65c10.4,24.3,15.9,50.6,16.3,77c0.4,26.4-4.3,52.9-14.1,77.5
					c-9.8,24.6-24.7,47-43.4,65.7c-18.7,18.7-41.1,33.7-65.7,43.4c-24.5,9.8-51.1,14.5-77.5,14.1c-26.4-0.4-52.7-5.9-77-16.3
					c-24.3-10.4-46.4-25.7-65-44.4c18.7,18.6,40.9,33.7,65.2,43.9c24.2,10.3,50.5,15.8,76.8,16.1c26.3,0.4,52.7-4.4,77.2-14.2
					c24.4-9.8,46.8-24.7,65.3-43.4c18.7-18.6,33.6-40.9,43.4-65.3c9.8-24.4,14.6-50.8,14.2-77.2c-0.3-26.3-5.8-52.6-16.1-76.8
					C698.7,424,683.5,401.8,664.9,383.1z"/>
			</g>
			<g>
				<path class="lign-st0" d="M830.4,219.2c-20.1-20-42-38.1-65.6-53.8c-23.5-15.8-48.6-29.1-74.8-40c-26.2-10.8-53.4-19.1-81.1-24.7
					c-27.8-5.5-56.1-8.3-84.4-8.3c-28.3,0-56.6,2.6-84.4,8.1c-27.8,5.5-55,13.7-81.2,24.5c-26.2,10.8-51.3,24.2-74.8,39.9
					c-23.5,15.7-45.4,33.9-65.4,53.9c-20,20-38.1,41.9-53.9,65.4c-15.8,23.5-29.1,48.6-39.9,74.8c-10.8,26.2-19,53.4-24.5,81.2
					c-5.5,27.8-8.1,56.1-8.1,84.4c0,28.3,2.8,56.6,8.3,84.4c5.5,27.8,13.8,55,24.7,81.1c10.8,26.2,24.2,51.3,40,74.8
					c15.7,23.5,33.8,45.5,53.8,65.6c-20.1-20-38.2-41.9-54-65.4c-15.8-23.5-29.3-48.6-40.2-74.8c-10.9-26.2-19.2-53.4-24.8-81.2
					c-5.6-27.8-8.4-56.1-8.4-84.5c-0.1-28.3,2.6-56.7,8-84.5c5.4-27.8,13.7-55.1,24.5-81.3c10.8-26.2,24.2-51.4,39.9-75
					c15.8-23.6,33.9-45.6,53.9-65.6c20.1-20,42.1-38.2,65.6-53.9c23.6-15.8,48.7-29.2,75-39.9c26.2-10.8,53.5-19,81.3-24.5
					c27.8-5.5,56.2-8.1,84.5-8c28.4,0.1,56.7,2.9,84.5,8.4c27.8,5.6,55,13.9,81.2,24.8c26.2,10.9,51.3,24.4,74.8,40.2
					C788.4,181,810.3,199.1,830.4,219.2z"/>
			</g>
			<g>
				<path class="lign-st0" d="M763.6,285.9c-15.7-15.7-32.9-29.8-51.3-42.2c-18.4-12.4-38.1-22.9-58.5-31.4
					c-20.5-8.5-41.8-15.1-63.5-19.4c-21.7-4.4-43.9-6.6-66.1-6.7c-22.2-0.1-44.3,1.9-66.1,6.1c-21.8,4.2-43.1,10.6-63.6,19
					c-20.5,8.4-40.2,18.9-58.6,31.2c-18.4,12.3-35.6,26.5-51.3,42.2c-15.7,15.7-29.9,32.8-42.2,51.3c-12.3,18.4-22.8,38.1-31.2,58.6
					c-8.4,20.5-14.8,41.8-19,63.6c-4.2,21.8-6.2,43.9-6.1,66.1c0.1,22.2,2.3,44.3,6.7,66.1c4.4,21.7,10.9,43,19.4,63.5
					c8.5,20.5,19,40.1,31.4,58.5c12.4,18.4,26.5,35.6,42.2,51.3c-15.7-15.7-30-32.8-42.4-51.2c-12.4-18.4-23-38-31.6-58.5
					c-8.6-20.5-15.1-41.8-19.6-63.6c-4.4-21.8-6.7-44-6.8-66.2c-0.1-22.2,1.9-44.4,6.1-66.3c4.2-21.8,10.6-43.2,19-63.8
					c8.4-20.6,18.9-40.3,31.2-58.8c12.3-18.5,26.5-35.7,42.2-51.4c15.7-15.7,33-29.9,51.5-42.2c18.5-12.3,38.2-22.8,58.8-31.2
					c20.6-8.4,42-14.8,63.8-19c21.8-4.2,44-6.2,66.3-6.1c22.2,0.1,44.4,2.4,66.2,6.8c21.8,4.4,43.1,11,63.6,19.6
					c20.5,8.6,40.1,19.2,58.5,31.6C730.8,256,747.9,270.2,763.6,285.9z"/>
			</g>
			<g>
				<path class="lign-st0" d="M852.6,196.9c-21.5-21.4-45.1-40.8-70.3-57.7C757,122.3,730.1,108,702,96.4C674,84.8,644.8,75.9,615,70
					c-29.8-5.9-60.1-8.9-90.5-8.9c-30.4,0-60.7,2.9-90.5,8.8c-29.8,5.9-59,14.7-87,26.3c-28.1,11.6-55,25.9-80.2,42.8
					c-25.2,16.9-48.7,36.3-70.2,57.8c-21.5,21.5-40.9,45-57.8,70.2c-16.9,25.2-31.3,52.1-42.8,80.2c-11.6,28-20.5,57.2-26.3,87
					C63.9,464,61,494.3,61,524.7c0,30.4,3,60.7,8.9,90.5c5.9,29.8,14.8,59,26.4,87c11.6,28.1,25.9,55,42.8,80.2
					c16.9,25.3,36.3,48.8,57.7,70.3c-21.5-21.5-41-45-57.9-70.2c-17-25.2-31.4-52.1-43.1-80.2c-11.7-28.1-20.6-57.3-26.5-87.1
					c-5.9-29.8-8.9-60.2-9-90.6c-0.1-30.4,2.8-60.8,8.7-90.6c5.9-29.8,14.7-59.1,26.3-87.2c11.6-28.1,25.9-55.1,42.9-80.4
					c16.9-25.3,36.3-48.9,57.8-70.4c21.5-21.5,45.1-40.9,70.4-57.8c25.3-16.9,52.2-31.3,80.4-42.9c28.1-11.6,57.3-20.4,87.2-26.3
					c29.8-5.9,60.2-8.7,90.6-8.7c30.4,0,60.8,3,90.6,9c29.8,5.9,59,14.8,87.1,26.5c28.1,11.7,55,26.1,80.2,43.1
					C807.6,156,831.1,175.4,852.6,196.9z"/>
			</g>
			<g>
				<path class="lign-st0" d="M785.8,263.7c-17.2-17.1-36-32.6-56.1-46.1c-20.1-13.5-41.6-25-64-34.2c-22.4-9.3-45.6-16.4-69.4-21.2
					c-23.7-4.8-48-7.2-72.2-7.2c-24.2-0.1-48.4,2.2-72.2,6.8c-23.8,4.6-47.1,11.6-69.5,20.8c-22.4,9.2-43.9,20.6-64,34.1
					c-20.1,13.5-38.9,28.9-56,46.1c-17.1,17.1-32.6,35.9-46.1,56c-13.5,20.1-24.9,41.6-34.1,64c-9.2,22.4-16.2,45.7-20.8,69.5
					c-4.6,23.8-6.9,48-6.8,72.2c0.1,24.2,2.5,48.4,7.2,72.2c4.8,23.7,11.9,47,21.2,69.4c9.3,22.4,20.8,43.8,34.2,64
					c13.5,20.1,29,38.9,46.1,56.1c-17.2-17.1-32.7-35.9-46.3-56c-13.6-20.1-25.1-41.5-34.5-63.9c-9.3-22.4-16.5-45.7-21.3-69.5
					c-4.8-23.8-7.2-48-7.3-72.3c-0.1-24.3,2.1-48.5,6.7-72.4c4.6-23.8,11.6-47.2,20.8-69.6c9.2-22.5,20.6-44,34.1-64.2
					c13.5-20.2,29-39,46.1-56.2c17.2-17.1,36-32.7,56.2-46.1c20.2-13.5,41.7-24.9,64.2-34.1c22.5-9.2,45.8-16.2,69.6-20.8
					c23.8-4.6,48.1-6.8,72.4-6.7c24.3,0.1,48.5,2.5,72.3,7.3c23.8,4.8,47.1,11.9,69.5,21.3c22.4,9.4,43.8,20.9,63.9,34.5
					C750,231,768.7,246.5,785.8,263.7z"/>
			</g>
			<g>
				<path class="lign-st0" d="M719.1,330.4c-12.8-12.8-26.8-24.3-41.9-34.4c-15-10.1-31-18.7-47.7-25.7c-16.7-7-34-12.4-51.7-16
					c-17.7-3.6-35.8-5.5-53.9-5.6c-18.1-0.1-36.2,1.5-53.9,4.8c-17.8,3.4-35.2,8.5-51.9,15.3c-16.7,6.8-32.8,15.3-47.8,25.4
					c-15,10-29,21.6-41.8,34.4c-12.8,12.8-24.3,26.8-34.4,41.8c-10,15-18.5,31.1-25.4,47.8c-6.8,16.7-12,34.2-15.3,51.9
					c-3.4,17.8-5,35.8-4.8,53.9c0.1,18.1,2,36.1,5.6,53.9c3.6,17.7,9,35.1,16,51.7c7,16.7,15.6,32.7,25.7,47.7
					c10.1,15,21.7,29,34.4,41.9c-12.8-12.8-24.5-26.7-34.6-41.7c-10.2-15-18.9-31-25.9-47.6c-14.1-33.4-21.5-69.5-21.8-105.8
					c-0.2-18.1,1.4-36.3,4.8-54.1c3.3-17.8,8.5-35.3,15.3-52.1c6.8-16.8,15.3-32.9,25.4-48c10-15.1,21.6-29.2,34.4-42
					c12.8-12.8,26.9-24.4,42-34.4c15.1-10,31.2-18.6,48-25.4c16.8-6.8,34.3-11.9,52.1-15.3c17.8-3.4,35.9-4.9,54.1-4.8
					c36.2,0.3,72.4,7.7,105.8,21.8c16.7,7,32.7,15.7,47.6,25.9C692.3,306,706.3,317.6,719.1,330.4z"/>
			</g>
			<g>
				<path class="lign-st0" d="M652.3,397.2c-17-16.9-37-30.6-59.1-39.9c-22-9.4-45.8-14.4-69.6-14.7c-23.9-0.4-47.8,3.8-70,12.7
					c-22.2,8.8-42.4,22.4-59.2,39.3c-16.9,16.8-30.4,37.1-39.3,59.2c-8.9,22.2-13.1,46.1-12.7,70c0.3,23.9,5.4,47.7,14.7,69.6
					c9.3,22,23,42.1,39.9,59.1c-17-16.8-30.9-36.9-40.3-58.9c-9.5-22-14.5-45.9-14.9-69.8c-0.5-23.9,3.7-48,12.6-70.3
					c8.8-22.3,22.4-42.7,39.3-59.6c16.9-17,37.3-30.5,59.6-39.3c22.3-8.9,46.4-13.1,70.3-12.6c24,0.4,47.8,5.5,69.8,14.9
					C615.5,366.3,635.5,380.2,652.3,397.2z"/>
			</g>
			<g>
				<path class="lign-st0" d="M874.9,174.7c-23-22.9-48.1-43.6-75.1-61.6c-26.9-18-55.7-33.3-85.7-45.7C684.2,55,653,45.6,621.2,39.3
					c-31.8-6.3-64.2-9.4-96.6-9.4c-32.4,0-64.8,3.1-96.6,9.4c-31.8,6.3-62.9,15.8-92.9,28.2c-29.9,12.4-58.7,27.7-85.6,45.8
					c-26.9,18-52,38.8-74.9,61.7c-22.9,22.9-43.6,48-61.7,74.9c-18,26.9-33.4,55.6-45.8,85.6c-12.4,29.9-21.9,61.1-28.2,92.9
					c-6.3,31.8-9.4,64.2-9.4,96.6c0,32.4,3.1,64.8,9.4,96.6c6.3,31.8,15.7,62.9,28.1,92.9c12.3,30,27.7,58.7,45.7,85.7
					c18,27,38.7,52.1,61.6,75.1c-23-22.9-43.7-48-61.8-74.9c-18.1-26.9-33.5-55.6-45.9-85.6c-12.4-30-21.9-61.1-28.2-93
					c-6.3-31.8-9.5-64.3-9.5-96.7c0-32.4,3.1-64.9,9.4-96.7c6.3-31.8,15.7-63,28.1-93c12.4-30,27.7-58.8,45.8-85.7
					c18-27,38.8-52.1,61.7-75.1c23-22.9,48.1-43.7,75.1-61.7c27-18.1,55.7-33.4,85.7-45.8c30-12.4,61.2-21.8,93-28.1
					c31.8-6.3,64.3-9.4,96.7-9.4c32.4,0,64.9,3.2,96.7,9.5c31.8,6.3,63,15.8,93,28.2c30,12.4,58.7,27.8,85.6,45.9
					C826.8,130.9,852,151.7,874.9,174.7z"/>
			</g>
			<g>
				<path class="lign-st0" d="M808.1,241.4c-18.6-18.6-39-35.3-60.8-50c-21.8-14.6-45.1-27.1-69.4-37.1c-24.3-10.1-49.5-17.8-75.3-22.9
					c-25.8-5.1-52-7.7-78.3-7.8c-26.3-0.1-52.5,2.4-78.3,7.4c-25.8,5-51,12.7-75.3,22.7c-24.3,10-47.6,22.4-69.4,37
					c-21.8,14.6-42.2,31.4-60.7,50c-18.6,18.6-35.4,38.9-50,60.7c-14.6,21.8-27,45.1-37,69.4c-10,24.3-17.6,49.5-22.7,75.3
					c-5,25.8-7.5,52-7.4,78.3c0,26.3,2.6,52.5,7.8,78.3c5.1,25.8,12.9,51,22.9,75.3c10,24.3,22.5,47.6,37.1,69.4
					c14.6,21.8,31.4,42.2,50,60.8c-18.6-18.6-35.5-38.9-50.2-60.7c-14.7-21.8-27.2-45.1-37.3-69.3c-10.1-24.3-17.9-49.5-23-75.3
					c-5.2-25.8-7.8-52.1-7.9-78.4c-0.1-26.3,2.3-52.6,7.4-78.5c5-25.8,12.6-51.1,22.6-75.5c10-24.3,22.4-47.7,37-69.6
					c14.6-21.9,31.4-42.3,50-60.9c18.6-18.6,39-35.4,60.9-50c21.9-14.6,45.2-27,69.6-37c24.3-10,49.7-17.6,75.5-22.6
					c25.8-5,52.1-7.5,78.5-7.4c26.3,0.1,52.6,2.7,78.4,7.9c25.8,5.2,51.1,12.9,75.3,23c24.3,10.1,47.5,22.6,69.3,37.3
					C769.2,206,789.5,222.8,808.1,241.4z"/>
			</g>
			<g>
				<path class="lign-st0" d="M741.3,308.2c-14.3-14.2-29.9-27.1-46.6-38.3c-16.7-11.2-34.5-20.8-53.1-28.5
					c-18.6-7.8-37.9-13.7-57.6-17.7c-19.7-4-39.8-6-60-6.1c-40.2-0.3-80.5,7.4-117.8,22.7c-18.6,7.6-36.5,17.1-53.2,28.3
					c-16.7,11.2-32.3,24-46.5,38.3c-14.2,14.2-27.1,29.8-38.3,46.5c-11.2,16.7-20.7,34.6-28.3,53.2c-15.3,37.2-22.9,77.5-22.6,117.8
					c0.1,20.1,2.1,40.2,6.2,60c4,19.7,10,39,17.7,57.6c7.7,18.6,17.3,36.4,28.5,53.1c11.2,16.7,24.1,32.3,38.3,46.6
					c-14.3-14.2-27.2-29.8-38.5-46.5c-11.3-16.7-21-34.5-28.8-53.1c-7.8-18.6-13.8-37.9-17.8-57.7c-4-19.8-6.1-39.9-6.2-60.1
					c-0.3-40.3,7.3-80.7,22.5-118.1c7.6-18.7,17.1-36.6,28.3-53.4c11.2-16.8,24.1-32.4,38.3-46.7c14.3-14.3,29.9-27.1,46.7-38.3
					c16.8-11.2,34.7-20.7,53.4-28.3c37.4-15.3,77.8-22.9,118.1-22.5c20.2,0.1,40.3,2.2,60.1,6.2c19.8,4,39.1,10,57.7,17.8
					c18.6,7.8,36.4,17.5,53.1,28.8C711.6,281,727.1,293.9,741.3,308.2z"/>
			</g>
			<g>
				<path class="lign-st0" d="M861.5,188c-22.1-22-46.3-41.9-72.2-59.3c-25.9-17.3-53.6-32.1-82.4-44c-28.8-11.9-58.8-21-89.4-27.1
					c-30.6-6.1-61.8-9.1-92.9-9.1c-31.2,0-62.4,3-92.9,9c-30.6,6-60.5,15.1-89.3,27.1c-28.8,11.9-56.4,26.7-82.3,44
					c-25.9,17.3-50,37.3-72.1,59.3c-22,22-42,46.2-59.3,72.1c-17.4,25.9-32.1,53.5-44,82.3c-11.9,28.8-21,58.8-27.1,89.3
					c-6.1,30.6-9,61.8-9,92.9c0,31.2,3,62.4,9.1,92.9c6.1,30.6,15.2,60.6,27.1,89.4c11.9,28.8,26.6,56.5,44,82.4
					c17.3,25.9,37.2,50.1,59.3,72.2c-22.1-22-42.1-46.2-59.5-72.1C111,763.7,96.2,736,84.2,707.2c-12-28.8-21.1-58.8-27.2-89.4
					c-6.1-30.6-9.1-61.8-9.2-93c0-31.2,2.9-62.4,9-93.1c6-30.6,15.1-60.7,27-89.5c11.9-28.9,26.7-56.6,44-82.5
					c17.4-26,37.3-50.2,59.4-72.3c22.1-22.1,46.3-42,72.3-59.4c26-17.4,53.6-32.1,82.5-44c28.9-11.9,58.9-21,89.5-27
					c30.6-6,61.9-9,93.1-9c31.2,0,62.4,3.1,93,9.2c30.6,6.1,60.6,15.2,89.4,27.2c28.8,12,56.5,26.8,82.4,44.2
					C815.3,146,839.5,165.9,861.5,188z"/>
			</g>
			<g>
				<path class="lign-st0" d="M794.7,254.8c-17.8-17.7-37.2-33.7-58-47.6c-20.8-13.9-43-25.8-66.1-35.4c-23.1-9.6-47.2-17-71.7-21.9
					c-24.5-4.9-49.6-7.4-74.6-7.5c-25-0.1-50.1,2.3-74.6,7.1c-24.6,4.8-48.7,12-71.8,21.6c-23.1,9.5-45.3,21.3-66.1,35.3
					c-20.8,13.9-40.2,29.9-57.9,47.6c-17.7,17.7-33.7,37.1-47.6,57.9c-13.9,20.8-25.8,43-35.3,66.1c-9.5,23.1-16.8,47.2-21.6,71.8
					c-4.8,24.6-7.1,49.6-7.1,74.6c0.1,25,2.5,50.1,7.5,74.6c4.9,24.6,12.3,48.6,21.9,71.7c9.6,23.1,21.4,45.3,35.4,66.1
					c13.9,20.8,29.9,40.2,47.6,58c-17.7-17.7-33.8-37.1-47.8-57.9c-14-20.8-26-43-35.6-66.1c-9.7-23.1-17-47.2-22-71.8
					c-5-24.6-7.5-49.7-7.5-74.7c-0.1-25.1,2.2-50.2,7-74.8c4.8-24.6,12-48.8,21.5-72c9.5-23.2,21.3-45.5,35.3-66.3
					c13.9-20.9,30-40.3,47.7-58.1c17.8-17.7,37.2-33.8,58.1-47.7c20.9-13.9,43.1-25.8,66.3-35.3c23.2-9.5,47.3-16.8,72-21.5
					c24.6-4.8,49.7-7.1,74.8-7c25.1,0.1,50.1,2.6,74.7,7.6c24.6,4.9,48.7,12.3,71.8,22c23.1,9.7,45.3,21.6,66.1,35.6
					C757.7,221,777.1,237,794.7,254.8z"/>
			</g>
			<g>
				<path class="lign-st0" d="M728,321.5c-13.4-13.3-28.1-25.4-43.8-36c-15.7-10.5-32.4-19.5-49.9-26.8c-17.4-7.3-35.6-12.9-54.1-16.7
					c-18.5-3.8-37.4-5.7-56.3-5.8c-18.9-0.1-37.8,1.6-56.4,5.1c-18.6,3.5-36.8,8.9-54.2,16.1c-17.5,7.1-34.3,16-50,26.5
					c-15.7,10.5-30.3,22.6-43.7,35.9c-13.4,13.3-25.4,28-35.9,43.7c-10.5,15.7-19.4,32.5-26.5,50c-7.1,17.5-12.5,35.7-16.1,54.3
					c-3.5,18.6-5.2,37.5-5.1,56.4c0.1,18.9,2.1,37.8,5.8,56.3c3.8,18.5,9.4,36.7,16.7,54.1c7.3,17.4,16.3,34.2,26.8,49.9
					c10.5,15.7,22.6,30.3,36,43.8c-13.4-13.4-25.6-28-36.2-43.6c-10.6-15.7-19.7-32.4-27.1-49.8c-14.7-34.9-22.4-72.7-22.7-110.6
					c-0.2-18.9,1.5-37.9,5-56.5c3.5-18.6,8.9-36.9,16-54.4c7.1-17.6,16-34.4,26.5-50.2c10.5-15.8,22.6-30.5,36-43.9
					c13.4-13.4,28.1-25.5,43.9-36c15.8-10.5,32.6-19.4,50.2-26.5c17.5-7.1,35.8-12.5,54.4-16c18.6-3.5,37.6-5.2,56.5-5
					c37.9,0.3,75.7,8,110.6,22.7c17.4,7.4,34.2,16.4,49.8,27.1C700,296,714.6,308.1,728,321.5z"/>
			</g>
			<g>
				<path class="lign-st0" d="M883.8,165.8c-23.5-23.5-49.3-44.7-77-63.2c-27.6-18.5-57.1-34.2-87.8-46.8c-30.7-12.7-62.7-22.4-95.2-28.8
					c-32.6-6.5-65.8-9.6-99-9.6c-33.2,0-66.4,3.2-99,9.7c-32.6,6.5-64.5,16.2-95.2,28.9c-30.7,12.7-60.1,28.4-87.7,46.9
					c-27.6,18.5-53.3,39.7-76.8,63.2c-23.5,23.5-44.7,49.2-63.2,76.8c-18.5,27.6-34.2,57-46.9,87.7c-12.7,30.7-22.4,62.6-28.9,95.2
					c-6.5,32.6-9.7,65.8-9.7,99c0,33.2,3.2,66.4,9.6,99c6.4,32.6,16.1,64.5,28.8,95.2c12.7,30.7,28.3,60.2,46.8,87.8
					c18.5,27.6,39.7,53.4,63.2,77c-23.5-23.5-44.8-49.2-63.4-76.8c-18.5-27.6-34.3-57.1-47.1-87.8c-12.7-30.7-22.5-62.7-28.9-95.3
					c-6.5-32.6-9.7-65.9-9.7-99.2c0-33.3,3.2-66.5,9.6-99.2C32.6,393,42.3,361,55,330.3c12.7-30.8,28.4-60.3,46.9-87.9
					c18.5-27.7,39.8-53.5,63.3-77c23.5-23.5,49.3-44.8,77-63.3c27.7-18.5,57.2-34.2,87.9-46.9c30.7-12.7,62.7-22.4,95.4-28.9
					c32.6-6.5,65.9-9.7,99.2-9.6c33.3,0,66.5,3.2,99.2,9.7c32.6,6.5,64.6,16.2,95.3,28.9c30.7,12.7,60.2,28.5,87.8,47.1
					C834.5,120.9,860.3,142.2,883.8,165.8z"/>
			</g>
			<g>
				<path class="lign-st0" d="M817,232.5c-19.2-19.1-40.2-36.4-62.7-51.5c-22.5-15.1-46.5-27.9-71.6-38.2c-25-10.4-51-18.3-77.6-23.6
					c-26.6-5.3-53.6-8-80.7-8c-27.1,0-54.2,2.5-80.7,7.7c-26.6,5.2-52.6,13.1-77.6,23.4c-25,10.3-49,23.1-71.5,38.2
					c-22.5,15.1-43.5,32.4-62.6,51.5c-19.1,19.1-36.5,40.1-51.5,62.6c-15.1,22.5-27.9,46.5-38.2,71.5c-10.3,25-18.2,51.1-23.4,77.6
					c-5.2,26.6-7.8,53.7-7.7,80.7c0,27.1,2.7,54.2,8,80.7c5.3,26.6,13.2,52.6,23.6,77.6c10.3,25,23.2,49,38.2,71.6
					c15.1,22.5,32.4,43.5,51.5,62.7c-19.2-19.1-36.6-40.1-51.7-62.6c-15.2-22.5-28.1-46.5-38.5-71.5c-10.4-25-18.4-51.1-23.7-77.7
					c-5.3-26.6-8-53.7-8.1-80.8c-0.1-27.1,2.4-54.3,7.6-80.9c5.2-26.6,13-52.7,23.4-77.8c10.3-25.1,23.1-49.2,38.2-71.7
					c15.1-22.6,32.4-43.6,51.6-62.8c19.2-19.2,40.2-36.5,62.8-51.6c22.6-15.1,46.6-27.9,71.7-38.2c25.1-10.3,51.2-18.2,77.8-23.4
					c26.6-5.2,53.8-7.7,80.9-7.6c27.1,0.1,54.2,2.8,80.8,8.1c26.6,5.3,52.7,13.3,77.7,23.7c25,10.4,49,23.3,71.5,38.5
					C776.9,196,797.9,213.3,817,232.5z"/>
			</g>
			<g>
				<path class="lign-st0" d="M750.2,299.3c-14.9-14.8-31.1-28.2-48.5-39.9c-17.4-11.7-35.9-21.6-55.3-29.7c-19.3-8.1-39.4-14.3-60-18.4
					c-20.5-4.2-41.5-6.3-62.4-6.4c-41.9-0.3-83.8,7.7-122.6,23.6c-19.4,7.9-38,17.8-55.4,29.4c-17.4,11.6-33.6,25-48.4,39.8
					c-14.8,14.8-28.2,31-39.8,48.4c-11.6,17.4-21.5,36-29.4,55.4c-15.9,38.7-23.9,80.7-23.6,122.6c0.1,20.9,2.2,41.9,6.4,62.4
					c4.1,20.5,10.3,40.6,18.4,60c8,19.3,18,37.9,29.7,55.3c11.7,17.4,25.1,33.6,39.9,48.5c-14.8-14.8-28.3-31-40.1-48.4
					c-11.8-17.4-21.8-35.9-29.9-55.2c-8.1-19.3-14.3-39.5-18.5-60c-4.2-20.6-6.3-41.5-6.5-62.5c-0.3-42,7.6-84,23.5-122.9
					c7.9-19.4,17.8-38.1,29.4-55.5c11.6-17.5,25.1-33.8,39.9-48.6c14.9-14.8,31.1-28.2,48.6-39.9c17.5-11.6,36.1-21.5,55.6-29.4
					c38.9-15.9,80.9-23.9,122.9-23.5c21,0.1,42,2.3,62.5,6.5c20.6,4.2,40.7,10.4,60,18.5c19.3,8.1,37.9,18.2,55.2,29.9
					C719.2,271,735.4,284.4,750.2,299.3z"/>
			</g>
			<g>
				<path class="lign-st0" d="M839.2,210.3c-20.6-20.6-43.2-39.2-67.5-55.4c-24.2-16.2-50.1-30-77-41.1c-26.9-11.1-54.9-19.7-83.5-25.3
					c-28.6-5.7-57.7-8.5-86.8-8.5c-29.1,0-58.3,2.7-86.8,8.4c-28.6,5.6-56.6,14.1-83.5,25.2c-26.9,11.1-52.7,24.9-76.9,41.1
					c-24.2,16.2-46.8,34.8-67.3,55.4c-20.6,20.6-39.2,43.1-55.4,67.3c-16.2,24.2-30,50-41.1,76.9c-11.1,26.9-19.6,54.9-25.2,83.5
					c-5.6,28.6-8.4,57.7-8.4,86.8c0,29.1,2.9,58.3,8.5,86.8c5.7,28.6,14.2,56.6,25.3,83.5c11.1,26.9,24.9,52.8,41.1,77
					c16.2,24.2,34.8,46.8,55.4,67.5c-20.6-20.6-39.3-43.1-55.6-67.3c-16.3-24.2-30.1-50-41.3-76.9c-11.2-26.9-19.8-55-25.5-83.6
					c-5.7-28.6-8.6-57.8-8.6-86.9c-0.1-29.2,2.7-58.4,8.3-87c5.6-28.6,14.1-56.7,25.2-83.7c11.1-27,24.9-52.9,41.1-77.1
					c16.2-24.3,34.9-46.9,55.5-67.5c20.6-20.6,43.3-39.3,67.5-55.5c24.3-16.2,50.1-30,77.1-41.1c27-11.1,55-19.6,83.7-25.2
					c28.6-5.6,57.8-8.4,87-8.3c29.2,0.1,58.3,2.9,86.9,8.6c28.6,5.7,56.6,14.3,83.6,25.5c26.9,11.2,52.7,25.1,76.9,41.3
					C796.1,171,818.7,189.6,839.2,210.3z"/>
			</g>
			<g>
				<path class="lign-st0" d="M772.5,277c-16.3-16.2-34.1-30.9-53.2-43.7c-19.1-12.8-39.5-23.7-60.7-32.5c-21.2-8.8-43.3-15.6-65.9-20.1
					c-22.5-4.5-45.5-6.8-68.5-6.9c-23-0.1-46,2-68.6,6.4c-22.6,4.4-44.7,11-65.9,19.7c-21.3,8.7-41.7,19.6-60.7,32.4
					c-19.1,12.8-36.9,27.5-53.1,43.7c-16.3,16.2-31,34-43.7,53.1c-12.8,19.1-23.6,39.5-32.4,60.7c-8.7,21.3-15.4,43.4-19.7,65.9
					c-4.4,22.6-6.5,45.6-6.4,68.6c0.1,23,2.4,46,6.9,68.5c4.5,22.5,11.3,44.6,20.1,65.9c8.8,21.2,19.7,41.6,32.5,60.7
					c12.8,19.1,27.5,36.9,43.7,53.2c-16.3-16.2-31.1-34-43.9-53.1c-12.9-19.1-23.9-39.4-32.8-60.7c-8.9-21.2-15.7-43.4-20.3-65.9
					c-4.6-22.6-6.9-45.6-7-68.6c-0.1-23,2-46.1,6.3-68.7c4.3-22.6,11-44.8,19.7-66.1c8.7-21.3,19.6-41.8,32.4-60.9
					c12.8-19.2,27.5-37,43.8-53.3c16.3-16.3,34.2-31,53.3-43.8c19.2-12.8,39.6-23.6,60.9-32.4c21.3-8.7,43.5-15.4,66.1-19.7
					c22.6-4.4,45.7-6.4,68.7-6.3c23,0.1,46.1,2.4,68.6,7c22.6,4.6,44.7,11.4,65.9,20.3c21.2,8.9,41.6,19.9,60.7,32.8
					C738.5,246,756.2,260.7,772.5,277z"/>
			</g>
			<g>
				<path class="lign-st0" d="M892.7,156.9c-24.1-24.1-50.5-45.8-78.9-64.7c-28.3-18.9-58.5-35-90-48c-31.5-13-64.2-22.9-97.6-29.5
					c-33.4-6.6-67.4-9.9-101.5-9.8c-34,0-68.1,3.3-101.5,10c-33.4,6.6-66.1,16.6-97.5,29.6c-31.4,13-61.6,29.1-89.9,48.1
					c-28.3,18.9-54.6,40.7-78.7,64.8c-24.1,24.1-45.8,50.4-64.8,78.7c-19,28.3-35.1,58.4-48.1,89.9c-13,31.4-23,64.2-29.6,97.5
					c-6.6,33.4-10,67.4-10,101.5c0,34,3.2,68.1,9.8,101.5c6.6,33.4,16.5,66.1,29.5,97.6c13,31.5,29,61.7,48,90
					c18.9,28.3,40.7,54.7,64.7,78.9c-24.1-24.1-45.9-50.4-64.9-78.7c-19-28.3-35.2-58.5-48.2-89.9c-13-31.5-23-64.2-29.6-97.7
					C7.3,593,4,558.9,4,524.9c0-34.1,3.3-68.2,9.9-101.6c6.6-33.4,16.6-66.2,29.6-97.7c13-31.5,29.1-61.7,48.1-90.1
					c19-28.3,40.7-54.8,64.8-78.9c24.1-24.1,50.6-45.9,78.9-64.8c28.3-19,58.6-35.1,90.1-48.1c31.5-13,64.3-23,97.7-29.6
					c33.4-6.6,67.5-9.9,101.6-9.9c34.1,0,68.2,3.3,101.6,9.9c33.4,6.6,66.2,16.6,97.7,29.6C755.5,56.8,785.6,73,813.9,92
					C842.2,110.9,868.6,132.8,892.7,156.9z"/>
			</g>
			<g>
				<path class="lign-st0" d="M825.9,223.6c-19.8-19.7-41.4-37.5-64.6-53.1c-23.2-15.5-47.9-28.7-73.7-39.4c-25.8-10.7-52.6-18.9-80-24.3
					c-27.4-5.5-55.3-8.2-83.2-8.2c-27.9,0-55.8,2.6-83.2,8c-27.4,5.4-54.2,13.5-80,24.1c-25.8,10.6-50.5,23.8-73.7,39.3
					c-23.2,15.5-44.8,33.4-64.5,53.1c-19.7,19.7-37.6,41.3-53.1,64.5c-15.5,23.2-28.7,47.9-39.3,73.7c-10.6,25.8-18.8,52.6-24.1,80
					c-5.4,27.4-8,55.3-8,83.2c0,27.9,2.8,55.8,8.2,83.2c5.4,27.4,13.6,54.2,24.3,80c10.7,25.8,23.9,50.5,39.4,73.7
					c15.5,23.2,33.4,44.9,53.1,64.6c-19.8-19.7-37.7-41.3-53.3-64.5c-15.6-23.2-28.9-47.9-39.6-73.7c-10.7-25.8-18.9-52.6-24.4-80
					c-5.5-27.4-8.2-55.3-8.3-83.3c-0.1-27.9,2.5-55.9,7.9-83.3c5.4-27.4,13.5-54.3,24.1-80.2c10.6-25.8,23.8-50.6,39.4-73.9
					c15.5-23.2,33.4-44.9,53.1-64.7c19.8-19.8,41.5-37.6,64.7-53.1c23.2-15.5,48-28.7,73.9-39.4c25.8-10.6,52.7-18.7,80.2-24.1
					c27.4-5.4,55.4-8,83.3-7.9c27.9,0.1,55.9,2.8,83.3,8.3c27.4,5.5,54.2,13.7,80,24.4c25.8,10.7,50.5,24,73.7,39.6
					C784.6,186,806.2,203.9,825.9,223.6z"/>
			</g>
			<g>
				<path class="lign-st0" d="M759.1,290.4c-15.4-15.4-32.3-29.3-50.4-41.4c-18.1-12.1-37.4-22.5-57.5-30.8c-20.1-8.4-41-14.8-62.3-19.1
					c-21.3-4.3-43.1-6.5-64.8-6.6c-21.8-0.1-43.5,1.9-64.9,6c-21.4,4.1-42.3,10.4-62.4,18.6c-20.1,8.2-39.4,18.5-57.5,30.6
					c-18.1,12.1-34.9,26-50.3,41.4c-15.4,15.4-29.3,32.2-41.4,50.3c-12.1,18.1-22.4,37.4-30.6,57.5c-8.3,20.1-14.5,41.1-18.6,62.4
					c-4.1,21.4-6.1,43.1-6,64.9c0.1,21.8,2.3,43.5,6.6,64.8c4.3,21.3,10.7,42.2,19.1,62.3c8.3,20.1,18.7,39.4,30.8,57.5
					c12.1,18.1,26,35,41.4,50.4c-15.4-15.4-29.4-32.2-41.6-50.3c-12.2-18-22.6-37.3-31.1-57.4c-8.4-20.1-14.9-41-19.2-62.4
					c-4.3-21.4-6.6-43.2-6.7-65c-0.1-21.8,1.8-43.6,5.9-65c4.1-21.4,10.3-42.4,18.6-62.6c8.2-20.2,18.5-39.6,30.6-57.7
					c12.1-18.1,26-35.1,41.4-50.5c15.4-15.4,32.4-29.3,50.5-41.4c18.1-12.1,37.5-22.4,57.7-30.6c20.2-8.3,41.2-14.5,62.6-18.6
					c21.4-4.1,43.2-6.1,65-5.9c21.8,0.1,43.6,2.3,65,6.7c21.4,4.3,42.3,10.8,62.4,19.2c20.1,8.4,39.4,18.8,57.4,31.1
					C726.9,261,743.8,275,759.1,290.4z"/>
			</g>
			<g>
				<path class="lign-st0" d="M692.4,357.1c-22.2-22.1-48.5-40-77.4-52c-28.8-12.2-60-18.6-91.2-18.8c-31.2-0.3-62.5,5.4-91.5,17.2
					c-14.5,5.9-28.4,13.2-41.3,21.8c-13,8.7-25.1,18.6-36.1,29.7c-11,11-21,23.1-29.7,36.1c-8.7,13-16,26.9-21.8,41.3
					c-11.8,28.9-17.5,60.3-17.2,91.5c0.3,31.2,6.7,62.4,18.8,91.2c12,28.8,29.9,55.2,52,77.4c-22.2-22-40.2-48.3-52.5-77.2
					c-12.2-28.8-18.7-60.1-19.1-91.4c-0.4-31.3,5.3-62.7,17.1-91.8c5.9-14.5,13.2-28.5,21.9-41.5c8.7-13.1,18.7-25.2,29.8-36.3
					c11.1-11.1,23.3-21.1,36.3-29.8c13.1-8.7,27-16,41.5-21.9c29.1-11.7,60.5-17.5,91.8-17.1c31.3,0.3,62.6,6.8,91.4,19.1
					C644.1,316.9,670.3,334.9,692.4,357.1z"/>
			</g>
			<g>
				<path class="lign-st0" d="M848.1,201.4c-21.2-21.2-44.5-40.3-69.4-56.9c-24.9-16.7-51.5-30.8-79.2-42.2c-27.7-11.5-56.5-20.2-85.8-26
					c-29.4-5.8-59.3-8.7-89.3-8.8c-29.9,0-59.9,2.8-89.3,8.6c-29.4,5.8-58.2,14.5-85.8,26c-27.7,11.4-54.2,25.6-79.1,42.3
					c-24.9,16.7-48.1,35.8-69.2,57c-21.2,21.2-40.3,44.4-57,69.2c-16.7,24.9-30.8,51.4-42.3,79.1c-11.4,27.7-20.2,56.5-26,85.8
					c-5.8,29.4-8.7,59.3-8.6,89.3c0,29.9,2.9,59.9,8.8,89.3c5.8,29.4,14.6,58.2,26,85.8c11.4,27.7,25.6,54.2,42.2,79.2
					c16.6,24.9,35.8,48.1,56.9,69.4c-21.2-21.2-40.4-44.4-57.1-69.2c-16.7-24.9-31-51.4-42.5-79.1c-11.5-27.7-20.3-56.5-26.2-85.9
					c-5.9-29.4-8.8-59.4-8.9-89.4c-0.1-30,2.8-60,8.6-89.4c5.8-29.4,14.5-58.3,25.9-86c11.4-27.7,25.6-54.3,42.3-79.3
					c16.7-24.9,35.8-48.2,57-69.4c21.2-21.2,44.5-40.4,69.4-57c24.9-16.7,51.5-30.8,79.3-42.3c27.7-11.4,56.6-20.2,86-25.9
					c29.4-5.8,59.4-8.6,89.4-8.6c30,0,60,3,89.4,8.9c29.4,5.9,58.2,14.7,85.9,26.2c27.7,11.5,54.2,25.8,79.1,42.5
					C803.8,161,827,180.2,848.1,201.4z"/>
			</g>
			<g>
				<path class="lign-st0" d="M781.4,268.1c-16.9-16.8-35.4-32-55.1-45.3c-19.8-13.3-40.9-24.6-62.9-33.7c-22-9.1-44.9-16.2-68.2-20.8
					c-23.3-4.7-47.1-7.1-71-7.1c-23.8-0.1-47.6,2.1-71,6.7c-23.4,4.5-46.3,11.4-68.3,20.5c-22,9-43.1,20.3-62.9,33.5
					c-19.8,13.2-38.2,28.5-55,45.3c-16.8,16.8-32.1,35.3-45.3,55c-13.2,19.8-24.5,40.9-33.5,62.9c-9,22-15.9,44.9-20.5,68.3
					c-4.5,23.4-6.7,47.2-6.7,71c0.1,23.8,2.4,47.6,7.1,71c4.7,23.3,11.7,46.2,20.8,68.2c9.1,22,20.4,43.1,33.7,62.9
					c13.3,19.8,28.5,38.3,45.3,55.1c-16.9-16.8-32.2-35.2-45.5-55c-13.3-19.8-24.7-40.8-33.9-62.8c-9.2-22-16.2-44.9-21-68.3
					c-4.7-23.4-7.1-47.2-7.2-71.1c-0.1-23.8,2.1-47.7,6.6-71.1c4.5-23.4,11.4-46.4,20.4-68.5c9-22.1,20.3-43.3,33.5-63.1
					c13.2-19.8,28.5-38.4,45.3-55.2c16.9-16.9,35.4-32.1,55.2-45.3c19.8-13.2,41-24.5,63.1-33.5c22.1-9,45-15.9,68.5-20.4
					c23.4-4.5,47.3-6.7,71.1-6.6c23.8,0.1,47.7,2.5,71.1,7.2c23.4,4.7,46.3,11.8,68.3,21c22,9.2,43.1,20.6,62.8,33.9
					C746.1,236,764.6,251.3,781.4,268.1z"/>
			</g>
			<g>
				<path class="lign-st0" d="M714.6,334.9c-12.5-12.5-26.2-23.8-40.9-33.6c-14.7-9.9-30.3-18.3-46.6-25.1c-16.3-6.8-33.3-12.1-50.6-15.6
					c-17.3-3.5-35-5.4-52.6-5.5c-17.7-0.1-35.3,1.4-52.7,4.7c-17.4,3.3-34.4,8.3-50.7,15c-16.4,6.7-32,15-46.7,24.8
					c-14.7,9.8-28.4,21.1-40.8,33.6c-12.5,12.5-23.8,26.2-33.6,40.8c-9.8,14.7-18.1,30.4-24.8,46.7c-6.7,16.4-11.7,33.4-15,50.7
					c-3.3,17.4-4.8,35-4.7,52.7c0.1,17.7,2,35.3,5.5,52.6c3.5,17.3,8.8,34.3,15.6,50.6c6.8,16.3,15.2,31.9,25.1,46.6
					c9.9,14.7,21.2,28.4,33.7,40.9c-12.5-12.5-23.9-26.1-33.9-40.8c-9.9-14.6-18.4-30.3-25.3-46.6c-13.8-32.6-21.1-68-21.3-103.4
					c-0.2-17.7,1.4-35.4,4.6-52.8c3.3-17.4,8.3-34.5,14.9-50.9c6.6-16.4,15-32.2,24.8-46.9c9.8-14.8,21.1-28.5,33.7-41
					c12.5-12.5,26.3-23.8,41-33.7c14.7-9.8,30.5-18.1,46.9-24.8c16.4-6.6,33.5-11.7,50.9-14.9c17.4-3.3,35.1-4.8,52.8-4.6
					c35.4,0.3,70.8,7.5,103.4,21.3c16.3,6.9,31.9,15.4,46.6,25.3C688.5,311,702.2,322.4,714.6,334.9z"/>
			</g>
			<g>
				<path class="lign-st0" d="M870.4,179.1c-22.7-22.6-47.5-43-74.1-60.8c-26.6-17.8-55-32.9-84.6-45.1C682.1,61,651.4,51.6,620,45.4
					c-31.4-6.2-63.4-9.3-95.4-9.3c-32,0-64,3.1-95.4,9.3c-31.4,6.2-62.1,15.6-91.7,27.8c-29.6,12.2-57.9,27.4-84.5,45.2
					c-26.6,17.8-51.4,38.3-74,60.9c-22.6,22.6-43.1,47.4-60.9,74c-17.8,26.6-33,54.9-45.2,84.5c-12.2,29.6-21.6,60.3-27.8,91.7
					C39,460.8,36,492.8,36,524.8c0,32,3.1,64,9.3,95.4c6.2,31.4,15.6,62.1,27.8,91.7c12.2,29.6,27.3,58,45.1,84.6
					c17.8,26.6,38.2,51.4,60.8,74.1c-22.7-22.6-43.2-47.4-61-74C100.1,770,84.9,741.6,72.6,712c-12.3-29.6-21.7-60.4-27.9-91.8
					c-6.3-31.4-9.4-63.5-9.4-95.5c0-32,3-64.1,9.2-95.5c6.2-31.4,15.5-62.2,27.8-91.9c12.2-29.6,27.4-58,45.2-84.7
					c17.8-26.6,38.3-51.5,60.9-74.2c22.7-22.6,47.5-43.1,74.2-60.9c26.6-17.8,55-33,84.7-45.2c29.6-12.2,60.4-21.6,91.9-27.8
					c31.4-6.2,63.5-9.3,95.5-9.2c32,0,64.1,3.1,95.5,9.4c31.4,6.2,62.2,15.6,91.8,27.9c29.6,12.3,57.9,27.5,84.5,45.3
					C823,135.9,847.8,156.5,870.4,179.1z"/>
			</g>
			<g>
				<path class="lign-st0" d="M803.6,245.9c-18.3-18.3-38.4-34.8-59.9-49.2c-21.5-14.4-44.4-26.6-68.3-36.5
					c-23.9-9.9-48.7-17.5-74.1-22.6c-25.4-5.1-51.2-7.6-77.1-7.7c-25.9-0.1-51.7,2.4-77.1,7.3c-25.4,5-50.2,12.5-74.1,22.3
					c-23.9,9.8-46.8,22-68.3,36.4c-21.5,14.4-41.5,30.9-59.8,49.2c-18.3,18.3-34.8,38.3-49.2,59.8c-14.4,21.5-26.6,44.4-36.4,68.3
					c-9.8,23.9-17.3,48.8-22.3,74.1c-5,25.4-7.4,51.2-7.3,77.1c0.1,25.9,2.6,51.7,7.7,77.1c5.1,25.4,12.7,50.2,22.6,74.1
					c9.9,23.9,22.1,46.8,36.5,68.3c14.4,21.5,30.9,41.6,49.2,59.9c-18.3-18.3-34.9-38.3-49.4-59.8c-14.5-21.5-26.8-44.4-36.8-68.3
					c-10-23.9-17.6-48.8-22.7-74.2c-5.1-25.4-7.7-51.3-7.8-77.2c-0.1-25.9,2.3-51.8,7.2-77.2c4.9-25.4,12.4-50.4,22.3-74.3
					c9.8-24,22-47,36.4-68.5c14.4-21.5,30.9-41.6,49.2-60c18.3-18.3,38.4-34.9,60-49.2c21.5-14.4,44.5-26.6,68.5-36.4
					c24-9.8,48.9-17.3,74.3-22.3c25.4-4.9,51.3-7.3,77.2-7.2c25.9,0.1,51.8,2.7,77.2,7.8c25.4,5.1,50.3,12.7,74.2,22.7
					c23.9,10,46.8,22.3,68.3,36.8C765.4,211,785.4,227.6,803.6,245.9z"/>
			</g>
			<g>
				<path class="lign-st0" d="M736.9,312.6c-14-13.9-29.3-26.5-45.7-37.4c-16.4-11-33.9-20.3-52.1-27.8c-18.2-7.6-37.1-13.4-56.4-17.2
					c-19.3-3.9-39-5.9-58.7-5.9c-19.7-0.1-39.4,1.7-58.7,5.4c-19.3,3.7-38.3,9.3-56.5,16.8c-18.2,7.4-35.7,16.7-52,27.6
					c-16.4,10.9-31.6,23.5-45.5,37.4c-13.9,13.9-26.5,29.1-37.4,45.5c-10.9,16.4-20.2,33.8-27.6,52c-7.5,18.2-13.1,37.2-16.8,56.5
					c-3.7,19.3-5.5,39-5.4,58.7c0.1,19.7,2,39.4,5.9,58.7c3.9,19.3,9.7,38.2,17.3,56.4c7.5,18.2,16.9,35.7,27.8,52.1
					c11,16.4,23.5,31.7,37.4,45.7c-14-13.9-26.7-29.1-37.8-45.5c-11.1-16.3-20.6-33.8-28.3-52c-7.7-18.2-13.6-37.2-17.6-56.5
					c-4-19.4-6.1-39.1-6.2-58.9c-0.4-39.6,7.1-79.2,22-115.9c7.5-18.3,16.8-35.9,27.7-52.4c11-16.5,23.6-31.8,37.6-45.9
					c14-14,29.4-26.6,45.9-37.6c16.5-11,34.1-20.3,52.4-27.7c36.7-15,76.3-22.5,115.9-22c39.6,0.3,79.1,8.4,115.5,23.8
					c18.2,7.7,35.6,17.2,52,28.3C707.8,285.9,723,298.6,736.9,312.6z"/>
			</g>
			<g>
				<path class="lign-st0" d="M857.1,192.5c-21.8-21.7-45.7-41.4-71.3-58.5c-25.6-17.1-52.9-31.7-81.3-43.4c-28.4-11.8-58-20.8-88.2-26.7
					c-30.2-6-60.9-9-91.7-9c-30.8,0-61.5,2.9-91.7,8.9c-30.2,6-59.8,14.9-88.2,26.7c-28.4,11.7-55.7,26.3-81.2,43.4
					c-25.6,17.1-49.4,36.8-71.1,58.5c-21.7,21.7-41.4,45.6-58.5,71.1c-17.1,25.5-31.7,52.8-43.4,81.2c-11.8,28.4-20.7,58-26.7,88.2
					c-6,30.2-8.9,60.9-8.9,91.7c0,30.8,3,61.5,9,91.7c6,30.2,15,59.8,26.7,88.2c11.7,28.4,26.3,55.7,43.4,81.3
					c17.1,25.6,36.8,49.5,58.5,71.3c-21.8-21.7-41.5-45.6-58.7-71.1c-17.2-25.6-31.8-52.8-43.6-81.3c-11.8-28.4-20.8-58.1-26.9-88.3
					c-6-30.2-9-61-9.1-91.8c0-30.8,2.9-61.6,8.8-91.9c5.9-30.2,14.9-59.9,26.7-88.4c11.7-28.5,26.3-55.8,43.4-81.4
					c17.1-25.6,36.8-49.5,58.6-71.3c21.8-21.8,45.7-41.5,71.3-58.6c25.6-17.1,52.9-31.7,81.4-43.4C372.8,78,402.5,69,432.7,63
					c30.2-6,61.1-8.9,91.9-8.8c30.8,0,61.6,3,91.8,9.1c30.2,6,59.8,15,88.3,26.9c28.4,11.8,55.7,26.4,81.3,43.6
					C811.5,151,835.3,170.7,857.1,192.5z"/>
			</g>
			<g>
				<path class="lign-st0" d="M790.3,259.2c-17.5-17.4-36.6-33.1-57-46.8c-20.5-13.7-42.3-25.4-65.1-34.8c-22.7-9.5-46.4-16.7-70.6-21.5
					c-24.1-4.8-48.8-7.3-73.4-7.3c-24.6-0.1-49.3,2.2-73.4,6.9c-24.2,4.7-47.9,11.8-70.6,21.2c-22.8,9.4-44.6,21-65.1,34.7
					c-20.5,13.7-39.5,29.4-56.9,46.9c-17.4,17.4-33.2,36.5-46.9,56.9c-13.7,20.5-25.3,42.3-34.7,65.1c-9.4,22.8-16.5,46.5-21.2,70.6
					c-4.7,24.2-7,48.8-6.9,73.4c0.1,24.6,2.5,49.2,7.3,73.4c4.8,24.1,12.1,47.8,21.5,70.6c9.4,22.8,21.1,44.6,34.8,65.1
					c13.7,20.5,29.5,39.6,46.8,57C241.6,773,225.8,754,212,733.5c-13.8-20.4-25.5-42.2-35.1-65c-9.5-22.8-16.8-46.5-21.6-70.6
					c-4.9-24.2-7.3-48.8-7.4-73.5c-0.1-24.7,2.2-49.4,6.8-73.6c4.7-24.2,11.8-48,21.2-70.8c9.4-22.8,21-44.7,34.7-65.3
					c13.7-20.5,29.5-39.7,46.9-57.1c17.5-17.4,36.6-33.2,57.1-46.9c20.5-13.7,42.4-25.3,65.3-34.7c22.8-9.4,46.6-16.5,70.8-21.2
					c24.2-4.7,48.9-7,73.6-6.9c24.7,0.1,49.3,2.6,73.5,7.4c24.2,4.9,47.9,12.1,70.6,21.6c22.8,9.5,44.6,21.3,65,35.1
					C753.8,226,772.9,241.8,790.3,259.2z"/>
			</g>
			<g>
				<path class="lign-st0" d="M723.5,326c-13.1-13.1-27.5-24.9-42.8-35.2c-15.4-10.3-31.7-19.1-48.8-26.2c-17.1-7.1-34.8-12.6-52.9-16.3
					c-18.1-3.7-36.6-5.6-55.1-5.7c-18.5-0.1-37,1.5-55.1,5c-18.2,3.5-36,8.7-53.1,15.7c-17.1,7-33.5,15.7-48.9,25.9
					c-15.4,10.3-29.7,22.1-42.7,35.2C311,337.3,299.2,351.6,289,367c-10.3,15.4-19,31.8-25.9,48.9c-7,17.1-12.2,34.9-15.7,53.1
					c-3.5,18.2-5.1,36.7-5,55.1c0.1,18.5,2,37,5.7,55.1c3.7,18.1,9.2,35.9,16.3,52.9c7.1,17.1,15.9,33.4,26.2,48.8
					c10.3,15.4,22.2,29.7,35.2,42.8c-13.1-13.1-25-27.4-35.4-42.7c-10.4-15.3-19.3-31.7-26.5-48.7c-14.4-34.1-22-71.1-22.2-108.2
					c-0.2-18.5,1.5-37.1,4.9-55.3c3.4-18.2,8.7-36.1,15.7-53.3c7-17.2,15.7-33.7,25.9-49.1c10.3-15.4,22.1-29.8,35.2-42.9
					c13.1-13.1,27.5-24.9,42.9-35.2c15.4-10.3,31.9-19,49.1-25.9c17.2-7,35-12.2,53.3-15.7c18.2-3.4,36.8-5,55.3-4.9
					c37.1,0.3,74,7.8,108.2,22.2c17.1,7.2,33.4,16.1,48.7,26.5C696.2,301,710.5,312.9,723.5,326z"/>
			</g>
			<g>
				<path class="lign-st0" d="M879.3,170.2c-23.3-23.2-48.7-44.1-76-62.4c-27.3-18.2-56.4-33.7-86.7-46.2c-30.3-12.5-61.9-22.1-94.1-28.5
					c-32.2-6.4-65-9.5-97.8-9.5c-32.8,0-65.6,3.2-97.8,9.6c-32.2,6.4-63.7,16-94,28.5c-30.3,12.5-59.4,28.1-86.6,46.3
					c-27.3,18.3-52.7,39.2-75.9,62.4c-23.2,23.2-44.2,48.6-62.4,75.9c-18.3,27.2-33.8,56.3-46.3,86.6C49,363.3,39.4,394.8,33,427
					c-6.4,32.2-9.6,65-9.6,97.8c0,32.8,3.1,65.6,9.5,97.8c6.4,32.2,15.9,63.7,28.5,94.1c12.5,30.3,28,59.5,46.2,86.7
					c18.2,27.3,39.2,52.8,62.4,76c-23.2-23.2-44.3-48.6-62.6-75.9c-18.3-27.3-33.9-56.4-46.5-86.7c-12.6-30.3-22.2-61.9-28.6-94.1
					c-6.4-32.2-9.6-65.1-9.6-97.9c0-32.9,3.1-65.7,9.5-98c6.4-32.2,15.9-63.8,28.5-94.2c12.5-30.4,28.1-59.5,46.3-86.8
					c18.3-27.3,39.3-52.8,62.5-76c23.3-23.2,48.7-44.2,76-62.5C273,89,302.1,73.5,332.5,60.9c30.4-12.5,62-22.1,94.2-28.5
					c32.2-6.4,65.1-9.5,98-9.5c32.9,0,65.7,3.2,97.9,9.6c32.2,6.4,63.8,16,94.1,28.6c30.3,12.6,59.4,28.2,86.7,46.5
					C830.7,125.9,856.1,147,879.3,170.2z"/>
			</g>
			<g>
				<path class="lign-st0" d="M812.5,237c-18.9-18.8-39.6-35.9-61.8-50.7c-22.2-14.8-45.8-27.5-70.5-37.7c-24.6-10.2-50.3-18-76.4-23.3
					c-26.2-5.2-52.8-7.8-79.5-7.9c-26.7-0.1-53.4,2.4-79.5,7.6c-26.2,5.1-51.8,12.9-76.5,23c-24.7,10.2-48.3,22.8-70.5,37.6
					c-22.2,14.8-42.8,31.9-61.7,50.8c-18.9,18.8-35.9,39.5-50.7,61.7c-14.8,22.2-27.4,45.8-37.6,70.5c-10.2,24.7-17.9,50.3-23,76.5
					c-5.1,26.2-7.6,52.9-7.6,79.5c0,26.7,2.7,53.3,7.9,79.5c5.2,26.2,13,51.8,23.3,76.4c10.2,24.7,22.8,48.3,37.7,70.5
					c14.8,22.2,31.9,42.9,50.7,61.8c-18.9-18.9-36-39.5-50.9-61.6c-14.9-22.1-27.6-45.8-37.9-70.4c-10.3-24.7-18.1-50.3-23.4-76.5
					c-5.3-26.2-7.9-52.9-8-79.6c-0.1-26.7,2.4-53.4,7.5-79.7c5.1-26.2,12.8-51.9,23-76.7c10.1-24.7,22.8-48.4,37.6-70.6
					c14.8-22.2,31.9-42.9,50.8-61.9c18.9-18.9,39.6-36,61.9-50.8c22.2-14.9,45.9-27.5,70.6-37.6c24.7-10.2,50.4-17.9,76.6-23
					c26.2-5.1,53-7.6,79.7-7.5c26.7,0.1,53.4,2.7,79.6,8c26.2,5.3,51.9,13.1,76.5,23.4c24.6,10.3,48.3,23,70.4,37.9
					C773,201,793.7,218.1,812.5,237z"/>
			</g>
			<g>
				<path class="lign-st0" d="M745.8,303.7c-14.6-14.5-30.5-27.6-47.6-39.1c-17.1-11.5-35.2-21.2-54.2-29.1c-19-7.9-38.7-14-58.8-18.1
					c-20.1-4.1-40.7-6.2-61.2-6.3c-41.1-0.3-82.2,7.5-120.2,23.1c-19,7.8-37.2,17.4-54.3,28.9c-17.1,11.4-33,24.5-47.5,39.1
					c-14.5,14.5-27.6,30.4-39.1,47.5C251.7,366.8,242,385,234.2,404c-15.6,38-23.4,79.1-23.1,120.2c0.1,20.5,2.2,41.1,6.3,61.2
					c4.1,20.1,10.1,39.8,18.1,58.8c7.9,19,17.6,37.2,29.1,54.2c11.4,17.1,24.6,33,39.1,47.6c-14.6-14.5-27.8-30.4-39.3-47.4
					c-11.5-17-21.4-35.2-29.3-54.2c-8-19-14.1-38.7-18.2-58.9c-4.1-20.2-6.2-40.7-6.4-61.3c-0.3-41.1,7.4-82.4,23-120.5
					c7.8-19.1,17.4-37.3,28.9-54.5c11.4-17.1,24.6-33.1,39.1-47.7c14.6-14.5,30.5-27.7,47.7-39.1c17.1-11.4,35.4-21.1,54.5-28.9
					c38.1-15.6,79.3-23.4,120.5-23c20.6,0.1,41.1,2.2,61.3,6.4c20.2,4.1,39.9,10.2,58.9,18.2c19,8,37.1,17.8,54.2,29.3
					C715.4,276,731.3,289.2,745.8,303.7z"/>
			</g>
			<g>
				<path class="lign-st0" d="M834.8,214.7c-20.4-20.3-42.7-38.6-66.6-54.5c-23.9-15.9-49.4-29.5-75.9-40.4c-26.5-11-54.1-19.3-82.3-24.9
					c-28.2-5.6-56.9-8.3-85.5-8.3c-28.7,0-57.4,2.7-85.5,8.3c-28.1,5.5-55.7,13.9-82.2,24.8c-26.5,10.9-51.9,24.5-75.8,40.5
					c-23.8,16-46,34.3-66.3,54.6C194.3,235,176,257.3,160,281.1c-16,23.8-29.5,49.2-40.5,75.8c-11,26.5-19.3,54.1-24.8,82.2
					c-5.5,28.1-8.3,56.8-8.3,85.5c0,28.7,2.8,57.4,8.3,85.5c5.6,28.2,13.9,55.8,24.9,82.3c10.9,26.5,24.5,52,40.4,75.9
					c15.9,23.9,34.3,46.2,54.5,66.6c-20.4-20.3-38.8-42.5-54.9-66.3c-16.1-23.8-29.8-49.3-40.9-75.8c-11.1-26.6-19.6-54.2-25.2-82.4
					c-5.7-28.2-8.5-57-8.6-85.8c-0.1-28.8,2.6-57.6,8.1-85.9c5.5-28.3,13.9-56,24.9-82.6c11-26.6,24.6-52.2,40.6-76.1
					c16-24,34.4-46.3,54.8-66.7c20.4-20.4,42.7-38.8,66.7-54.8c23.9-16,49.5-29.6,76.1-40.6c26.6-11,54.3-19.3,82.6-24.9
					c28.3-5.6,57.1-8.2,85.9-8.1c28.8,0.1,57.6,2.9,85.8,8.6c28.2,5.7,55.9,14.1,82.4,25.2c26.5,11.1,52,24.8,75.8,40.9
					C792.3,175.9,814.5,194.4,834.8,214.7z"/>
			</g>
			<g>
				<path class="lign-st0" d="M768,281.5c-16-15.9-33.6-30.3-52.4-42.9c-18.8-12.5-38.8-23.2-59.7-31.8c-20.8-8.6-42.5-15.3-64.7-19.7
					c-22.1-4.4-44.7-6.6-67.2-6.7c-22.6-0.1-45.1,2-67.2,6.3c-22.1,4.3-43.8,10.8-64.7,19.3c-20.9,8.5-40.9,19.2-59.6,31.7
					c-18.7,12.5-36.2,26.9-52.1,42.9c-15.9,15.9-30.4,33.4-42.9,52.1c-12.5,18.7-23.2,38.7-31.7,59.6c-8.6,20.9-15.1,42.5-19.3,64.7
					c-4.3,22.1-6.4,44.7-6.3,67.2c0.1,22.6,2.3,45.1,6.7,67.2c4.4,22.1,11,43.8,19.7,64.7c8.6,20.9,19.3,40.9,31.8,59.7
					c12.5,18.8,26.9,36.3,42.9,52.4c-16-15.9-30.6-33.4-43.3-52.1c-12.7-18.7-23.5-38.7-32.3-59.6c-8.8-20.9-15.5-42.6-20-64.8
					c-4.5-22.2-6.9-44.8-7-67.5c-0.4-45.3,8.3-90.7,25.5-132.6c8.6-21,19.2-41.1,31.8-60c12.6-18.9,27.1-36.4,43.1-52.5
					c16-16,33.6-30.5,52.5-43.1c18.9-12.6,39-23.3,60-31.8c41.9-17.2,87.3-25.9,132.6-25.5c22.6,0.1,45.3,2.5,67.5,7
					c22.2,4.5,43.9,11.2,64.8,20c20.9,8.8,40.8,19.6,59.6,32.3C734.7,250.9,752.1,265.4,768,281.5z"/>
			</g>
			<g>
				<path class="lign-st0" d="M701.3,348.2c-23.3-23.2-51.1-42-81.4-54.7c-30.3-12.8-63.1-19.5-96-19.7c-32.9-0.3-65.8,5.8-96.3,18.2
					c-15.2,6.2-29.8,13.9-43.5,23c-13.7,9.1-26.4,19.6-38,31.3c-11.6,11.6-22.1,24.3-31.3,38c-9.1,13.7-16.8,28.3-23,43.5
					c-12.4,30.5-18.5,63.4-18.2,96.3c0.2,32.9,7,65.7,19.7,96c12.7,30.4,31.5,58.1,54.7,81.4c-11.7-11.6-22.3-24.3-31.5-37.9
					c-9.3-13.6-17.2-28.1-23.6-43.3c-12.9-30.3-19.7-63.2-20-96.2c-0.4-33,5.7-66,18.1-96.6c6.2-15.3,13.9-30,23-43.7
					c9.1-13.7,19.7-26.5,31.3-38.2c11.7-11.7,24.5-22.2,38.2-31.3c13.7-9.1,28.4-16.9,43.7-23c30.6-12.4,63.6-18.5,96.6-18.1
					c33,0.3,65.9,7.1,96.2,20c15.2,6.4,29.7,14.4,43.3,23.6C677,326,689.7,336.6,701.3,348.2z"/>
			</g>
			<g>
				<path class="lign-st0" d="M888.2,161.3c-23.8-23.8-49.9-45.2-77.9-63.9c-28-18.7-57.8-34.6-88.9-47.4C690.3,37.2,658,27.3,625,20.8
					c-33-6.5-66.6-9.8-100.3-9.7c-33.6,0-67.3,3.3-100.2,9.8c-33,6.5-65.3,16.4-96.4,29.3C297,63,267.2,79,239.3,97.7
					c-27.9,18.7-54,40.2-77.7,64c-23.8,23.8-45.3,49.8-64,77.7c-18.7,27.9-34.7,57.7-47.5,88.8c-12.9,31.1-22.7,63.4-29.3,96.4
					c-6.6,33-9.8,66.6-9.8,100.2c0,33.6,3.2,67.3,9.7,100.3c6.5,33,16.3,65.3,29.2,96.4c12.8,31.1,28.7,60.9,47.4,88.9
					c18.7,28,40.2,54.1,63.9,77.9c-23.8-23.8-45.4-49.8-64.1-77.8c-18.8-27.9-34.7-57.8-47.6-88.9c-12.9-31.1-22.7-63.5-29.3-96.5
					c-6.6-33-9.8-66.7-9.8-100.4c0-33.7,3.2-67.4,9.8-100.4c6.5-33,16.4-65.4,29.2-96.5c12.9-31.1,28.8-61,47.5-89
					c18.7-28,40.3-54.1,64.1-77.9c23.8-23.8,49.9-45.3,77.9-64.1c28-18.7,57.9-34.7,89-47.5c31.1-12.9,63.5-22.7,96.5-29.2
					c33-6.5,66.7-9.8,100.4-9.8c33.7,0,67.3,3.3,100.4,9.8c33,6.6,65.4,16.4,96.5,29.3c31.1,12.9,60.9,28.9,88.9,47.6
					C838.4,115.9,864.4,137.5,888.2,161.3z"/>
			</g>
			<g>
				<path class="lign-st0" d="M821.4,228.1c-19.5-19.4-40.8-37-63.7-52.3c-22.9-15.3-47.2-28.3-72.6-38.8c-25.4-10.5-51.8-18.6-78.8-24
					c-27-5.4-54.5-8.1-81.9-8.1c-27.5,0-55,2.5-82,7.8c-27,5.3-53.4,13.3-78.8,23.8C338.2,147,313.8,160,291,175.3
					c-22.8,15.3-44.1,32.9-63.6,52.3c-19.4,19.4-37,40.7-52.3,63.6c-15.3,22.8-28.3,47.2-38.8,72.6c-10.5,25.4-18.5,51.8-23.8,78.8
					c-5.3,27-7.9,54.5-7.8,82c0,27.5,2.7,55,8.1,81.9c5.4,27,13.4,53.4,24,78.8c10.5,25.4,23.5,49.8,38.8,72.6
					c15.3,22.9,32.9,44.2,52.3,63.7c-19.5-19.4-37.1-40.7-52.5-63.5c-15.4-22.8-28.5-47.2-39.1-72.6c-10.6-25.4-18.7-51.9-24.1-78.9
					c-5.4-27-8.1-54.5-8.2-82.1c-0.1-27.5,2.5-55.1,7.8-82.1c5.3-27,13.3-53.5,23.7-79c10.5-25.5,23.5-49.9,38.8-72.8
					c15.3-22.9,32.9-44.3,52.4-63.7c19.5-19.5,40.8-37.1,63.7-52.4c22.9-15.3,47.3-28.3,72.8-38.8c25.5-10.5,52-18.5,79-23.7
					c27-5.3,54.6-7.8,82.1-7.8c27.5,0.1,55.1,2.8,82.1,8.2c27,5.4,53.4,13.5,78.9,24.1c25.4,10.6,49.8,23.7,72.6,39.1
					C780.7,191,802,208.6,821.4,228.1z"/>
			</g>
			<g>
				<path class="lign-st0" d="M754.7,294.8c-15.1-15.1-31.7-28.7-49.5-40.6c-17.7-11.9-36.7-22-56.4-30.2c-19.7-8.2-40.2-14.5-61.1-18.7
					c-20.9-4.2-42.3-6.4-63.6-6.5c-42.7-0.2-85.5,7.9-124.9,24.1c-19.8,8.1-38.7,18.2-56.4,30c-17.7,11.9-34.3,25.5-49.4,40.6
					c-15.1,15.1-28.8,31.6-40.6,49.4c-11.9,17.7-21.9,36.7-30,56.4c-16.3,39.5-24.4,82.2-24.1,124.9c0.1,21.3,2.2,42.7,6.5,63.6
					c4.2,20.9,10.5,41.4,18.7,61.2c8.2,19.7,18.3,38.6,30.2,56.4c11.9,17.7,25.6,34.3,40.6,49.5c-15.1-15.1-28.9-31.6-40.8-49.3
					c-12-17.7-22.2-36.6-30.5-56.3c-8.3-19.7-14.6-40.3-18.9-61.2c-4.3-21-6.4-42.3-6.6-63.7c-0.3-42.8,7.8-85.7,24-125.3
					c8.1-19.8,18.2-38.8,30-56.6c11.9-17.8,25.5-34.4,40.7-49.6c15.1-15.1,31.7-28.8,49.6-40.7c17.8-11.9,36.8-21.9,56.6-30
					c39.6-16.2,82.5-24.3,125.3-24c21.4,0.1,42.8,2.3,63.7,6.6c21,4.3,41.5,10.6,61.2,18.9c19.7,8.3,38.6,18.5,56.3,30.5
					C723.1,266,739.6,279.7,754.7,294.8z"/>
			</g>
			<g>
				<path class="lign-st0" d="M843.7,205.8c-20.9-20.9-43.9-39.7-68.4-56.2c-24.6-16.4-50.8-30.4-78.1-41.7
					c-27.3-11.3-55.7-19.9-84.7-25.7c-29-5.8-58.5-8.6-88-8.7c-29.5,0-59.1,2.8-88.1,8.5c-29,5.7-57.4,14.3-84.7,25.6
					c-27.3,11.3-53.5,25.2-78,41.7c-24.5,16.4-47.4,35.3-68.3,56.2c-20.9,20.9-39.8,43.7-56.2,68.3c-16.4,24.5-30.4,50.7-41.7,78
					c-11.3,27.3-19.9,55.7-25.6,84.7c-5.7,29-8.5,58.5-8.5,88.1c0,29.5,2.9,59.1,8.7,88c5.8,29,14.4,57.4,25.7,84.7
					c11.3,27.3,25.2,53.5,41.7,78.1c16.4,24.6,35.3,47.5,56.2,68.4c-20.9-20.9-39.9-43.8-56.4-68.3c-16.5-24.5-30.6-50.7-41.9-78
					c-11.4-27.3-20-55.7-25.8-84.7c-5.8-29-8.7-58.6-8.7-88.2c-0.1-29.6,2.7-59.2,8.4-88.2c5.7-29,14.3-57.5,25.6-84.8
					c11.3-27.4,25.2-53.6,41.7-78.2c16.4-24.6,35.4-47.5,56.3-68.5c20.9-20.9,43.9-39.8,68.5-56.3c24.6-16.5,50.8-30.4,78.2-41.7
					c27.4-11.3,55.8-19.9,84.8-25.6c29-5.7,58.6-8.5,88.2-8.4c29.6,0,59.2,3,88.2,8.7c29,5.8,57.4,14.5,84.7,25.8
					c27.3,11.4,53.5,25.4,78,41.9C799.9,166,822.8,184.9,843.7,205.8z"/>
			</g>
			<g>
				<path class="lign-st0" d="M776.9,272.6c-16.6-16.5-34.7-31.5-54.2-44.5c-19.4-13-40.2-24.1-61.8-33.1c-21.6-9-44.1-15.9-67-20.5
					c-22.9-4.6-46.3-6.9-69.7-7c-23.4-0.1-46.8,2.1-69.8,6.5c-23,4.4-45.5,11.2-67.1,20.1c-21.6,8.9-42.4,19.9-61.8,32.9
					c-19.4,13-37.6,28-54.1,44.5c-16.5,16.5-31.5,34.6-44.5,54.1c-13,19.4-24.1,40.2-32.9,61.8c-8.9,21.6-15.7,44.1-20.1,67.1
					c-4.5,23-6.6,46.4-6.5,69.8c0.1,23.4,2.4,46.8,7,69.7c4.6,22.9,11.5,45.4,20.5,67c9,21.6,20.1,42.4,33.1,61.8
					c13,19.5,28,37.6,44.5,54.2c-16.6-16.5-31.6-34.6-44.7-54.1c-13.1-19.4-24.3-40.1-33.3-61.7c-9-21.6-16-44.1-20.6-67.1
					c-4.6-23-7-46.4-7.1-69.8c-0.1-23.4,2-46.9,6.5-69.9c4.4-23,11.2-45.6,20.1-67.3c8.9-21.7,19.9-42.5,32.9-62
					c13-19.5,28-37.7,44.6-54.3c16.6-16.6,34.8-31.6,54.3-44.6c19.5-13,40.3-24.1,62-32.9c21.7-8.9,44.3-15.6,67.3-20.1
					c23-4.4,46.5-6.6,69.9-6.5c23.4,0.1,46.9,2.5,69.8,7.1c23,4.6,45.5,11.6,67.1,20.6c21.6,9,42.3,20.2,61.7,33.3
					C742.3,241,760.4,256,776.9,272.6z"/>
			</g>
			<g>
				<path class="lign-st0" d="M710.2,339.3c-12.3-12.2-25.6-23.2-40-32.9c-14.3-9.6-29.6-17.9-45.5-24.5c-15.9-6.7-32.5-11.8-49.4-15.3
					c-16.9-3.5-34.2-5.3-51.4-5.4c-34.5-0.3-69.1,6.1-101.1,19.2c-16,6.5-31.3,14.6-45.7,24.2c-14.3,9.6-27.7,20.6-39.9,32.8
					c-12.2,12.2-23.2,25.6-32.8,39.9c-9.6,14.3-17.7,29.7-24.2,45.6c-13,32-19.5,66.5-19.2,101.1c0.2,34.5,7.3,69,20.7,100.8
					c6.7,15.9,14.9,31.2,24.5,45.5c9.6,14.3,20.7,27.7,32.9,40c-12.2-12.2-23.4-25.5-33.1-39.8c-9.7-14.3-18-29.6-24.8-45.5
					c-13.5-31.9-20.6-66.4-20.9-101c-0.2-17.3,1.3-34.6,4.5-51.6c3.2-17,8.1-33.7,14.6-49.7c6.5-16,14.6-31.4,24.2-45.8
					c9.6-14.4,20.6-27.8,32.9-40.1c12.3-12.2,25.7-23.3,40.1-32.9c14.4-9.6,29.8-17.7,45.8-24.2c32.1-13,66.8-19.4,101.4-19.1
					c34.6,0.3,69.1,7.4,101,20.9c15.9,6.7,31.2,15.1,45.5,24.8C684.7,316,698,327.1,710.2,339.3z"/>
			</g>
			<g>
				<path class="lign-st0" d="M866,183.6c-22.4-22.3-46.9-42.4-73.2-59.9c-26.3-17.5-54.3-32.4-83.5-44.4c-29.2-12-59.5-21.2-90.5-27.3
					c-31-6.1-62.5-9.1-94.1-9.1c-31.6,0-63.1,3.1-94.1,9.2c-30.9,6.1-61.3,15.3-90.4,27.4c-29.2,12-57.1,27-83.3,44.5
					c-26.2,17.6-50.6,37.7-72.9,60c-22.3,22.3-42.5,46.7-60,72.9c-17.6,26.2-32.5,54.2-44.5,83.3c-12.1,29.1-21.3,59.5-27.4,90.4
					c-6.1,30.9-9.2,62.5-9.2,94.1c0,31.6,3,63.1,9.1,94.1c6.1,31,15.3,61.3,27.3,90.5c12,29.2,26.9,57.2,44.4,83.5
					c17.5,26.3,37.7,50.8,59.9,73.2c-22.4-22.3-42.7-46.7-60.4-73c-17.7-26.2-32.7-54.2-44.9-83.4c-12.2-29.2-21.5-59.6-27.7-90.6
					c-6.2-31-9.3-62.7-9.4-94.3c0-15.8,0.7-31.7,2.2-47.4c1.5-15.8,3.8-31.4,6.9-47c6.1-31.1,15.3-61.5,27.4-90.8
					c12.1-29.3,27-57.4,44.6-83.7c17.6-26.3,37.8-50.9,60.2-73.3c22.4-22.4,47-42.6,73.3-60.2c26.3-17.6,54.4-32.6,83.7-44.6
					c29.3-12.1,59.7-21.3,90.8-27.4c31.1-6.1,62.7-9.1,94.4-9.1c31.7,0.1,63.3,3.2,94.3,9.4c31,6.2,61.4,15.5,90.6,27.7
					c29.2,12.2,57.2,27.2,83.4,44.9C819.2,140.9,843.7,161.2,866,183.6z"/>
			</g>
			<g>
				<path class="lign-st0" d="M799.2,250.3c-18.1-17.9-37.8-34.2-59-48.3c-21.2-14.1-43.7-26.1-67.2-35.8c-23.5-9.7-47.9-17.2-72.9-22.1
					c-24.9-5-50.4-7.4-75.8-7.5c-25.4,0-50.8,2.4-75.8,7.2c-24.9,4.9-49.4,12.2-72.9,21.9c-23.5,9.7-46,21.7-67.1,35.8
					c-21.1,14.1-40.8,30.4-58.7,48.4c-18,18-34.2,37.6-48.4,58.7c-14.1,21.1-26.1,43.6-35.8,67.1c-9.7,23.5-17,47.9-21.9,72.9
					c-4.9,24.9-7.3,50.4-7.2,75.8c0,25.4,2.5,50.8,7.5,75.8c5,24.9,12.4,49.4,22.1,72.9c9.7,23.5,21.7,46.1,35.8,67.2
					c14.1,21.2,30.4,40.9,48.3,59c-18.1-18-34.4-37.6-48.7-58.7c-14.3-21.1-26.5-43.6-36.3-67.1c-9.8-23.5-17.4-48-22.4-73
					c-5.1-25-7.6-50.5-7.8-76c-0.1-25.5,2.2-51.1,7.1-76.1c4.9-25.1,12.2-49.6,21.9-73.2c9.7-23.6,21.7-46.3,35.9-67.5
					c14.2-21.2,30.5-41,48.5-59.1c18.1-18,37.9-34.4,59.1-48.5c21.2-14.2,43.9-26.2,67.5-35.9c23.6-9.7,48.2-17.1,73.2-21.9
					c25.1-4.9,50.6-7.2,76.1-7.1c25.5,0.1,51,2.7,76,7.8c25,5.1,49.5,12.6,73,22.5c23.5,9.9,46,22,67.1,36.3
					C761.6,215.9,781.2,232.3,799.2,250.3z"/>
			</g>
			<g>
				<path class="lign-st0" d="M732.4,317.1c-13.7-13.6-28.7-26-44.7-36.8c-16-10.8-33.1-20-51-27.4c-17.8-7.4-36.4-13.2-55.3-17
					c-18.9-3.8-38.2-5.8-57.5-5.9c-38.6-0.3-77.3,7-113,21.7c-17.9,7.3-35,16.4-51,27.1c-16,10.7-31,23.1-44.6,36.7
					c-13.6,13.6-26,28.6-36.7,44.6c-10.7,16-19.8,33.2-27.1,51c-14.6,35.7-21.9,74.4-21.7,113c0.1,19.3,2.1,38.6,5.9,57.5
					c3.8,18.9,9.6,37.5,17,55.3c7.4,17.8,16.6,34.9,27.4,51c10.8,16,23.1,31,36.8,44.7C303.2,719,290.8,704,280,688
					c-10.9-16-20.1-33.1-27.6-50.9c-15-35.7-22.9-74.3-23.2-113c-0.2-19.3,1.5-38.7,5.2-57.7c3.6-19,9.1-37.7,16.4-55.6
					c7.3-17.9,16.4-35.1,27.1-51.2c10.7-16.1,23.1-31.1,36.8-44.8c13.7-13.7,28.7-26,44.8-36.8c16.1-10.7,33.3-19.8,51.2-27.1
					c17.9-7.3,36.6-12.8,55.6-16.4c19-3.6,38.4-5.3,57.7-5.2c38.7,0.2,77.3,8.1,113,23.2c17.8,7.5,34.9,16.8,50.9,27.6
					C703.9,291,718.8,303.4,732.4,317.1z"/>
			</g>
		</g>
	</g>
</g>
</svg>
