<?xml version="1.0" encoding="utf-8"?>
<!-- Generator: Adobe Illustrator 21.1.0, SVG Export Plug-In . SVG Version: 6.00 Build 0)  -->
<svg version="1.1" xmlns="http://www.w3.org/2000/svg" xmlns:xlink="http://www.w3.org/1999/xlink" x="0px" y="0px"
	 viewBox="0 0 1050 1050" style="enable-background:new 0 0 1050 1050;" xml:space="preserve">
<style type="text/css">
	.lign_copy-st0{display:none;}
	.lign_copy-st1{display:inline;}
	.lign_copy-st2{fill:none;stroke:#000000;stroke-width:4;stroke-miterlimit:10;}
</style>
<g id="lign" class="lign_copy-st0">
	<g class="lign_copy-st1">
		<g>
			<g>
				<path d="M525.5,1037.7c-33.7,0-67.4-3.2-100.5-9.7c-33.1-6.5-65.5-16.3-96.6-29.2c-62.3-25.7-119.4-63.9-167.1-111.6
					c-47.7-47.6-86-104.7-111.8-167c-25.9-62.3-39-129.8-39-197.2c0-33.7,3.3-67.4,9.9-100.5c6.5-33.1,16.4-65.5,29.3-96.6
					c25.8-62.3,64.1-119.4,111.8-167c47.7-47.6,104.7-85.9,167-111.7C359.5,34.3,392,24.5,425,17.9c33.1-6.5,66.8-9.8,100.5-9.8
					c33.7,0,67.4,3.2,100.5,9.8c33.1,6.5,65.5,16.3,96.7,29.2c31.2,12.9,61,28.9,89.1,47.6c28,18.7,54.2,40.2,78.1,64.1
					c47.7,47.7,86,104.8,111.7,167.1c12.9,31.2,22.7,63.6,29.3,96.7c6.5,33.1,9.8,66.8,9.8,100.5c0,67.4-13.2,134.9-39.1,197.2
					c-25.8,62.3-64.1,119.4-111.8,167c-47.7,47.6-104.8,85.8-167.1,111.6c-31.1,12.9-63.6,22.7-96.6,29.2
					C592.9,1034.5,559.2,1037.7,525.5,1037.7z M525.5,1037.6c33.7,0,67.4-3.3,100.4-9.9c33-6.5,65.4-16.4,96.5-29.3
					c62.2-25.8,119.3-64,166.8-111.7c47.6-47.6,85.7-104.7,111.4-166.9c12.8-31.1,22.6-63.5,29.2-96.5c6.5-33,9.8-66.7,9.8-100.3
					c0-33.7-3.3-67.3-9.8-100.3c-6.5-33-16.3-65.4-29.2-96.5c-25.7-62.2-63.9-119.2-111.5-166.8c-47.6-47.6-104.6-85.8-166.8-111.6
					c-31.1-12.9-63.5-22.7-96.5-29.2c-33-6.5-66.7-9.8-100.4-9.9c-33.7,0-67.4,3.2-100.4,9.8c-33,6.5-65.4,16.3-96.6,29.2
					c-31.1,12.9-61,28.8-89,47.5c-28,18.7-54.1,40.2-78,64c-47.6,47.6-85.8,104.7-111.5,167c-12.9,31.1-22.6,63.5-29.2,96.5
					c-6.5,33-9.8,66.7-9.8,100.4c0,33.7,3.3,67.3,9.8,100.4c6.5,33,16.3,65.4,29.2,96.5c25.7,62.2,63.8,119.3,111.4,166.9
					c47.6,47.7,104.6,85.9,166.8,111.7c31.1,12.9,63.5,22.7,96.5,29.3C458.1,1034.3,491.8,1037.6,525.5,1037.6z"/>
			</g>
			<g>
				<path d="M1032.7,523c0-33.2-3.3-66.4-9.7-99c-6.4-32.6-16.1-64.5-28.8-95.2c-25.4-61.4-63.1-117.5-110.1-164.4
					c-47-46.9-103.2-84.5-164.5-109.8c-30.7-12.7-62.6-22.3-95.1-28.8c-32.6-6.4-65.7-9.7-98.9-9.7c-33.2,0-66.4,3.2-98.9,9.6
					c-32.6,6.4-64.5,16.1-95.2,28.7c-61.4,25.3-117.6,63-164.6,109.9c-23.5,23.5-44.7,49.2-63.1,76.8c-18.4,27.6-34.2,57-46.9,87.7
					c-12.7,30.7-22.3,62.6-28.8,95.2c-6.4,32.6-9.6,65.8-9.6,99c0,33.2,3.3,66.4,9.7,98.9c6.4,32.6,16.1,64.5,28.8,95.1
					c25.4,61.3,63.1,117.5,110,164.4c46.9,46.9,103.1,84.6,164.4,109.9c30.7,12.7,62.6,22.3,95.1,28.8c32.5,6.4,65.7,9.6,98.9,9.6
					c33.2,0,66.4-3.2,98.9-9.7c32.5-6.4,64.5-16.1,95.1-28.7c61.3-25.3,117.6-62.9,164.5-109.8c47-46.9,84.7-103.1,110.1-164.4
					c12.7-30.7,22.4-62.6,28.9-95.2C1029.5,589.4,1032.7,556.2,1032.7,523z M1032.8,523c0,33.2-3.2,66.4-9.6,99
					c-6.4,32.6-16.1,64.5-28.7,95.2c-25.4,61.4-63,117.7-110,164.7c-47,47-103.2,84.8-164.6,110.2c-61.4,25.6-127.9,38.5-194.4,38.5
					c-33.2,0-66.5-3.2-99.1-9.7c-32.6-6.4-64.6-16.1-95.3-28.8c-61.4-25.4-117.7-63.1-164.7-110.1c-23.5-23.5-44.7-49.3-63.2-77
					c-18.5-27.6-34.2-57.1-46.9-87.8c-12.7-30.7-22.4-62.7-28.8-95.3c-6.4-32.6-9.6-65.8-9.6-99.1c0-33.2,3.3-66.5,9.7-99
					c6.4-32.6,16.1-64.5,28.8-95.2c25.4-61.4,63.1-117.6,110.1-164.6c47-47,103.2-84.7,164.6-110.2c30.7-12.7,62.7-22.4,95.2-28.9
					c32.6-6.5,65.8-9.7,99.1-9.7c66.5,0,133,12.9,194.4,38.5C781.3,79.2,837.5,117,884.5,164c47,47,84.6,103.3,110,164.7
					c12.7,30.7,22.3,62.7,28.8,95.2C1029.7,456.6,1032.8,489.8,1032.8,523z"/>
			</g>
			<g>
				<path d="M525.5,1023c-32.7,0-65.5-3.1-97.6-9.5c-32.1-6.3-63.6-15.8-93.9-28.3c-60.5-25-116-62.1-162.3-108.4
					c-46.4-46.3-83.5-101.7-108.6-162.2C37.9,654.1,25.1,588.5,25.2,523c0-32.8,3.2-65.5,9.6-97.6c6.4-32.1,15.9-63.6,28.4-93.9
					c25.1-60.5,62.2-116,108.6-162.2C218.1,123,273.5,85.8,334,60.8c30.2-12.5,61.7-22.1,93.9-28.4c32.1-6.4,64.9-9.5,97.6-9.6
					c32.7,0,65.5,3.1,97.6,9.5c32.1,6.3,63.6,15.8,93.9,28.4c30.3,12.5,59.3,28,86.5,46.2c27.2,18.2,52.7,39.1,75.8,62.2
					c46.3,46.3,83.5,101.8,108.6,162.3c12.5,30.3,22.1,61.8,28.4,93.9c6.4,32.1,9.5,64.9,9.5,97.7c0,65.5-12.8,131.1-38,191.6
					c-25.1,60.5-62.3,116-108.7,162.2C833,923.1,777.5,960.2,717,985.2c-30.3,12.5-61.8,22-93.9,28.3
					C591,1019.9,558.2,1023,525.5,1023z M525.5,1022.9c32.7,0,65.4-3.2,97.5-9.6c32.1-6.4,63.6-15.9,93.8-28.4
					c60.5-25,115.8-62.2,162.1-108.5c46.2-46.3,83.3-101.7,108.2-162.2c12.5-30.2,22-61.7,28.3-93.7c6.3-32.1,9.5-64.8,9.5-97.5
					c0-32.7-3.2-65.4-9.5-97.5c-6.3-32.1-15.8-63.5-28.3-93.7c-25-60.4-62.1-115.8-108.3-162.1c-46.2-46.2-101.6-83.4-162-108.4
					c-30.2-12.5-61.7-22.1-93.7-28.4c-32.1-6.4-64.8-9.5-97.5-9.6c-32.7,0-65.4,3.2-97.5,9.5c-32.1,6.3-63.6,15.8-93.8,28.3
					c-30.2,12.5-59.2,28-86.4,46.2c-27.2,18.2-52.6,39.1-75.7,62.2c-46.3,46.3-83.3,101.7-108.3,162.2c-12.5,30.2-22,61.7-28.3,93.8
					c-6.3,32.1-9.5,64.8-9.5,97.5c0,32.7,3.2,65.4,9.6,97.5c6.4,32.1,15.9,63.5,28.4,93.7c25,60.5,62,115.9,108.3,162.2
					c46.2,46.3,101.6,83.4,162.1,108.5c30.2,12.5,61.7,22.1,93.8,28.4C460.1,1019.7,492.8,1022.9,525.5,1022.9z"/>
			</g>
			<g>
				<path d="M1018,523c0-32.2-3.2-64.5-9.4-96.1c-6.3-31.6-15.7-62.6-28-92.4c-24.7-59.6-61.3-114.1-106.9-159.7
					c-45.6-45.6-100.2-82.1-159.8-106.7c-29.8-12.3-60.8-21.7-92.4-27.9c-31.6-6.3-63.8-9.4-96.1-9.4c-32.2,0-64.5,3.1-96.1,9.3
					C397.8,46.3,366.8,55.7,337,68c-59.6,24.6-114.2,61.1-159.8,106.7c-22.8,22.8-43.4,47.8-61.3,74.6
					c-17.9,26.8-33.2,55.4-45.5,85.2c-12.3,29.8-21.7,60.8-27.9,92.4c-6.2,31.6-9.3,63.9-9.3,96.1c0,32.2,3.2,64.5,9.4,96.1
					c6.3,31.6,15.6,62.6,28,92.4c24.7,59.5,61.2,114.1,106.8,159.6c45.6,45.6,100.1,82.1,159.7,106.7c29.8,12.3,60.8,21.7,92.4,27.9
					c31.6,6.2,63.8,9.4,96,9.4c32.2,0,64.4-3.1,96-9.4c31.6-6.2,62.6-15.6,92.4-27.9c59.6-24.6,114.2-61.1,159.8-106.6
					c45.6-45.5,82.2-100.1,106.9-159.7c12.4-29.8,21.8-60.8,28-92.4C1014.9,587.5,1018,555.2,1018,523z M1018.1,523
					c0,32.3-3.1,64.5-9.3,96.2c-6.2,31.6-15.6,62.7-27.9,92.5c-24.6,59.6-61.2,114.3-106.8,160c-45.6,45.7-100.2,82.3-159.9,107.1
					c-59.6,24.8-124.2,37.4-188.8,37.4c-32.3,0-64.6-3.1-96.2-9.4c-31.7-6.3-62.7-15.6-92.5-28c-59.7-24.7-114.3-61.3-160-107
					c-45.7-45.6-82.2-100.3-106.9-160c-12.3-29.8-21.7-60.9-27.9-92.5c-6.2-31.7-9.3-63.9-9.3-96.2c0-32.3,3.2-64.5,9.4-96.2
					c6.3-31.6,15.7-62.7,28-92.5c24.7-59.6,61.3-114.2,106.9-159.9c45.6-45.7,100.2-82.3,159.8-107c29.8-12.4,60.8-21.8,92.5-28
					c31.7-6.3,63.9-9.4,96.2-9.4c64.5,0,129.1,12.5,188.7,37.3c59.6,24.7,114.3,61.4,159.9,107c45.6,45.7,82.2,100.3,106.8,160
					c12.3,29.8,21.7,60.8,27.9,92.5C1015,458.5,1018.1,490.7,1018.1,523z"/>
			</g>
			<g>
				<path d="M525.5,1008.3c-31.8,0-63.5-3-94.7-9.2c-31.2-6.1-61.7-15.4-91.1-27.5c-58.8-24.3-112.6-60.3-157.6-105.2
					c-45-44.9-81.1-98.7-105.4-157.5C52.2,650.2,39.8,586.6,39.9,523c0-31.8,3.1-63.6,9.3-94.8c6.2-31.2,15.4-61.8,27.6-91.1
					c24.3-58.7,60.4-112.5,105.4-157.5c45-44.9,98.8-81,157.5-105.3c29.4-12.2,59.9-21.4,91.1-27.6c31.2-6.2,63-9.3,94.7-9.3
					c31.8,0,63.6,3.1,94.8,9.2c31.2,6.1,61.8,15.4,91.1,27.5c58.8,24.3,112.7,60.3,157.6,105.3c45,45,81.1,98.8,105.4,157.6
					c12.2,29.4,21.4,60,27.6,91.2c6.2,31.2,9.2,63,9.3,94.8c0,63.6-12.4,127.2-36.8,185.9c-24.4,58.8-60.5,112.6-105.5,157.5
					c-45,44.9-98.8,80.9-157.6,105.2c-29.4,12.1-59.9,21.4-91.1,27.5C589,1005.2,557.3,1008.3,525.5,1008.3z M525.5,1008.2
					c31.8,0,63.5-3.1,94.7-9.3c31.2-6.2,61.7-15.4,91-27.6C769.9,947,823.6,910.9,868.5,866c44.9-44.9,80.8-98.7,105-157.4
					c12.1-29.3,21.3-59.9,27.5-91c6.2-31.1,9.2-62.9,9.2-94.6c0-31.7-3.1-63.5-9.2-94.6c-6.1-31.1-15.4-61.7-27.5-91
					c-24.3-58.7-60.2-112.4-105.1-157.3c-44.9-44.9-98.6-80.9-157.3-105.2c-29.3-12.2-59.8-21.4-91-27.6
					c-31.1-6.2-62.9-9.3-94.6-9.3c-31.7,0-63.5,3.1-94.7,9.2c-31.2,6.1-61.7,15.4-91,27.5c-29.3,12.1-57.5,27.2-83.9,44.8
					c-26.4,17.6-51,37.9-73.5,60.4c-44.9,44.9-80.9,98.7-105.1,157.4c-12.1,29.3-21.4,59.9-27.5,91c-6.1,31.1-9.2,62.9-9.2,94.6
					c0,31.7,3.1,63.5,9.3,94.6c6.2,31.1,15.4,61.7,27.5,91c24.2,58.7,60.2,112.5,105.1,157.4c44.9,44.9,98.6,81,157.3,105.3
					c29.3,12.2,59.9,21.4,91,27.6C462,1005.1,493.7,1008.2,525.5,1008.2z"/>
			</g>
			<g>
				<path d="M1003.3,523c0-31.3-3.1-62.6-9.2-93.2c-6.1-30.7-15.2-60.8-27.2-89.6c-23.9-57.8-59.4-110.7-103.7-154.9
					c-44.2-44.2-97.2-79.6-155-103.5c-28.9-11.9-58.9-21-89.6-27.1c-30.7-6.1-61.9-9.1-93.2-9.1c-31.3,0-62.5,3-93.2,9.1
					c-30.7,6-60.7,15.1-89.6,27.1c-57.8,23.9-110.8,59.3-155,103.5c-22.1,22.1-42.1,46.4-59.5,72.4c-17.4,26-32.2,53.7-44.1,82.6
					c-12,28.9-21,59-27.1,89.7c-6.1,30.7-9.1,61.9-9.1,93.2c0,31.3,3.1,62.5,9.2,93.2c6.1,30.7,15.2,60.7,27.2,89.6
					c23.9,57.8,59.4,110.7,103.6,154.9c44.2,44.2,97.1,79.7,154.9,103.5c28.9,12,58.9,21,89.6,27.1c30.7,6.1,61.9,9.1,93.2,9.1
					c31.3,0,62.5-3,93.2-9.1c30.7-6.1,60.7-15.2,89.6-27.1c57.8-23.8,110.8-59.3,155-103.4c44.3-44.2,79.8-97.1,103.7-154.9
					c12-28.9,21.1-59,27.2-89.6C1000.3,585.6,1003.3,554.3,1003.3,523z M1003.4,523c0,31.3-3,62.6-9,93.3
					c-6,30.7-15.1,60.8-27.1,89.7c-23.9,57.9-59.4,110.9-103.6,155.2c-44.2,44.3-97.2,79.9-155.1,103.9
					c-57.8,24.1-120.5,36.3-183.1,36.3c-31.3,0-62.6-3-93.4-9.1c-30.7-6.1-60.8-15.2-89.8-27.2c-57.9-23.9-110.9-59.5-155.2-103.8
					C142.9,817,107.4,764,83.5,706.1c-12-28.9-21.1-59.1-27.1-89.8c-6.1-30.7-9.1-62-9.1-93.3c0-31.3,3.1-62.6,9.1-93.3
					c6.1-30.7,15.2-60.8,27.2-89.7c24-57.8,59.5-110.8,103.7-155.1c44.2-44.3,97.2-79.8,155.1-103.8c28.9-12,59-21.1,89.7-27.2
					c30.7-6.1,62-9.1,93.3-9.2c62.6,0,125.3,12.1,183.1,36.2c57.9,24,110.9,59.5,155.1,103.8c44.2,44.3,79.7,97.3,103.6,155.2
					c12,28.9,21,59,27.1,89.7C1000.4,460.4,1003.4,491.7,1003.4,523z"/>
			</g>
			<g>
				<path d="M87.6,350.4c11.3-28.7,25.3-56.3,41.9-82.2c16.6-26,35.8-50.2,57.2-72.5c42.7-44.5,94.3-80.4,150.8-105.2
					c56.5-24.8,118-38.3,179.8-39.4c61.8-1.2,123.7,10.3,181.1,33c57.4,22.7,110.4,56.8,154.6,99.8c22.1,21.5,42.2,45.2,59.7,70.6
					c17.5,25.4,32.6,52.5,44.8,80.8c24.5,56.6,37.9,118,39,179.7c0.5,30.8-2,61.7-7.4,92.1c-5.5,30.4-14,60.2-25.2,88.9
					c-11.3,28.7-25.3,56.4-42,82.4c-16.6,26-35.8,50.4-57.2,72.6c-21.4,22.2-45,42.4-70.4,60c-25.4,17.6-52.5,32.7-80.8,45.1
					c-56.7,24.7-118.2,38.2-180,39.2c-61.8,1.2-123.8-10.3-181.3-33c-57.5-22.7-110.6-56.6-154.9-99.7
					c-44.4-43-80.1-94.8-104.5-151.6c-24.4-56.7-37.6-118.2-38.5-179.8c-0.4-30.8,2.1-61.7,7.7-92C67.7,408.8,76.3,379,87.6,350.4z
					 M87.9,350.5c-22.5,57.3-33.9,119-32.6,180.6c1.2,61.5,14.7,122.8,39.5,179.1c24.7,56.3,60.4,107.7,104.7,150.3
					c22.1,21.3,46.3,40.4,72.2,57c25.8,16.6,53.3,30.6,81.9,41.9c28.6,11.2,58.2,19.7,88.4,25.2c30.2,5.5,60.9,8,91.6,7.5
					c61.4-1,122.6-14.2,178.9-38.7c56.4-24.4,107.9-60,150.7-104.1c21.4-22.1,40.6-46.2,57.2-72.1c16.7-25.8,30.7-53.3,42.1-81.9
					c22.7-57.2,34.2-118.8,33.1-180.4c-0.5-30.8-4.1-61.5-10.6-91.6c-6.5-30.1-16.1-59.5-28.3-87.7c-12.3-28.2-27.3-55.2-44.9-80.5
					c-17.6-25.2-37.6-48.8-59.8-70.1c-22.2-21.3-46.4-40.4-72.3-57c-25.9-16.6-53.4-30.5-82-41.7c-28.6-11.2-58.3-19.7-88.5-25.2
					c-30.2-5.5-61-8-91.7-7.5C456,54.6,394.8,67.9,338.3,92.2c-56.5,24.3-108.2,59.8-151,104C144.3,240.4,110.5,293.2,87.9,350.5z"
					/>
			</g>
			<g>
				<path d="M988.6,523c0-30.3-3-60.6-8.9-90.4c-5.9-29.7-14.7-58.9-26.3-86.9c-23.2-56-57.6-107.3-100.5-150.1
					c-42.9-42.8-94.2-77.2-150.2-100.3c-28-11.6-57.1-20.4-86.8-26.3c-29.7-5.9-60-8.8-90.3-8.9c-30.3,0-60.6,2.9-90.3,8.8
					c-29.7,5.9-58.9,14.7-86.9,26.2c-56,23.1-107.4,57.5-150.3,100.3c-21.4,21.4-40.8,44.9-57.6,70.2
					c-16.8,25.2-31.2,52.1-42.8,80.1c-11.6,28-20.4,57.2-26.2,86.9c-5.9,29.7-8.8,60-8.8,90.3c0,30.3,3,60.6,8.9,90.3
					c5.9,29.7,14.7,58.9,26.3,86.8c23.2,56,57.6,107.3,100.4,150.1c42.8,42.8,94.1,77.2,150.1,100.4c28,11.6,57.1,20.4,86.8,26.3
					c29.7,5.9,60,8.8,90.3,8.8c30.3,0,60.6-2.9,90.3-8.8c29.7-5.9,58.8-14.7,86.8-26.2c56-23.1,107.4-57.4,150.2-100.3
					c42.9-42.8,77.3-94.1,100.5-150.1c11.6-28,20.5-57.1,26.3-86.9C985.6,583.6,988.6,553.3,988.6,523z M988.7,523
					c0,30.3-2.9,60.7-8.8,90.4c-5.9,29.8-14.7,58.9-26.2,87c-23.1,56.1-57.5,107.5-100.4,150.4c-42.9,43-94.2,77.4-150.3,100.7
					c-56.1,23.3-116.8,35.2-177.5,35.2c-30.4,0-60.7-3-90.5-8.8c-29.8-5.9-59-14.7-87-26.3c-56.1-23.2-107.5-57.6-150.4-100.6
					c-42.9-42.9-77.3-94.3-100.5-150.5c-11.6-28-20.4-57.2-26.3-87C65,583.7,62,553.3,62,523c0-30.3,3-60.7,8.9-90.4
					c5.9-29.8,14.7-58.9,26.3-87c23.2-56.1,57.6-107.4,100.5-150.3c42.9-42.9,94.2-77.4,150.3-100.6c28-11.6,57.2-20.5,87-26.4
					c29.8-5.9,60.1-8.8,90.5-8.9c60.7,0,121.4,11.8,177.5,35.1c56.1,23.2,107.5,57.7,150.3,100.6c42.9,42.9,77.3,94.3,100.4,150.4
					c11.6,28,20.4,57.2,26.2,87C985.8,462.3,988.7,492.7,988.7,523z"/>
			</g>
			<g>
				<path d="M525.5,978.9c-29.8,0-59.7-2.9-89-8.6c-29.3-5.8-58-14.4-85.6-25.8c-55.2-22.8-105.8-56.6-148-98.8
					c-42.3-42.2-76.2-92.7-99.1-147.9c-23-55.2-34.6-114.9-34.6-174.7c0-29.9,2.9-59.7,8.7-89c5.8-29.3,14.5-58,25.9-85.6
					c22.9-55.2,56.7-105.7,99-147.9c42.3-42.2,92.8-76.1,148-98.9c27.6-11.4,56.3-20.1,85.6-25.9c29.3-5.8,59.1-8.7,89-8.7
					c29.9,0,59.7,2.9,89,8.6c29.3,5.8,58,14.4,85.6,25.8c55.2,22.8,105.8,56.6,148.1,98.9c42.3,42.2,76.1,92.8,99,148
					c11.4,27.6,20.1,56.3,25.9,85.6c5.8,29.3,8.7,59.2,8.7,89.1c0,59.7-11.6,119.5-34.6,174.7c-22.9,55.2-56.8,105.7-99.1,147.9
					c-42.3,42.2-92.9,76-148,98.8c-27.6,11.4-56.3,20.1-85.6,25.8C585.2,976,555.3,978.9,525.5,978.9z M525.5,978.8
					c29.8,0,59.7-2.9,88.9-8.7c29.3-5.8,58-14.5,85.5-25.9c55.1-22.8,105.6-56.7,147.7-98.9c42.1-42.2,75.9-92.7,98.7-147.9
					c11.4-27.6,20-56.2,25.8-85.5c5.8-29.2,8.7-59.1,8.7-88.9c0-29.8-2.9-59.6-8.7-88.9c-5.8-29.2-14.4-57.9-25.8-85.5
					c-22.8-55.1-56.6-105.6-98.8-147.8c-42.2-42.2-92.6-76-147.7-98.8c-27.5-11.4-56.2-20.1-85.5-25.9c-29.3-5.8-59.1-8.7-88.9-8.7
					c-29.8,0-59.7,2.9-88.9,8.6c-29.3,5.8-58,14.4-85.5,25.8c-27.6,11.4-54,25.5-78.8,42.1c-24.8,16.6-47.9,35.6-69,56.7
					c-42.2,42.2-76,92.7-98.7,147.9c-11.4,27.6-20.1,56.2-25.8,85.5C72.9,463.4,70,493.2,70,523c0,29.8,2.9,59.6,8.7,88.9
					c5.8,29.2,14.5,57.9,25.9,85.5c22.7,55.1,56.5,105.6,98.7,147.8c42.1,42.2,92.6,76.1,147.8,98.9c27.6,11.4,56.2,20.1,85.5,25.9
					C465.8,975.8,495.7,978.7,525.5,978.8z"/>
			</g>
			<g>
				<path d="M973.9,523c-0.1-29.4-2.9-58.7-8.6-87.5c-5.7-28.8-14.3-57-25.5-84.1C917.3,297.2,884,247.5,842.5,206
					C801,164.5,751.2,131.3,697,109c-27.1-11.2-55.3-19.7-84.1-25.4c-28.8-5.7-58.1-8.6-87.4-8.6c-29.3,0-58.7,2.9-87.5,8.5
					c-28.8,5.7-57,14.2-84.1,25.4c-54.2,22.4-104,55.6-145.5,97.1c-20.7,20.8-39.5,43.5-55.8,67.9c-16.3,24.4-30.2,50.4-41.4,77.5
					c-11.2,27.1-19.7,55.3-25.4,84.1c-5.7,28.8-8.5,58.1-8.5,87.5c0.1,29.3,2.9,58.7,8.6,87.5c5.7,28.8,14.3,57,25.5,84.1
					c22.4,54.2,55.7,103.9,97.2,145.3c41.5,41.5,91.2,74.7,145.4,97.1c27.1,11.2,55.3,19.7,84.1,25.4c28.8,5.7,58.1,8.5,87.4,8.6
					c29.3,0,58.7-2.9,87.4-8.6c28.8-5.7,57-14.2,84.1-25.4c54.2-22.4,103.9-55.6,145.5-97c41.5-41.5,74.8-91.1,97.3-145.4
					c11.2-27.1,19.8-55.3,25.5-84.1C971,581.7,973.9,552.4,973.9,523z M974,523c0,29.4-2.8,58.7-8.5,87.5
					c-5.7,28.8-14.2,57.1-25.4,84.2c-22.4,54.3-55.7,104.1-97.2,145.7c-41.5,41.6-91.3,74.9-145.6,97.5
					c-54.3,22.6-113.1,34.1-171.9,34.1c-29.4,0-58.8-2.9-87.6-8.6c-28.8-5.7-57.1-14.2-84.2-25.5c-54.3-22.5-104.1-55.8-145.7-97.4
					c-41.6-41.6-74.9-91.4-97.3-145.7c-11.2-27.2-19.8-55.4-25.4-84.2c-5.7-28.8-8.5-58.2-8.5-87.6c0.1-29.4,2.9-58.8,8.6-87.6
					c5.7-28.8,14.3-57.1,25.5-84.2c22.5-54.3,55.8-104,97.3-145.6c41.5-41.6,91.3-74.9,145.5-97.4c27.1-11.3,55.4-19.8,84.2-25.5
					c28.8-5.7,58.2-8.6,87.6-8.6c58.8,0,117.6,11.4,171.8,34c54.3,22.5,104,55.8,145.6,97.4c41.5,41.6,74.8,91.4,97.2,145.7
					c11.2,27.1,19.7,55.4,25.4,84.2C971.2,464.3,974,493.6,974,523z"/>
			</g>
			<g>
				<path d="M525.5,964.2c-28.9,0-57.8-2.8-86.1-8.4c-28.3-5.6-56.1-14-82.8-25c-53.4-22-102.4-54.8-143.3-95.6
					c-40.9-40.8-73.7-89.8-95.8-143.2C95.2,638.6,84,580.8,84,523c0.1-28.9,2.9-57.8,8.5-86.1c5.6-28.3,14-56.1,25.1-82.8
					c22.1-53.4,54.9-102.3,95.8-143.2c40.9-40.8,89.8-73.6,143.2-95.7c26.7-11.1,54.5-19.5,82.8-25.1c28.3-5.6,57.2-8.4,86.1-8.5
					c28.9,0,57.8,2.8,86.1,8.4c28.4,5.6,56.2,14,82.9,25c53.4,22,102.4,54.8,143.3,95.7c40.9,40.9,73.7,89.8,95.8,143.3
					c11.1,26.7,19.5,54.5,25.1,82.9c5.6,28.4,8.4,57.3,8.5,86.2c0,57.8-11.3,115.7-33.5,169c-22.1,53.4-55,102.3-95.9,143.2
					c-40.9,40.8-89.9,73.5-143.3,95.6c-26.7,11-54.5,19.4-82.8,25C583.3,961.4,554.4,964.2,525.5,964.2z M525.5,964.1
					c28.9-0.1,57.7-2.9,86.1-8.5c28.3-5.6,56.1-14,82.7-25.1c53.3-22.1,102.2-54.9,143-95.7c40.8-40.9,73.4-89.8,95.4-143.1
					c11-26.7,19.4-54.4,25-82.7c5.6-28.3,8.4-57.1,8.4-86c0-28.8-2.8-57.7-8.4-86c-5.6-28.3-14-56-25-82.7
					c-22-53.3-54.7-102.2-95.5-143c-40.8-40.8-89.6-73.5-143-95.6c-26.6-11.1-54.4-19.5-82.7-25.1c-28.3-5.6-57.2-8.4-86-8.5
					c-28.9,0-57.7,2.8-86,8.4c-28.3,5.6-56.1,14-82.7,25c-26.7,11-52.3,24.7-76.3,40.7c-24,16-46.4,34.5-66.8,54.9
					c-40.8,40.9-73.5,89.8-95.5,143.1c-11,26.7-19.4,54.4-25,82.7c-5.6,28.3-8.4,57.2-8.4,86c0.1,28.9,2.9,57.7,8.5,86
					c5.6,28.3,14,56,25,82.7c22,53.3,54.7,102.2,95.5,143.1c40.8,40.8,89.7,73.6,143,95.7c26.7,11.1,54.4,19.5,82.7,25.1
					C467.8,961.2,496.6,964,525.5,964.1z"/>
			</g>
			<g>
				<path d="M959.2,523c-0.1-28.4-2.8-56.8-8.4-84.6c-5.5-27.8-13.8-55.1-24.7-81.4c-21.7-52.5-53.9-100.5-94.1-140.6
					c-40.2-40.1-88.3-72.2-140.7-93.9c-26.2-10.8-53.5-19.1-81.3-24.6c-27.8-5.5-56.2-8.3-84.6-8.3c-28.4,0-56.7,2.8-84.6,8.2
					c-27.8,5.5-55.1,13.7-81.4,24.6c-52.5,21.7-100.6,53.8-140.7,93.9c-20.1,20.1-38.2,42.1-54,65.7c-15.8,23.6-29.2,48.8-40,75
					c-10.8,26.2-19.1,53.5-24.6,81.4C94.8,466.2,92,494.6,92,523c0.1,28.4,2.8,56.8,8.3,84.6c5.5,27.8,13.8,55.1,24.7,81.3
					c21.7,52.4,53.9,100.4,94,140.6c40.1,40.1,88.2,72.3,140.6,93.9c26.2,10.8,53.5,19.1,81.3,24.6c27.8,5.5,56.2,8.3,84.6,8.3
					c28.4,0,56.7-2.8,84.6-8.3c27.8-5.5,55.1-13.8,81.3-24.6c52.5-21.6,100.5-53.7,140.7-93.8c40.2-40.1,72.4-88.1,94.1-140.6
					c10.9-26.2,19.2-53.5,24.7-81.4C956.4,579.8,959.2,551.4,959.2,523z M959.3,523c0,28.4-2.7,56.8-8.2,84.7
					c-5.5,27.9-13.7,55.2-24.6,81.4c-21.7,52.5-53.8,100.7-94,140.9c-40.2,40.2-88.3,72.5-140.8,94.3c-52.5,21.9-109.4,33-166.2,33
					c-28.4,0-56.9-2.8-84.7-8.3c-27.9-5.5-55.2-13.8-81.5-24.7c-52.5-21.7-100.7-54-140.9-94.2c-40.2-40.2-72.4-88.4-94.1-140.9
					c-10.9-26.3-19.1-53.6-24.6-81.5c-5.5-27.9-8.2-56.3-8.3-84.7c0-28.4,2.8-56.8,8.3-84.7c5.5-27.9,13.8-55.2,24.7-81.4
					c21.7-52.5,54-100.6,94.1-140.8c40.2-40.2,88.3-72.4,140.8-94.2c26.2-10.9,53.6-19.2,81.4-24.7c27.9-5.5,56.3-8.3,84.7-8.4
					c56.8,0,113.7,11.1,166.2,32.9c52.5,21.8,100.6,54,140.8,94.2c40.2,40.2,72.3,88.4,94,140.9c10.8,26.3,19.1,53.6,24.6,81.4
					C956.6,466.2,959.3,494.6,959.3,523z"/>
			</g>
			<g>
				<path d="M525.5,949.5c-27.9,0-55.8-2.7-83.2-8.1c-27.4-5.4-54.3-13.5-80.1-24.2c-51.6-21.3-99-52.9-138.5-92.4
					c-39.5-39.5-71.2-86.8-92.6-138.4C109.6,634.8,98.7,578.9,98.7,523c0.1-27.9,2.8-55.9,8.2-83.3c5.4-27.4,13.6-54.3,24.3-80.1
					c21.4-51.6,53.1-98.9,92.6-138.4c39.5-39.5,86.8-71.1,138.4-92.5c25.8-10.7,52.7-18.8,80-24.3c27.4-5.4,55.3-8.2,83.3-8.2
					c27.9,0,55.9,2.7,83.3,8.1c27.4,5.4,54.3,13.5,80.1,24.2c51.7,21.3,99,53,138.5,92.5c39.5,39.5,71.2,86.9,92.6,138.5
					c10.7,25.8,18.8,52.7,24.2,80.1c5.4,27.4,8.1,55.4,8.2,83.3c0,55.9-10.9,111.8-32.4,163.4c-21.4,51.6-53.1,98.9-92.7,138.4
					c-39.6,39.5-86.9,71.1-138.5,92.4c-25.8,10.7-52.7,18.8-80.1,24.2C581.3,946.8,553.4,949.5,525.5,949.5z M525.5,949.4
					c27.9-0.1,55.8-2.8,83.2-8.2c27.4-5.4,54.2-13.6,80-24.3c51.6-21.4,98.8-53,138.2-92.5c39.4-39.5,71-86.8,92.2-138.3
					c10.6-25.8,18.7-52.6,24.2-79.9c5.4-27.4,8.1-55.2,8.2-83.1c0-27.9-2.7-55.8-8.1-83.1c-5.4-27.4-13.5-54.2-24.2-79.9
					c-21.3-51.5-52.9-98.8-92.3-138.2c-39.4-39.4-86.7-71.1-138.2-92.4c-25.8-10.7-52.6-18.8-79.9-24.2c-27.4-5.4-55.3-8.2-83.1-8.2
					c-27.9,0-55.8,2.7-83.2,8.1c-27.4,5.4-54.2,13.5-80,24.2c-25.8,10.7-50.5,23.9-73.7,39.4c-23.2,15.5-44.9,33.3-64.6,53
					c-39.4,39.5-71,86.8-92.3,138.3c-10.7,25.8-18.8,52.6-24.1,80c-5.4,27.4-8.1,55.3-8.1,83.1c0.1,27.9,2.8,55.8,8.2,83.1
					c5.4,27.4,13.6,54.2,24.2,79.9c21.3,51.6,52.9,98.8,92.3,138.3c39.4,39.5,86.7,71.2,138.2,92.5c25.8,10.7,52.6,18.8,80,24.3
					C469.7,946.6,497.6,949.3,525.5,949.4z"/>
			</g>
			<g>
				<path d="M944.4,523c-0.1-54.8-10.9-109.7-32-160.3c-21.1-50.6-52.3-96.9-91.2-135.5c-38.9-38.5-85.2-69.5-135.8-90.3
					c-25.3-10.4-51.6-18.4-78.4-23.7c-26.8-5.3-54.2-8-81.5-8.1c-27.4,0-54.7,2.6-81.6,7.8c-26.9,5.2-53.2,13.1-78.5,23.5
					c-25.3,10.4-49.6,23.3-72.4,38.5c-22.8,15.2-44.1,32.6-63.5,52c-19.4,19.4-36.9,40.6-52.1,63.4c-15.2,22.8-28.2,47.1-38.6,72.4
					c-21,50.6-31.6,105.5-31.5,160.2c0.1,27.4,2.8,54.8,8.2,81.6c5.4,26.8,13.4,53.1,23.9,78.4c21,50.5,52.1,96.8,90.8,135.4
					c38.7,38.6,85,69.6,135.6,90.4c25.3,10.4,51.5,18.4,78.3,23.7c26.8,5.3,54.1,8,81.5,8c27.3,0,54.7-2.7,81.5-8
					c26.8-5.3,53.1-13.2,78.4-23.6c50.6-20.8,97-51.7,135.8-90.2c38.9-38.6,70.1-84.9,91.2-135.4C933.5,632.7,944.3,577.8,944.4,523
					z M944.7,523c0,27.4-2.6,54.9-7.9,81.8c-5.3,26.9-13.3,53.3-23.7,78.7c-20.8,50.8-51.8,97.5-90.5,136.5
					c-38.7,39.1-85.3,70.3-136.1,91.5c-50.8,21.2-105.9,32-161,32c-55.1,0-110.2-10.7-161-31.9c-50.9-21.1-97.5-52.3-136.4-91.3
					c-19.4-19.5-37-40.9-52.2-63.8c-15.2-22.9-28.2-47.3-38.7-72.7c-10.5-25.4-18.4-51.9-23.7-78.9c-5.3-27-7.9-54.5-7.9-82
					c0.1-27.5,2.8-55,8.2-81.9c5.4-26.9,13.4-53.3,23.9-78.7c21-50.8,52.2-97.2,91-136.1c19.4-19.4,40.7-37,63.5-52.3
					c22.8-15.3,47.1-28.4,72.5-39c50.7-21.2,105.7-32.2,160.7-32.3c55,0,110.1,10.6,160.9,31.9c50.8,21.1,97.4,52.3,136.1,91.4
					c38.7,39,69.7,85.7,90.6,136.5c10.4,25.4,18.4,51.8,23.7,78.7C942.1,468.1,944.7,495.6,944.7,523z"/>
			</g>
			<g>
				<path d="M525.5,934.8c-27,0-53.9-2.6-80.4-7.8c-26.4-5.2-52.4-13-77.3-23.3c-49.9-20.6-95.6-51.1-133.7-89.2
					c-38.2-38.1-68.8-83.8-89.5-133.6c-20.7-49.8-31.2-103.8-31.2-157.8c0-27,2.7-54,7.9-80.4c5.2-26.5,13.1-52.4,23.4-77.3
					c20.6-49.8,51.2-95.5,89.4-133.6c38.2-38.1,83.8-68.7,133.7-89.3c24.9-10.3,50.8-18.2,77.3-23.4c26.5-5.2,53.4-7.9,80.4-7.9
					c27,0,53.9,2.6,80.4,7.8c26.5,5.2,52.4,13,77.3,23.3c49.9,20.6,95.6,51.1,133.8,89.3c38.2,38.2,68.8,83.9,89.4,133.7
					c10.3,24.9,18.2,50.9,23.4,77.3c5.2,26.5,7.9,53.5,7.9,80.4c0,54-10.6,108-31.3,157.8c-20.7,49.9-51.3,95.5-89.5,133.6
					c-38.2,38.1-83.9,68.6-133.7,89.2c-24.9,10.3-50.9,18.1-77.3,23.3C579.4,932.2,552.5,934.8,525.5,934.8z M525.5,934.7
					c27-0.1,53.9-2.7,80.3-7.9c26.4-5.2,52.3-13.1,77.2-23.4c49.8-20.6,95.4-51.2,133.4-89.3c38.1-38.1,68.5-83.8,89.1-133.6
					c10.3-24.9,18.1-50.8,23.3-77.2c5.2-26.4,7.8-53.3,7.9-80.2c0-26.9-2.6-53.8-7.9-80.3c-5.2-26.4-13-52.3-23.3-77.2
					c-20.6-49.8-51.1-95.4-89.2-133.5c-38.1-38.1-83.7-68.6-133.4-89.2c-24.9-10.3-50.8-18.2-77.2-23.4c-26.4-5.2-53.3-7.9-80.3-7.9
					c-26.9,0-53.9,2.6-80.3,7.8c-26.4,5.2-52.3,13-77.2,23.3c-24.9,10.3-48.8,23-71.2,38c-22.4,15-43.3,32.2-62.4,51.2
					c-38.1,38.1-68.6,83.8-89.1,133.6c-10.3,24.9-18.1,50.8-23.3,77.2c-5.2,26.4-7.8,53.3-7.8,80.3c0,26.9,2.7,53.9,7.9,80.3
					c5.2,26.4,13.1,52.3,23.3,77.2c20.5,49.8,51,95.4,89.1,133.5c38.1,38.1,83.7,68.7,133.5,89.3c24.9,10.3,50.8,18.2,77.2,23.4
					C471.6,932,498.5,934.6,525.5,934.7z"/>
			</g>
			<g>
				<path d="M929.8,523c-0.1-26.5-2.6-52.9-7.8-78.9c-5.1-26-12.9-51.4-23-75.8c-20.3-48.9-50.3-93.7-87.7-131.1
					c-37.4-37.4-82.3-67.3-131.2-87.5c-24.4-10.1-49.9-17.8-75.8-22.9c-25.9-5.1-52.4-7.7-78.8-7.8c-26.4,0-52.9,2.6-78.8,7.7
					c-25.9,5.1-51.4,12.8-75.8,22.9c-48.9,20.2-93.7,50.1-131.2,87.5c-18.7,18.7-35.6,39.2-50.3,61.2c-14.7,22-27.2,45.5-37.3,69.9
					c-10.1,24.4-17.8,49.9-22.9,75.9c-5.1,26-7.7,52.4-7.7,78.9c0.1,26.5,2.6,52.9,7.8,78.8c5.1,25.9,12.9,51.4,23,75.8
					c20.2,48.9,50.3,93.6,87.6,131c37.4,37.4,82.2,67.4,131.1,87.6c24.4,10.1,49.9,17.8,75.8,22.9c25.9,5.1,52.4,7.7,78.8,7.7
					c26.4,0,52.9-2.6,78.8-7.7c25.9-5.1,51.4-12.8,75.8-22.9c48.9-20.2,93.7-50.1,131.2-87.5c37.4-37.4,67.5-82.2,87.7-131.1
					c10.1-24.4,17.9-49.9,23-75.8C927.2,575.9,929.8,549.5,929.8,523z M929.9,523c0,26.5-2.6,53-7.7,78.9
					c-5.1,26-12.8,51.5-22.9,75.9c-20.2,49-50.2,93.9-87.6,131.4c-37.4,37.5-82.3,67.6-131.2,87.9c-48.9,20.4-102,30.7-155,30.7
					c-26.5,0-53-2.6-79-7.8c-26-5.1-51.5-12.9-76-23c-49-20.3-93.9-50.3-131.4-87.8c-37.5-37.5-67.5-82.4-87.7-131.4
					c-10.1-24.5-17.8-50-22.9-76c-5.1-26-7.7-52.5-7.7-79c0-26.5,2.6-53,7.8-79c5.1-26,12.9-51.4,23-75.9
					c20.3-48.9,50.3-93.8,87.7-131.3c37.4-37.5,82.3-67.5,131.2-87.8c24.5-10.1,49.9-17.9,75.9-23c26-5.2,52.5-7.7,79-7.8
					c53,0,106,10.3,155,30.7c49,20.3,93.8,50.4,131.3,87.9c37.4,37.5,67.4,82.4,87.6,131.4c10.1,24.5,17.8,49.9,22.9,75.9
					C927.4,470,929.9,496.5,929.9,523z"/>
			</g>
			<g>
				<path d="M525.5,920.1c-26,0-52-2.5-77.5-7.5c-25.5-5-50.5-12.6-74.5-22.5c-48.1-19.8-92.1-49.3-129-86
					c-36.8-36.8-66.3-80.8-86.3-128.9c-20-48.1-30.1-100.1-30.1-152.1c0-26,2.6-52,7.6-77.5c5.1-25.5,12.6-50.5,22.6-74.5
					c19.9-48.1,49.4-92.1,86.2-128.8c36.8-36.7,80.8-66.2,128.9-86.1c24-10,49-17.5,74.5-22.6c25.5-5.1,51.5-7.6,77.5-7.6
					c26,0,52,2.5,77.5,7.5c25.5,5,50.5,12.6,74.6,22.5c48.1,19.8,92.2,49.3,129,86.1c36.8,36.8,66.3,80.9,86.2,129
					c10,24,17.5,49.1,22.6,74.6C920.4,471,923,497,923,523c0,52-10.2,104.1-30.2,152.2c-19.9,48.1-49.5,92.1-86.3,128.9
					c-36.8,36.7-80.9,66.2-129,86c-24,9.9-49,17.5-74.5,22.5C577.5,917.6,551.5,920.1,525.5,920.1z M525.5,920
					c26-0.1,52-2.6,77.5-7.7c25.5-5.1,50.5-12.6,74.5-22.6c48-19.9,92-49.4,128.7-86.1c36.7-36.8,66.1-80.8,85.9-128.8
					c9.9-24,17.4-49,22.5-74.4c5-25.5,7.6-51.4,7.6-77.4c0-26-2.5-51.9-7.6-77.4c-5-25.5-12.6-50.4-22.5-74.4
					c-19.8-48-49.3-92-86-128.7c-36.7-36.7-80.7-66.2-128.6-86c-24-9.9-48.9-17.5-74.4-22.6c-25.5-5.1-51.4-7.6-77.4-7.6
					c-26,0-51.9,2.5-77.4,7.6c-25.5,5-50.5,12.6-74.5,22.5c-24,9.9-47,22.2-68.6,36.7c-21.6,14.4-41.8,31-60.1,49.4
					c-36.7,36.8-66.1,80.8-85.9,128.8c-9.9,24-17.5,49-22.5,74.5c-5,25.5-7.5,51.4-7.5,77.4c0,26,2.6,51.9,7.6,77.4
					c5,25.5,12.6,50.4,22.5,74.4c19.8,48,49.2,92,85.9,128.8c36.7,36.8,80.7,66.2,128.7,86.1c24,10,49,17.5,74.5,22.6
					C473.5,917.4,499.5,919.9,525.5,920z"/>
			</g>
			<g>
				<path d="M915.1,523c-0.1-25.5-2.5-51-7.5-76c-5-25-12.4-49.5-22.2-73.1c-19.5-47.1-48.5-90.3-84.5-126.3
					c-36.1-36-79.3-64.9-126.4-84.3c-23.6-9.7-48-17.1-73-22.1c-25-5-50.5-7.4-76-7.5c-25.5,0-51,2.5-76,7.4
					c-25,4.9-49.5,12.3-73.1,22.1c-47.1,19.4-90.3,48.3-126.4,84.4c-18,18-34.3,37.8-48.5,59c-14.2,21.2-26.2,43.8-36,67.4
					c-9.7,23.6-17.1,48.1-22.1,73.1c-4.9,25-7.4,50.5-7.4,76c0.1,25.5,2.5,51,7.5,76c5,25,12.4,49.5,22.2,73
					c19.5,47.1,48.4,90.2,84.5,126.3c36,36,79.2,64.9,126.3,84.4c23.5,9.7,48,17.2,73,22.1c25,4.9,50.5,7.4,75.9,7.4
					c25.5,0,51-2.5,75.9-7.5c25-4.9,49.5-12.4,73-22.1c47.1-19.4,90.3-48.3,126.4-84.3c36.1-36,65-79.2,84.5-126.3
					c9.8-23.5,17.2-48.1,22.2-73.1C912.6,574,915.1,548.5,915.1,523z M915.2,523c0,25.5-2.5,51-7.4,76.1
					c-4.9,25-12.3,49.6-22.1,73.2c-19.5,47.2-48.4,90.4-84.4,126.6C765.2,835,722,864,674.8,883.5c-47.2,19.6-98.3,29.6-149.3,29.6
					c-25.5,0-51.1-2.5-76.1-7.5c-25.1-5-49.6-12.4-73.2-22.2C329,864,285.7,835,249.6,798.9c-36.1-36.1-65-79.4-84.5-126.6
					c-9.8-23.6-17.2-48.2-22.1-73.2c-4.9-25-7.4-50.6-7.4-76.1c0-25.5,2.5-51.1,7.5-76.1c5-25,12.4-49.6,22.2-73.2
					c19.5-47.2,48.5-90.4,84.5-126.5c36.1-36.1,79.3-65.1,126.5-84.6c23.6-9.8,48.1-17.2,73.2-22.2c25-5,50.6-7.5,76.1-7.5
					c51.1,0,102.2,9.9,149.3,29.6c47.2,19.6,90.4,48.5,126.5,84.7c36.1,36.1,65,79.4,84.4,126.6c9.7,23.6,17.1,48.1,22.1,73.2
					C912.7,472,915.2,497.5,915.2,523z"/>
			</g>
			<g>
				<path d="M525.5,905.4c-25,0-50.1-2.4-74.6-7.3c-24.6-4.8-48.6-12.1-71.8-21.7c-46.3-19.1-88.7-47.5-124.2-82.8
					c-35.5-35.4-63.9-77.8-83.1-124.1c-19.3-46.3-29-96.4-29-146.5c0-25.1,2.5-50.1,7.4-74.7c4.9-24.6,12.2-48.7,21.8-71.8
					c19.2-46.3,47.6-88.7,83-124.1c35.5-35.4,77.8-63.8,124.1-82.9c23.1-9.6,47.2-16.9,71.8-21.8c24.6-4.9,49.6-7.3,74.7-7.4
					c25,0,50.1,2.4,74.7,7.3c24.6,4.8,48.7,12.1,71.8,21.7c46.3,19.1,88.8,47.5,124.2,82.9c35.4,35.4,63.9,77.9,83,124.2
					c9.6,23.1,16.9,47.2,21.7,71.8c4.9,24.6,7.3,49.6,7.3,74.7c0,50.1-9.8,100.3-29.1,146.5c-19.2,46.3-47.6,88.7-83.1,124.1
					c-35.5,35.4-77.9,63.7-124.2,82.8c-23.1,9.6-47.2,16.8-71.8,21.7C575.6,902.9,550.5,905.3,525.5,905.4z M525.5,905.3
					c25-0.1,50-2.5,74.6-7.4c24.5-4.9,48.6-12.2,71.7-21.8c46.2-19.2,88.6-47.5,123.9-83c35.3-35.4,63.6-77.8,82.7-124
					c9.5-23.1,16.8-47.1,21.7-71.7c4.9-24.5,7.3-49.5,7.3-74.5c0-25-2.5-50-7.3-74.5c-4.8-24.5-12.1-48.6-21.7-71.7
					c-19.1-46.2-47.4-88.5-82.8-123.9c-35.4-35.3-77.7-63.7-123.9-82.9c-23.1-9.6-47.1-16.9-71.7-21.7c-24.5-4.9-49.5-7.3-74.5-7.4
					c-25,0-50,2.4-74.6,7.3c-24.5,4.8-48.6,12.1-71.7,21.7c-23.1,9.6-45.3,21.4-66.1,35.3c-20.8,13.9-40.2,29.9-57.9,47.6
					c-35.4,35.4-63.7,77.8-82.8,124c-9.6,23.1-16.8,47.2-21.6,71.7c-4.8,24.5-7.2,49.5-7.3,74.5c0,25,2.5,50,7.4,74.5
					c4.9,24.5,12.2,48.6,21.7,71.7c19.1,46.2,47.4,88.6,82.7,124c35.3,35.4,77.7,63.8,123.9,82.9c23.1,9.6,47.2,16.9,71.7,21.8
					C475.5,902.8,500.5,905.2,525.5,905.3z"/>
			</g>
			<g>
				<path d="M900.4,523c-0.1-24.5-2.4-49.1-7.2-73.1c-4.8-24.1-11.9-47.7-21.3-70.3c-18.8-45.3-46.6-86.9-81.3-121.5
					c-34.7-34.7-76.3-62.4-121.6-81.1c-22.7-9.3-46.2-16.5-70.3-21.3c-24-4.8-48.6-7.2-73.1-7.2c-24.5,0-49,2.4-73.1,7.1
					c-24.1,4.7-47.7,11.9-70.3,21.2c-45.3,18.7-86.9,46.5-121.6,81.2c-17.3,17.4-33,36.4-46.6,56.8c-13.6,20.4-25.2,42.1-34.6,64.8
					c-9.4,22.7-16.5,46.3-21.2,70.3c-4.7,24.1-7.1,48.6-7.1,73.1c0,24.5,2.4,49.1,7.2,73.1c4.8,24.1,11.9,47.6,21.3,70.3
					c18.8,45.3,46.6,86.8,81.3,121.5c34.7,34.7,76.2,62.5,121.5,81.2c22.6,9.4,46.2,16.5,70.3,21.3c24,4.8,48.6,7.1,73.1,7.2
					c24.5,0,49-2.4,73.1-7.2c24-4.8,47.6-11.9,70.3-21.2c45.3-18.7,86.9-46.4,121.6-81.1c34.7-34.7,62.6-76.2,81.4-121.5
					c9.4-22.7,16.6-46.2,21.3-70.3C898,572.1,900.4,547.5,900.4,523z M900.5,523c0,24.6-2.4,49.1-7.1,73.2
					c-4.7,24.1-11.9,47.7-21.2,70.4c-18.7,45.4-46.5,87-81.2,121.8c-34.7,34.8-76.3,62.7-121.7,81.5
					c-45.4,18.9-94.6,28.5-143.7,28.5c-24.6,0-49.2-2.4-73.3-7.2c-24.1-4.8-47.7-11.9-70.4-21.3c-45.4-18.8-87.1-46.7-121.8-81.4
					c-34.8-34.8-62.6-76.4-81.3-121.8c-9.4-22.7-16.5-46.3-21.3-70.4c-4.8-24.1-7.1-48.7-7.1-73.2c0-24.6,2.4-49.1,7.2-73.2
					c4.8-24.1,11.9-47.7,21.3-70.4c18.8-45.4,46.7-87,81.3-121.7c34.7-34.8,76.3-62.6,121.7-81.4c45.4-18.9,94.5-28.5,143.6-28.6
					c49.1,0,98.3,9.5,143.7,28.4c45.4,18.8,87,46.7,121.7,81.5c34.7,34.8,62.5,76.4,81.2,121.8c9.4,22.7,16.5,46.3,21.2,70.4
					C898.1,473.9,900.5,498.4,900.5,523z"/>
			</g>
			<g>
				<path d="M525.5,890.7c-48.1,0-96.3-9.4-140.8-27.8c-44.5-18.4-85.3-45.6-119.4-79.7c-34.1-34-61.4-74.8-79.9-119.3
					c-18.5-44.5-27.9-92.7-27.9-140.9c0-48.2,9.5-96.3,28-140.8c18.4-44.5,45.8-85.3,79.8-119.3c34.1-34,74.8-61.3,119.3-79.8
					c44.5-18.5,92.6-28,140.8-28c48.2,0,96.3,9.4,140.9,27.8c44.5,18.4,85.4,45.7,119.5,79.7c34.1,34.1,61.4,74.9,79.8,119.4
					c18.5,44.5,27.9,92.7,28,140.9c0,48.2-9.4,96.4-28,140.9c-18.5,44.5-45.8,85.3-79.9,119.3c-34.1,34-74.9,61.3-119.4,79.6
					C621.8,881.3,573.6,890.7,525.5,890.7z M525.5,890.6c48.1-0.1,96.2-9.5,140.7-28c44.4-18.4,85.2-45.7,119.1-79.8
					c34-34,61.2-74.8,79.5-119.2c9.2-22.2,16.2-45.3,20.8-68.9c4.7-23.6,7-47.6,7-71.6c0-48.1-9.4-96.1-27.9-140.5
					c-18.4-44.4-45.6-85.1-79.6-119.1c-34-34-74.7-61.3-119.1-79.7c-44.4-18.5-92.5-27.9-140.6-28c-48.1,0-96.2,9.4-140.6,27.8
					c-22.2,9.2-43.5,20.6-63.5,33.9c-20,13.4-38.7,28.7-55.7,45.7c-34,34-61.2,74.8-79.6,119.3c-9.2,22.2-16.2,45.3-20.8,68.9
					c-4.7,23.6-7,47.6-7,71.7c0,24,2.4,48.1,7.1,71.7c4.7,23.6,11.7,46.7,20.8,68.9c18.3,44.4,45.5,85.2,79.5,119.2
					c34,34,74.7,61.3,119.1,79.8C429.3,881,477.4,890.5,525.5,890.6z"/>
			</g>
			<g>
				<path d="M885.6,523c-0.1-47.1-9.3-94.3-27.6-137.8c-18.2-43.5-45-83.2-78.4-116.4c-33.4-33.1-73.3-59.7-116.7-77.6
					c-21.7-8.9-44.3-15.8-67.4-20.4c-23-4.6-46.5-6.9-70-6.9c-23.5,0-47,2.2-70.1,6.7c-23.1,4.5-45.7,11.3-67.5,20.2
					c-21.8,8.9-42.7,20-62.3,33c-19.6,13-37.9,28-54.6,44.7c-16.7,16.6-31.7,34.9-44.8,54.5c-13.1,19.6-24.2,40.5-33.2,62.2
					c-18.1,43.5-27.1,90.6-27,137.7c0.1,47.1,9.5,94.1,27.6,137.5c18.1,43.4,44.8,83.1,78,116.3c33.3,33.2,73.1,59.8,116.5,77.7
					c21.7,8.9,44.3,15.8,67.3,20.4c23,4.6,46.5,6.9,70,6.9c23.5,0,47-2.3,70-6.8c23-4.5,45.6-11.4,67.4-20.3
					c43.5-17.8,83.3-44.4,116.7-77.5C813,744,839.9,704.2,858,660.7C876.2,617.3,885.5,570.1,885.6,523z M885.9,523
					c0,23.6-2.2,47.2-6.8,70.4c-4.5,23.2-11.4,45.9-20.3,67.7c-17.9,43.7-44.5,83.8-77.8,117.4c-33.3,33.6-73.3,60.5-117,78.7
					c-43.7,18.3-91.1,27.5-138.5,27.6c-47.4,0-94.8-9.2-138.5-27.4c-43.8-18.1-83.8-45-117.3-78.6c-16.7-16.8-31.8-35.2-44.9-54.9
					c-13.1-19.7-24.3-40.7-33.3-62.6c-18-43.8-27.2-91.1-27.1-138.3c0.1-23.6,2.4-47.3,7.1-70.4c4.6-23.2,11.6-45.9,20.6-67.7
					c18.1-43.6,44.9-83.6,78.2-117.1c16.7-16.7,35-31.8,54.6-45c19.6-13.2,40.5-24.5,62.3-33.6c43.6-18.3,90.9-27.7,138.2-27.8
					c47.3,0,94.7,9.1,138.4,27.4c43.7,18.2,83.8,45,117.1,78.6c33.3,33.6,59.9,73.7,77.8,117.4c8.9,21.9,15.8,44.5,20.3,67.7
					C883.7,475.8,885.9,499.4,885.9,523z"/>
			</g>
			<g>
				<path d="M525.5,876c-46.2,0-92.4-9-135.2-26.7c-42.7-17.6-81.9-43.8-114.7-76.5c-32.7-32.7-59-71.8-76.7-114.6
					c-17.8-42.7-26.8-89-26.8-135.3c0-46.3,9.1-92.5,26.9-135.2c17.7-42.7,43.9-81.9,76.6-114.5c32.7-32.6,71.9-58.9,114.6-76.6
					c42.7-17.7,88.9-26.8,135.2-26.9c46.2,0,92.5,9,135.2,26.7c42.8,17.6,82,43.8,114.7,76.5c32.7,32.7,58.9,71.9,76.6,114.7
					c17.7,42.7,26.8,89,26.8,135.3c0,46.3-9,92.5-26.8,135.3c-17.7,42.7-44,81.9-76.7,114.6c-32.7,32.7-71.9,58.8-114.7,76.5
					C617.9,867,571.7,876,525.5,876z M525.5,875.9c46.2-0.1,92.4-9.2,135-26.9c42.7-17.7,81.7-43.9,114.4-76.6
					c32.6-32.7,58.7-71.8,76.3-114.5c8.8-21.3,15.5-43.5,20-66.1c4.5-22.6,6.7-45.7,6.8-68.8c0-46.1-9.1-92.3-26.7-134.9
					c-17.6-42.6-43.8-81.7-76.4-114.4c-32.6-32.6-71.7-58.8-114.3-76.5c-42.6-17.7-88.8-26.8-134.9-26.9c-46.2,0-92.3,9-135,26.7
					c-21.3,8.8-41.8,19.7-61,32.6c-19.2,12.8-37.1,27.6-53.4,43.9c-32.6,32.7-58.8,71.8-76.4,114.5C182,430.7,173,476.8,173,523
					c0,23.1,2.3,46.2,6.8,68.8c4.5,22.6,11.2,44.8,20,66.1c17.6,42.7,43.7,81.8,76.3,114.5c32.6,32.7,71.7,58.9,114.4,76.6
					C433.1,866.7,479.3,875.8,525.5,875.9z"/>
			</g>
			<g>
				<path d="M871,523c-0.1-45.2-9-90.5-26.3-132.2c-17.3-41.8-43-80-75-112c-32-31.9-70.3-57.5-112.1-74.7
					c-20.9-8.6-42.6-15.2-64.8-19.6c-22.2-4.4-44.8-6.6-67.3-6.6c-45.2,0-90.4,8.8-132.2,26.1c-41.8,17.2-80.1,42.8-112.1,74.8
					c-16,16-30.4,33.5-43,52.3c-12.6,18.8-23.3,38.8-31.9,59.7c-17.3,41.8-26.1,87-26.1,132.2c0.1,45.2,9,90.4,26.3,132.1
					c17.3,41.8,42.9,80,74.9,111.9c32,31.9,70.2,57.6,112,74.8c41.7,17.3,86.9,26.2,132.1,26.2c22.6,0,45.2-2.2,67.3-6.6
					c22.2-4.4,43.9-11,64.8-19.6c41.8-17.2,80.1-42.8,112.1-74.7c32-31.9,57.7-70.2,75-112C862,613.5,870.9,568.2,871,523z
					 M871.1,523c0,45.2-8.8,90.5-26.1,132.3c-17.3,41.8-42.9,80.2-74.9,112.3c-32,32.1-70.3,57.8-112.2,75.1
					c-41.8,17.4-87.2,26.3-132.5,26.3c-45.3,0-90.6-8.9-132.5-26.3c-41.9-17.3-80.2-43-112.3-75c-32-32-57.7-70.4-75-112.3
					c-17.3-41.9-26.2-87.1-26.1-132.4c0-45.3,8.9-90.5,26.3-132.4c17.3-41.8,43-80.1,75-112.2c32-32,70.3-57.7,112.1-75.1
					c41.8-17.4,87.1-26.3,132.4-26.3c45.3,0,90.6,8.8,132.4,26.2c41.8,17.3,80.2,43.1,112.2,75.1c32,32.1,57.6,70.4,74.9,112.3
					C862.3,432.5,871.1,477.8,871.1,523z"/>
			</g>
			<g>
				<path d="M525.5,861.2c-44.3,0-88.6-8.6-129.5-25.6c-41-16.9-78.5-42-109.9-73.3c-31.4-31.3-56.5-68.8-73.5-109.8
					c-17.1-40.9-25.7-85.3-25.7-129.6c0-44.3,8.8-88.6,25.8-129.6c17-40.9,42.1-78.5,73.5-109.8c31.4-31.3,68.9-56.4,109.8-73.4
					c40.9-17,85.2-25.7,129.5-25.8c44.3,0,88.6,8.6,129.6,25.6c41,16.9,78.6,42,109.9,73.4c31.4,31.4,56.5,68.9,73.4,109.9
					c17,41,25.7,85.3,25.7,129.6c0,44.3-8.7,88.7-25.7,129.6c-17,41-42.2,78.5-73.5,109.8c-31.4,31.3-68.9,56.4-109.9,73.3
					C614.1,852.6,569.8,861.3,525.5,861.2z M525.5,861.1c44.3-0.1,88.5-8.8,129.4-25.8c40.9-16.9,78.3-42.1,109.6-73.4
					c31.2-31.3,56.3-68.8,73.1-109.7c8.4-20.4,14.9-41.7,19.1-63.4c4.3-21.7,6.4-43.8,6.5-65.9c0-44.2-8.7-88.4-25.6-129.3
					c-16.9-40.9-41.9-78.3-73.2-109.6c-31.3-31.3-68.7-56.4-109.6-73.3c-40.8-17-85.1-25.7-129.3-25.8c-44.2,0-88.5,8.6-129.4,25.6
					c-20.4,8.4-40.1,18.9-58.5,31.2c-18.4,12.3-35.6,26.4-51.2,42.1c-31.3,31.3-56.3,68.8-73.2,109.7
					c-16.9,40.9-25.6,85.1-25.6,129.4c0,22.1,2.2,44.2,6.5,65.9c4.3,21.7,10.8,42.9,19.2,63.4c16.9,40.9,41.9,78.4,73.1,109.7
					c31.3,31.3,68.7,56.4,109.6,73.4C437,852.4,481.2,861.1,525.5,861.1z"/>
			</g>
			<g>
				<path d="M856.3,523c-0.1-43.3-8.6-86.6-25.2-126.6c-16.6-40-41.1-76.6-71.8-107.2c-30.6-30.6-67.3-55.1-107.3-71.5
					c-20-8.2-40.8-14.5-62-18.8c-21.2-4.2-42.8-6.3-64.5-6.4c-43.3,0-86.5,8.4-126.5,25c-40,16.5-76.7,41-107.3,71.6
					c-15.3,15.3-29.1,32.1-41.2,50.1c-12,18-22.3,37.2-30.5,57.2c-16.6,40-25,83.3-25,126.6c0.1,43.3,8.6,86.5,25.2,126.5
					c16.6,40,41.1,76.6,71.7,107.2c30.6,30.6,67.2,55.1,107.2,71.6c40,16.6,83.2,25.1,126.5,25.1c21.6,0,43.3-2.1,64.5-6.3
					c21.2-4.2,42-10.5,62-18.7c40-16.5,76.7-41,107.3-71.5c30.6-30.6,55.2-67.2,71.8-107.2C847.7,609.6,856.2,566.3,856.3,523z
					 M856.4,523c0,43.3-8.4,86.7-25,126.7c-16.5,40.1-41.1,76.8-71.7,107.5c-30.6,30.7-67.3,55.3-107.4,71.9
					c-40.1,16.7-83.5,25.1-126.8,25.2c-43.4,0-86.8-8.5-126.8-25.2c-40.1-16.6-76.8-41.2-107.5-71.8
					c-30.7-30.7-55.2-67.4-71.8-107.5c-16.6-40.1-25.1-83.4-25-126.8c0-43.4,8.6-86.7,25.2-126.7c16.6-40,41.2-76.7,71.8-107.4
					c30.6-30.7,67.3-55.3,107.4-71.9c40-16.7,83.4-25.2,126.8-25.2c43.4,0,86.8,8.4,126.8,25.1c40.1,16.6,76.8,41.2,107.4,71.9
					c30.6,30.7,55.2,67.4,71.7,107.5C848,436.3,856.4,479.7,856.4,523z"/>
			</g>
			<g>
				<path d="M525.5,846.5c-42.4,0-84.7-8.2-123.9-24.5c-39.2-16.2-75.1-40.1-105.1-70.1c-30-29.9-54.1-65.8-70.3-105
					c-16.3-39.2-24.5-81.6-24.5-124c0-42.4,8.4-84.8,24.7-123.9c16.2-39.2,40.3-75,70.3-105c30-29.9,65.9-54,105-70.2
					c39.1-16.3,81.5-24.6,123.9-24.6c42.4,0,84.8,8.3,124,24.5c39.2,16.2,75.2,40.2,105.1,70.2c30,30,54,65.9,70.3,105.1
					c16.3,39.2,24.6,81.6,24.6,124c0,42.4-8.3,84.8-24.6,124c-16.3,39.2-40.3,75.1-70.4,105c-30,29.9-65.9,53.9-105.1,70.1
					C610.2,838.3,567.9,846.6,525.5,846.5z M525.5,846.4c42.3-0.1,84.7-8.4,123.8-24.7c39.1-16.2,74.9-40.2,104.8-70.2
					c29.9-30,53.8-65.8,69.9-104.9c8.1-19.5,14.2-39.9,18.3-60.6c4.1-20.7,6.2-41.9,6.2-63c0-42.3-8.3-84.6-24.5-123.7
					c-16.2-39.1-40.1-74.9-70-104.8c-29.9-29.9-65.7-53.9-104.8-70.1c-39.1-16.3-81.4-24.6-123.7-24.6c-42.3,0-84.6,8.3-123.8,24.5
					c-19.6,8.1-38.3,18.1-55.9,29.9c-17.6,11.7-34,25.3-49,40.2c-29.9,30-53.9,65.8-70,104.9c-16.2,39.1-24.5,81.4-24.4,123.7
					c0,21.2,2.1,42.3,6.2,63c4.1,20.7,10.3,41.1,18.3,60.6c16.1,39.1,40.1,75,70,104.9c29.9,30,65.7,54,104.8,70.2
					C440.8,838,483.2,846.4,525.5,846.4z"/>
			</g>
			<g>
				<path d="M841.6,523c-0.1-41.4-8.2-82.8-24.1-121c-15.8-38.2-39.3-73.2-68.6-102.4c-29.3-29.2-64.3-52.6-102.5-68.4
					c-19.1-7.9-39-13.9-59.2-17.9c-20.3-4-40.9-6-61.6-6.1c-41.3,0-82.7,8.1-120.9,23.9c-38.2,15.8-73.3,39.2-102.6,68.4
					c-14.6,14.6-27.8,30.7-39.3,47.9c-11.5,17.2-21.3,35.5-29.2,54.6c-15.8,38.2-23.9,79.6-23.9,120.9c0.1,41.4,8.2,82.7,24.1,120.9
					c15.8,38.2,39.3,73.2,68.5,102.4c29.2,29.2,64.2,52.6,102.4,68.4c38.2,15.8,79.5,23.9,120.8,23.9c20.7,0,41.3-2,61.6-6
					c20.3-4,40.1-10,59.2-17.9c38.2-15.7,73.3-39.1,102.5-68.3c29.3-29.2,52.8-64.2,68.6-102.4C833.4,605.8,841.5,564.4,841.6,523z
					 M841.7,523c0,41.4-8,82.8-23.9,121.1c-15.8,38.3-39.2,73.4-68.5,102.7c-29.3,29.3-64.3,52.9-102.6,68.8
					c-38.3,16-79.7,24-121.2,24.1c-41.5,0-82.9-8.2-121.2-24c-38.3-15.8-73.4-39.3-102.7-68.7c-29.3-29.3-52.8-64.4-68.6-102.8
					c-15.9-38.3-23.9-79.7-23.9-121.2c0-41.4,8.2-82.8,24.1-121.1c15.9-38.3,39.3-73.3,68.6-102.6c29.3-29.3,64.3-52.8,102.6-68.7
					c38.3-15.9,79.7-24.1,121.1-24.1c41.4,0,82.9,8,121.2,24c38.3,15.9,73.4,39.4,102.6,68.7c29.3,29.3,52.7,64.4,68.5,102.7
					C833.6,440.2,841.7,481.6,841.7,523z"/>
			</g>
			<g>
				<path d="M525.5,831.8c-40.4,0-80.9-7.9-118.3-23.3c-37.4-15.4-71.7-38.3-100.3-66.9c-28.6-28.6-51.6-62.8-67.1-100.2
					c-15.6-37.4-23.4-77.9-23.4-118.4c0-40.5,8-80.9,23.6-118.3c15.5-37.4,38.5-71.6,67.1-100.2c28.6-28.6,62.9-51.5,100.3-67
					c37.4-15.5,77.8-23.5,118.3-23.5c40.5,0,80.9,7.9,118.4,23.4c37.4,15.4,71.7,38.3,100.4,67c28.6,28.6,51.6,62.9,67.1,100.3
					c15.5,37.4,23.5,77.9,23.5,118.4c0,40.5-7.9,81-23.5,118.4c-15.5,37.4-38.5,71.7-67.2,100.2c-28.7,28.6-62.9,51.5-100.3,66.9
					C606.4,824,565.9,831.9,525.5,831.8z M525.5,831.7c40.4-0.1,80.8-8,118.1-23.6c37.3-15.5,71.5-38.4,100-67
					c28.5-28.6,51.4-62.8,66.7-100.2c7.7-18.7,13.6-38.1,17.5-57.9c3.9-19.8,5.9-40,5.9-60.2c0-40.4-7.9-80.7-23.4-118
					c-15.4-37.3-38.3-71.5-66.8-100.1c-28.6-28.5-62.7-51.5-100-66.9c-37.3-15.5-77.7-23.5-118.1-23.5c-40.4,0-80.8,7.9-118.1,23.3
					c-18.7,7.7-36.6,17.3-53.4,28.5c-16.8,11.2-32.5,24.1-46.8,38.4c-28.5,28.6-51.4,62.8-66.8,100.2
					c-15.5,37.3-23.3,77.7-23.3,118.1c0,20.2,2,40.4,5.9,60.2c3.9,19.8,9.8,39.2,17.5,57.9c15.4,37.3,38.2,71.6,66.8,100.2
					c28.5,28.6,62.7,51.5,100.1,67C444.7,823.7,485.1,831.7,525.5,831.7z"/>
			</g>
			<g>
				<path d="M826.8,523c-0.1-39.4-7.8-78.9-23.1-115.2c-15.2-36.4-37.7-69.6-65.7-97.3c-28-27.6-61.3-49.9-97.6-64.8
					c-18.2-7.5-37.1-13.2-56.3-17c-19.3-3.8-38.9-5.8-58.6-5.8c-19.7,0-39.3,1.8-58.6,5.6c-19.3,3.7-38.2,9.4-56.4,16.9
					c-18.2,7.5-35.7,16.7-52.1,27.6c-16.4,10.9-31.7,23.4-45.7,37.3c-13.9,13.9-26.5,29.2-37.5,45.6c-10.9,16.4-20.3,33.9-27.8,52.1
					c-15.1,36.4-22.6,75.8-22.5,115.2c0.1,39.4,7.9,78.7,23.1,114.9c15.1,36.3,37.5,69.5,65.3,97.3c27.8,27.7,61.1,50,97.4,64.9
					c18.1,7.5,37,13.2,56.3,17c19.3,3.8,38.9,5.7,58.5,5.8c19.6,0,39.3-1.9,58.5-5.7c19.3-3.8,38.1-9.5,56.3-16.9
					c36.4-14.9,69.7-37.1,97.7-64.7c28-27.7,50.4-60.9,65.7-97.3C818.9,601.9,826.7,562.4,826.8,523z M827.1,523
					c0,19.7-1.9,39.5-5.7,58.9c-3.8,19.4-9.5,38.4-17,56.7c-14.9,36.6-37.2,70.2-65,98.3c-27.8,28.2-61.4,50.7-98,66
					c-36.6,15.3-76.3,23-115.9,23.1c-39.7,0-79.4-7.7-116-23c-36.6-15.2-70.2-37.7-98.2-65.8c-14-14-26.6-29.4-37.6-46
					c-11-16.5-20.3-34.1-27.8-52.4c-15.1-36.6-22.7-76.3-22.6-115.8c0.1-19.8,2.1-39.6,6-58.9c3.9-19.4,9.7-38.4,17.3-56.6
					c15.2-36.5,37.6-70,65.5-98c14-14,29.3-26.6,45.7-37.6c16.4-11.1,33.9-20.5,52.1-28.1c36.5-15.3,76.1-23.2,115.7-23.4
					c39.6,0,79.3,7.6,115.9,22.9c36.6,15.2,70.1,37.7,98,65.9c27.9,28.1,50.1,61.7,65.1,98.3c7.4,18.3,13.2,37.3,17,56.7
					C825.2,483.5,827.1,503.3,827.1,523z"/>
			</g>
			<g>
				<path d="M525.5,817.1c-38.5,0-77-7.5-112.6-22.2c-35.6-14.7-68.3-36.5-95.6-63.7c-27.3-27.2-49.2-59.8-63.9-95.5
					C238.5,600.1,231,561.5,231,523c0-38.6,7.6-77.1,22.4-112.7c14.8-35.6,36.6-68.2,63.9-95.4c27.3-27.2,59.9-49.1,95.5-63.8
					c35.6-14.8,74.1-22.4,112.6-22.4c38.5,0,77.1,7.5,112.7,22.2c35.6,14.7,68.3,36.5,95.6,63.8c27.3,27.3,49.1,59.9,63.9,95.6
					c14.8,35.6,22.4,74.2,22.4,112.8c0,38.6-7.5,77.1-22.4,112.8c-14.8,35.6-36.7,68.2-64,95.5c-27.3,27.2-60,49-95.6,63.7
					C602.5,809.7,564,817.2,525.5,817.1z M525.5,817c38.5-0.1,77-7.6,112.5-22.4c35.5-14.7,68.1-36.6,95.3-63.8
					c27.2-27.2,48.9-59.8,63.6-95.4c7.3-17.8,12.9-36.2,16.6-55.1c3.7-18.9,5.6-38.1,5.6-57.3c0-38.4-7.5-76.9-22.3-112.4
					c-14.7-35.5-36.5-68.1-63.6-95.3c-27.2-27.2-59.7-49-95.2-63.7c-35.5-14.8-74-22.4-112.4-22.4c-38.5,0-76.9,7.5-112.5,22.2
					c-35.6,14.7-68.2,36.5-95.4,63.7c-27.2,27.2-49,59.8-63.6,95.4c-14.7,35.5-22.2,74-22.2,112.5c0,19.2,1.9,38.5,5.7,57.3
					c3.7,18.9,9.4,37.3,16.7,55.1c14.6,35.5,36.4,68.1,63.6,95.4c27.2,27.2,59.7,49.1,95.3,63.8C448.5,809.4,487,817,525.5,817z"/>
			</g>
			<g>
				<path d="M812.2,523c-0.1-37.5-7.4-75.1-21.9-109.7c-14.4-34.7-35.7-66.4-62.2-92.9c-26.6-26.5-58.3-47.7-93-62
					c-17.3-7.1-35.3-12.6-53.7-16.3c-18.4-3.7-37.1-5.5-55.9-5.5c-37.5,0-75,7.3-109.6,21.7c-34.7,14.3-66.5,35.5-93,62
					c-26.6,26.5-47.8,58.3-62.1,93C246.4,448,239,485.5,239,523c0.1,37.5,7.4,75,21.8,109.6c14.4,34.6,35.6,66.4,62.1,92.9
					c26.5,26.5,58.3,47.7,92.9,62.1c34.6,14.4,72.1,21.7,109.6,21.7c18.7,0,37.5-1.8,55.9-5.5c18.4-3.6,36.4-9.1,53.7-16.2
					c34.7-14.3,66.4-35.5,93-62c26.6-26.5,47.9-58.2,62.2-92.9C804.7,598.1,812.1,560.5,812.2,523z M812.3,523
					c0,37.5-7.3,75.1-21.7,109.8c-14.3,34.7-35.6,66.6-62.1,93.2c-26.5,26.6-58.3,48-93.1,62.4c-34.7,14.5-72.3,21.8-109.9,21.8
					c-37.6,0-75.2-7.4-109.9-21.8c-34.8-14.4-66.6-35.7-93.2-62.3c-26.6-26.6-47.9-58.5-62.2-93.2c-14.4-34.7-21.7-72.3-21.7-109.9
					c0-37.6,7.4-75.1,21.9-109.8c14.4-34.7,35.7-66.5,62.2-93.1c26.5-26.6,58.3-47.9,93.1-62.3c34.7-14.4,72.3-21.8,109.9-21.9
					c37.6,0,75.2,7.3,109.9,21.8c34.7,14.4,66.5,35.8,93.1,62.4c26.5,26.6,47.8,58.5,62.1,93.2C805,447.9,812.3,485.5,812.3,523z"/>
			</g>
			<g>
				<path d="M525.5,802.4c-36.6,0-73.2-7.1-107-21.1c-33.8-13.9-64.9-34.7-90.8-60.5c-25.9-25.9-46.7-56.9-60.8-90.7
					c-14.1-33.8-21.2-70.5-21.2-107.1c0-36.6,7.3-73.2,21.3-107.1c14-33.8,34.8-64.8,60.7-90.7c25.9-25.8,56.9-46.6,90.7-60.6
					c33.8-14.1,70.4-21.3,107-21.3c36.6,0,73.2,7.1,107.1,21.1c33.9,14,64.9,34.7,90.8,60.6c25.9,25.9,46.7,56.9,60.7,90.8
					c14.1,33.8,21.2,70.5,21.3,107.1c0,36.6-7.2,73.3-21.3,107.1c-14,33.8-34.9,64.8-60.8,90.7c-25.9,25.9-57,46.6-90.8,60.5
					C598.7,795.3,562.1,802.5,525.5,802.4z M525.5,802.3c36.6-0.1,73.1-7.3,106.9-21.3c33.8-14,64.7-34.8,90.5-60.6
					c25.8-25.9,46.5-56.8,60.4-90.6c6.9-16.9,12.3-34.4,15.8-52.3c3.5-17.9,5.3-36.2,5.3-54.4c0-36.5-7.2-73-21.2-106.8
					c-13.9-33.7-34.6-64.7-60.5-90.5c-25.8-25.8-56.7-46.6-90.5-60.5c-33.7-14-70.3-21.2-106.8-21.3c-36.5,0-73.1,7.1-106.9,21.1
					c-33.8,13.9-64.8,34.6-90.6,60.5c-25.8,25.9-46.5,56.8-60.4,90.6c-14,33.8-21.1,70.3-21.1,106.8c0,18.3,1.8,36.5,5.4,54.4
					c3.6,17.9,8.9,35.5,15.8,52.3c13.9,33.8,34.6,64.7,60.4,90.6c25.8,25.9,56.7,46.6,90.5,60.6
					C452.4,795.1,488.9,802.3,525.5,802.3z"/>
			</g>
			<g>
				<path d="M797.5,523c-0.1-35.6-7.1-71.2-20.8-104.1c-13.6-32.9-33.8-63-59-88.1c-25.2-25.1-55.3-45.3-88.2-58.8
					c-16.4-6.8-33.5-12-51-15.4c-17.4-3.5-35.2-5.2-53-5.2c-35.6,0-71.1,6.9-104,20.5c-32.9,13.6-63,33.7-88.2,58.8
					c-25.2,25.1-45.4,55.3-58.9,88.2c-13.6,32.9-20.6,68.5-20.6,104.1c0.1,35.6,7.1,71.1,20.7,104c13.6,32.9,33.8,62.9,58.9,88.1
					c25.1,25.1,55.3,45.3,88.1,58.9c32.8,13.6,68.4,20.6,104,20.6c17.8,0,35.6-1.8,53-5.2c17.4-3.5,34.5-8.6,51-15.4
					c32.9-13.5,63-33.6,88.2-58.8c25.2-25.1,45.4-55.2,59-88.1C790.4,594.2,797.4,558.6,797.5,523z M797.6,523
					c0,35.6-6.9,71.3-20.5,104.2c-13.6,33-33.7,63.2-58.9,88.4c-25.2,25.2-55.4,45.5-88.3,59.2c-32.9,13.7-68.6,20.7-104.3,20.7
					c-35.7,0-71.4-7-104.3-20.7c-33-13.6-63.2-33.9-88.4-59.1c-25.2-25.2-45.4-55.5-59-88.4c-13.6-33-20.6-68.6-20.6-104.3
					c0-35.7,7.1-71.3,20.7-104.2c13.6-32.9,33.9-63.1,59-88.3c25.2-25.2,55.4-45.5,88.3-59.1c32.9-13.7,68.6-20.7,104.2-20.8
					c35.7,0,71.4,6.9,104.3,20.6c33,13.7,63.1,33.9,88.3,59.2c25.2,25.2,45.4,55.5,58.9,88.4C790.7,451.7,797.6,487.4,797.6,523z"/>
			</g>
			<g>
				<path d="M525.5,787.7c-34.7,0-69.3-6.7-101.4-20c-32.1-13.2-61.5-32.8-86-57.3c-24.6-24.5-44.3-53.9-57.6-85.9
					c-13.4-32-20.1-66.8-20.1-101.5c0-34.7,6.9-69.4,20.2-101.4c13.3-32,33-61.4,57.5-85.9c24.6-24.5,53.9-44.2,85.9-57.4
					c32-13.3,66.7-20.1,101.4-20.2c34.7,0,69.4,6.7,101.5,20c32.1,13.2,61.5,32.9,86.1,57.4c24.5,24.5,44.2,53.9,57.5,86
					c13.3,32.1,20.1,66.8,20.1,101.5c0,34.7-6.8,69.4-20.1,101.5c-13.3,32.1-33,61.4-57.6,85.9c-24.6,24.5-54,44.1-86,57.3
					C594.8,781,560.2,787.8,525.5,787.7z M525.5,787.6c34.6-0.1,69.3-6.9,101.3-20.2c32-13.3,61.3-32.9,85.7-57.4
					c24.4-24.5,44-53.9,57.2-85.8c6.6-16,11.6-32.6,15-49.6c3.4-17,5-34.3,5.1-51.6c0-34.6-6.8-69.2-20-101.1
					c-13.2-32-32.8-61.3-57.3-85.7c-24.5-24.5-53.7-44.1-85.7-57.4c-32-13.3-66.6-20.1-101.2-20.2c-34.6,0-69.2,6.7-101.2,20
					c-32,13.2-61.4,32.8-85.8,57.3c-24.5,24.5-44.1,53.9-57.3,85.9c-13.2,32-20,66.6-20,101.2c0,17.3,1.7,34.6,5.1,51.6
					c3.4,17,8.4,33.6,15,49.6c13.2,32,32.8,61.3,57.2,85.8c24.4,24.5,53.7,44.2,85.7,57.4C456.2,780.7,490.9,787.6,525.5,787.6z"/>
			</g>
			<g>
				<path d="M525.5,773.1c-16.4,0-32.7-1.6-48.8-4.7c-16.1-3.1-31.8-7.9-47-14.1c-30.3-12.4-58.2-30.9-81.5-54
					c-23.3-23.1-42-50.9-54.6-81.2c-12.7-30.3-19-63.2-19-96c0.1-32.8,6.6-65.6,19.3-95.9c12.6-30.3,31.3-58,54.5-81.1
					c23.2-23.1,50.9-41.7,81.2-54.3c30.3-12.6,63-19.1,95.8-19.2c32.8-0.1,65.6,6.3,96,18.8c30.4,12.5,58.2,31,81.5,54.2
					c23.3,23.2,41.9,51,54.5,81.4c12.6,30.3,19,63.2,19,96.1c0,32.9-6.4,65.7-19.1,96.1c-12.6,30.3-31.3,58.1-54.6,81.2
					c-23.3,23.1-51.1,41.6-81.5,54c-15.2,6.2-30.9,11-47,14.1C558.2,771.5,541.9,773.1,525.5,773.1z M525.5,772.9
					c32.7-0.1,65.4-6.5,95.6-19.1c30.2-12.6,57.8-31.2,80.8-54.4c23-23.2,41.4-50.8,53.8-81c6.2-15.1,10.9-30.8,14.1-46.7
					c3.2-16,4.7-32.3,4.7-48.6c0-16.3-1.6-32.6-4.8-48.6c-3.2-16-7.9-31.6-14.1-46.7c-12.4-30.1-30.9-57.8-53.9-80.8
					c-23-23.1-50.6-41.6-80.7-54.2c-30.1-12.6-62.7-19.1-95.4-19.1c-32.7,0-65.3,6.3-95.5,18.8c-15.1,6.2-29.6,13.9-43.2,23
					c-13.6,9.1-26.3,19.5-37.8,31.1c-11.5,11.6-21.9,24.3-31,37.9c-9,13.6-16.7,28.1-22.9,43.2c-12.4,30.2-18.7,62.9-18.7,95.5
					c0,16.3,1.6,32.6,4.8,48.6c3.2,16,7.9,31.7,14.1,46.7c12.4,30.2,30.9,57.8,53.8,81c23,23.2,50.6,41.8,80.8,54.4
					C460.1,766.4,492.8,772.8,525.5,772.9z"/>
			</g>
			<g>
				<path d="M768,523c-0.1-31.7-6.3-63.5-18.6-92.8c-12.2-29.3-30.3-56.1-52.8-78.4c-22.5-22.3-49.3-40.2-78.6-52.2
					c-14.6-6-29.8-10.6-45.4-13.7c-15.5-3.1-31.3-4.6-47.2-4.7c-31.7-0.1-63.3,6-92.7,18.1c-14.7,6-28.7,13.5-41.9,22.3
					c-13.2,8.8-25.5,18.9-36.8,30.1c-11.2,11.2-21.4,23.5-30.2,36.7c-8.8,13.2-16.3,27.3-22.3,41.9c-12.1,29.3-18.3,61-18.2,92.7
					c0.1,31.7,6.4,63.4,18.6,92.6c12.2,29.2,30.2,56,52.6,78.4c22.4,22.4,49.2,40.3,78.5,52.3c14.6,6,29.8,10.6,45.3,13.7
					c15.5,3.1,31.3,4.6,47.1,4.6c15.8,0,31.6-1.5,47.1-4.6c15.5-3.1,30.7-7.7,45.4-13.7c29.3-12,56.1-29.9,78.6-52.2
					c22.5-22.3,40.6-49.1,52.8-78.4C761.7,586.5,767.9,554.7,768,523z M768.2,523c0,15.9-1.5,31.8-4.6,47.4
					c-3,15.6-7.7,30.9-13.7,45.6c-12,29.4-30,56.5-52.4,79.1c-22.4,22.6-49.4,40.8-78.8,53c-29.4,12.3-61.3,18.5-93.2,18.6
					c-31.9,0-63.8-6.2-93.3-18.5c-29.5-12.2-56.5-30.3-79-52.9c-22.5-22.6-40.5-49.6-52.6-79.1c-12.1-29.5-18.3-61.3-18.3-93.2
					c0.1-31.8,6.4-63.7,18.6-93c12.2-29.4,30.3-56.3,52.7-78.8c22.5-22.5,49.4-40.6,78.8-52.9c29.4-12.3,61.2-18.6,93.1-18.7
					c31.9,0,63.8,6.2,93.2,18.4c29.4,12.2,56.4,30.3,78.8,53c22.4,22.6,40.4,49.6,52.4,79.1c6,14.7,10.6,30,13.7,45.6
					C766.7,491.2,768.2,507.1,768.2,523z"/>
			</g>
		</g>
		<g>
		</g>
	</g>
</g>
<g id="mask">
	<g>
		<g>
			<path class="lign_copy-st2" d="M525.5,1037.6C241,1037.6,10.9,807.5,10.9,523S241,8.4,525.5,8.4s514.6,230.2,514.6,514.6
				S810,1037.6,525.5,1037.6z"/>
			<path class="lign_copy-st2" d="M1032.8,523c0-280.4-226.9-507.3-507.3-507.3S18.2,242.6,18.2,523s226.9,507.3,507.3,507.3
				S1032.8,803.4,1032.8,523z"/>
			<path class="lign_copy-st2" d="M525.5,1022.9c-276.3,0-499.9-223.6-499.9-499.9S249.2,23.1,525.5,23.1s499.9,223.6,499.9,499.9
				S801.8,1022.9,525.5,1022.9z"/>
			<path class="lign_copy-st2" d="M1018.1,523c0-272.3-220.3-492.6-492.6-492.6S32.9,250.7,32.9,523s220.3,492.6,492.6,492.6
				S1018.1,795.3,1018.1,523z"/>
			<path class="lign_copy-st2" d="M525.5,1008.2c-268.2,0-485.2-217-485.2-485.2s217-485.2,485.2-485.2s485.2,217,485.2,485.2
				S793.7,1008.2,525.5,1008.2z"/>
			<path class="lign_copy-st2" d="M1003.4,523c0-264.1-213.7-477.9-477.9-477.9S47.6,258.9,47.6,523s213.7,477.9,477.9,477.9
				S1003.4,787.1,1003.4,523z"/>
			<path class="lign_copy-st2" d="M87.7,350.4c95.4-242,368.4-360.6,610.3-265.2s360.6,368.4,265.2,610.3s-368.4,360.6-610.3,265.2
				S-7.6,592.4,87.7,350.4z"/>
			<path class="lign_copy-st2" d="M988.7,523c0-256-207.2-463.2-463.2-463.2S62.3,267,62.3,523s207.2,463.2,463.2,463.2S988.7,779,988.7,523z"
				/>
			<path class="lign_copy-st2" d="M525.5,978.8C273.5,978.8,69.7,775,69.7,523S273.5,67.2,525.5,67.2S981.3,271,981.3,523
				S777.5,978.8,525.5,978.8z"/>
			<path class="lign_copy-st2" d="M974,523c0-247.9-200.6-448.5-448.5-448.5S77,275.1,77,523s200.6,448.5,448.5,448.5S974,770.9,974,523z"/>
			<path class="lign_copy-st2" d="M525.5,964.1C281.7,964.1,84.4,766.8,84.4,523S281.7,81.9,525.5,81.9S966.6,279.2,966.6,523
				S769.3,964.1,525.5,964.1z"/>
			<path class="lign_copy-st2" d="M959.3,523c0-239.8-194-433.8-433.8-433.8S91.7,283.2,91.7,523s194,433.8,433.8,433.8S959.3,762.8,959.3,523
				z"/>
			<path class="lign_copy-st2" d="M525.5,949.4C289.8,949.4,99.1,758.7,99.1,523S289.8,96.6,525.5,96.6S951.9,287.3,951.9,523
				S761.2,949.4,525.5,949.4z"/>
			<path class="lign_copy-st2" d="M944.6,523c0-231.6-187.4-419.1-419.1-419.1S106.4,291.4,106.4,523s187.4,419.1,419.1,419.1
				S944.6,754.6,944.6,523z"/>
			<path class="lign_copy-st2" d="M525.5,934.7c-227.6,0-411.7-184.1-411.7-411.7s184.1-411.7,411.7-411.7S937.2,295.4,937.2,523
				S753.1,934.7,525.5,934.7z"/>
			<path class="lign_copy-st2" d="M929.9,523c0-223.5-180.9-404.4-404.4-404.4S121.1,299.5,121.1,523S302,927.4,525.5,927.4
				S929.9,746.5,929.9,523z"/>
			<path class="lign_copy-st2" d="M525.5,920c-219.4,0-397-177.6-397-397s177.6-397,397-397s397,177.6,397,397S744.9,920,525.5,920z"/>
			<path class="lign_copy-st2" d="M915.2,523c0-215.4-174.3-389.7-389.7-389.7S135.8,307.6,135.8,523s174.3,389.7,389.7,389.7
				S915.2,738.4,915.2,523z"/>
			<path class="lign_copy-st2" d="M525.5,905.3c-211.3,0-382.3-171-382.3-382.3s171-382.3,382.3-382.3s382.3,171,382.3,382.3
				S736.8,905.3,525.5,905.3z"/>
			<path class="lign_copy-st2" d="M900.5,523c0-207.3-167.7-375-375-375s-375,167.7-375,375s167.7,375,375,375S900.5,730.3,900.5,523z"/>
			<path class="lign_copy-st2" d="M525.5,890.6c-203.2,0-367.6-164.4-367.6-367.6s164.4-367.6,367.6-367.6S893.1,319.8,893.1,523
				S728.7,890.6,525.5,890.6z"/>
			<path class="lign_copy-st2" d="M885.8,523c0-199.1-161.1-360.3-360.3-360.3S165.2,323.9,165.2,523s161.1,360.3,360.3,360.3
				S885.8,722.1,885.8,523z"/>
			<path class="lign_copy-st2" d="M525.5,875.9c-195.1,0-352.9-157.8-352.9-352.9s157.8-352.9,352.9-352.9S878.4,327.9,878.4,523
				S720.6,875.9,525.5,875.9z"/>
			<path class="lign_copy-st2" d="M871,523c0-191-154.6-345.5-345.5-345.5S180,332,180,523s154.6,345.5,345.5,345.5S871,714,871,523z"/>
			<path class="lign_copy-st2" d="M525.5,861.2c-186.9,0-338.2-151.3-338.2-338.2s151.3-338.2,338.2-338.2S863.7,336.1,863.7,523
				S712.4,861.2,525.5,861.2z"/>
			<path class="lign_copy-st2" d="M856.3,523c0-182.9-148-330.8-330.8-330.8S194.7,340.1,194.7,523s148,330.8,330.8,330.8
				S856.3,705.9,856.3,523z"/>
			<path class="lign_copy-st2" d="M525.5,846.5C346.7,846.5,202,701.8,202,523s144.7-323.5,323.5-323.5S849,344.2,849,523
				S704.3,846.5,525.5,846.5z"/>
			<path class="lign_copy-st2" d="M841.6,523c0-174.7-141.4-316.1-316.1-316.1S209.4,348.3,209.4,523s141.4,316.1,316.1,316.1
				S841.6,697.7,841.6,523z"/>
			<path class="lign_copy-st2" d="M525.5,831.8c-170.7,0-308.8-138.1-308.8-308.8s138.1-308.8,308.8-308.8S834.3,352.3,834.3,523
				S696.2,831.8,525.5,831.8z"/>
			<path class="lign_copy-st2" d="M826.9,523c0-166.6-134.8-301.4-301.4-301.4S224.1,356.4,224.1,523s134.8,301.4,301.4,301.4
				S826.9,689.6,826.9,523z"/>
			<path class="lign_copy-st2" d="M525.5,817.1c-162.6,0-294.1-131.5-294.1-294.1s131.5-294.1,294.1-294.1S819.6,360.4,819.6,523
				S688.1,817.1,525.5,817.1z"/>
			<path class="lign_copy-st2" d="M812.2,523c0-158.5-128.2-286.7-286.7-286.7S238.8,364.5,238.8,523S367,809.7,525.5,809.7
				S812.2,681.5,812.2,523z"/>
			<path class="lign_copy-st2" d="M525.5,802.4c-154.4,0-279.4-125-279.4-279.4s125-279.4,279.4-279.4s279.4,125,279.4,279.4
				S679.9,802.4,525.5,802.4z"/>
			<path class="lign_copy-st2" d="M797.5,523c0-150.4-121.7-272-272-272s-272,121.7-272,272s121.7,272,272,272S797.5,673.4,797.5,523z"/>
			<path class="lign_copy-st2" d="M525.5,787.7c-146.3,0-264.7-118.4-264.7-264.7s118.4-264.7,264.7-264.7S790.2,376.7,790.2,523
				S671.8,787.7,525.5,787.7z"/>
			<path class="lign_copy-st2" d="M525.5,773c-138.2,0-250-111.8-250-250s111.8-250,250-250s250,111.8,250,250S663.7,773,525.5,773z"/>
			<path class="lign_copy-st2" d="M768.1,523c0-134.1-108.5-242.6-242.6-242.6S282.9,388.9,282.9,523s108.5,242.6,242.6,242.6
				S768.1,657.1,768.1,523z"/>
		</g>
		<g>
		</g>
	</g>
</g>
</svg>
