<?xml version="1.0" encoding="utf-8"?>
<svg version="1.1" id="Layer_1" xmlns="http://www.w3.org/2000/svg" xmlns:xlink="http://www.w3.org/1999/xlink" x="0px" y="0px"
	 viewBox="0 0 132 84.2" style="enable-background:new 0 0 132 84.2;" xml:space="preserve">
<path  fill="#faf9e5" d="M48.1,76.1c-9,0-18.2-1.4-27.4-4.4c-0.8-0.2-1.2-1.1-1-1.9c0.2-0.8,1.1-1.2,1.9-1c26.3,8.3,52.6,4.2,74.2-11.5
	c19.1-14,31.9-35.9,31.9-54.5c0-0.8,0.7-1.5,1.5-1.5s1.5,0.7,1.5,1.5c0,19.6-13.3,42.4-33.1,56.9C82.7,70.6,65.7,76.1,48.1,76.1z"/>
<path  fill="#faf9e5" d="M7.2,76.1c-0.6,0-1.2-0.4-1.4-1l-5.4-16l16.8-6.4c0.8-0.3,1.6,0.1,1.9,0.9s-0.1,1.6-0.9,1.9L4.2,60.9l4.4,13.2
	c0.3,0.8-0.2,1.6-0.9,1.9C7.5,76.1,7.4,76.1,7.2,76.1z"/>
</svg>
