<?xml version="1.0" encoding="utf-8"?>
<svg version="1.1" xmlns="http://www.w3.org/2000/svg" xmlns:xlink="http://www.w3.org/1999/xlink" width="752" height="32" viewBox="0 0 752 32">
<svg id="logopartenaire-lign_tuto" width="50" height="32" viewBox="0 0 50 32" x="0" y="0">
<path fill="#faf9e5" d="M18.28 28.922c-3.42 0-6.917-0.532-10.413-1.672-0.304-0.076-0.456-0.418-0.38-0.722s0.418-0.456 0.722-0.38c9.995 3.154 19.99 1.596 28.2-4.371 7.259-5.321 12.123-13.644 12.123-20.713 0-0.304 0.266-0.57 0.57-0.57s0.57 0.266 0.57 0.57c0 7.449-5.055 16.114-12.58 21.625-5.663 4.143-12.123 6.233-18.812 6.233z"></path>
<path fill="#faf9e5" d="M2.736 28.922c-0.228 0-0.456-0.152-0.532-0.38l-2.052-6.081 6.385-2.432c0.304-0.114 0.608 0.038 0.722 0.342s-0.038 0.608-0.342 0.722l-5.321 2.052 1.672 5.017c0.114 0.304-0.076 0.608-0.342 0.722-0.076 0.038-0.114 0.038-0.19 0.038z"></path>
</svg>
</svg>
