<?xml version="1.0" encoding="utf-8"?>
<!-- Generator: Adobe Illustrator 21.1.0, SVG Export Plug-In . SVG Version: 6.00 Build 0)  -->
<svg version="1.1" id="Layer_1" xmlns="http://www.w3.org/2000/svg" xmlns:xlink="http://www.w3.org/1999/xlink" x="0px" y="0px"
	 viewBox="0 0 1050 1050" style="enable-background:new 0 0 1050 1050;" xml:space="preserve">
<style type="text/css">
	.platine-st0{fill:none;stroke:#333333;stroke-miterlimit:10;}
	.platine-st1{fill:none;stroke:#000000;stroke-miterlimit:10;}
	.platine-st2{fill:none;stroke:#12100B;stroke-width:3;stroke-miterlimit:10;}
	.platine-st3{fill:none;stroke:#13120D;stroke-width:3;stroke-miterlimit:10;}
</style>
<g>
	<line class="platine-st0" x1="505.3" y1="13.7" x2="505.9" y2="25.9"/>
	<line class="platine-st0" x1="482.4" y1="15.1" x2="483.5" y2="27.3"/>
	<line class="platine-st0" x1="459.6" y1="17.5" x2="461.2" y2="29.6"/>
	<line class="platine-st0" x1="436.9" y1="20.9" x2="439" y2="33"/>
	<line class="platine-st0" x1="392" y1="30.8" x2="395.3" y2="42.6"/>
	<line class="platine-st0" x1="370" y1="37.3" x2="373.8" y2="48.9"/>
	<line class="platine-st0" x1="348.2" y1="44.7" x2="352.5" y2="56.2"/>
	<line class="platine-st0" x1="326.9" y1="53.1" x2="331.7" y2="64.4"/>
	<line class="platine-st0" x1="285.3" y1="72.8" x2="291.1" y2="83.5"/>
	<line class="platine-st0" x1="265.3" y1="84" x2="271.6" y2="94.5"/>
	<line class="platine-st0" x1="245.8" y1="96" x2="252.5" y2="106.3"/>
	<line class="platine-st0" x1="226.8" y1="109" x2="234" y2="118.9"/>
	<line class="platine-st0" x1="190.7" y1="137.4" x2="198.7" y2="146.6"/>
	<line class="platine-st0" x1="173.6" y1="152.7" x2="182" y2="161.6"/>
	<line class="platine-st0" x1="157.2" y1="168.9" x2="166.1" y2="177.3"/>
	<line class="platine-st0" x1="141.6" y1="185.7" x2="150.8" y2="193.8"/>
	<line class="platine-st0" x1="112.7" y1="221.4" x2="122.6" y2="228.6"/>
	<line class="platine-st0" x1="99.5" y1="240.2" x2="109.7" y2="247"/>
	<line class="platine-st0" x1="87.1" y1="259.6" x2="97.6" y2="265.8"/>
	<line class="platine-st0" x1="75.6" y1="279.5" x2="86.4" y2="285.3"/>
	<line class="platine-st0" x1="55.4" y1="320.7" x2="66.6" y2="325.5"/>
	<line class="platine-st0" x1="46.7" y1="342" x2="58.1" y2="346.3"/>
	<line class="platine-st0" x1="38.9" y1="363.6" x2="50.6" y2="367.4"/>
	<line class="platine-st0" x1="32.2" y1="385.5" x2="43.9" y2="388.8"/>
	<line class="platine-st0" x1="21.6" y1="430.3" x2="33.6" y2="432.5"/>
	<line class="platine-st0" x1="17.8" y1="452.9" x2="29.9" y2="454.6"/>
	<line class="platine-st0" x1="15.1" y1="475.7" x2="27.2" y2="476.8"/>
	<line class="platine-st0" x1="13.4" y1="498.6" x2="25.6" y2="499.2"/>
	<line class="platine-st0" x1="13" y1="544.6" x2="25.2" y2="544"/>
	<line class="platine-st0" x1="14.4" y1="567.5" x2="26.5" y2="566.4"/>
	<line class="platine-st0" x1="16.7" y1="590.4" x2="28.9" y2="588.7"/>
	<line class="platine-st0" x1="20.2" y1="613.1" x2="32.2" y2="610.9"/>
	<line class="platine-st0" x1="30" y1="658" x2="41.8" y2="654.7"/>
	<line class="platine-st0" x1="36.5" y1="680" x2="48.1" y2="676.3"/>
	<line class="platine-st0" x1="43.9" y1="701.8" x2="55.3" y2="697.5"/>
	<line class="platine-st0" x1="52.2" y1="723.2" x2="63.5" y2="718.4"/>
	<line class="platine-st0" x1="71.8" y1="764.7" x2="82.6" y2="758.9"/>
	<line class="platine-st0" x1="83" y1="784.8" x2="93.5" y2="778.5"/>
	<line class="platine-st0" x1="95.1" y1="804.3" x2="105.3" y2="797.6"/>
	<line class="platine-st0" x1="108" y1="823.3" x2="117.9" y2="816.2"/>
	<line class="platine-st0" x1="136.3" y1="859.5" x2="145.5" y2="851.5"/>
	<line class="platine-st0" x1="151.7" y1="876.6" x2="160.5" y2="868.1"/>
	<line class="platine-st0" x1="167.8" y1="893" x2="176.3" y2="884.1"/>
	<line class="platine-st0" x1="184.6" y1="908.6" x2="192.7" y2="899.4"/>
	<line class="platine-st0" x1="220.3" y1="937.5" x2="227.5" y2="927.7"/>
	<line class="platine-st0" x1="239.1" y1="950.8" x2="245.8" y2="940.6"/>
	<line class="platine-st0" x1="258.4" y1="963.2" x2="264.7" y2="952.7"/>
	<line class="platine-st0" x1="278.3" y1="974.7" x2="284.1" y2="963.9"/>
	<line class="platine-st0" x1="319.5" y1="995" x2="324.3" y2="983.7"/>
	<line class="platine-st0" x1="340.7" y1="1003.7" x2="345" y2="992.3"/>
	<line class="platine-st0" x1="362.3" y1="1011.5" x2="366.1" y2="999.8"/>
	<line class="platine-st0" x1="384.3" y1="1018.3" x2="387.6" y2="1006.5"/>
	<line class="platine-st0" x1="429" y1="1028.9" x2="431.2" y2="1016.8"/>
	<line class="platine-st0" x1="451.6" y1="1032.7" x2="453.3" y2="1020.5"/>
	<line class="platine-st0" x1="474.4" y1="1035.4" x2="475.5" y2="1023.3"/>
	<line class="platine-st0" x1="497.3" y1="1037.2" x2="497.9" y2="1025"/>
	<line class="platine-st0" x1="543.3" y1="1037.6" x2="542.7" y2="1025.4"/>
	<line class="platine-st0" x1="566.2" y1="1036.2" x2="565.1" y2="1024"/>
	<line class="platine-st0" x1="589" y1="1033.9" x2="587.4" y2="1021.7"/>
	<line class="platine-st0" x1="611.7" y1="1030.5" x2="609.6" y2="1018.4"/>
	<line class="platine-st0" x1="656.6" y1="1020.6" x2="653.4" y2="1008.8"/>
	<line class="platine-st0" x1="678.7" y1="1014.2" x2="674.9" y2="1002.6"/>
	<line class="platine-st0" x1="700.4" y1="1006.8" x2="696.1" y2="995.4"/>
	<line class="platine-st0" x1="721.8" y1="998.5" x2="717" y2="987.2"/>
	<line class="platine-st0" x1="763.4" y1="978.9" x2="757.6" y2="968.1"/>
	<line class="platine-st0" x1="783.4" y1="967.7" x2="777.2" y2="957.2"/>
	<line class="platine-st0" x1="803" y1="955.7" x2="796.3" y2="945.5"/>
	<line class="platine-st0" x1="822" y1="942.8" x2="814.8" y2="932.9"/>
	<line class="platine-st0" x1="858.2" y1="914.5" x2="850.1" y2="905.2"/>
	<line class="platine-st0" x1="875.2" y1="899.1" x2="866.8" y2="890.3"/>
	<line class="platine-st0" x1="891.6" y1="883" x2="882.8" y2="874.5"/>
	<line class="platine-st0" x1="907.3" y1="866.2" x2="898.1" y2="858.1"/>
	<line class="platine-st0" x1="936.3" y1="830.5" x2="926.4" y2="823.3"/>
	<line class="platine-st0" x1="949.5" y1="811.8" x2="939.3" y2="805"/>
	<line class="platine-st0" x1="961.9" y1="792.4" x2="951.4" y2="786.1"/>
	<line class="platine-st0" x1="973.4" y1="772.6" x2="962.7" y2="766.7"/>
	<line class="platine-st0" x1="993.7" y1="731.4" x2="982.5" y2="726.5"/>
	<line class="platine-st0" x1="1002.5" y1="710.1" x2="991.1" y2="705.8"/>
	<line class="platine-st0" x1="1010.3" y1="688.5" x2="998.7" y2="684.7"/>
	<line class="platine-st0" x1="1017.1" y1="666.6" x2="1005.3" y2="663.3"/>
	<line class="platine-st0" x1="1027.7" y1="621.9" x2="1015.7" y2="619.7"/>
	<line class="platine-st0" x1="1031.5" y1="599.2" x2="1019.4" y2="597.5"/>
	<line class="platine-st0" x1="1034.3" y1="576.4" x2="1022.2" y2="575.3"/>
	<line class="platine-st0" x1="1036.1" y1="553.5" x2="1023.9" y2="552.9"/>
	<line class="platine-st0" x1="1036.5" y1="507.6" x2="1024.3" y2="508.1"/>
	<line class="platine-st0" x1="1035.2" y1="484.6" x2="1023" y2="485.7"/>
	<line class="platine-st0" x1="1032.9" y1="461.8" x2="1020.7" y2="463.4"/>
	<line class="platine-st0" x1="1029.5" y1="439" x2="1017.4" y2="441.2"/>
	<line class="platine-st0" x1="1019.7" y1="394.2" x2="1007.9" y2="397.4"/>
	<line class="platine-st0" x1="1013.3" y1="372.1" x2="1001.7" y2="375.8"/>
	<line class="platine-st0" x1="1005.9" y1="350.3" x2="994.5" y2="354.6"/>
	<line class="platine-st0" x1="997.6" y1="328.9" x2="986.3" y2="333.7"/>
	<line class="platine-st0" x1="978.1" y1="287.3" x2="967.3" y2="293.1"/>
	<line class="platine-st0" x1="966.9" y1="267.2" x2="956.4" y2="273.5"/>
	<line class="platine-st0" x1="954.9" y1="247.7" x2="944.7" y2="254.4"/>
	<line class="platine-st0" x1="942" y1="228.6" x2="932.1" y2="235.8"/>
	<line class="platine-st0" x1="913.7" y1="192.4" x2="904.5" y2="200.5"/>
	<line class="platine-st0" x1="898.4" y1="175.3" x2="889.6" y2="183.8"/>
	<line class="platine-st0" x1="882.3" y1="158.9" x2="873.9" y2="167.7"/>
	<line class="platine-st0" x1="865.5" y1="143.2" x2="857.5" y2="152.4"/>
	<line class="platine-st0" x1="829.9" y1="114.2" x2="822.7" y2="124.1"/>
	<line class="platine-st0" x1="811.2" y1="101" x2="804.4" y2="111.2"/>
	<line class="platine-st0" x1="791.9" y1="88.5" x2="785.6" y2="99"/>
	<line class="platine-st0" x1="772" y1="77" x2="766.2" y2="87.8"/>
	<line class="platine-st0" x1="730.8" y1="56.7" x2="726" y2="67.9"/>
	<line class="platine-st0" x1="709.6" y1="47.9" x2="705.3" y2="59.3"/>
	<line class="platine-st0" x1="688" y1="40.1" x2="684.2" y2="51.7"/>
	<line class="platine-st0" x1="666.1" y1="33.2" x2="662.8" y2="45"/>
	<g>
		<line class="platine-st1" x1="528.3" y1="4.4" x2="528.3" y2="34.2"/>
		<g>
			<line class="platine-st1" x1="412.4" y1="18.2" x2="419.3" y2="46.5"/>
			<line class="platine-st1" x1="299.8" y1="54.8" x2="313.8" y2="81.9"/>
			<line class="platine-st1" x1="203.4" y1="117.3" x2="222.7" y2="141.2"/>
			<line class="platine-st1" x1="119.1" y1="197" x2="144.7" y2="217.1"/>
			<line class="platine-st1" x1="57.1" y1="296.2" x2="85.5" y2="309"/>
			<line class="platine-st1" x1="18.3" y1="405.2" x2="47.3" y2="412.3"/>
			<line class="platine-st1" x1="4.9" y1="521.6" x2="33.3" y2="521.6"/>
			<line class="platine-st1" x1="17.3" y1="637.4" x2="45.7" y2="630.7"/>
			<line class="platine-st1" x1="55" y1="747.9" x2="80.3" y2="735.6"/>
			<line class="platine-st1" x1="114.9" y1="847.1" x2="137.1" y2="829.2"/>
			<line class="platine-st1" x1="197.6" y1="928.4" x2="215.1" y2="907.5"/>
			<line class="platine-st1" x1="295.2" y1="991.3" x2="307.6" y2="967.8"/>
			<line class="platine-st1" x1="405.7" y1="1030.7" x2="411.9" y2="1005.2"/>
			<line class="platine-st1" x1="520.4" y1="1045.6" x2="520.9" y2="1019"/>
			<line class="platine-st1" x1="636" y1="1033.3" x2="629.8" y2="1006.7"/>
			<line class="platine-st1" x1="746.6" y1="996.5" x2="734.2" y2="971.4"/>
			<line class="platine-st1" x1="845.2" y1="934.1" x2="829.2" y2="913.6"/>
			<line class="platine-st1" x1="928.4" y1="853.8" x2="907.7" y2="835.9"/>
			<line class="platine-st1" x1="992.4" y1="756.6" x2="966.1" y2="743.8"/>
			<line class="platine-st1" x1="1031.1" y1="646.6" x2="1004.3" y2="640"/>
			<line class="platine-st1" x1="1045.1" y1="530.5" x2="1018.2" y2="530.5"/>
			<line class="platine-st1" x1="1034.8" y1="414.4" x2="1005.3" y2="421.6"/>
			<line class="platine-st1" x1="996.5" y1="304.4" x2="970.2" y2="317.7"/>
			<line class="platine-st1" x1="936.6" y1="204.7" x2="913.9" y2="222.6"/>
			<line class="platine-st1" x1="854.5" y1="120.8" x2="835.4" y2="143.8"/>
			<line class="platine-st1" x1="755.9" y1="57.4" x2="743" y2="83.5"/>
			<line class="platine-st1" x1="646.4" y1="17.5" x2="639.1" y2="46.1"/>
		</g>
	</g>
	<line class="platine-st0" x1="621.4" y1="22.6" x2="619.2" y2="34.6"/>
	<line class="platine-st0" x1="598.7" y1="18.7" x2="597.1" y2="30.8"/>
	<line class="platine-st0" x1="576" y1="15.9" x2="574.8" y2="28.1"/>
	<line class="platine-st0" x1="553.1" y1="14.1" x2="552.5" y2="26.3"/>
</g>
<ellipse class="platine-st2" cx="525" cy="525" rx="521.3" ry="521.7"/>
<path class="platine-st3" d="M518.8,1016.6c-270.4-3.4-487.6-226.8-484.2-497.9C38,247.7,260.8,29.9,531.2,33.4
	c270.4,3.4,487.6,226.8,484.2,497.9C1012,802.3,789.2,1020.1,518.8,1016.6z"/>
</svg>
