<?xml version="1.0" encoding="utf-8"?>
<!-- Generator: Adobe Illustrator 21.1.0, SVG Export Plug-In . SVG Version: 6.00 Build 0)  -->
<svg version="1.1" id="Layer_1" xmlns="http://www.w3.org/2000/svg" xmlns:xlink="http://www.w3.org/1999/xlink" x="0px" y="0px"
	 viewBox="0 0 202 40" style="enable-background:new 0 0 202 40;" xml:space="preserve">
<style type="text/css">
	.sennheiser-st0{fill-rule:evenodd;clip-rule:evenodd;fill:#FFFFFF;}
</style>
<path class="sennheiser-st0" d="M23,5.8H8.4v14.6h1.8V7.6h11.1C21.9,6.8,22.5,6.2,23,5.8L23,5.8z M21.6,25h14.6V10.3h-1.8v12.8H23.3
	C22.8,24,22.2,24.6,21.6,25L21.6,25z M22.7,22.3c-1.6,2.6-3.1,2.6-4.9,2.6H8.4v-3.7h2.9c1.9,0,3.5-1,4.3-2.4l6.3-10.4
	c1.6-2.6,3.1-2.6,4.9-2.6h9.4v3.7h-2.9c-1.9,0-3.5,1-4.3,2.4L22.7,22.3L22.7,22.3z"/>
<path class="sennheiser-st0" d="M55.3,17.4c0.9,1.1,0.6,3.9-2.1,3.9h-7.6v-2.4h3.4c0.6,0,0.8-0.6,0.4-1.1l-3.2-4.3c-0.9-1.1-0.6-3.9,2.1-3.9
	h7.6v2.4h-3.4c-0.6,0-0.7,0.6-0.3,1.1L55.3,17.4L55.3,17.4z M161.2,17.4c0.9,1.1,0.6,3.9-2.1,3.9h-7.6v-2.4h3.4
	c0.6,0,0.7-0.6,0.4-1.1l-3.2-4.3c-0.9-1.1-0.6-3.9,2.1-3.9h7.6v2.4h-3.4c-0.6,0-0.8,0.6-0.4,1.1L161.2,17.4L161.2,17.4z M59.7,9.5
	h10.4V12h-5.3v2.3h5.3v2.3h-5.3v2.2h5.3v2.5H59.7V9.5L59.7,9.5z M165.4,9.5h10.4V12h-5.3v2.3h5.3v2.3h-5.3v2.2h5.3v2.5h-10.4V9.5
	L165.4,9.5z M127.7,9.5h10.4V12h-5.3v2.3h5.3v2.3h-5.3v2.2h5.3v2.5h-10.4V9.5L127.7,9.5z M79.8,9.5h-5.3v11.8h2.4V14l4.8,7.3h5.4
	V9.5h-2.4v7.3L79.8,9.5L79.8,9.5z M96.5,9.5h-5.3v11.8h2.4V14l4.8,7.3h5.3V9.5h-2.4v7.3L96.5,9.5L96.5,9.5z M142.4,9.5h5.1v11.8
	h-5.1V9.5L142.4,9.5z M108.5,9.5h5.2V14h4.1V9.5h5.1v11.8h-5.1v-4.5h-4.1v4.5h-5.2V9.5L108.5,9.5z M187.6,16.6h-2.2v4.7h-5.1V9.5
	h10.6c1.3,0,3.2,1,3.4,3.2c0.1,1.4-0.4,2.6-2.3,3.5l2.6,5.1h-4.6L187.6,16.6L187.6,16.6z M185.4,11.9h3c0.6,0,1.2,0.5,1.2,1.2l0,0
	c0,0.6-0.5,1.2-1.2,1.2h-3V11.9L185.4,11.9z"/>
<path class="sennheiser-st0" d="M63.8,34.9c-0.1,0-0.2,0-0.3-0.1c-0.1-0.1-0.1-0.1-0.2-0.2c0-0.1,0-0.1-0.1-0.2c0-0.2,0-0.4,0-0.6
	c0.1-0.2,0.2-0.3,0.3-0.5c0.2-0.2,0.3-0.4,0.5-0.6c0,0,0.1,0,0.1,0c0.1-0.2,0.3-0.3,0.4-0.5c0,0,0.1,0,0.1,0
	c0.1-0.1,0.1-0.1,0.2-0.2c0,0,0-0.1,0-0.1c0.1-0.1,0.3-0.3,0.4-0.4c0.1-0.1,0.2-0.2,0.4-0.3c0,0,0-0.1,0-0.1
	c0.1-0.1,0.1-0.1,0.2-0.2c0-0.1,0.1-0.1,0.1-0.2c0,0,0.1-0.1,0.1-0.1c0.2-0.2,0.3-0.3,0.5-0.5c0,0,0-0.1,0-0.1
	c0.1-0.1,0.2-0.3,0.4-0.4c0-0.1,0-0.1,0-0.2c-0.3,0.1-0.5,0.2-0.8,0.2c-0.1,0-0.1,0.1-0.2,0.1c-0.1,0-0.2,0.1-0.4,0.1
	c-0.2,0.1-0.3,0.1-0.5,0.2c0,0,0,0,0,0.1c-0.1,0-0.2,0.1-0.3,0.1c-0.1,0-0.1,0.1-0.2,0.1c-0.1,0-0.3,0.1-0.4,0.1
	c-0.1,0-0.1,0.1-0.2,0.1c-0.2,0-0.3,0.1-0.5,0.1c0,0-0.1,0.1-0.1,0.1c-0.2,0-0.3,0.1-0.5,0.1c-0.1,0-0.1,0.1-0.2,0.1
	c-0.2,0-0.3,0.1-0.5,0.1c-0.1,0-0.1,0.1-0.2,0.1c-0.2,0-0.5,0.1-0.8,0.1c0,0-0.1,0-0.1,0.1c-0.1,0-0.2,0-0.3,0.1c-0.4,0-0.9,0-1.3,0
	c-0.1,0-0.2,0-0.2-0.1c0,0,0,0,0-0.1c-0.1,0-0.2-0.1-0.3-0.1c-0.1-0.1-0.3-0.2-0.4-0.3c-0.1-0.1-0.2-0.2-0.4-0.3
	c-0.3,0.1-0.7,0.1-1,0.2c0,0,0,0,0,0.1c-0.2,0-0.3,0.1-0.5,0.1c0,0-0.1,0.1-0.1,0.1c-0.2,0-0.4,0.1-0.6,0.1c-0.2,0-0.3,0.1-0.5,0.1
	c-0.4,0-0.9,0-1.3,0c-0.3-0.1-0.6-0.1-1-0.2c0,0,0,0-0.1-0.1c-0.1,0-0.3-0.1-0.4-0.1c0,0-0.1-0.1-0.1-0.1c0,0-0.1,0-0.1,0
	c-0.1-0.1-0.3-0.3-0.4-0.4c-0.1-0.2-0.2-0.4-0.3-0.6c0,0,0-0.1,0-0.1c-0.1,0-0.2,0-0.3,0c0,0-0.1,0-0.1,0c0,0-0.1,0.1-0.1,0.1
	c-0.1,0-0.1,0-0.2,0c0,0-0.1,0.1-0.1,0.1c-0.1,0-0.2,0.1-0.4,0.1c-0.2,0.1-0.3,0.1-0.5,0.2c0,0-0.1,0.1-0.1,0.1
	c-0.1,0-0.2,0.1-0.3,0.1c0,0-0.1,0.1-0.1,0.1c-0.3,0.1-0.6,0.2-0.9,0.3c-0.1,0-0.1,0.1-0.2,0.1c-0.1,0-0.2,0-0.3,0
	c0,0-0.1,0-0.1,0.1c0,0,0,0,0,0.1c-0.2,0-0.3,0.1-0.5,0.1c0,0-0.1,0.1-0.1,0.1c-0.4,0-0.7,0.1-1.1,0.1c0,0-0.1,0-0.1,0.1
	c-1.6,0-3.2,0-4.8,0.1c-2,0-4,0-6.1,0c0,0,0,0-0.1-0.1c-0.3,0-0.6,0.1-1,0.1c-0.1,0-0.2,0-0.3,0c0,0-0.1,0-0.1-0.1
	c-0.4,0-0.9,0-1.3,0c-8.3,0-16.5-0.1-24.8-0.1C8,31,8.1,31,8.3,30.9c0,0,0.1-0.1,0.1-0.1c0.1,0,0.3-0.1,0.4-0.1c0,0,0.1-0.1,0.1-0.1
	c0.2,0,0.3-0.1,0.5-0.1c0,0,0.1-0.1,0.1-0.1c0.1,0,0.2,0,0.3-0.1c2.4,0,4.8,0,7.2-0.1c8.2,0,16.5,0,24.7,0c0.9,0,1.8,0,2.6-0.1
	c0.1-0.1,0.1-0.2,0.2-0.3c0.1-0.2,0.1-0.3,0.2-0.5c0.1-0.2,0.2-0.3,0.4-0.5c0.2-0.1,0.3-0.3,0.5-0.4c0,0,0.1-0.1,0.1-0.1
	c0.3-0.2,0.6-0.4,1-0.5c0.1,0,0.1,0,0.2,0c0,0,0.1-0.1,0.1-0.1c0.2-0.1,0.5-0.2,0.7-0.3c0,0,0.1-0.1,0.1-0.1c0.1,0,0.3-0.1,0.4-0.1
	c0,0,0,0,0.1-0.1c0.4-0.1,0.7-0.2,1.1-0.3c0.1,0,0.1-0.1,0.2-0.1c0.2,0,0.3-0.1,0.5-0.1c0,0,0,0,0.1-0.1c0.4-0.1,0.8-0.1,1.2-0.2
	c0.5,0,0.9,0,1.4,0c0.1,0,0.2,0.1,0.3,0.1c0.1,0,0.3,0,0.4,0.1c0.2-0.1,0.4-0.2,0.6-0.3c0,0,0.1-0.1,0.1-0.1
	c0.1-0.1,0.3-0.2,0.4-0.3c0.1-0.1,0.2-0.2,0.3-0.3c0.1,0,0.1-0.1,0.2-0.1c0.1-0.1,0.1-0.1,0.2-0.2c0.1,0,0.1-0.1,0.2-0.1
	c0,0,0,0,0-0.1c0,0,0.1,0,0.1,0c0.2-0.2,0.4-0.3,0.6-0.5c0.1,0,0.1-0.1,0.2-0.1c0,0,0.1-0.1,0.1-0.1c0.1,0,0.2-0.1,0.2-0.1
	c0,0,0.1-0.1,0.1-0.1c0.1,0,0.2-0.1,0.3-0.1c0,0,0.1-0.1,0.1-0.1c0.1,0,0.2-0.1,0.4-0.1c0,0,0,0,0-0.1c0.1,0,0.2,0,0.3,0
	c0.1,0.1,0.2,0.1,0.3,0.2c0,0.1,0,0.1,0.1,0.2c0,0.1,0,0.2,0,0.4c-0.1,0.1-0.1,0.3-0.2,0.4c-0.1,0.1-0.2,0.2-0.2,0.2
	c0,0-0.1,0-0.1,0c-0.1,0.1-0.2,0.2-0.3,0.3c-0.2,0.1-0.4,0.2-0.5,0.4c-0.2,0.1-0.4,0.2-0.6,0.3c-0.1,0-0.1,0-0.2,0.1
	c0,0-0.1,0.1-0.1,0.1c-0.3,0.1-0.6,0.3-0.9,0.4c-0.1,0.1-0.3,0.2-0.4,0.3c-0.1,0-0.1,0.1-0.2,0.1c0,0-0.1,0.1-0.1,0.1
	c0,0-0.1,0-0.1,0c0,0-0.1,0.1-0.1,0.1c-0.1,0.1-0.3,0.2-0.4,0.4c-0.1,0.1-0.1,0.2-0.2,0.3c-0.1,0.1-0.1,0.1-0.2,0.2
	c-0.1,0.1-0.1,0.2-0.2,0.2c0,0.1-0.1,0.2-0.1,0.3c0,0.1,0,0.1,0,0.2c0,0.1,0.1,0.2,0.1,0.3c0,0,0.1,0,0.1,0c0.1,0.1,0.2,0.2,0.3,0.3
	c0.1,0,0.2,0,0.3,0.1c0,0,0.1,0.1,0.1,0.1c0.3,0,0.7,0,1.1,0c0.4,0,0.9,0,1.3,0c0.1,0,0.2,0,0.4-0.1c0,0,0,0,0-0.1
	c0.3-0.1,0.7-0.1,1-0.2c0.1,0,0.2-0.1,0.3-0.1c0.1-0.1,0.1-0.2,0.2-0.3c0.1-0.1,0.1-0.2,0.2-0.4c0.2-0.2,0.3-0.5,0.5-0.7
	c0,0,0.1,0,0.1-0.1c0,0,0-0.1,0-0.1c0.1-0.1,0.2-0.2,0.3-0.2c0,0,0.1,0,0.1,0c0,0,0.1-0.1,0.1-0.1c0.1-0.1,0.2-0.1,0.4-0.2
	c0,0,0,0,0-0.1c0.1,0,0.2-0.1,0.2-0.1c0,0,0.1-0.1,0.1-0.1c0.1,0,0.2-0.1,0.3-0.1c0,0,0,0,0.1-0.1c0.4-0.1,0.8-0.2,1.2-0.3
	c0,0,0.1,0,0.1-0.1c0.1,0,0.2,0,0.3-0.1c0.5,0,1.1,0,1.6,0c0.1,0,0.1,0.1,0.2,0.1c0.1,0,0.2,0.1,0.3,0.1c0,0.1,0.1,0.1,0.1,0.2
	c0,0.1,0,0.1,0.1,0.2c0,0.2,0,0.3,0,0.5c-0.1,0.1-0.1,0.2-0.2,0.3c-0.2,0.1-0.4,0.3-0.5,0.4c-0.2,0.1-0.4,0.2-0.7,0.3
	c-0.1,0-0.2,0.1-0.3,0.1c0,0-0.1,0.1-0.1,0.1c-0.1,0-0.2,0-0.2,0c0,0-0.1,0.1-0.1,0.1c-0.1,0-0.3,0.1-0.4,0.1c0,0-0.1,0.1-0.1,0.1
	c-0.2,0.1-0.4,0.1-0.6,0.2c-0.2,0-0.3,0.1-0.5,0.1c-0.1,0-0.1,0.1-0.2,0.1c-0.1,0-0.3,0.1-0.4,0.1c0,0.1,0,0.1,0,0.2
	c0.4,0,0.8,0,1.2,0c0.3,0,0.6-0.1,1-0.1c0,0,0,0,0.1-0.1c0.5-0.1,1.1-0.2,1.7-0.3c0.1,0,0.1-0.1,0.2-0.1c0.2,0,0.3-0.1,0.5-0.1
	c0,0,0,0,0.1-0.1c0.1,0,0.3-0.1,0.4-0.1c0.1,0,0.1-0.1,0.2-0.1c0.2,0,0.4-0.1,0.6-0.1c0.1,0,0.1-0.1,0.2-0.1c0.1,0,0.2-0.1,0.3-0.1
	c0,0,0.1-0.1,0.1-0.1c0.2,0,0.3-0.1,0.5-0.1c0,0,0,0,0-0.1c0.1,0,0.3-0.1,0.4-0.1c0.2-0.1,0.4-0.2,0.6-0.4c0.1-0.1,0.2-0.2,0.3-0.3
	c0.1,0,0.1-0.1,0.2-0.1c0.1-0.1,0.2-0.2,0.3-0.3c0,0,0.1,0,0.1,0c0,0,0-0.1,0-0.1c0.3-0.3,0.7-0.5,1-0.8c0,0,0.1-0.1,0.1-0.1
	c0.1-0.1,0.2-0.1,0.3-0.2c0,0,0.1-0.1,0.1-0.1c0.1,0,0.1-0.1,0.2-0.1c0.3-0.2,0.5-0.4,0.8-0.6c0.2-0.1,0.4-0.2,0.7-0.3
	c0.1,0,0.2-0.1,0.2-0.1c0,0,0.1-0.1,0.1-0.1c0.1,0,0.2-0.1,0.3-0.1c0,0,0,0,0-0.1c0.4-0.1,0.8-0.2,1.1-0.3c0.1,0,0.3,0,0.4,0
	c0.1,0,0.2,0,0.3,0c0,0,0.1,0.1,0.1,0.1c0,0.1,0,0.3,0,0.4c-0.2,0.2-0.3,0.4-0.5,0.6c-0.5,0.4-0.9,0.7-1.4,1.1
	c-0.5,0.3-0.9,0.5-1.4,0.8c0,0,0,0.1-0.1,0.1c-0.1,0-0.1,0-0.2,0c0,0-0.1,0.1-0.1,0.1c-0.2,0.1-0.4,0.2-0.6,0.3c0,0,0,0,0,0.1
	c0,0-0.1,0-0.1,0c-0.2,0.1-0.4,0.3-0.6,0.4c0,0,0,0.1,0,0.1c0,0-0.1,0.1-0.1,0.1c0,0,0,0.1,0.1,0.1c0.2,0,0.5,0,0.7,0.1
	c0.4,0,0.7-0.1,1.1-0.1c0.8-0.1,1.6-0.2,2.5-0.3c0,0,0.1,0,0.1-0.1c0.1,0,0.3-0.1,0.4-0.1c0.1-0.1,0.3-0.1,0.4-0.2
	c0.1,0,0.1-0.1,0.2-0.1c0.1,0,0.2-0.1,0.3-0.1c0,0,0,0,0.1-0.1c0.3-0.1,0.5-0.2,0.8-0.3c0.1,0,0.3,0,0.4,0c0,0,0.1,0,0.1,0
	c0,0,0,0.1,0.1,0.1c0,0.1,0,0.2,0,0.3c0,0.1-0.1,0.2-0.1,0.3c0,0-0.1,0-0.1,0c-0.1,0.1-0.2,0.2-0.2,0.2c-0.1,0.1-0.2,0.1-0.2,0.2
	c0,0-0.1,0.1-0.1,0.1c-0.1,0-0.1,0.1-0.2,0.1c-0.2,0.2-0.4,0.3-0.6,0.5c0,0,0,0.1,0,0.1c-0.1,0.1-0.1,0.1-0.2,0.2c0,0.1,0,0.3,0,0.4
	c0.1,0,0.1,0.1,0.2,0.1c0.1,0,0.2,0,0.3,0c0.2,0,0.3-0.1,0.5-0.1c0.3-0.1,0.6-0.3,1-0.4c0,0,0,0,0-0.1c0.1,0,0.2-0.1,0.3-0.1
	c0.2-0.1,0.4-0.2,0.6-0.3c0.1-0.1,0.3-0.2,0.4-0.2c0.1,0,0.2-0.1,0.3-0.1c0,0,0,0,0-0.1c0.2-0.1,0.5-0.2,0.8-0.3c0,0,0,0,0-0.1
	c0.2-0.1,0.5-0.2,0.8-0.3c0,0,0.1-0.1,0.1-0.1c0.1,0,0.2-0.1,0.3-0.1c0,0,0,0,0-0.1c0.2-0.1,0.4-0.1,0.6-0.2c0.2,0,0.4,0,0.6,0
	c0,0.2,0,0.3,0,0.5c-0.2,0.3-0.5,0.6-0.8,0.9c0,0,0,0.1,0,0.1c0,0,0,0-0.1,0c0,0.1,0,0.2,0,0.2c0.1,0,0.1,0,0.2,0
	c0.1,0,0.2-0.1,0.4-0.1c0.2-0.1,0.3-0.1,0.5-0.2c0.3-0.2,0.6-0.3,1-0.5c0,0,0.1-0.1,0.1-0.1c0.3-0.1,0.6-0.3,1-0.4
	c0,0,0.1-0.1,0.1-0.1c0.3-0.1,0.6-0.2,0.9-0.3c0.1,0,0.2-0.1,0.4-0.1c0,0,0,0,0-0.1c0.2,0,0.4-0.1,0.6-0.1c0,0,0,0,0-0.1
	c0.3,0,0.6-0.1,0.9-0.1c0.1,0,0.1,0,0.2,0.1c0,0,0.1,0.1,0.1,0.1c0,0,0,0.1,0.1,0.1c0,0.1,0,0.2,0,0.3c-0.2,0.3-0.4,0.6-0.6,0.9
	c0,0-0.1,0.1-0.1,0.1c-0.1,0.1-0.2,0.2-0.3,0.4c0,0,0,0.1,0,0.1c0,0,0,0-0.1,0c0,0.1,0,0.2-0.1,0.3c0,0.1,0.1,0.1,0.1,0.2
	c0.1,0,0.3,0,0.4,0c0,0,0.1-0.1,0.1-0.1c0.4-0.1,0.7-0.3,1.1-0.4c0,0,0.1-0.1,0.1-0.1c0.2-0.1,0.5-0.2,0.7-0.3
	c0.1,0,0.2-0.1,0.3-0.1c0,0,0.1-0.1,0.1-0.1c0.1,0,0.1,0,0.2,0c0,0,0.1-0.1,0.1-0.1c0.3-0.1,0.5-0.2,0.8-0.3c0,0,0.1-0.1,0.1-0.1
	c0.4-0.2,0.9-0.3,1.3-0.5c0.2,0,0.4,0,0.6,0c0.1,0.1,0.1,0.1,0.2,0.2c0,0.1,0,0.2,0,0.3c-0.1,0.1-0.1,0.2-0.2,0.3c0,0,0,0-0.1,0
	c0,0,0,0.1,0,0.1c0,0-0.1,0.1-0.1,0.1c-0.2,0.3-0.5,0.5-0.8,0.8c0,0.1,0,0.3,0,0.4c0,0,0,0.1,0,0.1c0,0,0.1,0,0.1,0.1
	c0.2,0,0.5,0,0.7,0c0.1,0,0.1-0.1,0.2-0.1c0.1,0,0.2-0.1,0.3-0.1c0.2-0.1,0.4-0.2,0.6-0.3c0.1,0,0.2-0.1,0.3-0.1
	c0.1,0,0.1-0.1,0.2-0.1c0.1,0,0.2-0.1,0.3-0.1c0,0,0.1-0.1,0.1-0.1c0.2-0.1,0.4-0.2,0.6-0.3c0,0,0.1-0.1,0.1-0.1
	c0.1,0,0.2-0.1,0.2-0.1c0,0,0,0,0-0.1c0.3-0.1,0.5-0.2,0.8-0.3c0,0,0.1-0.1,0.1-0.1c0.1,0,0.1,0,0.2,0c0,0,0.1-0.1,0.1-0.1
	c0.1-0.1,0.2-0.1,0.3-0.2c0.2,0,0.3-0.1,0.5-0.1c0,0,0,0,0.1-0.1c0.1,0,0.2,0,0.3-0.1c0.1,0,0.2,0,0.3,0c0.1,0.1,0.2,0.1,0.3,0.2
	c0,0.1,0,0.1,0.1,0.2c0,0.1,0,0.2,0,0.3c0,0,0,0-0.1,0c0,0,0,0.1,0,0.1c-0.2,0.2-0.4,0.4-0.6,0.7c-0.1,0.1-0.2,0.2-0.4,0.3
	c0,0.1-0.1,0.1-0.1,0.2c0,0.1,0,0.1,0,0.2c0.1,0,0.1,0.1,0.2,0.1c0.2-0.1,0.5-0.1,0.8-0.2c0,0,0,0,0-0.1c0.3-0.1,0.6-0.2,0.9-0.3
	c0,0,0,0,0-0.1c0.1,0,0.2-0.1,0.3-0.1c0,0,0.1-0.1,0.1-0.1c0.3-0.1,0.5-0.2,0.8-0.3c0.1,0,0.1-0.1,0.2-0.1c0.1,0,0.2-0.1,0.3-0.1
	c0,0,0,0,0-0.1c0.4-0.1,0.7-0.2,1.1-0.3c0.2-0.1,0.4-0.2,0.6-0.2c0.3,0,0.7-0.1,1-0.1c0.1,0,0.2,0.1,0.2,0.1c0,0.1,0.1,0.1,0.1,0.2
	c0,0.1-0.1,0.1-0.1,0.2c-0.1,0.1-0.1,0.1-0.2,0.2c-0.1,0-0.1,0.1-0.2,0.1c0,0-0.1,0.1-0.1,0.1c-0.3,0.2-0.6,0.4-0.9,0.5
	c-0.1,0.1-0.2,0.2-0.3,0.4c0,0.1,0,0.2,0,0.4c0,0,0.1,0.1,0.1,0.1c0.3,0,0.5,0,0.8,0c0.4-0.1,0.7-0.2,1.1-0.3c0.1,0,0.1-0.1,0.2-0.1
	c0.1,0,0.2-0.1,0.3-0.1c0,0,0,0,0-0.1c0.1,0,0.2-0.1,0.2-0.1c0.4-0.2,0.8-0.4,1.2-0.6c0.1-0.1,0.2-0.1,0.3-0.2
	c0.1,0,0.2-0.1,0.2-0.1c0,0,0,0,0-0.1c0.3-0.1,0.6-0.3,1-0.4c0.1,0,0.2-0.1,0.4-0.1c0,0,0,0,0-0.1c0.3-0.1,0.6-0.2,1-0.3
	c0.1,0,0.1-0.1,0.2-0.1c0.5-0.1,1-0.2,1.6-0.3c0.2,0,0.4-0.1,0.6-0.1c0,0,0.1,0,0.1-0.1c0.3,0,0.6,0,1,0c0.1,0.1,0.3,0.1,0.4,0.2
	c0.1,0.1,0.1,0.1,0.2,0.2c0.1,0.1,0.1,0.2,0.2,0.2c0,0.1,0,0.3,0,0.4c0,0,0,0.1-0.1,0.1c0,0,0,0-0.1,0c-0.1,0.1-0.1,0.3-0.2,0.4
	c-0.1,0.1-0.2,0.3-0.3,0.4c0,0-0.1,0.1-0.1,0.1c0,0,0,0.1,0,0.1c-0.4,0.5-0.8,1-1.3,1.5c-0.2,0.1-0.3,0.3-0.5,0.4
	c0,0-0.1,0.1-0.1,0.1c-0.3,0.2-0.6,0.4-0.9,0.7c-0.2,0.1-0.4,0.2-0.6,0.4c-0.2,0.1-0.4,0.2-0.6,0.3c-0.1,0-0.2,0.1-0.3,0.1
	c0,0-0.1,0.1-0.1,0.1c-0.3,0.1-0.7,0.2-1,0.3c-0.1,0-0.3,0.1-0.4,0.1c0,0,0,0-0.1,0.1c-0.2,0-0.4,0.1-0.6,0.1c0,0,0,0,0,0.1
	c-0.3,0.1-0.7,0.1-1,0.2c-0.4,0-0.8,0.1-1.2,0.1c-0.8,0-1.6,0-2.5,0c-0.2,0-0.3,0-0.5-0.1c-0.2,0-0.4-0.1-0.6-0.1
	c0,0-0.1-0.1-0.1-0.1c0,0,0-0.1,0-0.1c0.1,0,0.1-0.1,0.2-0.1c0.3,0,0.5-0.1,0.8-0.1c0.4,0,0.9-0.1,1.3-0.1c0.4-0.1,0.8-0.1,1.2-0.2
	c0.2-0.1,0.5-0.1,0.7-0.2c0.1,0,0.2-0.1,0.3-0.1c0.4-0.1,0.9-0.2,1.3-0.3c0.2-0.1,0.4-0.1,0.6-0.2c0,0,0,0,0.1-0.1
	c0.1,0,0.2-0.1,0.3-0.1c0.2-0.1,0.3-0.1,0.5-0.2c0,0,0,0,0-0.1c0.4-0.2,0.8-0.3,1.2-0.5c0,0,0,0,0-0.1c0,0,0.1,0,0.1,0
	c0.1-0.1,0.2-0.1,0.3-0.2c0.1-0.1,0.2-0.1,0.4-0.2c0,0,0.1-0.1,0.1-0.1c0.1,0,0.1-0.1,0.2-0.1c0,0,0.1-0.1,0.1-0.1
	c0.1,0,0.1-0.1,0.2-0.1c0.1-0.1,0.2-0.2,0.2-0.3c0-0.1,0-0.1,0-0.2c-0.1,0-0.3,0-0.4,0.1c-0.2,0.1-0.3,0.1-0.5,0.2
	c-0.1,0-0.2,0.1-0.4,0.1c-0.1,0-0.1,0.1-0.2,0.1c-0.5,0.1-1.1,0.3-1.7,0.4c-0.4,0-0.7,0-1.1,0c-0.1,0-0.2,0-0.4,0
	c-0.1-0.1-0.3-0.2-0.4-0.4c0,0-0.1,0-0.1,0c0,0,0,0,0-0.1c-0.1,0-0.2,0-0.3,0c-0.3,0.1-0.7,0.2-1,0.3c0,0,0,0,0,0.1
	c-0.1,0-0.3,0.1-0.4,0.1c0,0-0.1,0-0.1,0.1c-0.4,0.1-0.7,0.1-1.1,0.2c-0.3,0-0.6,0-1,0c-0.1,0-0.2-0.1-0.3-0.1
	c-0.1-0.1-0.1-0.2-0.2-0.3c-0.1-0.1-0.1-0.3-0.2-0.4c0-0.1,0-0.2,0-0.4c0.1-0.2,0.2-0.4,0.3-0.6c-0.1,0-0.2,0-0.3,0
	c-0.3,0.1-0.5,0.2-0.8,0.3c0,0-0.1,0.1-0.1,0.1c-0.1,0-0.1,0-0.2,0c0,0-0.1,0.1-0.1,0.1c-0.3,0.1-0.5,0.2-0.8,0.3c0,0,0,0,0,0.1
	c-0.1,0-0.1,0-0.2,0c0,0-0.1,0.1-0.1,0.1c-0.2,0.1-0.4,0.2-0.6,0.3c-0.1,0-0.1,0-0.2,0c0,0-0.1,0.1-0.1,0.1c-0.1,0-0.1,0-0.2,0
	c-0.1,0-0.1,0.1-0.2,0.1c-0.3,0-0.5,0-0.8,0c0,0-0.1,0-0.1-0.1c0,0,0-0.1,0-0.1c0,0-0.1,0-0.1,0c-0.1-0.1-0.1-0.2-0.2-0.3
	c0-0.2,0-0.3,0-0.5c0-0.2,0.1-0.3,0.1-0.5c0.1-0.1,0.1-0.2,0.2-0.2c0.1-0.1,0.1-0.1,0.2-0.2c0-0.1,0-0.2,0.1-0.3
	c-0.1,0-0.2,0-0.3,0.1c-0.3,0.1-0.6,0.3-0.9,0.4c-0.2,0.1-0.5,0.3-0.8,0.4c-0.5,0.2-0.9,0.4-1.4,0.6c-0.1,0-0.2,0.1-0.3,0.1
	c0,0-0.1,0.1-0.1,0.1c-0.3,0.1-0.7,0.2-1,0.3c-0.1,0-0.3,0-0.4,0c-0.2-0.1-0.3-0.3-0.5-0.4c-0.1-0.1-0.1-0.2-0.2-0.3
	c0-0.2,0-0.4,0-0.6c0-0.1,0.1-0.2,0.1-0.3c0-0.1,0-0.1,0-0.2c-0.1,0-0.3,0-0.4,0c0,0-0.1,0-0.1,0c0,0,0,0,0,0.1
	c-0.1,0-0.2,0.1-0.3,0.1c0,0-0.1,0.1-0.1,0.1c-0.1,0.1-0.3,0.1-0.4,0.2c0,0,0,0,0,0.1c-0.2,0.1-0.4,0.2-0.6,0.3
	c-0.2,0.1-0.4,0.2-0.6,0.3c0,0-0.1,0.1-0.1,0.1c-0.1,0-0.1,0.1-0.2,0.1c0,0-0.1,0.1-0.1,0.1c-0.2,0.1-0.4,0.2-0.7,0.4
	c-0.1,0-0.2,0.1-0.3,0.1c0,0,0,0,0,0.1c-0.2,0-0.5,0-0.8,0c0,0-0.1,0-0.1-0.1c0,0,0-0.1,0-0.1c0,0-0.1,0-0.1,0
	c-0.1-0.1-0.1-0.2-0.2-0.4c0-0.2,0-0.4,0-0.6c0.1-0.1,0.1-0.3,0.2-0.4c0.1-0.1,0.1-0.2,0.2-0.3c0.1-0.2,0.1-0.4,0.2-0.6
	c-0.2,0-0.4,0-0.6,0.1c0,0,0,0,0,0.1c-0.2,0-0.3,0.1-0.5,0.1c0,0,0,0,0,0.1c-0.2,0.1-0.5,0.2-0.8,0.3c0,0-0.1,0.1-0.1,0.1
	c-0.1,0-0.2,0.1-0.3,0.1c0,0,0,0,0,0.1c-0.1,0-0.2,0.1-0.3,0.1c-0.4,0.3-0.9,0.5-1.4,0.8c-0.1,0-0.2,0.1-0.2,0.1
	c-0.1,0.1-0.2,0.1-0.3,0.2c-0.1,0.1-0.2,0.1-0.4,0.2c0,0-0.1,0.1-0.1,0.1c-0.1,0-0.2,0.1-0.3,0.1c-0.1,0-0.3,0-0.4,0
	c-0.1,0-0.1,0-0.2,0c0,0-0.1-0.1-0.1-0.1c0,0-0.1,0-0.1,0c0-0.1-0.1-0.1-0.1-0.2c0-0.1,0-0.2,0-0.4c0.1-0.3,0.2-0.5,0.4-0.8
	c0-0.1,0-0.1,0-0.2c-0.2,0-0.3,0.1-0.5,0.1c-0.1,0.1-0.2,0.1-0.3,0.2c-0.1,0-0.2,0.1-0.3,0.1c0,0-0.1,0.1-0.1,0.1
	c-0.5,0.3-0.9,0.5-1.4,0.8c0,0-0.1,0.1-0.1,0.1c-0.2,0.1-0.5,0.2-0.8,0.3c-0.2,0.1-0.5,0.1-0.7,0.2c-0.2,0-0.5,0-0.7,0
	c0,0,0,0,0-0.1c-0.1,0-0.2-0.1-0.4-0.1c-0.1-0.1-0.2-0.2-0.3-0.3c-0.1-0.1-0.1-0.2-0.2-0.3c0-0.2,0-0.5,0-0.7c0-0.1,0.1-0.1,0.1-0.2
	c0,0,0.1-0.1,0.1-0.1c0-0.1,0-0.3,0-0.4c-0.1,0-0.1-0.1-0.2-0.1c-0.1,0-0.1,0-0.2,0c0,0-0.1,0-0.1,0.1c-0.3,0-0.5,0.1-0.8,0.1
	c-0.1,0-0.2,0.1-0.3,0.1c-1.3,0.1-2.6,0.3-4,0.4c-0.4,0.5-0.8,1-1.2,1.6c-0.3,0.3-0.6,0.7-0.9,1.1c-0.1,0.1-0.2,0.2-0.3,0.4
	c-0.1,0.1-0.1,0.1-0.2,0.2c-0.1,0.1-0.2,0.3-0.3,0.4c-0.2,0.3-0.4,0.7-0.6,1c-0.1,0.2-0.3,0.3-0.4,0.5c-0.1,0-0.1,0-0.2,0.1
	C64,34.9,63.9,34.9,63.8,34.9L63.8,34.9z M116.8,31.5c-0.5,0-1-0.1-1.5-0.1c-0.1,0-0.3-0.1-0.4-0.1c-0.1,0-0.2-0.1-0.3-0.1
	c0-0.1-0.1-0.1-0.1-0.2c0-0.1,0.1-0.1,0.1-0.2c0.1-0.1,0.2-0.1,0.2-0.2c0.1-0.1,0.3-0.1,0.4-0.2c0.4-0.1,0.9-0.2,1.3-0.3
	c0.9-0.1,1.8-0.1,2.7-0.2c0.1,0,0.2-0.1,0.3-0.1c0,0,0-0.1,0.1-0.1c-0.1,0-0.2-0.1-0.3-0.1c-0.8-0.1-1.5-0.1-2.3-0.2
	c-0.3,0-0.5-0.1-0.8-0.1c-0.1,0-0.1-0.1-0.2-0.1c0,0-0.1,0-0.1,0c-0.1,0-0.2-0.1-0.2-0.1c-0.1-0.1-0.1-0.2-0.2-0.3
	c0-0.1,0-0.2,0-0.3c0.1-0.1,0.2-0.2,0.3-0.4c0.2-0.1,0.4-0.2,0.6-0.3c0.2-0.1,0.4-0.1,0.6-0.2c0.6-0.1,1.1-0.2,1.7-0.3
	c0.3,0,0.6-0.1,0.9-0.1c0.5,0,1,0,1.6,0c0.2,0,0.4,0.1,0.6,0.1c0.2,0,0.4,0.1,0.5,0.1c0,0,0.1,0.1,0.1,0.1c0,0,0.1,0,0.1,0
	c0.1,0.1,0.1,0.1,0.2,0.2c0,0.1,0,0.2,0,0.3c-0.1,0.1-0.1,0.1-0.2,0.2c-0.1,0-0.1,0.1-0.2,0.1c-0.1,0-0.3,0-0.4,0
	c-0.2-0.1-0.3-0.1-0.5-0.2c-0.4,0-0.8,0-1.2,0c-0.6,0.1-1.3,0.1-2,0.2c-0.2,0-0.3,0.1-0.5,0.1c0,0,0,0.1,0,0.1c0,0,0.1,0.1,0.1,0.1
	c1,0.1,1.9,0.2,2.9,0.3c0.1,0.1,0.3,0.1,0.4,0.2c0.1,0.1,0.3,0.3,0.4,0.4c0.2,0,0.3,0,0.5,0c0.3-0.1,0.7-0.1,1-0.2
	c0.2-0.1,0.4-0.1,0.6-0.2c0.1,0,0.1-0.1,0.2-0.1c0,0,0.1,0,0.1,0c0,0,0.1-0.1,0.1-0.1c0.2-0.1,0.3-0.2,0.5-0.3c0,0,0.1,0,0.1,0
	c0,0,0.1-0.1,0.1-0.1c0.1,0,0.2-0.1,0.3-0.1c0.3-0.1,0.6-0.3,0.9-0.4c0.1,0,0.2-0.1,0.3-0.1c0.1,0,0.1-0.1,0.2-0.1
	c0.4-0.1,0.8-0.2,1.2-0.3c0.4-0.1,0.9-0.1,1.3-0.2c0.6,0,1.1,0,1.7,0c1.5-0.1,2.9-0.2,4.4-0.3c0.2,0,0.4,0,0.7,0.1
	c0,0,0.1,0.1,0.1,0.1c0,0.1,0,0.2,0,0.2c0,0.1-0.1,0.1-0.1,0.2c-0.1,0.1-0.3,0.2-0.4,0.3c-0.4,0.3-0.8,0.5-1.1,0.8
	c0,0-0.1,0.1-0.1,0.1c-0.1,0-0.1,0.1-0.2,0.1c-0.1,0.1-0.3,0.3-0.4,0.4c0,0.1,0,0.2,0,0.3c0,0,0.1,0.1,0.1,0.1c0.1,0,0.1,0,0.2,0.1
	c0.1,0,0.2,0,0.3,0c0.2,0,0.3-0.1,0.5-0.1c0.2-0.1,0.3-0.1,0.5-0.2c0,0,0,0,0-0.1c0.5-0.2,1.1-0.4,1.7-0.7c0.6-0.3,1.3-0.6,2-1
	c0.1-0.1,0.2-0.1,0.3-0.2c0.1-0.1,0.3-0.1,0.4-0.2c0,0,0.1-0.1,0.1-0.1c0.1,0,0.3-0.1,0.4-0.1c0.1,0,0.3,0,0.4,0
	c0,0,0.1,0.1,0.1,0.1c0,0.1,0,0.2,0,0.4c-0.1,0.1-0.1,0.2-0.2,0.3c-0.1,0.1-0.2,0.2-0.3,0.4c-0.1,0.1-0.3,0.2-0.4,0.3
	c0,0-0.1,0.1-0.1,0.1c0,0.2,0,0.3,0,0.5c0.1,0,0.1,0.1,0.2,0.1c0.2,0,0.4,0,0.6,0c0.1,0,0.3-0.1,0.4-0.1c0,0,0,0,0.1-0.1
	c0.2-0.1,0.4-0.1,0.7-0.2c0.9-0.3,1.8-0.7,2.6-1c0.5-0.2,0.9-0.5,1.4-0.8c0.3-0.1,0.6-0.2,0.9-0.3c0.1,0,0.2,0,0.3,0
	c0,0,0.1,0.1,0.1,0.1c0,0.1,0,0.2,0,0.3c-0.1,0.1-0.2,0.2-0.3,0.4c-0.2,0.1-0.3,0.3-0.5,0.4c-0.1,0.1-0.1,0.1-0.2,0.2
	c-0.1,0.1-0.3,0.2-0.4,0.3c0,0-0.1,0.1-0.1,0.1c-0.1,0.1-0.2,0.1-0.2,0.2c0,0-0.1,0.1-0.1,0.1c0,0,0,0.1,0,0.1c0,0,0,0,0.1,0
	c0.1,0,0.2,0,0.3-0.1c0.6-0.2,1.2-0.5,1.8-0.7c0,0,0,0,0-0.1c0.6-0.2,1.1-0.4,1.7-0.7c0.4-0.1,0.9-0.3,1.3-0.4c0.1,0,0.3,0,0.4,0
	c0.1,0,0.1,0.1,0.2,0.1c0,0,0.1,0.1,0.1,0.1c0,0,0,0.1,0.1,0.1c0,0.2,0,0.4,0,0.6c-0.1,0.2-0.3,0.3-0.4,0.5
	c-0.1,0.1-0.2,0.2-0.3,0.3c-0.1,0.1-0.1,0.2-0.2,0.3c0,0.1,0,0.2,0,0.3c0,0,0.1,0.1,0.1,0.1c0.1,0,0.1,0,0.2,0.1c0.3,0,0.6,0,0.9,0
	c0.3-0.1,0.5-0.1,0.8-0.2c0.1,0,0.1-0.1,0.2-0.1c0,0,0,0,0-0.1c0.2-0.1,0.3-0.2,0.5-0.3c0.1-0.1,0.1-0.1,0.2-0.2
	c0,0,0.1-0.1,0.1-0.1c0,0,0.1,0,0.1,0c0,0,0.1-0.1,0.1-0.1c0.2-0.1,0.4-0.2,0.6-0.3c0,0,0,0,0-0.1c0.1,0,0.2-0.1,0.2-0.1
	c0,0,0,0,0-0.1c0.4-0.2,0.7-0.3,1.1-0.5c0.7-0.2,1.3-0.4,2-0.7c0.3-0.1,0.5-0.1,0.8-0.2c0.3,0,0.6-0.1,1-0.1c0.2,0,0.5,0,0.8,0
	c0.2,0,0.3,0.1,0.5,0.1c0.1,0,0.1,0.1,0.2,0.1c0.2,0,0.4,0,0.6,0c0.1-0.1,0.3-0.1,0.4-0.2c0.3-0.2,0.6-0.4,1-0.6
	c0.3-0.2,0.6-0.3,1-0.5c0.2-0.1,0.3-0.1,0.5-0.2c0.2,0,0.3,0,0.5,0c0,0,0.1,0.1,0.1,0.1c0,0.1,0,0.2,0,0.3c0,0.1-0.1,0.1-0.1,0.2
	c-0.1,0.1-0.2,0.2-0.3,0.3c-0.3,0.2-0.7,0.5-1.1,0.7c-1,0.5-2,1.1-3,1.6c-0.1,0.1-0.2,0.1-0.2,0.2c-0.1,0.1-0.2,0.2-0.3,0.3
	c0,0.1-0.1,0.1-0.1,0.2c0,0.2,0.1,0.3,0.1,0.5c0.1,0.1,0.2,0.2,0.3,0.3c0.2,0.1,0.3,0.1,0.5,0.2c1.7,0,3.4,0,5.2,0.1
	c9.2,0,18.4,0,27.6,0c0.5,0.2,1.1,0.4,1.7,0.6c0,0,0,0,0,0.1c-3.1,0-6.2,0-9.3,0c-7.7,0-15.4,0-23.1,0c-1,0-2,0-3.1-0.1
	c-0.2-0.1-0.3-0.1-0.5-0.2c-0.1-0.1-0.3-0.2-0.4-0.3c-0.1-0.1-0.1-0.2-0.2-0.2c-0.1-0.1-0.2-0.1-0.3-0.2c-0.1,0-0.2,0-0.3,0
	c-0.5,0.2-1,0.3-1.5,0.5c-0.2,0.1-0.4,0.1-0.7,0.2c-0.3,0-0.6,0.1-1,0.1c-0.4,0-0.7,0-1.1-0.1c-0.1-0.1-0.3-0.1-0.4-0.2
	c-0.1-0.1-0.3-0.2-0.4-0.4c-0.2,0-0.3,0-0.5,0c-0.1,0.1-0.3,0.1-0.4,0.2c-0.1,0.1-0.2,0.1-0.3,0.2c-0.4,0.1-0.8,0.3-1.2,0.4
	c-0.2,0-0.4,0-0.6,0c-0.2-0.1-0.3-0.1-0.5-0.2c-0.1-0.1-0.2-0.1-0.3-0.2c0,0-0.1-0.1-0.1-0.1c-0.1-0.2-0.2-0.4-0.3-0.6
	c0-0.2,0-0.3,0-0.5c0.1-0.1,0.2-0.2,0.3-0.3c0-0.1,0-0.1,0-0.2c-0.1,0-0.1,0-0.2,0c-0.1,0-0.1,0-0.2,0c-0.4,0.2-0.9,0.3-1.3,0.5
	c-0.2,0.1-0.4,0.2-0.7,0.4c-0.5,0.2-1.1,0.4-1.7,0.7c0,0-0.1,0.1-0.1,0.1c-0.2,0.1-0.5,0.1-0.7,0.2c-0.2,0-0.3,0-0.5,0
	c-0.1,0-0.1-0.1-0.2-0.1c0,0-0.1-0.1-0.1-0.1c0-0.1,0-0.2,0-0.3c0.1-0.1,0.1-0.2,0.2-0.3c0,0,0.1-0.1,0.1-0.1c0,0,0-0.1,0-0.1
	c0.1-0.1,0.1-0.2,0.2-0.3c-0.1,0-0.1,0-0.2,0c-0.1,0.1-0.2,0.1-0.3,0.2c-0.2,0.1-0.5,0.2-0.7,0.3c0,0,0,0,0,0.1
	c-0.7,0.3-1.5,0.5-2.2,0.8c0,0,0,0,0,0.1c-0.2,0-0.4,0.1-0.6,0.1c-0.3,0-0.6,0-0.9,0c-0.2-0.1-0.4-0.1-0.5-0.2c0,0-0.1-0.1-0.1-0.1
	c-0.1-0.2-0.2-0.3-0.3-0.5c-0.1-0.2-0.1-0.3-0.2-0.5c-0.1,0-0.2,0-0.3,0c-0.1,0-0.2,0.1-0.3,0.1c-0.2,0.1-0.4,0.2-0.6,0.3
	c0,0,0,0,0,0.1c-0.2,0.1-0.5,0.3-0.8,0.4c-0.3,0.1-0.5,0.2-0.8,0.3c-0.1,0-0.2,0.1-0.4,0.1c0,0,0,0,0,0.1c-0.2,0.1-0.5,0.1-0.7,0.2
	c-0.3,0-0.6,0-0.9,0c-0.1,0-0.2-0.1-0.4-0.1c-0.1-0.1-0.3-0.2-0.4-0.3c0-0.1-0.1-0.1-0.1-0.2c0-0.1,0-0.1-0.1-0.2c0-0.2,0-0.4,0-0.6
	c0.1-0.1,0.1-0.2,0.2-0.3c0.2-0.3,0.5-0.6,0.7-0.9c0-0.1,0-0.2,0-0.2c-0.7,0-1.4,0-2.2,0c-0.2,0-0.4,0.1-0.6,0.1c0,0,0,0.1-0.1,0.1
	c0,0.3-0.1,0.6-0.1,0.9c-0.1,0.1-0.1,0.2-0.2,0.3c-0.1,0.1-0.1,0.1-0.2,0.2c-0.2,0.1-0.4,0.2-0.6,0.3c-0.4,0.2-0.8,0.3-1.2,0.5
	c-0.3,0.1-0.6,0.1-1,0.2c-0.5,0-1.1,0-1.6,0c-0.2-0.1-0.4-0.1-0.6-0.2c-0.1,0-0.1-0.1-0.2-0.1c-0.1-0.3-0.3-0.5-0.4-0.8
	c-0.2,0-0.3,0-0.5,0c-0.1,0-0.2,0.1-0.3,0.1c-0.5,0.1-0.9,0.2-1.4,0.3c-0.1,0-0.1,0.1-0.2,0.1c0,0.1,0,0.1-0.1,0.2
	c-0.1,0.1-0.1,0.2-0.2,0.3c-0.1,0.1-0.2,0.1-0.3,0.2c-0.3,0.1-0.5,0.2-0.8,0.2c-0.3,0-0.5,0.1-0.8,0.1c-0.3,0-0.7,0.1-1,0.1
	c0,0-0.1,0-0.1,0.1C118,31.5,117.4,31.5,116.8,31.5L116.8,31.5z M118.2,30.7C118.2,30.7,118.3,30.7,118.2,30.7
	c0.5-0.1,0.9-0.1,1.4-0.1c0,0-0.1,0.1-0.1,0.1C119.1,30.7,118.6,30.7,118.2,30.7L118.2,30.7z M106.2,30.3c0-0.1,0-0.1,0-0.2
	c0,0,0.1-0.1,0.1-0.1c0.1-0.1,0.2-0.1,0.3-0.2c0.1,0,0.1,0,0.2-0.1c0,0,0.1-0.1,0.1-0.1c0.2-0.1,0.4-0.1,0.7-0.2c0,0,0.1,0,0.1-0.1
	c0.1,0,0.3-0.1,0.4-0.1c0.1,0,0.1-0.1,0.2-0.1c0.1,0,0.2-0.1,0.4-0.1c0,0,0.1,0,0.1-0.1c0.4-0.1,0.8-0.2,1.2-0.3c0.2,0,0.5,0,0.8,0
	c0,0.1,0,0.1,0,0.2c-0.2,0.1-0.4,0.2-0.5,0.3c-0.1,0-0.2,0.1-0.3,0.1c-0.1,0-0.1,0.1-0.2,0.1c-0.3,0.1-0.6,0.2-1,0.3
	c-0.1,0-0.2,0.1-0.4,0.1c-0.1,0-0.2,0.1-0.3,0.1c-0.2,0-0.3,0.1-0.5,0.1c0,0-0.1,0-0.1,0.1C107.1,30.2,106.6,30.2,106.2,30.3
	L106.2,30.3z M126.4,30.2c-0.2-0.1-0.3-0.1-0.5-0.2c0,0-0.1-0.1-0.1-0.1c0-0.1,0-0.3,0-0.4c0.1-0.1,0.2-0.1,0.3-0.2
	c0.1-0.1,0.2-0.1,0.4-0.2c0.2-0.1,0.4-0.2,0.6-0.2c0.4-0.1,0.9-0.2,1.3-0.3c0.3,0,0.5,0,0.8,0c0.1,0,0.1,0.1,0.2,0.1
	c0,0.1,0,0.2,0,0.4c0,0.1-0.1,0.2-0.1,0.3c-0.1,0.1-0.1,0.1-0.2,0.2c-0.3,0.2-0.6,0.3-0.9,0.5c-0.2,0.1-0.5,0.1-0.7,0.2
	C127.1,30.2,126.8,30.2,126.4,30.2L126.4,30.2z M46.7,29.8c-0.1,0-0.2,0-0.3-0.1c0,0,0-0.1-0.1-0.1c0.1-0.1,0.1-0.1,0.2-0.2
	c0.2-0.1,0.3-0.2,0.5-0.3c0.1,0,0.2-0.1,0.3-0.1c0,0,0.1-0.1,0.1-0.1c0.3-0.1,0.5-0.2,0.8-0.3c0,0,0.1-0.1,0.1-0.1
	c0.1,0,0.2-0.1,0.3-0.1c0,0,0,0,0-0.1c0.3-0.1,0.7-0.2,1-0.3c0,0,0,0,0.1-0.1c0.3,0,0.5-0.1,0.8-0.1c0,0,0.1,0,0.1-0.1
	c0.3,0,0.5-0.1,0.8-0.1c0.2,0,0.3,0,0.5,0c0,0,0.1,0,0.1,0.1C52,27.9,52,28,52,28c-0.2,0.1-0.3,0.2-0.5,0.4c-0.1,0-0.1,0-0.2,0
	c0,0-0.1,0.1-0.1,0.1c-0.1,0.1-0.2,0.1-0.3,0.2c-0.1,0-0.3,0.1-0.4,0.1c0,0,0,0,0,0.1c-0.1,0-0.2,0.1-0.3,0.1c0,0-0.1,0.1-0.1,0.1
	c-0.1,0-0.2,0.1-0.3,0.1c0,0-0.1,0.1-0.1,0.1c-0.2,0-0.3,0.1-0.5,0.1c0,0,0,0,0,0.1c-0.2,0-0.3,0.1-0.5,0.1c0,0,0,0,0,0.1
	c-0.2,0.1-0.5,0.1-0.7,0.2C47.4,29.8,47.1,29.8,46.7,29.8L46.7,29.8z M154.6,29.8c-0.1,0-0.1-0.1-0.2-0.1c0-0.1,0-0.2,0-0.3
	c0.1-0.1,0.1-0.1,0.2-0.2c0.2-0.1,0.5-0.2,0.7-0.3c0.6-0.2,1.2-0.4,1.8-0.7c0.5-0.1,1-0.3,1.5-0.4c0.2,0,0.4,0,0.7,0
	c0,0.1,0,0.2,0,0.3c-0.1,0.1-0.1,0.2-0.2,0.2c-0.1,0.1-0.2,0.1-0.2,0.2c0,0-0.1,0.1-0.1,0.1c-0.2,0.2-0.5,0.3-0.8,0.5
	c-0.4,0.2-0.8,0.3-1.2,0.5c-0.3,0.1-0.7,0.1-1,0.2C155.4,29.8,155,29.8,154.6,29.8L154.6,29.8z M59.6,29.4c0-0.1,0.1-0.2,0.1-0.3
	c0.1-0.1,0.1-0.1,0.2-0.2c0.1-0.1,0.2-0.1,0.2-0.2c0.1,0,0.2-0.1,0.2-0.1c0.3-0.2,0.6-0.3,0.9-0.5c0.1,0,0.3-0.1,0.4-0.1
	c0,0,0.1-0.1,0.1-0.1c0.2-0.1,0.4-0.1,0.6-0.2c0.2,0,0.4-0.1,0.6-0.1c0.1,0,0.3,0,0.4,0c0,0,0.1,0.1,0.1,0.1c0,0.1-0.1,0.1-0.1,0.2
	c0,0-0.1,0-0.1,0c0,0-0.1,0.1-0.1,0.1c-0.2,0.1-0.5,0.3-0.7,0.4c-0.1,0-0.2,0.1-0.3,0.1c0,0,0,0,0,0.1c-0.1,0-0.2,0.1-0.4,0.1
	c-0.2,0.1-0.4,0.1-0.6,0.2c-0.1,0-0.1,0.1-0.2,0.1c-0.1,0-0.2,0.1-0.3,0.1c0,0,0,0,0,0.1c-0.1,0-0.3,0.1-0.4,0.1
	c-0.1,0-0.2,0.1-0.3,0.1C59.9,29.4,59.7,29.4,59.6,29.4L59.6,29.4z M77.7,26.5c-0.1-0.1-0.2-0.1-0.3-0.2c-0.2-0.2-0.3-0.4-0.5-0.6
	c-0.1-0.1-0.1-0.1-0.2-0.2c0-0.2,0-0.3,0-0.5c0-0.1,0.1-0.1,0.1-0.2c0.1-0.1,0.2-0.2,0.2-0.2c0.2,0,0.3,0,0.5,0c0,0,0.1,0.1,0.1,0.1
	c0.3,0.1,0.5,0.3,0.8,0.4c0,0,0.1,0,0.1,0c0,0,0,0.1,0,0.1c0.1,0.1,0.2,0.1,0.3,0.2c0.1,0,0.1,0,0.2,0.1c0.1,0.1,0.2,0.2,0.4,0.3
	c0,0.1,0,0.1,0,0.2c0,0.1-0.1,0.1-0.1,0.2c-0.1,0.1-0.1,0.1-0.2,0.2c-0.1,0-0.3,0.1-0.4,0.1c0,0,0,0,0,0.1
	C78.4,26.5,78,26.5,77.7,26.5L77.7,26.5z M93,26.2c-0.2-0.1-0.4-0.1-0.5-0.2c0,0-0.1-0.1-0.1-0.1c0,0-0.1,0-0.1-0.1
	c0-0.1-0.1-0.1-0.1-0.2c0-0.1-0.1-0.1-0.1-0.2c0,0-0.1-0.1-0.1-0.1c0-0.1,0-0.3,0-0.4c0.1-0.1,0.1-0.2,0.2-0.3
	c0.1-0.1,0.1-0.1,0.2-0.2c0.1,0,0.1-0.1,0.2-0.1c0.1,0,0.3,0,0.4,0c0.1,0.1,0.3,0.2,0.4,0.3c0.1,0.1,0.1,0.2,0.2,0.2
	c0,0,0.1,0.1,0.1,0.1c0.1,0.1,0.1,0.2,0.2,0.2c0,0.1,0,0.2,0,0.3c-0.1,0.1-0.1,0.2-0.2,0.3c-0.1,0.1-0.1,0.2-0.2,0.2
	c-0.1,0-0.2,0.1-0.3,0.1C93.2,26.2,93.1,26.2,93,26.2L93,26.2z"/>
</svg>
