<?xml version="1.0" encoding="utf-8"?>
<!-- Generator: Adobe Illustrator 21.1.0, SVG Export Plug-In . SVG Version: 6.00 Build 0)  -->
<svg version="1.1" id="Layer_1" xmlns="http://www.w3.org/2000/svg" xmlns:xlink="http://www.w3.org/1999/xlink" x="0px" y="0px"
	 viewBox="0 0 187.9 40" style="enable-background:new 0 0 187.9 40;" xml:space="preserve">
<style type="text/css">
	.sennheiser-def-st0{fill-rule:evenodd;clip-rule:evenodd;fill:#FFFFFF;}
</style>
<path class="sennheiser-def-st0" d="M14.6,5.8H0v14.6h1.8V7.6h11.1C13.5,6.8,14.1,6.2,14.6,5.8L14.6,5.8z M13.2,25h14.6V10.3H26v12.8H14.9
	C14.4,24,13.8,24.6,13.2,25L13.2,25z M14.3,22.3c-1.6,2.6-3.1,2.6-4.9,2.6H0v-3.7h2.9c1.9,0,3.5-1,4.3-2.4l6.3-10.4
	c1.6-2.6,3.1-2.6,4.9-2.6h9.4v3.7h-2.9c-1.9,0-3.5,1-4.3,2.4L14.3,22.3L14.3,22.3z"/>
<path class="sennheiser-def-st0" d="M46.9,17.4c0.9,1.1,0.6,3.9-2.1,3.9h-7.6v-2.4h3.4c0.6,0,0.8-0.6,0.4-1.1l-3.2-4.3c-0.9-1.1-0.6-3.9,2.1-3.9
	h7.6v2.4H44c-0.6,0-0.7,0.6-0.3,1.1L46.9,17.4L46.9,17.4z M152.8,17.4c0.9,1.1,0.6,3.9-2.1,3.9H143v-2.4h3.4c0.6,0,0.7-0.6,0.4-1.1
	l-3.2-4.3c-0.9-1.1-0.6-3.9,2.1-3.9h7.6v2.4H150c-0.6,0-0.8,0.6-0.4,1.1L152.8,17.4L152.8,17.4z M51.3,9.5h10.4V12h-5.3v2.3h5.3v2.3
	h-5.3v2.2h5.3v2.5H51.3V9.5L51.3,9.5z M156.9,9.5h10.4V12H162v2.3h5.3v2.3H162v2.2h5.3v2.5h-10.4V9.5L156.9,9.5z M119.3,9.5h10.4V12
	h-5.3v2.3h5.3v2.3h-5.3v2.2h5.3v2.5h-10.4V9.5L119.3,9.5z M71.4,9.5h-5.3v11.8h2.4V14l4.8,7.3h5.4V9.5h-2.4v7.3L71.4,9.5L71.4,9.5z
	 M88.1,9.5h-5.3v11.8h2.4V14l4.8,7.3h5.3V9.5H93v7.3L88.1,9.5L88.1,9.5z M134,9.5h5.1v11.8H134V9.5L134,9.5z M100.1,9.5h5.2V14h4.1
	V9.5h5.1v11.8h-5.1v-4.5h-4.1v4.5h-5.2V9.5L100.1,9.5z M179.1,16.6H177v4.7h-5.1V9.5h10.6c1.3,0,3.2,1,3.4,3.2
	c0.1,1.4-0.4,2.6-2.3,3.5l2.6,5.1h-4.6L179.1,16.6L179.1,16.6z M177,11.9h3c0.6,0,1.2,0.5,1.2,1.2l0,0c0,0.6-0.5,1.2-1.2,1.2h-3
	V11.9L177,11.9z"/>
<path class="sennheiser-def-st0" d="M55.4,34.9c-0.1,0-0.2,0-0.3-0.1c-0.1-0.1-0.1-0.1-0.2-0.2c0-0.1,0-0.1-0.1-0.2c0-0.2,0-0.4,0-0.6
	c0.1-0.2,0.2-0.3,0.3-0.5c0.2-0.2,0.3-0.4,0.5-0.6c0,0,0.1,0,0.1,0c0.1-0.2,0.3-0.3,0.4-0.5c0,0,0.1,0,0.1,0
	c0.1-0.1,0.1-0.1,0.2-0.2c0,0,0-0.1,0-0.1c0.1-0.1,0.3-0.3,0.4-0.4c0.1-0.1,0.2-0.2,0.4-0.3c0,0,0-0.1,0-0.1
	c0.1-0.1,0.1-0.1,0.2-0.2c0-0.1,0.1-0.1,0.1-0.2c0,0,0.1-0.1,0.1-0.1c0.2-0.2,0.3-0.3,0.5-0.5c0,0,0-0.1,0-0.1
	c0.1-0.1,0.2-0.3,0.4-0.4c0-0.1,0-0.1,0-0.2c-0.3,0.1-0.5,0.2-0.8,0.2c-0.1,0-0.1,0.1-0.2,0.1c-0.1,0-0.2,0.1-0.4,0.1
	c-0.2,0.1-0.3,0.1-0.5,0.2c0,0,0,0,0,0.1c-0.1,0-0.2,0.1-0.3,0.1c-0.1,0-0.1,0.1-0.2,0.1c-0.1,0-0.3,0.1-0.4,0.1
	c-0.1,0-0.1,0.1-0.2,0.1c-0.2,0-0.3,0.1-0.5,0.1c0,0-0.1,0.1-0.1,0.1c-0.2,0-0.3,0.1-0.5,0.1c-0.1,0-0.1,0.1-0.2,0.1
	c-0.2,0-0.3,0.1-0.5,0.1c-0.1,0-0.1,0.1-0.2,0.1c-0.2,0-0.5,0.1-0.8,0.1c0,0-0.1,0-0.1,0.1c-0.1,0-0.2,0-0.3,0.1c-0.4,0-0.9,0-1.3,0
	c-0.1,0-0.2,0-0.2-0.1c0,0,0,0,0-0.1c-0.1,0-0.2-0.1-0.3-0.1c-0.1-0.1-0.3-0.2-0.4-0.3c-0.1-0.1-0.2-0.2-0.4-0.3
	c-0.3,0.1-0.7,0.1-1,0.2c0,0,0,0,0,0.1c-0.2,0-0.3,0.1-0.5,0.1c0,0-0.1,0.1-0.1,0.1c-0.2,0-0.4,0.1-0.6,0.1c-0.2,0-0.3,0.1-0.5,0.1
	c-0.4,0-0.9,0-1.3,0c-0.3-0.1-0.6-0.1-1-0.2c0,0,0,0-0.1-0.1c-0.1,0-0.3-0.1-0.4-0.1c0,0-0.1-0.1-0.1-0.1c0,0-0.1,0-0.1,0
	c-0.1-0.1-0.3-0.3-0.4-0.4c-0.1-0.2-0.2-0.4-0.3-0.6c0,0,0-0.1,0-0.1c-0.1,0-0.2,0-0.3,0c0,0-0.1,0-0.1,0c0,0-0.1,0.1-0.1,0.1
	c-0.1,0-0.1,0-0.2,0c0,0-0.1,0.1-0.1,0.1c-0.1,0-0.2,0.1-0.4,0.1c-0.2,0.1-0.3,0.1-0.5,0.2c0,0-0.1,0.1-0.1,0.1
	c-0.1,0-0.2,0.1-0.3,0.1c0,0-0.1,0.1-0.1,0.1c-0.3,0.1-0.6,0.2-0.9,0.3c-0.1,0-0.1,0.1-0.2,0.1c-0.1,0-0.2,0-0.3,0
	c0,0-0.1,0-0.1,0.1c0,0,0,0,0,0.1c-0.2,0-0.3,0.1-0.5,0.1c0,0-0.1,0.1-0.1,0.1c-0.4,0-0.7,0.1-1.1,0.1c0,0-0.1,0-0.1,0.1
	c-1.6,0-3.2,0-4.8,0.1c-2,0-4,0-6.1,0c0,0,0,0-0.1-0.1c-0.3,0-0.6,0.1-1,0.1c-0.1,0-0.2,0-0.3,0c0,0-0.1,0-0.1-0.1
	c-0.4,0-0.9,0-1.3,0C16,31.1,7.7,31.1-0.6,31c0.1,0,0.3-0.1,0.4-0.1c0,0,0.1-0.1,0.1-0.1c0.1,0,0.3-0.1,0.4-0.1c0,0,0.1-0.1,0.1-0.1
	c0.2,0,0.3-0.1,0.5-0.1c0,0,0.1-0.1,0.1-0.1c0.1,0,0.2,0,0.3-0.1c2.4,0,4.8,0,7.2-0.1c8.2,0,16.5,0,24.7,0c0.9,0,1.8,0,2.6-0.1
	c0.1-0.1,0.1-0.2,0.2-0.3c0.1-0.2,0.1-0.3,0.2-0.5c0.1-0.2,0.2-0.3,0.4-0.5c0.2-0.1,0.3-0.3,0.5-0.4c0,0,0.1-0.1,0.1-0.1
	c0.3-0.2,0.6-0.4,1-0.5c0.1,0,0.1,0,0.2,0c0,0,0.1-0.1,0.1-0.1c0.2-0.1,0.5-0.2,0.7-0.3c0,0,0.1-0.1,0.1-0.1c0.1,0,0.3-0.1,0.4-0.1
	c0,0,0,0,0.1-0.1c0.4-0.1,0.7-0.2,1.1-0.3c0.1,0,0.1-0.1,0.2-0.1c0.2,0,0.3-0.1,0.5-0.1c0,0,0,0,0.1-0.1c0.4-0.1,0.8-0.1,1.2-0.2
	c0.5,0,0.9,0,1.4,0c0.1,0,0.2,0.1,0.3,0.1c0.1,0,0.3,0,0.4,0.1c0.2-0.1,0.4-0.2,0.6-0.3c0,0,0.1-0.1,0.1-0.1
	c0.1-0.1,0.3-0.2,0.4-0.3c0.1-0.1,0.2-0.2,0.3-0.3c0.1,0,0.1-0.1,0.2-0.1c0.1-0.1,0.1-0.1,0.2-0.2c0.1,0,0.1-0.1,0.2-0.1
	c0,0,0,0,0-0.1c0,0,0.1,0,0.1,0c0.2-0.2,0.4-0.3,0.6-0.5c0.1,0,0.1-0.1,0.2-0.1c0,0,0.1-0.1,0.1-0.1c0.1,0,0.2-0.1,0.2-0.1
	c0,0,0.1-0.1,0.1-0.1c0.1,0,0.2-0.1,0.3-0.1c0,0,0.1-0.1,0.1-0.1c0.1,0,0.2-0.1,0.4-0.1c0,0,0,0,0-0.1c0.1,0,0.2,0,0.3,0
	c0.1,0.1,0.2,0.1,0.3,0.2c0,0.1,0,0.1,0.1,0.2c0,0.1,0,0.2,0,0.4c-0.1,0.1-0.1,0.3-0.2,0.4c-0.1,0.1-0.2,0.2-0.2,0.2
	c0,0-0.1,0-0.1,0c-0.1,0.1-0.2,0.2-0.3,0.3c-0.2,0.1-0.4,0.2-0.5,0.4c-0.2,0.1-0.4,0.2-0.6,0.3c-0.1,0-0.1,0-0.2,0.1
	c0,0-0.1,0.1-0.1,0.1c-0.3,0.1-0.6,0.3-0.9,0.4c-0.1,0.1-0.3,0.2-0.4,0.3c-0.1,0-0.1,0.1-0.2,0.1c0,0-0.1,0.1-0.1,0.1
	c0,0-0.1,0-0.1,0c0,0-0.1,0.1-0.1,0.1c-0.1,0.1-0.3,0.2-0.4,0.4c-0.1,0.1-0.1,0.2-0.2,0.3c-0.1,0.1-0.1,0.1-0.2,0.2
	c-0.1,0.1-0.1,0.2-0.2,0.2c0,0.1-0.1,0.2-0.1,0.3c0,0.1,0,0.1,0,0.2c0,0.1,0.1,0.2,0.1,0.3c0,0,0.1,0,0.1,0c0.1,0.1,0.2,0.2,0.3,0.3
	c0.1,0,0.2,0,0.3,0.1c0,0,0.1,0.1,0.1,0.1c0.3,0,0.7,0,1.1,0c0.4,0,0.9,0,1.3,0c0.1,0,0.2,0,0.4-0.1c0,0,0,0,0-0.1
	c0.3-0.1,0.7-0.1,1-0.2c0.1,0,0.2-0.1,0.3-0.1c0.1-0.1,0.1-0.2,0.2-0.3c0.1-0.1,0.1-0.2,0.2-0.4c0.2-0.2,0.3-0.5,0.5-0.7
	c0,0,0.1,0,0.1-0.1c0,0,0-0.1,0-0.1c0.1-0.1,0.2-0.2,0.3-0.2c0,0,0.1,0,0.1,0c0,0,0.1-0.1,0.1-0.1c0.1-0.1,0.2-0.1,0.4-0.2
	c0,0,0,0,0-0.1c0.1,0,0.2-0.1,0.2-0.1c0,0,0.1-0.1,0.1-0.1c0.1,0,0.2-0.1,0.3-0.1c0,0,0,0,0.1-0.1c0.4-0.1,0.8-0.2,1.2-0.3
	c0,0,0.1,0,0.1-0.1c0.1,0,0.2,0,0.3-0.1c0.5,0,1.1,0,1.6,0c0.1,0,0.1,0.1,0.2,0.1c0.1,0,0.2,0.1,0.3,0.1c0,0.1,0.1,0.1,0.1,0.2
	c0,0.1,0,0.1,0.1,0.2c0,0.2,0,0.3,0,0.5c-0.1,0.1-0.1,0.2-0.2,0.3c-0.2,0.1-0.4,0.3-0.5,0.4c-0.2,0.1-0.4,0.2-0.7,0.3
	c-0.1,0-0.2,0.1-0.3,0.1c0,0-0.1,0.1-0.1,0.1c-0.1,0-0.2,0-0.2,0c0,0-0.1,0.1-0.1,0.1c-0.1,0-0.3,0.1-0.4,0.1c0,0-0.1,0.1-0.1,0.1
	c-0.2,0.1-0.4,0.1-0.6,0.2c-0.2,0-0.3,0.1-0.5,0.1c-0.1,0-0.1,0.1-0.2,0.1c-0.1,0-0.3,0.1-0.4,0.1c0,0.1,0,0.1,0,0.2
	c0.4,0,0.8,0,1.2,0c0.3,0,0.6-0.1,1-0.1c0,0,0,0,0.1-0.1c0.5-0.1,1.1-0.2,1.7-0.3c0.1,0,0.1-0.1,0.2-0.1c0.2,0,0.3-0.1,0.5-0.1
	c0,0,0,0,0.1-0.1c0.1,0,0.3-0.1,0.4-0.1c0.1,0,0.1-0.1,0.2-0.1c0.2,0,0.4-0.1,0.6-0.1c0.1,0,0.1-0.1,0.2-0.1c0.1,0,0.2-0.1,0.3-0.1
	c0,0,0.1-0.1,0.1-0.1c0.2,0,0.3-0.1,0.5-0.1c0,0,0,0,0-0.1c0.1,0,0.3-0.1,0.4-0.1c0.2-0.1,0.4-0.2,0.6-0.4c0.1-0.1,0.2-0.2,0.3-0.3
	c0.1,0,0.1-0.1,0.2-0.1c0.1-0.1,0.2-0.2,0.3-0.3c0,0,0.1,0,0.1,0c0,0,0-0.1,0-0.1c0.3-0.3,0.7-0.5,1-0.8c0,0,0.1-0.1,0.1-0.1
	c0.1-0.1,0.2-0.1,0.3-0.2c0,0,0.1-0.1,0.1-0.1c0.1,0,0.1-0.1,0.2-0.1c0.3-0.2,0.5-0.4,0.8-0.6c0.2-0.1,0.4-0.2,0.7-0.3
	c0.1,0,0.2-0.1,0.2-0.1c0,0,0.1-0.1,0.1-0.1c0.1,0,0.2-0.1,0.3-0.1c0,0,0,0,0-0.1c0.4-0.1,0.8-0.2,1.1-0.3c0.1,0,0.3,0,0.4,0
	c0.1,0,0.2,0,0.3,0c0,0,0.1,0.1,0.1,0.1c0,0.1,0,0.3,0,0.4c-0.2,0.2-0.3,0.4-0.5,0.6c-0.5,0.4-0.9,0.7-1.4,1.1
	c-0.5,0.3-0.9,0.5-1.4,0.8c0,0,0,0.1-0.1,0.1c-0.1,0-0.1,0-0.2,0c0,0-0.1,0.1-0.1,0.1c-0.2,0.1-0.4,0.2-0.6,0.3c0,0,0,0,0,0.1
	c0,0-0.1,0-0.1,0c-0.2,0.1-0.4,0.3-0.6,0.4c0,0,0,0.1,0,0.1c0,0-0.1,0.1-0.1,0.1c0,0,0,0.1,0.1,0.1c0.2,0,0.5,0,0.7,0.1
	c0.4,0,0.7-0.1,1.1-0.1c0.8-0.1,1.6-0.2,2.5-0.3c0,0,0.1,0,0.1-0.1c0.1,0,0.3-0.1,0.4-0.1c0.1-0.1,0.3-0.1,0.4-0.2
	c0.1,0,0.1-0.1,0.2-0.1c0.1,0,0.2-0.1,0.3-0.1c0,0,0,0,0.1-0.1c0.3-0.1,0.5-0.2,0.8-0.3c0.1,0,0.3,0,0.4,0c0,0,0.1,0,0.1,0
	c0,0,0,0.1,0.1,0.1c0,0.1,0,0.2,0,0.3c0,0.1-0.1,0.2-0.1,0.3c0,0-0.1,0-0.1,0c-0.1,0.1-0.2,0.2-0.2,0.2c-0.1,0.1-0.2,0.1-0.2,0.2
	c0,0-0.1,0.1-0.1,0.1c-0.1,0-0.1,0.1-0.2,0.1c-0.2,0.2-0.4,0.3-0.6,0.5c0,0,0,0.1,0,0.1c-0.1,0.1-0.1,0.1-0.2,0.2c0,0.1,0,0.3,0,0.4
	c0.1,0,0.1,0.1,0.2,0.1c0.1,0,0.2,0,0.3,0c0.2,0,0.3-0.1,0.5-0.1c0.3-0.1,0.6-0.3,1-0.4c0,0,0,0,0-0.1c0.1,0,0.2-0.1,0.3-0.1
	c0.2-0.1,0.4-0.2,0.6-0.3c0.1-0.1,0.3-0.2,0.4-0.2c0.1,0,0.2-0.1,0.3-0.1c0,0,0,0,0-0.1c0.2-0.1,0.5-0.2,0.8-0.3c0,0,0,0,0-0.1
	c0.2-0.1,0.5-0.2,0.8-0.3c0,0,0.1-0.1,0.1-0.1c0.1,0,0.2-0.1,0.3-0.1c0,0,0,0,0-0.1c0.2-0.1,0.4-0.1,0.6-0.2c0.2,0,0.4,0,0.6,0
	c0,0.2,0,0.3,0,0.5c-0.2,0.3-0.5,0.6-0.8,0.9c0,0,0,0.1,0,0.1c0,0,0,0-0.1,0c0,0.1,0,0.2,0,0.2c0.1,0,0.1,0,0.2,0
	c0.1,0,0.2-0.1,0.4-0.1c0.2-0.1,0.3-0.1,0.5-0.2c0.3-0.2,0.6-0.3,1-0.5c0,0,0.1-0.1,0.1-0.1c0.3-0.1,0.6-0.3,1-0.4
	c0,0,0.1-0.1,0.1-0.1c0.3-0.1,0.6-0.2,0.9-0.3c0.1,0,0.2-0.1,0.4-0.1c0,0,0,0,0-0.1c0.2,0,0.4-0.1,0.6-0.1c0,0,0,0,0-0.1
	c0.3,0,0.6-0.1,0.9-0.1c0.1,0,0.1,0,0.2,0.1c0,0,0.1,0.1,0.1,0.1c0,0,0,0.1,0.1,0.1c0,0.1,0,0.2,0,0.3c-0.2,0.3-0.4,0.6-0.6,0.9
	c0,0-0.1,0.1-0.1,0.1c-0.1,0.1-0.2,0.2-0.3,0.4c0,0,0,0.1,0,0.1c0,0,0,0-0.1,0c0,0.1,0,0.2-0.1,0.3c0,0.1,0.1,0.1,0.1,0.2
	c0.1,0,0.3,0,0.4,0c0,0,0.1-0.1,0.1-0.1c0.4-0.1,0.7-0.3,1.1-0.4c0,0,0.1-0.1,0.1-0.1c0.2-0.1,0.5-0.2,0.7-0.3
	c0.1,0,0.2-0.1,0.3-0.1c0,0,0.1-0.1,0.1-0.1c0.1,0,0.1,0,0.2,0c0,0,0.1-0.1,0.1-0.1c0.3-0.1,0.5-0.2,0.8-0.3c0,0,0.1-0.1,0.1-0.1
	c0.4-0.2,0.9-0.3,1.3-0.5c0.2,0,0.4,0,0.6,0c0.1,0.1,0.1,0.1,0.2,0.2c0,0.1,0,0.2,0,0.3c-0.1,0.1-0.1,0.2-0.2,0.3c0,0,0,0-0.1,0
	c0,0,0,0.1,0,0.1c0,0-0.1,0.1-0.1,0.1c-0.2,0.3-0.5,0.5-0.8,0.8c0,0.1,0,0.3,0,0.4c0,0,0,0.1,0,0.1c0,0,0.1,0,0.1,0.1
	c0.2,0,0.5,0,0.7,0c0.1,0,0.1-0.1,0.2-0.1c0.1,0,0.2-0.1,0.3-0.1c0.2-0.1,0.4-0.2,0.6-0.3c0.1,0,0.2-0.1,0.3-0.1
	c0.1,0,0.1-0.1,0.2-0.1c0.1,0,0.2-0.1,0.3-0.1c0,0,0.1-0.1,0.1-0.1c0.2-0.1,0.4-0.2,0.6-0.3c0,0,0.1-0.1,0.1-0.1
	c0.1,0,0.2-0.1,0.2-0.1c0,0,0,0,0-0.1c0.3-0.1,0.5-0.2,0.8-0.3c0,0,0.1-0.1,0.1-0.1c0.1,0,0.1,0,0.2,0c0,0,0.1-0.1,0.1-0.1
	c0.1-0.1,0.2-0.1,0.3-0.2c0.2,0,0.3-0.1,0.5-0.1c0,0,0,0,0.1-0.1c0.1,0,0.2,0,0.3-0.1c0.1,0,0.2,0,0.3,0c0.1,0.1,0.2,0.1,0.3,0.2
	c0,0.1,0,0.1,0.1,0.2c0,0.1,0,0.2,0,0.3c0,0,0,0-0.1,0c0,0,0,0.1,0,0.1c-0.2,0.2-0.4,0.4-0.6,0.7c-0.1,0.1-0.2,0.2-0.4,0.3
	c0,0.1-0.1,0.1-0.1,0.2c0,0.1,0,0.1,0,0.2c0.1,0,0.1,0.1,0.2,0.1c0.2-0.1,0.5-0.1,0.8-0.2c0,0,0,0,0-0.1c0.3-0.1,0.6-0.2,0.9-0.3
	c0,0,0,0,0-0.1c0.1,0,0.2-0.1,0.3-0.1c0,0,0.1-0.1,0.1-0.1c0.3-0.1,0.5-0.2,0.8-0.3c0.1,0,0.1-0.1,0.2-0.1c0.1,0,0.2-0.1,0.3-0.1
	c0,0,0,0,0-0.1c0.4-0.1,0.7-0.2,1.1-0.3c0.2-0.1,0.4-0.2,0.6-0.2c0.3,0,0.7-0.1,1-0.1c0.1,0,0.2,0.1,0.2,0.1c0,0.1,0.1,0.1,0.1,0.2
	c0,0.1-0.1,0.1-0.1,0.2c-0.1,0.1-0.1,0.1-0.2,0.2c-0.1,0-0.1,0.1-0.2,0.1c0,0-0.1,0.1-0.1,0.1c-0.3,0.2-0.6,0.4-0.9,0.5
	c-0.1,0.1-0.2,0.2-0.3,0.4c0,0.1,0,0.2,0,0.4c0,0,0.1,0.1,0.1,0.1c0.3,0,0.5,0,0.8,0c0.4-0.1,0.7-0.2,1.1-0.3c0.1,0,0.1-0.1,0.2-0.1
	c0.1,0,0.2-0.1,0.3-0.1c0,0,0,0,0-0.1c0.1,0,0.2-0.1,0.2-0.1c0.4-0.2,0.8-0.4,1.2-0.6c0.1-0.1,0.2-0.1,0.3-0.2
	c0.1,0,0.2-0.1,0.2-0.1c0,0,0,0,0-0.1c0.3-0.1,0.6-0.3,1-0.4c0.1,0,0.2-0.1,0.4-0.1c0,0,0,0,0-0.1c0.3-0.1,0.6-0.2,1-0.3
	c0.1,0,0.1-0.1,0.2-0.1c0.5-0.1,1-0.2,1.6-0.3c0.2,0,0.4-0.1,0.6-0.1c0,0,0.1,0,0.1-0.1c0.3,0,0.6,0,1,0c0.1,0.1,0.3,0.1,0.4,0.2
	c0.1,0.1,0.1,0.1,0.2,0.2c0.1,0.1,0.1,0.2,0.2,0.2c0,0.1,0,0.3,0,0.4c0,0,0,0.1-0.1,0.1c0,0,0,0-0.1,0c-0.1,0.1-0.1,0.3-0.2,0.4
	c-0.1,0.1-0.2,0.3-0.3,0.4c0,0-0.1,0.1-0.1,0.1c0,0,0,0.1,0,0.1c-0.4,0.5-0.8,1-1.3,1.5c-0.2,0.1-0.3,0.3-0.5,0.4
	c0,0-0.1,0.1-0.1,0.1c-0.3,0.2-0.6,0.4-0.9,0.7c-0.2,0.1-0.4,0.2-0.6,0.4c-0.2,0.1-0.4,0.2-0.6,0.3c-0.1,0-0.2,0.1-0.3,0.1
	c0,0-0.1,0.1-0.1,0.1c-0.3,0.1-0.7,0.2-1,0.3c-0.1,0-0.3,0.1-0.4,0.1c0,0,0,0-0.1,0.1c-0.2,0-0.4,0.1-0.6,0.1c0,0,0,0,0,0.1
	c-0.3,0.1-0.7,0.1-1,0.2c-0.4,0-0.8,0.1-1.2,0.1c-0.8,0-1.6,0-2.5,0c-0.2,0-0.3,0-0.5-0.1c-0.2,0-0.4-0.1-0.6-0.1
	c0,0-0.1-0.1-0.1-0.1c0,0,0-0.1,0-0.1c0.1,0,0.1-0.1,0.2-0.1c0.3,0,0.5-0.1,0.8-0.1c0.4,0,0.9-0.1,1.3-0.1c0.4-0.1,0.8-0.1,1.2-0.2
	c0.2-0.1,0.5-0.1,0.7-0.2c0.1,0,0.2-0.1,0.3-0.1c0.4-0.1,0.9-0.2,1.3-0.3c0.2-0.1,0.4-0.1,0.6-0.2c0,0,0,0,0.1-0.1
	c0.1,0,0.2-0.1,0.3-0.1c0.2-0.1,0.3-0.1,0.5-0.2c0,0,0,0,0-0.1c0.4-0.2,0.8-0.3,1.2-0.5c0,0,0,0,0-0.1c0,0,0.1,0,0.1,0
	c0.1-0.1,0.2-0.1,0.3-0.2c0.1-0.1,0.2-0.1,0.4-0.2c0,0,0.1-0.1,0.1-0.1c0.1,0,0.1-0.1,0.2-0.1c0,0,0.1-0.1,0.1-0.1
	c0.1,0,0.1-0.1,0.2-0.1c0.1-0.1,0.2-0.2,0.2-0.3c0-0.1,0-0.1,0-0.2c-0.1,0-0.3,0-0.4,0.1c-0.2,0.1-0.3,0.1-0.5,0.2
	c-0.1,0-0.2,0.1-0.4,0.1c-0.1,0-0.1,0.1-0.2,0.1c-0.5,0.1-1.1,0.3-1.7,0.4c-0.4,0-0.7,0-1.1,0c-0.1,0-0.2,0-0.4,0
	c-0.1-0.1-0.3-0.2-0.4-0.4c0,0-0.1,0-0.1,0c0,0,0,0,0-0.1c-0.1,0-0.2,0-0.3,0c-0.3,0.1-0.7,0.2-1,0.3c0,0,0,0,0,0.1
	c-0.1,0-0.3,0.1-0.4,0.1c0,0-0.1,0-0.1,0.1c-0.4,0.1-0.7,0.1-1.1,0.2c-0.3,0-0.6,0-1,0c-0.1,0-0.2-0.1-0.3-0.1
	c-0.1-0.1-0.1-0.2-0.2-0.3c-0.1-0.1-0.1-0.3-0.2-0.4c0-0.1,0-0.2,0-0.4c0.1-0.2,0.2-0.4,0.3-0.6c-0.1,0-0.2,0-0.3,0
	c-0.3,0.1-0.5,0.2-0.8,0.3c0,0-0.1,0.1-0.1,0.1c-0.1,0-0.1,0-0.2,0c0,0-0.1,0.1-0.1,0.1c-0.3,0.1-0.5,0.2-0.8,0.3c0,0,0,0,0,0.1
	c-0.1,0-0.1,0-0.2,0c0,0-0.1,0.1-0.1,0.1c-0.2,0.1-0.4,0.2-0.6,0.3c-0.1,0-0.1,0-0.2,0c0,0-0.1,0.1-0.1,0.1c-0.1,0-0.1,0-0.2,0
	c-0.1,0-0.1,0.1-0.2,0.1c-0.3,0-0.5,0-0.8,0c0,0-0.1,0-0.1-0.1c0,0,0-0.1,0-0.1c0,0-0.1,0-0.1,0c-0.1-0.1-0.1-0.2-0.2-0.3
	c0-0.2,0-0.3,0-0.5c0-0.2,0.1-0.3,0.1-0.5c0.1-0.1,0.1-0.2,0.2-0.2c0.1-0.1,0.1-0.1,0.2-0.2c0-0.1,0-0.2,0.1-0.3
	c-0.1,0-0.2,0-0.3,0.1c-0.3,0.1-0.6,0.3-0.9,0.4c-0.2,0.1-0.5,0.3-0.8,0.4c-0.5,0.2-0.9,0.4-1.4,0.6c-0.1,0-0.2,0.1-0.3,0.1
	c0,0-0.1,0.1-0.1,0.1c-0.3,0.1-0.7,0.2-1,0.3c-0.1,0-0.3,0-0.4,0c-0.2-0.1-0.3-0.3-0.5-0.4c-0.1-0.1-0.1-0.2-0.2-0.3
	c0-0.2,0-0.4,0-0.6c0-0.1,0.1-0.2,0.1-0.3c0-0.1,0-0.1,0-0.2c-0.1,0-0.3,0-0.4,0c0,0-0.1,0-0.1,0c0,0,0,0,0,0.1
	c-0.1,0-0.2,0.1-0.3,0.1c0,0-0.1,0.1-0.1,0.1c-0.1,0.1-0.3,0.1-0.4,0.2c0,0,0,0,0,0.1c-0.2,0.1-0.4,0.2-0.6,0.3
	c-0.2,0.1-0.4,0.2-0.6,0.3c0,0-0.1,0.1-0.1,0.1c-0.1,0-0.1,0.1-0.2,0.1c0,0-0.1,0.1-0.1,0.1c-0.2,0.1-0.4,0.2-0.7,0.4
	c-0.1,0-0.2,0.1-0.3,0.1c0,0,0,0,0,0.1c-0.2,0-0.5,0-0.8,0c0,0-0.1,0-0.1-0.1c0,0,0-0.1,0-0.1c0,0-0.1,0-0.1,0
	c-0.1-0.1-0.1-0.2-0.2-0.4c0-0.2,0-0.4,0-0.6c0.1-0.1,0.1-0.3,0.2-0.4c0.1-0.1,0.1-0.2,0.2-0.3c0.1-0.2,0.1-0.4,0.2-0.6
	c-0.2,0-0.4,0-0.6,0.1c0,0,0,0,0,0.1c-0.2,0-0.3,0.1-0.5,0.1c0,0,0,0,0,0.1c-0.2,0.1-0.5,0.2-0.8,0.3c0,0-0.1,0.1-0.1,0.1
	c-0.1,0-0.2,0.1-0.3,0.1c0,0,0,0,0,0.1c-0.1,0-0.2,0.1-0.3,0.1c-0.4,0.3-0.9,0.5-1.4,0.8c-0.1,0-0.2,0.1-0.2,0.1
	c-0.1,0.1-0.2,0.1-0.3,0.2c-0.1,0.1-0.2,0.1-0.4,0.2c0,0-0.1,0.1-0.1,0.1c-0.1,0-0.2,0.1-0.3,0.1c-0.1,0-0.3,0-0.4,0
	c-0.1,0-0.1,0-0.2,0c0,0-0.1-0.1-0.1-0.1c0,0-0.1,0-0.1,0c0-0.1-0.1-0.1-0.1-0.2c0-0.1,0-0.2,0-0.4c0.1-0.3,0.2-0.5,0.4-0.8
	c0-0.1,0-0.1,0-0.2c-0.2,0-0.3,0.1-0.5,0.1c-0.1,0.1-0.2,0.1-0.3,0.2c-0.1,0-0.2,0.1-0.3,0.1c0,0-0.1,0.1-0.1,0.1
	c-0.5,0.3-0.9,0.5-1.4,0.8c0,0-0.1,0.1-0.1,0.1c-0.2,0.1-0.5,0.2-0.8,0.3c-0.2,0.1-0.5,0.1-0.7,0.2c-0.2,0-0.5,0-0.7,0
	c0,0,0,0,0-0.1c-0.1,0-0.2-0.1-0.4-0.1c-0.1-0.1-0.2-0.2-0.3-0.3c-0.1-0.1-0.1-0.2-0.2-0.3c0-0.2,0-0.5,0-0.7c0-0.1,0.1-0.1,0.1-0.2
	c0,0,0.1-0.1,0.1-0.1c0-0.1,0-0.3,0-0.4c-0.1,0-0.1-0.1-0.2-0.1c-0.1,0-0.1,0-0.2,0c0,0-0.1,0-0.1,0.1c-0.3,0-0.5,0.1-0.8,0.1
	c-0.1,0-0.2,0.1-0.3,0.1c-1.3,0.1-2.6,0.3-4,0.4c-0.4,0.5-0.8,1-1.2,1.6c-0.3,0.3-0.6,0.7-0.9,1.1c-0.1,0.1-0.2,0.2-0.3,0.4
	c-0.1,0.1-0.1,0.1-0.2,0.2c-0.1,0.1-0.2,0.3-0.3,0.4c-0.2,0.3-0.4,0.7-0.6,1c-0.1,0.2-0.3,0.3-0.4,0.5c-0.1,0-0.1,0-0.2,0.1
	C55.6,34.9,55.5,34.9,55.4,34.9L55.4,34.9z M108.4,31.5c-0.5,0-1-0.1-1.5-0.1c-0.1,0-0.3-0.1-0.4-0.1c-0.1,0-0.2-0.1-0.3-0.1
	c0-0.1-0.1-0.1-0.1-0.2c0-0.1,0.1-0.1,0.1-0.2c0.1-0.1,0.2-0.1,0.2-0.2c0.1-0.1,0.3-0.1,0.4-0.2c0.4-0.1,0.9-0.2,1.3-0.3
	c0.9-0.1,1.8-0.1,2.7-0.2c0.1,0,0.2-0.1,0.3-0.1c0,0,0-0.1,0.1-0.1c-0.1,0-0.2-0.1-0.3-0.1c-0.8-0.1-1.5-0.1-2.3-0.2
	c-0.3,0-0.5-0.1-0.8-0.1c-0.1,0-0.1-0.1-0.2-0.1c0,0-0.1,0-0.1,0c-0.1,0-0.2-0.1-0.2-0.1c-0.1-0.1-0.1-0.2-0.2-0.3
	c0-0.1,0-0.2,0-0.3c0.1-0.1,0.2-0.2,0.3-0.4c0.2-0.1,0.4-0.2,0.6-0.3c0.2-0.1,0.4-0.1,0.6-0.2c0.6-0.1,1.1-0.2,1.7-0.3
	c0.3,0,0.6-0.1,0.9-0.1c0.5,0,1,0,1.6,0c0.2,0,0.4,0.1,0.6,0.1c0.2,0,0.4,0.1,0.5,0.1c0,0,0.1,0.1,0.1,0.1c0,0,0.1,0,0.1,0
	c0.1,0.1,0.1,0.1,0.2,0.2c0,0.1,0,0.2,0,0.3c-0.1,0.1-0.1,0.1-0.2,0.2c-0.1,0-0.1,0.1-0.2,0.1c-0.1,0-0.3,0-0.4,0
	c-0.2-0.1-0.3-0.1-0.5-0.2c-0.4,0-0.8,0-1.2,0c-0.6,0.1-1.3,0.1-2,0.2c-0.2,0-0.3,0.1-0.5,0.1c0,0,0,0.1,0,0.1c0,0,0.1,0.1,0.1,0.1
	c1,0.1,1.9,0.2,2.9,0.3c0.1,0.1,0.3,0.1,0.4,0.2c0.1,0.1,0.3,0.3,0.4,0.4c0.2,0,0.3,0,0.5,0c0.3-0.1,0.7-0.1,1-0.2
	c0.2-0.1,0.4-0.1,0.6-0.2c0.1,0,0.1-0.1,0.2-0.1c0,0,0.1,0,0.1,0c0,0,0.1-0.1,0.1-0.1c0.2-0.1,0.3-0.2,0.5-0.3c0,0,0.1,0,0.1,0
	c0,0,0.1-0.1,0.1-0.1c0.1,0,0.2-0.1,0.3-0.1c0.3-0.1,0.6-0.3,0.9-0.4c0.1,0,0.2-0.1,0.3-0.1c0.1,0,0.1-0.1,0.2-0.1
	c0.4-0.1,0.8-0.2,1.2-0.3c0.4-0.1,0.9-0.1,1.3-0.2c0.6,0,1.1,0,1.7,0c1.5-0.1,2.9-0.2,4.4-0.3c0.2,0,0.4,0,0.7,0.1
	c0,0,0.1,0.1,0.1,0.1c0,0.1,0,0.2,0,0.2c0,0.1-0.1,0.1-0.1,0.2c-0.1,0.1-0.3,0.2-0.4,0.3c-0.4,0.3-0.8,0.5-1.1,0.8
	c0,0-0.1,0.1-0.1,0.1c-0.1,0-0.1,0.1-0.2,0.1c-0.1,0.1-0.3,0.3-0.4,0.4c0,0.1,0,0.2,0,0.3c0,0,0.1,0.1,0.1,0.1c0.1,0,0.1,0,0.2,0.1
	c0.1,0,0.2,0,0.3,0c0.2,0,0.3-0.1,0.5-0.1c0.2-0.1,0.3-0.1,0.5-0.2c0,0,0,0,0-0.1c0.5-0.2,1.1-0.4,1.7-0.7c0.6-0.3,1.3-0.6,2-1
	c0.1-0.1,0.2-0.1,0.3-0.2c0.1-0.1,0.3-0.1,0.4-0.2c0,0,0.1-0.1,0.1-0.1c0.1,0,0.3-0.1,0.4-0.1c0.1,0,0.3,0,0.4,0
	c0,0,0.1,0.1,0.1,0.1c0,0.1,0,0.2,0,0.4c-0.1,0.1-0.1,0.2-0.2,0.3c-0.1,0.1-0.2,0.2-0.3,0.4c-0.1,0.1-0.3,0.2-0.4,0.3
	c0,0-0.1,0.1-0.1,0.1c0,0.2,0,0.3,0,0.5c0.1,0,0.1,0.1,0.2,0.1c0.2,0,0.4,0,0.6,0c0.1,0,0.3-0.1,0.4-0.1c0,0,0,0,0.1-0.1
	c0.2-0.1,0.4-0.1,0.7-0.2c0.9-0.3,1.8-0.7,2.6-1c0.5-0.2,0.9-0.5,1.4-0.8c0.3-0.1,0.6-0.2,0.9-0.3c0.1,0,0.2,0,0.3,0
	c0,0,0.1,0.1,0.1,0.1c0,0.1,0,0.2,0,0.3c-0.1,0.1-0.2,0.2-0.3,0.4c-0.2,0.1-0.3,0.3-0.5,0.4c-0.1,0.1-0.1,0.1-0.2,0.2
	c-0.1,0.1-0.3,0.2-0.4,0.3c0,0-0.1,0.1-0.1,0.1c-0.1,0.1-0.2,0.1-0.2,0.2c0,0-0.1,0.1-0.1,0.1c0,0,0,0.1,0,0.1c0,0,0,0,0.1,0
	c0.1,0,0.2,0,0.3-0.1c0.6-0.2,1.2-0.5,1.8-0.7c0,0,0,0,0-0.1c0.6-0.2,1.1-0.4,1.7-0.7c0.4-0.1,0.9-0.3,1.3-0.4c0.1,0,0.3,0,0.4,0
	c0.1,0,0.1,0.1,0.2,0.1c0,0,0.1,0.1,0.1,0.1c0,0,0,0.1,0.1,0.1c0,0.2,0,0.4,0,0.6c-0.1,0.2-0.3,0.3-0.4,0.5
	c-0.1,0.1-0.2,0.2-0.3,0.3c-0.1,0.1-0.1,0.2-0.2,0.3c0,0.1,0,0.2,0,0.3c0,0,0.1,0.1,0.1,0.1c0.1,0,0.1,0,0.2,0.1c0.3,0,0.6,0,0.9,0
	c0.3-0.1,0.5-0.1,0.8-0.2c0.1,0,0.1-0.1,0.2-0.1c0,0,0,0,0-0.1c0.2-0.1,0.3-0.2,0.5-0.3c0.1-0.1,0.1-0.1,0.2-0.2
	c0,0,0.1-0.1,0.1-0.1c0,0,0.1,0,0.1,0c0,0,0.1-0.1,0.1-0.1c0.2-0.1,0.4-0.2,0.6-0.3c0,0,0,0,0-0.1c0.1,0,0.2-0.1,0.2-0.1
	c0,0,0,0,0-0.1c0.4-0.2,0.7-0.3,1.1-0.5c0.7-0.2,1.3-0.4,2-0.7c0.3-0.1,0.5-0.1,0.8-0.2c0.3,0,0.6-0.1,1-0.1c0.2,0,0.5,0,0.8,0
	c0.2,0,0.3,0.1,0.5,0.1c0.1,0,0.1,0.1,0.2,0.1c0.2,0,0.4,0,0.6,0c0.1-0.1,0.3-0.1,0.4-0.2c0.3-0.2,0.6-0.4,1-0.6
	c0.3-0.2,0.6-0.3,1-0.5c0.2-0.1,0.3-0.1,0.5-0.2c0.2,0,0.3,0,0.5,0c0,0,0.1,0.1,0.1,0.1c0,0.1,0,0.2,0,0.3c0,0.1-0.1,0.1-0.1,0.2
	c-0.1,0.1-0.2,0.2-0.3,0.3c-0.3,0.2-0.7,0.5-1.1,0.7c-1,0.5-2,1.1-3,1.6c-0.1,0.1-0.2,0.1-0.2,0.2c-0.1,0.1-0.2,0.2-0.3,0.3
	c0,0.1-0.1,0.1-0.1,0.2c0,0.2,0.1,0.3,0.1,0.5c0.1,0.1,0.2,0.2,0.3,0.3c0.2,0.1,0.3,0.1,0.5,0.2c1.7,0,3.4,0,5.2,0.1
	c9.2,0,18.4,0,27.6,0c0.5,0.2,1.1,0.4,1.7,0.6c0,0,0,0,0,0.1c-3.1,0-6.2,0-9.3,0c-7.7,0-15.4,0-23.1,0c-1,0-2,0-3.1-0.1
	c-0.2-0.1-0.3-0.1-0.5-0.2c-0.1-0.1-0.3-0.2-0.4-0.3c-0.1-0.1-0.1-0.2-0.2-0.2c-0.1-0.1-0.2-0.1-0.3-0.2c-0.1,0-0.2,0-0.3,0
	c-0.5,0.2-1,0.3-1.5,0.5c-0.2,0.1-0.4,0.1-0.7,0.2c-0.3,0-0.6,0.1-1,0.1c-0.4,0-0.7,0-1.1-0.1c-0.1-0.1-0.3-0.1-0.4-0.2
	c-0.1-0.1-0.3-0.2-0.4-0.4c-0.2,0-0.3,0-0.5,0c-0.1,0.1-0.3,0.1-0.4,0.2c-0.1,0.1-0.2,0.1-0.3,0.2c-0.4,0.1-0.8,0.3-1.2,0.4
	c-0.2,0-0.4,0-0.6,0c-0.2-0.1-0.3-0.1-0.5-0.2c-0.1-0.1-0.2-0.1-0.3-0.2c0,0-0.1-0.1-0.1-0.1c-0.1-0.2-0.2-0.4-0.3-0.6
	c0-0.2,0-0.3,0-0.5c0.1-0.1,0.2-0.2,0.3-0.3c0-0.1,0-0.1,0-0.2c-0.1,0-0.1,0-0.2,0c-0.1,0-0.1,0-0.2,0c-0.4,0.2-0.9,0.3-1.3,0.5
	c-0.2,0.1-0.4,0.2-0.7,0.4c-0.5,0.2-1.1,0.4-1.7,0.7c0,0-0.1,0.1-0.1,0.1c-0.2,0.1-0.5,0.1-0.7,0.2c-0.2,0-0.3,0-0.5,0
	c-0.1,0-0.1-0.1-0.2-0.1c0,0-0.1-0.1-0.1-0.1c0-0.1,0-0.2,0-0.3c0.1-0.1,0.1-0.2,0.2-0.3c0,0,0.1-0.1,0.1-0.1c0,0,0-0.1,0-0.1
	c0.1-0.1,0.1-0.2,0.2-0.3c-0.1,0-0.1,0-0.2,0c-0.1,0.1-0.2,0.1-0.3,0.2c-0.2,0.1-0.5,0.2-0.7,0.3c0,0,0,0,0,0.1
	c-0.7,0.3-1.5,0.5-2.2,0.8c0,0,0,0,0,0.1c-0.2,0-0.4,0.1-0.6,0.1c-0.3,0-0.6,0-0.9,0c-0.2-0.1-0.4-0.1-0.5-0.2c0,0-0.1-0.1-0.1-0.1
	c-0.1-0.2-0.2-0.3-0.3-0.5c-0.1-0.2-0.1-0.3-0.2-0.5c-0.1,0-0.2,0-0.3,0c-0.1,0-0.2,0.1-0.3,0.1c-0.2,0.1-0.4,0.2-0.6,0.3
	c0,0,0,0,0,0.1c-0.2,0.1-0.5,0.3-0.8,0.4c-0.3,0.1-0.5,0.2-0.8,0.3c-0.1,0-0.2,0.1-0.4,0.1c0,0,0,0,0,0.1c-0.2,0.1-0.5,0.1-0.7,0.2
	c-0.3,0-0.6,0-0.9,0c-0.1,0-0.2-0.1-0.4-0.1c-0.1-0.1-0.3-0.2-0.4-0.3c0-0.1-0.1-0.1-0.1-0.2c0-0.1,0-0.1-0.1-0.2c0-0.2,0-0.4,0-0.6
	c0.1-0.1,0.1-0.2,0.2-0.3c0.2-0.3,0.5-0.6,0.7-0.9c0-0.1,0-0.2,0-0.2c-0.7,0-1.4,0-2.2,0c-0.2,0-0.4,0.1-0.6,0.1c0,0,0,0.1-0.1,0.1
	c0,0.3-0.1,0.6-0.1,0.9c-0.1,0.1-0.1,0.2-0.2,0.3c-0.1,0.1-0.1,0.1-0.2,0.2c-0.2,0.1-0.4,0.2-0.6,0.3c-0.4,0.2-0.8,0.3-1.2,0.5
	c-0.3,0.1-0.6,0.1-1,0.2c-0.5,0-1.1,0-1.6,0c-0.2-0.1-0.4-0.1-0.6-0.2c-0.1,0-0.1-0.1-0.2-0.1c-0.1-0.3-0.3-0.5-0.4-0.8
	c-0.2,0-0.3,0-0.5,0c-0.1,0-0.2,0.1-0.3,0.1c-0.5,0.1-0.9,0.2-1.4,0.3c-0.1,0-0.1,0.1-0.2,0.1c0,0.1,0,0.1-0.1,0.2
	c-0.1,0.1-0.1,0.2-0.2,0.3c-0.1,0.1-0.2,0.1-0.3,0.2c-0.3,0.1-0.5,0.2-0.8,0.2c-0.3,0-0.5,0.1-0.8,0.1c-0.3,0-0.7,0.1-1,0.1
	c0,0-0.1,0-0.1,0.1C109.6,31.5,109,31.5,108.4,31.5L108.4,31.5z M109.8,30.7C109.8,30.7,109.8,30.7,109.8,30.7
	c0.5-0.1,0.9-0.1,1.4-0.1c0,0-0.1,0.1-0.1,0.1C110.7,30.7,110.2,30.7,109.8,30.7L109.8,30.7z M97.8,30.3c0-0.1,0-0.1,0-0.2
	c0,0,0.1-0.1,0.1-0.1c0.1-0.1,0.2-0.1,0.3-0.2c0.1,0,0.1,0,0.2-0.1c0,0,0.1-0.1,0.1-0.1c0.2-0.1,0.4-0.1,0.7-0.2c0,0,0.1,0,0.1-0.1
	c0.1,0,0.3-0.1,0.4-0.1c0.1,0,0.1-0.1,0.2-0.1c0.1,0,0.2-0.1,0.4-0.1c0,0,0.1,0,0.1-0.1c0.4-0.1,0.8-0.2,1.2-0.3c0.2,0,0.5,0,0.8,0
	c0,0.1,0,0.1,0,0.2c-0.2,0.1-0.4,0.2-0.5,0.3c-0.1,0-0.2,0.1-0.3,0.1c-0.1,0-0.1,0.1-0.2,0.1c-0.3,0.1-0.6,0.2-1,0.3
	c-0.1,0-0.2,0.1-0.4,0.1c-0.1,0-0.2,0.1-0.3,0.1c-0.2,0-0.3,0.1-0.5,0.1c0,0-0.1,0-0.1,0.1C98.6,30.2,98.2,30.2,97.8,30.3L97.8,30.3
	z M118,30.2c-0.2-0.1-0.3-0.1-0.5-0.2c0,0-0.1-0.1-0.1-0.1c0-0.1,0-0.3,0-0.4c0.1-0.1,0.2-0.1,0.3-0.2c0.1-0.1,0.2-0.1,0.4-0.2
	c0.2-0.1,0.4-0.2,0.6-0.2c0.4-0.1,0.9-0.2,1.3-0.3c0.3,0,0.5,0,0.8,0c0.1,0,0.1,0.1,0.2,0.1c0,0.1,0,0.2,0,0.4
	c0,0.1-0.1,0.2-0.1,0.3c-0.1,0.1-0.1,0.1-0.2,0.2c-0.3,0.2-0.6,0.3-0.9,0.5c-0.2,0.1-0.5,0.1-0.7,0.2
	C118.7,30.2,118.4,30.2,118,30.2L118,30.2z M38.3,29.8c-0.1,0-0.2,0-0.3-0.1c0,0,0-0.1-0.1-0.1c0.1-0.1,0.1-0.1,0.2-0.2
	c0.2-0.1,0.3-0.2,0.5-0.3c0.1,0,0.2-0.1,0.3-0.1c0,0,0.1-0.1,0.1-0.1c0.3-0.1,0.5-0.2,0.8-0.3c0,0,0.1-0.1,0.1-0.1
	c0.1,0,0.2-0.1,0.3-0.1c0,0,0,0,0-0.1c0.3-0.1,0.7-0.2,1-0.3c0,0,0,0,0.1-0.1c0.3,0,0.5-0.1,0.8-0.1c0,0,0.1,0,0.1-0.1
	c0.3,0,0.5-0.1,0.8-0.1c0.2,0,0.3,0,0.5,0c0,0,0.1,0,0.1,0.1c0,0.1-0.1,0.1-0.1,0.2c-0.2,0.1-0.3,0.2-0.5,0.4c-0.1,0-0.1,0-0.2,0
	c0,0-0.1,0.1-0.1,0.1c-0.1,0.1-0.2,0.1-0.3,0.2c-0.1,0-0.3,0.1-0.4,0.1c0,0,0,0,0,0.1c-0.1,0-0.2,0.1-0.3,0.1c0,0-0.1,0.1-0.1,0.1
	c-0.1,0-0.2,0.1-0.3,0.1c0,0-0.1,0.1-0.1,0.1c-0.2,0-0.3,0.1-0.5,0.1c0,0,0,0,0,0.1c-0.2,0-0.3,0.1-0.5,0.1c0,0,0,0,0,0.1
	c-0.2,0.1-0.5,0.1-0.7,0.2C39,29.8,38.7,29.8,38.3,29.8L38.3,29.8z M146.2,29.8c-0.1,0-0.1-0.1-0.2-0.1c0-0.1,0-0.2,0-0.3
	c0.1-0.1,0.1-0.1,0.2-0.2c0.2-0.1,0.5-0.2,0.7-0.3c0.6-0.2,1.2-0.4,1.8-0.7c0.5-0.1,1-0.3,1.5-0.4c0.2,0,0.4,0,0.7,0
	c0,0.1,0,0.2,0,0.3c-0.1,0.1-0.1,0.2-0.2,0.2c-0.1,0.1-0.2,0.1-0.2,0.2c0,0-0.1,0.1-0.1,0.1c-0.2,0.2-0.5,0.3-0.8,0.5
	c-0.4,0.2-0.8,0.3-1.2,0.5c-0.3,0.1-0.7,0.1-1,0.2C147,29.8,146.6,29.8,146.2,29.8L146.2,29.8z M51.1,29.4c0-0.1,0.1-0.2,0.1-0.3
	c0.1-0.1,0.1-0.1,0.2-0.2c0.1-0.1,0.2-0.1,0.2-0.2c0.1,0,0.2-0.1,0.2-0.1c0.3-0.2,0.6-0.3,0.9-0.5c0.1,0,0.3-0.1,0.4-0.1
	c0,0,0.1-0.1,0.1-0.1c0.2-0.1,0.4-0.1,0.6-0.2c0.2,0,0.4-0.1,0.6-0.1c0.1,0,0.3,0,0.4,0c0,0,0.1,0.1,0.1,0.1c0,0.1-0.1,0.1-0.1,0.2
	c0,0-0.1,0-0.1,0c0,0-0.1,0.1-0.1,0.1c-0.2,0.1-0.5,0.3-0.7,0.4c-0.1,0-0.2,0.1-0.3,0.1c0,0,0,0,0,0.1c-0.1,0-0.2,0.1-0.4,0.1
	c-0.2,0.1-0.4,0.1-0.6,0.2c-0.1,0-0.1,0.1-0.2,0.1c-0.1,0-0.2,0.1-0.3,0.1c0,0,0,0,0,0.1c-0.1,0-0.3,0.1-0.4,0.1
	c-0.1,0-0.2,0.1-0.3,0.1C51.5,29.4,51.3,29.4,51.1,29.4L51.1,29.4z M69.3,26.5c-0.1-0.1-0.2-0.1-0.3-0.2c-0.2-0.2-0.3-0.4-0.5-0.6
	c-0.1-0.1-0.1-0.1-0.2-0.2c0-0.2,0-0.3,0-0.5c0-0.1,0.1-0.1,0.1-0.2c0.1-0.1,0.2-0.2,0.2-0.2c0.2,0,0.3,0,0.5,0c0,0,0.1,0.1,0.1,0.1
	c0.3,0.1,0.5,0.3,0.8,0.4c0,0,0.1,0,0.1,0c0,0,0,0.1,0,0.1c0.1,0.1,0.2,0.1,0.3,0.2c0.1,0,0.1,0,0.2,0.1c0.1,0.1,0.2,0.2,0.4,0.3
	c0,0.1,0,0.1,0,0.2c0,0.1-0.1,0.1-0.1,0.2c-0.1,0.1-0.1,0.1-0.2,0.2c-0.1,0-0.3,0.1-0.4,0.1c0,0,0,0,0,0.1
	C69.9,26.5,69.6,26.5,69.3,26.5L69.3,26.5z M84.6,26.2c-0.2-0.1-0.4-0.1-0.5-0.2c0,0-0.1-0.1-0.1-0.1c0,0-0.1,0-0.1-0.1
	c0-0.1-0.1-0.1-0.1-0.2c0-0.1-0.1-0.1-0.1-0.2c0,0-0.1-0.1-0.1-0.1c0-0.1,0-0.3,0-0.4c0.1-0.1,0.1-0.2,0.2-0.3
	c0.1-0.1,0.1-0.1,0.2-0.2c0.1,0,0.1-0.1,0.2-0.1c0.1,0,0.3,0,0.4,0c0.1,0.1,0.3,0.2,0.4,0.3c0.1,0.1,0.1,0.2,0.2,0.2
	c0,0,0.1,0.1,0.1,0.1c0.1,0.1,0.1,0.2,0.2,0.2c0,0.1,0,0.2,0,0.3c-0.1,0.1-0.1,0.2-0.2,0.3c-0.1,0.1-0.1,0.2-0.2,0.2
	c-0.1,0-0.2,0.1-0.3,0.1C84.7,26.2,84.7,26.2,84.6,26.2L84.6,26.2z"/>
</svg>
