<?xml version="1.0" encoding="utf-8"?>
<!-- Generator: Adobe Illustrator 21.1.0, SVG Export Plug-In . SVG Version: 6.00 Build 0)  -->
<svg version="1.1" id="Layer_1" xmlns="http://www.w3.org/2000/svg" xmlns:xlink="http://www.w3.org/1999/xlink" x="0px" y="0px"
	 viewBox="0 0 15 15" style="enable-background:new 0 0 15 15;" xml:space="preserve">
<style type="text/css">
	.share-st0{fill:#989898;}
</style>
<path class="share-st0" d="M12,9.9c-0.6,0-1.1,0.2-1.5,0.6L5.1,7.8c0-0.1,0-0.2,0-0.3c0-0.1,0-0.2,0-0.3l5.5-2.7c0.4,0.4,0.9,0.6,1.5,0.6
	c1.1,0,2-0.9,2-2s-0.9-2-2-2s-2,0.9-2,2c0,0.1,0,0.2,0,0.3L4.5,6.1C4.1,5.7,3.6,5.5,3,5.5c-1.1,0-2,0.9-2,2s0.9,2,2,2
	c0.6,0,1.1-0.2,1.5-0.6l5.5,2.7c0,0.1,0,0.2,0,0.3c0,1.1,0.9,2,2,2s2-0.9,2-2S13.1,9.9,12,9.9z"/>
</svg>
