<?xml version="1.0" encoding="utf-8"?>
<svg version="1.1" id="Layer_1" xmlns="http://www.w3.org/2000/svg" xmlns:xlink="http://www.w3.org/1999/xlink" x="0px" y="0px"
	 viewBox="0 0 1050 1050" style="enable-background:new 0 0 1050 1050;" xml:space="preserve">
<g id="share_svg">
	<path fill="#989898" d="M12,9.9c-0.6,0-1.1,0.2-1.5,0.6L5.1,7.8c0-0.1,0-0.2,0-0.3c0-0.1,0-0.2,0-0.3l5.5-2.7c0.4,0.4,0.9,0.6,1.5,0.6
	c1.1,0,2-0.9,2-2s-0.9-2-2-2s-2,0.9-2,2c0,0.1,0,0.2,0,0.3L4.5,6.1C4.1,5.7,3.6,5.5,3,5.5c-1.1,0-2,0.9-2,2s0.9,2,2,2
	c0.6,0,1.1-0.2,1.5-0.6l5.5,2.7c0,0.1,0,0.2,0,0.3c0,1.1,0.9,2,2,2s2-0.9,2-2S13.1,9.9,12,9.9z"/>
</g>
<g id="enveloppe">
	<path fill="#989898" d="M30,2.2c0,6.4,0,12.8,0,19.2c-0.1,0.3-0.3,0.7-0.4,1c-0.6,0.9-1.5,1.2-2.5,1.2c-8,0-16,0-24,0
		c-0.1,0-0.3,0-0.4,0C1.1,23.5,0,22.4,0,21C0,14.8,0,8.7,0,2.6C0,2,0.2,1.5,0.6,1C1.2,0.3,2,0,3,0c8,0,16,0,24,0c0.1,0,0.3,0,0.4,0
		C28,0,28.5,0.2,29,0.6C29.5,1,29.8,1.6,30,2.2z M15,2.2c-4,0-8.1,0-12.1,0c-0.6,0-0.7,0.2-0.7,0.7c0,1.8,0.9,3.3,2.3,4.4
		c2.4,1.9,4.8,3.8,7.2,5.8c0.7,0.6,1.5,1.1,2.3,1.6c0.7,0.4,1.4,0.4,2.1,0c0.6-0.3,1.1-0.7,1.6-1.1c2.1-1.6,4.1-3.3,6.2-4.9
		c1-0.8,2-1.5,2.8-2.5c0.7-0.9,1.3-1.9,1.3-3.1c0-0.9-0.1-1-1-1C22.9,2.2,18.9,2.2,15,2.2z M27.9,8.1c-0.5,0.5-1,0.9-1.4,1.2
		c-1.6,1.3-3.2,2.5-4.8,3.8c-1.2,1-2.4,2-3.6,2.9c-1,0.7-2.1,1.2-3.3,1.1c-1.2-0.1-2.3-0.7-3.2-1.4c-1.2-0.9-2.3-1.9-3.5-2.9
		c-1.9-1.6-3.8-3.1-5.8-4.7c0,0,0,0-0.1,0c0,0.1,0,0.2,0,0.4c0,4,0,8,0,12c0,0.7,0.1,0.9,0.9,0.9c8,0,16,0,24,0
		c0.7,0,0.8-0.1,0.8-0.9c0-4,0-8,0-12C27.9,8.4,27.9,8.3,27.9,8.1z"/>
</g>

<g id="cadi">
	<path fill="#989898" d="M27,5.2H13.4c-0.3,0-0.6,0.3-0.6,0.6c0,0.3,0.3,0.6,0.6,0.6H27c0.2,0,0.4,0,0.6,0.1c0.9,0.3,1.3,1.3,1,2.2
		l-2.1,5.5c-0.4,0.9-1.2,1.5-2.2,1.6L9,16.9L5.2,5.2C4.8,3.9,3.5,3,2.1,3H0.7C0.3,3,0.1,3.2,0.1,3.6c0,0.3,0.3,0.6,0.6,0.6h1.4
		C3,4.2,3.8,4.8,4,5.6l4.1,12.6c0.4,1.2,1.5,2,2.8,2h14H25c0.3,0,0.5,0.3,0.5,0.6c0,0.3-0.3,0.5-0.6,0.5h-1l0,0l0,0H10.7l0,0
		c-1.5,0-2.8,1.2-2.8,2.8c0,1.5,1.2,2.8,2.8,2.8c1.5,0,2.8-1.2,2.8-2.8c0-0.6-0.2-1.1-0.5-1.5h8.8c-0.3,0.4-0.5,1-0.5,1.5
		c0,1.5,1.2,2.8,2.8,2.8c1.5,0,2.8-1.2,2.8-2.8c0-0.7-0.3-1.4-0.7-1.8c0.5-0.3,0.9-0.9,0.8-1.6c0-1-0.9-1.7-1.9-1.7h-14
		c-0.6,0-1.2-0.3-1.5-0.9l14.9-1c1.4-0.1,2.7-1,3.2-2.4l2.1-5.5c0.1-0.3,0.2-0.7,0.2-1C30,6.6,28.6,5.2,27,5.2z M12.2,24.1
		L12.2,24.1c0,0.9-0.7,1.6-1.6,1.6S9.1,25,9.1,24.1s0.7-1.6,1.6-1.6C11.5,22.5,12.2,23.2,12.2,24.1z M25.5,24.1
		c0,0.9-0.7,1.6-1.6,1.6s-1.6-0.7-1.6-1.6s0.7-1.6,1.6-1.6S25.5,23.2,25.5,24.1L25.5,24.1z"/>
</g>
<g id="fullscreen_svg">
	<polyline fill="#989898" points="1.9,12.4 1.9,3.6 12.1,3.6"/>
	<polyline fill="#989898" points="27.9,12.4 27.9,3.6 17.7,3.6"/>
	<polyline fill="#989898" points="27.9,17.3 27.9,26.1 17.7,26.1"/>
	<polyline fill="#989898" points="1.9,17.3 1.9,26.1 12.1,26.1"/>
</g>
<g id="fullscreen_actif_svg">
	<polyline fill="#989898" points="12.1,3.6 12.1,12.4 1.9,12.4"/>
	<polyline fill="#989898" points="17.7,3.6 17.7,12.4 27.9,12.4"/>
	<polyline fill="#989898" points="17.7,26.1 17.7,17.3 27.9,17.3"/>
	<polyline fill="#989898" points="12.1,26.1 12.1,17.3 1.9,17.3"/>
</g>	 
<g id="txt_circ">
	<circle cx="249" cy="250" r="249" fill="#ffce00" />
	<path id="curve_1" fill="transparent" d="M26.3,250C26.3,126.5,126.5,26.3,250,26.3S473.7,126.5,473.7,250S373.5,473.7,250,473.7
	S26.3,373.5,26.3,250z"/>
	<path id="curve_2" fill="transparent" d="M473.7,250c0,123.5-100.1,223.7-223.7,223.7S26.3,373.5,26.3,250S126.5,26.3,250,26.3
	S473.7,126.5,473.7,250z"/>
	<text width="500">
		<textPath class="txt_in_curve" xlink:href="#curve_1" startOffset="7.8939%">
			We speak HipHop
		</textPath>
	</text>
	<text width="500">
		<textPath class="txt_in_curve" xlink:href="#curve_2" startOffset="7.8939%">
			We speak HipHop
		</textPath>
	</text>
</g>
</svg>
