<?xml version="1.0" encoding="utf-8"?>
<!-- Generator: Adobe Illustrator 21.1.0, SVG Export Plug-In . SVG Version: 6.00 Build 0)  -->
<svg version="1.1" id="Layer_1" xmlns="http://www.w3.org/2000/svg" xmlns:xlink="http://www.w3.org/1999/xlink" x="0px" y="0px"
	 viewBox="0 0 1050 1050" style="enable-background:new 0 0 1050 1050;" xml:space="preserve">
<style type="text/css">
	.st0{fill:none;stroke:#020203;stroke-miterlimit:10;}
</style>
<path class="st0" d="M525.7,1047.3c-287.9,0-522.2-234.3-522.2-522.2S237.8,2.9,525.7,2.9c287.9,0,522.2,234.3,522.2,522.2
	S813.7,1047.3,525.7,1047.3z"/>
<path class="st0" d="M525.7,1036.9C243.5,1036.9,14,807.3,14,525.1C14,242.9,243.5,13.3,525.7,13.3c282.2,0,511.8,229.6,511.8,511.8
	C1037.5,807.3,807.9,1036.9,525.7,1036.9z"/>
<path class="st0" d="M525.7,1026.5c-276.5,0-501.4-224.9-501.4-501.4c0-276.5,224.9-501.4,501.4-501.4
	c276.5,0,501.4,224.9,501.4,501.4C1027.1,801.6,802.2,1026.5,525.7,1026.5z"/>
<path class="st0" d="M525.7,1016.1c-270.7,0-491-220.2-491-491c0-270.7,220.2-491,491-491c270.7,0,491,220.2,491,491
	C1016.7,795.8,796.5,1016.1,525.7,1016.1z"/>
<path class="st0" d="M525.7,1005.7c-265,0-480.5-215.6-480.5-480.5c0-265,215.6-480.5,480.5-480.5c265,0,480.5,215.6,480.5,480.5
	C1006.3,790.1,790.7,1005.7,525.7,1005.7z"/>
<path class="st0" d="M525.7,995.2c-259.2,0-470.1-210.9-470.1-470.1C55.6,265.9,266.5,55,525.7,55C785,55,995.9,265.9,995.9,525.1
	C995.9,784.3,785,995.2,525.7,995.2z"/>
<path class="st0" d="M525.7,984.8C272.3,984.8,66,778.6,66,525.1C66,271.6,272.3,65.4,525.7,65.4s459.7,206.2,459.7,459.7
	C985.5,778.6,779.2,984.8,525.7,984.8z"/>
<path class="st0" d="M525.7,974.4C278,974.4,76.4,772.9,76.4,525.1S278,75.8,525.7,75.8C773.5,75.8,975,277.4,975,525.1
	S773.5,974.4,525.7,974.4z"/>
<path class="st0" d="M525.7,964c-242,0-438.9-196.9-438.9-438.9c0-242,196.9-438.9,438.9-438.9c242,0,438.9,196.9,438.9,438.9
	C964.6,767.1,767.7,964,525.7,964z"/>
<path class="st0" d="M525.7,953.6c-236.3,0-428.5-192.2-428.5-428.5c0-236.3,192.2-428.5,428.5-428.5
	c236.3,0,428.5,192.2,428.5,428.5C954.2,761.4,762,953.6,525.7,953.6z"/>
<path class="st0" d="M525.7,943.2c-230.5,0-418.1-187.5-418.1-418.1c0-230.5,187.5-418.1,418.1-418.1
	c230.5,0,418.1,187.5,418.1,418.1C943.8,755.6,756.3,943.2,525.7,943.2z"/>
<path class="st0" d="M525.7,932.8c-224.8,0-407.7-182.9-407.7-407.6c0-224.8,182.9-407.7,407.7-407.7
	c224.8,0,407.7,182.9,407.7,407.7C933.4,749.9,750.5,932.8,525.7,932.8z"/>
<path class="st0" d="M525.7,922.4c-219,0-397.2-178.2-397.2-397.2c0-219,178.2-397.2,397.2-397.2c219,0,397.2,178.2,397.2,397.2
	C923,744.2,744.8,922.4,525.7,922.4z"/>
<path class="st0" d="M525.7,911.9c-213.3,0-386.8-173.5-386.8-386.8c0-213.3,173.5-386.8,386.8-386.8
	c213.3,0,386.8,173.5,386.8,386.8C912.6,738.4,739,911.9,525.7,911.9z"/>
<path class="st0" d="M525.7,901.5c-207.6,0-376.4-168.9-376.4-376.4c0-207.6,168.9-376.4,376.4-376.4
	c207.6,0,376.4,168.9,376.4,376.4C902.2,732.7,733.3,901.5,525.7,901.5z"/>
<path class="st0" d="M525.7,891.1c-201.8,0-366-164.2-366-366c0-201.8,164.2-366,366-366c201.8,0,366,164.2,366,366
	C891.7,726.9,727.6,891.1,525.7,891.1z"/>
<path class="st0" d="M525.7,880.7c-196.1,0-355.6-159.5-355.6-355.6c0-196.1,159.5-355.6,355.6-355.6
	c196.1,0,355.6,159.5,355.6,355.6C881.3,721.2,721.8,880.7,525.7,880.7z"/>
<path class="st0" d="M525.7,870.3c-190.3,0-345.2-154.8-345.2-345.2c0-190.3,154.8-345.2,345.2-345.2
	c190.3,0,345.2,154.8,345.2,345.2C870.9,715.4,716.1,870.3,525.7,870.3z"/>
<path class="st0" d="M525.7,859.9C341.2,859.9,191,709.7,191,525.1c0-184.6,150.2-334.8,334.8-334.8
	c184.6,0,334.8,150.2,334.8,334.8C860.5,709.7,710.3,859.9,525.7,859.9z"/>
<path class="st0" d="M525.7,849.5c-178.8,0-324.4-145.5-324.4-324.3c0-178.8,145.5-324.4,324.4-324.4
	c178.8,0,324.4,145.5,324.4,324.4C850.1,704,704.6,849.5,525.7,849.5z"/>
<path class="st0" d="M525.7,839.1c-173.1,0-313.9-140.8-313.9-313.9c0-173.1,140.8-313.9,313.9-313.9
	c173.1,0,313.9,140.8,313.9,313.9C839.7,698.2,698.9,839.1,525.7,839.1z"/>
<path class="st0" d="M525.7,828.6c-167.4,0-303.5-136.2-303.5-303.5c0-167.4,136.2-303.5,303.5-303.5
	c167.4,0,303.5,136.2,303.5,303.5C829.3,692.5,693.1,828.6,525.7,828.6z"/>
<path class="st0" d="M525.7,818.2c-161.6,0-293.1-131.5-293.1-293.1c0-161.6,131.5-293.1,293.1-293.1
	c161.6,0,293.1,131.5,293.1,293.1C818.9,686.7,687.4,818.2,525.7,818.2z"/>
<path class="st0" d="M525.7,807.8C369.9,807.8,243,681,243,525.1c0-155.9,126.8-282.7,282.7-282.7c155.9,0,282.7,126.8,282.7,282.7
	C808.4,681,681.6,807.8,525.7,807.8z"/>
<path class="st0" d="M525.7,797.4c-150.1,0-272.3-122.1-272.3-272.3c0-150.1,122.2-272.3,272.3-272.3S798,375,798,525.1
	C798,675.3,675.9,797.4,525.7,797.4z"/>
<path class="st0" d="M525.7,787c-144.4,0-261.9-117.5-261.9-261.9c0-144.4,117.5-261.9,261.9-261.9c144.4,0,261.9,117.5,261.9,261.9
	C787.6,669.5,670.1,787,525.7,787z"/>
<path class="st0" d="M525.7,776.6c-138.7,0-251.5-112.8-251.5-251.5c0-138.7,112.8-251.5,251.5-251.5
	c138.7,0,251.5,112.8,251.5,251.5C777.2,663.8,664.4,776.6,525.7,776.6z"/>
<path class="st0" d="M525.7,766.2c-132.9,0-241.1-108.1-241.1-241c0-132.9,108.1-241.1,241.1-241.1c132.9,0,241.1,108.1,241.1,241.1
	C766.8,658,658.7,766.2,525.7,766.2z"/>
<path class="st0" d="M525.7,755.8c-127.2,0-230.6-103.5-230.6-230.6c0-127.2,103.5-230.6,230.6-230.6s230.6,103.5,230.6,230.6
	C756.4,652.3,652.9,755.8,525.7,755.8z"/>
</svg>
