<?xml version="1.0" encoding="utf-8"?>
<!-- Generator: Adobe Illustrator 21.1.0, SVG Export Plug-In . SVG Version: 6.00 Build 0)  -->
<svg version="1.1" id="Layer_1" xmlns="http://www.w3.org/2000/svg" xmlns:xlink="http://www.w3.org/1999/xlink" x="0px" y="0px"
	 viewBox="0 0 600 600" style="enable-background:new 0 0 600 600;" xml:space="preserve">
<style type="text/css">
	.st0{fill:#FFFFFF;}
</style>
<g id="lign">
	<path class="st0" d="M495.6,599.1l-42.1-41c52.4-72.1,81.3-163.7,81.3-257.7c0-94.2-29-186-81.6-258.1l42.1-41.1
		c60.9,83.7,94.5,189.9,94.5,299.2C589.7,409.4,556.3,515.5,495.6,599.1"/>
	<path class="st0" d="M318.3,448.1l-45.2-36.2c19.7-32.9,30.1-71.5,30.1-111.5c0-42.9-12-83.7-34.5-118.2l43.8-38.4
		c29.9,45.6,45.6,99.8,45.6,156.7C358.2,353.4,344.4,404.5,318.3,448.1"/>
	<path class="st0" d="M404.2,522.8l-41.8-41.4c39.4-53.3,61.1-121.1,61.1-191c0-68-19.5-131.8-56.5-184.7l42.8-40.1
		c44.3,63.4,68.7,143.2,68.7,224.8C478.5,375.5,452.1,458,404.2,522.8"/>
</g>
<polygon class="st0" points="92.3,244.6 92.3,244.6 9.8,244.6 9.8,372.1 92.3,372.1 92.3,372.1 202.4,499.5 202.4,117.2 "/>
</svg>
