<?xml version="1.0" encoding="utf-8"?>
<!-- Generator: Adobe Illustrator 21.1.0, SVG Export Plug-In . SVG Version: 6.00 Build 0)  -->
<svg version="1.1" id="Layer_1" xmlns="http://www.w3.org/2000/svg" xmlns:xlink="http://www.w3.org/1999/xlink" x="0px" y="0px"
	 viewBox="0 0 50 50" style="enable-background:new 0 0 50 50;" xml:space="preserve">
<style type="text/css">
	.vimeo-st0{fill:#FECF0A;}
	.vimeo-st1{fill:#FFFFFF;}
</style>
<g>
	
		<ellipse transform="matrix(0.9994 -3.520203e-02 3.520203e-02 0.9994 -0.8646 0.8956)" class="vimeo-st0" cx="25" cy="25" rx="23.5" ry="23.5"/>
	<path class="vimeo-st1" d="M38.6,18.7c-0.1,2.6-2,6.3-5.6,10.9c-3.7,4.8-6.8,7.2-9.4,7.2c-1.6,0-2.9-1.5-4-4.4l-2.2-8.1
		c-0.8-2.9-1.7-4.4-2.6-4.4c-0.2,0-0.9,0.4-2.1,1.3l-1.3-1.7c1.3-1.2,2.7-2.4,4-3.5c1.8-1.5,3.1-2.4,4-2.4c2.1-0.2,3.4,1.2,3.9,4.3
		c0.5,3.3,0.9,5.4,1.1,6.2c0.6,2.8,1.3,4.2,2,4.2c0.6,0,1.4-0.9,2.6-2.7c1.1-1.8,1.8-3.2,1.8-4.1c0.2-1.5-0.4-2.3-1.8-2.3
		c-0.7,0-1.3,0.1-2,0.4c1.3-4.4,3.9-6.5,7.7-6.4C37.5,13.3,38.8,15.1,38.6,18.7L38.6,18.7z"/>
</g>
</svg>
