<?xml version="1.0" encoding="utf-8"?>
<!-- Generator: Adobe Illustrator 21.1.0, SVG Export Plug-In . SVG Version: 6.00 Build 0)  -->
<svg version="1.1" id="Layer_1" xmlns="http://www.w3.org/2000/svg" xmlns:xlink="http://www.w3.org/1999/xlink" x="0px" y="0px"
	 viewBox="0 0 360 220" style="enable-background:new 0 0 360 220;" xml:space="preserve">
<g>
	<path d="M34.9,118L34.9,118L34.9,118c-0.3,0-0.5,0-0.5,0v0H23.4l-0.1,2.3h11.6v0"/>
	<path d="M35.2,113.7L35.2,113.7l-0.1,0c-0.4,0-0.6,0-0.6,0H23.4v2.3h11.4"/>
	<polyline points="34.4,109.3 23.4,109.3 23.4,111.7 34.4,111.7 	"/>
	<path d="M35.2,105L35.2,105l-0.1,0c-0.4,0-0.6,0-0.6,0H23.4v2.3h11.4"/>
	<polyline points="35.2,100.7 35.2,100.6 23.4,100.6 23.4,103 34.4,103 34.4,103 	"/>
	<path d="M23.5,120.4V94.9l-2.3-0.1V117c0,0,0,0.1,0,0.2c-0.5-0.1-1.7-0.6-1.9-2.9V96H17v16.7l0,0.8c0,0,0,0,0,0
		c-0.5-0.1-1.7-0.6-1.9-2.9V96h-2.3v13.5l0,0.3c0,0,0,0,0,0c-0.6-0.1-1.8-0.7-1.9-3.4V96H8.6v9.1v1l0,0c-0.5-0.1-1.8-0.7-1.9-3.4
		v-7.3H4.4v6v1c0,0,0,1.8,1.3,3l0,0c0,0,1.2,1.2,3,1.3c0.1,0.6,0.4,1.7,1.2,2.4l0,0c0,0,1.2,1.2,3,1.3c0.1,0.6,0.4,1.7,1.2,2.4l0,0
		c0,0,1.3,1.2,3,1.3c0.1,0.6,0.4,1.6,1.2,2.4l0,0.1c0,0,1.3,1.2,3,1.3C21.4,118.6,21.9,120.4,23.5,120.4z"/>
	<path d="M61.4,93.2H7.8c0,0-0.1,0-0.2,0c0.1-0.5,0.6-1.7,2.9-1.9h50.7V89H12.2l-0.8,0c0,0,0,0,0,0c0.1-0.5,0.6-1.7,2.9-2h47v-2.3
		H15.5l-0.3,0c0,0,0,0,0,0c0.1-0.6,0.8-1.8,3.4-1.9h42.8v-2.3H19.8h-1c0.1-0.5,0.7-1.9,3.4-1.9h39v-2.3H23.6h-1c0,0-1.8,0-3,1.3l0,0
		c0,0-1.2,1.2-1.3,3c-0.6,0.1-1.7,0.4-2.5,1.2l0,0c0,0-1.2,1.2-1.3,3c-0.6,0.1-1.7,0.4-2.4,1.2l0,0c0,0-1.3,1.3-1.3,3.1
		c-0.6,0.1-1.7,0.4-2.4,1.2l-0.1,0c0,0-1.3,1.3-1.3,3.1c-0.9,0.2-2.7,0.6-2.7,2.2h56.8L61.4,93.2z"/>
	<g>
		<polygon points="22.2,94.3 5.3,94.3 5.3,100.7 22.1,95.8 		"/>
		<g>
			<line x1="14.9" y1="94.9" x2="12.6" y2="94.9"/>
			<line x1="19" y1="94.9" x2="16.8" y2="94.9"/>
			<line x1="23.1" y1="94.9" x2="20.9" y2="94.9"/>
			<line x1="10.7" y1="94.9" x2="8.5" y2="94.9"/>
			<line x1="6.6" y1="94.9" x2="4.4" y2="94.9"/>
		</g>
	</g>
	<path d="M27.5,103L27.5,103L27.5,103c0.3,0,0.5,0,0.5,0v0h20.3l0.1-2.3H27.6v0"/>
	<path d="M27.2,107.3L27.2,107.3l0.1,0c0.4,0,0.6,0,0.6,0h20.3V105H27.6"/>
	<polyline points="27.9,111.7 48.2,111.7 48.2,109.3 27.9,109.3 	"/>
	<path d="M27.2,116L27.2,116l0.1,0c0.4,0,0.6,0,0.6,0h20.3v-2.3H27.6"/>
	<polyline points="27.2,120.3 27.2,120.3 48.2,120.3 48.2,118 27.9,118 27.9,118 	"/>
	<path d="M48.1,100.6V125l2.3,0.1v-21.2c0,0,0-0.1,0-0.2c0.5,0.1,1.7,0.6,1.9,2.9V125h2.3v-16.7l0-0.8c0,0,0,0,0,0
		c0.5,0.1,1.7,0.6,1.9,2.9V125h2.3v-13.5l0-0.3c0,0,0,0,0,0c0.6,0.1,1.8,0.7,1.9,3.4V125H63v-9.1v-1l0,0c0.5,0.1,1.8,0.7,1.9,3.4
		v6.7h2.3v-5.4v-1c0,0,0-1.8-1.3-3l0,0c0,0-1.2-1.2-3-1.3c-0.1-0.6-0.4-1.7-1.2-2.4l0,0c0,0-1.2-1.2-3-1.3c-0.1-0.6-0.4-1.7-1.2-2.4
		l0,0c0,0-1.3-1.2-3-1.3c-0.1-0.6-0.4-1.6-1.2-2.4l0-0.1c0,0-1.3-1.2-3-1.3C50.2,102.4,49.7,100.6,48.1,100.6z"/>
	<path d="M9,127.2h54.7c0,0,0.1,0,0.2,0c-0.1,0.5-0.6,1.7-2.9,1.9H9.1v2.3h50.2l0.8,0c0,0,0,0,0,0c-0.1,0.5-0.6,1.7-2.9,2H9.1v2.3
		h46.9l0.3,0c0,0,0,0,0,0c-0.1,0.6-0.8,1.8-3.4,1.9H9.1v2.3h42.5h1c-0.1,0.5-0.7,1.9-3.4,1.9H9.1v2.3h38.8h1c0,0,1.8,0,3-1.3l0,0
		c0,0,1.2-1.2,1.3-3c0.6-0.1,1.7-0.4,2.5-1.2l0,0c0,0,1.2-1.2,1.3-3c0.6-0.1,1.7-0.4,2.4-1.2l0,0c0,0,1.3-1.3,1.3-3.1
		c0.6-0.1,1.7-0.4,2.4-1.2l0.1,0c0,0,1.3-1.3,1.3-3.1c0.9-0.2,2.7-0.6,2.7-2.2H9.1L9,127.2z"/>
	<g>
		<g>
			<line x1="56.7" y1="126.1" x2="58.9" y2="126.1"/>
			<line x1="52.5" y1="126.1" x2="54.8" y2="126.1"/>
			<line x1="48.4" y1="126.1" x2="50.6" y2="126.1"/>
			<line x1="60.8" y1="126.1" x2="63" y2="126.1"/>
			<line x1="64.9" y1="126.1" x2="67.1" y2="126.1"/>
		</g>
	</g>
	<polygon points="47.6,102.2 46,119.5 49.4,119.5 49.2,102.4 	"/>
	<g>
		<path d="M79.6,68.6c0,0,0.7,0.4,1.1-0.9l0.5,0l-0.5,1.3l-1,0.1L79.6,68.6z"/>
		<path d="M95.5,1.9l-15.2,67c0,0-1.4,0.3-0.1,0.3c1.8,0,2.3-1.3,2.3-1.3l14.8-66"/>
		<path d="M40.8,68.6c0,0,0.7,0.4,1.1-0.9l0.5,0l-0.5,1.3l-1,0.1L40.8,68.6z"/>
		<path d="M51.6,30.5l-7.9,37.3c0,0-0.5,1.3-2.3,1.3c-1.3,0,0.1-0.3,0.1-0.3l8.2-38.4H51.6z"/>
		<polyline points="91.1,1.9 76.5,67.2 78.3,67.7 93,1.9 		"/>
		<polyline points="86.6,1.9 74.1,60.5 75.9,61 88.6,1.9 		"/>
		<polyline points="82.2,1.9 72.4,50.3 73.7,53.6 84.1,1.9 		"/>
		<polyline points="77.7,1.9 70.5,41.2 71.3,46.8 79.6,1.9 		"/>
		<line x1="84.1" y1="1.9" x2="82.2" y2="1.9"/>
		<line x1="79.6" y1="1.9" x2="77.7" y2="1.9"/>
		<line x1="88.6" y1="1.9" x2="86.6" y2="1.9"/>
		<g>
			<path d="M81.5,68.7h-1h-0.1c-0.6,0-1.9-0.3-2.5-2.3l-0.7-2.1l0,0l-12-57.2l-0.1,0L65,6.7c-0.6-2.5-1.7-4.2-2.7-4.7l0,0
				c0,0-1-0.4-2.3-0.5l0,0h0c-0.3,0-0.7,0-1.1,0h-2l0,0h-1.3c-0.2,0-0.5,0-0.7,0c-0.1,0-0.3,0-0.4,0h-2h0l0,0H51c-0.2,0-0.5,0-0.7,0
				c-0.1,0-0.3,0-0.4,0h-2h-0.1l0,0h-1.2c-0.2,0-0.5,0-0.7,0c-0.1,0-0.3,0-0.4,0h-2h-0.1l0,0h-1.2c-0.2,0-0.5,0-0.7,0
				c-0.2,0-0.3,0-0.5,0L40,2l0.1,0l0,0h1h0.1c0.6,0,1.9,0.3,2.5,2.3l0.7,2.1l0,0l12,57.2h0.1l0.1,0.4c0.6,2.5,1.7,4.2,2.7,4.7l0,0
				c0,0,1,0.4,2.3,0.5v0h0c0.3,0,0.7,0,1.1,0h2l0,0h1.3c0.2,0,0.5,0,0.7,0c0.1,0,0.3,0,0.4,0h2h0l0,0h1.3c0.2,0,0.5,0,0.7,0
				c0.1,0,0.3,0,0.4,0h2h0.1l0,0h1.2c0.2,0,0.5,0,0.7,0c0.1,0,0.3,0,0.4,0h2h0.1l0,0h1.2c0.2,0,0.5,0,0.7,0c0.2,0,0.3,0,0.5,0
				L81.5,68.7L81.5,68.7L81.5,68.7z M63.8,68.7L63.8,68.7l-1.1,0c-0.5,0-1.9-0.2-2.7-2.3l-0.7-2.1l0,0l-12-57.2h0l0-0.1l0-0.1
				c-0.6-2.6-1.8-4.4-2.8-4.9l0,0c0,0,0,0-0.1,0v0l0.1,0l0,0h1h0.1c0,0,0,0,0,0c0.6,0,1.9,0.3,2.5,2.3L49,6.4l0,0l12,57.2H61l0,0.2
				l0,0C61.6,66.4,62.8,68.2,63.8,68.7L63.8,68.7c0,0,0.1,0,0.1,0L63.8,68.7z M68.3,68.7L68.3,68.7L68.3,68.7L68.3,68.7l-1.1,0h0
				c0,0-0.1,0-0.1,0c-0.6,0-1.9-0.3-2.5-2.3l-0.7-2.1l0,0l-12-57.2h0l0-0.1l0-0.1C51.2,4.4,50,2.6,48.9,2l0,0c0,0,0,0,0,0v0L49,2
				l0,0H50h0.1c0,0,0,0,0,0c0.6,0,1.9,0.3,2.5,2.3l0.7,2.1l0,0l12,57.2h0.1l0,0.2l0,0C66.1,66.4,67.3,68.2,68.3,68.7L68.3,68.7z
				 M72.7,68.7L72.7,68.7L72.7,68.7l-1.1,0h-0.1c0,0,0,0,0,0c-0.6,0-1.9-0.3-2.5-2.3l-0.7-2.1l0,0l-12-57.2h-0.1l0-0.2l0,0
				c-0.6-2.6-1.8-4.4-2.8-4.9l0,0l0,0l0,0l0,0h1.1h0c0,0,0.1,0,0.1,0c0.6,0,1.9,0.3,2.5,2.3l0.7,2.1l0,0l12,57.2h0l0,0.1l0,0.1
				C70.5,66.4,71.7,68.2,72.7,68.7L72.7,68.7C72.7,68.7,72.7,68.7,72.7,68.7L72.7,68.7z M77.2,68.7L77.2,68.7L77.2,68.7l-1.1,0H76
				c0,0,0,0,0,0c-0.6,0-1.9-0.3-2.5-2.3l-0.7-2.1l0,0l-12-57.2h-0.1l0-0.2l0,0C60,4.4,58.8,2.6,57.8,2l0,0c0,0,0,0-0.1,0l0.1,0l0,0
				H59c0.5,0,1.9,0.2,2.7,2.3l0.7,2.1l0,0l12,57.2h0l0,0.1l0,0.1C74.9,66.4,76.1,68.2,77.2,68.7L77.2,68.7
				C77.1,68.7,77.2,68.7,77.2,68.7L77.2,68.7z"/>
			<polygon points="81.6,68.7 81.7,68.7 81.7,68.7 81.7,68.7 			"/>
			<polygon points="40,2 40,2 40,2 40,2 			"/>
		</g>
		<path d="M43.2,68.7L43.2,68.7L43.2,68.7h-0.1l0,0h-1H42c-0.6,0-1.9-0.3-2.5-2.3l-0.7-2.1l0,0L25.7,2l-2.5,0l12.7,61.6l0,0.1
			c0.6,2.6,1.8,4.4,2.8,4.9v0c0,0,0,0,0.1,0v0l-0.1,0l0,0h-1h-0.1c0,0,0,0,0,0c-0.6,0-1.9-0.3-2.5-2.3l-0.7-2.1l0,0L21.2,2l-2.5,0
			l12.7,61.6l0,0.1c0.6,2.6,1.8,4.4,2.8,4.9l0,0c0,0,0,0,0,0l0,0l-0.1,0l0,0h-1.1h-0.1c0,0,0,0,0,0c-0.6,0-1.9-0.3-2.5-2.3l-0.7-2.1
			l0,0L16.8,2l-2.5,0l12.8,61.7l0,0c0.6,2.6,1.8,4.4,2.8,4.9l0,0l0,0l0,0l0,0h-1.1h0c0,0-0.1,0-0.1,0c-0.6,0-1.9-0.3-2.5-2.3
			l-0.7-2.1l0,0L12.3,2L9.8,2l12.8,61.7l0,0c0.6,2.6,1.8,4.4,2.8,4.9l0,0c0,0,0,0,0.1,0l-0.1,0l0,0h-1.1c-0.5,0-1.9-0.2-2.7-2.3
			l-0.7-2.1l0,0L7.9,2L5.3,2l12.9,62c0.6,2.5,1.7,4.2,2.7,4.7l0,0c0,0,1,0.4,2.3,0.5v0h0c0.3,0,0.7,0,1.1,0h2l0,0h1.3
			c0.2,0,0.5,0,0.7,0c0.1,0,0.3,0,0.4,0h2h0l0,0h1.3c0.2,0,0.5,0,0.7,0c0.1,0,0.3,0,0.4,0h2h0.1l0,0h1.2c0.2,0,0.5,0,0.7,0
			c0.1,0,0.3,0,0.4,0h2h0.1l0,0H41c0.2,0,0.5,0,0.7,0c0.2,0,0.3,0,0.5,0"/>
		<path d="M41.2,68.6c0,0,0.7,0.4,1.1-0.9l0.5,0l-0.5,1.3l-1,0.1L41.2,68.6z"/>
		<path d="M42,2.2c0,0-0.7-0.4-1.1,0.9l-0.5,0l0.5-1.3l1-0.1L42,2.2z"/>
		<g>
			<path d="M32.9,38.4l8.4-36.5c0,0,1.4-0.3,0.1-0.3c-1.8,0-2.3,1.4-2.3,1.4L31,38.4"/>
			<polyline points="35,47.8 45.1,3.5 43.4,3 33.1,47.8 			"/>
			<polyline points="37.2,58.4 47.6,10.2 45.8,9.7 35.2,58.4 			"/>
			<polyline points="39.8,66.9 49.3,20.5 48,17.2 37.8,66.9 			"/>
			<line x1="37.8" y1="66.9" x2="39.8" y2="66.9"/>
			<line x1="32.9" y1="38.4" x2="31" y2="38.4"/>
			<line x1="33.1" y1="47.8" x2="35" y2="47.8"/>
			<line x1="35.2" y1="58.4" x2="37.2" y2="58.4"/>
		</g>
		<path d="M41.3,1.8"/>
		<path d="M41.3,1.8"/>
		<polygon points="41.3,2.9 48.1,42 51.6,30.5 44.1,3.1 		"/>
		<polygon points="43.9,4.7 39.3,4.8 39.9,2.7 41.4,1.5 44.1,3.1 		"/>
	</g>
	<g>
		<rect x="101.4" y="26.7" width="50.8" height="2.2"/>
		<polyline points="101.4,43.3 152.2,43.3 152.2,45.5 101.4,45.5 		"/>
		<polyline points="101.4,39.2 152.2,39.2 152.2,41.4 101.4,41.4 		"/>
		<polyline points="101.4,35 152.2,35 152.2,37.3 101.4,37.3 		"/>
		<polyline points="101.4,30.9 152.2,30.9 152.2,33.1 101.4,33.1 		"/>
		<polyline points="101.4,26.7 152.2,26.7 152.2,29 101.4,29 		"/>
	</g>
	<g>
		<rect x="119.7" y="67.2" width="37.2" height="2.2"/>
	</g>
	<g>
		<rect x="119.7" y="63" width="37.2" height="2.2"/>
	</g>
	<g>
		<rect x="119.7" y="58.9" width="37.2" height="2.2"/>
	</g>
	<g>
		<rect x="119.7" y="54.8" width="37.2" height="2.2"/>
	</g>
	<g>
		<rect x="119.7" y="50.6" width="37.2" height="2.2"/>
	</g>
	<g>
		<rect x="119.7" y="19.4" width="37.2" height="2.2"/>
	</g>
	<g>
		<rect x="119.7" y="15.3" width="37.2" height="2.2"/>
	</g>
	<g>
		<rect x="119.7" y="11.1" width="37.2" height="2.2"/>
	</g>
	<g>
		<rect x="119.7" y="7" width="37.2" height="2.2"/>
	</g>
	<g>
		<rect x="119.7" y="2.9" width="37.2" height="2.2"/>
	</g>
	<g>
		<rect x="118" y="45.5" width="2.2" height="24.2"/>
	</g>
	<g>
		<rect x="113.8" y="45.5" width="2.2" height="24.2"/>
	</g>
	<g>
		<rect x="109.7" y="45.5" width="2.2" height="24.2"/>
	</g>
	<g>
		<rect x="105.6" y="45.5" width="2.2" height="24.2"/>
	</g>
	<g>
		<rect x="101.4" y="45.5" width="2.2" height="24.2"/>
	</g>
	<g>
		<rect x="118" y="2.8" width="2.2" height="24.2"/>
	</g>
	<g>
		<rect x="113.8" y="2.8" width="2.2" height="24.2"/>
	</g>
	<g>
		<rect x="109.7" y="2.8" width="2.2" height="24.2"/>
	</g>
	<g>
		<rect x="105.6" y="2.8" width="2.2" height="24.2"/>
	</g>
	<g>
		<rect x="101.4" y="2.8" width="2.2" height="24.2"/>
	</g>
	<polygon points="120.2,45.5 119.6,46.9 101.9,51 102.1,44 	"/>
	<g>
		<g>
			<rect x="135.6" y="101.2" width="50.8" height="2.2"/>
			<polyline points="135.6,117.8 186.4,117.8 186.4,120 135.6,120 			"/>
			<polyline points="135.6,113.7 186.4,113.7 186.4,115.9 135.6,115.9 			"/>
			<polyline points="135.6,109.5 186.4,109.5 186.4,111.8 135.6,111.8 			"/>
			<polyline points="135.6,105.4 186.4,105.4 186.4,107.6 135.6,107.6 			"/>
			<polyline points="135.6,101.2 186.4,101.2 186.4,103.5 135.6,103.5 			"/>
		</g>
	</g>
	<g>
		<g>
			<rect x="153.9" y="141.7" width="37.2" height="2.2"/>
		</g>
		<g>
			<rect x="153.9" y="137.5" width="37.2" height="2.2"/>
		</g>
		<g>
			<rect x="153.9" y="133.4" width="37.2" height="2.2"/>
		</g>
		<g>
			<rect x="153.9" y="129.3" width="37.2" height="2.2"/>
		</g>
		<g>
			<rect x="153.9" y="125.1" width="37.2" height="2.2"/>
		</g>
	</g>
	<g>
		<g>
			<rect x="153.9" y="93.1" width="37.2" height="2.2"/>
		</g>
		<g>
			<rect x="153.9" y="89" width="37.2" height="2.2"/>
		</g>
		<g>
			<rect x="153.9" y="84.9" width="37.2" height="2.2"/>
		</g>
		<g>
			<rect x="153.9" y="80.7" width="37.2" height="2.2"/>
		</g>
		<g>
			<rect x="153.9" y="76.6" width="37.2" height="2.2"/>
		</g>
	</g>
	<g>
		<g>
			<rect x="152.1" y="120" width="2.2" height="24.2"/>
		</g>
		<g>
			<rect x="148" y="120" width="2.2" height="24.2"/>
		</g>
		<g>
			<rect x="143.8" y="120" width="2.2" height="24.2"/>
		</g>
		<g>
			<rect x="139.7" y="120" width="2.2" height="24.2"/>
		</g>
		<g>
			<rect x="135.6" y="120" width="2.2" height="24.2"/>
		</g>
	</g>
	<g>
		<g>
			<rect x="152.1" y="76.5" width="2.2" height="25"/>
		</g>
		<g>
			<rect x="148" y="76.5" width="2.2" height="25"/>
		</g>
		<g>
			<rect x="143.8" y="76.5" width="2.2" height="25"/>
		</g>
		<g>
			<rect x="139.7" y="76.5" width="2.2" height="25"/>
		</g>
		<g>
			<rect x="135.6" y="76.5" width="2.2" height="25"/>
		</g>
	</g>
	<polygon points="154.4,120 153.8,121.4 136,124.8 136.2,118.5 	"/>
	<g>
		<g>
			<rect x="88.9" y="76.3" width="2.3" height="68.4"/>
		</g>
		<g>
			<rect x="84.7" y="76.3" width="2.3" height="68.4"/>
		</g>
		<g>
			<rect x="80.5" y="76.3" width="2.3" height="68.4"/>
		</g>
		<g>
			<rect x="76.3" y="76.3" width="2.3" height="68.4"/>
		</g>
		<g>
			<rect x="72.1" y="76.3" width="2.3" height="68.4"/>
		</g>
	</g>
	<g>
		<g>
			<rect x="88.9" y="150.4" width="2.3" height="68.4"/>
		</g>
		<g>
			<rect x="84.7" y="150.4" width="2.3" height="68.4"/>
		</g>
		<g>
			<rect x="80.5" y="150.4" width="2.3" height="68.4"/>
		</g>
		<g>
			<rect x="76.3" y="150.4" width="2.3" height="68.4"/>
		</g>
		<g>
			<rect x="72.1" y="150.4" width="2.3" height="68.4"/>
		</g>
	</g>
	<g>
		<g>
			<rect x="284.9" y="76.3" width="2.3" height="68.4"/>
		</g>
		<g>
			<rect x="280.7" y="76.3" width="2.3" height="68.4"/>
		</g>
		<g>
			<rect x="276.5" y="76.3" width="2.3" height="68.4"/>
		</g>
		<g>
			<rect x="272.3" y="76.3" width="2.3" height="68.4"/>
		</g>
		<g>
			<rect x="268.1" y="76.3" width="2.3" height="68.4"/>
		</g>
	</g>
	<path d="M90.4,103.4h18.5c3,0,5.5-2.5,5.5-5.5c0-3-2.5-5.5-5.5-5.5H90.3v2.5h18.6c2.9,0,4.1,1.4,4.1,3c0,1.7-1.2,3-4.1,3H90.4
		V103.4z"/>
	<path d="M90.4,107.5h18.5c5.3,0,9.6-4.3,9.6-9.6c0-5.3-4.3-9.6-9.6-9.6H90.3v2.5h18.6c5,0,7.7,1.9,7.7,7.1c0,3.9-3.7,7.1-7.7,7.1
		H90.4V107.5z"/>
	<path d="M90.4,111.5h18.5c7.5,0,13.7-6.1,13.7-13.7c0-7.5-6.1-13.7-13.7-13.7H90.3v2.5h18.6c8.7,0,11.2,4.6,11.2,11.2
		c0,6.2-5,11.2-11.2,11.2H90.4"/>
	<path d="M90.4,115.6h18.5c9.8,0,17.7-8,17.7-17.7c0-9.8-8-17.7-17.7-17.7H90.3v2.5h18.6c9.5,0,15.3,4,15.3,15.3
		c0,8.4-6.9,15.3-15.3,15.3H90.4"/>
	<path d="M90.4,119.7h18.5c12,0,21.8-9.8,21.8-21.8c0-12-9.8-21.8-21.8-21.8H90.3v2.5h18.6c10.7,0,19.3,5.6,19.3,19.3
		c0,10.7-8.7,19.3-19.3,19.3H90.4"/>
	<g>
		<line x1="104.4" y1="119.7" x2="106.9" y2="119.7"/>
		<path d="M112.9,119.3c0.8-0.1,1.5-0.3,2.3-0.6"/>
		<path d="M119,117.2c-0.7,0.4-1.4,0.7-2.1,1"/>
		<path d="M111.1,119.6c-0.7,0.1-1.5,0.1-2.2,0.1h-0.2"/>
		<line x1="102.5" y1="119.7" x2="100" y2="119.7"/>
	</g>
	<g>
		<g>
			<rect x="117.2" y="150.6" width="2.3" height="68.4"/>
		</g>
		<g>
			<rect x="113" y="150.6" width="2.3" height="68.4"/>
		</g>
		<g>
			<rect x="108.8" y="150.6" width="2.3" height="68.4"/>
		</g>
		<g>
			<rect x="104.6" y="150.6" width="2.3" height="68.4"/>
		</g>
		<g>
			<rect x="100.4" y="150.6" width="2.3" height="68.4"/>
		</g>
	</g>
	<path d="M118.7,177.7h18.5c3,0,5.5-2.5,5.5-5.5c0-3-2.5-5.5-5.5-5.5h-18.6v2.5h18.6c2.9,0,4.1,1.4,4.1,3s-1.2,3-4.1,3h-18.5V177.7z
		"/>
	<path d="M118.7,181.8h18.5c5.3,0,9.6-4.3,9.6-9.6c0-5.3-4.3-9.6-9.6-9.6h-18.6v2.5h18.6c5,0,7.7,1.9,7.7,7.1c0,3.9-3.7,7.1-7.7,7.1
		h-18.5V181.8z"/>
	<path d="M118.7,185.9h18.5c7.5,0,13.7-6.1,13.7-13.7c0-7.5-6.1-13.7-13.7-13.7h-18.6v2.5h18.6c8.7,0,11.2,4.6,11.2,11.2
		c0,6.2-5,11.2-11.2,11.2h-18.5"/>
	<path d="M118.7,189.9h18.5c9.8,0,17.7-8,17.7-17.7c0-9.8-8-17.7-17.7-17.7h-18.6v2.5h18.6c9.5,0,15.3,4,15.3,15.3
		c0,8.4-6.9,15.3-15.3,15.3h-18.5"/>
	<path d="M118.7,194h18.5c12,0,21.8-9.8,21.8-21.8c0-12-9.8-21.8-21.8-21.8h-18.6v2.5h18.6c10.7,0,19.3,5.6,19.3,19.3
		c0,10.7-8.7,19.3-19.3,19.3h-18.5"/>
	<g>
		<line x1="132.7" y1="194" x2="135.2" y2="194"/>
		<path d="M141.2,193.6c0.8-0.1,1.5-0.3,2.3-0.6"/>
		<path d="M147.3,191.5c-0.7,0.4-1.4,0.7-2.1,1"/>
		<path d="M139.5,193.9c-0.7,0.1-1.5,0.1-2.2,0.1H137"/>
		<line x1="130.9" y1="194" x2="128.4" y2="194"/>
	</g>
	<polygon points="243.2,144.3 245.5,144.3 222.2,76.6 219.9,76.6 	"/>
	<polygon points="247.4,144.3 249.7,144.3 226.4,76.6 224.1,76.6 	"/>
	<polygon points="251.6,144.3 253.9,144.3 230.6,76.6 228.3,76.6 	"/>
	<polygon points="255.8,144.3 258.1,144.3 234.8,76.6 232.5,76.6 	"/>
	<polygon points="260,144.3 262.3,144.3 239,76.6 236.7,76.6 	"/>
	<g>
		<line x1="222.1" y1="82.4" x2="223.2" y2="85.8"/>
		<line x1="220.1" y1="76.6" x2="221.1" y2="79.6"/>
		<line x1="225.3" y1="91.9" x2="224.2" y2="88.6"/>
		<line x1="226.3" y1="94.8" x2="227.4" y2="98.1"/>
		<line x1="228.4" y1="100.9" x2="229.5" y2="104.3"/>
		<polyline points="229.5,104.3 215.6,144.3 213.3,144.3 228.4,100.9 		"/>
		<polyline points="227.4,98.1 211.4,144.3 209.1,144.3 226.3,94.8 		"/>
		<polyline points="225.3,91.9 207.2,144.3 204.9,144.3 224.2,88.6 		"/>
		<polyline points="223.2,85.8 203,144.3 200.7,144.3 222.1,82.4 		"/>
		<polyline points="221.1,79.6 198.8,144.3 196.5,144.3 219.8,76.6 220.1,76.6 		"/>
	</g>
	<g>
		<g id="XMLID_4_">
			<g>
				<polygon points="239,132.1 239.8,134.4 219,134.4 219.8,132.1 				"/>
				<polygon points="237.6,128 238.4,130.2 220.4,130.2 221.2,128 				"/>
				<polygon points="236.2,123.9 237,126.1 221.8,126.1 222.6,123.9 				"/>
				<polygon points="234.8,119.7 235.6,122 223.3,122 224,119.7 				"/>
				<polygon points="233.4,115.6 234.2,117.8 224.7,117.8 225.4,115.6 				"/>
			</g>
			<g>
			</g>
		</g>
	</g>
	<polygon points="228.6,105 217.1,84.7 219.8,76.6 222.2,77.7 229.9,101.2 	"/>
	<g>
		<path d="M334.4,144.5l-31-33.9l-1,1.8l29.4,32.2h-3.1l-27.4-30.1l-1,1.8l25.8,28.3H323l-23.9-26.2l-1,1.8l22.3,24.4h-3.1
			L297,122.1l-1,1.8l18.7,20.5h-3.1l-20.9-22.9l-0.1,0.1c-1-1.2,0-2.7,0.6-3.4c-1.2-1.4-1-3.1-1-3.1l0.1,0c0-1.1,0.6-2,1.1-2.5
			c-1.2-1.4-1-3.1-1-3.1l0,0c0-1.1,0.6-2,1-2.5c-1.1-1.4-1-3.1-1-3.1l0,0c0-1.1,0.6-2.1,1.1-2.5c-1.1-1.4-1-3.1-1-3.1l0,0
			c0-1.7,1.4-2.9,1.4-2.9l0.7-0.6l15.3-17.9h2.8l-17.6,20.5c-2,1.8-1.6,3.2-1.3,3.7l0.7-0.6L313,76.7h2.9L293,102.8
			c-1.9,1.8-1.6,3.2-1.3,3.7c0,0,0,0,0,0l0.3-0.2l26.3-29.6h3l-28.6,32.1c-1.6,1.7-1.1,3-0.9,3.4c0,0,0,0,0,0l0.6-0.6l31.4-34.9h3
			l-34.1,37.7c-1.6,1.7-1.2,2.9-0.9,3.4c0.1-0.1,0.1-0.1,0.1-0.1l37.4-41h3l-28.4,30.8l33.8,36.9H334.4z"/>
	</g>
	<g>
		<g>
			<g>
				<rect x="22.9" y="151.7" width="2.2" height="24.5"/>
			</g>
			<g>
				<rect x="18.8" y="151.7" width="2.2" height="24.5"/>
			</g>
			<g>
				<rect x="14.7" y="151.7" width="2.2" height="24.5"/>
			</g>
			<g>
				<rect x="10.6" y="151.7" width="2.2" height="24.5"/>
			</g>
			<g>
				<rect x="6.5" y="151.7" width="2.2" height="24.5"/>
			</g>
		</g>
		<g>
			<g>
				<rect x="22.9" y="194.8" width="2.2" height="24"/>
			</g>
			<g>
				<rect x="18.8" y="194.8" width="2.2" height="24"/>
			</g>
			<g>
				<rect x="14.7" y="194.8" width="2.2" height="24"/>
			</g>
			<g>
				<rect x="10.6" y="194.8" width="2.2" height="24"/>
			</g>
			<g>
				<rect x="6.5" y="194.8" width="2.2" height="24"/>
			</g>
		</g>
		<g>
			<g>
				<rect x="60.4" y="154.5" width="2.2" height="64.3"/>
			</g>
			<g>
				<polygon points="58.5,218.8 56.3,218.8 56.3,173.3 58.5,178.7 				"/>
			</g>
			<g>
				<rect x="52.2" y="180.8" width="2.2" height="37.9"/>
			</g>
			<g>
				<rect x="48.1" y="185.1" width="2.2" height="33.6"/>
			</g>
			<g>
				<rect x="44" y="189.4" width="2.2" height="29.3"/>
			</g>
		</g>
		<path d="M59.8,151.7c0,0-0.1,0-0.2,0v-0.1h-1h-2.9c0,0-0.2,0-0.4,0v0h-1h-2.9c0,0-0.2,0-0.4,0v0h-1h-2.9c0,0-0.2,0-0.4,0v0h-1
			h-2.9c0,0-1.8,0-3.1,1.1c-0.9,0.8-1.1,1.9-1.2,2.6h0v20.8h2.3V156h0c0,0-0.2-3.8,2.1-3.8h1.8c-0.2,0.1-0.5,0.3-0.7,0.5
			c-0.9,0.8-1.1,1.9-1.2,2.6h0v0.1c0,0.4,0,0.6,0,0.6v20.1h2.3v-20.4c0-0.9,0.3-3.4,2.1-3.4H49c-0.2,0.1-0.5,0.3-0.7,0.5
			c-1.4,1.3-1.2,3.3-1.2,3.3v20.1h2.3V156c0,0-0.2-3.8,2.1-3.8h1.8c-0.2,0.1-0.5,0.3-0.7,0.5c-0.9,0.8-1.1,1.9-1.2,2.6h0v0.1
			c0,0.4,0,0.6,0,0.6v20.1h2.3v-20.4c0-0.9,0.3-3.4,2.1-3.4h1.8c-0.2,0.1-0.4,0.3-0.6,0.5c-0.9,0.9-1.2,2.2-1.2,2.9h0v0.1
			c0,0.2,0,0.4,0,0.4h0v20.1L58,173v-17.4h0c0-0.7,0.2-2,0.8-2.8c0.3-0.4,1.6,0.5,1.6,2.1l2.2-0.1C62.6,151.6,59.8,151.7,59.8,151.7
			z"/>
		<path d="M58,176H6.5l-0.1,2.2h48.4c0,0,0.1,0,0.2,0c-0.1,0.5-0.6,1.7-2.9,1.9H6.5v2.2h43.9l0.8,0c0,0,0,0,0,0
			c-0.1,0.5-0.6,1.7-2.9,1.9H6.5v2.2h40.7l0.3,0c0,0,0,0,0,0c-0.1,0.5-0.7,1.8-3.3,1.9H6.5v2.2h36.4h1l0,0c-0.1,0.5-0.7,1.8-3.3,1.9
			H6.5v2.2h32.8h1c0,0,1.8,0,2.9-1.2l0,0c0,0,1.2-1.2,1.3-2.9c0.6-0.1,1.7-0.4,2.4-1.2l0,0c0,0,1.2-1.2,1.3-2.9
			c0.6-0.1,1.6-0.4,2.4-1.2l0,0c0,0,1.2-1.2,1.3-3c0.6-0.1,1.6-0.4,2.4-1.2l0.1,0c0,0,1.2-1.2,1.3-3C56.3,178,58,177.5,58,176z"/>
		<polygon points="43.7,192.6 57.2,176.6 56.8,175 		"/>
		<path d="M57.2,176.6c0,0,0.9-0.2,0.8-5l-1.9-0.4l-0.4,2.2c0,0,0.7,2.5-1.1,2.5l-0.1,0.8L57.2,176.6z"/>
		<polygon points="57.4,156.2 61.1,155 60.1,152.1 57.5,152.2 		"/>
		<polygon points="25.1,194.8 24.5,196.1 6.9,200.2 7.1,193.3 		"/>
		<polygon points="58,176 44.7,197.7 44.4,191.5 56.6,176.1 		"/>
	</g>
	<g>
		<g>
			<rect x="314.6" y="150.6" width="2.3" height="68.4"/>
		</g>
		<g>
			<rect x="310.4" y="150.6" width="2.3" height="68.4"/>
		</g>
		<g>
			<rect x="306.2" y="150.6" width="2.3" height="68.4"/>
		</g>
		<g>
			<rect x="302" y="150.6" width="2.3" height="68.4"/>
		</g>
		<g>
			<rect x="297.8" y="150.6" width="2.3" height="68.4"/>
		</g>
	</g>
	<path d="M316.1,177.7h18.5c3,0,5.5-2.5,5.5-5.5c0-3-2.5-5.5-5.5-5.5H316v2.5h18.6c2.9,0,4.1,1.4,4.1,3s-1.2,3-4.1,3h-18.5V177.7z"
		/>
	<path d="M316.1,181.8h18.5c5.3,0,9.6-4.3,9.6-9.6c0-5.3-4.3-9.6-9.6-9.6H316v2.5h18.6c5,0,7.7,1.9,7.7,7.1c0,3.9-3.7,7.1-7.7,7.1
		h-18.5V181.8z"/>
	<path d="M316.1,185.9h18.5c7.5,0,13.7-6.1,13.7-13.7c0-7.5-6.1-13.7-13.7-13.7H316v2.5h18.6c8.7,0,11.2,4.6,11.2,11.2
		c0,6.2-5,11.2-11.2,11.2h-18.5"/>
	<path d="M316.1,189.9h18.5c9.8,0,17.7-8,17.7-17.7c0-9.8-8-17.7-17.7-17.7H316v2.5h18.6c9.5,0,15.3,4,15.3,15.3
		c0,8.4-6.9,15.3-15.3,15.3h-18.5"/>
	<path d="M316.1,194h18.5c12,0,21.8-9.8,21.8-21.8c0-12-9.8-21.8-21.8-21.8H316v2.5h18.6c10.7,0,19.3,5.6,19.3,19.3
		c0,10.7-8.7,19.3-19.3,19.3h-18.5"/>
	<g>
		<line x1="330" y1="194" x2="332.5" y2="194"/>
		<path d="M338.6,193.6c0.8-0.1,1.5-0.3,2.3-0.6"/>
		<path d="M344.7,191.5c-0.7,0.4-1.4,0.7-2.1,1"/>
		<path d="M336.8,193.9c-0.7,0.1-1.5,0.1-2.2,0.1h-0.2"/>
		<line x1="328.2" y1="194" x2="325.7" y2="194"/>
	</g>
	<g>
		<g>
			<g>
				<rect x="181.4" y="151.7" width="2.2" height="24.5"/>
			</g>
			<g>
				<rect x="177.3" y="151.7" width="2.2" height="24.5"/>
			</g>
			<g>
				<rect x="173.2" y="151.7" width="2.2" height="24.5"/>
			</g>
			<g>
				<rect x="169.1" y="151.7" width="2.2" height="24.5"/>
			</g>
			<g>
				<rect x="165" y="151.7" width="2.2" height="24.5"/>
			</g>
		</g>
		<g>
			<g>
				<rect x="181.4" y="194.8" width="2.2" height="24"/>
			</g>
			<g>
				<rect x="177.3" y="194.8" width="2.2" height="24"/>
			</g>
			<g>
				<rect x="173.2" y="194.8" width="2.2" height="24"/>
			</g>
			<g>
				<rect x="169.1" y="194.8" width="2.2" height="24"/>
			</g>
			<g>
				<rect x="165" y="194.8" width="2.2" height="24"/>
			</g>
		</g>
		<g>
			<g>
				<rect x="218.9" y="154.5" width="2.2" height="64.3"/>
			</g>
			<g>
				<polygon points="217.1,218.8 214.8,218.8 214.8,173.3 217.1,178.7 				"/>
			</g>
			<g>
				<rect x="210.7" y="180.8" width="2.2" height="37.9"/>
			</g>
			<g>
				<rect x="206.7" y="185.1" width="2.2" height="33.6"/>
			</g>
			<g>
				<rect x="202.6" y="189.4" width="2.2" height="29.3"/>
			</g>
		</g>
		<path d="M218.3,151.7c0,0-0.1,0-0.2,0v-0.1h-1h-2.9c0,0-0.2,0-0.4,0v0h-1h-2.9c0,0-0.2,0-0.4,0v0h-1h-2.9c0,0-0.2,0-0.4,0v0h-1
			h-2.9c0,0-1.8,0-3.1,1.1c-0.9,0.8-1.1,1.9-1.2,2.6h0v20.8h2.3V156h0c0,0-0.2-3.8,2.1-3.8h1.8c-0.2,0.1-0.5,0.3-0.7,0.5
			c-0.9,0.8-1.1,1.9-1.2,2.6h0v0.1c0,0.4,0,0.6,0,0.6v20.1h2.3v-20.4c0-0.9,0.3-3.4,2.1-3.4h1.8c-0.2,0.1-0.5,0.3-0.7,0.5
			c-1.4,1.3-1.2,3.3-1.2,3.3v20.1h2.3V156c0,0-0.2-3.8,2.1-3.8h1.8c-0.2,0.1-0.5,0.3-0.7,0.5c-0.9,0.8-1.1,1.9-1.2,2.6h0v0.1
			c0,0.4,0,0.6,0,0.6v20.1h2.3v-20.4c0-0.9,0.3-3.4,2.1-3.4h1.8c-0.2,0.1-0.4,0.3-0.6,0.5c-0.9,0.9-1.2,2.2-1.3,2.9h0v0.1
			c0,0.2,0,0.4,0,0.4h0v20.1l2.3-3.1v-17.4h0c0-0.7,0.2-2,0.8-2.8c0.3-0.4,1.6,0.5,1.6,2.1l2.2-0.1
			C221.1,151.6,218.3,151.7,218.3,151.7z"/>
		<path d="M216.6,176H165l-0.1,2.2h48.4c0,0,0.1,0,0.2,0c-0.1,0.5-0.6,1.7-2.9,1.9H165v2.2h43.9l0.8,0c0,0,0,0,0,0
			c-0.1,0.5-0.6,1.7-2.9,1.9H165v2.2h40.7l0.3,0c0,0,0,0,0,0c-0.1,0.5-0.7,1.8-3.3,1.9H165v2.2h36.4h1l0,0c-0.1,0.5-0.7,1.8-3.3,1.9
			H165v2.2h32.8h1c0,0,1.8,0,2.9-1.2l0,0c0,0,1.2-1.2,1.3-2.9c0.6-0.1,1.7-0.4,2.4-1.2l0,0c0,0,1.2-1.2,1.3-2.9
			c0.6-0.1,1.6-0.4,2.4-1.2l0,0c0,0,1.2-1.2,1.3-3c0.6-0.1,1.6-0.4,2.4-1.2l0.1,0c0,0,1.2-1.2,1.3-3
			C214.8,178,216.6,177.5,216.6,176z"/>
		<polygon points="202.2,192.6 215.8,176.6 215.3,175 		"/>
		<path d="M215.8,176.6c0,0,0.9-0.2,0.8-5l-1.9-0.4l-0.4,2.2c0,0,0.7,2.5-1.1,2.5l-0.1,0.8L215.8,176.6z"/>
		<polygon points="216,156.2 219.6,155 218.7,152.1 216.1,152.2 		"/>
		<polygon points="183.6,194.8 183.1,196.1 165.5,200.2 165.7,193.3 		"/>
		<polygon points="216.6,176 203.3,197.7 202.9,191.5 215.1,176.1 		"/>
	</g>
	<g>
		<path d="M258.9,218.8c-18.7,0-33.9-15.2-33.9-33.9c0-18.7,15.2-33.9,33.9-33.9c18.7,0,33.9,15.2,33.9,33.9
			C292.9,203.5,277.6,218.8,258.9,218.8z M258.9,153c-17.5,0-31.8,14.3-31.8,31.8c0,17.5,14.3,31.8,31.8,31.8
			c17.5,0,31.8-14.3,31.8-31.8C290.7,167.3,276.5,153,258.9,153z"/>
	</g>
	<g>
		<path d="M258.9,214.8c-16.6,0-30-13.5-30-30c0-16.6,13.5-30,30-30c16.6,0,30,13.5,30,30C289,201.4,275.5,214.8,258.9,214.8z
			 M258.9,156.9c-15.4,0-27.9,12.5-27.9,27.9c0,15.4,12.5,27.9,27.9,27.9c15.4,0,27.9-12.5,27.9-27.9
			C286.8,169.4,274.3,156.9,258.9,156.9z"/>
	</g>
	<g>
		<path d="M258.9,210.9c-14.4,0-26.1-11.7-26.1-26.1c0-14.4,11.7-26.1,26.1-26.1c14.4,0,26.1,11.7,26.1,26.1
			C285,199.2,273.3,210.9,258.9,210.9z M258.9,160.8c-13.2,0-24,10.8-24,24c0,13.2,10.8,24,24,24c13.2,0,24-10.8,24-24
			C282.9,171.6,272.2,160.8,258.9,160.8z"/>
	</g>
	<g>
		<path d="M258.9,207c-12.2,0-22.2-10-22.2-22.2c0-12.2,10-22.2,22.2-22.2c12.2,0,22.2,10,22.2,22.2
			C281.1,197.1,271.2,207,258.9,207z M258.9,164.7c-11.1,0-20.1,9-20.1,20.1c0,11.1,9,20.1,20.1,20.1c11.1,0,20.1-9,20.1-20.1
			C279,173.7,270,164.7,258.9,164.7z"/>
	</g>
	<g>
		<path d="M258.9,203.1c-10.1,0-18.3-8.2-18.3-18.3c0-10.1,8.2-18.3,18.3-18.3c10.1,0,18.3,8.2,18.3,18.3
			C277.2,194.9,269,203.1,258.9,203.1z M258.9,168.6c-8.9,0-16.2,7.3-16.2,16.2c0,8.9,7.3,16.2,16.2,16.2c8.9,0,16.2-7.3,16.2-16.2
			C275.1,175.9,267.8,168.6,258.9,168.6z"/>
	</g>
</g>
</svg>
