<?xml version="1.0" encoding="utf-8"?>
<!-- Generator: Adobe Illustrator 21.1.0, SVG Export Plug-In . SVG Version: 6.00 Build 0)  -->
<svg version="1.1" id="Layer_1" xmlns="http://www.w3.org/2000/svg" xmlns:xlink="http://www.w3.org/1999/xlink" x="0px" y="0px"
	 viewBox="0 0 1050 1050" style="enable-background:new 0 0 1050 1050;" xml:space="preserve">
<style type="text/css">
	.platine-st0{fill:none;stroke:#999999;stroke-miterlimit:10;}
</style>
<g>
	<ellipse class="platine-st0" cx="525" cy="525" rx="522.7" ry="521.8"/>
	<line class="platine-st0" x1="502.4" y1="26.8" x2="501.9" y2="17.1"/>
	<line class="platine-st0" x1="479.1" y1="28.3" x2="478.2" y2="18.6"/>
	<line class="platine-st0" x1="456" y1="30.9" x2="454.6" y2="21.3"/>
	<line class="platine-st0" x1="432.9" y1="34.5" x2="431.1" y2="25"/>
	<line class="platine-st0" x1="387.5" y1="45" x2="384.8" y2="35.7"/>
	<line class="platine-st0" x1="365.2" y1="51.8" x2="362.1" y2="42.6"/>
	<line class="platine-st0" x1="343.3" y1="59.7" x2="339.7" y2="50.6"/>
	<line class="platine-st0" x1="321.7" y1="68.5" x2="317.8" y2="59.7"/>
	<line class="platine-st0" x1="279.9" y1="89.2" x2="275.2" y2="80.7"/>
	<line class="platine-st0" x1="259.8" y1="101" x2="254.7" y2="92.7"/>
	<line class="platine-st0" x1="240.3" y1="113.7" x2="234.7" y2="105.7"/>
	<line class="platine-st0" x1="221.3" y1="127.3" x2="215.4" y2="119.6"/>
	<line class="platine-st0" x1="185.4" y1="157" x2="178.9" y2="149.9"/>
	<line class="platine-st0" x1="168.6" y1="173.1" x2="161.7" y2="166.3"/>
	<line class="platine-st0" x1="152.5" y1="190" x2="145.3" y2="183.5"/>
	<line class="platine-st0" x1="142.1" y1="204.3" x2="134.5" y2="198.2"/>
	<line class="platine-st0" x1="109.1" y1="244.8" x2="101.1" y2="239.4"/>
	<line class="platine-st0" x1="96.4" y1="264.4" x2="88.1" y2="259.3"/>
	<line class="platine-st0" x1="84.7" y1="284.5" x2="76.1" y2="279.8"/>
	<line class="platine-st0" x1="73.8" y1="305.1" x2="65.1" y2="300.9"/>
	<line class="platine-st0" x1="55.1" y1="347.8" x2="46" y2="344.4"/>
	<line class="platine-st0" x1="47.3" y1="369.8" x2="38" y2="366.8"/>
	<line class="platine-st0" x1="40.5" y1="392.1" x2="31.1" y2="389.5"/>
	<line class="platine-st0" x1="34.7" y1="414.7" x2="25.2" y2="412.5"/>
	<line class="platine-st0" x1="26.3" y1="460.5" x2="16.7" y2="459.3"/>
	<line class="platine-st0" x1="23.8" y1="483.7" x2="14.1" y2="482.9"/>
	<line class="platine-st0" x1="22.3" y1="506.9" x2="12.6" y2="506.6"/>
	<line class="platine-st0" x1="21.9" y1="530.3" x2="12.2" y2="530.4"/>
	<line class="platine-st0" x1="24.3" y1="576.8" x2="14.6" y2="577.8"/>
	<line class="platine-st0" x1="27.1" y1="599.9" x2="17.5" y2="601.4"/>
	<line class="platine-st0" x1="31.1" y1="622.9" x2="21.5" y2="624.8"/>
	<line class="platine-st0" x1="36" y1="645.7" x2="26.6" y2="648.1"/>
	<line class="platine-st0" x1="49.2" y1="690.4" x2="40" y2="693.6"/>
	<line class="platine-st0" x1="57.3" y1="712.3" x2="48.2" y2="715.9"/>
	<line class="platine-st0" x1="66.4" y1="733.7" x2="57.5" y2="737.8"/>
	<line class="platine-st0" x1="76.5" y1="754.8" x2="67.8" y2="759.2"/>
	<line class="platine-st0" x1="99.5" y1="795.3" x2="91.4" y2="800.5"/>
	<line class="platine-st0" x1="112.5" y1="814.7" x2="104.5" y2="820.3"/>
	<line class="platine-st0" x1="126.3" y1="833.4" x2="118.6" y2="839.4"/>
	<line class="platine-st0" x1="140.9" y1="851.6" x2="133.6" y2="857.9"/>
	<line class="platine-st0" x1="172.7" y1="885.7" x2="166" y2="892.6"/>
	<line class="platine-st0" x1="189.8" y1="901.6" x2="183.4" y2="908.8"/>
	<line class="platine-st0" x1="207.5" y1="916.6" x2="201.5" y2="924.2"/>
	<line class="platine-st0" x1="226" y1="930.9" x2="220.3" y2="938.7"/>
	<line class="platine-st0" x1="264.8" y1="956.7" x2="259.8" y2="965.1"/>
	<line class="platine-st0" x1="285" y1="968.3" x2="280.5" y2="976.8"/>
	<line class="platine-st0" x1="305.8" y1="978.8" x2="301.7" y2="987.6"/>
	<line class="platine-st0" x1="327.1" y1="988.5" x2="323.3" y2="997.4"/>
	<line class="platine-st0" x1="370.8" y1="1004.7" x2="367.9" y2="1013.9"/>
	<line class="platine-st0" x1="393.1" y1="1011.2" x2="390.7" y2="1020.6"/>
	<line class="platine-st0" x1="415.8" y1="1016.7" x2="413.8" y2="1026.2"/>
	<line class="platine-st0" x1="438.7" y1="1021.2" x2="437.1" y2="1030.8"/>
	<line class="platine-st0" x1="484.9" y1="1026.8" x2="484.3" y2="1036.5"/>
	<line class="platine-st0" x1="508.2" y1="1028.1" x2="508" y2="1037.8"/>
	<line class="platine-st0" x1="531.5" y1="1028.2" x2="531.8" y2="1037.9"/>
	<line class="platine-st0" x1="554.8" y1="1027.3" x2="555.5" y2="1036.9"/>
	<line class="platine-st0" x1="601.2" y1="1022.1" x2="602.7" y2="1031.7"/>
	<line class="platine-st0" x1="624.1" y1="1017.9" x2="626.1" y2="1027.4"/>
	<line class="platine-st0" x1="646.8" y1="1012.7" x2="649.3" y2="1022.1"/>
	<line class="platine-st0" x1="669.3" y1="1006.4" x2="672.1" y2="1015.7"/>
	<line class="platine-st0" x1="713.1" y1="990.7" x2="716.9" y2="999.7"/>
	<line class="platine-st0" x1="734.5" y1="981.3" x2="738.7" y2="990.1"/>
	<line class="platine-st0" x1="755.4" y1="971" x2="760" y2="979.6"/>
	<line class="platine-st0" x1="775.8" y1="959.7" x2="780.7" y2="968.1"/>
	<line class="platine-st0" x1="814.9" y1="934.3" x2="820.6" y2="942.2"/>
	<line class="platine-st0" x1="833.5" y1="920.3" x2="839.6" y2="927.9"/>
	<line class="platine-st0" x1="851.4" y1="905.4" x2="857.9" y2="912.7"/>
	<line class="platine-st0" x1="868.7" y1="889.7" x2="875.4" y2="896.7"/>
	<line class="platine-st0" x1="885.2" y1="873.2" x2="892.2" y2="879.9"/>
	<line class="platine-st0" x1="900.9" y1="856" x2="908.2" y2="862.3"/>
	<line class="platine-st0" x1="915.7" y1="838" x2="923.4" y2="844"/>
	<line class="platine-st0" x1="929.8" y1="819.4" x2="937.7" y2="825"/>
	<line class="platine-st0" x1="942.9" y1="800.2" x2="951.1" y2="805.4"/>
	<line class="platine-st0" x1="966.5" y1="759.9" x2="975.1" y2="764.4"/>
	<line class="platine-st0" x1="976.8" y1="739.1" x2="985.6" y2="743.1"/>
	<line class="platine-st0" x1="986.2" y1="717.7" x2="995.2" y2="721.3"/>
	<line class="platine-st0" x1="994.5" y1="695.9" x2="1003.7" y2="699.1"/>
	<line class="platine-st0" x1="1008.1" y1="651.4" x2="1017.6" y2="653.7"/>
	<line class="platine-st0" x1="1013.4" y1="628.6" x2="1022.9" y2="630.6"/>
	<line class="platine-st0" x1="1017.6" y1="605.7" x2="1027.2" y2="607.2"/>
	<line class="platine-st0" x1="1020.7" y1="582.6" x2="1030.3" y2="583.6"/>
	<line class="platine-st0" x1="1023.7" y1="536.1" x2="1033.4" y2="536.2"/>
	<line class="platine-st0" x1="1023.5" y1="512.8" x2="1033.2" y2="512.4"/>
	<line class="platine-st0" x1="1022.3" y1="489.5" x2="1032" y2="488.7"/>
	<line class="platine-st0" x1="1020" y1="466.3" x2="1029.6" y2="465.1"/>
	<line class="platine-st0" x1="1012.2" y1="420.3" x2="1021.6" y2="418.2"/>
	<line class="platine-st0" x1="1006.7" y1="397.7" x2="1016" y2="395.1"/>
	<line class="platine-st0" x1="1000.1" y1="375.3" x2="1009.3" y2="372.3"/>
	<line class="platine-st0" x1="992.5" y1="353.3" x2="1001.6" y2="349.9"/>
	<line class="platine-st0" x1="974.3" y1="310.4" x2="983" y2="306.1"/>
	<line class="platine-st0" x1="963.7" y1="289.6" x2="972.2" y2="284.9"/>
	<line class="platine-st0" x1="952.2" y1="269.3" x2="960.5" y2="264.3"/>
	<line class="platine-st0" x1="939.7" y1="249.6" x2="947.8" y2="244.2"/>
	<line class="platine-st0" x1="912.1" y1="212.1" x2="919.6" y2="205.9"/>
	<line class="platine-st0" x1="897" y1="194.3" x2="904.2" y2="187.8"/>
	<line class="platine-st0" x1="881.1" y1="177.3" x2="888" y2="170.4"/>
	<line class="platine-st0" x1="864.4" y1="161" x2="871" y2="153.8"/>
	<line class="platine-st0" x1="828.9" y1="130.8" x2="834.8" y2="123.1"/>
	<line class="platine-st0" x1="810.1" y1="117" x2="815.6" y2="109"/>
	<line class="platine-st0" x1="790.7" y1="104.1" x2="795.9" y2="95.8"/>
	<line class="platine-st0" x1="770.7" y1="92.1" x2="775.5" y2="83.6"/>
	<line class="platine-st0" x1="729.2" y1="70.9" x2="733.2" y2="62"/>
	<line class="platine-st0" x1="707.8" y1="61.8" x2="711.3" y2="52.8"/>
	<line class="platine-st0" x1="685.9" y1="53.7" x2="689" y2="44.5"/>
	<line class="platine-st0" x1="663.7" y1="46.6" x2="666.4" y2="37.3"/>
	<line class="platine-st0" x1="618.4" y1="35.6" x2="620.2" y2="26.1"/>
	<line class="platine-st0" x1="595.4" y1="31.7" x2="596.8" y2="22.1"/>
	<line class="platine-st0" x1="572.3" y1="28.8" x2="573.2" y2="19.2"/>
	<line class="platine-st0" x1="549" y1="27.1" x2="549.5" y2="17.4"/>
	<line class="platine-st0" x1="502.4" y1="26.8" x2="502" y2="17.1"/>
	<g>
		<line class="platine-st0" x1="525.1" y1="34.5" x2="525.1" y2="13.5"/>
		<line class="platine-st0" x1="411" y1="47.1" x2="406.2" y2="27.1"/>
		<line class="platine-st0" x1="302.8" y1="86.2" x2="293.5" y2="67.8"/>
		<line class="platine-st0" x1="206.6" y1="149" x2="193.3" y2="133.3"/>
		<line class="platine-st0" x1="127.5" y1="232.4" x2="110.9" y2="220.1"/>
		<line class="platine-st0" x1="69.8" y1="331.7" x2="50.8" y2="323.6"/>
		<line class="platine-st0" x1="36.5" y1="441.6" x2="16.2" y2="438.1"/>
		<line class="platine-st0" x1="29.6" y1="556.2" x2="9" y2="557.5"/>
		<line class="platine-st0" x1="49.3" y1="669.3" x2="29.5" y2="675.3"/>
		<line class="platine-st0" x1="94.5" y1="774.9" x2="76.7" y2="785.2"/>
		<line class="platine-st0" x1="163" y1="867.1" x2="148" y2="881.3"/>
		<line class="platine-st0" x1="250.9" y1="941.2" x2="239.6" y2="958.4"/>
		<line class="platine-st0" x1="353.5" y1="993" x2="346.5" y2="1012.3"/>
		<line class="platine-st0" x1="465.4" y1="1019.7" x2="463" y2="1040.2"/>
		<line class="platine-st0" x1="580.4" y1="1020.1" x2="582.8" y2="1040.5"/>
		<line class="platine-st0" x1="692.4" y1="993.9" x2="699.5" y2="1013.2"/>
		<line class="platine-st0" x1="795.3" y1="942.7" x2="806.7" y2="959.8"/>
		<line class="platine-st0" x1="952.6" y1="777.2" x2="970.4" y2="787.5"/>
		<line class="platine-st0" x1="998.5" y1="671.9" x2="1018.2" y2="677.8"/>
		<line class="platine-st0" x1="1018.8" y1="558.9" x2="1039.4" y2="560.1"/>
		<line class="platine-st0" x1="1012.5" y1="444.3" x2="1032.8" y2="440.7"/>
		<line class="platine-st0" x1="979.8" y1="334.2" x2="998.7" y2="326"/>
		<line class="platine-st0" x1="922.7" y1="234.6" x2="939.2" y2="222.3"/>
		<line class="platine-st0" x1="844" y1="150.8" x2="857.2" y2="135"/>
		<line class="platine-st0" x1="748.1" y1="87.4" x2="757.4" y2="69"/>
		<line class="platine-st0" x1="640.2" y1="47.7" x2="644.9" y2="27.7"/>
	</g>
</g>
</svg>
